<svg width="81" height="127" viewBox="0 0 81 127" fill="none" xmlns="http://www.w3.org/2000/svg">
<path d="M80.5824 126.395H40.7912H1V107.011C1 94.0101 14.8758 83.4834 31.9846 83.4834H49.5848C66.7066 83.4834 80.5695 94.0199 80.5695 107.011V126.395H80.5824Z" fill="white"/>
<path d="M79.8022 126.395H79.7894V107.011C79.7894 94.0199 66.0624 83.4834 49.1085 83.4834H31.6809C14.7398 83.4834 1 94.0101 1 107.011V126.395" stroke="#1A2530" stroke-width="1.17033" stroke-miterlimit="10" stroke-linecap="round" stroke-linejoin="round"/>
<path d="M38.9083 93.1966C35.0212 93.1966 31.8782 90.0535 31.8782 86.1665V71.2339H45.9512V86.1665C45.9512 90.0535 42.7954 93.1966 38.9083 93.1966Z" fill="white" stroke="#1A2530" stroke-width="1.17033" stroke-miterlimit="10"/>
<path d="M38.1281 82.2733C34.241 82.2733 31.8782 80.6908 31.8782 76.8037V61.8711H45.9512V76.8037C45.9512 80.6908 42.0152 82.2733 38.1281 82.2733Z" fill="black" fill-opacity="0.12"/>
<path d="M38.9083 93.1966C35.0212 93.1966 31.8782 90.0535 31.8782 86.1665V71.2339H45.9512V86.1665C45.9512 90.0535 42.7954 93.1966 38.9083 93.1966Z" stroke="#1A2530" stroke-width="1.17033" stroke-miterlimit="10"/>
<path d="M31.5061 25.4619C26.2478 27.4036 22.4774 32.9673 20.0563 39.6636C17.6352 46.3599 18.4927 63.0509 18.4927 63.0509C18.4927 63.0509 14.5206 55.8443 13.4866 43.6341C12.4526 31.4239 13.1461 29.4075 15.7185 23.931C18.2783 18.4544 26.1973 11.671 40.0178 11.559C53.8509 11.447 63.2326 15.8033 68.1883 26.7066C73.144 37.6099 58.3223 64.6118 58.3223 64.6118C58.3223 64.6118 60.948 49.8574 59.4726 43.6341C58.0099 37.4107 61.3664 30.7518 54.1787 27.3414C46.9785 23.931 36.7771 23.5202 31.5061 25.4619Z" fill="#1A2530" stroke="#1A2530" stroke-width="1.17033" stroke-miterlimit="10" stroke-linecap="round" stroke-linejoin="round"/>
<path d="M61.7901 54.0668C61.7901 71.6292 44.3972 78.6562 37.2132 78.6562C30.0291 78.6562 16.4146 71.6164 16.4146 54.0668C16.4146 36.5172 12.4506 22.2773 40.4812 22.2773C68.5118 22.2773 61.7901 36.5172 61.7901 54.0668Z" fill="white" stroke="#1A2530" stroke-width="1.17033" stroke-miterlimit="10"/>
<path d="M23.341 51.4903C24.673 51.4903 25.7528 50.4105 25.7528 49.0785C25.7528 47.7465 24.673 46.6667 23.341 46.6667C22.009 46.6667 20.9292 47.7465 20.9292 49.0785C20.9292 50.4105 22.009 51.4903 23.341 51.4903Z" fill="#1A2530"/>
<path d="M51.9127 43.4242C50.7896 43.1703 49.6378 42.9782 48.4872 42.8473C46.5744 42.6241 44.4824 42.389 42.6158 43.0072C41.2529 43.4625 41.877 45.656 43.255 45.2157C43.4476 45.1507 43.6405 45.101 43.8336 45.0666C43.8929 45.0501 44.1755 45.014 43.9078 45.0499C43.997 45.0328 44.1013 45.0308 44.1904 45.0137C44.6367 44.9591 45.0838 44.9505 45.5309 44.9418C46.0082 44.9478 46.4708 44.9695 46.9483 44.9909C47.1871 45.0016 47.4112 45.0278 47.6503 45.0538C47.7698 45.0668 47.9043 45.0796 48.0238 45.0925C48.2778 45.1183 47.8742 45.0648 48.1433 45.1055C49.2197 45.2532 50.2964 45.4161 51.3596 45.6558C51.9439 45.7977 52.5633 45.4487 52.7154 44.8331C52.8677 44.2328 52.497 43.566 51.9127 43.4242Z" fill="#1A2530"/>
<path d="M19.1753 44.9868C20.2637 44.7218 21.3678 44.5336 22.472 44.3606C22.8248 44.3133 22.242 44.3922 22.5947 44.3448C22.7021 44.3291 22.8094 44.3133 22.9168 44.2976C23.1775 44.2659 23.4382 44.2343 23.699 44.2179C24.1899 44.1701 24.6654 44.1376 25.1565 44.1358C25.6167 44.1187 26.0771 44.1323 26.5376 44.1766C26.6297 44.1916 26.7372 44.1912 26.8293 44.2062C26.553 44.1766 26.86 44.2215 26.9061 44.2213C27.1057 44.2512 27.3054 44.3119 27.505 44.3571C28.9336 44.7814 29.5238 42.5543 28.1105 42.1299C26.1749 41.5694 24.0277 41.8383 22.0646 42.1065C20.8837 42.2797 19.7183 42.4836 18.5532 42.7641C17.9553 42.9198 17.5896 43.5963 17.7605 44.1788C17.9317 44.8073 18.5774 45.1424 19.1753 44.9868Z" fill="#1A2530"/>
<path d="M46.5661 51.4903C47.8981 51.4903 48.9779 50.4105 48.9779 49.0785C48.9779 47.7465 47.8981 46.6667 46.5661 46.6667C45.2341 46.6667 44.1543 47.7465 44.1543 49.0785C44.1543 50.4105 45.2341 51.4903 46.5661 51.4903Z" fill="#1A2530"/>
<path d="M42.6748 48.1333C46.0039 46.0735 47.8009 46.285 50.8671 48.1333" stroke="#1A2530" stroke-width="1.17033" stroke-linecap="round"/>
<path d="M19.2681 48.1333C22.5972 46.0735 24.3941 46.285 27.4604 48.1333" stroke="#1A2530" stroke-width="1.17033" stroke-linecap="round"/>
<path d="M30.979 23.7249C30.979 23.7249 23.0399 17.9436 25.1328 13.328C27.2257 8.71236 29.0049 6.6452 34.2873 5.73494C39.5697 4.82469 44.8442 6.6242 44.8442 6.6242C44.8442 6.6242 39.7024 7.55507 34.5622 12.4954C29.422 17.4356 30.979 23.7249 30.979 23.7249Z" fill="#1A2530" stroke="#1A2530" stroke-width="1.17033" stroke-miterlimit="10" stroke-linecap="round" stroke-linejoin="round"/>
<path d="M27.9338 19.9489C27.9338 19.9489 22.4185 20.8501 21.506 18.1033C20.5935 15.3565 20.5333 13.7802 22.3695 11.2364C24.2057 8.69263 27.0831 7.25958 27.0831 7.25958C27.0831 7.25958 25.313 9.75399 25.089 13.8863C24.865 18.0187 27.9338 19.9489 27.9338 19.9489Z" fill="#1A2530" stroke="#1A2530" stroke-width="1.17033" stroke-miterlimit="10" stroke-linecap="round" stroke-linejoin="round"/>
<path d="M31.7064 9.44913C31.7064 9.44913 34.1393 4.84001 41.9476 4.6456C49.7559 4.45119 57.7068 9.16913 56.9455 9.26602C56.1864 9.3549 54.5926 9.7703 46.0214 8.65135C37.4612 7.53537 31.7064 9.44913 31.7064 9.44913Z" fill="#1A2530" stroke="#1A2530" stroke-width="1.17033" stroke-miterlimit="10" stroke-linecap="round" stroke-linejoin="round"/>
<path d="M66.4171 21.0702C66.4171 21.0702 66.6148 15.8622 59.9497 11.7897C53.2847 7.71712 44.0401 7.82756 44.651 8.29211C45.2639 8.74863 46.4365 9.90526 54.4189 13.2218C62.3902 16.5355 66.4171 21.0702 66.4171 21.0702Z" fill="#1A2530" stroke="#1A2530" stroke-width="1.17033" stroke-miterlimit="10" stroke-linecap="round" stroke-linejoin="round"/>
<path d="M16.5376 36.5246C16.5376 36.5246 23.1686 28.7502 31.3566 27.1608C39.5446 25.5713 53.8892 29.442 56.573 32.0344C57.4615 32.8926 57.7693 24.0174 57.7693 24.0174C57.7693 24.0174 37.1422 19.5002 31.9185 21.2421C24.7612 19.6097 13.8066 32.2332 16.5376 36.5246Z" fill="#1A2530" stroke="#1A2530" stroke-width="1.17033" stroke-miterlimit="10" stroke-linecap="round" stroke-linejoin="round"/>
<path d="M38.5251 11.4233C38.5251 11.4233 50.3478 9.66745 57.6188 16.8626C64.8899 24.0577 59.8166 38.395 58.944 37.762C58.0901 37.124 47.919 38.7669 42.7371 29.6978C37.5586 20.6418 38.5251 11.4233 38.5251 11.4233Z" fill="#1A2530" stroke="#1A2530" stroke-width="0.78022" stroke-miterlimit="10" stroke-linecap="round" stroke-linejoin="round"/>
<path d="M35.3985 10.3721C35.3985 10.3721 47.5789 5.08919 57.449 10.7188C67.3191 16.3484 65.9976 33.1902 64.8794 32.762C63.7797 32.3229 53.3389 37.0098 45.1716 28.7689C37.0118 20.541 35.3985 10.3721 35.3985 10.3721Z" fill="#1A2530" stroke="#1A2530" stroke-width="0.78022" stroke-miterlimit="10" stroke-linecap="round" stroke-linejoin="round"/>
<path d="M13.2223 30.0698C13.2223 30.0698 11.9002 21.1674 17.3181 15.6923C22.736 10.2173 33.5319 14.0374 33.0553 14.6945C32.5748 15.3375 33.8119 22.9963 26.983 26.8982C20.1638 30.7976 13.2223 30.0698 13.2223 30.0698Z" fill="#1A2530" stroke="#1A2530" stroke-width="0.78022" stroke-miterlimit="10" stroke-linecap="round" stroke-linejoin="round"/>
<path d="M23.4649 15.4014C23.4649 15.4014 27.97 11.4446 37.1934 14.7429C46.4168 18.0413 47.5116 21.8999 46.8872 27.0804C46.2583 32.278 42.2259 34.046 38.0754 33.2831C33.9401 32.5242 31.6265 32.5474 31.6265 32.5474C31.6265 32.5474 38.7687 32.697 39.4027 25.4792C40.0368 18.2614 23.4649 15.4014 23.4649 15.4014Z" fill="#1A2530" stroke="#1A2530" stroke-width="0.78022" stroke-miterlimit="10" stroke-linecap="round" stroke-linejoin="round"/>
<path d="M37.2129 78.6563C44.3969 78.6563 63.0279 70.9582 61.7898 50.1658C57.9564 55.3538 52.4949 60.8153 49.7634 62.3757C48.3976 63.156 44.6927 63.1559 39.2305 61.2054C37.3304 60.5268 30.4428 60.3331 28.6982 61.2054C24.7971 63.1559 23.5856 61.7699 23.2367 61.5955C21.6762 60.8153 16.4143 53.1701 16.4143 52.5064C16.4143 72.1285 30.0288 78.6563 37.2129 78.6563Z" fill="black" fill-opacity="0.12"/>
<path d="M35.4828 70.0735C35.4828 70.0735 34.8286 70.0735 34.0075 70.0735C33.1993 70.0735 32.5322 70.0735 32.5322 70.0735C32.5322 70.0735 33.1865 70.0735 34.0075 70.0735C34.8286 70.0735 35.4828 70.0735 35.4828 70.0735Z" stroke="#1A2530" stroke-width="0.78022" stroke-miterlimit="10" stroke-linecap="round" stroke-linejoin="round"/>
<path d="M42.4417 63.3339C43.4373 63.827 43.5816 64.4763 43.4844 65.9439" stroke="#1A2530" stroke-width="0.78022" stroke-linecap="round"/>
<path d="M42.7421 64.5212C36.5004 66.0817 32.9114 65.4575 27.918 64.5212C31.0388 67.252 32.5993 67.6421 34.5498 67.6421C36.5004 67.6421 38.841 67.6421 42.7421 64.5212Z" fill="white" stroke="white" stroke-width="0.156044" stroke-linejoin="round"/>
<path d="M42.675 64.6121C38.1784 68.7451 31.2481 68.8012 27.8508 64.6121Z" stroke="#1A2530" stroke-width="0.78022" stroke-miterlimit="10" stroke-linecap="round" stroke-linejoin="round"/>
<path d="M36.1102 60.0351C34.1596 61.6062 32.9893 61.6062 31.2338 60.0351C30.9087 60.0351 30.1805 59.9571 29.8684 59.645L38.0607 59.645C38.0607 59.9571 36.7603 60.0351 36.1102 60.0351Z" fill="white"/>
<path d="M38.0607 59.645C38.0607 59.9571 36.7603 60.0351 36.1102 60.0351C34.1596 61.6062 32.9893 61.6062 31.2338 60.0351C30.9087 60.0351 30.1805 59.9571 29.8684 59.645" stroke="#1A2530" stroke-width="0.78022" stroke-miterlimit="10" stroke-linecap="round"/>
</svg>
