<svg width="81" height="123" viewBox="0 0 81 123" fill="none" xmlns="http://www.w3.org/2000/svg">
<path d="M38.5373 85.8681C34.7569 85.8681 31.7002 83.0933 31.7002 79.6616V66.4785H45.3869V79.6616C45.3869 83.0933 42.3177 85.8681 38.5373 85.8681Z" fill="white" stroke="#1A2530" stroke-width="1.17033" stroke-miterlimit="10"/>
<path d="M40.1821 6.76877C25.3791 6.76876 13.3789 21.4383 13.3789 39.5342C13.3789 57.63 25.3791 72.2996 40.1821 72.2996C54.9851 72.2996 66.9854 57.63 66.9854 39.5342C66.9854 21.4383 54.9852 6.76877 40.1821 6.76877Z" fill="white" stroke="#1A2530" stroke-width="1.17033" stroke-miterlimit="10"/>
<path d="M50.6717 53.9407C50.6717 53.9407 50.1713 56.7758 45.2451 56.7758C40.3189 56.7758 39.8186 53.9407 39.8186 53.9407H45.2451H50.6717Z" stroke="white" stroke-width="1.17033" stroke-miterlimit="10" stroke-linecap="round" stroke-linejoin="round"/>
<path d="M48.3609 33.4925C49.2974 30.7215 61.1126 31.1834 61.3564 33.9928C61.6001 36.8023 60.7278 42.9088 58.4314 42.9857C56.1351 43.0627 51.9658 43.4347 50.4007 42.1647C48.8228 40.8947 47.4244 36.2635 48.3609 33.4925Z" stroke="#1A2530" stroke-width="1.17033" stroke-miterlimit="10"/>
<path d="M56.0318 39.253C57.2929 39.253 58.3153 38.2307 58.3153 36.9695C58.3153 35.7084 57.2929 34.686 56.0318 34.686C54.7706 34.686 53.7483 35.7084 53.7483 36.9695C53.7483 38.2307 54.7706 39.253 56.0318 39.253Z" fill="#1A2530"/>
<path d="M60.112 30.2213C57.4949 29.6312 54.8394 29.3874 52.1582 29.5285" stroke="#1A2530" stroke-width="1.17033" stroke-miterlimit="10" stroke-linecap="round"/>
<path d="M39.4302 33.4925C38.2115 30.7215 22.7401 31.1834 22.4194 33.9928C22.0987 36.8023 23.2405 42.9088 26.2424 42.9857C29.2443 43.0627 34.7093 43.4347 36.7619 42.1647C38.8145 40.8947 40.649 36.2635 39.4302 33.4925Z" stroke="#1A2530" stroke-width="1.17033" stroke-miterlimit="10"/>
<path d="M33.1219 39.253C34.383 39.253 35.4054 38.2307 35.4054 36.9695C35.4054 35.7084 34.383 34.686 33.1219 34.686C31.8607 34.686 30.8384 35.7084 30.8384 36.9695C30.8384 38.2307 31.8607 39.253 33.1219 39.253Z" fill="#1A2530"/>
<path d="M27.7703 30.2213C30.3873 29.6312 33.0428 29.3874 35.724 29.5285" stroke="#1A2530" stroke-width="1.17033" stroke-miterlimit="10" stroke-linecap="round"/>
<path d="M40.0723 35.8664C42.7278 35.4944 45.3962 35.4944 48.0517 35.8664" stroke="#1A2530" stroke-width="1.17033" stroke-miterlimit="10" stroke-linecap="round"/>
<path d="M68.6292 20.497C68.1289 -5.87871 11.4903 -4.85242 11.0157 18.8678C10.7591 31.7349 13.7354 47.4629 13.7354 47.4629C13.7354 47.4629 13.6712 40.4456 14.6205 32.9922C25.8585 34.2365 24.6782 20.6895 23.4595 17.4566C22.074 13.7876 53.5684 10.8114 60.188 18.4573C60.3419 18.6369 60.4959 18.8293 60.6498 19.0346C60.3932 20.8434 60.1752 22.8447 60.1752 24.3071C60.1752 27.2064 64.1264 31.9915 65.3323 33.377C66.3457 40.7792 66.1277 47.7066 66.1277 47.7066C66.1277 47.7066 68.8345 30.7856 68.6292 20.497Z" fill="#1A2530"/>
<path d="M65.4158 49.4169C65.8059 49.807 65.4158 50.1108 65.4158 50.1108C65.4158 59.9499 54.0568 74.384 40.0586 74.384C33.0466 74.384 26.7203 71.6727 22.1275 67.2652C17.5477 62.8834 15.8723 57.2191 14.7015 50.1108C13.5308 43.0025 14.7014 50.1972 14.7015 49.4169C14.7016 48.6367 65.0256 49.0268 65.4158 49.4169Z" fill="#1A2530"/>
<path d="M54.6105 51.4781H33.4817V51.1317C33.4817 49.3614 34.9185 47.9246 36.6889 47.9246H51.4033C53.1737 47.9246 54.6105 49.3614 54.6105 51.1317V51.4781Z" fill="#1A2530"/>
<path d="M49.4785 53.7998C49.4785 53.7998 48.9782 56.6349 44.052 56.6349C39.1258 56.6349 38.6255 53.7998 38.6255 53.7998H44.052H49.4785Z" stroke="white" stroke-width="1.17033" stroke-miterlimit="10" stroke-linecap="round" stroke-linejoin="round"/>
<path d="M47.4492 45.3721L45.6147 47.2066" stroke="#1A2530" stroke-width="1.17033" stroke-miterlimit="10" stroke-linecap="round"/>
<path d="M9.91821e-05 121.912H39.7913H79.5825V102.528C79.5825 89.5267 65.7067 79 48.5979 79H30.9977C13.8759 79 0.0130234 89.5365 0.0130234 102.528V121.912H9.91821e-05Z" fill="white"/>
<path d="M0.78032 121.912H0.793119V102.528C0.793119 89.5365 14.5201 79 31.474 79H48.9017C65.8427 79 79.5825 89.5267 79.5825 102.528V121.912" stroke="#1A2530" stroke-width="1.17033" stroke-miterlimit="10" stroke-linecap="round" stroke-linejoin="round"/>
<path d="M16.5925 89.7844C19.1102 87.4429 24.3124 84.913 23.7996 83.8048C23.1534 82.4085 21.3179 82.6275 16.9211 85.4512C12.5243 88.275 7.92505 95.5555 8.24639 96.027C9.1272 97.3194 14.0748 92.1258 16.5925 89.7844Z" fill="url(#paint0_linear_26246_6125)"/>
<defs>
<linearGradient id="paint0_linear_26246_6125" x1="23.8349" y1="82.1866" x2="23.8349" y2="96.6206" gradientUnits="userSpaceOnUse">
<stop stop-color="#14DDE0"/>
<stop offset="1" stop-color="#4B5AFF"/>
</linearGradient>
</defs>
</svg>
