<svg width="294" height="65" viewBox="0 0 294 65" fill="none" xmlns="http://www.w3.org/2000/svg">
<path d="M37.4128 21.9251C37.77 20.4965 37.7986 20.4143 38.9057 20.5608C39.4397 20.5947 39.9753 20.5947 40.5093 20.5608C42.0557 20.5608 42.3486 20.2715 42.5736 18.7751C43.3486 13.7108 44.9236 9.03934 50.0736 6.6322C52.4736 5.53577 54.9986 5.5572 57.4343 5.99291C60.5307 6.55006 61.72 10.2179 59.5128 12.2893C58.7986 12.9715 57.3307 13.3108 56.3414 13.1251C55.5521 12.9786 54.9128 11.9251 54.295 11.0465C53.995 10.6251 53.6986 9.70006 53.5486 9.7322C52.9093 9.85363 52.4128 9.7822 51.7628 10.5786C50.5986 12.0465 50.4557 14.1108 50.0128 15.9358C49.6557 17.3643 49.6164 18.8429 49.3986 20.5786H56.97C56.7986 21.8965 56.6628 22.9322 56.495 24.2072H49.2378C48.8557 28.8501 48.5236 33.2893 48.1236 37.7108C47.67 42.6751 47.4878 47.7108 46.5593 52.5715C45.4878 58.0858 43.2843 63.1893 36.995 64.6108C35.1164 65.0358 32.9128 65.2143 31.045 64.5251C30.4521 64.3036 29.3164 63.5179 29.0736 62.9286C28.8381 62.3134 28.7272 61.6574 28.7475 60.9989C28.7677 60.3405 28.9186 59.6926 29.1914 59.0929C29.9057 57.6286 31.1736 57.7929 32.445 57.9001C34.5878 58.0858 34.5486 59.7858 34.6807 61.9893C35.7197 61.6487 36.6304 60.9997 37.2914 60.1286C38.1271 59.0572 38.6628 56.9465 38.8521 55.2822C39.5878 48.8215 40.1557 42.3393 40.7486 35.8608C41.0486 32.5608 41.1628 29.2358 41.5736 25.9501C41.7521 24.5215 41.2164 24.2858 40.0771 24.3108C39.1307 24.3358 38.1878 24.3108 36.9986 24.3108C37.1414 23.4572 37.2807 22.6893 37.4128 21.9072V21.9251Z" fill="#00E5FF"/>
<path d="M266.881 41.4281C266.589 44.4067 264.974 46.5531 262.792 47.9745C256.289 52.2031 247.724 51.7888 242.435 46.2781C240.503 44.2412 239.313 41.6131 239.056 38.8174C238.56 34.2531 238.371 29.6031 241.171 25.6031C246.11 18.5388 253.964 17.6424 260.499 21.0709C264.617 23.2388 267.006 27.2138 267.117 32.1602C267.149 33.5174 267.117 34.8781 267.117 36.4209H244.831C244.096 42.0102 247.867 45.3495 252.417 45.6852C255.924 45.9352 259.174 45.3674 261.171 41.9245C261.346 41.6245 261.964 41.4638 262.381 41.4459C263.81 41.4031 265.235 41.4281 266.881 41.4281ZM244.689 32.1031H261.864C261.703 25.3174 257.306 23.6209 253.092 23.6924C248.149 23.7745 244.589 27.4352 244.689 32.1031Z" fill="black"/>
<path d="M91.9791 36.1281H69.1612C68.4684 40.7924 71.497 44.8066 76.1684 45.3888C80.0077 45.8673 83.5041 45.2816 85.7684 41.6066C85.8986 41.4593 86.0577 41.3405 86.2359 41.2575C86.4142 41.1746 86.6076 41.1293 86.8041 41.1245C88.2862 41.0709 89.7684 41.0995 91.4648 41.0995C91.229 42.5478 90.6872 43.9292 89.8756 45.1516C89.0639 46.3741 88.001 47.4095 86.7577 48.1888C83.8771 50.1011 80.4424 51.001 76.9942 50.7469C73.5461 50.4928 70.2803 49.0991 67.7112 46.7852C64.1398 43.5352 63.1755 39.1352 63.3005 34.4816C63.3529 32.8826 63.5635 31.2927 63.9291 29.7352C65.4648 23.0388 71.4291 18.9281 78.3934 19.1174C85.5112 19.2959 90.2398 24.3888 91.2077 29.1602C91.6505 31.3459 91.7112 33.6102 91.9791 36.1281ZM68.9755 32.0316H86.2791C86.1112 26.1924 83.0398 23.4602 76.9362 23.6209C74.7719 23.7001 72.7251 24.6258 71.2363 26.1987C69.7475 27.7717 68.9357 29.8662 68.9755 32.0316Z" fill="black"/>
<path d="M154.14 36.2318H131.251C130.844 41.3068 134.165 44.9068 138.412 45.3818C142.272 45.8175 145.912 45.4818 148.133 41.5461C148.276 41.2889 148.797 41.1318 149.147 41.1211C150.626 41.0747 152.108 41.0997 153.697 41.0997C153.469 44.4139 151.469 46.5818 149.055 48.1532C141.276 53.2568 128.608 51.0318 126.197 39.7247C124.665 32.4961 126.197 25.3925 132.38 21.2568C137.344 17.9389 147.333 18.0711 151.894 25.2247C154.047 28.5497 154.505 31.6461 154.14 36.2318ZM149.069 32.0925C148.747 30.7068 148.494 29.5211 148.197 28.3425C147.244 24.5639 141.112 22.6818 137.072 24.2568C133.715 25.5675 131.126 28.8532 131.212 32.0925H149.069Z" fill="black"/>
<path d="M164.679 20.0681H170.6V25.0002C171.197 24.1895 171.522 23.7574 171.836 23.3181C175.604 18.1217 183.622 18.3181 187.436 20.8681C188.71 21.706 189.761 22.8412 190.498 24.1759C191.235 25.5105 191.637 27.0044 191.668 28.5288C191.922 35.5217 191.75 42.5288 191.75 49.6217H186.243C186.243 49.0109 186.243 48.3859 186.243 47.7645C186.161 42.2931 186.182 36.8217 185.947 31.3574C185.829 28.6431 184.875 26.1252 182.289 24.6717C177.647 22.0752 171.775 24.8145 170.722 30.0859C170.479 31.3657 170.36 32.6656 170.364 33.9681C170.322 39.1324 170.347 44.3002 170.347 49.5895H164.679V20.0681Z" fill="black"/>
<path d="M26.6821 49.6603H20.85C20.8179 49.1067 20.7714 48.5888 20.7679 48.0781C20.7214 42.546 20.7107 37.0067 20.6321 31.4817C20.5607 26.7246 18.425 24.221 14.1143 23.7067C10.4393 23.2674 6.73571 25.9853 5.74643 29.9317C5.48474 31.0242 5.35406 32.144 5.35714 33.2674C5.31786 38.671 5.33929 44.0746 5.33929 49.596H0V20.1317H5.24286V24.5567L4.80714 23.9281C6.09643 22.9996 7.41071 22.0996 8.675 21.1317C12.0714 18.5281 19.275 18.4353 22.5821 21.1317C25.4071 23.4496 26.6071 26.6674 26.6571 30.2353C26.7464 36.6531 26.6821 43.071 26.6821 49.6603Z" fill="black"/>
<path d="M230.713 30.204H225.02C224.263 27.3004 222.635 25.1111 219.531 24.3683C213.517 22.9397 208.063 26.9861 207.885 33.1968C207.806 35.4388 208.055 37.6804 208.624 39.8504C209.549 43.2611 212.435 45.3218 215.96 45.5004C218.549 45.6361 221.135 45.429 223.103 43.5004C224.149 42.4718 224.867 41.1111 225.856 39.7254H230.963C230.56 43.5825 228.999 46.6397 225.692 48.6861C220.62 51.8254 212.778 51.5861 208.11 47.9468C206.587 46.8088 205.314 45.3713 204.368 43.7228C203.422 42.0743 202.824 40.2496 202.61 38.3611C202.056 33.7468 202.32 29.279 204.874 25.1754C207.731 20.5861 212.085 19.0825 217.149 19.1861C219.098 19.2145 221.031 19.5348 222.885 20.1361C227.545 21.7111 229.867 25.2754 230.713 30.204Z" fill="black"/>
<path d="M102.537 19.8898H107.784V25.8148C111.216 19.9434 114.623 18.1255 119.337 19.5219V24.7827C118.18 24.8577 117.019 24.9577 115.855 25.0005C112.241 25.1291 109.987 27.1434 108.962 30.4077C108.332 32.4373 107.971 34.5411 107.891 36.6648C107.73 40.9505 107.841 45.2077 107.841 49.5969H102.537V19.8898Z" fill="black"/>
<path d="M282.11 15.4857C283.062 15.4857 283.73 15.3143 284.116 14.9714C284.502 14.62 284.695 14.1186 284.695 13.4671C284.695 13.15 284.652 12.8714 284.566 12.6314C284.489 12.3914 284.356 12.1943 284.168 12.04C283.988 11.8857 283.743 11.77 283.435 11.6929C283.135 11.6157 282.762 11.5771 282.316 11.5771H280.632V15.4857H282.11ZM282.316 10.0343C283.799 10.0343 284.892 10.3043 285.595 10.8443C286.306 11.3757 286.662 12.1643 286.662 13.21C286.662 14.0157 286.435 14.7014 285.98 15.2671C285.526 15.8329 284.845 16.2186 283.936 16.4243C284.082 16.5186 284.206 16.63 284.309 16.7586C284.42 16.8871 284.523 17.0371 284.618 17.2086L287.549 21.5029H285.633C285.35 21.5029 285.145 21.3957 285.016 21.1814L282.419 17.2986C282.342 17.1871 282.248 17.1014 282.136 17.0414C282.033 16.9814 281.87 16.9514 281.648 16.9514H280.632V21.5029H278.626V10.0343H282.316ZM282.47 24.0229C283.225 24.0229 283.949 23.9286 284.643 23.74C285.346 23.5429 285.998 23.2686 286.598 22.9171C287.206 22.5571 287.755 22.1286 288.243 21.6314C288.74 21.1343 289.165 20.5814 289.516 19.9729C289.868 19.3557 290.138 18.6957 290.326 17.9929C290.523 17.29 290.622 16.5571 290.622 15.7943C290.622 14.6457 290.408 13.57 289.979 12.5671C289.559 11.5557 288.98 10.6771 288.243 9.93143C287.515 9.17714 286.653 8.58571 285.659 8.15714C284.665 7.72 283.602 7.50143 282.47 7.50143C281.716 7.50143 280.992 7.6 280.298 7.79714C279.603 7.99429 278.956 8.27286 278.356 8.63286C277.765 8.98429 277.22 9.41286 276.723 9.91857C276.235 10.4243 275.815 10.9857 275.463 11.6029C275.12 12.2114 274.855 12.8714 274.666 13.5829C274.478 14.2943 274.383 15.0314 274.383 15.7943C274.383 16.5571 274.478 17.29 274.666 17.9929C274.855 18.6957 275.12 19.3557 275.463 19.9729C275.815 20.5814 276.235 21.1343 276.723 21.6314C277.22 22.1286 277.765 22.5571 278.356 22.9171C278.956 23.2686 279.603 23.5429 280.298 23.74C280.992 23.9286 281.716 24.0229 282.47 24.0229ZM282.47 6.38286C283.336 6.38286 284.168 6.49429 284.965 6.71714C285.77 6.94 286.52 7.25714 287.215 7.66857C287.909 8.08 288.543 8.57286 289.118 9.14714C289.692 9.71286 290.18 10.3471 290.583 11.05C290.995 11.7443 291.312 12.4943 291.535 13.3C291.758 14.0971 291.869 14.9286 291.869 15.7943C291.869 16.6514 291.758 17.4829 291.535 18.2886C291.312 19.0857 290.995 19.8314 290.583 20.5257C290.18 21.22 289.692 21.8543 289.118 22.4286C288.543 22.9943 287.909 23.4829 287.215 23.8943C286.52 24.3057 285.77 24.6229 284.965 24.8457C284.168 25.0686 283.336 25.18 282.47 25.18C281.605 25.18 280.773 25.0686 279.976 24.8457C279.179 24.6229 278.433 24.3057 277.739 23.8943C277.045 23.4829 276.41 22.9943 275.836 22.4286C275.27 21.8543 274.782 21.22 274.37 20.5257C273.959 19.8314 273.642 19.0857 273.419 18.2886C273.196 17.4914 273.085 16.66 273.085 15.7943C273.085 14.9286 273.196 14.0971 273.419 13.3C273.642 12.4943 273.959 11.7443 274.37 11.05C274.782 10.3471 275.27 9.71286 275.836 9.14714C276.41 8.57286 277.045 8.08 277.739 7.66857C278.433 7.25714 279.179 6.94 279.976 6.71714C280.773 6.49429 281.605 6.38286 282.47 6.38286Z" fill="black"/>
</svg>
