<svg width="26" height="26" viewBox="0 0 26 26" fill="none" xmlns="http://www.w3.org/2000/svg">
<path fill-rule="evenodd" clip-rule="evenodd" d="M1 13C1 6.37258 6.37258 1 13 1C19.6274 1 25 6.37258 25 13C25 19.6274 19.6274 25 13 25C6.37258 25 1 19.6274 1 13ZM12.6406 10.7537L12.6658 11.169L12.2461 11.1181C10.7184 10.9232 9.38383 10.2623 8.25067 9.15216L7.69668 8.60135L7.55399 9.0081C7.25181 9.91482 7.44487 10.8724 8.0744 11.5164C8.41015 11.8723 8.33461 11.9232 7.75544 11.7113C7.55399 11.6435 7.37772 11.5927 7.36093 11.6181C7.30218 11.6774 7.50363 12.4486 7.66311 12.7536C7.88134 13.1773 8.32621 13.5925 8.81305 13.8383L9.22434 14.0332L8.73751 14.0417C8.26746 14.0417 8.25067 14.0501 8.30103 14.2281C8.46891 14.7789 9.13201 15.3636 9.87066 15.6178L10.3911 15.7958L9.93781 16.067C9.26631 16.4568 8.4773 16.6771 7.68829 16.694C7.31057 16.7025 7 16.7364 7 16.7618C7 16.8466 8.02404 17.3211 8.61999 17.5075C10.4079 18.0584 12.5315 17.8211 14.1263 16.8805C15.2595 16.211 16.3926 14.8806 16.9214 13.5925C17.2068 12.9062 17.4922 11.652 17.4922 11.0503C17.4922 10.6605 17.5174 10.6097 17.9874 10.1436C18.2644 9.87245 18.5246 9.57586 18.575 9.49112C18.6589 9.33011 18.6505 9.33011 18.2224 9.47417C17.509 9.72839 17.4083 9.6945 17.7608 9.31317C18.021 9.042 18.3316 8.5505 18.3316 8.40645C18.3316 8.38102 18.2057 8.42339 18.063 8.49966C17.9119 8.5844 17.5761 8.71151 17.3243 8.78778L16.8711 8.93183L16.4598 8.65219C16.2331 8.49966 15.9142 8.33018 15.7463 8.27934C15.3182 8.1607 14.6635 8.17765 14.2774 8.31323C13.2282 8.69456 12.5651 9.67755 12.6406 10.7537Z" stroke="#627181"/>
</svg>
