<svg width="26" height="26" viewBox="0 0 26 26" fill="none" xmlns="http://www.w3.org/2000/svg">
<path fill-rule="evenodd" clip-rule="evenodd" d="M1 13C1 6.37258 6.37258 1 13 1C19.6274 1 25 6.37258 25 13C25 19.6274 19.6274 25 13 25C6.37258 25 1 19.6274 1 13Z" stroke="#627181"/>
<path d="M10.3843 17.9268C10.3843 18.1384 10.2116 18.3099 9.9986 18.3099H8.35693C8.14393 18.3099 7.97127 18.1384 7.97127 17.9268V11.0906C7.97127 10.879 8.14393 10.7075 8.35693 10.7075H9.9986C10.2116 10.7075 10.3843 10.879 10.3843 11.0906V17.9268ZM9.17777 10.063C8.31643 10.063 7.61816 9.3694 7.61816 8.51376C7.61816 7.65813 8.31643 6.96449 9.17777 6.96449C10.0391 6.96449 10.7374 7.65813 10.7374 8.51376C10.7374 9.3694 10.0391 10.063 9.17777 10.063ZM18.9636 17.9577C18.9636 18.1522 18.8048 18.3099 18.609 18.3099H16.8474C16.6516 18.3099 16.4928 18.1522 16.4928 17.9577V14.7511C16.4928 14.2727 16.634 12.6549 15.2344 12.6549C14.1487 12.6549 13.9284 13.7623 13.8842 14.2592V17.9577C13.8842 18.1522 13.7255 18.3099 13.5296 18.3099H11.8258C11.63 18.3099 11.4712 18.1522 11.4712 17.9577V11.0597C11.4712 10.8652 11.63 10.7075 11.8258 10.7075H13.5296C13.7255 10.7075 13.8842 10.8652 13.8842 11.0597V11.6561C14.2868 11.056 14.8851 10.5927 16.1589 10.5927C18.9798 10.5927 18.9636 13.2107 18.9636 14.6491V17.9577Z" stroke="#627181"/>
</svg>
