<svg width="141" height="62" viewBox="0 0 141 62" fill="none" xmlns="http://www.w3.org/2000/svg">
<path d="M1 59.9552V29.2934H9.17647M9.17647 29.2934V53.8229M9.17647 29.2934V24.5238H24.848M29.6176 53.8229V29.2934M29.6176 29.2934V24.5238H24.848M29.6176 29.2934H43.9265M51.4216 53.8229V36.1072M51.4216 36.1072V29.2934H43.9265M51.4216 36.1072H67.7745V59.9552M24.848 24.5238V18.3915H43.9265V29.2934" stroke="#627181"/>
<path d="M99.1177 57.6808V40.4065M99.1177 40.4065L100.857 37.8154M99.1177 40.4065H118.254M100.857 37.8154V29.1783M100.857 37.8154H116.514M100.857 29.1783H116.514M100.857 29.1783L102.597 25.7234M116.514 29.1783V37.8154M116.514 29.1783L114.775 25.7234M116.514 37.8154L118.254 40.4065M102.597 25.7234H114.775M102.597 25.7234V17.0863M114.775 25.7234V17.0863M114.775 17.0863H102.597M114.775 17.0863L108.686 8.44919M102.597 17.0863L108.686 8.44919M108.686 8.44919V0.675781M118.254 40.4065V47.3162H123.473V54.2259L140 57.6808V61.9993M104.5 19.4995V23.9995M108.686 19.4995V23.9995M113 19.4995V23.9995" stroke="#627181"/>
</svg>
