<svg width="184" height="93" viewBox="0 0 184 93" fill="none" xmlns="http://www.w3.org/2000/svg">
<path d="M92.042 1C75.6481 1 66.687 7.48346 64.2557 10.7252M64.2557 10.7252H56.6145V13.8511H58.6985M64.2557 10.7252H92.042M58.6985 13.8511V19.7557M58.6985 13.8511H92.042M58.6985 19.7557H53.1412V23.229M58.6985 19.7557H92.042M53.1412 31.9122H26.3969V35.3855H28.8282M53.1412 31.9122V23.229M53.1412 31.9122H92.042M28.8282 35.3855V42.6794M28.8282 35.3855H92.042M28.8282 42.6794H2.77863V45.458H4.8626M28.8282 42.6794H92.042M4.8626 45.458V49.2786H6.59924M4.8626 45.458H92.042M6.59924 49.2786V54.1412M6.59924 49.2786H92.042M6.59924 54.1412H2.77863V56.9198H4.8626H10.0725H92.042M6.59924 54.1412H92.042M2.77863 92V89.5687H4.8626H10.0725H92.042M2.77863 92H0M2.77863 92H92.042M53.1412 23.229H92.042M92.042 25.313H87.874V29.4809H92.042" stroke="#627181"/>
<path d="M26.0498 59.0038H25.0078V56.9199H30.2177V59.0038H29.1758M26.0498 59.0038H29.1758M26.0498 59.0038V87.1374M26.0498 87.1374H25.0078V89.5687H30.2177V87.1374H29.1758M26.0498 87.1374H29.1758M29.1758 59.0038V87.1374" stroke="#627181"/>
<path d="M7.98876 59.0038H6.94678V56.9199H12.1567V59.0038H11.1147M7.98876 59.0038H11.1147M7.98876 59.0038V87.1374M7.98876 87.1374H6.94678V89.5687H12.1567V87.1374H11.1147M7.98876 87.1374H11.1147M11.1147 59.0038V87.1374" stroke="#627181"/>
<path d="M44.1108 59.0038H43.0688V56.9199H48.2788V59.0038H47.2368M44.1108 59.0038H47.2368M44.1108 59.0038V87.1374M44.1108 87.1374H43.0688V89.5687H48.2788V87.1374H47.2368M44.1108 87.1374H47.2368M47.2368 59.0038V87.1374" stroke="#627181"/>
<path d="M62.1719 59.0038H61.1299V56.9199H66.3398V59.0038H65.2978M62.1719 59.0038H65.2978M62.1719 59.0038V87.1374M62.1719 87.1374H61.1299V89.5687H66.3398V87.1374H65.2978M62.1719 87.1374H65.2978M65.2978 59.0038V87.1374" stroke="#627181"/>
<path d="M80.2329 59.0038H79.1909V56.9199H84.4008V59.0038H83.3589M80.2329 59.0038H83.3589M80.2329 59.0038V87.1374M80.2329 87.1374H79.1909V89.5687H84.4008V87.1374H83.3589M80.2329 87.1374H83.3589M83.3589 59.0038V87.1374" stroke="#627181"/>
<path d="M91.6948 1C108.089 1 117.05 7.48346 119.481 10.7252M119.481 10.7252H127.122V13.8511H125.038M119.481 10.7252H91.6948M125.038 13.8511V19.7557M125.038 13.8511H91.6948M125.038 19.7557H130.596V23.229M125.038 19.7557H91.6948M130.596 31.9122H157.34V35.3855H154.909M130.596 31.9122V23.229M130.596 31.9122H91.6948M154.909 35.3855V42.6794M154.909 35.3855H91.6948M154.909 42.6794H180.958V45.458H178.874M154.909 42.6794H91.6948M178.874 45.458V49.2786H177.138M178.874 45.458H91.6948M177.138 49.2786V54.1412M177.138 49.2786H91.6948M177.138 54.1412H180.958V56.9198H178.874H173.664H91.6948M177.138 54.1412H91.6948M180.958 92V89.5687H178.874H173.664H91.6948M180.958 92H183.737M180.958 92H91.6948M130.596 23.229H91.6948M91.6948 25.313H95.8628V29.4809H91.6948" stroke="#627181"/>
<path d="M155.95 59.0038H156.992V56.9199H151.782V59.0038H152.824M155.95 59.0038H152.824M155.95 59.0038V87.1374M155.95 87.1374H156.992V89.5687H151.782V87.1374H152.824M155.95 87.1374H152.824M152.824 59.0038V87.1374" stroke="#627181"/>
<path d="M174.011 59.0038H175.053V56.9199H169.843V59.0038H170.885M174.011 59.0038H170.885M174.011 59.0038V87.1374M174.011 87.1374H175.053V89.5687H169.843V87.1374H170.885M174.011 87.1374H170.885M170.885 59.0038V87.1374" stroke="#627181"/>
<path d="M137.889 59.0038H138.931V56.9199H133.721V59.0038H134.763M137.889 59.0038H134.763M137.889 59.0038V87.1374M137.889 87.1374H138.931V89.5687H133.721V87.1374H134.763M137.889 87.1374H134.763M134.763 59.0038V87.1374" stroke="#627181"/>
<path d="M119.828 59.0038H120.87V56.9199H115.66V59.0038H116.702M119.828 59.0038H116.702M119.828 59.0038V87.1374M119.828 87.1374H120.87V89.5687H115.66V87.1374H116.702M119.828 87.1374H116.702M116.702 59.0038V87.1374" stroke="#627181"/>
<path d="M101.767 59.0038H102.809V56.9199H97.5992V59.0038H98.6411M101.767 59.0038H98.6411M101.767 59.0038V87.1374M101.767 87.1374H102.809V89.5687H97.5992V87.1374H98.6411M101.767 87.1374H98.6411M98.6411 59.0038V87.1374" stroke="#627181"/>
</svg>
