<svg width="145" height="82" viewBox="0 0 145 82" fill="none" xmlns="http://www.w3.org/2000/svg">
<path d="M58.6292 0.999994L1 26.878V80.7276H143.949V51.0924L58.6292 0.999994Z" stroke="#627181"/>
<path d="M1 27.0728L144 51.1366" stroke="#627181"/>
<path d="M1.16064 74.261H143.815" stroke="#627181"/>
<path d="M1.16064 67.6943H143.815" stroke="#627181"/>
<path d="M1.16064 61.1277H143.815" stroke="#627181"/>
<path d="M1.16064 54.561H143.815" stroke="#627181"/>
<path d="M1.16064 47.9944H125.206" stroke="#627181"/>
<path d="M1.16064 41.4272H86.2704" stroke="#627181"/>
<path d="M1.16064 34.8606H47.3678" stroke="#627181"/>
<path d="M13.9457 80.7275L13.9457 29.4067" stroke="#627181"/>
<path d="M26.3085 80.7275L26.3085 31.3569" stroke="#627181"/>
<path d="M38.6709 80.7275L38.6709 33.3145" stroke="#627181"/>
<path d="M51.0337 80.7275L51.0337 35.5075" stroke="#627181"/>
<path d="M63.3969 80.7275L63.3969 37.5823" stroke="#627181"/>
<path d="M75.7593 80.7275L75.7593 39.737" stroke="#627181"/>
<path d="M88.1218 80.7275L88.1218 41.4275" stroke="#627181"/>
<path d="M100.485 80.7275L100.485 43.9339" stroke="#627181"/>
<path d="M112.847 80.7275L112.847 46.0323" stroke="#627181"/>
<path d="M125.21 80.7275L125.21 47.9941" stroke="#627181"/>
<path d="M137.569 80.7275L137.569 49.9634" stroke="#627181"/>
<rect x="13.9448" y="47.9946" width="12.6154" height="32.7334" fill="white" stroke="#627181"/>
<rect x="26.3076" y="47.9944" width="12.5308" height="32.7334" fill="white" stroke="#627181"/>
<rect x="38.6704" y="47.9944" width="12.3628" height="32.7334" fill="white" stroke="#627181"/>
<rect x="13.9448" y="47.9946" width="37.0889" height="1.74833" fill="white" stroke="#627181"/>
<rect x="63.3969" y="47.9946" width="12.9069" height="32.7334" fill="white" stroke="#627181"/>
<rect x="75.7592" y="47.9944" width="12.5434" height="32.7334" fill="white" stroke="#627181"/>
<rect x="88.1223" y="47.9944" width="12.3628" height="32.7334" fill="white" stroke="#627181"/>
<rect x="100.485" y="47.9944" width="12.3627" height="32.7334" fill="white" stroke="#627181"/>
<rect x="112.848" y="47.9944" width="12.3589" height="32.7334" fill="white" stroke="#627181"/>
<path d="M15.3739 27.2868L24.6303 18.9529" stroke="#627181"/>
<path d="M27.3267 29.2489L45.0928 10.1665" stroke="#627181"/>
<path d="M39.1862 31.3593L62.4085 6.17554" stroke="#627181"/>
<path d="M51.9454 33.3919L72.1102 11.927" stroke="#627181"/>
<path d="M65.4496 35.7219L81.6342 17.5569" stroke="#627181"/>
<path d="M77.4183 37.8772L90.9825 22.6392" stroke="#627181"/>
<path d="M89.321 39.9056L100.309 28.2571" stroke="#627181"/>
<path d="M101.685 42.1103L110.037 33.6816" stroke="#627181"/>
<path d="M113.865 44.3149L119.115 39.0918" stroke="#627181"/>
<path d="M126.216 46.5184L127.956 44.5376" stroke="#627181"/>
<path d="M20.5493 20.8076L120.919 40.1941" stroke="#627181"/>
<path d="M32.5272 15.5898L104.799 30.6879" stroke="#627181"/>
<path d="M44.0151 10.4084L85.3655 19.3504" stroke="#627181"/>
<path d="M58.3583 3.61743L58.6104 3.1856L58.3872 3.05535L58.1519 3.16206L58.3583 3.61743ZM5.44122 28.1608L58.5648 4.07281L58.1519 3.16206L5.02826 27.25L5.44122 28.1608ZM58.1063 4.04926L137.447 50.3548L137.951 49.4912L58.6104 3.1856L58.1063 4.04926Z" fill="#627181"/>
<path d="M8.59497 26.1467C13.3706 26.994 95.8828 41.083 133.954 47.6767" stroke="#627181"/>
<rect x="75.067" y="47.9944" width="1.38473" height="32.7334" fill="white" stroke="#627181"/>
<rect x="87.4294" y="47.9944" width="1.38473" height="32.7334" fill="white" stroke="#627181"/>
<rect x="99.7926" y="47.9944" width="1.38473" height="32.7334" fill="white" stroke="#627181"/>
<rect x="112.155" y="47.9944" width="1.38473" height="32.7334" fill="white" stroke="#627181"/>
<rect x="63.3969" y="47.8652" width="61.8138" height="1.74444" fill="white" stroke="#627181"/>
<rect x="25.6152" y="49.7427" width="1.38473" height="30.985" fill="white" stroke="#627181"/>
<rect x="38.146" y="49.7427" width="1.38473" height="30.985" fill="white" stroke="#627181"/>
</svg>
