<svg width="32" height="153" viewBox="0 0 32 153" fill="none" xmlns="http://www.w3.org/2000/svg">
<path d="M16 46.7102H13.1154L13.8365 35.2827M16 46.7102H9.07692L7.92308 48.4683V52.1798H16M16 46.7102H18.8846M16 52.1798H5.42308L1 58.6261M16 52.1798H24.0769M1 58.6261H16H31M1 58.6261V62.1423M1 62.1423H16H31M1 62.1423V65.4631M1 65.4631L5.42308 72.4955M1 65.4631H8.5M16 65.4631V72.4955M16 65.4631H8.5M16 65.4631H23.5M16 72.4955H10.7115M16 72.4955H21.2885M5.42308 72.4955H10.7115M5.42308 72.4955C4.91026 72.9513 3.88462 74.1754 3.88462 75.4256C3.88462 76.6758 4.91026 77.9 5.42308 78.3558H9.26923M8.5 65.4631L10.7115 72.4955M13.1154 78.3558H16H18.8846M13.1154 78.3558H9.26923M13.1154 78.3558V83.2654M13.1154 152V147.09M9.26923 78.3558C7.47436 102.904 3.30769 152 1 152M13.1154 83.2654H16H18.8846M13.1154 83.2654V88.175M13.1154 88.175V93.0846M13.1154 88.175H16H18.8846M13.1154 93.0846V97.9942M13.1154 93.0846H16H18.8846M13.1154 97.9942V102.904M13.1154 97.9942H16H18.8846M13.1154 102.904V107.813M13.1154 102.904H16H18.8846M13.1154 107.813V112.723M13.1154 107.813H16H18.8846M13.1154 112.723V117.633M13.1154 112.723H16H18.8846M13.1154 117.633V122.542M13.1154 117.633H16H18.8846M13.1154 122.542V127.452M13.1154 122.542H16H18.8846M13.1154 127.452V132.362M13.1154 127.452H16H18.8846M13.1154 132.362V137.271M13.1154 132.362H16H18.8846M13.1154 137.271V142.181M13.1154 137.271H16H18.8846M13.1154 142.181V147.09M13.1154 142.181H16H18.8846M13.1154 147.09H16H18.8846M18.8846 46.7102H22.9231L24.0769 48.4683V52.1798M18.8846 46.7102L18.1635 35.2827M24.0769 52.1798H26.5769L31 58.6261M31 58.6261V62.1423M31 62.1423V65.4631M31 65.4631L26.5769 72.4955M31 65.4631H23.5M26.5769 72.4955H21.2885M26.5769 72.4955C27.0897 72.9513 28.1154 74.1754 28.1154 75.4256C28.1154 76.6758 27.0897 77.9 26.5769 78.3558H22.7308M23.5 65.4631L21.2885 72.4955M18.8846 78.3558H22.7308M18.8846 78.3558V83.2654M22.7308 78.3558C24.5256 102.904 28.6923 152 31 152M18.8846 83.2654V88.175M18.8846 88.175V93.0846M18.8846 93.0846V97.9942M18.8846 97.9942V102.904M18.8846 102.904V107.813M18.8846 107.813V112.723M18.8846 112.723V117.633M18.8846 117.633V122.542M18.8846 122.542V127.452M18.8846 127.452V132.362M18.8846 132.362V137.271M18.8846 137.271V142.181M18.8846 142.181V147.09M18.8846 147.09V152M13.1154 12.1345H18.8846M14.5577 23.8551L16 1L17.4423 23.8551M14.5577 23.8551H17.4423M14.5577 23.8551L13.8365 35.2827M17.4423 23.8551L18.1635 35.2827M13.8365 35.2827H18.1635" stroke="#627181"/>
</svg>
