<svg width="170" height="111" viewBox="0 0 170 111" fill="none" xmlns="http://www.w3.org/2000/svg">
<path d="M85 4C70 4 68.5 14.6667 67.5 20M85 4C100 4 101.5 14.6667 102.5 20M85 4V0M67.5 20H85H102.5M67.5 20V29.5M67.5 29.5H85H102.5M67.5 29.5L66 34M66 34H85H104M66 34V38.5M66 38.5H85H104M66 38.5V56M48 31.5C48 30.5 48 23 53.5 23C59 23 59 30.5 59 31.5M48 31.5V38M48 31.5H50.75M48 38H50.75M48 38V52M48 52H53.5H59M48 52V65.5M48 66H53.5H59M48 66V65.5M48 66H43.5M59 31.5V38M59 31.5H56.25M59 38H56.25M59 38V52M59 52V66M59 66H66M50.75 31.5H53.5H56.25M50.75 31.5V38M50.75 38H53.5H56.25M56.25 31.5V38M3 66V72.5M3 66H7.33333M3 66H1V110H169.5V66H167M3 72.5H11.6667M3 72.5V75.5M48 72.5V65.5M48 72.5H43.5M48 72.5V107.5M25.5 66V72.5M25.5 66H30M25.5 66H16M25.5 72.5H30M25.5 72.5H16M30 66V72.5M30 66H34.5M30 72.5H34.5M34.5 66V72.5M34.5 66H39M34.5 72.5H39M39 66V72.5M39 66H43.5M39 72.5H43.5M43.5 66V72.5M16 66V72.5M16 66H13H11.6667M16 72.5H11.6667M11.6667 66V72.5M11.6667 66H7.33333M7.33333 66V72.5M3 75.5V107.5H20M3 75.5H20V107.5M20 107.5H25.5M25.5 107.5V75.5H43V107.5M25.5 107.5H43M43 107.5C44.6667 107.5 48 107.5 48 107.5M48 107.5H52.5M52.5 107.5H85H87.5M52.5 107.5V76C52.5 74.5 52.5 71.5 59 71.5C65.5 71.5 65.5 74.5 65.5 76V107.5M69.5 107.5V76C69.5 74.5 69.5 71.5 76 71.5C82.5 71.5 82.5 74.5 82.5 76V107.5M102.5 20V29.5M102.5 29.5L104 34M104 34V38.5M104 38.5V56M122 31.5C122 30.5 122 23 116.5 23C111 23 111 30.5 111 31.5M122 31.5V38M122 31.5H119.25M122 38H119.25M122 38V52M122 52H116.5H111M122 52V65.5V66M122 66H116.5H111M122 66V72.5M122 66H126.5M111 31.5V38M111 31.5H113.75M111 38H113.75M111 38V52M111 52V66M111 66H104M119.25 31.5H116.5H113.75M119.25 31.5V38M119.25 38H116.5H113.75M113.75 31.5V38M167 66V72.5M167 66H162.667M167 72.5H162.667M167 72.5V75.5M122 72.5H126.5M122 72.5V107.5M144.5 66V72.5M144.5 66H140M144.5 66H154M144.5 72.5H140M144.5 72.5H154M140 66V72.5M140 66H135.5M140 72.5H135.5M135.5 66V72.5M135.5 66H131M135.5 72.5H131M131 66V72.5M131 66H126.5M131 72.5H126.5M126.5 66V72.5M154 66V72.5M154 66H158.333M154 72.5H158.333M158.333 66V72.5M158.333 66H162.667M162.667 72.5H158.333M162.667 72.5V66M167 75.5V107.5H150M167 75.5H150V107.5M150 107.5H144.5M144.5 107.5V75.5H127V107.5M144.5 107.5H127M127 107.5H122M122 107.5H117.5M117.5 107.5H104.5M117.5 107.5V76C117.5 74.5 117.5 71.5 111 71.5C104.5 71.5 104.5 74.5 104.5 76V107.5M104.5 107.5H100.5M100.5 107.5H87.5M100.5 107.5V76C100.5 74.5 100.5 71.5 94 71.5C87.5 71.5 87.5 74.5 87.5 76V107.5M66 56V66M66 56H104M66 66H85H104M104 56V66M85 42H66V48H85H104V42H85ZM85 50.5H66V53.5H85H104V50.5H85ZM53.5 42H48V48.5H53.5H59V42H53.5ZM116.5 42H122V48.5H116.5H111V42H116.5Z" stroke="#627181"/>
</svg>
