<svg width="52" height="40" viewBox="0 0 52 40" fill="none" xmlns="http://www.w3.org/2000/svg">
<path d="M13.2697 29.4649C13.4938 29.3688 13.7018 29.2408 13.9259 29.1768C14.406 29.0168 14.9021 28.9047 15.3662 28.7287C16.0544 28.4886 16.4705 27.9925 16.5185 27.2403C16.5825 25.992 16.6945 24.7437 16.6785 23.4955C16.6465 20.8068 16.6465 18.1182 16.4705 15.4456C16.3424 13.5251 15.0141 12.2768 13.2377 12.0528C11.0132 11.7647 8.93269 12.7569 8.29254 14.5493C7.95646 15.4776 7.74841 16.5178 7.73241 17.51C7.68439 20.5348 7.73241 23.5755 7.82843 26.6002C7.87644 28.0565 8.34055 28.4886 9.76488 28.9527C10.101 29.0648 10.389 29.3368 10.6931 29.5289C10.341 29.6249 9.97293 29.8009 9.62085 29.8009C6.77218 29.8169 3.93951 29.8169 1.09084 29.8009C0.802774 29.8009 0.53071 29.7529 0.242642 29.7369C0.210634 29.6569 0.178627 29.5609 0.130615 29.4809C0.386676 29.3368 0.610728 29.0968 0.882793 29.0488C3.18734 28.6167 3.36338 28.2806 3.39538 25.944C3.4594 22.4392 3.4434 18.9344 3.37938 15.4135C3.36338 14.2133 2.96328 13.9252 1.747 13.7652C1.58696 13.7492 1.42692 13.7332 1.28289 13.6691C1.12285 13.6051 0.994819 13.4931 0.834781 13.3971C0.962812 13.253 1.07484 13.045 1.23488 12.981C3.17133 12.2448 4.85173 11.0765 6.40409 9.73221C6.54813 9.60418 6.69216 9.47615 6.8522 9.39613C7.31631 9.15608 7.63638 9.2521 7.65239 9.82823C7.66839 10.5964 7.63638 11.3646 7.66839 12.1488C7.68439 12.3888 7.86044 12.6129 7.95646 12.8369C8.16451 12.7409 8.40456 12.6929 8.58061 12.5489C9.36479 11.9087 10.069 11.1726 10.9012 10.6124C13.7818 8.65996 17.7028 9.12407 19.7192 11.6367C20.7755 12.949 20.8555 14.5333 20.8875 16.1017C20.9355 19.2385 20.9035 22.3752 20.9035 25.5279C20.9035 25.848 20.9035 26.1681 20.9195 26.4882C20.9835 28.2006 21.2876 28.5366 22.92 28.9687C23.2721 29.0648 23.5761 29.3048 23.8962 29.4649C23.5281 29.5769 23.144 29.7689 22.7759 29.7689C20.0393 29.8009 17.3027 29.8009 14.566 29.7849C14.1339 29.7849 13.7178 29.7209 13.2857 29.7049C13.3017 29.6569 13.2857 29.5609 13.2697 29.4649Z" fill="#374554"/>
<path d="M28.0252 13.2054C31.322 8.19622 39.4039 8.40427 43.1008 11.9411C47.2458 15.894 47.4538 23.0157 43.5489 27.1447C39.82 31.0976 31.482 31.4497 27.9132 26.1685C27.8652 26.6326 27.8172 26.9526 27.8172 27.2567C27.8172 30.9856 27.8172 34.6985 27.8172 38.4273C27.8172 39.4836 27.8172 39.4836 26.7769 39.4836C25.3526 39.4676 25.4486 39.7236 25.4486 38.1873C25.4486 29.1452 25.4486 20.103 25.4486 11.0609C25.4486 10.6928 25.5286 10.0206 25.6567 9.98864C26.2968 9.87662 26.969 9.92463 27.6251 9.97264C27.7052 9.97264 27.7852 10.3887 27.8012 10.6128C27.8172 11.477 27.8172 12.3412 27.8172 13.2054C27.8812 13.2054 27.9452 13.2054 28.0252 13.2054ZM35.9791 27.9449C40.4602 28.0409 43.885 24.7121 43.933 19.7349C43.965 14.9338 40.6042 11.541 35.9471 11.541C31.258 11.541 27.5931 15.1579 27.5931 19.7669C27.5931 24.36 31.258 27.9449 35.9791 27.9449Z" fill="#374554"/>
<path d="M43.2927 39.6914C43.3247 39.3073 43.3247 39.0513 43.3727 38.8272C43.4368 38.4431 43.5168 38.059 43.5968 37.6269C44.269 37.691 44.9251 37.835 45.5653 37.803C47.1336 37.723 48.1259 36.6987 48.3019 35.0983C48.3819 34.3622 48.4299 33.61 48.4299 32.8738C48.4459 25.5601 48.4299 18.2464 48.4299 10.9327C48.4299 9.89241 48.4299 9.89241 49.4702 9.89241C49.7422 9.89241 50.0303 9.82839 50.2544 9.90841C50.4624 9.98843 50.6224 10.2285 50.7825 10.4205C50.8305 10.4685 50.7985 10.5806 50.7985 10.6606C50.7825 18.6625 50.7985 26.6804 50.7505 34.6822C50.7345 36.2666 50.3664 37.835 49.0221 38.8912C47.2777 40.2196 45.3412 40.1715 43.2927 39.6914Z" fill="#374554"/>
<path d="M51.4227 1.97055C51.3907 3.04281 50.6065 3.76298 49.5022 3.73097C48.51 3.69896 47.7578 2.86677 47.7898 1.82652C47.8218 0.738264 48.638 -0.045921 49.6783 0.00209027C50.7185 0.0340978 51.4547 0.882298 51.4227 1.97055Z" fill="#374554"/>
</svg>
