<svg width="70" height="36" viewBox="0 0 70 36" fill="none" xmlns="http://www.w3.org/2000/svg">
<path d="M40.4114 17.6357C40.4759 20.9049 37.8304 23.2493 34.7978 23.2493C31.3565 23.2493 28.9906 20.7759 29.0121 17.5497C29.0336 14.431 31.3135 11.936 34.7978 11.936C37.8304 11.936 40.519 14.2804 40.4114 17.6357ZM38.4542 17.4206C38.5187 16.3237 37.938 15.1838 37.3142 14.603C35.5506 13.0114 32.6685 13.1835 31.378 15.6784C30.6037 17.1625 30.7328 18.6681 31.7651 20.0876C32.9911 21.7652 35.4215 22.0449 37.0561 20.7544C38.0885 19.9586 38.4542 18.8401 38.4542 17.4206Z" fill="#374554"/>
<path d="M47.0791 18.0658C48.3481 19.6789 49.5525 21.2275 50.757 22.7976C50.7355 22.8406 50.714 22.8836 50.6925 22.9051C50.0902 22.9051 49.488 22.9911 48.9288 22.8836C48.6492 22.8191 48.3696 22.475 48.1545 22.1953C47.5523 21.4211 46.9931 20.6253 46.4123 19.851C46.0037 19.3133 45.5735 18.7756 45.1434 18.2594C45.1004 18.2163 45.0358 18.1733 44.9068 18.1088C44.8853 18.3239 44.8853 18.4744 44.8853 18.625C44.8853 19.9155 44.8638 21.206 44.8853 22.4965C44.8853 22.8621 44.7777 22.9911 44.4121 22.9481C44.1755 22.9266 43.9604 22.9481 43.7238 22.9481C43.1001 22.9481 43.1001 22.9481 43.1001 22.3029C43.1001 19.5498 43.1001 16.7753 43.1001 14.0223C43.1001 13.5276 43.1001 13.0544 43.1001 12.5597C43.1001 12.3446 43.1646 12.2156 43.4012 12.2156C44.6057 12.2371 45.8316 12.1726 47.0361 12.2801C48.5847 12.4091 49.5095 13.4846 49.5095 15.0331C49.5095 15.3988 49.5095 15.7859 49.4235 16.1301C49.1869 17.1409 48.5201 17.7217 47.5308 17.9582C47.4447 17.9798 47.2942 18.0228 47.0791 18.0658ZM45.0143 15.2267C45.0143 15.6354 45.0143 16.0225 45.0143 16.4312C45.0143 16.6678 45.0788 16.7968 45.3369 16.7753C45.8101 16.7323 46.3263 16.7323 46.778 16.6032C47.0791 16.5172 47.4017 16.2591 47.5308 15.9795C48.0255 15.0331 47.4878 14.0008 46.4339 13.8072C46.0682 13.7427 45.6596 13.7427 45.2939 13.7642C45.2079 13.7642 45.0358 13.9362 45.0358 14.0438C44.9928 14.4094 45.0143 14.8181 45.0143 15.2267Z" fill="#374554"/>
<path d="M1.97656 18.1948C1.97656 18.4099 1.97656 18.6465 1.97656 18.8616C1.97656 20.0875 1.97656 21.292 1.97656 22.518C1.97656 22.8406 1.89052 22.9696 1.5679 22.9266C1.26679 22.9051 0.965675 22.9051 0.664561 22.9266C0.298923 22.9481 0.212891 22.7976 0.212891 22.4534C0.234399 20.2381 0.212891 18.0228 0.212891 15.8074C0.212891 14.732 0.212891 13.6566 0.212891 12.5812C0.212891 12.2801 0.298923 12.1726 0.600037 12.1941C1.61092 12.2156 2.6218 12.1941 3.65419 12.1941C5.61143 12.2156 6.75136 13.5061 6.6008 15.4633C6.53628 16.3666 6.27818 17.1624 5.43936 17.6141C5.07373 17.8292 4.64356 17.9152 4.14888 18.1088C5.39635 19.7004 6.62231 21.249 7.89129 22.9051C7.16001 22.9051 6.55779 22.9051 5.93405 22.9051C5.84802 22.9051 5.74048 22.7976 5.67595 22.7115C4.94468 21.7867 4.23491 20.8403 3.50363 19.9155C3.03046 19.3132 2.57878 18.7325 2.10561 18.1518C2.04108 18.1733 1.99806 18.1733 1.97656 18.1948ZM2.77236 13.6996V13.7211C2.64331 13.7211 2.51426 13.7211 2.38521 13.7211C2.12711 13.6996 2.01957 13.8072 2.01957 14.0653C2.01957 14.8611 2.01957 15.6354 2.01957 16.4312C2.01957 16.6677 2.10561 16.7753 2.34219 16.7538C2.81537 16.7108 3.31006 16.7108 3.78324 16.6032C4.04134 16.5387 4.36396 16.3451 4.49301 16.1085C5.07373 15.0977 4.55753 14.0222 3.43911 13.7857C3.22403 13.7426 2.98744 13.7211 2.77236 13.6996Z" fill="#374554"/>
<path d="M30.2383 3.26843C30.2383 3.63407 30.2383 4.08574 30.2383 4.53741C30.2383 5.84941 30.2383 7.16141 30.2383 8.49491C30.2383 8.81753 30.1522 8.96809 29.8081 8.94658C29.4855 8.92507 29.1414 8.92507 28.8187 8.94658C28.5606 8.94658 28.4746 8.83904 28.4746 8.58094C28.4746 6.086 28.4746 3.56955 28.4746 1.0746C28.4746 0.838015 28.5606 0.730475 28.7972 0.730475C29.2489 0.730475 29.6791 0.708966 30.1307 0.751983C30.2813 0.773491 30.4749 0.881032 30.5824 1.01008C31.5933 2.27906 32.5827 3.54804 33.572 4.81702C33.9807 5.35472 34.3893 5.87092 34.798 6.38711C34.798 5.41925 34.798 4.40836 34.798 3.39748C34.798 2.6447 34.798 1.89191 34.798 1.11762C34.798 0.838016 34.9055 0.730475 35.1851 0.751983C35.5508 0.773491 35.8949 0.773491 36.2606 0.751983C36.5186 0.751983 36.6047 0.859524 36.6047 1.11762C36.6047 3.61256 36.6047 6.12901 36.6047 8.62396C36.6047 8.88205 36.5186 8.9896 36.2606 8.96809C36.239 8.96809 36.239 8.96809 36.2175 8.96809C34.7335 8.9896 34.712 8.9896 33.7871 7.78514C33.1634 6.96783 32.5396 6.15052 31.9159 5.33321C31.3352 4.62345 30.776 3.93519 30.2383 3.26843Z" fill="#374554"/>
<path d="M16.5159 16.3666C16.5159 16.8398 16.5375 17.27 16.4944 17.7001C16.4944 17.7862 16.2578 17.9152 16.1288 17.9152C14.9459 17.9367 13.7629 17.9367 12.5585 17.9152C12.1498 17.9152 12.0423 18.0443 12.0638 18.4314C12.0853 19.3778 12.0638 20.3241 12.0638 21.3135C12.2573 21.3135 12.4079 21.335 12.5585 21.335C13.7414 21.335 14.9028 21.335 16.0858 21.335C16.3869 21.335 16.5159 21.3995 16.5159 21.7437C16.5159 22.9481 16.5375 22.9481 15.3115 22.9481C13.7844 22.9481 12.2573 22.9481 10.7088 22.9481C10.3861 22.9481 10.2571 22.8621 10.2571 22.518C10.2786 19.2272 10.2786 15.9365 10.2571 12.6457C10.2571 12.3016 10.3861 12.2156 10.7088 12.2156C12.4939 12.2371 14.2791 12.2371 16.0643 12.2156C16.4084 12.2156 16.4944 12.3231 16.4944 12.6672C16.4729 13.7211 16.4944 13.7211 15.4405 13.7211C14.4512 13.7211 13.4618 13.7427 12.4724 13.7211C12.1498 13.7211 12.0423 13.8287 12.0638 14.1298C12.0853 14.7535 12.0853 15.3988 12.0638 16.0225C12.0638 16.3236 12.1498 16.4312 12.4509 16.4097C13.6339 16.3882 14.7953 16.4097 15.9782 16.4097C16.1503 16.3666 16.3009 16.3666 16.5159 16.3666Z" fill="#374554"/>
<path d="M63.8123 20.1093C64.0919 21.0556 64.7587 21.4858 65.6405 21.5503C66.2858 21.6149 66.888 21.5073 67.2966 20.9696C67.6408 20.4964 67.7913 19.9157 67.4472 19.3995C67.2536 19.0769 66.9095 18.7973 66.5869 18.6037C65.8341 18.1736 65.0383 17.8509 64.307 17.4423C63.5757 17.0336 62.9735 16.4744 62.7154 15.6786C62.2637 14.2161 63.081 12.646 64.5221 12.1513C65.8126 11.6996 67.1031 11.7856 68.3075 12.4954C68.7592 12.7535 69.0173 13.1837 69.1894 13.7214C68.7807 13.9365 68.372 14.1515 67.9634 14.3236C67.8558 14.3666 67.6193 14.2591 67.5117 14.13C66.8019 13.3988 66.0061 13.2267 65.1243 13.6999C64.7157 13.9149 64.5866 14.3236 64.5651 14.7968C64.5436 15.356 64.8232 15.7216 65.2749 15.9582C66.1782 16.4314 67.1246 16.8401 68.0279 17.3562C69.2539 18.0445 69.7271 19.1199 69.4905 20.5395C69.2754 21.873 68.4151 22.8193 67.0815 23.0559C65.9846 23.271 64.8662 23.3355 63.8338 22.7548C63.1886 22.3891 62.6509 21.8945 62.3928 21.1417C62.3067 20.8836 62.3283 20.7115 62.6079 20.604C62.9735 20.4534 63.3606 20.2814 63.8123 20.1093Z" fill="#374554"/>
<path d="M20.3015 17.5711C20.3015 15.9365 20.3015 14.2804 20.3015 12.6458C20.3015 12.3016 20.3875 12.1941 20.7317 12.1941C22.0222 12.2156 23.3342 12.1941 24.6246 12.2586C25.571 12.3016 26.1947 12.8608 26.6679 13.6997C27.0336 14.3879 27.1411 15.0977 26.969 15.829C26.6894 16.9259 26.0227 17.8937 24.6462 18.0228C23.9149 18.0873 23.1836 18.1088 22.4738 18.0873C22.1512 18.0873 22.0652 18.1949 22.0652 18.5175C22.0867 19.808 22.0437 21.12 22.0867 22.4105C22.0867 22.8191 21.9361 22.9482 21.5705 22.9051C21.3124 22.8836 21.0543 22.8836 20.7962 22.9051C20.4306 22.9482 20.3015 22.8191 20.3015 22.432C20.3015 20.8188 20.3015 19.1842 20.3015 17.5711ZM22.1727 15.1622C22.1727 15.5494 22.1512 15.9365 22.1942 16.3237C22.1942 16.4312 22.3878 16.6248 22.4953 16.6248C23.0976 16.6033 23.7213 16.5602 24.3235 16.4527C24.8397 16.3667 25.1193 15.9365 25.1193 15.3343C25.1193 14.603 24.9043 14.2159 24.4526 14.0008C23.8073 13.7212 23.1406 13.6997 22.4738 13.7427C22.3663 13.7427 22.2157 13.9362 22.1942 14.0653C22.1512 14.4309 22.1727 14.7966 22.1727 15.1622Z" fill="#374554"/>
<path d="M20.8393 4.81679C20.8393 3.59083 20.8393 2.38637 20.8393 1.16041C20.8393 0.816281 20.9468 0.70874 21.2909 0.70874C22.689 0.730248 24.087 0.730248 25.5065 0.70874C25.8507 0.70874 25.9367 0.837789 25.9367 1.16041C25.9367 2.21431 25.9367 2.21431 24.9043 2.21431C24.3021 2.21431 23.6999 2.23582 23.0976 2.21431C22.7965 2.21431 22.6675 2.32185 22.689 2.62296C22.7105 2.90257 22.7105 3.20368 22.689 3.48329C22.6675 3.84893 22.8395 3.93496 23.1621 3.93496C23.9579 3.91345 24.7322 3.93496 25.528 3.91345C25.8292 3.91345 25.9152 3.99948 25.9152 4.3006C25.9367 5.41902 25.9367 5.41902 24.8183 5.41902C24.2376 5.41902 23.6783 5.41902 23.0976 5.41902C22.7965 5.41902 22.646 5.50505 22.6675 5.82767C22.689 6.23633 22.689 6.66649 22.6675 7.07514C22.6675 7.35475 22.775 7.46229 23.0546 7.46229C23.8504 7.46229 24.6247 7.4838 25.4205 7.44078C25.7861 7.41927 25.9152 7.52681 25.9152 7.91396C25.8937 8.92484 25.9152 8.92484 24.8828 8.92484C23.6999 8.92484 22.5384 8.90334 21.3555 8.92484C20.9038 8.94635 20.7963 8.77429 20.8178 8.36563C20.8393 7.20419 20.8393 5.99974 20.8393 4.81679Z" fill="#374554"/>
<path d="M60.285 13.6782C59.5537 13.6782 58.8439 13.6782 58.1556 13.6782C58.0481 13.6782 57.9621 13.6997 57.8545 13.6782C57.4459 13.6136 57.3168 13.7642 57.3168 14.1944C57.3383 16.9259 57.3168 19.6574 57.3383 22.3889C57.3383 22.7761 57.2523 22.9697 56.8221 22.9267C56.4135 22.8836 55.8328 23.0127 55.5962 22.7976C55.3811 22.604 55.5101 22.0233 55.5101 21.6147C55.5101 19.1412 55.5101 16.6678 55.5101 14.1944C55.5101 13.8287 55.4456 13.6567 55.0155 13.6782C54.3272 13.7212 53.6389 13.6782 52.9507 13.6997C52.6711 13.6997 52.542 13.6351 52.542 13.3125C52.5205 12.1941 52.5205 12.2156 53.6389 12.2156C55.7037 12.2156 57.7685 12.2156 59.8333 12.2156C60.1774 12.2156 60.328 12.3016 60.3065 12.6673C60.2634 12.9684 60.285 13.291 60.285 13.6782Z" fill="#374554"/>
<path d="M69.3615 6.70971C69.3399 7.35496 69.3184 7.87115 69.2754 8.36584C69.2539 8.47338 69.1034 8.60242 68.9743 8.66695C67.5333 9.46275 64.4361 9.26918 63.0166 7.50551C61.9842 6.23653 61.8981 3.67706 62.7585 2.49412C63.8984 0.945533 65.4685 0.364813 67.3397 0.558386C67.9634 0.622911 68.5657 0.837992 69.1679 0.988549C69.2754 1.01006 69.4045 1.16062 69.4045 1.22514C69.4045 1.74133 69.3615 2.23602 69.3399 2.66618C68.6947 2.42959 68.071 2.12848 67.4257 1.99943C66.2643 1.76284 64.7587 2.27904 64.2425 3.59103C63.8339 4.62342 63.9844 6.53765 65.1028 7.2044C66.2643 7.89266 67.9204 7.7421 68.8883 7.05384C68.9958 6.96781 69.1249 6.88178 69.3615 6.70971Z" fill="#374554"/>
<path d="M14.1286 2.83839C13.0747 2.02108 11.9993 1.76298 10.7948 2.10711C9.16021 2.58029 8.68703 3.99983 8.8591 5.37635C9.18172 7.82828 11.9993 8.08637 13.5049 7.16152C13.6769 7.05398 13.8705 6.92493 14.1286 6.75287C14.1286 7.3551 14.1501 7.8928 14.1071 8.4305C14.1071 8.51654 13.935 8.64558 13.806 8.6886C12.1929 9.35535 10.5582 9.35535 9.00966 8.49503C8.55799 8.23693 8.17084 7.84978 7.82671 7.46264C6.68678 6.12913 6.62225 4.58055 7.28901 3.05347C7.71917 2.04259 8.51497 1.28981 9.56887 0.90266C11.0099 0.364957 12.451 0.386464 13.892 0.967183C14.1286 1.05322 14.2361 1.18227 14.2146 1.44036C14.2146 1.89203 14.1716 2.3222 14.1286 2.83839Z" fill="#374554"/>
<path d="M0.944159 6.83869C1.37432 7.50544 1.95504 7.87108 2.72933 7.76354C3.05195 7.72052 3.41759 7.52695 3.65418 7.31187C4.04133 6.94623 3.99831 6.344 3.54664 6.04289C3.11648 5.76328 2.62179 5.5482 2.14861 5.31161C1.50337 4.98899 0.901143 4.64486 0.449472 4.04263C-0.0882308 3.35437 -0.109739 2.365 0.449472 1.67674C1.41734 0.472284 3.41759 0.128154 4.68657 0.945463C4.88015 1.07451 5.09523 1.20356 5.24578 1.39713C5.31031 1.48317 5.31031 1.74126 5.24578 1.80579C4.96618 2.06389 4.64356 2.27897 4.32093 2.53706C3.9768 2.08539 3.50363 1.8273 2.9014 1.89182C2.3637 1.93484 1.95504 2.23595 1.86901 2.68762C1.78298 3.09627 2.08409 3.52644 2.57878 3.74152C3.09497 3.9566 3.61117 4.15017 4.10585 4.42978C4.81562 4.83843 5.5469 5.2686 5.69745 6.21495C5.91254 7.54846 5.11673 8.77442 3.74022 9.03252C2.53576 9.26911 1.35281 9.22609 0.320424 8.36577C-0.0882308 8.02164 -0.109739 7.80655 0.277408 7.48393C0.406456 7.37639 0.492489 7.26885 0.600029 7.16131C0.686062 7.07528 0.81511 6.96774 0.944159 6.83869Z" fill="#374554"/>
<path d="M51.1228 4.81679C51.1228 3.59083 51.1228 2.38637 51.1228 1.16041C51.1228 0.816281 51.2303 0.70874 51.5745 0.70874C52.951 0.730248 54.349 0.730248 55.747 0.70874C56.1127 0.70874 56.2202 0.837788 56.2202 1.18192C56.1987 2.40788 56.3708 2.1928 55.2093 2.21431C54.5856 2.21431 53.9834 2.23582 53.3596 2.21431C53.0155 2.1928 52.908 2.34336 52.9295 2.66598C52.951 2.94559 52.951 3.2467 52.9295 3.5263C52.908 3.82742 53.0155 3.93496 53.3166 3.93496C54.1339 3.91345 54.9513 3.95647 55.7686 3.93496C56.1342 3.93496 56.2202 4.06401 56.2417 4.40814C56.2417 5.44053 56.2632 5.44053 55.1878 5.44053C54.5641 5.44053 53.9619 5.46204 53.3381 5.44053C53.0155 5.44053 52.908 5.54807 52.908 5.87069C52.9295 6.77403 52.908 7.67737 52.9295 8.58071C52.9295 8.88183 52.8435 8.98937 52.5423 8.96786C52.2197 8.94635 51.8756 8.94635 51.553 8.96786C51.2519 8.98937 51.1443 8.86032 51.1658 8.5592C51.1228 7.31173 51.1228 6.06426 51.1228 4.81679Z" fill="#374554"/>
<path d="M42.4334 5.61281C42.4334 6.55917 42.4119 7.50553 42.4334 8.45188C42.4334 8.81752 42.3474 8.98959 41.9602 8.94657C41.5301 8.90355 40.9493 9.03261 40.6912 8.81752C40.4762 8.62395 40.5837 8.02172 40.5837 7.59156C40.5837 5.97845 40.5622 4.36534 40.5837 2.75223C40.5837 2.36509 40.4762 2.21453 40.0675 2.23604C39.6373 2.25755 39.2072 2.23604 38.777 2.23604C38.5404 2.23604 38.4544 2.15 38.4329 1.91342C38.3684 0.730469 38.3469 0.730469 39.5083 0.730469C40.9924 0.730469 42.4764 0.751977 43.9605 0.730469C44.3691 0.730469 44.5197 0.816502 44.4982 1.24666C44.4767 2.21453 44.4982 2.21453 43.5303 2.21453C42.3904 2.21453 42.3904 2.21453 42.3904 3.37597C42.3904 3.74161 42.3904 4.12875 42.3904 4.49439C42.4334 4.88154 42.4334 5.24717 42.4334 5.61281Z" fill="#374554"/>
<path d="M16.4947 4.83825C16.4947 3.6338 16.4947 2.40784 16.4947 1.20338C16.4947 0.859251 16.5807 0.708694 16.9463 0.730202C17.398 0.773219 18.0002 0.622662 18.2583 0.859251C18.4949 1.07433 18.3444 1.69807 18.3444 2.12823C18.3444 4.19301 18.3444 6.2793 18.3444 8.34408C18.3444 8.94631 18.3444 8.94631 17.7206 8.94631C17.5701 8.94631 17.398 8.94631 17.2474 8.94631C16.4301 8.94631 16.4947 9.05385 16.4731 8.19352C16.4947 7.0751 16.4947 5.95668 16.4947 4.83825Z" fill="#374554"/>
<path d="M58.4141 4.83835C58.4141 3.6339 58.4356 2.40793 58.4141 1.20348C58.4141 0.837841 58.5216 0.708793 58.8872 0.730301C59.2099 0.751809 59.511 0.751809 59.8336 0.730301C60.0702 0.730301 60.1992 0.794825 60.1992 1.07443C60.1992 3.59088 60.1992 6.10733 60.1992 8.62378C60.1992 8.86037 60.1132 8.94641 59.8766 8.94641C59.5325 8.94641 59.1884 8.9249 58.8442 8.94641C58.5216 8.96791 58.4356 8.83886 58.4356 8.51624C58.4356 7.29028 58.4141 6.06432 58.4141 4.83835Z" fill="#374554"/>
<path d="M46.5845 4.83848C46.5845 3.61251 46.5845 2.38655 46.5845 1.13908C46.5845 0.816457 46.692 0.708916 47.0146 0.730424C47.3157 0.751932 47.6169 0.751932 47.918 0.730424C48.2406 0.708916 48.3696 0.837964 48.3696 1.18209C48.3481 2.32202 48.3696 3.46196 48.3696 4.62339C48.3696 5.91388 48.3481 7.22588 48.3696 8.51637C48.3696 8.8605 48.2621 8.94653 47.918 8.94653C46.606 8.96804 46.606 8.96804 46.606 7.65604C46.5845 6.70968 46.5845 5.78483 46.5845 4.83848Z" fill="#374554"/>
<path d="M69.3184 27.336C46.2402 27.336 23.1835 27.336 0.0622559 27.336C0.341861 27.1209 68.8883 27.0779 69.3184 27.336Z" fill="#374554"/>
<path d="M25.9366 35.0574C25.5494 35.165 25.1623 35.2725 24.7321 35.4016C24.6891 35.2295 24.6676 35.0574 24.6031 34.8208C24.431 34.9284 24.302 35.0359 24.1514 35.0789C23.7858 35.1865 23.4201 35.4016 23.076 35.3585C22.4738 35.294 22.2157 34.7778 22.2587 34.1111C22.2802 33.5734 22.2802 33.0357 22.3232 32.4764C22.3447 32.1538 22.2372 32.0248 21.893 32.0033C20.8391 31.9818 20.8391 31.9603 20.8391 33.0357C20.8391 33.4013 20.8391 33.7884 20.8391 34.1541C20.8391 34.8638 21.0757 35.0359 21.764 34.8639C21.807 34.8423 21.8715 34.8423 21.9146 34.8423C21.9361 34.8854 21.9361 34.9284 21.9576 34.9714C21.6134 35.1219 21.2908 35.294 20.9252 35.38C20.538 35.4661 20.1939 35.1865 20.1509 34.7563C20.1079 34.2401 20.1509 33.7024 20.1509 33.1862C20.1509 33.0357 20.1509 32.8636 20.1509 32.713C20.1724 32.3904 20.1509 32.1108 19.6992 32.0678C20.1079 31.7022 20.4735 31.358 20.8391 31.0354C20.8607 31.0569 20.8822 31.0569 20.9037 31.0784C20.9682 31.7667 20.9682 31.7667 21.678 31.7452C21.9791 31.7452 22.2802 31.7452 22.5813 31.7022C22.9685 31.6591 23.1405 31.7667 23.0975 32.1968C23.0545 32.7561 23.033 33.3368 23.033 33.896C23.033 34.5627 23.2696 34.8638 23.7858 34.8854C24.3665 34.8854 24.7536 34.5197 24.7751 33.896C24.7966 33.5303 24.7751 33.1432 24.7751 32.7776C24.7751 32.0248 24.7751 32.0248 24.0654 31.7882C24.5385 31.7882 24.9902 31.7882 25.5279 31.7882C25.5279 32.1753 25.5279 32.5625 25.5279 32.9496C25.5064 33.3583 25.4634 33.7454 25.4634 34.1541C25.4204 34.5627 25.3774 34.9929 25.9366 35.0574Z" fill="#374554"/>
<path d="M16.0428 35.2938C15.4621 35.2938 14.8814 35.2938 14.3007 35.2938C15.118 34.6271 14.9459 33.7668 14.7523 32.8849C14.7093 32.6698 14.6448 32.4117 14.4942 32.2827C14.0641 31.8525 13.2683 32.0891 13.1822 32.6698C13.0962 33.3581 13.1177 34.0894 13.1392 34.7991C13.1392 34.9497 13.3973 35.1003 13.5479 35.2723C12.9672 35.2723 12.3649 35.2723 11.7627 35.2723C12.2789 35.1648 12.2789 34.7346 12.2789 34.3475C12.3004 33.8958 12.3004 33.4226 12.2789 32.971C12.2574 32.5623 12.2144 32.4978 11.8057 32.3257C12.2144 32.0891 12.6015 31.874 13.0102 31.6375C13.0532 31.831 13.0962 32.0031 13.1392 32.2397C13.3113 32.1106 13.4188 32.0461 13.5264 31.9601C13.9135 31.6159 14.3867 31.6159 14.8599 31.6805C15.247 31.745 15.5266 32.0891 15.5481 32.5408C15.5696 33.1215 15.5481 33.6807 15.5481 34.2614C15.5696 34.6701 15.5266 35.1003 16.0428 35.2938Z" fill="#374554"/>
<path d="M55.5103 35.294C54.9511 35.294 54.3918 35.294 53.8326 35.294C54.4564 35.0574 54.2843 34.5412 54.2843 34.0895C54.2843 33.1001 54.2843 32.1108 54.2843 31.1214C54.2843 30.7127 54.2843 30.3471 53.7251 30.132C54.1338 29.9815 54.4349 29.8954 54.822 29.7449C54.822 30.6052 54.822 31.4225 54.822 32.2828C55.2092 32.1323 55.4888 31.9817 55.7684 31.8957C56.0265 31.8312 56.3061 31.8312 56.5642 31.8957C56.9513 31.9817 57.1664 32.2613 57.1879 32.67C57.2094 33.1001 57.1879 33.5303 57.1879 33.9605C57.1879 34.4336 57.1234 34.9498 57.6611 35.2725C57.1664 35.2725 56.6717 35.2725 56.1985 35.2725C56.8008 35.0574 56.6502 34.5412 56.6717 34.111C56.6717 33.7454 56.6932 33.4013 56.6717 33.0356C56.6502 32.5624 56.3491 32.2398 55.9404 32.2183C55.4242 32.1753 54.9941 32.4549 54.9295 32.9281C54.865 33.4443 54.865 33.939 54.8435 34.4552C54.8435 34.8853 55.1446 35.0789 55.5748 35.1649C55.5533 35.2079 55.5318 35.251 55.5103 35.294Z" fill="#374554"/>
<path d="M32.26 34.3906C32.0019 34.9928 31.034 35.509 30.4748 35.423C29.0123 35.1864 28.4101 33.9604 29.0553 32.6914C29.5715 31.6805 30.6254 31.2719 31.7868 31.8956C31.9374 31.9817 32.0664 32.1537 32.1525 32.3043C32.4106 32.799 32.303 32.9495 31.7438 32.971C31.2061 32.971 30.6899 32.9925 30.1522 32.971C29.8081 32.9495 29.679 33.1001 29.7005 33.4227C29.7436 33.9604 29.8726 34.4766 30.3888 34.7777C30.948 35.1003 31.4642 34.9283 31.9589 34.6487C32.0234 34.5626 32.0879 34.5196 32.26 34.3906ZM30.2598 32.799C30.5609 32.756 30.7975 32.756 30.991 32.6699C31.1631 32.5839 31.3997 32.3903 31.3782 32.2613C31.3567 32.0892 31.1631 31.8526 30.991 31.7881C30.6254 31.6375 30.2813 31.7881 30.0232 32.0892C29.9156 32.2183 29.8081 32.4548 29.8296 32.6054C29.8726 32.7129 30.1522 32.756 30.2598 32.799Z" fill="#374554"/>
<path d="M19.7209 34.8209C19.2692 35.4876 18.753 35.5091 18.1508 34.9284C17.8712 35.079 17.6131 35.251 17.3335 35.3586C16.9893 35.4876 16.6452 35.4231 16.4301 35.1005C16.215 34.7778 16.2796 34.3907 16.5807 34.1756C16.9248 33.896 17.355 33.7024 17.7421 33.4874C18.1723 33.2508 18.4304 32.3474 18.1508 31.9388C17.9142 31.5946 17.3119 31.7237 17.0108 32.1969C16.9463 32.3259 16.9248 32.498 16.8388 32.584C16.7097 32.6916 16.5161 32.7346 16.3656 32.8206C16.3656 32.67 16.3011 32.498 16.3656 32.3689C16.7312 31.6807 17.9572 31.315 18.6239 31.7237C18.796 31.8312 18.9251 32.1323 18.9251 32.3474C18.9466 32.9927 18.9035 33.6594 18.9035 34.3047C18.9035 34.8639 19.0111 34.9499 19.5703 34.7778C19.5918 34.7993 19.6348 34.7993 19.7209 34.8209ZM18.2583 33.982C18.1938 33.8315 18.1723 33.6594 18.0862 33.5949C18.0217 33.5519 17.8497 33.6164 17.7421 33.6809C17.5485 33.81 17.3765 33.982 17.1829 34.1326C16.9033 34.3692 16.9033 34.6273 17.1184 34.8854C17.3335 35.122 17.7636 35.0574 17.9357 34.7778C18.0862 34.5412 18.1508 34.2401 18.2583 33.982Z" fill="#374554"/>
<path d="M47.9825 34.7992C47.7889 35.3799 47.3157 35.5735 46.8856 35.2723C46.692 35.1433 46.5415 35.1433 46.3479 35.2293C46.1113 35.3369 45.8532 35.4014 45.6166 35.4014C44.9929 35.4444 44.7348 35.0358 45.0144 34.455C45.251 34.0034 45.6166 33.7238 46.0898 33.6162C46.5845 33.4872 46.735 33.2076 46.692 32.7129C46.6705 32.4333 46.606 32.1967 46.3264 32.1967C46.1113 32.1967 45.8532 32.3042 45.6596 32.4548C45.5306 32.5623 45.5306 32.7989 45.423 32.9495C45.337 33.057 45.1864 33.1 45.0574 33.1646C45.0359 33.0355 44.9499 32.8634 44.9929 32.7559C45.2295 32.1752 46.2618 31.6805 46.8426 31.9386C47.0361 32.0246 47.2297 32.3257 47.2512 32.5408C47.3157 33.1 47.2727 33.6592 47.2727 34.2184C47.2297 34.9927 47.2297 34.9927 47.9825 34.7992ZM46.735 34.1539C46.6275 34.0249 46.5415 33.7883 46.4124 33.7453C46.0898 33.6807 45.4876 34.2184 45.423 34.5626C45.38 34.8637 45.6166 35.1003 45.9392 35.0788C46.4124 35.0573 46.6705 34.7562 46.735 34.1539Z" fill="#374554"/>
<path d="M44.3905 34.6487C44.0464 35.4015 43.0785 35.7026 42.3042 35.3585C41.616 35.0574 41.2719 34.4336 41.3149 33.5733C41.3579 32.799 41.8526 32.1538 42.5193 31.9172C43.3151 31.6161 44.1539 32.0247 44.412 32.5624C44.6271 33.0356 44.5411 33.1862 44.0464 33.2077C43.5087 33.2077 42.9495 33.2077 42.4118 33.2077C41.9601 33.2077 41.8311 33.3797 41.8956 33.8099C42.0461 34.8853 43.057 35.38 44.0249 34.8423C44.1324 34.7778 44.24 34.7347 44.3905 34.6487ZM42.4333 33.0356C42.8419 32.9926 43.1861 32.9711 43.5517 32.885C43.6808 32.8635 43.8743 32.6915 43.8743 32.6269C43.8528 32.4764 43.7453 32.2613 43.6162 32.1968C43.1646 31.9172 42.5838 32.0677 42.2612 32.5409C42.1967 32.6269 42.1322 32.799 42.1752 32.885C42.1967 32.9711 42.3473 32.9926 42.4333 33.0356Z" fill="#374554"/>
<path d="M38.1533 34.7779C37.7662 35.3371 37.2069 35.5091 36.5402 35.4661C35.8949 35.4231 35.4648 35.0575 35.2282 34.4983C34.712 33.2508 35.4433 31.9603 36.7768 31.7882C37.379 31.7022 38.0888 32.1754 38.2178 32.7131C38.2824 33.0357 38.2178 33.2078 37.8522 33.1863C37.293 33.1648 36.7338 33.2078 36.1746 33.1863C35.7874 33.1648 35.6799 33.3368 35.6799 33.7025C35.6799 34.7133 36.6907 35.3586 37.6586 34.9069C37.8092 34.8424 37.9597 34.7564 38.0888 34.6918C38.1103 34.7133 38.1318 34.7564 38.1533 34.7779ZM36.6907 32.9712C36.7768 32.9712 36.9488 33.0142 37.0994 32.9497C37.293 32.8852 37.4435 32.7131 37.6156 32.584C37.465 32.412 37.336 32.1109 37.1639 32.1109C36.8413 32.0894 36.4757 32.1754 36.1746 32.3259C36.024 32.3905 35.9595 32.6916 35.8734 32.8852C36.067 32.9282 36.2391 32.9712 36.4327 32.9927C36.4972 33.0142 36.5402 32.9927 36.6907 32.9712Z" fill="#374554"/>
<path d="M28.1521 35.2938C27.4854 35.2938 26.8186 35.2938 26.1519 35.2938C26.7756 35.1003 26.6896 34.5841 26.6896 34.1109C26.6896 33.7452 26.7111 33.3581 26.668 32.9925C26.6465 32.7559 26.496 32.5408 26.3669 32.2612C26.6465 32.0891 27.0122 31.874 27.4423 31.6375C27.5069 31.788 27.5499 31.9386 27.6144 32.1536C27.765 32.0246 27.8725 31.8956 28.0016 31.831C28.1951 31.745 28.4102 31.6375 28.5823 31.659C28.7328 31.6805 28.9264 31.874 28.9694 32.0246C29.0124 32.1321 28.9049 32.4117 28.8189 32.4548C28.6683 32.5193 28.4317 32.4978 28.2812 32.4117C27.894 32.1967 27.6144 32.2612 27.5714 32.6698C27.5069 33.2506 27.5284 33.8528 27.5069 34.455C27.5069 34.9067 27.6574 35.2078 28.1521 35.2938Z" fill="#374554"/>
<path d="M40.6052 32.7345C40.4976 32.5625 40.4546 32.4119 40.3686 32.3474C40.175 32.2183 39.9599 32.0463 39.7664 32.0463C39.5943 32.0678 39.3147 32.2829 39.3147 32.4549C39.2932 32.6485 39.4652 32.8851 39.6373 33.0356C39.8739 33.2292 40.175 33.3583 40.4331 33.5303C40.8848 33.8314 41.0138 34.2186 40.8848 34.7133C40.7557 35.165 40.3901 35.4446 39.8524 35.4661C39.6588 35.4661 39.4868 35.4876 39.2932 35.4661C38.6479 35.38 38.4974 35.1219 38.734 34.3691C38.863 34.5627 38.9706 34.6918 39.0566 34.8208C39.2932 35.2295 39.7018 35.4015 40.0245 35.2295C40.4761 34.9929 40.5191 34.4122 40.089 34.0895C39.7879 33.8745 39.4652 33.7024 39.1641 33.4873C38.4329 32.9711 38.6264 32.4549 39.2287 32.0248C39.4222 31.8957 39.7018 31.8312 39.9599 31.8097C40.6267 31.7237 40.7772 31.9387 40.6052 32.7345Z" fill="#374554"/>
<path d="M53.4884 34.8639C52.8647 35.6166 51.7678 35.6381 51.1655 35.1004C50.5633 34.5842 50.4343 33.939 50.5848 33.2077C50.8214 32.1323 52.37 31.4656 53.3163 32.0033C53.4024 32.0678 53.4454 32.1968 53.5314 32.3044C53.4024 32.3689 53.2948 32.4549 53.1658 32.4549C53.0152 32.4334 52.8862 32.3474 52.7571 32.2614C52.3485 32.0033 51.9398 32.0248 51.5957 32.3904C50.9289 33.1002 51.0795 34.3907 51.8968 34.9069C52.2409 35.1219 52.6281 35.1219 53.0152 35.0144C53.1658 34.9499 53.3379 34.9069 53.4884 34.8639Z" fill="#374554"/>
<path d="M50.0472 35.294C49.445 35.294 48.8212 35.294 48.219 35.294C48.8427 35.1219 48.7137 34.6273 48.7137 34.1971C48.7137 33.853 48.7137 33.5088 48.7137 33.1647C48.7137 32.8206 48.7352 32.4979 48.305 32.3904C48.6276 32.1538 48.8857 31.9387 49.2084 31.7021C49.2514 31.8957 49.2944 32.0463 49.3589 32.2399C49.531 32.1108 49.6815 31.9602 49.8321 31.9172C50.0257 31.8742 50.2838 31.8742 50.4558 31.9602C50.5419 32.0033 50.4989 32.2829 50.5204 32.4549C50.3698 32.4764 50.2192 32.541 50.0902 32.4979C49.5525 32.3044 49.3374 32.4119 49.3159 32.9926C49.2729 33.4658 49.3159 33.939 49.2944 34.4122C49.2729 34.8423 49.445 35.1004 49.8966 35.1004C49.9611 35.1004 50.0257 35.1434 50.0902 35.165C50.0472 35.2295 50.0472 35.251 50.0472 35.294Z" fill="#374554"/>
<path d="M34.6472 35.294C34.0234 35.294 33.4212 35.294 32.6899 35.294C33.4857 34.9929 33.2492 34.3907 33.2276 33.896C33.2061 33.3798 33.4857 32.7991 32.905 32.3689C33.1631 32.1538 33.3997 31.9602 33.7008 31.7021C33.7654 31.9172 33.8084 32.0678 33.8729 32.3044C34.045 32.1753 34.174 32.0678 34.3246 31.9818C34.6687 31.7452 35.1204 31.8312 35.1634 32.1753C35.1849 32.2829 35.1419 32.4549 35.0773 32.5195C35.0128 32.584 34.8408 32.584 34.7332 32.541C34.0665 32.3044 33.8514 32.4549 33.8084 33.1647C33.7869 33.5734 33.8299 34.0035 33.7869 34.4122C33.7438 34.8423 33.9159 35.0574 34.3461 35.1004C34.4536 35.1219 34.5612 35.1434 34.6687 35.165C34.6472 35.208 34.6472 35.251 34.6472 35.294Z" fill="#374554"/>
</svg>
