<svg width="159" height="32" viewBox="0 0 159 32" fill="none" xmlns="http://www.w3.org/2000/svg">
<path d="M64.498 1.28687H71.2908C78.6343 1.28687 81.4668 5.95522 81.4668 10.7285C81.4668 15.5018 78.6343 20.1701 71.2908 20.1701H64.498V15.1346H69.5336C72.5497 15.1346 75.2248 14.4789 75.2248 10.7285C75.2248 6.97807 72.5497 6.32239 69.5336 6.32239H64.498V1.28687Z" fill="#374554"/>
<path d="M83.2764 9.41684H88.8364V13.3771H88.9151C89.9904 10.7019 92.8754 8.83984 95.7078 8.83984C96.1275 8.83984 96.6258 8.91852 96.993 9.04965V14.5048C96.4684 14.3737 95.6029 14.295 94.8948 14.295C90.6199 14.295 89.1249 17.3898 89.1249 21.1402V30.7392H83.2764V9.41684Z" fill="#374554"/>
<path d="M101.74 21.4811C101.898 25.1791 103.707 26.8838 106.986 26.8838C109.346 26.8838 111.234 25.4414 111.602 24.13H116.768C115.116 29.1656 111.602 31.3162 106.802 31.3162C100.088 31.3162 95.918 26.7003 95.918 20.0911C95.918 13.6918 100.324 8.83984 106.802 8.83984C114.067 8.83984 117.555 14.9507 117.162 21.5074H101.74V21.4811ZM111.261 17.7832C110.736 14.8195 109.451 13.2459 106.592 13.2459C102.894 13.2459 101.819 16.1309 101.74 17.7832H111.261Z" fill="#374554"/>
<path d="M123.482 23.7894C123.534 26.3334 125.659 27.3825 127.967 27.3825C129.645 27.3825 131.796 26.7268 131.796 24.6549C131.796 22.8715 129.357 22.2683 125.16 21.3504C121.777 20.616 118.394 19.4096 118.394 15.6591C118.394 10.204 123.089 8.81396 127.678 8.81396C132.347 8.81396 136.622 10.3876 137.067 15.6067H131.507C131.35 13.3512 129.619 12.7217 127.521 12.7217C126.21 12.7217 124.269 12.9578 124.269 14.6888C124.269 16.7869 127.573 17.0754 130.904 17.8622C134.314 18.649 137.671 19.8817 137.671 23.8419C137.671 29.4544 132.792 31.2641 127.94 31.2641C122.984 31.2641 118.158 29.402 117.922 23.7632H123.482" fill="#374554"/>
<path d="M143.965 23.7894C144.018 26.3334 146.142 27.3825 148.45 27.3825C150.129 27.3825 152.279 26.7268 152.279 24.6549C152.279 22.8715 149.84 22.2683 145.644 21.3504C142.261 20.616 138.877 19.4096 138.877 15.6591C138.877 10.204 143.572 8.81396 148.162 8.81396C152.83 8.81396 157.105 10.3876 157.551 15.6067H152.017C151.86 13.3512 150.129 12.7217 148.004 12.7217C146.693 12.7217 144.752 12.9578 144.752 14.6888C144.752 16.7869 148.057 17.0754 151.388 17.8622C154.797 18.649 158.154 19.8817 158.154 23.8419C158.154 29.4544 153.302 31.2641 148.424 31.2641C143.467 31.2641 138.641 29.402 138.405 23.7632H143.965" fill="#374554"/>
<path d="M62.5313 1.2868H56.7876V30.7132H62.5313V1.2868ZM55.4501 1.2868H49.7064V30.7132H55.4501V1.2868ZM33.7868 17.6523C34.1277 14.7936 35.544 13.0626 38.2453 13.0626C40.0812 13.0626 42.3367 14.1379 42.6777 17.6523H33.7868ZM42.4416 24.3401C41.9958 25.8875 40.3435 26.7267 38.7437 26.7267C34.1015 26.7267 33.7868 23.0288 33.6294 21.4027H48.6049V20.3799C48.6049 10.4137 42.6514 8.36802 38.3503 8.36802C28.8037 8.36802 27.8858 16.7606 27.8858 19.3833C27.8858 28.3528 32.6066 31.3164 38.7437 31.3164C42.4678 31.3164 46.8215 29.5855 48.3426 24.3401H42.4416ZM27.0203 10.912C26.6794 6.55837 23.1387 0.5 14.3003 0.5C6.7208 0.5 0.767334 5.74534 0.767334 16.0525C0.767334 26.2284 6.37986 31.5 14.2217 31.5C21.5914 31.5 25.7876 27.0415 27.0203 20.6421H20.8832C20.1489 24.2614 17.7623 26.176 14.3528 26.176C9.13366 26.176 7.06175 21.4289 7.06175 16.1311C7.06175 7.81725 11.4154 5.85025 14.3528 5.85025C19.4408 5.85025 20.3849 9.18105 20.8832 10.9382H27.0203V10.912Z" fill="#374554"/>
</svg>
