<svg width="90" height="30" viewBox="0 0 90 30" fill="none" xmlns="http://www.w3.org/2000/svg">
<path d="M0.675049 14.9767C0.675049 6.70288 7.42446 -0.0116218 15.7332 1.51031e-05C23.9722 0.011652 30.6983 6.74943 30.6867 15.0233C30.6867 23.2971 23.9372 30.0116 15.6285 30C7.38955 30 0.675049 23.2506 0.675049 14.9767Z" fill="#374554"/>
<path d="M72.9168 18.3282C72.9168 19.9341 72.9052 21.54 72.9285 23.1459C72.9401 23.6114 72.7772 23.7394 72.335 23.7278C71.4506 23.6929 70.5546 23.6929 69.6585 23.7278C69.193 23.7394 69.065 23.5881 69.065 23.1343C69.0767 19.9574 69.065 16.7805 69.0883 13.6037C69.0883 13.0567 68.9603 12.8705 68.3901 12.8822C66.982 12.9171 67.0053 12.8938 66.9704 11.4508C66.9588 10.9621 67.0984 10.7177 67.5755 10.5897C68.0643 10.4617 68.6461 10.4268 68.9603 10.0544C69.2629 9.70529 69.0418 9.12344 69.0767 8.64633C69.2279 6.10948 70.508 4.77123 73.0449 4.49195C74.3947 4.34067 75.7097 4.48031 77.013 4.85269C77.3505 4.94579 77.5018 5.07379 77.3505 5.45781C77.1061 6.06293 76.8967 6.69133 76.6988 7.31972C76.5941 7.65719 76.4312 7.73865 76.0937 7.63392C75.5933 7.48264 75.0697 7.41282 74.546 7.41282C73.5336 7.41282 72.975 7.93648 72.9052 8.96052C72.8238 10.1009 72.8238 10.1009 73.9642 10.1009C74.5111 10.1009 75.0464 10.1126 75.5933 10.1009C75.9075 10.0893 76.0472 10.194 76.0355 10.5315C76.0239 11.1715 76.0123 11.8116 76.0355 12.4516C76.0472 12.824 75.8843 12.9171 75.5468 12.9054C74.9417 12.8938 74.3482 12.8938 73.7431 12.9054C72.8005 12.9171 72.8936 12.8123 72.8819 13.7317C72.9169 15.2677 72.9168 16.7922 72.9168 18.3282Z" fill="#374554"/>
<path d="M48.4911 14.6391C48.4911 11.8346 48.5028 9.01849 48.4795 6.214C48.4795 5.70197 48.6191 5.53906 49.1312 5.56233C49.9807 5.59724 50.8418 5.59724 51.6913 5.56233C52.2033 5.53906 52.3429 5.69034 52.3429 6.214C52.3197 10.7058 52.3313 15.1977 52.3313 19.6895C52.3313 20.6903 52.2266 20.574 53.239 20.574C55.1707 20.5856 57.1141 20.5856 59.0458 20.5623C59.5346 20.5507 59.6858 20.7136 59.6626 21.1907C59.6277 21.8889 59.6393 22.5871 59.6626 23.2854C59.6742 23.6112 59.5462 23.7276 59.2204 23.7276C55.7875 23.7159 52.3662 23.7159 48.9333 23.7276C48.4329 23.7276 48.4911 23.4366 48.4911 23.1224C48.4911 20.2947 48.4911 17.4669 48.4911 14.6391Z" fill="#374554"/>
<path d="M61.4081 16.92C61.4081 14.8486 61.4198 12.7773 61.3965 10.7059C61.3965 10.2753 61.4896 10.0891 61.9783 10.1008C62.886 10.1357 63.7937 10.1241 64.713 10.1008C65.097 10.0891 65.2599 10.1822 65.2599 10.6128C65.2483 14.8137 65.2483 19.0147 65.2599 23.2156C65.2599 23.5763 65.1668 23.7393 64.7712 23.7276C63.8286 23.7043 62.8744 23.7043 61.9201 23.7276C61.5012 23.7393 61.3965 23.5763 61.3965 23.1923C61.4081 21.0977 61.4081 19.0147 61.4081 16.92Z" fill="#374554"/>
<path d="M63.3166 8.36704C62.0016 8.36704 61.2917 7.6921 61.2917 6.43531C61.2917 5.19016 62.0016 4.52686 63.3282 4.52686C64.6665 4.52686 65.353 5.19016 65.353 6.44695C65.353 7.6921 64.6315 8.36704 63.3166 8.36704Z" fill="#374554"/>
<path d="M15.64 28.6036C8.15741 28.6036 2.05967 22.471 2.07131 14.9419C2.07131 7.47097 8.2156 1.38486 15.7447 1.3965C23.2156 1.40814 29.3017 7.55243 29.2901 15.0815C29.2784 22.5175 23.1341 28.6152 15.64 28.6036Z" fill="#FEFEFE"/>
<path d="M46.3849 14.7557C46.094 12.2305 44.4299 10.4268 41.9628 9.92642C41.2414 9.77514 40.5082 9.74023 39.7635 9.78678C37.1103 9.93806 35.132 11.3694 34.3174 13.8015C33.7006 15.6401 33.6425 17.537 34.1428 19.4105C34.6432 21.3306 35.8186 22.7503 37.7037 23.4252C40.2522 24.3329 42.8007 24.17 45.3143 23.2041C45.6168 23.0878 45.7099 22.9016 45.7099 22.5874C45.6867 21.9706 45.675 21.3422 45.7099 20.7255C45.7332 20.2484 45.6168 20.1553 45.163 20.3531C43.7433 20.9815 42.2421 21.2608 40.6828 21.1793C39.0653 21.0979 37.9248 20.0622 37.6805 18.4563C37.6106 18.0024 37.6921 17.7813 38.2274 17.793C39.4842 17.8279 40.7526 17.8046 42.0094 17.8046C43.3244 17.8046 44.651 17.793 45.9659 17.8046C46.3383 17.8046 46.4896 17.6882 46.478 17.3042C46.478 16.4547 46.4896 15.6052 46.3849 14.7557ZM42.3236 15.3492C41.6719 15.3027 41.0086 15.3376 40.3453 15.3376C39.6471 15.3376 38.9489 15.326 38.2507 15.3376C37.8783 15.3492 37.727 15.2329 37.7619 14.8372C37.8899 13.464 38.8791 12.4749 40.2173 12.44C41.6603 12.4051 42.6727 13.2546 42.8822 14.651C42.9753 15.1281 42.8822 15.3841 42.3236 15.3492Z" fill="#374554"/>
<path d="M89.6742 14.8022C89.4066 12.2653 87.7308 10.4151 85.2405 9.91469C84.5307 9.77504 83.8208 9.74013 83.0993 9.77504C80.4112 9.91469 78.398 11.3693 77.5834 13.848C76.99 15.6633 76.9434 17.5136 77.4089 19.3522C77.886 21.2141 78.9799 22.6222 80.772 23.3204C83.3786 24.3445 86.0086 24.1699 88.6036 23.1808C88.9178 23.0644 88.9993 22.8666 88.9876 22.5524C88.9643 21.9356 88.9527 21.3072 88.9876 20.6905C89.0109 20.1784 88.8596 20.1435 88.4291 20.3414C86.9861 20.9814 85.4733 21.2607 83.8907 21.1676C82.2964 21.0745 81.1327 19.9573 80.9465 18.3864C80.9 17.9791 80.9931 17.7812 81.4585 17.7929C82.7386 17.8162 84.0187 17.8045 85.2987 17.8045C86.6021 17.8045 87.8938 17.7929 89.1971 17.8162C89.6393 17.8278 89.7673 17.6765 89.7673 17.2459C89.7557 16.4314 89.7557 15.6168 89.6742 14.8022ZM85.6013 15.3491C84.9263 15.3026 84.2514 15.3375 83.5648 15.3375C82.8899 15.3375 82.2149 15.3259 81.5284 15.3375C81.156 15.3491 81.0047 15.2328 81.0513 14.8371C81.1793 13.4639 82.1684 12.4748 83.5066 12.4399C84.9496 12.405 85.962 13.2545 86.1715 14.6509C86.253 15.128 86.1599 15.384 85.6013 15.3491Z" fill="#374554"/>
<path d="M11.2295 20.807C12.4979 19.5269 13.7431 18.2352 15.0348 16.9901C15.8028 16.2569 16.9898 16.3268 17.7113 17.0599C18.4327 17.7814 18.5026 18.9683 17.7694 19.7364C16.5243 21.0281 15.221 22.2732 13.9525 23.5416C13.6849 23.4253 13.7547 23.2042 13.7663 22.9947C13.8594 21.5634 13.2776 20.9699 11.8346 21.0048C11.6135 20.9932 11.3575 21.0979 11.2295 20.807Z" fill="#374554"/>
<path d="M3.47947 14.9185C3.45619 14.197 3.60747 13.4987 3.65402 12.7773C3.73548 11.5088 4.46861 10.6826 5.39956 9.96113C6.20251 9.33273 7.28474 9.39092 7.99459 10.1008C8.69281 10.799 8.80918 11.9394 8.1226 12.6842C6.91236 13.9875 5.6323 15.2327 4.35224 16.4662C3.84021 16.9549 3.64239 16.8618 3.54929 16.1752C3.52602 16.024 3.50274 15.8727 3.49111 15.7098C3.47947 15.4654 3.47947 15.1861 3.47947 14.9185Z" fill="#374554"/>
<path d="M16.7224 6.9705C17.7348 5.93482 18.7589 4.91077 19.7713 3.86345C19.9691 3.66562 20.1553 3.65398 20.388 3.75871C21.3888 4.18928 22.3198 4.73621 23.1693 5.42279C23.3438 5.57407 23.5067 5.69044 23.2624 5.92318C21.9939 7.14506 20.8186 8.44839 19.5036 9.62372C19.2476 9.50735 19.3058 9.29788 19.3174 9.07678C19.4105 7.64544 18.6425 6.93559 17.2228 7.11014C17.0366 7.14506 16.8388 7.20324 16.7224 6.9705Z" fill="#374554"/>
<path d="M18.7008 10.4617C17.9211 11.3461 17.0832 12.184 16.2105 12.9637C15.4308 13.6619 14.302 13.5804 13.5805 12.8706C12.859 12.1607 12.7659 11.0203 13.4642 10.2406C14.2322 9.3795 15.0468 8.55327 15.9312 7.79688C16.1872 7.91324 16.1406 8.12271 16.129 8.34381C16.0359 9.74024 16.8272 10.4966 18.2004 10.3221C18.3866 10.2988 18.5728 10.2406 18.7008 10.4617Z" fill="#374554"/>
<path d="M15.6401 27.1023C15.0349 27.1139 14.4415 27.0673 13.848 26.9859C13.5105 26.9393 13.4872 26.8113 13.7083 26.5902C14.616 25.6942 15.5004 24.7632 16.4314 23.9021C17.1529 23.2388 18.1304 23.2504 18.8868 23.8206C19.5617 24.3327 19.8177 25.252 19.5268 26.0549C19.3988 26.3808 19.2126 26.6019 18.8402 26.695C17.8045 26.951 16.7339 27.1372 15.6401 27.1023Z" fill="#374554"/>
<path d="M27.789 14.8837C27.8006 16.0591 27.6377 17.1297 27.3701 18.1886C27.277 18.5261 27.0908 18.7123 26.7882 18.8403C25.9853 19.1661 25.066 18.9334 24.5307 18.2584C23.9954 17.5835 23.8906 16.5827 24.4608 15.9427C25.3685 14.907 26.3693 13.9644 27.3352 12.9869C27.533 12.7891 27.6261 12.8705 27.661 13.1149C27.7541 13.7317 27.8006 14.3484 27.789 14.8837Z" fill="#374554"/>
<path d="M6.60985 17.8743C7.36625 17.8859 7.95973 18.2001 8.32047 18.8634C8.69286 19.5267 8.68122 20.2133 8.26229 20.8417C7.79681 21.5399 7.12187 22.0403 6.55166 22.6454C6.38875 22.8083 6.28401 22.7152 6.17928 22.5756C5.44616 21.6679 4.85267 20.6788 4.41047 19.5965C4.36392 19.4918 4.2941 19.3754 4.3872 19.2707C5.01559 18.6539 5.55089 17.851 6.60985 17.8743Z" fill="#374554"/>
<path d="M18.7005 10.4617C17.2808 10.8806 16.2917 10.485 15.8844 9.34457C15.6982 8.8209 15.8262 8.30888 15.9193 7.79686C16.1404 7.48266 16.408 7.20337 16.7339 6.97063C17.1412 6.87754 17.5252 6.69135 17.9674 6.76117C19.1078 6.94736 19.7828 7.87831 19.6198 9.06528C19.5966 9.25147 19.55 9.43766 19.5151 9.63549C19.2824 9.94968 19.0147 10.229 18.7005 10.4617Z" fill="#374554"/>
<path d="M11.2298 20.8068C11.5323 20.7719 11.8349 20.7137 12.1491 20.702C13.5106 20.6788 14.3368 21.7261 14.0459 23.076C14.011 23.2273 13.9877 23.3785 13.9528 23.5298C13.6968 23.8906 13.3942 24.1815 13.0335 24.4375C11.6836 25.1124 10.4384 24.5888 10.0195 23.1807C9.8566 22.6221 10.0428 22.1683 10.3221 21.7261C10.5781 21.3653 10.869 21.0511 11.2298 20.8068Z" fill="#374554"/>
<path d="M24.6704 12.0559C23.6114 12.0676 22.7037 11.1715 22.7037 10.1009C22.6921 9.03032 23.5881 8.14591 24.6471 8.13428C25.7177 8.13428 26.6021 9.00705 26.6137 10.0776C26.6254 11.1599 25.741 12.0559 24.6704 12.0559Z" fill="#374554"/>
<path d="M10.7643 13.7085C11.8582 13.7085 12.7426 14.5813 12.7309 15.6519C12.7309 16.7108 11.8698 17.572 10.8108 17.5836C9.70532 17.5952 8.83255 16.7574 8.82092 15.6635C8.80928 14.5929 9.67041 13.7085 10.7643 13.7085Z" fill="#374554"/>
<path d="M12.7425 7.3315C12.7425 8.40209 11.8232 9.29813 10.7642 9.2865C9.69361 9.27486 8.80921 8.36718 8.83248 7.29659C8.85575 6.24926 9.72852 5.37649 10.7758 5.36486C11.8348 5.35322 12.7425 6.2609 12.7425 7.3315Z" fill="#374554"/>
<path d="M23.8326 21.2258C23.821 22.3196 22.9482 23.1575 21.8543 23.1458C20.7605 23.1342 19.9342 22.2731 19.9575 21.1559C19.9808 20.0621 20.7837 19.2708 21.8892 19.2708C22.9947 19.2824 23.8326 20.1202 23.8326 21.2258Z" fill="#374554"/>
<path d="M22.436 14.2436C22.4477 15.3374 21.5982 16.1986 20.4927 16.2102C19.4104 16.2102 18.5726 15.3956 18.5493 14.3134C18.526 13.2079 19.3639 12.3351 20.4578 12.3235C21.5633 12.3002 22.4244 13.1497 22.436 14.2436Z" fill="#374554"/>
<path d="M17.7931 3.07226C17.1763 3.67738 16.6643 4.31741 16.001 4.78288C14.8955 5.55092 13.3827 4.93417 13.0452 3.64247C12.9521 3.29336 12.9754 3.07226 13.4292 2.9908C14.7791 2.74643 16.1173 2.72315 17.4672 2.94425C17.5603 2.95589 17.6418 3.00244 17.7931 3.07226Z" fill="#374554"/>
<path d="M10.322 21.7261C10.2871 22.0519 10.2173 22.3777 10.2289 22.7036C10.2987 23.8556 11.253 24.6469 12.405 24.5306C12.6145 24.5073 12.824 24.4724 13.0334 24.4491C12.7425 24.8448 12.3934 25.1706 12.021 25.4848C11.2297 26.1481 10.1126 26.0899 9.39107 25.3801C8.66958 24.6586 8.61139 23.5531 9.2747 22.7501C9.58889 22.3661 9.92636 22.0054 10.322 21.7261Z" fill="#374554"/>
</svg>
