<svg width="110" height="30" viewBox="0 0 110 30" fill="none" xmlns="http://www.w3.org/2000/svg">
<path d="M13.4096 20.1628C13.4096 23.7907 12.6422 25.814 9.29334 25.814C6.15381 25.814 5.24683 23.8605 5.24683 20.5814V19.0465H0.153809V20.5814C0.153809 25.9535 2.66544 30 8.87474 30C17.3166 30 18.5026 24.9767 18.5026 19.8837V0H13.4096V20.1628Z" fill="#374554"/>
<path d="M30.1537 0L18.9211 29.3023H24.2235L26.9444 21.5581H38.6653L41.3863 29.3023H46.8979L35.5956 0H30.1537ZM28.3397 17.6512L32.8049 5.02326H32.9444L37.3397 17.6512H28.3397Z" fill="#374554"/>
<path d="M64.2001 22.9535H64.1303L56.0373 0H48.7815V29.3023H53.6652V6.69768H53.735L61.8978 29.3023H66.1536L74.3164 6.69768H74.3861V29.3023H79.2699V0H72.1536L64.2001 22.9535Z" fill="#374554"/>
<path d="M92.3864 0L81.1538 29.3023H86.4561L89.1771 21.5581H100.898L103.619 29.3023H109.131L97.898 0H92.3864ZM90.5724 17.6512L95.0375 5.02326H95.1771L99.5724 17.6512H90.5724Z" fill="#374554"/>
<path d="M104.247 4.3257C105.363 4.3257 106.27 3.41872 106.27 2.30244V2.23267C106.27 1.11639 105.433 0.139648 104.247 0.139648C103.131 0.139648 102.154 0.976858 102.154 2.1629C102.154 2.23267 102.154 2.23267 102.154 2.30244C102.084 3.41872 102.991 4.3257 104.107 4.39546C104.177 4.3257 104.177 4.3257 104.247 4.3257ZM104.247 0.488486C105.154 0.488486 105.852 1.25593 105.852 2.1629V2.23267C105.921 3.13965 105.224 3.90709 104.386 3.97686C103.479 4.04663 102.712 3.34895 102.642 2.51174C102.642 2.44197 102.642 2.37221 102.642 2.30244C102.573 1.39546 103.27 0.628021 104.177 0.558253C104.177 0.488486 104.247 0.488486 104.247 0.488486Z" fill="#374554"/>
<path d="M103.828 2.44198H104.177L104.805 3.41872H105.224L104.596 2.37221C104.945 2.37221 105.224 2.09314 105.224 1.81407C105.224 1.81407 105.224 1.81407 105.224 1.74431C105.224 1.25593 104.945 1.04663 104.386 1.04663H103.479V3.34896H103.828V2.44198ZM103.828 1.39547H104.317C104.526 1.39547 104.805 1.39547 104.805 1.74431C104.805 2.09314 104.526 2.09314 104.247 2.09314H103.828V1.39547Z" fill="#374554"/>
</svg>
