<svg width="147" height="41" viewBox="0 0 147 41" fill="none" xmlns="http://www.w3.org/2000/svg">
<g clip-path="url(#clip0)">
<path d="M8.42778 6.64253C5.61861 5.68474 4.09123 4.95539 4.09123 2.99427C4.09123 1.46464 5.49021 0.637493 6.9646 0.637493C9.68493 0.637493 11.29 2.59264 11.8984 5.68997H12.471V0.315742H11.9909L11.1518 1.99542H11.075C10.3172 1.00702 8.88167 0.0231056 6.98774 0.0231056C4.06361 0.0231056 1.77551 2.0865 1.77551 4.72471C1.77551 7.99747 4.10914 9.31583 7.0706 10.2841C9.832 11.1799 11.0817 12.1974 11.0817 13.836C11.0817 15.9002 10.0291 16.8759 7.67678 16.8759C6.27929 16.8759 4.93405 16.322 3.96506 15.1917C3.05207 14.1272 2.52203 12.7148 2.23462 11.0343H1.66577V17.2439H2.11145L3.16852 15.3798H3.24467C4.16588 16.5101 5.68953 17.5015 7.67454 17.5015C11.2683 17.5015 13.4541 15.1813 13.4541 12.1653C13.4541 9.1501 11.3698 7.65482 8.42778 6.64253Z" fill="#374554"/>
<path d="M144.111 2.26515C143.296 1.08788 141.94 -0.0012989 139.775 -0.0012989C134.883 -0.0012989 131.592 4.03814 131.592 8.792C131.592 13.5384 134.726 17.5928 139.747 17.5928C142.975 17.5928 145.342 15.9079 146.064 12.0401L145.453 11.8804C144.782 15.0315 143.098 16.8993 140.16 16.8993C137.107 16.8993 135.495 14.3402 135.495 8.792C135.495 3.26176 136.986 0.636978 139.84 0.636978C142.637 0.636978 144.387 2.68768 145.174 6.78012H145.807V0.292086H145.408L144.161 2.26515" fill="#374554"/>
<path d="M28.1604 2.20491C27.3452 1.02913 26.0619 -0.000322342 23.8993 -0.000322342C19.0073 -0.000322342 15.7136 4.03837 15.7136 8.79298C15.7136 13.5386 18.8505 17.5938 23.8709 17.5938C27.0981 17.5938 29.4653 15.9088 30.1872 12.0419L29.5766 11.9381C28.8039 15.0317 27.3564 16.8995 24.2822 16.8995C21.2319 16.8995 19.6172 14.3404 19.6172 8.79298C19.6172 3.26199 21.1558 0.638702 23.8724 0.638702C26.6681 0.638702 28.4187 2.68642 29.2041 6.78035H29.7475V0.292315H29.2563L28.2104 2.20491" fill="#374554"/>
<path d="M40.1361 16.6403H37.6494V0.873695H40.1361V0.282448H31.678V0.873695H34.1661V16.6403H31.678V17.2532H40.1361" fill="#374554"/>
<path d="M95.5864 16.6403V17.2532H104.045V16.6403H101.557V0.873695H104.045V0.282448H95.5864V0.873695H98.0753V16.6403" fill="#374554"/>
<path d="M121.738 0.873695H124.225V16.6403H121.738V17.2532H130.196V16.6403H127.708V0.873695H130.196V0.282448H121.738" fill="#374554"/>
<path d="M57.5772 10.9311H57.1898C56.6597 12.7258 55.9453 14.2561 55.0271 15.3281C54.0783 16.4315 53.1503 16.6301 51.3855 16.6301L48.7003 16.6331V9.03047H49.9604C50.9414 9.03047 51.6506 9.22233 52.1254 9.73743C52.7218 10.3011 53.116 11.385 53.1324 12.5526H53.5885V4.88876H53.1324C53.116 6.06826 52.6181 7.14027 52.1142 7.70688C51.6565 8.22124 50.9533 8.40936 49.9604 8.40936H48.7003V0.879925H51.7043C53.1108 0.879925 54.0648 1.2293 54.6605 1.80935C55.6542 2.64769 56.291 3.88244 56.9113 6.10484H57.304V0.282705H42.7236V0.879925H45.2133V16.6368L42.7236 16.6398V17.2527H57.5772" fill="#374554"/>
<path d="M63.4254 2.84279L73.9663 17.2522H74.9666V2.33516C74.9666 1.37737 75.3735 0.879436 76.2141 0.879436H77.3055V0.282217H71.8267V0.879436H72.9562C73.8058 0.879436 74.2029 1.38558 74.2029 2.33516V11.9758H74.132L65.75 0.282217H59.5449V0.879436H60.2429C61.1343 0.879436 61.677 1.10712 62.1018 1.59461C62.4788 1.96787 62.6191 2.32023 62.6191 2.68155V15.1015C62.6191 16.0242 62.2391 16.6348 61.3747 16.6348L60.1392 16.6333V17.2522H65.9426V16.6333L64.6168 16.6348C63.7777 16.6296 63.3821 15.9801 63.3821 15.1015V2.84279" fill="#374554"/>
<path d="M81.1963 1.93103C81.7876 1.34426 82.4968 0.916506 83.6397 0.916506H84.2847V16.6405H81.7293V17.2527H90.3159V16.6405H87.7657V0.916506H88.3264C89.4745 0.916506 90.2785 1.30171 90.8519 1.90266C91.8246 2.82537 92.4046 4.23854 92.9339 6.33925H93.5095V0.28196H78.5581V6.28476H79.1284C79.6592 4.18404 80.2497 2.87464 81.1963 1.93103Z" fill="#374554"/>
<path d="M106.164 16.6403V17.2532H114.667V16.6403H112.143V8.92271H113.199C113.996 8.92271 114.697 9.15115 115.155 9.64535C115.847 10.2635 116.202 11.49 116.221 12.4792H116.856V4.75637H116.221C116.202 5.72237 115.822 6.84887 115.243 7.48267C114.732 8.04406 113.996 8.30235 113.199 8.30235H112.143V0.870708H114.589C116.058 0.870708 116.946 1.22531 117.681 1.95093C118.431 2.68999 119.138 3.95833 119.786 6.13519H120.327V0.282448H106.164V0.866978H108.65V16.6403" fill="#374554"/>
<path d="M101.566 39.434C100.599 39.434 99.7484 39.2817 98.8286 38.7845C97.1378 37.7117 96.3345 35.2295 96.3345 31.3267C96.3345 27.2634 97.1236 25.0104 98.5494 23.9294C99.29 23.3994 100.33 23.1702 101.218 23.1702C103.936 23.1702 106.673 24.9835 107.403 29.3148H108V22.8268H107.508L106.296 24.8887H106.246C105.432 23.7107 103.353 22.5312 101.188 22.5312C96.2964 22.5312 92.4302 26.5699 92.4302 31.3267C92.4302 36.0739 96.0598 40.1252 101.456 40.1252C104.684 40.1252 107.533 38.4426 108.256 34.5733L107.617 34.4128C106.946 37.5677 104.924 39.434 101.566 39.434Z" fill="#374554"/>
<path d="M81.7302 23.5179H84.2848V39.2845H81.7302V39.8765H90.3167V39.2845H87.7666V23.5179H90.3167V22.9237H81.7302" fill="#374554"/>
<path d="M139.531 23.5196H140.928C141.777 23.5196 142.175 24.0265 142.175 24.9783V34.7152H142.103L133.085 22.9246H126.972V23.5218L127.671 23.5204C128.561 23.5204 129.043 23.7921 129.434 24.2012C129.811 24.5744 129.954 24.9604 129.954 25.3195V37.7431C129.954 38.6651 129.576 39.2742 128.713 39.2742H127.301V39.873H133.363V39.2742H131.952C131.115 39.269 130.717 38.6225 130.717 37.7431V25.4845H130.761L141.938 40.0327H142.938V24.9783C142.938 24.0168 143.344 23.5196 144.186 23.5196H145.544V22.9246H139.531" fill="#374554"/>
<path d="M55.4472 37.8079C54.4924 38.9061 53.4211 39.2719 51.6549 39.2719L48.7136 39.2741V31.6685H50.0006C50.9815 31.6685 51.6907 31.8611 52.1655 32.377C52.7612 32.9399 53.1569 34.038 53.1733 35.2056H53.8131V27.5149H53.1733C53.1569 28.6959 52.6664 29.7873 52.1558 30.3472C51.7056 30.866 50.9934 31.0482 50.0006 31.0482H48.7136V23.5165H51.8676C53.2733 23.5165 54.2983 23.8815 54.8933 24.4608C55.8877 25.2992 56.5588 26.5332 57.1687 28.7451H57.7323V22.9237H42.6555V23.5165H45.2251V39.2771L42.6555 39.2786V39.8713H58.078V33.5893H57.6972C57.1985 35.3489 56.3953 36.7225 55.4472 37.8079Z" fill="#374554"/>
<path d="M29.909 34.5947H29.7568L25.0462 22.9236H18.3618V23.5178H21.0874V37.6704C21.0874 38.6558 20.6716 39.262 19.8205 39.268H18.385V39.8756H24.5348V39.268H23.0881C22.2587 39.262 21.8503 38.6133 21.8503 37.6704V24.2658H21.9212L28.1174 39.9324H28.7131L34.2896 24.2658H34.3553V39.2822H31.8336V39.8756H40.4067V39.2822H37.8304V23.5178H40.4119V22.9236H34.0702" fill="#374554"/>
<path d="M77.9332 39.0228C77.2838 39.0228 76.9254 38.8048 76.7022 38.0344C76.5544 37.5201 76.4544 36.4398 76.3618 35.4626C76.1147 32.8528 74.3843 31.7382 72.0155 31.3485V31.2896C74.9703 31.0402 76.8799 29.4904 76.8799 27.0844C76.8799 24.4701 74.9673 22.924 70.6972 22.924H61.3186V23.5153L63.8807 23.5183V39.2818H61.3186V39.8753H69.8402V39.2818H67.3692V31.4643H70.0455C71.6468 31.4643 72.6284 32.154 72.7076 34.0532C72.7218 34.2092 72.7934 36.0852 72.8091 36.2405C72.93 38.9631 74.3738 40.1807 76.4312 40.1807C79.012 40.1822 80.0228 38.9922 80.0467 36.4727L79.4039 36.4607C79.3778 38.2337 78.8343 39.0228 77.9332 39.0228ZM67.3692 23.5183L69.9723 23.5197C70.7487 23.5197 71.5311 23.684 71.97 23.9363C72.9592 24.5007 73.3085 25.6227 73.3085 27.0993C73.3085 28.5536 72.9644 29.7689 72.079 30.3713C71.6423 30.6856 70.8935 30.8252 70.1515 30.8252H67.3692" fill="#374554"/>
<path d="M15.024 37.9771L9.46909 22.9025H8.35304L2.91685 37.4239C2.46296 38.593 2.10015 39.2701 1.04457 39.2701H0.236084V39.8755H5.52222V39.2701H4.38078C3.3043 39.2701 3.30056 38.4257 3.70817 37.3455L4.73613 34.5431H10.0715L11.3264 38.0734C11.5653 38.7826 11.6631 39.2701 10.827 39.2701H9.52135V39.8755H17.4554V39.2693L16.3453 39.2701C15.5913 39.2701 15.3405 38.8453 15.024 37.9771ZM4.96904 33.9152L7.41167 27.2861H7.48931L9.84758 33.9152" fill="#374554"/>
<path d="M123.627 37.9771L118.072 22.9025H116.954L111.518 37.4239C111.065 38.593 110.693 39.2626 109.645 39.2701H108.839V39.8755H114.123V39.2701H112.979C111.901 39.2648 111.903 38.4257 112.308 37.3455L113.339 34.5431H118.673L119.928 38.0734C120.168 38.7826 120.245 39.2656 119.429 39.2701H118.122V39.8755H126.056V39.2701H124.946C124.194 39.2656 123.942 38.8453 123.627 37.9771ZM113.571 33.9152L116.013 27.2861H116.09L118.449 33.9152" fill="#374554"/>
</g>
<defs>
<clipPath id="clip0">
<rect width="145.77" height="40.1822" fill="white" transform="translate(0.293945)"/>
</clipPath>
</defs>
</svg>
