<svg width="273" height="30" viewBox="0 0 273 30" fill="none" xmlns="http://www.w3.org/2000/svg">
<g clip-path="url(#clip0)">
<path d="M37.0334 15.1525V26.079C37.0334 27.48 37.7131 28.5624 38.494 29.3487H31.2241C31.9842 28.5624 32.6462 27.48 32.6462 26.079V4.38707C32.6462 2.98502 32.0249 1.8249 31.2241 0.991699H38.494C37.6723 1.8249 37.0334 3.08982 37.0334 4.38707V13.3448H51.994V4.38707C51.994 2.93862 51.4604 1.8249 50.6121 0.991699H57.7688C56.9184 1.8249 56.3833 3.01422 56.3833 4.38707V26.079C56.3833 27.4008 56.9748 28.5624 57.7891 29.3487H50.5704C51.4197 28.5624 51.9945 27.4013 51.9945 25.9997V15.1525H37.0334Z" fill="#374554"/>
<path d="M83.3403 29.3482H64.49C65.3049 28.5619 65.9115 27.4524 65.9115 26.0785V4.38707C65.9115 3.09035 65.3159 1.8249 64.5453 0.991699H83.9996L82.8632 3.93762C81.9172 3.07418 80.977 2.79627 79.4584 2.79627H70.2982V13.3333C72.9517 13.3333 75.7655 13.3291 78.8508 13.3291C79.9022 13.3291 80.976 13.1857 82.1563 12.7916L80.8194 16.0112C79.9554 15.226 79.0669 15.1321 77.5107 15.1321H70.2982V27.4894C72.118 27.4894 72.781 27.5045 74.6348 27.5045C75.5118 27.5045 82.2336 27.4826 84.9837 25.5195L83.3403 29.3482Z" fill="#374554"/>
<path d="M240.91 29.3482H222.059C222.87 28.5619 223.48 27.4524 223.48 26.0785V4.38707C223.48 3.09035 222.891 1.8249 222.116 0.991699H241.567L240.43 3.93762C239.49 3.07418 238.55 2.79627 237.026 2.79627H227.868V13.3333C230.519 13.3333 233.334 13.3291 236.418 13.3291C237.469 13.3291 238.547 13.1857 239.722 12.7916L238.387 16.0112C237.523 15.226 236.636 15.1321 235.079 15.1321H227.868V27.4894C229.689 27.4894 230.35 27.5045 232.206 27.5045C233.078 27.5045 239.803 27.4826 242.553 25.5195L240.91 29.3482Z" fill="#374554"/>
<path d="M107.555 4.3537V13.3338V15.1327V27.4899C109.422 27.4899 110.539 27.505 112.394 27.505C113.27 27.505 119.662 27.406 122.569 25.2833L120.839 29.3482H101.743C102.557 28.5619 103.165 27.4247 103.165 26.0529V4.38707C103.165 3.09035 102.574 1.8249 101.803 0.991699C102.071 0.991699 108.872 0.991699 109.037 0.991699C108.236 1.85775 107.555 3.11433 107.555 4.3537Z" fill="#374554"/>
<path d="M133.416 19.8211C132.923 21.0042 131.033 26.1217 131.033 26.1217C130.575 27.3059 130.582 28.1907 131.045 29.3482H126.135C127.277 28.1651 128.161 26.944 128.572 25.9992L137.545 4.2171C138.252 2.59084 137.346 1.267 136.747 0.991699H142.623L153.25 26.0785C153.655 27.0118 154.294 28.1902 155.605 29.3482H148.721C149.208 28.2183 149.254 27.3027 148.746 26.1217C148.746 26.1217 146.341 20.5839 146.036 19.8211H133.416ZM145.334 18.0082L139.557 4.47206L134.138 18.0082H145.334Z" fill="#374554"/>
<path d="M185.011 4.38707V29.3482H183.754L163.459 5.76149V26.079C163.459 27.4008 164.067 28.5624 164.92 29.3487H160.017C160.834 28.5624 161.402 27.4013 161.402 26.079V4.56435C161.402 3.33749 161.125 2.86458 160.33 1.98028C159.928 1.53448 159.466 1.194 159.187 0.991699H164.886L182.974 22.1607V4.38707C182.974 2.98502 182.418 1.8249 181.625 0.991699H186.376C185.546 1.74669 185.033 2.98502 185.011 4.38707Z" fill="#374554"/>
<path d="M211.418 29.519C209.769 29.7484 209.191 29.8537 207.132 29.8537C197.626 29.8537 191.351 23.3038 191.351 15.3274C191.351 6.44949 198.179 0.53418 207.199 0.53418C208.594 0.53418 209.706 0.604569 210.692 0.713542C211.979 0.858492 213.005 1.04203 214.22 1.29699L215.495 4.98644C214.07 3.62506 211.243 2.16408 207.193 2.16408C199.792 2.16408 196.296 8.33332 196.296 15.305C196.296 22.504 200.055 28.205 207.474 28.205C210.414 28.205 213.88 27.1643 215.932 24.9463C215.05 27.1721 214.637 28.3036 214.418 28.9063C213.579 29.129 212.85 29.3203 211.418 29.519Z" fill="#374554"/>
<path d="M24.8008 2.79767L15.4239 2.7862L15.4437 26.7608C15.4437 28.0169 16.3301 28.9314 16.9054 29.3496H9.66057C10.346 28.8563 11.0435 28.0581 11.0435 26.7608L11.0372 2.79454H4.37388C3.18833 2.79454 1.81797 3.11572 0.759277 3.66528L1.95631 0.993091H22.3357C23.9081 0.993091 25.0231 0.813729 26.0166 0.329346L24.8008 2.79767Z" fill="#374554"/>
<path d="M271.076 2.79596L261.698 2.78449L261.718 26.7591C261.718 28.0152 262.633 28.9297 263.205 29.3479H255.986C256.674 28.8546 257.32 28.0564 257.32 26.7591L257.311 2.79231H250.646C249.462 2.79231 248.09 3.11349 247.031 3.66357L248.232 0.991382H268.608C270.179 0.991382 271.293 0.81202 272.294 0.327637L271.076 2.79596Z" fill="#374554"/>
</g>
<defs>
<clipPath id="clip0">
<rect width="271.535" height="29.671" fill="white" transform="translate(0.758789 0.255615)"/>
</clipPath>
</defs>
</svg>
