<svg width="145" height="36" viewBox="0 0 145 36" fill="none" xmlns="http://www.w3.org/2000/svg">
<path d="M9.30212 6.60695L9.39072 12.6558H9.5679C10.8082 9.23689 13.9089 6.43162 18.4271 6.43162C24.2741 6.43162 26.0459 9.32455 26.0459 14.8474V25.7178C26.0459 29.0491 26.2231 32.468 27.0205 35.0102H17.5411C18.3385 32.5556 18.4271 29.575 18.4271 25.9808V15.6364C18.4271 13.0941 17.4526 11.9545 14.6176 11.9545C12.4914 11.9545 10.8968 12.5681 9.65649 13.6201V26.0685C9.65649 29.6627 9.74508 32.6433 10.5424 35.0979H1.15169C2.03761 32.5556 2.1262 29.0491 2.1262 25.8055V15.6364C2.1262 12.9188 1.15169 10.4642 0 9.23689L9.30212 6.60695ZM43.3213 29.6627V19.4936C42.7012 20.3703 41.9924 20.8963 39.9548 21.7729C37.2971 23.0879 36.3226 24.4905 36.3226 27.3834C36.3226 29.838 37.74 31.416 39.8662 31.416C41.9924 31.5037 42.7012 30.7147 43.3213 29.6627ZM40.8408 6.51929C48.1053 6.51929 50.8516 9.41222 50.8516 15.2857V27.5588C50.8516 29.7504 51.7375 30.4517 53.5094 30.4517C53.7751 30.4517 54.7496 30.2764 55.0154 30.0134C54.8382 30.89 54.7496 31.3283 54.5725 31.7667C53.6865 34.2213 52.1805 35.6239 49.1684 35.6239C45.5361 35.6239 43.7643 33.0816 43.6757 30.5394H43.5871C42.3468 34.1336 40.0434 35.6239 36.3226 35.6239C31.8044 35.6239 28.8809 32.9063 28.8809 28.6984C28.8809 24.2275 32.9561 22.2989 37.2085 20.7209C41.2837 19.143 43.4099 18.0033 43.4099 15.1104V14.4968C43.4099 11.3408 42.4354 9.76287 39.4233 9.76287C37.5629 9.76287 36.8541 10.6395 36.4998 12.3928C35.8796 15.1104 34.8165 16.0747 33.0447 16.0747C31.45 16.0747 29.944 15.0227 29.944 13.0065C29.7668 9.14922 35.2595 6.51929 40.8408 6.51929ZM71.4935 31.942C70.519 34.1336 68.127 35.6239 64.7605 35.6239C59.002 35.6239 56.6987 32.731 56.6987 27.4711V10.9902H53.9523V10.8148L63.9632 0.558105L64.1404 0.64577V7.13294H71.4049L70.6961 11.0778H64.229V26.3315C64.229 29.2244 65.4692 30.4517 68.127 30.4517C70.1646 30.4517 71.2277 30.1887 72.2022 29.6627C71.9364 30.627 71.8478 31.153 71.4935 31.942ZM81.8587 6.95761V26.2438C81.8587 29.1367 83.0104 30.7147 85.8453 30.7147C88.2373 30.7147 90.0091 29.9257 91.0722 28.6107V15.5487C91.0722 12.6558 90.8064 10.2889 89.8319 7.83426L98.5139 6.95761V26.6821C98.5139 31.0653 98.9569 32.994 99.6656 35.0979H91.1608V29.4874H91.0722C89.8319 33.0816 87.5286 35.6239 82.656 35.6239C76.5432 35.6239 74.2398 31.942 74.2398 26.5068V15.5487C74.2398 12.6558 73.974 10.2889 72.9995 7.83426L81.8587 6.95761ZM110.385 13.6201C111.625 8.44791 114.017 6.43162 117.207 6.43162C120.13 6.43162 121.636 7.92192 121.636 10.2889C121.636 12.3928 120.396 14.1461 118.181 14.1461C116.852 14.1461 116.055 13.5324 115.524 13.0065C114.903 12.3928 114.46 11.7792 113.752 11.7792C112.246 11.7792 110.562 14.3214 110.562 18.5293V25.5425C110.562 28.9614 110.828 32.3803 111.537 35.0102H102.146C103.032 32.468 103.121 28.9614 103.121 25.7178V15.6364C103.121 12.9188 102.146 10.4642 100.994 9.23689L110.208 6.60695L110.297 6.69462V13.7078L110.385 13.6201ZM128.192 17.7403L137.671 16.8637C137.583 12.3928 136.874 9.76287 133.773 9.76287C130.584 9.85054 128.724 12.3928 128.192 17.7403ZM133.862 35.6239C126.597 35.6239 120.662 30.89 120.662 21.7729C120.662 12.5681 126.332 6.34396 134.039 6.34396C141.304 6.34396 144.759 10.9025 144.759 19.5813H128.192V20.4579C128.192 27.3834 131.824 30.1887 136.786 30.1887C141.304 30.1887 143.253 28.4354 144.582 27.1204L144.759 27.5588C143.518 31.7667 140.152 35.6239 133.862 35.6239Z" fill="#374554"/>
</svg>
