<svg width="123" height="28" viewBox="0 0 123 28" fill="none" xmlns="http://www.w3.org/2000/svg">
<path d="M15.6668 9.18113C15.8163 8.58291 15.8283 8.54851 16.2919 8.60983C16.5155 8.62403 16.7398 8.62403 16.9634 8.60983C17.611 8.60983 17.7336 8.48869 17.8279 7.86205C18.1524 5.74134 18.812 3.78515 20.9686 2.77714C21.9736 2.318 23.0309 2.32697 24.0509 2.50943C25.3476 2.74274 25.8456 4.27868 24.9213 5.14611C24.6222 5.43176 24.0075 5.57384 23.5933 5.49607C23.2627 5.43475 22.995 4.99356 22.7363 4.62565C22.6107 4.44917 22.4865 4.06182 22.4237 4.07528C22.156 4.12613 21.9481 4.09622 21.676 4.42973C21.1884 5.04441 21.1286 5.90884 20.9431 6.67308C20.7936 7.2713 20.7771 7.89046 20.6859 8.61731H23.8565C23.7847 9.16917 23.7279 9.60288 23.6576 10.1368H20.6186C20.4586 12.081 20.3195 13.94 20.152 15.7915C19.962 17.8704 19.8858 19.9791 19.4969 22.0146C19.0482 24.3237 18.1255 26.4609 15.4918 27.0561C14.7051 27.2341 13.7824 27.3088 13.0002 27.0202C12.7519 26.9275 12.2763 26.5985 12.1746 26.3517C12.076 26.094 12.0296 25.8194 12.0381 25.5436C12.0466 25.2679 12.1098 24.9966 12.224 24.7455C12.5231 24.1323 13.054 24.2011 13.5865 24.2459C14.4838 24.3237 14.4673 25.0356 14.5227 25.9584C14.9578 25.8157 15.3391 25.5439 15.6159 25.1792C15.9659 24.7305 16.1902 23.8466 16.2695 23.1497C16.5776 20.4442 16.8154 17.7298 17.0636 15.0168C17.1893 13.6349 17.2371 12.2425 17.4091 10.8666C17.4839 10.2684 17.2596 10.1697 16.7825 10.1802C16.3861 10.1906 15.9913 10.1802 15.4933 10.1802C15.5531 9.82273 15.6114 9.50118 15.6668 9.17366V9.18113Z" fill="#1A2530"/>
<path d="M111.758 17.3482C111.635 18.5955 110.959 19.4943 110.045 20.0896C107.322 21.8603 103.736 21.6868 101.521 19.3792C100.712 18.5262 100.213 17.4257 100.106 16.2549C99.898 14.3436 99.8187 12.3964 100.991 10.7214C103.06 7.76313 106.348 7.38774 109.085 8.82348C110.81 9.73129 111.81 11.3959 111.856 13.4672C111.87 14.0355 111.856 14.6053 111.856 15.2514H102.524C102.216 17.592 103.795 18.9903 105.701 19.1309C107.169 19.2356 108.53 18.9978 109.366 17.5561C109.44 17.4304 109.698 17.3631 109.873 17.3557C110.472 17.3377 111.068 17.3482 111.758 17.3482ZM102.464 13.4433H109.656C109.589 10.6017 107.748 9.89132 105.983 9.92123C103.914 9.95563 102.422 11.4886 102.464 13.4433Z" fill="#1A2530"/>
<path d="M38.5177 15.1289H28.9625C28.6724 17.0821 29.9406 18.7631 31.8968 19.0069C33.5045 19.2073 34.9687 18.962 35.9169 17.4231C35.9714 17.3614 36.038 17.3117 36.1127 17.2769C36.1873 17.2422 36.2683 17.2232 36.3506 17.2212C36.9713 17.1988 37.5919 17.2107 38.3023 17.2107C38.2036 17.8172 37.9767 18.3957 37.6368 18.9076C37.2969 19.4195 36.8518 19.8531 36.3311 20.1794C35.1249 20.9802 33.6866 21.3571 32.2426 21.2507C30.7987 21.1443 29.4311 20.5606 28.3553 19.5917C26.8598 18.2307 26.456 16.3882 26.5083 14.4395C26.5302 13.7699 26.6184 13.1041 26.7715 12.4519C27.4146 9.64768 29.9122 7.92629 32.8285 8.00555C35.8092 8.08033 37.7893 10.213 38.1946 12.2111C38.3801 13.1264 38.4055 14.0745 38.5177 15.1289ZM28.8847 13.4135H36.1307C36.0605 10.9683 34.7743 9.82416 32.2184 9.89146C31.312 9.92462 30.4549 10.3122 29.8315 10.9709C29.208 11.6296 28.8681 12.5067 28.8847 13.4135Z" fill="#1A2530"/>
<path d="M64.5476 15.1724H54.9626C54.7921 17.2976 56.1829 18.8051 57.9612 19.004C59.5779 19.1865 61.1019 19.0459 62.0321 17.3978C62.0919 17.2901 62.3103 17.2243 62.4568 17.2198C63.076 17.2004 63.6967 17.2109 64.3622 17.2109C64.2665 18.5987 63.4289 19.5066 62.4179 20.1646C59.1606 22.3018 53.8559 21.37 52.8464 16.6351C52.2048 13.6081 52.8464 10.6334 55.4352 8.90152C57.514 7.51215 61.6971 7.56748 63.6069 10.5631C64.5087 11.9555 64.7002 13.2521 64.5476 15.1724ZM62.4239 13.4391C62.2893 12.8588 62.1831 12.3623 62.059 11.8687C61.6597 10.2864 59.0918 9.49825 57.4003 10.1578C55.9945 10.7067 54.9102 12.0826 54.9461 13.4391H62.4239Z" fill="#1A2530"/>
<path d="M68.9609 8.404H71.4406V10.4694C71.6903 10.1299 71.8264 9.94891 71.958 9.76496C73.5359 7.58892 76.8934 7.67117 78.4907 8.739C79.0241 9.08989 79.4642 9.56528 79.7729 10.1242C80.0817 10.683 80.2498 11.3086 80.2629 11.947C80.3691 14.8753 80.2973 17.8096 80.2973 20.7798H77.9911C77.9911 20.524 77.9911 20.2623 77.9911 20.0021C77.9567 17.7109 77.9657 15.4197 77.867 13.1315C77.8177 11.9948 77.4183 10.9405 76.3356 10.3318C74.3913 9.2445 71.9326 10.3916 71.4914 12.599C71.39 13.135 71.3399 13.6793 71.3419 14.2247C71.3239 16.3873 71.3344 18.5514 71.3344 20.7663H68.9609V8.404Z" fill="#1A2530"/>
<path d="M11.1733 20.7965H8.73109C8.71763 20.5647 8.69819 20.3478 8.69669 20.1339C8.67725 17.8173 8.67276 15.4977 8.63986 13.1841C8.60995 11.192 7.7156 10.1436 5.91046 9.92822C4.37153 9.74427 2.82063 10.8824 2.40636 12.535C2.29678 12.9925 2.24205 13.4614 2.24334 13.9318C2.22689 16.1946 2.23587 18.4574 2.23587 20.7696H0V8.43117H2.19549V10.2842L2.01303 10.0209C2.55292 9.6321 3.10329 9.25522 3.63272 8.84992C5.055 7.75966 8.07155 7.72077 9.45644 8.84992C10.6394 9.82054 11.1419 11.168 11.1629 12.6621C11.2003 15.3496 11.1733 18.0372 11.1733 20.7965Z" fill="#1A2530"/>
<path d="M96.6135 12.6476H94.2295C93.9125 11.4317 93.2305 10.515 91.9309 10.2039C89.4123 9.60565 87.1286 11.3001 87.0538 13.9009C87.0208 14.8398 87.1251 15.7784 87.3634 16.6871C87.7508 18.1154 88.9592 18.9783 90.4353 19.0531C91.5196 19.1099 92.6024 19.0232 93.4264 18.2156C93.8646 17.7849 94.1652 17.2151 94.5795 16.6348H96.7182C96.5492 18.25 95.8956 19.5302 94.5107 20.3872C92.387 21.7018 89.1028 21.6016 87.1481 20.0776C86.5106 19.601 85.9774 18.9991 85.5813 18.3087C85.1852 17.6184 84.9346 16.8543 84.8449 16.0635C84.6131 14.1312 84.7237 12.2603 85.7931 10.5419C86.9895 8.62007 88.8126 7.99044 90.9333 8.03381C91.7493 8.04572 92.5589 8.17982 93.3352 8.43163C95.2869 9.09118 96.259 10.5837 96.6135 12.6476Z" fill="#1A2530"/>
<path d="M42.9375 8.32843H45.1345V10.8096C46.5717 8.35086 47.9985 7.58962 49.9726 8.17438V10.3773C49.4881 10.4088 49.002 10.4506 48.5145 10.4686C47.0009 10.5224 46.0572 11.3659 45.628 12.7329C45.364 13.5828 45.2132 14.4638 45.1793 15.3531C45.112 17.1478 45.1584 18.9305 45.1584 20.7685H42.9375V8.32843Z" fill="#1A2530"/>
<path d="M116.843 4.20719C117.122 4.20719 117.319 4.15687 117.432 4.05623C117.545 3.95307 117.602 3.80588 117.602 3.61466C117.602 3.52157 117.589 3.4398 117.564 3.36935C117.541 3.2989 117.502 3.24103 117.447 3.19574C117.394 3.15045 117.322 3.11649 117.232 3.09384C117.144 3.0712 117.034 3.05988 116.903 3.05988H116.409V4.20719H116.843ZM116.903 2.60699C117.339 2.60699 117.66 2.68624 117.866 2.84475C118.075 3.00075 118.179 3.23223 118.179 3.53918C118.179 3.77569 118.112 3.97697 117.979 4.14303C117.846 4.30909 117.646 4.42231 117.379 4.4827C117.422 4.51038 117.458 4.54308 117.488 4.58082C117.521 4.61857 117.551 4.6626 117.579 4.71292L118.44 5.97345H117.877C117.794 5.97345 117.734 5.942 117.696 5.8791L116.934 4.73934C116.911 4.70663 116.883 4.68147 116.851 4.66385C116.82 4.64624 116.773 4.63744 116.707 4.63744H116.409V5.97345H115.82V2.60699H116.903ZM116.949 6.71317C117.17 6.71317 117.383 6.68549 117.587 6.63014C117.793 6.57227 117.984 6.49176 118.16 6.3886C118.339 6.28293 118.5 6.15713 118.643 6.0112C118.789 5.86526 118.914 5.70298 119.017 5.52434C119.12 5.34319 119.199 5.14945 119.255 4.94313C119.313 4.73682 119.342 4.5217 119.342 4.29777C119.342 3.96062 119.279 3.64486 119.153 3.35048C119.03 3.05359 118.86 2.79569 118.643 2.5768C118.429 2.35538 118.177 2.18178 117.885 2.05598C117.593 1.92766 117.281 1.8635 116.949 1.8635C116.727 1.8635 116.515 1.89243 116.311 1.9503C116.107 2.00817 115.917 2.08994 115.741 2.19562C115.567 2.29877 115.408 2.42458 115.262 2.57302C115.118 2.72147 114.995 2.88627 114.892 3.06742C114.791 3.24606 114.713 3.4398 114.658 3.64863C114.603 3.85746 114.575 4.07384 114.575 4.29777C114.575 4.5217 114.603 4.73682 114.658 4.94313C114.713 5.14945 114.791 5.34319 114.892 5.52434C114.995 5.70298 115.118 5.86526 115.262 6.0112C115.408 6.15713 115.567 6.28293 115.741 6.3886C115.917 6.49176 116.107 6.57227 116.311 6.63014C116.515 6.68549 116.727 6.71317 116.949 6.71317ZM116.949 1.53515C117.203 1.53515 117.447 1.56786 117.681 1.63328C117.917 1.6987 118.138 1.79179 118.341 1.91256C118.545 2.03333 118.731 2.178 118.9 2.34658C119.069 2.51264 119.212 2.69882 119.33 2.90514C119.451 3.10894 119.544 3.32909 119.609 3.5656C119.675 3.79959 119.708 4.04365 119.708 4.29777C119.708 4.54937 119.675 4.79343 119.609 5.02994C119.544 5.26393 119.451 5.48283 119.33 5.68663C119.212 5.89043 119.069 6.07661 118.9 6.24519C118.731 6.41125 118.545 6.55466 118.341 6.67543C118.138 6.7962 117.917 6.88929 117.681 6.95471C117.447 7.02013 117.203 7.05284 116.949 7.05284C116.695 7.05284 116.451 7.02013 116.217 6.95471C115.983 6.88929 115.764 6.7962 115.56 6.67543C115.356 6.55466 115.17 6.41125 115.001 6.24519C114.835 6.07661 114.692 5.89043 114.571 5.68663C114.45 5.48283 114.357 5.26393 114.292 5.02994C114.226 4.79595 114.194 4.55189 114.194 4.29777C114.194 4.04365 114.226 3.79959 114.292 3.5656C114.357 3.32909 114.45 3.10894 114.571 2.90514C114.692 2.69882 114.835 2.51264 115.001 2.34658C115.17 2.178 115.356 2.03333 115.56 1.91256C115.764 1.79179 115.983 1.6987 116.217 1.63328C116.451 1.56786 116.695 1.53515 116.949 1.53515Z" fill="#1A2530"/>
</svg>
