<svg width="28" height="25" viewBox="0 0 28 25" fill="none" xmlns="http://www.w3.org/2000/svg">
<path d="M15 23C9.477 23 5 18.523 5 13C5 7.477 9.477 3 15 3C20.523 3 25 7.477 25 13C25 18.523 20.523 23 15 23ZM15 21C17.1217 21 19.1566 20.1571 20.6569 18.6569C22.1571 17.1566 23 15.1217 23 13C23 10.8783 22.1571 8.84344 20.6569 7.34315C19.1566 5.84285 17.1217 5 15 5C12.8783 5 10.8434 5.84285 9.34315 7.34315C7.84285 8.84344 7 10.8783 7 13C7 15.1217 7.84285 17.1566 9.34315 18.6569C10.8434 20.1571 12.8783 21 15 21ZM19.5 8.5L17 15L10.5 17.5L13 11L19.5 8.5ZM15 14C15.2652 14 15.5196 13.8946 15.7071 13.7071C15.8946 13.5196 16 13.2652 16 13C16 12.7348 15.8946 12.4804 15.7071 12.2929C15.5196 12.1054 15.2652 12 15 12C14.7348 12 14.4804 12.1054 14.2929 12.2929C14.1054 12.4804 14 12.7348 14 13C14 13.2652 14.1054 13.5196 14.2929 13.7071C14.4804 13.8946 14.7348 14 15 14Z" fill="#1A2530"/>
<g style="mix-blend-mode:multiply">
<circle cx="9.33333" cy="5.33333" r="4.33333" fill="url(#paint0_linear_255_518)"/>
</g>
<circle cx="23.7879" cy="0.787879" r="0.393939" fill="black" stroke="black" stroke-width="0.787879"/>
<circle cx="1.9697" cy="12.9697" r="1.57576" stroke="black" stroke-width="0.787879"/>
<circle cx="25.9697" cy="18.9697" r="1.57576" stroke="black" stroke-width="0.787879"/>
<defs>
<linearGradient id="paint0_linear_255_518" x1="5" y1="1" x2="13.6667" y2="1" gradientUnits="userSpaceOnUse">
<stop stop-color="#0057FF"/>
<stop offset="0.588542" stop-color="#5AEEFF"/>
<stop offset="1" stop-color="#DEFFDE"/>
</linearGradient>
</defs>
</svg>
