<svg width="20" height="20" viewBox="0 0 20 20" fill="none" xmlns="http://www.w3.org/2000/svg">
<circle cx="10" cy="10" r="9.375" fill="white" stroke="#1A2530" stroke-width="1.25"/>
<path d="M6.55806 12.5581C6.31398 12.8021 6.31398 13.1979 6.55806 13.4419C6.80214 13.686 7.19786 13.686 7.44194 13.4419L6.55806 12.5581ZM13.625 7C13.625 6.65482 13.3452 6.375 13 6.375L7.375 6.375C7.02982 6.375 6.75 6.65482 6.75 7C6.75 7.34518 7.02982 7.625 7.375 7.625H12.375V12.625C12.375 12.9702 12.6548 13.25 13 13.25C13.3452 13.25 13.625 12.9702 13.625 12.625L13.625 7ZM7.44194 13.4419L13.4419 7.44194L12.5581 6.55806L6.55806 12.5581L7.44194 13.4419Z" fill="#1A2530"/>
</svg>
