<svg width="123" height="28" viewBox="0 0 123 28" fill="none" xmlns="http://www.w3.org/2000/svg">
<path d="M15.6678 9.18113C15.8173 8.58291 15.8293 8.54851 16.2929 8.60983C16.5165 8.62403 16.7408 8.62403 16.9644 8.60983C17.612 8.60983 17.7346 8.48869 17.8288 7.86205C18.1534 5.74134 18.8129 3.78515 20.9695 2.77714C21.9745 2.318 23.0319 2.32697 24.0519 2.50943C25.3485 2.74274 25.8466 4.27868 24.9223 5.14611C24.6232 5.43176 24.0085 5.57384 23.5942 5.49607C23.2637 5.43475 22.996 4.99356 22.7373 4.62565C22.6117 4.44917 22.4875 4.06182 22.4247 4.07528C22.157 4.12613 21.9491 4.09622 21.6769 4.42973C21.1894 5.04441 21.1296 5.90884 20.9441 6.67308C20.7945 7.2713 20.7781 7.89046 20.6869 8.61731H23.8575C23.7857 9.16917 23.7288 9.60288 23.6585 10.1368H20.6196C20.4595 12.081 20.3205 13.94 20.153 15.7915C19.963 17.8704 19.8867 19.9791 19.4979 22.0146C19.0492 24.3237 18.1265 26.4609 15.4928 27.0561C14.7061 27.2341 13.7834 27.3088 13.0012 27.0202C12.7529 26.9275 12.2773 26.5985 12.1756 26.3517C12.077 26.094 12.0306 25.8194 12.0391 25.5436C12.0475 25.2679 12.1107 24.9966 12.225 24.7455C12.5241 24.1323 13.055 24.2011 13.5874 24.2459C14.4848 24.3237 14.4683 25.0356 14.5237 25.9584C14.9588 25.8157 15.3401 25.5439 15.6169 25.1792C15.9669 24.7305 16.1912 23.8466 16.2705 23.1497C16.5786 20.4442 16.8164 17.7298 17.0646 15.0168C17.1902 13.6349 17.2381 12.2425 17.4101 10.8666C17.4849 10.2684 17.2605 10.1697 16.7834 10.1802C16.3871 10.1906 15.9923 10.1802 15.4943 10.1802C15.5541 9.82273 15.6124 9.50118 15.6678 9.17366V9.18113Z" fill="#1A2530"/>
<path d="M111.759 17.3482C111.636 18.5955 110.96 19.4943 110.046 20.0896C107.323 21.8603 103.737 21.6868 101.522 19.3792C100.713 18.5262 100.214 17.4257 100.107 16.2549C99.8989 14.3436 99.8197 12.3964 100.992 10.7214C103.061 7.76313 106.349 7.38774 109.086 8.82348C110.811 9.73129 111.811 11.3959 111.857 13.4672C111.871 14.0355 111.857 14.6053 111.857 15.2514H102.525C102.217 17.592 103.796 18.9903 105.702 19.1309C107.17 19.2356 108.531 18.9978 109.367 17.5561C109.441 17.4304 109.699 17.3631 109.874 17.3557C110.473 17.3377 111.069 17.3482 111.759 17.3482ZM102.465 13.4433H109.657C109.59 10.6017 107.749 9.89132 105.984 9.92123C103.915 9.95563 102.423 11.4886 102.465 13.4433Z" fill="#1A2530"/>
<path d="M38.5177 15.1289H28.9625C28.6724 17.0821 29.9406 18.7631 31.8968 19.0069C33.5045 19.2073 34.9687 18.962 35.9169 17.4231C35.9714 17.3614 36.038 17.3117 36.1127 17.2769C36.1873 17.2422 36.2683 17.2232 36.3506 17.2212C36.9713 17.1988 37.5919 17.2107 38.3023 17.2107C38.2036 17.8172 37.9767 18.3957 37.6368 18.9076C37.2969 19.4195 36.8518 19.8531 36.3311 20.1794C35.1249 20.9802 33.6866 21.3571 32.2426 21.2507C30.7987 21.1443 29.4311 20.5606 28.3553 19.5917C26.8598 18.2307 26.456 16.3882 26.5083 14.4395C26.5302 13.7699 26.6184 13.1041 26.7715 12.4519C27.4146 9.64768 29.9122 7.92629 32.8285 8.00555C35.8092 8.08033 37.7893 10.213 38.1946 12.2111C38.3801 13.1264 38.4055 14.0745 38.5177 15.1289ZM28.8847 13.4135H36.1307C36.0605 10.9683 34.7743 9.82416 32.2184 9.89146C31.312 9.92462 30.4549 10.3122 29.8315 10.9709C29.208 11.6296 28.8681 12.5067 28.8847 13.4135Z" fill="#1A2530"/>
<path d="M64.5476 15.1724H54.9626C54.7921 17.2976 56.1829 18.8051 57.9612 19.004C59.5779 19.1865 61.1019 19.0459 62.0321 17.3978C62.0919 17.2901 62.3103 17.2243 62.4568 17.2198C63.076 17.2004 63.6967 17.2109 64.3622 17.2109C64.2665 18.5987 63.4289 19.5066 62.4179 20.1646C59.1606 22.3018 53.8559 21.37 52.8464 16.6351C52.2048 13.6081 52.8464 10.6334 55.4352 8.90152C57.514 7.51215 61.6971 7.56748 63.6069 10.5631C64.5087 11.9555 64.7002 13.2521 64.5476 15.1724ZM62.4239 13.4391C62.2893 12.8588 62.1831 12.3623 62.059 11.8687C61.6597 10.2864 59.0918 9.49825 57.4003 10.1578C55.9945 10.7067 54.9102 12.0826 54.9461 13.4391H62.4239Z" fill="#1A2530"/>
<path d="M68.9609 8.404H71.4406V10.4694C71.6903 10.1299 71.8264 9.94891 71.958 9.76496C73.5359 7.58892 76.8934 7.67117 78.4907 8.739C79.0241 9.08989 79.4642 9.56528 79.7729 10.1242C80.0817 10.683 80.2498 11.3086 80.2629 11.947C80.3691 14.8753 80.2973 17.8096 80.2973 20.7798H77.9911C77.9911 20.524 77.9911 20.2623 77.9911 20.0021C77.9567 17.7109 77.9657 15.4197 77.867 13.1315C77.8177 11.9948 77.4183 10.9405 76.3356 10.3318C74.3913 9.2445 71.9326 10.3916 71.4914 12.599C71.39 13.135 71.3399 13.6793 71.3419 14.2247C71.3239 16.3873 71.3344 18.5514 71.3344 20.7663H68.9609V8.404Z" fill="#1A2530"/>
<path d="M11.1733 20.7965H8.73109C8.71763 20.5647 8.69819 20.3478 8.69669 20.1339C8.67725 17.8173 8.67276 15.4977 8.63986 13.1841C8.60995 11.192 7.7156 10.1436 5.91046 9.92822C4.37153 9.74427 2.82063 10.8824 2.40636 12.535C2.29678 12.9925 2.24205 13.4614 2.24334 13.9318C2.22689 16.1946 2.23587 18.4574 2.23587 20.7696H0V8.43117H2.19549V10.2842L2.01303 10.0209C2.55292 9.6321 3.10329 9.25522 3.63272 8.84992C5.055 7.75966 8.07155 7.72077 9.45644 8.84992C10.6394 9.82054 11.1419 11.168 11.1629 12.6621C11.2003 15.3496 11.1733 18.0372 11.1733 20.7965Z" fill="#1A2530"/>
<path d="M96.6125 12.6476H94.2286C93.9115 11.4317 93.2295 10.515 91.9299 10.2039C89.4114 9.60565 87.1276 11.3001 87.0529 13.9009C87.0198 14.8398 87.1241 15.7784 87.3624 16.6871C87.7498 18.1154 88.9582 18.9783 90.4343 19.0531C91.5186 19.1099 92.6014 19.0232 93.4254 18.2156C93.8636 17.7849 94.1643 17.2151 94.5785 16.6348H96.7172C96.5482 18.25 95.8946 19.5302 94.5097 20.3872C92.386 21.7018 89.1018 21.6016 87.1471 20.0776C86.5096 19.601 85.9764 18.9991 85.5803 18.3087C85.1842 17.6184 84.9336 16.8543 84.8439 16.0635C84.6121 14.1312 84.7228 12.2603 85.7921 10.5419C86.9885 8.62007 88.8116 7.99044 90.9323 8.03381C91.7483 8.04572 92.558 8.17982 93.3342 8.43163C95.2859 9.09118 96.258 10.5837 96.6125 12.6476Z" fill="#1A2530"/>
<path d="M42.9385 8.32843H45.1355V10.8096C46.5727 8.35086 47.9995 7.58962 49.9736 8.17438V10.3773C49.489 10.4088 49.003 10.4506 48.5154 10.4686C47.0019 10.5224 46.0582 11.3659 45.629 12.7329C45.365 13.5828 45.2141 14.4638 45.1803 15.3531C45.113 17.1478 45.1594 18.9305 45.1594 20.7685H42.9385V8.32843Z" fill="#1A2530"/>
<path d="M116.842 4.20719C117.121 4.20719 117.318 4.15687 117.431 4.05623C117.544 3.95307 117.601 3.80588 117.601 3.61466C117.601 3.52157 117.588 3.4398 117.563 3.36935C117.54 3.2989 117.501 3.24103 117.446 3.19574C117.393 3.15045 117.321 3.11649 117.231 3.09384C117.143 3.0712 117.033 3.05988 116.902 3.05988H116.408V4.20719H116.842ZM116.902 2.60699C117.338 2.60699 117.659 2.68624 117.865 2.84475C118.074 3.00075 118.178 3.23223 118.178 3.53918C118.178 3.77569 118.111 3.97697 117.978 4.14303C117.845 4.30909 117.645 4.42231 117.378 4.4827C117.421 4.51038 117.457 4.54308 117.487 4.58082C117.52 4.61857 117.55 4.6626 117.578 4.71292L118.439 5.97345H117.876C117.793 5.97345 117.733 5.942 117.695 5.8791L116.933 4.73934C116.91 4.70663 116.882 4.68147 116.85 4.66385C116.819 4.64624 116.772 4.63744 116.706 4.63744H116.408V5.97345H115.819V2.60699H116.902ZM116.948 6.71317C117.169 6.71317 117.382 6.68549 117.586 6.63014C117.792 6.57227 117.983 6.49176 118.159 6.3886C118.338 6.28293 118.499 6.15713 118.642 6.0112C118.788 5.86526 118.913 5.70298 119.016 5.52434C119.119 5.34319 119.198 5.14945 119.254 4.94313C119.312 4.73682 119.341 4.5217 119.341 4.29777C119.341 3.96062 119.278 3.64486 119.152 3.35048C119.029 3.05359 118.859 2.79569 118.642 2.5768C118.428 2.35538 118.176 2.18178 117.884 2.05598C117.592 1.92766 117.28 1.8635 116.948 1.8635C116.726 1.8635 116.514 1.89243 116.31 1.9503C116.106 2.00817 115.916 2.08994 115.74 2.19562C115.566 2.29877 115.407 2.42458 115.261 2.57302C115.117 2.72147 114.994 2.88627 114.891 3.06742C114.79 3.24606 114.712 3.4398 114.657 3.64863C114.602 3.85746 114.574 4.07384 114.574 4.29777C114.574 4.5217 114.602 4.73682 114.657 4.94313C114.712 5.14945 114.79 5.34319 114.891 5.52434C114.994 5.70298 115.117 5.86526 115.261 6.0112C115.407 6.15713 115.566 6.28293 115.74 6.3886C115.916 6.49176 116.106 6.57227 116.31 6.63014C116.514 6.68549 116.726 6.71317 116.948 6.71317ZM116.948 1.53515C117.202 1.53515 117.446 1.56786 117.68 1.63328C117.916 1.6987 118.137 1.79179 118.34 1.91256C118.544 2.03333 118.73 2.178 118.899 2.34658C119.068 2.51264 119.211 2.69882 119.329 2.90514C119.45 3.10894 119.543 3.32909 119.608 3.5656C119.674 3.79959 119.707 4.04365 119.707 4.29777C119.707 4.54937 119.674 4.79343 119.608 5.02994C119.543 5.26393 119.45 5.48283 119.329 5.68663C119.211 5.89043 119.068 6.07661 118.899 6.24519C118.73 6.41125 118.544 6.55466 118.34 6.67543C118.137 6.7962 117.916 6.88929 117.68 6.95471C117.446 7.02013 117.202 7.05284 116.948 7.05284C116.694 7.05284 116.45 7.02013 116.216 6.95471C115.982 6.88929 115.763 6.7962 115.559 6.67543C115.355 6.55466 115.169 6.41125 115 6.24519C114.834 6.07661 114.691 5.89043 114.57 5.68663C114.449 5.48283 114.356 5.26393 114.291 5.02994C114.225 4.79595 114.193 4.55189 114.193 4.29777C114.193 4.04365 114.225 3.79959 114.291 3.5656C114.356 3.32909 114.449 3.10894 114.57 2.90514C114.691 2.69882 114.834 2.51264 115 2.34658C115.169 2.178 115.355 2.03333 115.559 1.91256C115.763 1.79179 115.982 1.6987 116.216 1.63328C116.45 1.56786 116.694 1.53515 116.948 1.53515Z" fill="#1A2530"/>
</svg>
