<svg width="345" height="194" viewBox="0 0 345 194" fill="none" xmlns="http://www.w3.org/2000/svg">
<path opacity="0.7" d="M344 190.297L344 4.23585C344 2.44874 342.551 1 340.764 1L4.23584 0.999985C2.44873 0.999985 1 2.44872 1 4.23583L0.999992 190.297C0.999992 192.084 2.44872 193.533 4.23583 193.533L340.764 193.533C342.551 193.533 344 192.084 344 190.297Z" fill="white" stroke="#1A2530" stroke-width="0.92564" stroke-miterlimit="10"/>
<path d="M61.1291 25.1446H62.4006C62.3622 23.7451 61.1249 22.7297 59.35 22.7297C57.5964 22.7297 56.2524 23.7323 56.2524 25.2384C56.2524 26.4544 57.1228 27.1669 58.5265 27.5467L59.559 27.8283C60.4934 28.0757 61.2145 28.3829 61.2145 29.1595C61.2145 30.0128 60.3996 30.576 59.2774 30.576C58.262 30.576 57.4172 30.1237 57.3404 29.1723H56.0177C56.1031 30.7552 57.3276 31.7322 59.286 31.7322C61.3382 31.7322 62.5201 30.6528 62.5201 29.1723C62.5201 27.5979 61.1163 26.9877 60.007 26.7147L59.1537 26.4928C58.471 26.3179 57.5623 25.9979 57.5665 25.1616C57.5665 24.4192 58.2449 23.8688 59.3201 23.8688C60.3228 23.8688 61.0353 24.3382 61.1291 25.1446ZM67.1124 25.0336H65.7684V23.4635H64.4927V25.0336H63.5327V26.0576H64.4927V29.9274C64.4884 31.1178 65.3972 31.6938 66.4041 31.6725C66.8094 31.6682 67.0825 31.5914 67.2318 31.536L67.0014 30.4821C66.9161 30.4992 66.7582 30.5376 66.5534 30.5376C66.1396 30.5376 65.7684 30.401 65.7684 29.6629V26.0576H67.1124V25.0336ZM68.5836 31.5872H69.8593V27.5851C69.8593 26.7275 70.5207 26.1088 71.4252 26.1088C71.6897 26.1088 71.9884 26.1558 72.0908 26.1856V24.9654C71.9628 24.9483 71.711 24.9355 71.5489 24.9355C70.7809 24.9355 70.1239 25.3707 69.8849 26.0747H69.8167V25.0336H68.5836V31.5872ZM77.4063 28.8693C77.4105 29.9829 76.5828 30.512 75.866 30.512C75.0767 30.512 74.5306 29.9402 74.5306 29.0485V25.0336H73.2548V29.2021C73.2548 30.8277 74.1466 31.6725 75.4052 31.6725C76.3908 31.6725 77.0607 31.152 77.3636 30.4522H77.4319V31.5872H78.6862V25.0336H77.4063V28.8693ZM83.2209 31.7194C84.7697 31.7194 85.7724 30.7893 85.9132 29.5136H84.6716C84.5095 30.2218 83.9591 30.64 83.2295 30.64C82.15 30.64 81.4546 29.7397 81.4546 28.3104C81.4546 26.9067 82.1628 26.0235 83.2295 26.0235C84.0401 26.0235 84.5351 26.5355 84.6716 27.1499H85.9132C85.7766 25.8272 84.6972 24.9483 83.2081 24.9483C81.3607 24.9483 80.166 26.3392 80.166 28.3403C80.166 30.3157 81.318 31.7194 83.2209 31.7194ZM90.3967 25.0336H89.0527V23.4635H87.777V25.0336H86.817V26.0576H87.777V29.9274C87.7727 31.1178 88.6815 31.6938 89.6884 31.6725C90.0937 31.6682 90.3668 31.5914 90.5161 31.536L90.2857 30.4821C90.2004 30.4992 90.0425 30.5376 89.8377 30.5376C89.4239 30.5376 89.0527 30.401 89.0527 29.6629V26.0576H90.3967V25.0336ZM96.0193 28.8693C96.0236 29.9829 95.1959 30.512 94.4791 30.512C93.6898 30.512 93.1436 29.9402 93.1436 29.0485V25.0336H91.8679V29.2021C91.8679 30.8277 92.7596 31.6725 94.0183 31.6725C95.0039 31.6725 95.6737 31.152 95.9767 30.4522H96.0449V31.5872H97.2993V25.0336H96.0193V28.8693ZM99.0735 31.5872H100.349V27.5851C100.349 26.7275 101.011 26.1088 101.915 26.1088C102.18 26.1088 102.478 26.1558 102.581 26.1856V24.9654C102.453 24.9483 102.201 24.9355 102.039 24.9355C101.271 24.9355 100.614 25.3707 100.375 26.0747H100.307V25.0336H99.0735V31.5872ZM106.335 31.7194C107.764 31.7194 108.775 31.0154 109.065 29.9488L107.858 29.7312C107.627 30.3498 107.073 30.6656 106.347 30.6656C105.255 30.6656 104.521 29.9573 104.487 28.6944H109.146V28.2421C109.146 25.8742 107.73 24.9483 106.245 24.9483C104.419 24.9483 103.216 26.3392 103.216 28.3531C103.216 30.3882 104.402 31.7194 106.335 31.7194ZM104.491 27.7387C104.543 26.8085 105.217 26.0022 106.254 26.0022C107.243 26.0022 107.892 26.736 107.896 27.7387H104.491ZM113.075 31.7152C114.27 31.7152 114.739 30.9856 114.969 30.5674H115.076V31.5872H116.322V22.8491H115.046V26.096H114.969C114.739 25.6907 114.304 24.9483 113.084 24.9483C111.501 24.9483 110.336 26.1984 110.336 28.3232C110.336 30.4437 111.484 31.7152 113.075 31.7152ZM113.357 30.6272C112.218 30.6272 111.624 29.6245 111.624 28.3104C111.624 27.0091 112.205 26.032 113.357 26.032C114.47 26.032 115.068 26.9408 115.068 28.3104C115.068 29.6885 114.458 30.6272 113.357 30.6272ZM54.3262 40.8491H53.0505V49.5872H54.3262V40.8491ZM58.0097 49.7322C59.0934 49.7322 59.7036 49.1818 59.9468 48.6912H59.998V49.5872H61.2438V45.2352C61.2438 43.328 59.742 42.9483 58.7009 42.9483C57.5148 42.9483 56.4225 43.4262 55.9959 44.6208L57.1948 44.8939C57.3825 44.4288 57.8604 43.9808 58.718 43.9808C59.5414 43.9808 59.9638 44.4117 59.9638 45.1541V45.184C59.9638 45.6491 59.486 45.6405 58.3084 45.7771C57.0668 45.9221 55.7953 46.2464 55.7953 47.7354C55.7953 49.024 56.7639 49.7322 58.0097 49.7322ZM58.287 48.7082C57.566 48.7082 57.0455 48.384 57.0455 47.7525C57.0455 47.0699 57.6513 46.8267 58.3894 46.7285C58.8033 46.6731 59.7846 46.5621 59.9681 46.3787V47.2235C59.9681 48 59.3494 48.7082 58.287 48.7082ZM63.1055 49.5872H64.3513V48.5674H64.458C64.6884 48.9856 65.1577 49.7152 66.3524 49.7152C67.9395 49.7152 69.0915 48.4437 69.0915 46.3232C69.0915 44.1984 67.9225 42.9483 66.3396 42.9483C65.1236 42.9483 64.6841 43.6907 64.458 44.096H64.3812V40.8491H63.1055V49.5872ZM64.3556 46.3104C64.3556 44.9408 64.9529 44.032 66.0665 44.032C67.2228 44.032 67.803 45.0091 67.803 46.3104C67.803 47.6245 67.2057 48.6272 66.0665 48.6272C64.97 48.6272 64.3556 47.6885 64.3556 46.3104ZM73.4086 49.7194C74.8379 49.7194 75.8491 49.0154 76.1393 47.9488L74.9318 47.7312C74.7014 48.3498 74.1468 48.6656 73.4214 48.6656C72.3292 48.6656 71.5953 47.9573 71.5612 46.6944H76.2203V46.2421C76.2203 43.8742 74.8038 42.9483 73.319 42.9483C71.4929 42.9483 70.2897 44.3392 70.2897 46.3531C70.2897 48.3882 71.4759 49.7194 73.4086 49.7194ZM71.5655 45.7387C71.6167 44.8085 72.2908 44.0022 73.3276 44.0022C74.3174 44.0022 74.9659 44.736 74.9702 45.7387H71.5655ZM78.9716 40.8491H77.6959V49.5872H78.9716V40.8491ZM83.5724 49.7194C85.0017 49.7194 86.0129 49.0154 86.303 47.9488L85.0956 47.7312C84.8652 48.3498 84.3105 48.6656 83.5852 48.6656C82.4929 48.6656 81.7591 47.9573 81.725 46.6944H86.3841V46.2421C86.3841 43.8742 84.9676 42.9483 83.4828 42.9483C81.6567 42.9483 80.4535 44.3392 80.4535 46.3531C80.4535 48.3882 81.6396 49.7194 83.5724 49.7194ZM81.7292 45.7387C81.7804 44.8085 82.4545 44.0022 83.4913 44.0022C84.4812 44.0022 85.1297 44.736 85.134 45.7387H81.7292ZM90.3129 49.7152C91.5076 49.7152 91.9769 48.9856 92.2073 48.5674H92.314V49.5872H93.5598V40.8491H92.2841V44.096H92.2073C91.9769 43.6907 91.5417 42.9483 90.3215 42.9483C88.7386 42.9483 87.5738 44.1984 87.5738 46.3232C87.5738 48.4437 88.7215 49.7152 90.3129 49.7152ZM90.5945 48.6272C89.4553 48.6272 88.8623 47.6245 88.8623 46.3104C88.8623 45.0091 89.4425 44.032 90.5945 44.032C91.7081 44.032 92.3054 44.9408 92.3054 46.3104C92.3054 47.6885 91.6953 48.6272 90.5945 48.6272ZM101.134 49.7152C102.328 49.7152 102.798 48.9856 103.028 48.5674H103.135V49.5872H104.381V40.8491H103.105V44.096H103.028C102.798 43.6907 102.363 42.9483 101.142 42.9483C99.5594 42.9483 98.3946 44.1984 98.3946 46.3232C98.3946 48.4437 99.5423 49.7152 101.134 49.7152ZM101.415 48.6272C100.276 48.6272 99.6831 47.6245 99.6831 46.3104C99.6831 45.0091 100.263 44.032 101.415 44.032C102.529 44.032 103.126 44.9408 103.126 46.3104C103.126 47.6885 102.516 48.6272 101.415 48.6272ZM108.169 49.7322C109.252 49.7322 109.863 49.1818 110.106 48.6912H110.157V49.5872H111.403V45.2352C111.403 43.328 109.901 42.9483 108.86 42.9483C107.674 42.9483 106.582 43.4262 106.155 44.6208L107.354 44.8939C107.542 44.4288 108.019 43.9808 108.877 43.9808C109.7 43.9808 110.123 44.4117 110.123 45.1541V45.184C110.123 45.6491 109.645 45.6405 108.467 45.7771C107.226 45.9221 105.954 46.2464 105.954 47.7354C105.954 49.024 106.923 49.7322 108.169 49.7322ZM108.446 48.7082C107.725 48.7082 107.204 48.384 107.204 47.7525C107.204 47.0699 107.81 46.8267 108.548 46.7285C108.962 46.6731 109.944 46.5621 110.127 46.3787V47.2235C110.127 48 109.508 48.7082 108.446 48.7082ZM116.221 43.0336H114.877V41.4635H113.602V43.0336H112.642V44.0576H113.602V47.9274C113.597 49.1178 114.506 49.6938 115.513 49.6725C115.918 49.6682 116.191 49.5914 116.341 49.536L116.11 48.4821C116.025 48.4992 115.867 48.5376 115.662 48.5376C115.248 48.5376 114.877 48.401 114.877 47.6629V44.0576H116.221V43.0336ZM119.6 49.7322C120.683 49.7322 121.294 49.1818 121.537 48.6912H121.588V49.5872H122.834V45.2352C122.834 43.328 121.332 42.9483 120.291 42.9483C119.105 42.9483 118.012 43.4262 117.586 44.6208L118.785 44.8939C118.972 44.4288 119.45 43.9808 120.308 43.9808C121.131 43.9808 121.554 44.4117 121.554 45.1541V45.184C121.554 45.6491 121.076 45.6405 119.898 45.7771C118.657 45.9221 117.385 46.2464 117.385 47.7354C117.385 49.024 118.354 49.7322 119.6 49.7322ZM119.877 48.7082C119.156 48.7082 118.635 48.384 118.635 47.7525C118.635 47.0699 119.241 46.8267 119.979 46.7285C120.393 46.6731 121.375 46.5621 121.558 46.3787V47.2235C121.558 48 120.939 48.7082 119.877 48.7082Z" fill="#1A2530"/>
<path d="M218.049 25.1446H219.32C219.282 23.7451 218.045 22.7297 216.27 22.7297C214.516 22.7297 213.172 23.7323 213.172 25.2384C213.172 26.4544 214.042 27.1669 215.446 27.5467L216.479 27.8283C217.413 28.0757 218.134 28.3829 218.134 29.1595C218.134 30.0128 217.319 30.576 216.197 30.576C215.182 30.576 214.337 30.1237 214.26 29.1723H212.937C213.023 30.7552 214.247 31.7322 216.206 31.7322C218.258 31.7322 219.44 30.6528 219.44 29.1723C219.44 27.5979 218.036 26.9877 216.927 26.7147L216.073 26.4928C215.391 26.3179 214.482 25.9979 214.486 25.1616C214.486 24.4192 215.165 23.8688 216.24 23.8688C217.242 23.8688 217.955 24.3382 218.049 25.1446ZM224.032 25.0336H222.688V23.4635H221.412V25.0336H220.452V26.0576H221.412V29.9274C221.408 31.1178 222.317 31.6938 223.324 31.6725C223.729 31.6682 224.002 31.5914 224.151 31.536L223.921 30.4821C223.836 30.4992 223.678 30.5376 223.473 30.5376C223.059 30.5376 222.688 30.401 222.688 29.6629V26.0576H224.032V25.0336ZM227.41 31.7322C228.494 31.7322 229.104 31.1818 229.348 30.6912H229.399V31.5872H230.645V27.2352C230.645 25.328 229.143 24.9483 228.102 24.9483C226.916 24.9483 225.823 25.4262 225.397 26.6208L226.596 26.8939C226.783 26.4288 227.261 25.9808 228.119 25.9808C228.942 25.9808 229.365 26.4117 229.365 27.1541V27.184C229.365 27.6491 228.887 27.6405 227.709 27.7771C226.468 27.9221 225.196 28.2464 225.196 29.7354C225.196 31.024 226.165 31.7322 227.41 31.7322ZM227.688 30.7082C226.967 30.7082 226.446 30.384 226.446 29.7525C226.446 29.0699 227.052 28.8267 227.79 28.7285C228.204 28.6731 229.185 28.5621 229.369 28.3787V29.2235C229.369 30 228.75 30.7082 227.688 30.7082ZM235.463 25.0336H234.119V23.4635H232.843V25.0336H231.883V26.0576H232.843V29.9274C232.839 31.1178 233.748 31.6938 234.755 31.6725C235.16 31.6682 235.433 31.5914 235.582 31.536L235.352 30.4821C235.267 30.4992 235.109 30.5376 234.904 30.5376C234.49 30.5376 234.119 30.401 234.119 29.6629V26.0576H235.463V25.0336ZM239.688 31.7194C241.118 31.7194 242.129 31.0154 242.419 29.9488L241.212 29.7312C240.981 30.3498 240.426 30.6656 239.701 30.6656C238.609 30.6656 237.875 29.9573 237.841 28.6944H242.5V28.2421C242.5 25.8742 241.084 24.9483 239.599 24.9483C237.773 24.9483 236.569 26.3392 236.569 28.3531C236.569 30.3882 237.756 31.7194 239.688 31.7194ZM237.845 27.7387C237.896 26.8085 238.57 26.0022 239.607 26.0022C240.597 26.0022 241.246 26.736 241.25 27.7387H237.845ZM249.976 31.7194C251.823 31.7194 253.031 30.3669 253.031 28.3403C253.031 26.3008 251.823 24.9483 249.976 24.9483C248.128 24.9483 246.921 26.3008 246.921 28.3403C246.921 30.3669 248.128 31.7194 249.976 31.7194ZM249.98 30.6485C248.773 30.6485 248.209 29.5946 248.209 28.336C248.209 27.0816 248.773 26.015 249.98 26.015C251.179 26.015 251.742 27.0816 251.742 28.336C251.742 29.5946 251.179 30.6485 249.98 30.6485ZM257.634 25.0336H256.221V24.4448C256.221 23.8646 256.46 23.5488 257.083 23.5488C257.348 23.5488 257.536 23.6086 257.655 23.647L257.954 22.6145C257.775 22.5462 257.403 22.4395 256.887 22.4395C255.85 22.4395 254.941 23.0454 254.941 24.2742V25.0336H253.93V26.0576H254.941V31.5872H256.221V26.0576H257.634V25.0336ZM265.309 25.0336H263.965V23.4635H262.689V25.0336H261.729V26.0576H262.689V29.9274C262.685 31.1178 263.594 31.6938 264.601 31.6725C265.006 31.6682 265.279 31.5914 265.428 31.536L265.198 30.4821C265.113 30.4992 264.955 30.5376 264.75 30.5376C264.336 30.5376 263.965 30.401 263.965 29.6629V26.0576H265.309V25.0336ZM268.197 27.696C268.197 26.6507 268.858 26.0534 269.767 26.0534C270.646 26.0534 271.171 26.6123 271.171 27.5723V31.5872H272.446V27.4187C272.446 25.7846 271.55 24.9483 270.202 24.9483C269.182 24.9483 268.568 25.392 268.261 26.1003H268.18V22.8491H266.921V31.5872H268.197V27.696ZM277.033 31.7194C278.463 31.7194 279.474 31.0154 279.764 29.9488L278.556 29.7312C278.326 30.3498 277.771 30.6656 277.046 30.6656C275.954 30.6656 275.22 29.9573 275.186 28.6944H279.845V28.2421C279.845 25.8742 278.428 24.9483 276.944 24.9483C275.118 24.9483 273.914 26.3392 273.914 28.3531C273.914 30.3882 275.1 31.7194 277.033 31.7194ZM275.19 27.7387C275.241 26.8085 275.915 26.0022 276.952 26.0022C277.942 26.0022 278.591 26.736 278.595 27.7387H275.19ZM286.467 31.7322C287.551 31.7322 288.161 31.1818 288.404 30.6912H288.456V31.5872H289.702V27.2352C289.702 25.328 288.2 24.9483 287.159 24.9483C285.973 24.9483 284.88 25.4262 284.454 26.6208L285.653 26.8939C285.84 26.4288 286.318 25.9808 287.176 25.9808C287.999 25.9808 288.422 26.4117 288.422 27.1541V27.184C288.422 27.6491 287.944 27.6405 286.766 27.7771C285.525 27.9221 284.253 28.2464 284.253 29.7354C284.253 31.024 285.222 31.7322 286.467 31.7322ZM286.745 30.7082C286.024 30.7082 285.503 30.384 285.503 29.7525C285.503 29.0699 286.109 28.8267 286.847 28.7285C287.261 28.6731 288.242 28.5621 288.426 28.3787V29.2235C288.426 30 287.807 30.7082 286.745 30.7082ZM291.461 31.5872H292.737V27.5851C292.737 26.7275 293.398 26.1088 294.302 26.1088C294.567 26.1088 294.866 26.1558 294.968 26.1856V24.9654C294.84 24.9483 294.588 24.9355 294.426 24.9355C293.658 24.9355 293.001 25.3707 292.762 26.0747H292.694V25.0336H291.461V31.5872ZM299.578 25.0336H298.234V23.4635H296.959V25.0336H295.999V26.0576H296.959V29.9274C296.954 31.1178 297.863 31.6938 298.87 31.6725C299.275 31.6682 299.549 31.5914 299.698 31.536L299.467 30.4821C299.382 30.4992 299.224 30.5376 299.019 30.5376C298.606 30.5376 298.234 30.401 298.234 29.6629V26.0576H299.578V25.0336ZM211.74 45.696C211.74 44.6507 212.38 44.0534 213.268 44.0534C214.134 44.0534 214.658 44.6208 214.658 45.5723V49.5872H215.934V45.4187C215.934 43.7974 215.042 42.9483 213.703 42.9483C212.717 42.9483 212.073 43.4048 211.77 44.1003H211.689V43.0336H210.464V49.5872H211.74V45.696ZM220.53 49.7194C221.959 49.7194 222.97 49.0154 223.26 47.9488L222.053 47.7312C221.822 48.3498 221.268 48.6656 220.542 48.6656C219.45 48.6656 218.716 47.9573 218.682 46.6944H223.341V46.2421C223.341 43.8742 221.925 42.9483 220.44 42.9483C218.614 42.9483 217.411 44.3392 217.411 46.3531C217.411 48.3882 218.597 49.7194 220.53 49.7194ZM218.686 45.7387C218.738 44.8085 219.412 44.0022 220.449 44.0022C221.438 44.0022 222.087 44.736 222.091 45.7387H218.686ZM228.968 46.8693C228.973 47.9829 228.145 48.512 227.428 48.512C226.639 48.512 226.093 47.9402 226.093 47.0485V43.0336H224.817V47.2021C224.817 48.8277 225.709 49.6725 226.967 49.6725C227.953 49.6725 228.623 49.152 228.926 48.4522H228.994V49.5872H230.248V43.0336H228.968V46.8693ZM232.022 49.5872H233.298V45.5851C233.298 44.7275 233.96 44.1088 234.864 44.1088C235.129 44.1088 235.427 44.1558 235.53 44.1856V42.9654C235.402 42.9483 235.15 42.9355 234.988 42.9355C234.22 42.9355 233.563 43.3707 233.324 44.0747H233.256V43.0336H232.022V49.5872ZM238.542 49.7322C239.626 49.7322 240.236 49.1818 240.479 48.6912H240.53V49.5872H241.776V45.2352C241.776 43.328 240.274 42.9483 239.233 42.9483C238.047 42.9483 236.955 43.4262 236.528 44.6208L237.727 44.8939C237.915 44.4288 238.393 43.9808 239.25 43.9808C240.074 43.9808 240.496 44.4117 240.496 45.1541V45.184C240.496 45.6491 240.018 45.6405 238.841 45.7771C237.599 45.9221 236.328 46.2464 236.328 47.7354C236.328 49.024 237.296 49.7322 238.542 49.7322ZM238.82 48.7082C238.099 48.7082 237.578 48.384 237.578 47.7525C237.578 47.0699 238.184 46.8267 238.922 46.7285C239.336 46.6731 240.317 46.5621 240.501 46.3787V47.2235C240.501 48 239.882 48.7082 238.82 48.7082ZM244.811 40.8491H243.536V49.5872H244.811V40.8491ZM251.103 45.696C251.103 44.6507 251.743 44.0534 252.631 44.0534C253.497 44.0534 254.021 44.6208 254.021 45.5723V49.5872H255.297V45.4187C255.297 43.7974 254.405 42.9483 253.066 42.9483C252.08 42.9483 251.436 43.4048 251.133 44.1003H251.052V43.0336H249.827V49.5872H251.103V45.696ZM259.893 49.7194C261.322 49.7194 262.333 49.0154 262.623 47.9488L261.416 47.7312C261.185 48.3498 260.631 48.6656 259.905 48.6656C258.813 48.6656 258.079 47.9573 258.045 46.6944H262.704V46.2421C262.704 43.8742 261.288 42.9483 259.803 42.9483C257.977 42.9483 256.774 44.3392 256.774 46.3531C256.774 48.3882 257.96 49.7194 259.893 49.7194ZM258.05 45.7387C258.101 44.8085 258.775 44.0022 259.812 44.0022C260.801 44.0022 261.45 44.736 261.454 45.7387H258.05ZM267.239 43.0336H265.895V41.4635H264.619V43.0336H263.659V44.0576H264.619V47.9274C264.615 49.1178 265.524 49.6938 266.531 49.6725C266.936 49.6682 267.209 49.5914 267.359 49.536L267.128 48.4821C267.043 48.4992 266.885 48.5376 266.68 48.5376C266.266 48.5376 265.895 48.401 265.895 47.6629V44.0576H267.239V43.0336ZM270.131 49.5872H271.428L272.759 44.8555H272.858L274.189 49.5872H275.49L277.414 43.0336H276.096L274.82 47.825H274.756L273.476 43.0336H272.158L270.869 47.8464H270.805L269.521 43.0336H268.203L270.131 49.5872ZM281.246 49.7194C283.093 49.7194 284.301 48.3669 284.301 46.3403C284.301 44.3008 283.093 42.9483 281.246 42.9483C279.399 42.9483 278.191 44.3008 278.191 46.3403C278.191 48.3669 279.399 49.7194 281.246 49.7194ZM281.25 48.6485C280.043 48.6485 279.48 47.5946 279.48 46.336C279.48 45.0816 280.043 44.015 281.25 44.015C282.449 44.015 283.012 45.0816 283.012 46.336C283.012 47.5946 282.449 48.6485 281.25 48.6485ZM285.785 49.5872H287.061V45.5851C287.061 44.7275 287.722 44.1088 288.627 44.1088C288.891 44.1088 289.19 44.1558 289.292 44.1856V42.9654C289.164 42.9483 288.912 42.9355 288.75 42.9355C287.982 42.9355 287.325 43.3707 287.086 44.0747H287.018V43.0336H285.785V49.5872ZM290.456 49.5872H291.732V47.2619L292.368 46.6261L294.595 49.5872H296.161L293.328 45.8453L295.981 43.0336H294.454L291.843 45.8069H291.732V40.8491H290.456V49.5872ZM302.115 44.6336C301.851 43.6139 301.053 42.9483 299.636 42.9483C298.156 42.9483 297.106 43.7291 297.106 44.8896C297.106 45.8197 297.669 46.4384 298.898 46.7115L300.007 46.9547C300.639 47.0955 300.933 47.377 300.933 47.7866C300.933 48.2944 300.391 48.6912 299.555 48.6912C298.791 48.6912 298.301 48.3626 298.147 47.7184L296.914 47.9061C297.127 49.0666 298.092 49.7194 299.564 49.7194C301.147 49.7194 302.243 48.8789 302.243 47.6928C302.243 46.7669 301.654 46.1952 300.451 45.9179L299.41 45.6789C298.689 45.5083 298.378 45.2651 298.382 44.8213C298.378 44.3179 298.924 43.9595 299.649 43.9595C300.443 43.9595 300.81 44.3989 300.959 44.8384L302.115 44.6336Z" fill="#1A2530"/>
<rect x="52.373" y="88.4728" width="71.072" height="22.5343" rx="2.77303" fill="white"/>
<path d="M62.279 103.628H63.2442L63.6062 101.424H64.7926L64.9495 100.459H63.763L64.0767 98.5604H65.2712L65.4281 97.5952H64.2336L64.5956 95.3912H63.6303L63.2684 97.5952H61.3379L61.6998 95.3912H60.7346L60.3726 97.5952H59.1862L59.0294 98.5604H60.2158L59.9021 100.459H58.7076L58.5508 101.424H59.7452L59.3833 103.628H60.3485L60.7105 101.424H62.641L62.279 103.628ZM60.8673 100.459L61.181 98.5604H63.1115L62.7978 100.459H60.8673ZM73.3956 98.0698C73.1141 96.3082 71.7346 95.2786 69.9932 95.2786C67.8616 95.2786 66.2891 96.8753 66.2891 99.5096C66.2891 102.144 67.8536 103.741 69.9932 103.741C71.803 103.741 73.1262 102.606 73.3956 100.978L72.1408 100.974C71.9277 102.027 71.0429 102.606 70.0012 102.606C68.5896 102.606 67.5238 101.525 67.5238 99.5096C67.5238 97.5107 68.5855 96.4128 70.0052 96.4128C71.0549 96.4128 71.9357 97.004 72.1408 98.0698H73.3956ZM77.4449 103.753C79.1864 103.753 80.3246 102.478 80.3246 100.567C80.3246 98.6449 79.1864 97.37 77.4449 97.37C75.7035 97.37 74.5653 98.6449 74.5653 100.567C74.5653 102.478 75.7035 103.753 77.4449 103.753ZM77.449 102.743C76.3108 102.743 75.7799 101.75 75.7799 100.563C75.7799 99.3809 76.3108 98.3754 77.449 98.3754C78.5791 98.3754 79.11 99.3809 79.11 100.563C79.11 101.75 78.5791 102.743 77.449 102.743ZM82.926 99.96C82.926 98.9747 83.5494 98.4116 84.4061 98.4116C85.2346 98.4116 85.7292 98.9385 85.7292 99.8434V103.628H86.9318V99.6986C86.9318 98.1582 86.0872 97.37 84.8163 97.37C83.8551 97.37 83.2759 97.7882 82.9863 98.4559H82.9099V95.3912H81.7235V103.628H82.926V99.96ZM91.1952 103.753C92.9367 103.753 94.0749 102.478 94.0749 100.567C94.0749 98.6449 92.9367 97.37 91.1952 97.37C89.4538 97.37 88.3156 98.6449 88.3156 100.567C88.3156 102.478 89.4538 103.753 91.1952 103.753ZM91.1992 102.743C90.0611 102.743 89.5302 101.75 89.5302 100.563C89.5302 99.3809 90.0611 98.3754 91.1992 98.3754C92.3294 98.3754 92.8603 99.3809 92.8603 100.563C92.8603 101.75 92.3294 102.743 91.1992 102.743ZM95.4738 103.628H96.6763V99.8555C96.6763 99.0471 97.2997 98.4639 98.1523 98.4639C98.4017 98.4639 98.6832 98.5081 98.7797 98.5363V97.386C98.6591 97.37 98.4218 97.3579 98.2689 97.3579C97.545 97.3579 96.9257 97.7681 96.7004 98.4317H96.6361V97.4504H95.4738V103.628ZM103.126 97.4504H101.859V95.9704H100.656V97.4504H99.7513V98.4156H100.656V102.063C100.652 103.186 101.509 103.728 102.458 103.708C102.84 103.704 103.097 103.632 103.238 103.58L103.021 102.586C102.941 102.602 102.792 102.639 102.599 102.639C102.209 102.639 101.859 102.51 101.859 101.814V98.4156H103.126V97.4504ZM107.942 99.6262H104.29V100.668H107.942V99.6262ZM110.394 103.628L111.15 101.448H114.367L115.119 103.628H116.439L113.474 95.3912H112.039L109.075 103.628H110.394ZM111.512 100.402L112.726 96.8873H112.791L114.005 100.402H111.512Z" fill="#1A2530"/>
<rect x="52.373" y="88.4728" width="71.072" height="22.5343" rx="2.77303" stroke="#1A2530" stroke-width="0.92564" stroke-dasharray="1.5 1.5"/>
<rect x="53.1806" y="125.685" width="70.263" height="22.5343" rx="2.77303" fill="white"/>
<path d="M63.0866 140.84H64.0518L64.4138 138.636H65.6003L65.7571 137.671H64.5707L64.8844 135.773H66.0788L66.2357 134.808H65.0412L65.4032 132.604H64.4379L64.076 134.808H62.1455L62.5075 132.604H61.5422L61.1803 134.808H59.9938L59.837 135.773H61.0234L60.7097 137.671H59.5152L59.3584 138.636H60.5529L60.1909 140.84H61.1561L61.5181 138.636H63.4486L63.0866 140.84ZM61.6749 137.671L61.9886 135.773H63.9191L63.6054 137.671H61.6749ZM74.2033 135.282C73.9217 133.521 72.5423 132.491 70.8008 132.491C68.6692 132.491 67.0967 134.088 67.0967 136.722C67.0967 139.356 68.6612 140.953 70.8008 140.953C72.6106 140.953 73.9338 139.819 74.2033 138.19L72.9485 138.186C72.7353 139.24 71.8505 139.819 70.8088 139.819C69.3972 139.819 68.3314 138.737 68.3314 136.722C68.3314 134.723 69.3932 133.625 70.8129 133.625C71.8626 133.625 72.7433 134.216 72.9485 135.282H74.2033ZM78.2526 140.965C79.994 140.965 81.1322 139.69 81.1322 137.78C81.1322 135.857 79.994 134.582 78.2526 134.582C76.5111 134.582 75.3729 135.857 75.3729 137.78C75.3729 139.69 76.5111 140.965 78.2526 140.965ZM78.2566 139.956C77.1184 139.956 76.5875 138.962 76.5875 137.776C76.5875 136.593 77.1184 135.588 78.2566 135.588C79.3867 135.588 79.9176 136.593 79.9176 137.776C79.9176 138.962 79.3867 139.956 78.2566 139.956ZM83.7336 137.172C83.7336 136.187 84.357 135.624 85.2137 135.624C86.0422 135.624 86.5369 136.151 86.5369 137.056V140.84H87.7394V136.911C87.7394 135.371 86.8948 134.582 85.6239 134.582C84.6627 134.582 84.0835 135.001 83.794 135.668H83.7176V132.604H82.5311V140.84H83.7336V137.172ZM92.0028 140.965C93.7443 140.965 94.8825 139.69 94.8825 137.78C94.8825 135.857 93.7443 134.582 92.0028 134.582C90.2614 134.582 89.1232 135.857 89.1232 137.78C89.1232 139.69 90.2614 140.965 92.0028 140.965ZM92.0069 139.956C90.8687 139.956 90.3378 138.962 90.3378 137.776C90.3378 136.593 90.8687 135.588 92.0069 135.588C93.137 135.588 93.6679 136.593 93.6679 137.776C93.6679 138.962 93.137 139.956 92.0069 139.956ZM96.2814 140.84H97.4839V137.068C97.4839 136.259 98.1073 135.676 98.9599 135.676C99.2093 135.676 99.4908 135.721 99.5873 135.749V134.598C99.4667 134.582 99.2294 134.57 99.0766 134.57C98.3526 134.57 97.7333 134.981 97.508 135.644H97.4437V134.663H96.2814V140.84ZM103.933 134.663H102.666V133.183H101.464V134.663H100.559V135.628H101.464V139.276C101.46 140.398 102.316 140.941 103.266 140.921C103.648 140.917 103.905 140.844 104.046 140.792L103.829 139.799C103.748 139.815 103.599 139.851 103.406 139.851C103.016 139.851 102.666 139.722 102.666 139.026V135.628H103.933V134.663ZM108.75 136.839H105.098V137.88H108.75V136.839ZM110.506 140.84H113.663C115.577 140.84 116.442 139.887 116.442 138.624C116.442 137.349 115.549 136.629 114.732 136.585V136.505C115.489 136.312 116.12 135.797 116.12 134.767C116.12 133.549 115.275 132.604 113.522 132.604H110.506V140.84ZM111.748 139.775V137.136H113.586C114.584 137.136 115.207 137.78 115.207 138.564C115.207 139.256 114.737 139.775 113.542 139.775H111.748ZM111.748 136.167V133.661H113.446C114.431 133.661 114.901 134.18 114.901 134.864C114.901 135.66 114.25 136.167 113.413 136.167H111.748Z" fill="#1A2530"/>
<rect x="53.1806" y="125.685" width="70.263" height="22.5343" rx="2.77303" stroke="#1A2530" stroke-width="0.92564" stroke-dasharray="1.5 1.5"/>
<path d="M172.706 75.9768L172.706 75.514L171.78 75.514L171.78 75.9768L172.706 75.9768ZM171.78 165.764L171.78 166.227L172.706 166.227L172.706 165.764L171.78 165.764ZM171.78 75.9768L171.78 76.725L172.706 76.725L172.706 75.9768L171.78 75.9768ZM171.78 78.2215L171.78 79.7179L172.706 79.7179L172.706 78.2215L171.78 78.2215ZM171.78 81.2144L171.78 82.7108L172.706 82.7108L172.706 81.2144L171.78 81.2144ZM171.78 84.2073L171.78 85.7037L172.706 85.7037L172.706 84.2073L171.78 84.2073ZM171.78 87.2002L171.78 88.6966L172.706 88.6966L172.706 87.2002L171.78 87.2002ZM171.78 90.1931L171.78 91.6895L172.706 91.6895L172.706 90.1931L171.78 90.1931ZM171.78 93.186L171.78 94.6824L172.706 94.6824L172.706 93.186L171.78 93.186ZM171.78 96.1789L171.78 97.6753L172.706 97.6753L172.706 96.1789L171.78 96.1789ZM171.78 99.1718L171.78 100.668L172.706 100.668L172.706 99.1718L171.78 99.1718ZM171.78 102.165L171.78 103.661L172.706 103.661L172.706 102.165L171.78 102.165ZM171.78 105.158L171.78 106.654L172.706 106.654L172.706 105.158L171.78 105.158ZM171.78 108.15L171.78 109.647L172.706 109.647L172.706 108.15L171.78 108.15ZM171.78 111.143L171.78 112.64L172.706 112.64L172.706 111.143L171.78 111.143ZM171.78 114.136L171.78 115.633L172.706 115.633L172.706 114.136L171.78 114.136ZM171.78 117.129L171.78 118.626L172.706 118.626L172.706 117.129L171.78 117.129ZM171.78 120.122L171.78 121.619L172.706 121.619L172.706 120.122L171.78 120.122ZM171.78 123.115L171.78 124.611L172.706 124.611L172.706 123.115L171.78 123.115ZM171.78 126.108L171.78 127.604L172.706 127.604L172.706 126.108L171.78 126.108ZM171.78 129.101L171.78 130.597L172.706 130.597L172.706 129.101L171.78 129.101ZM171.78 132.094L171.78 133.59L172.706 133.59L172.706 132.094L171.78 132.094ZM171.78 135.087L171.78 136.583L172.706 136.583L172.706 135.087L171.78 135.087ZM171.78 138.08L171.78 139.576L172.706 139.576L172.706 138.08L171.78 138.08ZM171.78 141.072L171.78 142.569L172.706 142.569L172.706 141.072L171.78 141.072ZM171.78 144.065L171.78 145.562L172.706 145.562L172.706 144.065L171.78 144.065ZM171.78 147.058L171.78 148.555L172.706 148.555L172.706 147.058L171.78 147.058ZM171.78 150.051L171.78 151.548L172.706 151.548L172.706 150.051L171.78 150.051ZM171.78 153.044L171.78 154.541L172.706 154.541L172.706 153.044L171.78 153.044ZM171.78 156.037L171.78 157.533L172.706 157.533L172.706 156.037L171.78 156.037ZM171.78 159.03L171.78 160.526L172.706 160.526L172.706 159.03L171.78 159.03ZM171.78 162.023L171.78 163.519L172.706 163.519L172.706 162.023L171.78 162.023ZM171.78 165.016L171.78 165.764L172.706 165.764L172.706 165.016L171.78 165.016Z" fill="#1A2530"/>
<path d="M230.829 102.588C230.829 105.729 228.282 108.276 225.14 108.276C221.998 108.276 219.451 105.729 219.451 102.588C219.451 99.4458 221.998 96.8988 225.14 96.8988C228.282 96.8988 230.829 99.4458 230.829 102.588Z" fill="white"/>
<path d="M230.829 120.365C230.829 123.507 228.282 126.054 225.14 126.054C221.998 126.054 219.451 123.507 219.451 120.365C219.451 117.223 221.998 114.676 225.14 114.676C228.282 114.676 230.829 117.223 230.829 120.365Z" fill="white"/>
<path d="M230.829 138.143C230.829 141.285 228.282 143.832 225.14 143.832C221.998 143.832 219.451 141.285 219.451 138.143C219.451 135.001 221.998 132.454 225.14 132.454C228.282 132.454 230.829 135.001 230.829 138.143Z" fill="white"/>
<path d="M296.249 120.365C296.249 123.507 298.796 126.054 301.937 126.054C305.079 126.054 307.626 123.507 307.626 120.365C307.626 117.223 305.079 114.676 301.937 114.676C298.796 114.676 296.249 117.223 296.249 120.365Z" fill="white"/>
<path d="M256.428 93.6988C256.428 96.8407 253.881 99.3877 250.739 99.3877C247.598 99.3877 245.051 96.8407 245.051 93.6988C245.051 90.557 247.598 88.01 250.739 88.01C253.881 88.01 256.428 90.557 256.428 93.6988Z" fill="white"/>
<path d="M256.428 111.476C256.428 114.618 253.881 117.165 250.739 117.165C247.598 117.165 245.051 114.618 245.051 111.476C245.051 108.335 247.598 105.788 250.739 105.788C253.881 105.788 256.428 108.335 256.428 111.476Z" fill="white"/>
<path d="M256.428 129.254C256.428 132.396 253.881 134.943 250.739 134.943C247.598 134.943 245.051 132.396 245.051 129.254C245.051 126.112 247.598 123.565 250.739 123.565C253.881 123.565 256.428 126.112 256.428 129.254Z" fill="white"/>
<path d="M256.428 147.032C256.428 150.173 253.881 152.72 250.739 152.72C247.598 152.72 245.051 150.173 245.051 147.032C245.051 143.89 247.598 141.343 250.739 141.343C253.881 141.343 256.428 143.89 256.428 147.032Z" fill="white"/>
<path d="M270.65 93.6988C270.65 96.8407 273.198 99.3877 276.34 99.3877C279.481 99.3877 282.028 96.8407 282.028 93.6988C282.028 90.557 279.481 88.01 276.34 88.01C273.198 88.01 270.65 90.557 270.65 93.6988Z" fill="white"/>
<path d="M270.65 111.476C270.65 114.618 273.198 117.165 276.34 117.165C279.481 117.165 282.028 114.618 282.028 111.477C282.028 108.335 279.481 105.788 276.34 105.788C273.198 105.788 270.65 108.335 270.65 111.476Z" fill="white"/>
<path d="M270.65 129.254C270.65 132.396 273.198 134.943 276.34 134.943C279.482 134.943 282.029 132.396 282.029 129.254C282.029 126.112 279.482 123.565 276.34 123.565C273.198 123.565 270.65 126.112 270.65 129.254Z" fill="white"/>
<path d="M270.65 147.032C270.65 150.173 273.198 152.721 276.34 152.721C279.482 152.721 282.029 150.174 282.029 147.032C282.029 143.89 279.482 141.343 276.34 141.343C273.198 141.343 270.65 143.89 270.65 147.032Z" fill="white"/>
<path d="M230.829 102.588C230.829 105.729 228.282 108.276 225.14 108.276C221.998 108.276 219.451 105.729 219.451 102.588C219.451 99.4458 221.998 96.8988 225.14 96.8988C228.282 96.8988 230.829 99.4458 230.829 102.588ZM230.829 102.588L245.051 94.7655M230.829 102.588L245.051 111.832L230.829 138.143M230.829 102.588L245.051 129.61M230.829 102.588L245.051 147.387L230.829 138.143M230.829 120.365C230.829 123.507 228.282 126.054 225.14 126.054C221.998 126.054 219.451 123.507 219.451 120.365C219.451 117.223 221.998 114.676 225.14 114.676C228.282 114.676 230.829 117.223 230.829 120.365ZM230.829 120.365L244.695 95.121M230.829 120.365L244.695 111.832M230.829 120.365L244.695 129.254M230.829 120.365L244.695 147.387M230.829 138.143C230.829 141.285 228.282 143.832 225.14 143.832C221.998 143.832 219.451 141.285 219.451 138.143C219.451 135.001 221.998 132.454 225.14 132.454C228.282 132.454 230.829 135.001 230.829 138.143ZM230.829 138.143L245.051 94.41M230.829 138.143L245.051 128.899M256.428 93.6988C256.428 96.8407 253.881 99.3877 250.739 99.3877C247.598 99.3877 245.051 96.8407 245.051 93.6988C245.051 90.557 247.598 88.01 250.739 88.01C253.881 88.01 256.428 90.557 256.428 93.6988ZM256.428 93.6988H270.65M256.428 93.6988L270.65 111.832M256.428 93.6988L270.65 129.965M256.428 93.6988L270.65 148.098M270.65 93.6988L256.428 129.254M270.65 93.6988C270.65 96.8407 273.198 99.3877 276.34 99.3877C279.481 99.3877 282.028 96.8407 282.028 93.6988M270.65 93.6988C270.65 90.557 273.198 88.01 276.34 88.01C279.481 88.01 282.028 90.557 282.028 93.6988M256.428 111.476C256.428 114.618 253.881 117.165 250.739 117.165C247.598 117.165 245.051 114.618 245.051 111.476C245.051 108.335 247.598 105.788 250.739 105.788C253.881 105.788 256.428 108.335 256.428 111.476ZM256.428 111.476L270.295 93.6989M256.428 111.476H270.295M256.428 111.476L270.295 129.61M256.428 111.476L271.006 148.098M256.428 129.254C256.428 132.396 253.881 134.943 250.739 134.943C247.598 134.943 245.051 132.396 245.051 129.254C245.051 126.112 247.598 123.565 250.739 123.565C253.881 123.565 256.428 126.112 256.428 129.254ZM256.428 129.254L270.65 111.476M256.428 129.254H270.65M256.428 129.254L270.65 147.387M270.65 111.476L256.428 147.032M270.65 111.476C270.65 114.618 273.198 117.165 276.34 117.165C279.481 117.165 282.028 114.618 282.028 111.477M270.65 111.476C270.65 108.335 273.198 105.788 276.34 105.788C279.481 105.788 282.028 108.335 282.028 111.477M270.65 129.254L256.428 147.032M270.65 129.254C270.65 132.396 273.198 134.943 276.34 134.943C279.482 134.943 282.029 132.396 282.029 129.254M270.65 129.254C270.65 126.112 273.198 123.565 276.34 123.565C279.482 123.565 282.029 126.112 282.029 129.254M256.428 147.032C256.428 150.173 253.881 152.72 250.739 152.72C247.598 152.72 245.051 150.173 245.051 147.032C245.051 143.89 247.598 141.343 250.739 141.343C253.881 141.343 256.428 143.89 256.428 147.032ZM256.428 147.032L270.65 94.0544M256.428 147.032H270.65M270.65 147.032C270.65 150.173 273.198 152.721 276.34 152.721C279.482 152.721 282.029 150.174 282.029 147.032M270.65 147.032C270.65 143.89 273.198 141.343 276.34 141.343C279.482 141.343 282.029 143.89 282.029 147.032M282.028 93.6988L296.25 120.721L282.028 111.477M282.029 129.254L295.895 120.721M282.029 147.032L295.895 120.365M296.249 120.365C296.249 123.507 298.796 126.054 301.937 126.054C305.079 126.054 307.626 123.507 307.626 120.365C307.626 117.223 305.079 114.676 301.937 114.676C298.796 114.676 296.249 117.223 296.249 120.365Z" stroke="url(#paint0_linear)" stroke-width="0.92564"/>
<defs>
<linearGradient id="paint0_linear" x1="214.264" y1="152.721" x2="310.22" y2="152.721" gradientUnits="userSpaceOnUse">
<stop stop-color="#14DDE0"/>
<stop offset="1" stop-color="#4B5AFF"/>
</linearGradient>
</defs>
</svg>
