<svg width="208" height="208" viewBox="0 0 208 208" fill="none" xmlns="http://www.w3.org/2000/svg">
<circle cx="104" cy="104" r="103.528" fill="white" stroke="#1A2530" stroke-width="0.943504"/>
<circle cx="104" cy="104" r="103.5" fill="white" stroke="#1A2530"/>
<path d="M45.6887 54.6221C43.4901 54.5106 42.7732 57.8404 41.8286 59.4761C41.8 60.3988 42.7607 63.4579 46.0543 63.8748C47.5757 64.0674 49.5946 63.6965 51.5332 63.248C53.4494 62.8046 54.3491 59.6345 52.8476 58.364C51.9367 57.5933 51.0598 56.8906 50.4317 56.4729C48.6331 55.2771 46.368 54.7516 45.8821 54.6487C45.8182 54.6351 45.7539 54.6254 45.6887 54.6221Z" fill="url(#paint0_linear)"/>
<mask id="mask0" style="mask-type:alpha" maskUnits="userSpaceOnUse" x="45" y="39" width="15" height="20">
<rect x="45.1553" y="39.7996" width="14.4651" height="19.033" rx="0.703966" fill="#A9B9C9"/>
</mask>
<g mask="url(#mask0)">
<line x1="25.3613" y1="49.3414" x2="79.415" y2="49.3414" stroke="#1A2530" stroke-width="0.710706"/>
<line x1="25.3613" y1="47.0575" x2="79.415" y2="47.0575" stroke="#1A2530" stroke-width="0.710706"/>
<line x1="25.3613" y1="58.4774" x2="79.415" y2="58.4774" stroke="#1A2530" stroke-width="0.710706"/>
<line x1="25.3613" y1="44.7736" x2="79.415" y2="44.7736" stroke="#1A2530" stroke-width="0.710706"/>
<line x1="25.3613" y1="56.1935" x2="79.415" y2="56.1935" stroke="#1A2530" stroke-width="0.710706"/>
<line x1="25.3613" y1="42.4901" x2="79.415" y2="42.4901" stroke="#1A2530" stroke-width="0.710706"/>
<line x1="25.3613" y1="53.9095" x2="79.415" y2="53.9095" stroke="#1A2530" stroke-width="0.710706"/>
<line x1="25.3613" y1="40.2054" x2="79.415" y2="40.2054" stroke="#1A2530" stroke-width="0.710706"/>
<line x1="25.3613" y1="51.6254" x2="79.415" y2="51.6254" stroke="#1A2530" stroke-width="0.710706"/>
</g>
<circle cx="104.901" cy="104" r="45.152" fill="white" stroke="#1A2530" stroke-dasharray="1.62 1.62"/>
<path d="M80.5678 100.706H86.0939V99.5177H81.9482V91.5569H80.5678V100.706ZM89.5584 100.858C90.6931 100.858 91.3319 100.282 91.5865 99.7679H91.6401V100.706H92.9446V96.1494C92.9446 94.1525 91.3721 93.7549 90.2821 93.7549C89.0402 93.7549 87.8965 94.2552 87.4498 95.5061L88.7051 95.792C88.9017 95.305 89.402 94.836 90.2999 94.836C91.1621 94.836 91.6044 95.2872 91.6044 96.0645V96.0958C91.6044 96.5827 91.1041 96.5738 89.8711 96.7167C88.5711 96.8686 87.2398 97.2081 87.2398 98.7672C87.2398 100.116 88.2539 100.858 89.5584 100.858ZM89.8487 99.7858C89.0938 99.7858 88.5487 99.4463 88.5487 98.7851C88.5487 98.0703 89.1831 97.8157 89.956 97.7129C90.3893 97.6549 91.4168 97.5387 91.6089 97.3466V98.2311C91.6089 99.0442 90.9611 99.7858 89.8487 99.7858ZM94.831 100.706H96.1354V99.6384H96.2471C96.4883 100.076 96.9797 100.84 98.2306 100.84C99.8925 100.84 101.099 99.5088 101.099 97.2885C101.099 95.0638 99.8746 93.7549 98.2172 93.7549C96.944 93.7549 96.4839 94.5322 96.2471 94.9566H96.1667V91.5569H94.831V100.706ZM96.1399 97.2751C96.1399 95.8411 96.7653 94.8896 97.9313 94.8896C99.1419 94.8896 99.7495 95.9126 99.7495 97.2751C99.7495 98.6511 99.1241 99.7009 97.9313 99.7009C96.7832 99.7009 96.1399 98.7181 96.1399 97.2751ZM105.556 100.845C107.052 100.845 108.111 100.107 108.415 98.9906L107.151 98.7628C106.91 99.4105 106.329 99.7411 105.569 99.7411C104.426 99.7411 103.657 98.9995 103.622 97.6772H108.5V97.2037C108.5 94.7243 107.017 93.7549 105.462 93.7549C103.55 93.7549 102.29 95.2112 102.29 97.3198C102.29 99.4507 103.532 100.845 105.556 100.845ZM103.626 96.6765C103.68 95.7026 104.385 94.8583 105.471 94.8583C106.507 94.8583 107.187 95.6267 107.191 96.6765H103.626ZM111.318 91.5569H109.982V100.706H111.318V91.5569ZM116.072 100.845C117.569 100.845 118.627 100.107 118.931 98.9906L117.667 98.7628C117.426 99.4105 116.845 99.7411 116.085 99.7411C114.942 99.7411 114.173 98.9995 114.138 97.6772H119.016V97.2037C119.016 94.7243 117.533 93.7549 115.978 93.7549C114.066 93.7549 112.806 95.2112 112.806 97.3198C112.806 99.4507 114.048 100.845 116.072 100.845ZM114.142 96.6765C114.196 95.7026 114.902 94.8583 115.987 94.8583C117.024 94.8583 117.703 95.6267 117.707 96.6765H114.142ZM123.067 100.84C124.318 100.84 124.809 100.076 125.05 99.6384H125.162V100.706H126.466V91.5569H125.131V94.9566H125.05C124.809 94.5322 124.353 93.7549 123.076 93.7549C121.418 93.7549 120.199 95.0638 120.199 97.2885C120.199 99.5088 121.4 100.84 123.067 100.84ZM123.362 99.7009C122.169 99.7009 121.548 98.6511 121.548 97.2751C121.548 95.9126 122.155 94.8896 123.362 94.8896C124.528 94.8896 125.153 95.8411 125.153 97.2751C125.153 98.7181 124.514 99.7009 123.362 99.7009ZM76.9928 119.706H82.7825V118.518H78.3732V115.717H82.4296V114.533H78.3732V111.745H82.7289V110.557H76.9928V119.706ZM84.5728 110.557V119.706H85.8862V113.081H85.9711L88.6694 119.693H89.7594L92.4577 113.085H92.5426V119.706H93.856V110.557H92.1807L89.268 117.669H89.1608L86.2481 110.557H84.5728ZM95.8629 119.706H97.2433V116.244H99.1196C99.1509 116.244 99.1777 116.244 99.209 116.244L101.067 119.706H102.64L100.612 116.003C101.733 115.587 102.291 114.653 102.291 113.425C102.291 111.741 101.246 110.557 99.1241 110.557H95.8629V119.706ZM97.2433 115.056V111.741H98.9767C100.339 111.741 100.902 112.389 100.902 113.425C100.902 114.457 100.339 115.056 98.9945 115.056H97.2433ZM110.262 119.706C113.05 119.706 114.663 117.977 114.663 115.118C114.663 112.272 113.05 110.557 110.356 110.557H107.3V119.706H110.262ZM108.681 118.5V111.763H110.271C112.273 111.763 113.305 112.96 113.305 115.118C113.305 117.285 112.273 118.5 110.186 118.5H108.681ZM118.269 119.858C119.404 119.858 120.042 119.282 120.297 118.768H120.351V119.706H121.655V115.149C121.655 113.152 120.083 112.755 118.993 112.755C117.751 112.755 116.607 113.255 116.16 114.506L117.416 114.792C117.612 114.305 118.113 113.836 119.01 113.836C119.873 113.836 120.315 114.287 120.315 115.064V115.096C120.315 115.583 119.815 115.574 118.582 115.717C117.282 115.869 115.95 116.208 115.95 117.767C115.95 119.116 116.964 119.858 118.269 119.858ZM118.559 118.786C117.804 118.786 117.259 118.446 117.259 117.785C117.259 117.07 117.894 116.816 118.666 116.713C119.1 116.655 120.127 116.539 120.319 116.347V117.231C120.319 118.044 119.672 118.786 118.559 118.786ZM126.637 112.844H125.23V111.2H123.894V112.844H122.889V113.916H123.894V117.968C123.89 119.215 124.841 119.818 125.896 119.795C126.32 119.791 126.606 119.711 126.762 119.652L126.521 118.549C126.432 118.567 126.267 118.607 126.052 118.607C125.619 118.607 125.23 118.464 125.23 117.691V113.916H126.637V112.844ZM130.112 119.858C131.247 119.858 131.885 119.282 132.14 118.768H132.194V119.706H133.498V115.149C133.498 113.152 131.926 112.755 130.836 112.755C129.594 112.755 128.45 113.255 128.003 114.506L129.259 114.792C129.455 114.305 129.955 113.836 130.853 113.836C131.716 113.836 132.158 114.287 132.158 115.064V115.096C132.158 115.583 131.658 115.574 130.425 115.717C129.125 115.869 127.793 116.208 127.793 117.767C127.793 119.116 128.807 119.858 130.112 119.858ZM130.402 118.786C129.647 118.786 129.102 118.446 129.102 117.785C129.102 117.07 129.737 116.816 130.509 116.713C130.943 116.655 131.97 116.539 132.162 116.347V117.231C132.162 118.044 131.515 118.786 130.402 118.786Z" fill="#1A2530"/>
<path d="M77.3696 173.538C78.5043 173.538 79.1431 172.961 79.3978 172.448H79.4514V173.386H80.7558V168.829C80.7558 166.832 79.1833 166.435 78.0933 166.435C76.8514 166.435 75.7077 166.935 75.261 168.186L76.5163 168.472C76.7129 167.985 77.2132 167.516 78.1112 167.516C78.9734 167.516 79.4156 167.967 79.4156 168.744V168.775C79.4156 169.262 78.9153 169.253 77.6823 169.396C76.3823 169.548 75.051 169.888 75.051 171.447C75.051 172.796 76.0651 173.538 77.3696 173.538ZM77.66 172.465C76.905 172.465 76.36 172.126 76.36 171.465C76.36 170.75 76.9943 170.495 77.7672 170.393C78.2005 170.335 79.228 170.218 79.4201 170.026V170.911C79.4201 171.724 78.7723 172.465 77.66 172.465ZM83.8707 169.312C83.8707 168.217 84.5408 167.592 85.47 167.592C86.3769 167.592 86.9264 168.186 86.9264 169.182V173.386H88.2621V169.021C88.2621 167.324 87.3284 166.435 85.9257 166.435C84.8937 166.435 84.2192 166.913 83.902 167.641H83.8171V166.524H82.535V173.386H83.8707V169.312ZM92.6222 173.52C93.8731 173.52 94.3645 172.756 94.6057 172.318H94.7174V173.386H96.0219V164.237H94.6861V167.636H94.6057C94.3645 167.212 93.9088 166.435 92.6312 166.435C90.9738 166.435 89.7542 167.743 89.7542 169.968C89.7542 172.188 90.9559 173.52 92.6222 173.52ZM92.9171 172.381C91.7243 172.381 91.1033 171.331 91.1033 169.955C91.1033 168.592 91.7109 167.569 92.9171 167.569C94.0831 167.569 94.7085 168.521 94.7085 169.955C94.7085 171.398 94.0697 172.381 92.9171 172.381ZM101.258 173.386H102.593V169.155C102.593 168.23 103.241 167.587 104.001 167.587C104.742 167.587 105.256 168.079 105.256 168.825V173.386H106.587V169.012C106.587 168.186 107.092 167.587 107.963 167.587C108.669 167.587 109.25 167.98 109.25 168.909V173.386H110.585V168.784C110.585 167.216 109.71 166.435 108.468 166.435C107.481 166.435 106.739 166.908 106.408 167.641H106.337C106.038 166.89 105.408 166.435 104.492 166.435C103.585 166.435 102.911 166.886 102.625 167.641H102.54V166.524H101.258V173.386ZM114.373 173.538C115.507 173.538 116.146 172.961 116.401 172.448H116.454V173.386H117.759V168.829C117.759 166.832 116.186 166.435 115.096 166.435C113.854 166.435 112.711 166.935 112.264 168.186L113.519 168.472C113.716 167.985 114.216 167.516 115.114 167.516C115.976 167.516 116.419 167.967 116.419 168.744V168.775C116.419 169.262 115.918 169.253 114.685 169.396C113.385 169.548 112.054 169.888 112.054 171.447C112.054 172.796 113.068 173.538 114.373 173.538ZM114.663 172.465C113.908 172.465 113.363 172.126 113.363 171.465C113.363 170.75 113.997 170.495 114.77 170.393C115.204 170.335 116.231 170.218 116.423 170.026V170.911C116.423 171.724 115.775 172.465 114.663 172.465ZM120.874 169.312C120.874 168.217 121.544 167.592 122.473 167.592C123.38 167.592 123.929 168.186 123.929 169.182V173.386H125.265V169.021C125.265 167.324 124.331 166.435 122.929 166.435C121.897 166.435 121.222 166.913 120.905 167.641H120.82V166.524H119.538V173.386H120.874V169.312ZM127.655 175.959C128.759 175.959 129.456 175.383 129.853 174.302L132.69 166.537L131.247 166.524L129.509 171.849H129.438L127.7 166.524H126.27L128.781 173.475L128.616 173.931C128.276 174.842 127.798 174.918 127.065 174.717L126.744 175.812C126.905 175.883 127.253 175.959 127.655 175.959ZM89.3287 192.386H90.6644V188.155C90.6644 187.23 91.3122 186.587 92.0716 186.587C92.8132 186.587 93.327 187.079 93.327 187.825V192.386H94.6582V188.012C94.6582 187.186 95.163 186.587 96.0342 186.587C96.74 186.587 97.3208 186.98 97.3208 187.909V192.386H98.6565V187.784C98.6565 186.216 97.7809 185.435 96.539 185.435C95.5517 185.435 94.8101 185.908 94.4795 186.641H94.4081C94.1087 185.89 93.4788 185.435 92.563 185.435C91.6562 185.435 90.9816 185.886 90.6957 186.641H90.6108V185.524H89.3287V192.386ZM103.337 192.524C105.272 192.524 106.536 191.108 106.536 188.986C106.536 186.851 105.272 185.435 103.337 185.435C101.403 185.435 100.139 186.851 100.139 188.986C100.139 191.108 101.403 192.524 103.337 192.524ZM103.342 191.403C102.077 191.403 101.488 190.299 101.488 188.982C101.488 187.668 102.077 186.551 103.342 186.551C104.597 186.551 105.187 187.668 105.187 188.982C105.187 190.299 104.597 191.403 103.342 191.403ZM108.027 192.386H109.362V188.195C109.362 187.297 110.055 186.65 111.002 186.65C111.279 186.65 111.592 186.699 111.699 186.73V185.452C111.565 185.435 111.301 185.421 111.132 185.421C110.327 185.421 109.639 185.877 109.389 186.614H109.318V185.524H108.027V192.386ZM115.567 192.524C117.063 192.524 118.122 191.787 118.426 190.67L117.161 190.442C116.92 191.09 116.339 191.421 115.58 191.421C114.436 191.421 113.668 190.679 113.632 189.357H118.511V188.883C118.511 186.404 117.027 185.435 115.473 185.435C113.561 185.435 112.301 186.891 112.301 188.999C112.301 191.13 113.543 192.524 115.567 192.524ZM113.637 188.356C113.69 187.382 114.396 186.538 115.482 186.538C116.518 186.538 117.197 187.306 117.202 188.356H113.637Z" fill="#1A2530"/>
<path d="M34.4233 149.22C34.4233 149.22 33.2929 146.887 33.3588 144.803M47.3524 136.291C47.3524 136.291 48.4189 138.492 48.4197 140.528M34.2078 142.54L37.0191 145.351M34.2078 142.54C33.615 143.133 33.3859 143.947 33.3588 144.803M34.2078 142.54C34.8007 141.947 35.6149 141.718 36.4713 141.691M47.5679 142.971L44.7566 140.159M47.5679 142.971C48.202 142.337 48.42 141.449 48.4197 140.528M47.5679 142.971C46.9337 143.605 46.0462 143.823 45.1248 143.823M48.4197 140.528L46.4041 138.512M45.1248 143.823C43.0891 143.822 40.8879 142.755 40.8879 142.755C40.8879 142.755 38.5549 141.625 36.4713 141.691M45.1248 143.823L43.1092 141.807M33.3588 144.803L35.4628 146.907M36.4713 141.691L38.5754 143.795" stroke="#1A2530" stroke-width="0.710706" stroke-linecap="round"/>
<path d="M46.9638 151.341C44.6068 153.241 38.7855 152.463 39.3871 154.708C40.0824 157.303 43.2056 156.841 45.8264 155.993C51.5046 153.809 55.4359 148.131 53.6886 147.694C51.0678 147.039 49.3207 149.441 46.9638 151.341Z" fill="url(#paint1_linear)"/>
<circle cx="41.458" cy="143.326" r="11.3565" transform="rotate(90 41.458 143.326)" stroke="#1A2530" stroke-width="0.710706"/>
<circle cx="41.4583" cy="143.326" r="13.9772" transform="rotate(90 41.4583 143.326)" stroke="#1A2530" stroke-width="0.710706"/>
<path d="M160.243 64.3044C162.736 64.3634 165.382 63.5022 165.382 57.1028C165.382 53.4762 165.382 49.9321 164.092 47.712C163.423 46.5621 161.932 47.1312 161.549 48.4052L157.815 60.8421C157.361 62.3541 158.665 64.267 160.243 64.3044Z" fill="url(#paint2_linear)"/>
<rect x="0.499785" y="0.00924412" width="2.71206" height="6.61479" rx="1.35603" transform="matrix(0.716369 -0.697722 0.690077 0.723736 155.791 53.5864)" stroke="#1A2530" stroke-width="0.710706"/>
<line x1="158.157" y1="55.184" x2="159.736" y2="53.6047" stroke="#1A2530" stroke-width="0.710706"/>
<path d="M153.235 46.3141H165.159V62.6998C165.159 63.2886 164.682 63.7659 164.093 63.7659H154.301C153.713 63.7659 153.235 63.2886 153.235 62.6998V46.3141Z" stroke="#1A2530" stroke-width="0.710706"/>
<rect x="152.446" y="41.5763" width="13.5034" height="4.81701" rx="1.06606" stroke="#1A2530" stroke-width="0.710706"/>
<rect x="153.235" y="50.2626" width="11.9241" height="8.76538" stroke="#1A2530" stroke-width="0.710706"/>
<g clip-path="url(#clip0)">
<path d="M187.752 96.4243C188.167 98.2016 188.329 102.548 190.15 102.123C191.204 101.877 191.43 101.489 191.52 99.7771C191.609 98.0655 189.981 93.1873 188.5 93.5332C187.151 93.8482 187.337 94.6469 187.752 96.4243Z" fill="url(#paint3_linear)"/>
<path d="M185.506 98.4289C187.157 99.3685 191.469 100.904 190.46 102.395C189.875 103.26 189.413 103.337 187.666 102.87C185.919 102.403 181.543 99.3861 182.364 98.1723C183.112 97.0669 183.854 97.4892 185.506 98.4289Z" fill="url(#paint4_linear)"/>
<path d="M192.029 107.38C191.131 105.78 188.294 102.411 189.95 101.565C190.91 101.074 191.344 101.221 192.576 102.449C193.808 103.677 195.905 108.384 194.557 109.073C193.33 109.7 192.927 108.981 192.029 107.38Z" fill="url(#paint5_linear)"/>
<path d="M191.696 107.776C191.281 105.999 191.119 101.652 189.299 102.077C188.244 102.324 188.018 102.712 187.929 104.424C187.839 106.135 189.468 111.013 190.949 110.667C192.297 110.353 192.111 109.554 191.696 107.776Z" fill="url(#paint6_linear)"/>
<line x1="175.724" y1="92.0365" x2="182.522" y2="92.0365" stroke="#1A2530" stroke-width="0.710706" stroke-linecap="round" stroke-linejoin="round"/>
<line x1="185.736" y1="92.0365" x2="192.534" y2="92.0365" stroke="#1A2530" stroke-width="0.710706" stroke-linecap="round" stroke-linejoin="round"/>
<line x1="165.712" y1="95.3739" x2="172.51" y2="95.3739" stroke="#1A2530" stroke-width="0.710706" stroke-linecap="round" stroke-linejoin="round"/>
<line x1="165.712" y1="93.7049" x2="172.51" y2="93.7049" stroke="#1A2530" stroke-width="0.710706" stroke-linecap="round" stroke-linejoin="round"/>
<line x1="165.712" y1="97.0424" x2="172.51" y2="97.0424" stroke="#1A2530" stroke-width="0.710706" stroke-linecap="round" stroke-linejoin="round"/>
<line x1="175.724" y1="95.3739" x2="182.522" y2="95.3739" stroke="#1A2530" stroke-width="0.710706" stroke-linecap="round" stroke-linejoin="round"/>
<line x1="185.736" y1="95.3739" x2="192.534" y2="95.3739" stroke="#1A2530" stroke-width="0.710706" stroke-linecap="round" stroke-linejoin="round"/>
<line x1="185.736" y1="93.7049" x2="192.534" y2="93.7049" stroke="#1A2530" stroke-width="0.710706" stroke-linecap="round" stroke-linejoin="round"/>
<line x1="165.712" y1="98.7111" x2="172.51" y2="98.7111" stroke="#1A2530" stroke-width="0.710706" stroke-linecap="round" stroke-linejoin="round"/>
<line x1="175.724" y1="98.7111" x2="182.522" y2="98.7111" stroke="#1A2530" stroke-width="0.710706" stroke-linecap="round" stroke-linejoin="round"/>
<line x1="185.736" y1="98.7111" x2="192.534" y2="98.7111" stroke="#1A2530" stroke-width="0.710706" stroke-linecap="round" stroke-linejoin="round"/>
<line x1="165.712" y1="102.048" x2="172.51" y2="102.048" stroke="#1A2530" stroke-width="0.710706" stroke-linecap="round" stroke-linejoin="round"/>
<line x1="165.712" y1="103.717" x2="172.51" y2="103.717" stroke="#1A2530" stroke-width="0.710706" stroke-linecap="round" stroke-linejoin="round"/>
<line x1="175.724" y1="102.048" x2="182.522" y2="102.048" stroke="#1A2530" stroke-width="0.710706" stroke-linecap="round" stroke-linejoin="round"/>
<line x1="175.724" y1="103.717" x2="182.522" y2="103.717" stroke="#1A2530" stroke-width="0.710706" stroke-linecap="round" stroke-linejoin="round"/>
<line x1="175.724" y1="105.386" x2="182.522" y2="105.386" stroke="#1A2530" stroke-width="0.710706" stroke-linecap="round" stroke-linejoin="round"/>
<line x1="185.736" y1="105.386" x2="192.534" y2="105.386" stroke="#1A2530" stroke-width="0.710706" stroke-linecap="round" stroke-linejoin="round"/>
<line x1="165.712" y1="107.055" x2="172.51" y2="107.055" stroke="#1A2530" stroke-width="0.710706" stroke-linecap="round" stroke-linejoin="round"/>
<line x1="175.724" y1="108.723" x2="182.522" y2="108.723" stroke="#1A2530" stroke-width="0.710706" stroke-linecap="round" stroke-linejoin="round"/>
</g>
<path d="M161.545 134.893C160.668 133.462 159.718 133.067 157.468 134.12C155.273 135.148 152.162 139.094 151.267 142.104C150.884 143.394 152.233 143.906 153.316 143.108L160.94 137.483C161.758 136.88 162.076 135.759 161.545 134.893Z" fill="url(#paint7_linear)"/>
<path d="M183.379 148.428C182.759 152.115 179.378 153.661 174.866 153.744C170.716 153.82 164.36 146.842 162.157 141.717C161.562 140.334 162.901 139.273 164.311 139.801L182.123 146.474C182.942 146.781 183.524 147.566 183.379 148.428Z" fill="url(#paint8_linear)"/>
<path d="M152.825 143.044C152.825 143.044 154.15 139.228 156.519 137.005M181.318 143.044C181.318 143.044 180.067 146.645 177.825 148.889M159.948 135.446L159.948 141.642M159.948 135.446C158.642 135.446 157.492 136.091 156.519 137.005M159.948 135.446C161.255 135.446 162.404 136.091 163.378 137.005M174.194 150.642V144.447M174.194 150.642C175.592 150.642 176.81 149.904 177.825 148.889M174.194 150.642C172.797 150.642 171.579 149.904 170.564 148.889M177.825 148.889V144.447M170.564 148.889C168.322 146.645 167.071 143.044 167.071 143.044C167.071 143.044 165.746 139.228 163.378 137.005M170.564 148.889V144.447M156.519 137.005L156.519 141.642M163.378 137.005V141.642" stroke="#1A2530" stroke-width="0.943504" stroke-linecap="round"/>
<path d="M30.6026 92.0431C28.1775 91.2435 26.3795 94.7524 24.8348 96.2969C24.5272 97.3169 24.6845 101.014 28.2319 102.463C30.0793 103.218 32.8456 103.362 35.3999 103.427C37.3661 103.476 39.0521 100.694 37.9458 99.0681C36.9963 97.6723 36.0192 96.3088 35.3231 95.5187C33.6604 93.6313 31.2641 92.363 30.7826 92.119C30.7243 92.0895 30.6646 92.0636 30.6026 92.0431Z" fill="url(#paint9_linear)"/>
<path d="M39.066 91.8076C39.8324 93.1558 41.5381 93.6128 42.8758 92.8285C44.2135 92.0441 44.6767 90.3154 43.9104 88.9672C43.1441 87.6191 41.4384 87.162 40.1007 87.9464C38.7629 88.7308 38.2997 90.4595 39.066 91.8076ZM39.066 91.8076L34.7326 94.7879M34.7326 94.7879C34.283 93.918 33.4883 93.2358 32.4753 92.9644C30.8509 92.5291 29.1842 93.2894 28.3888 94.7097M34.7326 94.7879C35.1376 95.5714 35.2626 96.5071 35.0148 97.4318C34.5772 99.0647 33.1161 100.146 31.5227 100.153M32.0131 104.937C31.5542 105.063 31.12 105.308 30.7591 105.673C29.6653 106.78 29.6593 108.568 30.7458 109.667C31.8322 110.766 33.5997 110.76 34.6935 109.654C35.7873 108.547 35.7933 106.759 34.7068 105.66C33.9788 104.923 32.945 104.683 32.0131 104.937ZM32.0131 104.937L31.5227 100.153M31.5227 100.153C31.2119 100.155 30.8961 100.115 30.5818 100.031C28.6564 99.5151 27.5195 97.515 28.0423 95.5636C28.1241 95.2586 28.2415 94.9728 28.3888 94.7097M24.0392 92.3552C24.4113 91.7228 24.542 90.9467 24.342 90.1825C23.948 88.6773 22.4203 87.7884 20.9298 88.1971C19.4393 88.6058 18.5504 90.1573 18.9444 91.6625C19.3384 93.1677 20.8661 94.0566 22.3566 93.6479C23.0903 93.4467 23.6783 92.9685 24.0392 92.3552ZM24.0392 92.3552L28.3888 94.7097" stroke="#1A2530" stroke-width="0.943504"/>
<path d="M98.8341 22.4542C98.68 25.8265 97.1236 33.7802 99.8142 33.6341C101.373 33.5495 101.844 32.9216 102.669 29.8425C103.494 26.7634 103.24 17.3393 101.051 17.4581C99.0574 17.5663 98.9881 19.0819 98.8341 22.4542Z" fill="url(#paint10_linear)"/>
<path d="M97.1299 22.9202V21.4544V19.9885V17.5307C97.1299 17.269 97.342 17.0569 97.6037 17.0569H110.302C110.563 17.0569 110.775 17.269 110.775 17.5307V19.9885V21.4544V22.9202M97.1299 22.9202V25.7186M97.1299 22.9202H103.953M110.775 22.9202V25.7186M110.775 22.9202H107.364M97.1299 28.517H110.775M97.1299 28.517V25.7186M97.1299 28.517V31.3154M110.775 28.517V25.7186M110.775 28.517V31.3154M97.1299 25.7186H110.775M97.1299 31.3154V33.64C97.1299 33.9017 97.342 34.1138 97.6037 34.1138H110.302C110.563 34.1138 110.775 33.9017 110.775 33.64V31.3154M97.1299 31.3154H103.953M110.775 31.3154H108.501H107.364M103.953 31.3154H106.227H107.364M103.953 31.3154V22.9202M103.953 22.9202H107.364M107.364 31.3154V22.9202" stroke="#1A2530" stroke-width="0.943504"/>
<path d="M98.8359 19.1892H103.953M98.8359 21.3213H103.953" stroke="#1A2530" stroke-width="0.943504" stroke-linecap="round"/>
<defs>
<linearGradient id="paint0_linear" x1="57.0049" y1="64.2434" x2="41.6953" y2="63.7678" gradientUnits="userSpaceOnUse">
<stop stop-color="#DEFFDE"/>
<stop offset="1" stop-color="#38E8A9"/>
</linearGradient>
<linearGradient id="paint1_linear" x1="54.1074" y1="156.661" x2="54.1074" y2="147.584" gradientUnits="userSpaceOnUse">
<stop stop-color="#DEFFDE"/>
<stop offset="1" stop-color="#38E8A9"/>
</linearGradient>
<linearGradient id="paint2_linear" x1="156.83" y1="45.9587" x2="165.382" y2="45.9587" gradientUnits="userSpaceOnUse">
<stop stop-color="#DEFFDE"/>
<stop offset="1" stop-color="#38E8A9"/>
</linearGradient>
<linearGradient id="paint3_linear" x1="191.846" y1="93.5593" x2="187.515" y2="93.3322" gradientUnits="userSpaceOnUse">
<stop stop-color="#DEFFDE"/>
<stop offset="1" stop-color="#38E8A9"/>
</linearGradient>
<linearGradient id="paint4_linear" x1="181.32" y1="101.173" x2="182.382" y2="97.2022" gradientUnits="userSpaceOnUse">
<stop stop-color="#DEFFDE"/>
<stop offset="1" stop-color="#38E8A9"/>
</linearGradient>
<linearGradient id="paint5_linear" x1="197.053" y1="106.91" x2="194.037" y2="109.937" gradientUnits="userSpaceOnUse">
<stop stop-color="#DEFFDE"/>
<stop offset="1" stop-color="#38E8A9"/>
</linearGradient>
<linearGradient id="paint6_linear" x1="187.603" y1="110.641" x2="191.933" y2="110.869" gradientUnits="userSpaceOnUse">
<stop stop-color="#DEFFDE"/>
<stop offset="1" stop-color="#38E8A9"/>
</linearGradient>
<linearGradient id="paint7_linear" x1="151.223" y1="144.652" x2="148.301" y2="138.413" gradientUnits="userSpaceOnUse">
<stop stop-color="#DEFFDE"/>
<stop offset="1" stop-color="#38E8A9"/>
</linearGradient>
<linearGradient id="paint8_linear" x1="161.373" y1="138.7" x2="161.655" y2="153.987" gradientUnits="userSpaceOnUse">
<stop stop-color="#DEFFDE"/>
<stop offset="1" stop-color="#38E8A9"/>
</linearGradient>
<linearGradient id="paint9_linear" x1="40.3301" y1="106.145" x2="23.4041" y2="101.042" gradientUnits="userSpaceOnUse">
<stop stop-color="#DEFFDE"/>
<stop offset="1" stop-color="#38E8A9"/>
</linearGradient>
<linearGradient id="paint10_linear" x1="98.2471" y1="17.457" x2="103.103" y2="17.457" gradientUnits="userSpaceOnUse">
<stop stop-color="#DEFFDE"/>
<stop offset="1" stop-color="#38E8A9"/>
</linearGradient>
<clipPath id="clip0">
<rect width="34.1139" height="34.1139" fill="white" transform="translate(162.988 82.4421)"/>
</clipPath>
</defs>
</svg>
