<svg width="42" height="44" viewBox="0 0 42 44" fill="none" xmlns="http://www.w3.org/2000/svg">
<path d="M40.7906 14.742C41.4647 16.6588 41.8745 18.7024 41.9754 20.828L41.476 20.8517C41.4919 21.1873 41.5 21.5251 41.5 21.8649C41.5 22.2046 41.4919 22.5424 41.476 22.8781L41.9754 22.9018C41.8745 25.0273 41.4647 27.0709 40.7906 28.9877L40.3189 28.8218C40.0939 29.4618 39.8386 30.0872 39.555 30.6964L40.0082 30.9075C39.125 32.8043 37.9726 34.5475 36.6007 36.0866L36.2275 35.7539C35.778 36.2583 35.3044 36.7401 34.8085 37.1977L35.1476 37.5652C33.6272 38.9681 31.9022 40.1481 30.0233 41.054L29.8062 40.6036C29.2006 40.8955 28.5787 41.1583 27.9423 41.39L28.1134 41.8599C26.2012 42.5562 24.1604 42.9797 22.0368 43.0842L22.0123 42.5848C21.6769 42.6013 21.3394 42.6096 21 42.6096C20.6606 42.6096 20.3231 42.6013 19.9877 42.5848L19.9632 43.0842C17.8396 42.9797 15.7987 42.5562 13.8866 41.8599L14.0577 41.39C13.4213 41.1583 12.7994 40.8955 12.1938 40.6036L11.9767 41.054C10.0978 40.1481 8.37284 38.9681 6.85244 37.5652L7.19152 37.1977C6.69565 36.7401 6.22204 36.2583 5.77253 35.7539L5.39927 36.0866C4.02743 34.5475 2.87497 32.8043 1.99176 30.9075L2.44503 30.6964C2.16136 30.0872 1.90614 29.4618 1.68109 28.8218L1.2094 28.9877C0.535289 27.0709 0.12555 25.0273 0.0245753 22.9018L0.524012 22.8781C0.508066 22.5424 0.5 22.2046 0.5 21.8649C0.5 21.5251 0.508066 21.1873 0.524012 20.8517L0.0245752 20.828C0.125549 18.7024 0.535289 16.6588 1.2094 14.742L1.68108 14.9079C1.90614 14.268 2.16136 13.6426 2.44503 13.0333L1.99176 12.8223C2.87498 10.9255 4.02743 9.18228 5.39927 7.64312L5.77253 7.97581C6.22204 7.47148 6.69565 6.9896 7.19152 6.53203L6.85245 6.16457C8.37284 4.76162 10.0978 3.58165 11.9767 2.67579L12.1938 3.12618C12.7994 2.83423 13.4213 2.57148 14.0577 2.33971L13.8866 1.86989C15.7988 1.17359 17.8396 0.750011 19.9632 0.645559L19.9877 1.14496C20.3231 1.12846 20.6606 1.12012 21 1.12012C21.3394 1.12012 21.6769 1.12846 22.0123 1.14496L22.0368 0.645559C24.1604 0.750011 26.2013 1.17359 28.1134 1.86989L27.9423 2.33971C28.5787 2.57148 29.2006 2.83423 29.8062 3.12618L30.0233 2.67579C31.9022 3.58165 33.6272 4.76162 35.1476 6.16457L34.8085 6.53203C35.3044 6.9896 35.778 7.47148 36.2275 7.97581L36.6007 7.64312C37.9726 9.18228 39.125 10.9255 40.0082 12.8223L39.555 13.0333C39.8386 13.6426 40.0939 14.268 40.3189 14.9079L40.7906 14.742Z" stroke="black" stroke-dasharray="2 6"/>
<g style="mix-blend-mode:multiply">
<rect width="8.74541" height="8.74541" rx="1" transform="matrix(0.702998 -0.711192 0.702998 0.711192 24 28.085)" fill="url(#paint0_linear)"/>
</g>
<line y1="-0.5" x2="22.4924" y2="-0.5" transform="matrix(0.702998 -0.711192 0.702998 0.711192 15.0938 31.8865)" stroke="black"/>
<rect x="12.5" y="18.3181" width="3" height="3.04662" stroke="black"/>
<rect x="12.5" y="12.2483" width="3" height="3.04662" stroke="black"/>
<rect x="19.5" y="12.2483" width="3" height="3.04662" stroke="black"/>
<rect y="0.711192" width="8.60871" height="8.60871" transform="matrix(0.702998 0.711192 -0.702998 0.711192 28.0019 21.8143)" stroke="black"/>
<defs>
<linearGradient id="paint0_linear" x1="0" y1="0" x2="7.28701" y2="7.28884" gradientUnits="userSpaceOnUse">
<stop stop-color="#0057FF"/>
<stop offset="0.588542" stop-color="#5AEEFF"/>
<stop offset="1" stop-color="#DEFFDE"/>
</linearGradient>
</defs>
</svg>
