<svg width="26" height="26" viewBox="0 0 26 26" fill="none" xmlns="http://www.w3.org/2000/svg">
<g clip-path="url(#clip0_31179:1604)">
<path d="M4.42397 10.8832C4.1321 10.8832 3.85582 10.9502 3.61075 11.0706C2.95683 11.3953 2.54466 12.0636 2.54688 12.7955C2.54688 13.8509 3.38795 14.7078 4.42285 14.7078C5.45998 14.7078 6.2988 13.8509 6.2988 12.7955C6.2988 11.739 5.45998 10.8821 4.42285 10.8821L4.42397 10.8832ZM12.5104 10.8832C11.4745 10.8832 10.6334 11.739 10.6334 12.7955C10.6334 13.8509 11.4733 14.7078 12.5104 14.7078C13.5465 14.7078 14.3864 13.8509 14.3864 12.7955C14.3864 11.739 13.5454 10.8821 12.5104 10.8821V10.8832Z" fill="#221F20"/>
<path d="M20.5755 16.6214C18.5012 16.6214 16.8213 14.9088 16.8213 12.7946C16.8213 10.6826 18.5012 8.97 20.5755 8.97C22.3534 8.97 23.8417 10.2329 24.2294 11.9266H22.2465C22.0924 11.6141 21.8544 11.3509 21.5593 11.1665C21.264 10.982 20.9234 10.8836 20.5755 10.8823C19.5372 10.8823 18.6972 11.7391 18.6972 12.7957C18.6972 13.8511 19.5372 14.708 20.5743 14.708C20.9231 14.7067 21.2646 14.6078 21.5603 14.4225C21.8559 14.2372 22.094 13.9728 22.2475 13.6592L24.2338 13.6402C23.8562 15.3473 22.3623 16.6214 20.5743 16.6214H20.5755ZM12.509 16.6214C10.4448 16.6214 8.77045 14.9233 8.75597 12.8225L8.71142 6.11047H10.6097L10.6208 9.71195C11.1767 9.27012 11.8206 8.97 12.509 8.97C14.5811 8.97 16.261 10.6826 16.261 12.7957C16.261 14.9088 14.58 16.6214 12.509 16.6214ZM6.33082 16.6214L6.32302 15.663C5.89748 16.097 5.16114 16.6214 4.2911 16.6214C2.21908 16.6214 0.669512 14.9088 0.669512 12.7946C0.669512 10.6826 2.34941 8.97 4.42144 8.97C4.7445 8.97 5.05976 9.01124 5.36054 9.09049C6.97917 9.51446 8.17446 11.0128 8.17446 12.7946V12.8057L8.1968 16.6214H6.3297H6.33082ZM12.509 0.0444336C5.60005 0.0444336 0 5.75344 0 12.7957C0 19.8379 5.60005 25.5481 12.509 25.5481C19.4158 25.5481 25.017 19.8379 25.017 12.7957C25.017 5.75344 19.4158 0.0444336 12.509 0.0444336Z" fill="#221F20"/>
</g>
<defs>
<clipPath id="clip0_31179:1604">
<rect width="25.4091" height="26" fill="white"/>
</clipPath>
</defs>
</svg>
