<svg width="86" height="25" viewBox="0 0 86 25" fill="none" xmlns="http://www.w3.org/2000/svg">
<g clip-path="url(#clip0_34639_2314)">
<path d="M82.9374 24.0043C74.6191 24.0043 66.2929 24.0043 57.9746 24.0043C57.9746 23.9735 57.9668 23.9427 57.9668 23.9119C57.9668 16.2752 57.9668 8.63853 57.9668 1.00183C57.9668 0.917149 57.9823 0.840166 57.9901 0.763184C66.3163 0.763184 74.6191 0.763184 82.9374 0.763184C82.9374 8.52305 82.9374 16.2598 82.9374 24.0043ZM77.8376 8.23822C77.8376 7.27593 77.8453 6.32904 77.8298 5.38985C77.8298 5.30517 77.7132 5.1743 77.6277 5.13581C75.9174 4.45836 74.1759 3.90408 72.3101 3.8194C70.5299 3.73472 68.804 3.95027 67.1325 4.62002C62.8567 6.34444 61.263 10.5015 61.8306 13.6116C62.3747 16.6293 64.0073 18.8695 66.8604 20.0474C70.5299 21.5562 74.1915 21.2021 77.7521 19.5316C77.9386 19.4469 77.9931 19.3314 77.9931 19.139C77.9853 18.2537 77.9931 17.3761 77.9853 16.4908C77.9853 16.4138 77.9697 16.3368 77.962 16.2521C77.3867 16.5524 76.8503 16.8603 76.2905 17.122C74.0205 18.2075 71.6804 18.6155 69.1927 17.9381C64.4194 16.637 63.7119 11.1636 66.4406 8.34599C67.7856 6.9526 69.5348 6.43682 71.4317 6.40603C72.8621 6.38293 74.2459 6.72935 75.5753 7.24514C76.3372 7.54537 77.0679 7.89949 77.8376 8.23822Z" fill="black"/>
<path d="M54.1637 24.0044C45.822 24.0044 37.4803 24.0044 29.1309 24.0044C29.1386 23.8582 29.1542 23.7119 29.1542 23.5579C29.1542 16.0983 29.1542 8.64636 29.1542 1.18672C29.1542 1.04045 29.1542 0.894184 29.1542 0.755615C37.5036 0.755615 45.8065 0.755615 54.1326 0.755615C54.1326 0.917279 54.1326 1.04815 54.1326 1.18672C54.1326 8.64636 54.1326 16.0983 54.1326 23.5579C54.1404 23.7119 54.1559 23.8582 54.1637 24.0044ZM35.7311 20.7404C35.8866 20.7404 36.0032 20.7404 36.1198 20.7404C38.1178 20.7404 40.1158 20.7635 42.1137 20.7327C42.8367 20.7173 43.5753 20.6403 44.2827 20.4863C45.5033 20.2246 46.5994 19.6934 47.3691 18.6695C48.8228 16.7296 48.4963 13.427 45.4566 12.1568C45.1768 12.0413 44.8891 11.9489 44.5704 11.8334C44.6403 11.7873 44.6714 11.7642 44.7103 11.7411C47.4701 10.2014 47.0892 6.6602 45.0912 5.18983C44.0106 4.38921 42.7668 4.05048 41.4452 4.01969C39.6493 3.9812 37.8535 4.01199 36.0577 4.01199C35.9566 4.01199 35.8477 4.01969 35.7311 4.02739C35.7311 9.60094 35.7311 15.1514 35.7311 20.7404Z" fill="black"/>
<path d="M25.33 24.0043C17.0117 24.0043 8.68555 24.0043 0.367188 24.0043C0.367188 16.2445 0.367188 8.49229 0.367188 0.732422C8.68555 0.732422 16.9961 0.732422 25.3378 0.732422C25.3378 0.901784 25.3378 1.02496 25.3378 1.14813C25.3378 5.92876 25.3378 10.7094 25.3378 15.49C25.33 18.3307 25.33 21.1714 25.33 24.0043ZM6.95191 4.00419C6.95191 9.60854 6.95191 15.1513 6.95191 20.7403C7.09962 20.7403 7.22401 20.7403 7.34839 20.7403C9.33858 20.7403 11.3288 20.7634 13.3112 20.7326C14.0342 20.7172 14.7727 20.6402 15.4802 20.4862C16.6852 20.2322 17.758 19.7087 18.5354 18.7233C20.0125 16.8372 19.7715 13.45 16.6696 12.1567C16.3898 12.0412 16.1021 11.9488 15.7756 11.8333C15.8533 11.7795 15.8922 11.7487 15.9388 11.7256C18.6443 10.209 18.31 6.6524 16.2654 5.16663C15.177 4.37371 13.9331 4.04268 12.6115 4.01189C10.8468 3.9734 9.08981 4.00419 7.32507 4.00419C7.20846 4.00419 7.09184 4.00419 6.95191 4.00419Z" fill="black"/>
<path d="M9.95312 18.1304C11.2359 18.1304 12.4953 18.1766 13.7469 18.1073C14.2522 18.0842 14.7887 17.8994 15.2318 17.6531C16.6622 16.8679 16.6778 14.8663 15.2551 14.0734C14.7964 13.8193 14.2289 13.6654 13.7003 13.6269C12.6197 13.5499 11.5313 13.5884 10.4507 13.5807C10.2952 13.5807 10.1319 13.5807 9.95312 13.5807C9.95313 15.1126 9.95312 16.6061 9.95312 18.1304ZM9.95312 10.894C10.8005 10.894 11.6246 10.9325 12.4409 10.8786C12.8373 10.8555 13.2416 10.7015 13.5992 10.5245C14.4544 10.1088 14.8742 9.30044 14.7653 8.40744C14.6565 7.56063 14.0734 6.95247 13.1405 6.73691C12.8296 6.66763 12.5031 6.62914 12.1843 6.62144C11.4458 6.60604 10.7072 6.61374 9.95312 6.61374C9.95312 8.07641 9.95312 9.4929 9.95312 10.894Z" fill="white"/>
<path d="M38.7656 13.5886C38.9366 13.5886 39.0921 13.5886 39.2476 13.5886C40.336 13.5963 41.4166 13.5886 42.505 13.6194C43.088 13.6348 43.6478 13.7888 44.1453 14.1121C45.4358 14.9512 45.4436 16.8219 44.1142 17.6071C43.6478 17.8766 43.0803 18.0767 42.5438 18.1075C41.2922 18.1768 40.0328 18.1306 38.7578 18.1306C38.7656 16.6217 38.7656 15.1283 38.7656 13.5886Z" fill="black"/>
<path d="M38.7578 10.9404C38.7578 9.48541 38.7578 8.06892 38.7578 6.56006C39.8462 6.62164 40.919 6.60625 41.9763 6.76021C42.9015 6.89108 43.4845 7.59163 43.5778 8.40765C43.6789 9.28525 43.2669 10.1167 42.4272 10.5093C41.9608 10.7248 41.4321 10.8095 40.9268 10.9327C40.7869 10.9712 40.6236 10.9404 40.4759 10.9404C39.9162 10.9404 39.3564 10.9404 38.7578 10.9404Z" fill="black"/>
<path d="M9.95312 18.1304C9.95312 16.6061 9.95312 15.1204 9.95312 13.5884C10.1319 13.5884 10.2874 13.5884 10.4507 13.5884C11.5391 13.5961 12.6197 13.5576 13.7003 13.6346C14.2289 13.6731 14.7964 13.8271 15.2551 14.0811C16.6778 14.874 16.6622 16.8756 15.2318 17.6608C14.7887 17.9072 14.2445 18.0842 13.7469 18.115C12.4953 18.1689 11.2359 18.1304 9.95312 18.1304Z" fill="black"/>
<path d="M9.95312 10.894C9.95312 9.4929 9.95312 8.07642 9.95312 6.61374C10.7072 6.61374 11.4458 6.60604 12.1843 6.62144C12.5031 6.62914 12.8296 6.66763 13.1405 6.73691C14.0812 6.95247 14.6643 7.56063 14.7653 8.40744C14.8742 9.30044 14.4544 10.1165 13.5992 10.5245C13.2416 10.7015 12.8373 10.8555 12.4409 10.8786C11.6246 10.9325 10.7927 10.894 9.95312 10.894Z" fill="black"/>
</g>
<defs>
<clipPath id="clip0_34639_2314">
<rect width="85" height="24" fill="white" transform="translate(0.328125 0.668945)"/>
</clipPath>
</defs>
</svg>
