<svg width="113" height="24" viewBox="0 0 113 24" fill="none" xmlns="http://www.w3.org/2000/svg">
<g clip-path="url(#clip0_34639_2302)">
<path d="M0.527344 4.35777V0.274435H1.77278C2.40894 0.274435 3.11678 0.49812 3.11678 1.3183C3.11678 1.74373 2.8211 2.099 2.37758 2.19549V2.20865C2.91966 2.26566 3.32286 2.63408 3.32286 3.23058C3.32286 3.9104 2.72702 4.36215 1.7683 4.36215H0.527344V4.35777ZM0.948464 0.629699V2.05952H1.80414C2.21182 2.05952 2.6867 1.88408 2.6867 1.34461C2.6867 0.822681 2.23422 0.629699 1.68318 0.629699H0.948464ZM0.948464 2.40163V3.99812H1.73694C2.3507 3.99812 2.8883 3.77443 2.8883 3.19987C2.8883 2.66479 2.49406 2.39724 1.81758 2.39724L0.948464 2.40163ZM4.69822 2.41479V3.98935H6.93374V4.35777H4.27262V0.274435H6.86206V0.642856H4.69822V2.05075H6.7187V2.41479H4.69822ZM10.9478 3.49373L11.2793 3.70426C11.0016 4.11215 10.464 4.46742 9.71582 4.46742C8.45246 4.46742 7.54302 3.55952 7.54302 2.31829C7.54302 1.07707 8.47486 0.169172 9.71582 0.169172C10.3296 0.169172 10.912 0.419172 11.2032 0.813909L10.8493 1.0683C10.6701 0.800751 10.2534 0.533207 9.72478 0.533207C8.6451 0.533207 7.99102 1.36654 7.99102 2.31829C7.99102 3.27005 8.64958 4.10338 9.72478 4.10338C10.1997 4.099 10.6566 3.91479 10.9478 3.49373ZM12.4307 0.274435V2.10777H12.4352L14.4198 0.274435H15.0291L12.9235 2.12531L15.1456 4.35777H14.5184L12.4307 2.18233H12.4262V4.35777H12.0006V0.274435H12.4307ZM16.1357 2.41479V3.98935H18.3712V4.35777H15.7101V0.274435H18.2995V0.642856H16.1357V2.05075H18.1561V2.41479H16.1357ZM19.6256 2.44987V4.35777H19.2V0.274435H20.4275C21.2518 0.274435 21.8521 0.568295 21.8521 1.36654C21.8521 1.9718 21.3907 2.35338 20.7859 2.41479L22.0045 4.35777H21.4893L20.3334 2.44987H19.6256ZM19.6256 0.629699V2.09022H20.3603C21.0368 2.09022 21.4265 1.849 21.4265 1.36215C21.4265 0.827067 21.0099 0.629699 20.3782 0.629699H19.6256ZM23.2365 0.274435L22.7571 1.6297H22.4211L22.8198 0.274435H23.2365ZM26.3949 0.664786L26.0589 0.93233C25.8841 0.68233 25.5974 0.520049 25.1987 0.520049C24.7865 0.520049 24.3072 0.761277 24.3072 1.28759C24.3072 1.80514 24.7507 1.9411 25.2166 2.09022C25.8035 2.27882 26.4531 2.46742 26.4531 3.28321C26.4531 4.099 25.7497 4.45865 25.0912 4.45865C24.5849 4.45865 24.0787 4.25689 23.7741 3.85338L24.1414 3.58584C24.3251 3.87531 24.6611 4.099 25.0957 4.099C25.5257 4.099 26.023 3.83145 26.023 3.30952C26.023 2.73935 25.5347 2.59461 25.0016 2.43233C24.4461 2.26566 23.8816 2.02882 23.8816 1.28759C23.8816 0.49812 24.5984 0.1604 25.2121 0.1604C25.7766 0.169172 26.1977 0.401628 26.3949 0.664786Z" fill="#1A1919"/>
<path d="M8.41333 18.4148H6.31222V14.8578H2.92086V18.4148H0.824219V9.90605H2.92534V13.1297H6.3167V9.90605H8.41782L8.41333 18.4148ZM19.2684 14.1253C19.2684 16.8183 17.2524 18.6473 14.5285 18.6473C11.8137 18.6473 9.80213 16.8183 9.80213 14.1253C9.80213 11.3973 11.8181 9.67798 14.5285 9.67798C17.2524 9.67798 19.2684 11.3929 19.2684 14.1253ZM17.0194 14.1253C17.0194 12.6341 16.0025 11.5289 14.5285 11.5289C13.0546 11.5289 12.0466 12.6341 12.0466 14.1253C12.0466 15.6648 13.0636 16.7701 14.5285 16.7701C15.9935 16.7701 17.0194 15.6648 17.0194 14.1253ZM26.5887 10.735L25.2492 12.1166C24.8908 11.6736 24.2412 11.3841 23.7036 11.3841C23.1615 11.3841 22.4895 11.5639 22.4895 12.2394C22.4895 12.8052 23.0047 12.985 23.829 13.2394C25.0072 13.6122 26.5304 14.1034 26.5304 15.8008C26.5304 17.7613 24.9221 18.6385 23.2018 18.6385C21.9608 18.6385 20.7109 18.1955 19.9493 17.4104L21.3247 16.0376C21.7413 16.5552 22.5164 16.9368 23.2018 16.9368C23.8424 16.9368 24.4069 16.6955 24.4069 16.0113C24.4069 15.3622 23.7439 15.156 22.6015 14.7964C21.4949 14.4455 20.3794 13.8973 20.3794 12.3578C20.3794 10.4675 22.1221 9.68675 23.7439 9.68675C24.7205 9.68675 25.8271 10.0508 26.5887 10.735ZM34.5093 12.5245C34.5093 14.4982 32.8741 15.2043 31.0597 15.2043H30.0159V18.4148H27.9148V9.90605H31.109C33.013 9.90605 34.5093 10.5771 34.5093 12.5245ZM32.4082 12.5376C32.4082 11.7218 31.6824 11.5639 30.9343 11.5639H30.0159V13.5727H30.8984C31.6824 13.5727 32.4082 13.3446 32.4082 12.5376ZM37.8872 18.4148H35.7727V9.90605H37.8828L37.8872 18.4148ZM45.8572 11.6604H43.4021V18.4148H41.301V11.6604H38.846V9.90605H45.8572V11.6604ZM54.3064 18.4148H51.9724L51.2959 16.7438H47.9314L47.2908 18.4148H45.006L48.6527 9.90166H50.6911L54.3064 18.4148ZM50.718 15.099L49.6383 12.178L48.5317 15.099H50.718ZM60.5067 18.4148H55.0277V9.90605H57.1378V16.6253H60.5023V18.4148H60.5067ZM71.3752 18.4148H68.9202L67.0431 15.0376H66.3307V18.4148H64.2655V9.90605H67.5807C69.2517 9.90605 70.9093 10.5332 70.9093 12.4806C70.9093 13.621 70.2239 14.4411 69.1039 14.7789L71.3752 18.4148ZM68.8351 12.5113C68.8351 11.7175 68.06 11.5596 67.4373 11.5596H66.3173V13.5464H67.3119C67.9839 13.5464 68.8351 13.3797 68.8351 12.5113ZM78.4715 18.4148H72.4056V9.90605H78.252V11.6473H74.4306V13.2482H78.0415V14.8973H74.4306V16.6604H78.4715V18.4148ZM87.5256 9.90605L84.1701 18.4148H82.069L78.7807 9.90605H81.1371L83.1531 15.9411H83.2024L85.205 9.90605H87.5256ZM90.348 18.4148H88.2379V9.90605H90.348V18.4148ZM98.2059 18.4148H92.14V9.90605H97.9864V11.6473H94.165V13.2482H97.7759V14.8973H94.165V16.6604H98.2059V18.4148ZM111.288 9.90605L108.806 18.4148H106.731L105.011 12.656H104.975L103.255 18.4148H101.167L98.6987 9.90605H100.957L102.332 15.5683H102.368L103.913 9.90605H106.1L107.659 15.5683H107.695L109.092 9.90605H111.288Z" fill="#840C0E"/>
<path d="M0.195312 23.1555H112.195M28.7867 4.15552H112.195H28.7867Z" stroke="#1A1919" stroke-width="0.5488"/>
</g>
<defs>
<clipPath id="clip0_34639_2302">
<rect width="112" height="23" fill="white" transform="translate(0.195312 0.168945)"/>
</clipPath>
</defs>
</svg>
