<svg width="77" height="24" viewBox="0 0 77 24" fill="none" xmlns="http://www.w3.org/2000/svg">
<g clip-path="url(#clip0_34639_2287)">
<path fill-rule="evenodd" clip-rule="evenodd" d="M6.70165 23.1689H8.46958V13.9689H6.70165V23.1689ZM13.1823 23.0309H14.7658V17.2263L21.4309 23.1689V14.1069H19.8519V19.8124L13.1823 13.9689V23.0309ZM25.0457 20.8028C25.9075 21.4569 26.942 21.8349 28.051 21.8349C29.1312 21.8349 29.889 21.4727 29.889 20.6727C29.889 19.9755 29.4057 19.7024 28.5594 19.3969L27.1892 18.9334C25.926 18.4964 24.9653 17.8581 24.9653 16.3911C24.9653 14.8221 26.4196 13.9689 28.1587 13.9689C29.2242 13.9689 30.1952 14.2299 30.9538 14.692V16.2481C30.165 15.6803 29.3017 15.2893 28.1927 15.2893C27.2379 15.2893 26.5244 15.6364 26.5244 16.3602C26.5244 17.0143 26.9723 17.2759 27.761 17.539L29.2877 18.0608C30.7671 18.5675 31.4459 19.3531 31.4459 20.6454C31.4459 22.2712 29.9776 23.1689 28.051 23.1689C26.7848 23.1689 25.7083 22.8239 25.0457 22.3884V20.8028ZM35.5706 23.1689H37.3378V13.9689H35.5706V23.1689ZM45.6284 21.7767C47.6206 21.7767 48.6854 20.5319 48.6854 18.5668C48.6854 16.5874 47.6199 15.3468 45.6284 15.3468H43.6583V21.7767H45.6284ZM42.0498 13.9689H45.6874C48.4876 13.9689 50.2984 15.7658 50.2984 18.5668C50.2984 21.3699 48.4876 23.1689 45.6874 23.1689H42.0498V13.9689ZM59.1365 13.9689V15.3468H54.8591V17.5605H58.6952V18.9226H54.8584V21.7767H59.1365V23.1689H53.2446V13.9689H59.1365ZM65.4098 18.1348H67.1637C68.2019 18.1348 68.787 17.5799 68.787 16.7268C68.787 15.8736 68.2019 15.318 67.1637 15.318H65.4098V18.1355V18.1348ZM65.4098 19.4358V23.1689H63.8492V13.9689H67.1932C69.0999 13.9689 70.3336 14.9256 70.3336 16.7268C70.3336 18.2671 69.6488 19.1519 68.1901 19.379L71.5083 23.1689H69.733L66.5203 19.4365H65.4105L65.4098 19.4358ZM6.08406 4.90551C6.77544 4.65898 7.31408 3.91938 7.31408 2.90235C7.31408 1.20754 6.08406 0.329227 4.11618 0.329227H0.810547V9.79013H4.42313C6.39101 9.79013 7.62103 8.85001 7.62103 7.07829C7.62103 6.07635 6.9754 5.19804 6.08406 4.90551ZM2.36301 4.30463V1.71641H4.10142C5.19346 1.71641 5.77711 2.10166 5.77711 2.99507C5.77711 3.88848 5.19272 4.30463 4.10142 4.30463H2.36301ZM2.36301 5.63001H4.39214C5.46942 5.63001 6.05307 6.15326 6.05307 7.01648C6.05307 7.86388 5.46868 8.40366 4.39288 8.40366H2.36375V5.62929L2.36301 5.63001ZM14.8337 9.94395C17.0937 9.94395 18.6159 8.61857 18.6159 6.03035V0.329227H17.017V5.84491C17.017 7.66335 16.2481 8.51148 14.8337 8.51148C13.4192 8.51148 12.6511 7.66335 12.6511 5.84491V0.329227H11.0521V6.01454C11.0521 8.61857 12.5891 9.94395 14.8337 9.94395ZM22.3805 9.11163C23.0417 9.57451 24.1182 9.94395 25.3785 9.94395C27.3006 9.94395 28.7608 8.98801 28.7608 7.26301C28.7608 5.89163 28.085 5.05932 26.6085 4.52026L25.087 3.96538C24.3027 3.68866 23.857 3.41123 23.857 2.71763C23.857 1.94713 24.5639 1.5777 25.5172 1.5777C26.624 1.5777 27.4851 1.99313 28.2694 2.59473V0.945195C27.5161 0.452852 26.5472 0.175414 25.4862 0.175414C23.7493 0.175414 22.3038 1.08463 22.3038 2.74854C22.3038 4.30463 23.2571 4.98241 24.5174 5.44457L25.8861 5.93763C26.7317 6.26107 27.2084 6.55432 27.2084 7.29391C27.2084 8.14132 26.455 8.52657 25.3785 8.52657C24.2717 8.52657 23.2416 8.12551 22.3805 7.43263V9.11163ZM34.4741 0.329227H32.8759V9.78941H34.4741V0.329227ZM39.0356 9.77791H40.5763V3.62326L47.0606 9.92454V0.314852H45.5244V6.36457L39.0356 0.168945V9.77791ZM57.052 0.331383V1.74804H52.9008V4.02504H56.6233V5.42588H52.9008V8.36054H57.052V9.79229H51.3336V0.331383H57.052ZM60.7745 9.10516C61.4357 9.56804 62.5115 9.93748 63.7725 9.93748C65.6939 9.93748 67.1549 8.98226 67.1549 7.25654C67.1549 5.88516 66.4782 5.05357 65.0025 4.51379L63.4803 3.95963C62.6959 3.6822 62.2503 3.40476 62.2503 2.71116C62.2503 1.94066 62.9571 1.57123 63.9105 1.57123C65.0173 1.57123 65.8784 1.98738 66.6627 2.58826V0.939445C65.9093 0.446383 64.9405 0.168945 63.8795 0.168945C62.1425 0.168945 60.6971 1.07816 60.6971 2.74207C60.6971 4.29816 61.6504 4.97594 62.9107 5.4381L64.2794 5.93116C65.125 6.2546 65.6017 6.54785 65.6017 7.28745C65.6017 8.13485 64.849 8.5201 63.7718 8.5201C62.665 8.5201 61.6349 8.11976 60.7745 7.42616V9.10516ZM70.4302 9.10516C71.0914 9.56804 72.1679 9.93748 73.4282 9.93748C75.3503 9.93748 76.8105 8.98226 76.8105 7.25654C76.8105 5.88516 76.1339 5.05357 74.6582 4.51379L73.136 3.95963C72.3524 3.6822 71.906 3.40476 71.906 2.71116C71.906 1.94066 72.6136 1.57123 73.5662 1.57123C74.673 1.57123 75.5348 1.98738 76.3184 2.58826V0.939445C75.5658 0.446383 74.597 0.168945 73.5359 0.168945C71.7982 0.168945 70.3535 1.07816 70.3535 2.74207C70.3535 4.29816 71.3068 4.97594 72.5671 5.4381L73.9358 5.93116C74.7814 6.2546 75.2581 6.54785 75.2581 7.28745C75.2581 8.13485 74.5047 8.5201 73.4282 8.5201C72.3214 8.5201 71.2913 8.11976 70.4302 7.42616V9.10516Z" fill="#111111"/>
</g>
<defs>
<clipPath id="clip0_34639_2287">
<rect width="76" height="23" fill="white" transform="translate(0.810547 0.168945)"/>
</clipPath>
</defs>
</svg>
