<svg width="37" height="24" viewBox="0 0 37 24" fill="none" xmlns="http://www.w3.org/2000/svg">
<g clip-path="url(#clip0_34639_2263)">
<path d="M0.927734 12.304H3.9648L8.24855 19.2924H8.27508V12.5078H7.09093V12.304H9.66573V12.5078H8.48161V22.7578H8.13299L2.34297 13.3457H2.31838V22.5519H3.50065V22.7578H0.927734V22.5519H2.11185V12.5078H0.927734V12.304Z" fill="black"/>
<path d="M9.47257 12.304H17.1668V14.8154H17.0001C16.8201 14.1684 16.2668 12.5096 14.5673 12.5096H12.5211V17.0464H13.2411C14.5009 17.0464 14.9386 16.1807 15.183 14.8585H15.3517V19.4252H15.183C14.952 18.2807 14.5673 17.2522 13.3831 17.2522H12.5211V22.5519H14.6318C16.2137 22.5519 17.18 21.2449 17.5267 19.5412H17.6935V22.7578H9.4707V22.5519H10.6549V12.5078H9.47257V12.304Z" fill="black"/>
<path d="M17.1016 12.304H21.0519V12.5078H20.1122L22.4275 20.2461H22.4538L23.8049 15.8702L22.8026 12.5078H22.1073V12.304H25.9534V12.5078H24.7578L27.0864 20.2611H27.1128L29.4925 12.5078H28.386V12.304H30.7543V12.5078H29.7123L26.4043 23.169H26.031L23.9203 16.2087H23.8939L21.734 23.169H21.3607L18.1683 12.5078H17.1016V12.304Z" fill="black"/>
<path d="M11.7463 5.55483C11.7463 8.53948 9.34967 10.9649 6.28417 10.9649C3.23378 10.9649 0.810547 8.53756 0.810547 5.55483C0.810547 2.59633 3.23565 0.168945 6.2842 0.168945C9.34967 0.168945 11.7463 2.59633 11.7463 5.55483ZM1.19704 5.55483C1.97011 7.13876 3.78137 8.68154 6.2842 8.68154C8.77562 8.68154 10.6002 7.13691 11.3732 5.55483C10.6001 3.99705 8.77562 2.45231 6.2842 2.45231C3.78137 2.45231 1.97011 3.99705 1.19704 5.55483ZM9.0674 5.55291C9.0674 7.0695 7.82633 8.27756 6.28417 8.27756C4.73995 8.27756 3.48761 7.0695 3.48761 5.55291C3.48761 4.06058 4.73995 2.84129 6.28417 2.84129C7.82637 2.84129 9.0674 4.06058 9.0674 5.55291Z" fill="black"/>
<path d="M6.28672 10.9443C3.27993 10.9443 0.833984 8.5263 0.833984 5.5548C0.833984 2.5963 3.2799 0.189453 6.28672 0.189453C9.28599 0.189453 11.7282 2.59626 11.7282 5.5548C11.7262 8.57679 9.33711 10.9443 6.28672 10.9443ZM6.28672 2.43174C3.657 2.43174 1.89307 4.10916 1.18074 5.54542C1.88745 7.01162 3.6494 8.70205 6.28672 8.70205C8.92599 8.70205 10.688 7.01159 11.3947 5.56411C10.6823 4.10916 8.91649 2.43174 6.28672 2.43174ZM6.28489 8.25699C4.75402 8.25699 3.50914 7.04336 3.50914 5.55288C3.50914 4.06801 4.75399 2.86184 6.28489 2.86184C7.80816 2.86184 9.04911 4.0699 9.04911 5.55288C9.04717 7.04339 7.80816 8.25699 6.28489 8.25699Z" fill="black"/>
<path d="M16.8636 0.309326C15.9826 0.309326 14.8742 0.887239 14.0406 1.78293C13.313 2.56651 12.4453 3.93727 12.4453 6.02055C12.4453 8.71536 14.6771 10.8042 16.5964 10.8042C17.3695 10.8042 17.8261 10.6003 18.2277 10.419L18.2372 10.4152C18.5517 10.275 18.8246 10.1535 19.194 10.1535C19.5068 10.1535 19.8022 10.3273 19.9822 10.6172L20.0618 10.7463V6.62273H19.9462L19.9386 6.66008C19.6847 8.24593 18.6294 10.6078 16.7632 10.6078C14.914 10.6078 14.535 8.81816 14.535 6.13277C14.535 3.51272 14.8136 0.503799 16.9811 0.503799C18.9117 0.503799 19.7376 3.31448 19.9461 4.17474L19.9537 4.20651H20.0673V0.451459L19.9896 0.563602C19.8022 0.831061 19.5368 0.88532 19.1713 0.88532C18.9268 0.88532 18.6691 0.784334 18.3737 0.668354L18.3603 0.662775C17.9454 0.498256 17.4774 0.309326 16.8636 0.309326Z" fill="black"/>
<path d="M26.8302 5.19414C27.4536 5.02212 28.9275 4.5377 28.9275 2.96684C28.9275 2.19645 28.543 1.5475 27.8192 1.09119C27.1561 0.670436 26.2297 0.44043 25.2122 0.44043H20.5078V0.6424H22.1429V10.4734H20.5078V10.6772H25.4394C27.7604 10.6772 29.3197 9.47476 29.3197 7.68698C29.3197 6.46019 28.5051 5.64477 26.8302 5.19414ZM25.5796 5.0912H24.2364V0.642294H24.642C26.4589 0.642294 27.0255 0.977017 27.0255 2.77983C27.0255 4.71163 26.5385 5.06508 25.5815 5.06508L25.5796 5.0912ZM24.2364 5.29321H25.3524C26.3584 5.29321 27.3418 5.51199 27.3418 7.773C27.3418 10.0451 26.7128 10.4715 25.3012 10.4715H24.2364V5.29321Z" fill="black"/>
<path d="M31.0236 10.1981C31.3552 10.1981 31.6413 10.3066 31.9728 10.4319L32.0013 10.4431C32.4464 10.6133 32.9468 10.804 33.6989 10.804C35.1086 10.804 36.8098 9.28926 36.8098 7.40987C36.8098 5.43685 35.3169 4.94695 33.8732 4.47198C32.6189 4.05869 31.4366 3.66971 31.4366 2.30449C31.4366 1.76403 31.6016 0.505544 33.1192 0.505544C34.989 0.505544 35.8758 3.42094 35.8758 4.14095V4.18398H35.997L36.0009 0.354031L35.9211 0.456864C35.6976 0.75044 35.2506 0.772896 35.1179 0.772896C35.1046 0.772896 35.0933 0.772896 35.0837 0.772896H35.0706C34.902 0.772896 34.6348 0.68314 34.4206 0.604611C34.0646 0.473671 33.6213 0.311035 33.1191 0.311035C31.3779 0.311035 30.2997 2.02772 30.2997 3.61918C30.2997 5.55837 31.7833 6.08579 33.2195 6.59634C34.4358 7.02643 35.5859 7.43229 35.5859 8.71323C35.5859 10.0148 34.593 10.5983 33.608 10.5983C31.2075 10.5983 30.3301 6.97786 30.3301 6.67295V6.65059H30.2109V10.6451L30.2866 10.5573C30.567 10.2243 30.7774 10.1981 31.0236 10.1981Z" fill="black"/>
<path d="M30.9764 22.3221C31.3117 22.3221 31.5997 22.4342 31.9332 22.5613L31.9617 22.5726C32.4107 22.7465 32.9147 22.9448 33.6744 22.9448C35.0954 22.9448 36.8118 21.3888 36.8118 19.457C36.8118 17.4299 35.3056 16.925 33.8486 16.4386C32.5849 16.0142 31.3912 15.6141 31.3912 14.2115C31.3912 13.6562 31.5562 12.3621 33.0871 12.3621C34.974 12.3621 35.8684 15.3579 35.8684 16.0964V16.1413H35.9896L35.9934 12.2069L35.9139 12.3115C35.6883 12.6126 35.2374 12.6367 35.1027 12.6367C35.0877 12.6367 35.0765 12.6367 35.0687 12.6367H35.0535C34.8831 12.6367 34.6141 12.5452 34.3982 12.4629C34.0381 12.3283 33.593 12.1619 33.085 12.1619C31.3286 12.1619 30.2413 13.9253 30.2413 15.5598C30.2413 17.5515 31.7379 18.0937 33.1855 18.6173C34.4133 19.0587 35.5708 19.4775 35.5708 20.7922C35.5708 22.1294 34.5686 22.7296 33.5778 22.7296C31.1564 22.7296 30.2714 19.0099 30.2714 18.6976V18.6753H30.1504V22.7782L30.2261 22.6865C30.5142 22.35 30.7281 22.3221 30.9764 22.3221Z" fill="black"/>
</g>
<defs>
<clipPath id="clip0_34639_2263">
<rect width="36" height="23" fill="white" transform="translate(0.810547 0.168945)"/>
</clipPath>
</defs>
</svg>
