<svg width="106" height="28" viewBox="0 0 106 28" fill="none" xmlns="http://www.w3.org/2000/svg">
<path d="M44.5947 16.3366C43.2734 13.1415 42.0002 10.1146 40.6309 6.7754C39.67 9.20173 38.8532 11.3398 38.0124 13.4538C36.6431 16.9371 35.2497 20.4205 33.9285 23.9278C33.6162 24.7446 33.1838 25.0089 32.343 24.9608C30.5893 24.8887 28.8356 24.9128 27.0579 24.9608C26.4333 24.9848 26.097 24.7686 25.8808 24.1921C25.4724 23.111 24.9679 22.078 24.5595 20.973C24.3193 20.3244 23.983 20.0601 23.2623 20.0841C21.7008 20.1322 20.1393 20.0601 18.5778 20.1082C17.8331 20.1322 17.5448 19.964 17.5448 19.1472C17.5448 16.3606 17.4968 16.3606 20.2594 16.3606C22.6377 16.3606 22.6377 16.3606 21.7008 14.1505C20.7158 11.7962 19.7549 9.44196 18.6739 6.82345C18.0973 8.28885 17.5928 9.53805 17.0884 10.7872C15.3827 15.2555 13.6291 19.6517 11.9474 24.072C11.6592 24.8407 11.2748 25.153 10.458 25.0569C9.32894 24.9368 7.74342 25.5614 7.16687 24.7686C6.71043 24.144 7.79147 22.7747 8.22388 21.7657C10.7223 15.76 13.2447 9.77828 15.7431 3.79655C16.0554 3.05184 16.4397 2.76356 17.2565 2.81161C18.2174 2.88368 19.1784 2.88368 20.1393 2.81161C21.0041 2.73954 21.3885 3.09989 21.7008 3.86862C24.2232 9.77828 26.7937 15.6399 29.3401 21.5255C29.4602 21.8138 29.6043 22.078 29.8446 22.5585C30.6133 20.7087 31.334 19.0271 32.0307 17.3455C33.9285 12.8292 35.8263 8.31287 37.6761 3.77253C37.9884 3.02782 38.3487 2.61943 39.2376 2.71552C40.5108 2.81161 42.0002 2.40322 43.0092 2.93173C44.0422 3.46023 44.1863 5.09379 44.6908 6.2469C47.2853 12.1566 49.8317 18.0902 52.4262 23.9999C52.7145 24.6725 52.7865 25.0089 51.8737 24.9608C50.7206 24.9128 49.3993 25.2731 48.4384 24.8167C47.4534 24.3602 47.3093 22.8948 46.973 21.8138C46.5165 20.4205 45.7958 19.8439 44.3064 20.0361C43.0092 20.2043 41.6639 20.0361 40.3426 20.0841C39.718 20.1082 39.5258 19.8679 39.5018 19.2433C39.3577 16.3125 39.3337 16.3125 42.3125 16.3125C42.9851 16.3366 43.7058 16.3366 44.5947 16.3366Z" fill="black"/>
<path d="M53.5541 15.1834C53.482 9.39387 56.2687 5.06973 60.4247 3.31605C64.8449 1.46628 69.8657 2.35514 73.1328 5.50215C73.7815 6.12674 73.9496 6.58318 73.0848 7.08766C72.9407 7.15973 72.8446 7.27985 72.7004 7.37594C72.0998 7.8564 71.5954 8.55307 70.9227 8.74525C70.154 8.96146 69.7456 7.97651 69.121 7.59215C66.0941 5.64628 61.842 6.27088 59.5839 9.08157C57.1095 12.1325 57.3497 16.6488 60.1124 19.3154C62.803 21.9098 66.5986 22.102 69.8177 19.7238C70.4663 19.2433 70.8507 19.1952 71.3792 19.7958C71.6194 20.1081 71.9797 20.3243 72.268 20.5886C73.9496 22.0059 73.9977 22.054 72.0998 23.3272C68.2081 25.9697 64.0762 26.3541 59.8721 24.2641C55.7402 22.1741 53.7223 18.6427 53.5541 15.1834Z" fill="black"/>
<path d="M98.2628 23.8316C96.7974 21.5014 95.332 19.1712 93.8666 16.8409C93.5302 16.3124 92.9537 15.7839 92.9056 15.2074C92.8576 14.5107 93.8425 14.3425 94.2509 13.8381C94.3951 13.6459 94.5632 13.4777 94.7074 13.2855C97.2298 10.1385 96.2448 4.20485 91.0318 3.12381C87.7887 2.45117 84.4976 2.97968 81.2305 2.78749C80.1254 2.71542 79.8612 3.19588 79.8852 4.18082C79.9332 6.2468 79.9092 8.3368 79.9092 10.4028C79.9092 12.1324 79.9092 12.1324 78.2276 12.1324C74.7443 12.1324 71.285 12.1084 67.8016 12.1324C65.015 12.1565 65.3032 11.628 65.2552 14.823C65.2312 15.6878 65.5435 16.0242 66.4323 16.0001C68.4743 15.9521 70.5162 15.9761 72.5341 15.9761C74.5521 15.9761 76.6181 16.0001 78.636 15.9761C79.4528 15.9521 79.7891 16.2163 79.7651 17.0571C79.717 18.6907 79.741 20.3243 79.7651 21.9578C79.8131 25.3691 79.1885 24.8406 82.7439 24.9367C83.8249 24.9607 84.1132 24.5283 84.0892 23.5193C84.0412 21.3573 84.0892 19.2192 84.0652 17.0571C84.0412 16.2163 84.3535 15.904 85.1702 15.9521C85.963 16.0001 86.7798 16.0001 87.5725 15.9521C88.2932 15.904 88.7497 16.1683 89.134 16.7929C90.191 18.5706 91.3201 20.3243 92.4012 22.0779C94.2029 25.0328 94.1789 25.0328 97.6382 24.8886C98.7913 24.9607 98.8633 24.7925 98.2628 23.8316ZM90.2871 11.7C88.4854 12.5408 86.5155 12.1805 84.6177 12.1565C84.0892 12.1565 84.1372 11.6039 84.1132 11.2196C84.0892 10.5709 84.1132 9.94634 84.1132 9.29772C84.1132 6.46301 84.1132 6.46301 86.9479 6.48703C87.9329 6.48703 88.9418 6.39094 89.9028 6.72726C90.9838 7.11163 91.6324 7.78427 91.7766 8.9614C91.8967 10.2346 91.3922 11.1715 90.2871 11.7Z" fill="#51B848"/>
</svg>
