<svg width="56" height="25" viewBox="0 0 56 25" fill="none" xmlns="http://www.w3.org/2000/svg">
<g clip-path="url(#clip0_34639_2836)">
<path d="M3.71031 23.7226H1.23047V0.593991H23.0322C32.5954 0.593991 34.1045 9.63497 34.1045 9.63497L39.4709 0.593991H45.0943L55.3735 18.13L52.1534 23.7218H38.5994V20.9321H53.7596L42.2764 0.59375C42.2764 0.59375 34.7085 14.4521 33.0839 17.1518C31.4591 19.8516 28.4072 23.7212 23.1797 23.7212H15.0835V9.95227H17.6489V20.9313H23.5493C26.1587 20.9313 31.7585 18.5916 31.7585 11.9772C31.7585 5.36278 25.7726 3.29297 23.8058 3.29297H3.71008V23.7206L3.71031 23.7226ZM4.56544 23.7226V13.9134H14.1428V16.6133H7.13075V23.7227H4.56532L4.56544 23.7226ZM14.1428 12.7435V9.95372H7.13075V6.99467H23.2661C25.6848 6.99467 28.2528 9.05374 28.2528 12.0684C28.2528 15.0831 25.6571 17.153 23.8062 17.153H21.2909V9.9536H18.64V19.8528H23.8062C27.0783 19.8528 30.861 16.864 30.861 12.1584C30.861 7.49779 27.4207 4.28411 23.3068 4.28411H4.56601V12.7434H14.1434L14.1428 12.7435ZM30.5179 23.7226L42.2764 3.2949L51.9393 19.8529H38.5999V17.1531H47.2366L42.277 8.64878L34.1105 23.7229H30.5189L30.5179 23.7226Z" fill="black"/>
</g>
<defs>
<clipPath id="clip0_34639_2836">
<rect width="54.716" height="23.7323" fill="white" transform="translate(0.892578 0.27417)"/>
</clipPath>
</defs>
</svg>
