<svg width="24" height="24" viewBox="0 0 24 24" fill="none" xmlns="http://www.w3.org/2000/svg">
<path d="M0.0976562 0.473389H23.5791V19.507H0.0976562V0.473389Z" fill="#123362"/>
<path d="M0.0976562 19.7673H23.5791V23.94H0.0976562V19.7673Z" fill="#B22423"/>
<path d="M23.5791 14.0973H23.5354C23.2749 13.4589 22.9802 12.8357 22.6513 12.2295H22.9402C23.1684 12.6666 23.3813 13.1093 23.5791 13.5596V14.0973ZM0.0976562 3.08037C1.25366 2.69275 2.442 2.41912 3.65124 2.26142L3.99538 0.473389H6.78465L6.1591 2.09611C6.91014 2.0942 7.65926 2.13791 8.40459 2.22722L9.2735 0.473389H12.3384L10.8782 2.68894C12.8156 3.19058 14.66 3.99624 16.3407 5.07741C16.6754 5.29213 17.0005 5.51824 17.3161 5.75195H16.8731C15.0155 4.44467 12.9336 3.4832 10.7299 2.91886L8.94454 5.68736H7.66305V7.57227L4.50114 12.7274H3.48963V14.4508L0.249762 19.507H0.147091L8.28667 2.47043C7.55089 2.38492 6.80934 2.34502 6.06971 2.35072L0.120472 19.507H0.0976562V3.08037ZM0.0976562 19.1897L3.5942 2.53124C2.40968 2.69655 1.24416 2.97776 0.112867 3.3673H0.0976562" fill="white"/>
<path d="M9.75112 10.037H11.4662V8.43517H9.75112V7.67133H11.8388L11.7247 6.06567H8.00573V11.9447H9.75112V10.037ZM17.0066 11.9276H18.8832L19.7388 10.4854L20.6153 11.9295H22.5357L20.6838 8.88359L22.3512 6.07522H20.4499L19.7331 7.29506L18.9897 6.07138H17.056L18.7729 8.89687L17.0066 11.9276ZM14.8239 11.9922C16.4838 12.015 17.8489 10.6926 17.8774 9.03373C17.8071 7.34637 16.383 6.03527 14.6927 6.1037C13.1013 6.17021 11.8274 7.44327 11.7608 9.03373C11.7874 10.6944 13.1564 12.0188 14.8182 11.9922H14.8239ZM14.2839 7.74354C14.2858 7.45282 14.5159 7.21719 14.8049 7.20386C15.1034 7.20957 15.3448 7.44711 15.3562 7.74354V10.2384C15.3353 10.5348 15.0786 10.7571 14.7821 10.7362C14.5139 10.7172 14.3029 10.5044 14.2839 10.2384V7.74354ZM10.1485 16.334H11.9243V15.1578H10.1485V14.3579H12.3122V13.0848H8.77768V18.5819H12.3389V17.2594H10.1485V16.334ZM17.7919 13.0848L17.1112 16.2314L16.4457 13.0848H15.2707L14.6376 16.2637L13.9778 13.0848H12.5765L13.8485 18.5819H15.1262L15.7518 15.4315L16.3963 18.5819H17.6474L18.925 13.0848H17.7919ZM22.4311 15.5683C22.0661 15.232 21.6478 15.1426 21.1781 15.0096C20.623 14.8538 20.3168 14.8367 20.3168 14.5137C20.3397 14.2743 20.5526 14.0995 20.7922 14.1223H20.796C21.1496 14.0938 21.4728 14.3275 21.5546 14.6733L22.7543 14.2743C22.5319 13.4382 21.7561 12.8701 20.891 12.9081C19.6381 12.9081 18.8718 13.6776 18.8718 14.7132C18.8718 15.6082 19.3928 16.049 20.4366 16.3606C21.0602 16.5488 21.3911 16.5336 21.3911 16.9345C21.3911 17.1454 21.1952 17.3107 20.8701 17.3107C20.4404 17.3601 20.0487 17.0656 19.9746 16.64L18.6589 16.9288C18.8832 17.972 19.6609 18.5914 20.853 18.5914C21.4424 18.6066 22.0109 18.3729 22.4178 17.9472C22.7182 17.6166 22.8836 17.1853 22.8798 16.7369C22.9046 16.2998 22.7391 15.8742 22.4292 15.5664H22.4311V15.5683ZM7.07027 15.8438L5.43133 13.1095H3.8418V18.5857H5.23738V15.3859L7.10829 18.5781H8.4316V13.1019H7.07405L7.07027 15.8438Z" fill="white"/>
<path d="M2.35563 21.6542C2.50584 21.6276 2.65414 21.7131 2.70738 21.8556H3.49072C3.44129 21.4851 3.0211 21.2647 2.36704 21.2647C1.61791 21.2742 1.14258 21.5953 1.14258 22.1179C1.14258 22.5929 1.61031 22.9007 2.31951 22.9007C2.97356 22.9007 3.40136 22.6746 3.48122 22.2888H2.70928C2.66555 22.4371 2.54196 22.5112 2.34232 22.5112C2.08184 22.5112 1.94114 22.3725 1.94114 22.0969C1.94114 21.8214 2.08754 21.6542 2.35563 21.6542ZM9.97425 22.5511V21.9753C10.0047 21.7967 9.94571 21.6143 9.81835 21.487C9.55595 21.3293 9.24987 21.259 8.94374 21.2894C8.26875 21.2894 7.8999 21.4528 7.82385 21.81H8.54065C8.5711 21.6979 8.70225 21.6371 8.92662 21.6371C9.15099 21.6371 9.23462 21.6846 9.23462 21.772V21.8081C9.23462 21.926 8.93995 21.9012 8.38854 21.9848C7.96838 22.0476 7.75729 22.2033 7.75729 22.4561C7.75729 22.7088 8.03302 22.895 8.50075 22.895C8.76694 22.9026 9.03121 22.8304 9.25745 22.6898C9.26507 22.743 9.27835 22.7962 9.29739 22.8456H10.0808V22.7886C10.0123 22.762 9.97617 22.6822 9.97617 22.5454L9.97425 22.5511ZM9.23083 22.306C9.23083 22.4675 9.04262 22.5663 8.78022 22.5663C8.60529 22.5663 8.49313 22.4903 8.49313 22.3857C8.49313 22.2813 8.57489 22.2471 8.75361 22.2167C8.91521 22.2015 9.07494 22.1729 9.23083 22.1311V22.306ZM12.7426 21.2913C12.4783 21.2685 12.2178 21.3578 12.022 21.5364V21.3331H11.2653V22.8532H12.0486V22.0361C12.0486 21.7758 12.1608 21.6694 12.4422 21.6694C12.7236 21.6694 12.7692 21.8043 12.7692 22.0837V22.8475H13.5525V21.8537C13.543 21.4699 13.3282 21.2913 12.7521 21.2913H12.7426ZM5.97387 21.3122C5.70955 21.2932 5.44721 21.3787 5.24375 21.5497V20.8125H4.4604V22.8722H5.24375V22.0608C5.24375 21.8005 5.35595 21.6941 5.63734 21.6941C5.91873 21.6941 5.96433 21.8291 5.96433 22.1084V22.8722H6.74769V21.8291C6.74769 21.4908 6.47963 21.3122 5.98145 21.3122H5.97387ZM16.4102 21.2913C16.146 21.2685 15.8855 21.3578 15.6897 21.5364V21.3331H14.9462V22.8532H15.7296V22.0361C15.7296 21.7758 15.8418 21.6694 16.1232 21.6694C16.4045 21.6694 16.4502 21.8043 16.4502 22.0837V22.8475H17.2336V21.8537C17.224 21.4699 17.0073 21.2913 16.4293 21.2913H16.4102ZM19.4524 21.2761C18.728 21.2761 18.2584 21.5858 18.2584 22.095C18.2584 22.6043 18.7375 22.8988 19.4714 22.8988C20.0798 22.8988 20.5152 22.705 20.6464 22.3782H19.8973C19.8421 22.4884 19.7091 22.5454 19.498 22.5454C19.2224 22.5454 19.0721 22.4313 19.0721 22.2167H20.6787C20.6806 22.1863 20.6806 22.1577 20.6787 22.1273C20.6844 21.5953 20.2186 21.278 19.4714 21.278L19.4524 21.2761ZM19.0322 21.924C19.0626 21.7207 19.2261 21.6105 19.4752 21.6105C19.7243 21.6105 19.9144 21.7245 19.9182 21.924H19.0322ZM21.753 20.8105V22.8703H22.5363V20.8105H21.753Z" fill="white"/>
</svg>
