<svg width="147" height="41" viewBox="0 0 147 41" fill="none" xmlns="http://www.w3.org/2000/svg">
<path d="M8.94658 7.3376C6.13741 6.37981 4.61003 5.65046 4.61003 3.68934C4.61003 2.15971 6.00901 1.33256 7.4834 1.33256C10.2037 1.33256 11.8088 3.28771 12.4172 6.38503H12.9898V1.01081H12.5097L11.6706 2.69049H11.5938C10.836 1.70209 9.40047 0.718174 7.50654 0.718174C4.5824 0.718174 2.29431 2.78156 2.29431 5.41978C2.29431 8.69254 4.62794 10.0109 7.5894 10.9791C10.3508 11.875 11.6005 12.8925 11.6005 14.5311C11.6005 16.5952 10.5479 17.5709 8.19558 17.5709C6.79809 17.5709 5.45285 17.017 4.48386 15.8868C3.57086 14.8222 3.04083 13.4098 2.75342 11.7294H2.18457V17.939H2.63024L3.68732 16.0749H3.76347C4.68468 17.2052 6.20833 18.1965 8.19334 18.1965C11.7871 18.1965 13.9729 15.8763 13.9729 12.8604C13.9729 9.84517 11.8886 8.34988 8.94658 7.3376Z" fill="#90979E"/>
<path d="M144.629 2.96034C143.814 1.78307 142.459 0.693892 140.294 0.693892C135.401 0.693892 132.11 4.73333 132.11 9.4872C132.11 14.2336 135.244 18.288 140.265 18.288C143.493 18.288 145.861 16.6031 146.582 12.7353L145.971 12.5756C145.301 15.7266 143.617 17.5944 140.678 17.5944C137.626 17.5944 136.013 15.0354 136.013 9.4872C136.013 3.95695 137.504 1.33217 140.358 1.33217C143.155 1.33217 144.905 3.38287 145.692 7.47531H146.326V0.987276H145.926L144.679 2.96034" fill="#90979E"/>
<path d="M28.6792 2.90022C27.864 1.72445 26.5807 0.69499 24.4181 0.69499C19.5261 0.69499 16.2324 4.73368 16.2324 9.48829C16.2324 14.2339 19.3693 18.2891 24.3897 18.2891C27.6169 18.2891 29.9841 16.6042 30.706 12.7372L30.0954 12.6334C29.3227 15.727 27.8752 17.5948 24.801 17.5948C21.7507 17.5948 20.136 15.0357 20.136 9.48829C20.136 3.9573 21.6746 1.33401 24.3912 1.33401C27.1869 1.33401 28.9375 3.38173 29.7229 7.47567H30.2663V0.987627H29.7751L28.7292 2.90022" fill="#90979E"/>
<path d="M40.6544 17.3355H38.1677V1.56889H40.6544V0.977638H32.1963V1.56889H34.6845V17.3355H32.1963V17.9484H40.6544" fill="#90979E"/>
<path d="M96.1055 17.3355V17.9484H104.564V17.3355H102.076V1.56889H104.564V0.977638H96.1055V1.56889H98.5944V17.3355" fill="#90979E"/>
<path d="M122.257 1.56889H124.744V17.3355H122.257V17.9484H130.715V17.3355H128.228V1.56889H130.715V0.977638H122.257" fill="#90979E"/>
<path d="M58.0958 11.6263H57.7083C57.1783 13.421 56.4639 14.9513 55.5456 16.0233C54.5968 17.1267 53.6689 17.3253 51.9041 17.3253L49.2189 17.3283V9.72566H50.479C51.4599 9.72566 52.1691 9.91752 52.6439 10.4326C53.2404 10.9962 53.6345 12.0802 53.651 13.2478H54.1071V5.58395H53.651C53.6345 6.76346 53.1366 7.83546 52.6327 8.40207C52.1751 8.91643 51.4719 9.10455 50.479 9.10455H49.2189V1.57512H52.2229C53.6293 1.57512 54.5834 1.92449 55.1791 2.50454C56.1727 3.34288 56.8095 4.57763 57.4299 6.80003H57.8225V0.977896H43.2422V1.57512H45.7318V17.332L43.2422 17.335V17.9479H58.0958" fill="#90979E"/>
<path d="M63.9439 3.53786L74.4848 17.9473H75.4852V3.03023C75.4852 2.07244 75.892 1.5745 76.7326 1.5745H77.824V0.977285H72.3453V1.5745H73.4748C74.3243 1.5745 74.7215 2.08065 74.7215 3.03023V12.6708H74.6505L66.2686 0.977285H60.0635V1.5745H60.7615C61.6528 1.5745 62.1955 1.80219 62.6203 2.28967C62.9973 2.66294 63.1377 3.0153 63.1377 3.37661V15.7965C63.1377 16.7192 62.7577 17.3299 61.8932 17.3299L60.6577 17.3284V17.9473H66.4612V17.3284L65.1354 17.3299C64.2963 17.3247 63.9006 16.6752 63.9006 15.7965V3.53786" fill="#90979E"/>
<path d="M81.7154 2.62622C82.3066 2.03945 83.0158 1.6117 84.1587 1.6117H84.8037V17.3357H82.2484V17.9479H90.8349V17.3357H88.2848V1.6117H88.8454C89.9936 1.6117 90.7976 1.9969 91.3709 2.59785C92.3436 3.52056 92.9237 4.93373 93.453 7.03444H94.0285V0.97715H79.0771V6.97995H79.6475C80.1783 4.87923 80.7688 3.56983 81.7154 2.62622Z" fill="#90979E"/>
<path d="M106.683 17.3355V17.9484H115.186V17.3355H112.662V9.6179H113.718C114.514 9.6179 115.215 9.84634 115.674 10.3405C116.366 10.9587 116.721 12.1852 116.74 13.1743H117.375V5.45156H116.74C116.721 6.41756 116.341 7.54406 115.762 8.17786C115.25 8.73925 114.514 8.99754 113.718 8.99754H112.662V1.5659H115.108C116.576 1.5659 117.465 1.9205 118.2 2.64612C118.95 3.38518 119.656 4.65352 120.305 6.83039H120.846V0.977638H106.683V1.56217H109.169V17.3355" fill="#90979E"/>
<path d="M102.085 40.1293C101.118 40.1293 100.267 39.977 99.3477 39.4798C97.6568 38.407 96.8535 35.9249 96.8535 32.022C96.8535 27.9587 97.6426 25.7057 99.0685 24.6247C99.809 24.0947 100.849 23.8655 101.737 23.8655C104.455 23.8655 107.192 25.6788 107.922 30.0101H108.519V23.5221H108.027L106.815 25.584H106.765C105.951 24.406 103.872 23.2265 101.707 23.2265C96.8155 23.2265 92.9492 27.2652 92.9492 32.022C92.9492 36.7692 96.5788 40.8206 101.975 40.8206C105.203 40.8206 108.052 39.1379 108.775 35.2687L108.137 35.1082C107.465 38.263 105.443 40.1293 102.085 40.1293Z" fill="#90979E"/>
<path d="M82.249 24.2132H84.8036V39.9798H82.249V40.5718H90.8355V39.9798H88.2854V24.2132H90.8355V23.619H82.249" fill="#90979E"/>
<path d="M140.05 24.2149H141.447C142.296 24.2149 142.693 24.7218 142.693 25.6736V35.4105H142.622L133.604 23.6199H127.491V24.2172L128.19 24.2157C129.08 24.2157 129.561 24.4874 129.952 24.8965C130.329 25.2698 130.473 25.6557 130.473 26.0148V38.4384C130.473 39.3604 130.094 39.9696 129.231 39.9696H127.82V40.5683H133.882V39.9696H132.471C131.634 39.9643 131.236 39.3178 131.236 38.4384V26.1798H131.28L142.457 40.728H143.456V25.6736C143.456 24.7121 143.862 24.2149 144.705 24.2149H146.063V23.6199H140.05" fill="#90979E"/>
<path d="M55.9665 38.503C55.0117 39.6012 53.9404 39.9669 52.1742 39.9669L49.2328 39.9692V32.3636H50.5199C51.5008 32.3636 52.21 32.5562 52.6848 33.0721C53.2805 33.6349 53.6762 34.7331 53.6926 35.9006H54.3324V28.2099H53.6926C53.6762 29.3909 53.1857 30.4824 52.6751 31.0423C52.2249 31.5611 51.5127 31.7432 50.5199 31.7432H49.2328V24.2116H52.3869C53.7926 24.2116 54.8176 24.5766 55.4126 25.1559C56.4069 25.9943 57.0781 27.2283 57.688 29.4402H58.2516V23.6188H43.1748V24.2116H45.7443V39.9722L43.1748 39.9737V40.5664H58.5972V34.2844H58.2165C57.7178 36.044 56.9146 37.4176 55.9665 38.503Z" fill="#90979E"/>
<path d="M30.4281 35.2899H30.2758L25.5652 23.6188H18.8809V24.213H21.6064V38.3656C21.6064 39.351 21.1906 39.9572 20.3396 39.9632H18.904V40.5708H25.0539V39.9632H23.6071C22.7777 39.9572 22.3694 39.3085 22.3694 38.3656V24.961H22.4403L28.6364 40.6276H29.2322L34.8087 24.961H34.8744V39.9773H32.3526V40.5708H40.9257V39.9773H38.3495V24.213H40.9309V23.6188H34.5892" fill="#90979E"/>
<path d="M78.4525 39.7179C77.8031 39.7179 77.4447 39.4999 77.2215 38.7295C77.0737 38.2151 76.9737 37.1349 76.8811 36.1577C76.634 33.5479 74.9036 32.4333 72.5348 32.0436V31.9846C75.4896 31.7353 77.3992 30.1855 77.3992 27.7795C77.3992 25.1651 75.4866 23.6191 71.2165 23.6191H61.8379V24.2103L64.4 24.2133V39.9769H61.8379V40.5704H70.3595V39.9769H67.8885V32.1593H70.5648C72.1661 32.1593 73.1477 32.8491 73.2269 34.7483C73.241 34.9043 73.3127 36.7803 73.3284 36.9356C73.4493 39.6582 74.8931 40.8757 76.9505 40.8757C79.5313 40.8772 80.5421 39.6873 80.5659 37.1677L79.9232 37.1558C79.8971 38.9288 79.3536 39.7179 78.4525 39.7179ZM67.8885 24.2133L70.4916 24.2148C71.268 24.2148 72.0503 24.379 72.4893 24.6314C73.4784 25.1957 73.8278 26.3178 73.8278 27.7944C73.8278 29.2486 73.4837 30.464 72.5983 31.0664C72.1616 31.3807 71.4128 31.5203 70.6708 31.5203H67.8885" fill="#90979E"/>
<path d="M15.5428 38.6723L9.98789 23.5977H8.87184L3.43565 38.1191C2.98176 39.2882 2.61895 39.9652 1.56337 39.9652H0.754883V40.5707H6.04102V39.9652H4.89958C3.8231 39.9652 3.81936 39.1209 4.22696 38.0407L5.25493 35.2383H10.5903L11.8452 38.7686C12.0841 39.4778 12.1819 39.9652 11.3458 39.9652H10.0401V40.5707H17.9742V39.9645L16.8641 39.9652C16.1101 39.9652 15.8593 39.5405 15.5428 38.6723ZM5.48784 34.6104L7.93047 27.9813H8.00811L10.3664 34.6104" fill="#90979E"/>
<path d="M124.145 38.6723L118.59 23.5977H117.473L112.037 38.1191C111.584 39.2882 111.212 39.9578 110.164 39.9652H109.357V40.5707H114.641V39.9652H113.498C112.42 39.96 112.422 39.1209 112.827 38.0407L113.857 35.2383H119.191L120.447 38.7686C120.687 39.4778 120.764 39.9608 119.948 39.9652H118.641V40.5707H126.575V39.9652H125.465C124.713 39.9608 124.461 39.5405 124.145 38.6723ZM114.09 34.6104L116.532 27.9813H116.609L118.967 34.6104" fill="#90979E"/>
</svg>
