<svg width="89" height="25" viewBox="0 0 89 25" fill="none" xmlns="http://www.w3.org/2000/svg">
<g clip-path="url(#clip0_31179:1487)">
<path d="M5.50687 4.76291C3.8228 4.18873 2.90715 3.75149 2.90715 2.57583C2.90715 1.65883 3.74583 1.16297 4.6297 1.16297C6.26051 1.16297 7.2227 2.33505 7.58744 4.19186H7.9307V0.970083H7.64293L7.13991 1.97703H7.09381C6.63957 1.3845 5.77896 0.794652 4.64358 0.794652C2.8906 0.794652 1.51891 2.03163 1.51891 3.6132C1.51891 5.57518 2.9179 6.36552 4.69325 6.94597C6.34867 7.48301 7.09784 8.09299 7.09784 9.07533C7.09784 10.3128 6.46682 10.8977 5.05665 10.8977C4.21887 10.8977 3.41242 10.5656 2.83152 9.88804C2.28419 9.24986 1.96644 8.40313 1.79414 7.39574H1.45312V11.1183H1.7203L2.35401 10.0008H2.39965C2.95191 10.6784 3.86532 11.2727 5.05531 11.2727C7.20972 11.2727 8.52009 9.88178 8.52009 8.07375C8.52009 6.26617 7.27059 5.36977 5.50687 4.76291Z" fill="black"/>
<path d="M86.8465 2.13892C86.3582 1.43316 85.5455 0.780215 84.2476 0.780215C81.3145 0.780215 79.3418 3.20181 79.3418 6.05169C79.3418 8.89709 81.2205 11.3276 84.2306 11.3276C86.1658 11.3276 87.5849 10.3176 88.0176 7.9989L87.6511 7.90313C87.2492 9.79216 86.2396 10.9119 84.4781 10.9119C82.6482 10.9119 81.6815 9.37774 81.6815 6.05169C81.6815 2.73637 82.5752 1.16285 84.2861 1.16285C85.963 1.16285 87.012 2.39222 87.4837 4.84559H87.8637V0.956095H87.6243L86.8764 2.13892" fill="black"/>
<path d="M17.3367 2.10271C16.848 1.39785 16.0787 0.780704 14.7822 0.780704C11.8495 0.780704 9.875 3.20185 9.875 6.05218C9.875 8.89713 11.7555 11.3281 14.7652 11.3281C16.6999 11.3281 18.119 10.318 18.5517 7.99983L18.1857 7.93763C17.7225 9.7922 16.8547 10.9119 15.0118 10.9119C13.1832 10.9119 12.2151 9.37778 12.2151 6.05218C12.2151 2.73642 13.1375 1.16379 14.7661 1.16379C16.4421 1.16379 17.4915 2.39137 17.9623 4.84563H18.2881V0.956137H17.9937L17.3667 2.10271" fill="black"/>
<path d="M24.5158 10.7566H23.0251V1.30473H24.5158V0.95029H19.4453V1.30473H20.9369V10.7566H19.4453V11.124H24.5158" fill="black"/>
<path d="M57.7559 10.7566V11.124H62.8264V10.7566H61.3352V1.30473H62.8264V0.95029H57.7559V1.30473H59.2479V10.7566" fill="black"/>
<path d="M73.4336 1.30473H74.9248V10.7566H73.4336V11.124H78.5041V10.7566H77.0129V1.30473H78.5041V0.95029H73.4336" fill="black"/>
<path d="M34.9709 7.33408H34.7387C34.4209 8.40995 33.9926 9.32739 33.4422 9.97004C32.8734 10.6315 32.3171 10.7505 31.2591 10.7505L29.6493 10.7523V6.19467H30.4048C30.9928 6.19467 31.418 6.30968 31.7026 6.61848C32.0602 6.95637 32.2965 7.60618 32.3063 8.30612H32.5798V3.71176H32.3063C32.2965 4.41886 31.998 5.06152 31.6959 5.40119C31.4216 5.70954 31 5.82232 30.4048 5.82232H29.6493V1.30852H31.4502C32.2934 1.30852 32.8653 1.51796 33.2224 1.86569C33.8181 2.36827 34.1998 3.10849 34.5717 4.44079H34.8071V0.950493H26.0664V1.30852H27.5589V10.7546L26.0664 10.7564V11.1238H34.9709" fill="black"/>
<path d="M38.4767 2.48504L44.7958 11.1233H45.3955V2.18072C45.3955 1.60653 45.6394 1.30803 46.1433 1.30803H46.7976V0.950005H43.5132V1.30803H44.1903C44.6996 1.30803 44.9377 1.61146 44.9377 2.18072V7.96014H44.8952L39.8703 0.950005H36.1504V1.30803H36.5688C37.1032 1.30803 37.4285 1.44453 37.6832 1.73676C37.9092 1.96053 37.9933 2.17177 37.9933 2.38837V9.83395C37.9933 10.3871 37.7655 10.7532 37.2473 10.7532L36.5066 10.7523V11.1233H39.9857V10.7523L39.1909 10.7532C38.6879 10.75 38.4507 10.3607 38.4507 9.83395V2.48504" fill="black"/>
<path d="M49.1304 1.93864C49.4848 1.58688 49.91 1.33045 50.5952 1.33045H50.9818V10.7568H49.4499V11.1238H54.5974V10.7568H53.0687V1.33045H53.4048C54.0931 1.33045 54.5751 1.56137 54.9188 1.92164C55.5019 2.47478 55.8496 3.32196 56.1669 4.58132H56.512V0.950046H47.5488V4.54865H47.8907C48.2089 3.28929 48.5629 2.50432 49.1304 1.93864Z" fill="black"/>
<path d="M64.0977 10.7566V11.124H69.1955V10.7566H67.6824V6.13002H68.3152C68.7927 6.13002 69.2129 6.26696 69.4877 6.56323C69.9026 6.93379 70.1156 7.66908 70.1268 8.26206H70.5077V3.63235H70.1268C70.1156 4.21145 69.8878 4.88678 69.5405 5.26673C69.234 5.60327 68.7927 5.75812 68.3152 5.75812H67.6824V1.30294H69.1485C70.0288 1.30294 70.5614 1.51552 71.0022 1.95052C71.4519 2.39358 71.8753 3.15393 72.2642 4.45894H72.5882V0.95029H64.0977V1.30071H65.5884V10.7566" fill="black"/>
<path d="M61.3421 24.4213C60.7626 24.4213 60.2524 24.33 59.701 24.0319C58.6874 23.3888 58.2058 21.9008 58.2058 19.5611C58.2058 17.1252 58.6789 15.7745 59.5337 15.1265C59.9776 14.8088 60.601 14.6714 61.1331 14.6714C62.763 14.6714 64.4037 15.7584 64.8414 18.355H65.199V14.4655H64.904L64.1777 15.7016H64.1477C63.6599 14.9954 62.4135 14.2883 61.1152 14.2883C58.183 14.2883 55.8652 16.7094 55.8652 19.5611C55.8652 22.4069 58.0411 24.8357 61.2763 24.8357C63.211 24.8357 64.9193 23.827 65.3525 21.5074L64.9698 21.4112C64.5675 23.3025 63.3551 24.4213 61.3421 24.4213Z" fill="black"/>
<path d="M49.4512 14.8798H50.9826V24.3316H49.4512V24.6865H54.5987V24.3316H53.0699V14.8798H54.5987V14.5235H49.4512" fill="black"/>
<path d="M84.1011 14.8806H84.9384C85.4473 14.8806 85.6858 15.1845 85.6858 15.7551V21.5923H85.6428L80.2367 14.5239H76.5723V14.882L76.9912 14.8811C77.5246 14.8811 77.8133 15.044 78.0478 15.2892C78.2738 15.513 78.3597 15.7444 78.3597 15.9596V23.4074C78.3597 23.9602 78.1328 24.3253 77.6155 24.3253H76.7692V24.6843H80.4036V24.3253H79.5577C79.0556 24.3222 78.8171 23.9346 78.8171 23.4074V16.0585H78.8435L85.5439 24.78H86.1432V15.7551C86.1432 15.1787 86.3866 14.8806 86.8919 14.8806H87.7059V14.5239H84.1011" fill="black"/>
<path d="M33.6938 23.4461C33.1215 24.1044 32.4792 24.3237 31.4204 24.3237L29.6571 24.3251V19.7656H30.4287C31.0167 19.7656 31.4419 19.8811 31.7265 20.1903C32.0836 20.5278 32.3208 21.1861 32.3307 21.886H32.7142V17.2756H32.3307C32.3208 17.9836 32.0268 18.6378 31.7207 18.9735C31.4508 19.2845 31.0239 19.3937 30.4287 19.3937H29.6571V14.8786H31.5479C32.3906 14.8786 33.0051 15.0974 33.3618 15.4447C33.9579 15.9473 34.3602 16.6871 34.7259 18.0131H35.0637V14.5232H26.0254V14.8786H27.5658V24.3269L26.0254 24.3278V24.6831H35.2709V20.9171H35.0427C34.7438 21.972 34.2622 22.7954 33.6938 23.4461Z" fill="black"/>
<path d="M18.3834 21.5201H18.2921L15.4681 14.5234H11.4609V14.8796H13.0949V23.364C13.0949 23.9547 12.8456 24.3181 12.3354 24.3217H11.4748V24.686H15.1616V24.3217H14.2943C13.7971 24.3181 13.5523 23.9292 13.5523 23.364V15.3281H13.5948L17.3093 24.72H17.6664L21.0095 15.3281H21.0489V24.3302H19.5371V24.686H24.6765V24.3302H23.1321V14.8796H24.6797V14.5234H20.8779" fill="black"/>
<path d="M47.1732 24.1745C46.7838 24.1745 46.569 24.0439 46.4352 23.582C46.3466 23.2736 46.2866 22.6261 46.2311 22.0403C46.083 20.4757 45.0456 19.8075 43.6256 19.5739V19.5386C45.3969 19.3891 46.5417 18.46 46.5417 17.0176C46.5417 15.4504 45.3951 14.5235 42.8352 14.5235H37.2129V14.878L38.7488 14.8797V24.3298H37.2129V24.6856H42.3215V24.3298H40.8401V19.6433H42.4445C43.4045 19.6433 43.993 20.0568 44.0404 21.1953C44.0489 21.2888 44.0919 22.4135 44.1013 22.5066C44.1738 24.1387 45.0393 24.8687 46.2727 24.8687C47.8198 24.8695 48.4258 24.1562 48.4401 22.6458L48.0548 22.6386C48.0391 23.7015 47.7133 24.1745 47.1732 24.1745ZM40.8401 14.8797L42.4007 14.8806C42.8661 14.8806 43.3351 14.9791 43.5983 15.1304C44.1913 15.4687 44.4007 16.1413 44.4007 17.0266C44.4007 17.8983 44.1944 18.6269 43.6636 18.9881C43.4018 19.1765 42.9529 19.2602 42.5081 19.2602H40.8401" fill="black"/>
<path d="M9.46085 23.5477L6.13077 14.5107H5.46171L2.20279 23.2161C1.93069 23.9169 1.71319 24.3228 1.08038 24.3228H0.595703V24.6858H3.76467V24.3228H3.0804C2.43506 24.3228 2.43282 23.8167 2.67717 23.1691L3.29342 21.4891H6.49193L7.24423 23.6055C7.38744 24.0306 7.44607 24.3228 6.94483 24.3228H6.1621V24.6858H10.9185V24.3224L10.253 24.3228C9.80098 24.3228 9.65061 24.0682 9.46085 23.5477ZM3.43305 21.1127L4.89738 17.1386H4.94392L6.35767 21.1127" fill="black"/>
<path d="M74.5663 23.5477L71.2362 14.5107H70.5663L67.3074 23.2161C67.0357 23.9169 66.8128 24.3184 66.1845 24.3228H65.7012V24.6858H68.8688V24.3228H68.1832C67.5369 24.3197 67.5383 23.8167 67.7813 23.1691L68.3989 21.4891H71.5965L72.3493 23.6055C72.4929 24.0306 72.539 24.3202 72.0499 24.3228H71.2667V24.6858H76.023V24.3228H75.3576C74.9064 24.3202 74.7556 24.0682 74.5663 23.5477ZM68.5381 21.1127L70.0024 17.1386H70.0485L71.4622 21.1127" fill="black"/>
</g>
<defs>
<clipPath id="clip0_31179:1487">
<rect width="87.3872" height="24.0887" fill="white" transform="translate(0.632812 0.781006)"/>
</clipPath>
</defs>
</svg>
