<svg width="27" height="24" viewBox="0 0 27 24" fill="none" xmlns="http://www.w3.org/2000/svg">
<path fill-rule="evenodd" clip-rule="evenodd" d="M0.625 20.7014H26.9844V23.9193H0.625254L0.625 20.7014Z" fill="#FF322E"/>
<path fill-rule="evenodd" clip-rule="evenodd" d="M6.6906 0.361328L2.25977 13.7862H5.46781L8.47735 4.29704L9.98577 9.04111H8.0345L7.25525 11.7492H10.8468L11.4944 13.7862H14.7942L10.3639 0.361328H6.6906Z" fill="black"/>
<path fill-rule="evenodd" clip-rule="evenodd" d="M19.8344 0.361328H15.2285V13.7862H18.4137V3.06952H19.6971C21.1864 3.06952 22.0343 3.78687 22.0343 5.08314C22.0343 6.3562 21.1864 7.09692 19.6971 7.09692H19.4909V9.80503H19.8344C23.2716 9.80503 25.2881 8.05733 25.2881 5.08314C25.2881 2.05098 23.2716 0.361328 19.8344 0.361328Z" fill="black"/>
</svg>
