<svg width="89" height="34" viewBox="0 0 89 34" fill="none" xmlns="http://www.w3.org/2000/svg">
<path d="M16.9534 16.4791C16.9534 21.7262 16.9568 26.9724 16.9637 32.2174C16.9637 32.6425 16.8606 32.7469 16.4296 32.7459C11.3332 32.7295 6.23686 32.7295 1.1405 32.7459C0.711561 32.7459 0.607422 32.6435 0.607422 32.2185C0.620482 21.7419 0.620482 11.2658 0.607422 0.789947C0.607422 0.380282 0.722905 0.297325 1.11678 0.298349C6.22896 0.312687 11.3415 0.312687 16.4543 0.298349C16.8492 0.298349 16.9637 0.379258 16.9627 0.789947C16.9475 6.01865 16.9445 11.2484 16.9534 16.4791Z" fill="#154273"/>
<path d="M55.3575 31.9696L55.9452 30.0913C56.0019 29.91 56.1515 29.7031 55.739 29.657C55.8439 29.5768 55.9671 29.5235 56.0977 29.5018C56.2283 29.4802 56.3622 29.491 56.4876 29.5331C56.1422 30.4784 55.804 31.4165 55.4565 32.3516C55.3905 32.5278 55.4039 32.8217 55.0997 32.7725C54.7956 32.7234 54.9193 32.4376 54.8997 32.2604C54.8275 31.5804 54.7853 30.8973 54.6347 30.1947C54.4849 30.6638 54.335 31.1325 54.1852 31.6009C54.0975 31.8754 54.0109 32.1498 53.9212 32.4202C53.8696 32.58 53.8707 32.7971 53.6119 32.7736C53.3531 32.75 53.4376 32.539 53.417 32.3987C53.3139 31.6378 53.2025 30.8768 53.12 30.1128C53.1125 30.0136 53.0821 29.9175 53.0311 29.8319C52.9802 29.7462 52.91 29.6734 52.8262 29.6191C52.9953 29.4727 53.1767 29.4901 53.352 29.4942C53.5273 29.4983 53.5582 29.5403 53.5582 29.7707C53.5582 30.4395 53.6614 31.1083 53.7273 31.777C53.7737 31.8467 53.7902 31.9163 53.7779 31.9276C53.8067 31.8989 53.8315 31.7801 53.8975 31.6849C54.0955 31.0622 54.3017 30.4405 54.4893 29.8147C54.5533 29.6017 54.6492 29.4798 54.8894 29.4972C55.1565 29.5167 55.0678 29.7226 55.0801 29.8578C55.1235 30.334 55.1492 30.8123 55.1833 31.2916C55.2503 31.4626 55.2008 31.6408 55.2193 31.8149C55.2255 31.8938 55.1894 32.0239 55.3575 31.9696Z" fill="#20201E"/>
<path d="M23.5451 29.5639C23.2512 29.907 23.3677 32.3763 23.7214 32.7112C23.4745 32.8038 23.2043 32.8157 22.9502 32.745C23.1131 31.9584 22.9811 31.1903 22.913 30.4017C22.6298 31.1971 22.3466 31.9932 22.0634 32.79L21.9221 32.7777C21.7634 31.9775 21.6053 31.1773 21.4478 30.3771C21.3148 31.1514 20.823 31.8754 21.1024 32.745C20.9109 32.8038 20.7064 32.8059 20.5137 32.7511C20.7199 31.7054 21.189 30.7028 21.1241 29.5629C21.6303 29.3775 21.6561 29.3949 21.7716 30.0432C21.8747 30.5952 21.9778 31.1462 22.0809 31.6972C22.0809 31.7085 22.0964 31.7177 22.1552 31.7904C22.3851 31.1421 22.6305 30.541 22.8079 29.9213C22.9378 29.4861 23.1553 29.398 23.5451 29.5639Z" fill="#20201F"/>
<path d="M20.6328 18.1455C21.0607 17.9857 21.3907 17.9632 21.6453 18.4394C21.9832 19.048 22.3621 19.6331 22.7796 20.1907C22.7569 19.5097 23.0023 18.8071 22.629 18.0892C22.8084 17.9704 23.0899 18.0103 23.5302 18.1015C23.0899 18.2991 23.1456 18.5971 23.1446 18.8767C23.1446 19.5353 23.1528 20.1928 23.1373 20.8503C23.1373 21.0039 23.2621 21.2466 23.0136 21.3009C22.7878 21.3501 22.7558 21.0961 22.6692 20.9568C22.232 20.2676 21.8093 19.5691 21.3659 18.8491C21.1515 19.7657 21.2628 20.9937 21.6072 21.2333C21.3273 21.3672 21.006 21.3878 20.7112 21.2907C21.1257 20.7325 21.0752 18.464 20.6328 18.1455Z" fill="#20201E"/>
<path d="M79.0617 18.1341C78.6492 18.5868 78.6616 20.8993 79.0802 21.2506C78.7518 21.3729 78.3916 21.3819 78.0574 21.2762C78.5307 20.8727 78.3038 20.3647 78.341 19.9059C78.3513 19.7809 78.2378 19.7635 78.1347 19.7635H77.1624C77.1222 19.7565 77.0809 19.762 77.044 19.7792C77.0071 19.7965 76.9764 19.8246 76.9562 19.8598C76.8222 20.1046 76.9964 21.0458 77.2532 21.2445C76.9343 21.3671 76.5838 21.3829 76.2551 21.2895C76.6366 20.7549 76.6159 18.471 76.1777 18.1536C76.5167 18.0315 76.8861 18.0211 77.2315 18.1239C76.8077 18.4495 76.9706 18.8787 76.9438 19.2709C76.9346 19.4153 77.0212 19.4757 77.1573 19.4604C77.548 19.4143 77.9821 19.6109 78.3203 19.358C78.5265 19.1992 78.2915 18.3522 78.0564 18.1853C78.4915 18.0153 78.5441 18.0153 79.0617 18.1341Z" fill="#1F1F1D"/>
<path d="M87.5682 21.2067C87.0217 21.3767 87.0217 21.3767 86.6402 21.2733C86.9784 20.795 86.9175 18.1547 86.5566 17.7973C86.6907 17.6856 86.8598 17.7174 87.0134 17.6897C87.2269 17.6508 87.2918 17.7409 87.2805 17.956C87.2609 18.3206 87.2805 18.6873 87.2805 19.0826C87.4416 19.0182 87.6062 18.9625 87.7733 18.9156C88.3044 18.7999 88.6725 19.0539 88.7158 19.5906C88.7398 19.9742 88.7433 20.3588 88.7261 20.7427C88.7199 20.9476 88.7642 21.1125 88.9632 21.2067C88.8601 21.3491 88.7209 21.3337 88.6013 21.3409C88.3631 21.3562 88.1126 21.4576 88.259 20.9834C88.3848 20.5738 88.3074 20.0934 88.259 19.652C88.226 19.3202 87.96 19.2352 87.6455 19.2649C87.331 19.2946 87.2485 19.4697 87.266 19.7534C87.2846 20.0729 87.266 20.3935 87.266 20.7141C87.2671 20.9148 87.2011 21.1555 87.5682 21.2067Z" fill="#232322"/>
<path d="M40.503 32.7193C40.2705 32.797 40.0212 32.8112 39.7812 32.7603C39.9101 31.6962 40.1937 30.6628 40.0535 29.5362C40.0225 29.5444 40.1122 29.5004 40.203 29.5014C40.4566 29.5014 40.8361 29.3652 40.57 29.8988C40.4484 30.1425 40.4845 30.4641 40.4515 30.7509C40.4515 30.797 40.4412 30.8779 40.4597 30.8861C40.8031 31.0254 41.1578 30.9066 41.5073 30.9229C41.7341 30.9342 41.7022 30.7396 41.7053 30.6157C41.7115 30.2777 41.9589 29.8988 41.5527 29.6007C41.6636 29.5399 41.786 29.5026 41.9122 29.4911C42.0384 29.4797 42.1656 29.4943 42.2858 29.5342C42.1394 30.6014 41.863 31.6173 42.0229 32.7654C41.8898 32.8238 41.6331 32.7992 41.3289 32.747C41.4515 32.5515 41.5261 32.3301 41.5465 32.1007C41.664 31.1882 41.5362 31.0674 40.6051 31.2251C40.5426 31.2276 40.482 31.2471 40.4298 31.2814C40.2628 31.4473 40.303 32.495 40.503 32.7193Z" fill="#21211F"/>
<path d="M26.7006 23.5685C26.8882 23.419 27.0388 23.4354 27.179 23.4108C27.443 23.3647 27.4986 23.4722 27.4883 23.7242C27.4698 24.523 27.4811 25.3229 27.4801 26.1228C27.495 26.2176 27.4933 26.3143 27.4749 26.4085C27.3976 26.6134 27.741 26.767 27.5172 26.9749C27.2935 27.1828 27.1965 26.9042 27.0388 26.8643C26.9542 26.8438 26.8408 26.9503 26.7367 26.9943C26.5681 27.0775 26.3752 27.0982 26.1926 27.0528C26.0101 27.0074 25.8498 26.8988 25.7406 26.7465C25.4035 26.3307 25.4231 25.8524 25.588 25.3792C25.7427 24.9347 26.0778 24.692 26.5428 24.5886C26.7109 24.5507 27.0171 24.7606 27.0367 24.4094C27.0584 24.098 27.1903 23.716 26.7006 23.5685Z" fill="#232321"/>
<path d="M64.0678 21.2516C63.6791 21.3602 63.3461 21.3971 63.013 21.2844C63.3822 20.7948 63.3481 18.4864 62.9512 18.1474C63.3586 18.0431 63.7819 18.0143 64.1998 18.0624C64.8783 18.1279 65.2309 18.4485 65.2412 18.9841C65.2546 19.5402 64.7906 20.0339 64.205 20.1445C64.0421 20.1752 63.7709 19.9561 63.707 20.3012C63.6234 20.7395 63.7204 21.0202 64.0678 21.2516Z" fill="#222220"/>
<path d="M38.6326 26.305C38.7564 26.898 38.5512 27.066 38.0614 27.022C37.6314 26.9861 37.1953 27.0148 36.7395 27.0148C37.0963 26.4054 37.0488 24.183 36.6055 23.7958C37.2571 23.7958 37.8335 23.7221 38.379 23.8204C38.7801 23.8921 38.4821 24.267 38.5213 24.5814C38.2326 24.1789 37.7036 23.9669 37.4902 24.1133C37.4169 24.1635 37.3757 25.0955 37.4427 25.1887C37.5654 25.3577 38.1222 25.2481 38.4161 24.9962C38.4996 25.0719 38.4604 25.1723 38.4635 25.2604C38.4697 25.4652 38.4635 25.6701 38.4635 25.8616C38.2717 25.8923 38.3016 25.752 38.2501 25.6854C38.0531 25.4314 37.7696 25.5216 37.5283 25.5584C37.3107 25.5933 37.3984 25.8339 37.4252 25.9681C37.4654 26.2139 37.2293 26.5887 37.5634 26.685C37.915 26.7874 38.3398 26.7987 38.6326 26.305Z" fill="#232321"/>
<path d="M68.0868 17.7656C68.1961 17.7451 68.3054 17.7267 68.4136 17.7031C68.6869 17.6447 68.8385 17.6847 68.7941 18.0278C68.7713 18.3451 68.7685 18.6636 68.7859 18.9813C68.8313 18.9946 68.8643 19.0171 68.889 19.0089C69.6397 18.7621 70.1264 18.9403 70.3037 19.5272C70.5285 20.2799 70.1418 21.087 69.4551 21.2887C69.3464 21.3198 69.2348 21.3397 69.122 21.3481C68.4229 21.4024 68.3673 21.3481 68.3703 20.666C68.3703 19.9143 68.3703 19.1615 68.3703 18.4129C68.3703 18.1701 68.4054 17.9192 67.9785 17.8854L68.0868 17.7656Z" fill="#20201E"/>
<path d="M71.676 32.4563C71.5224 32.6703 71.342 32.8854 71.0502 32.783C70.7584 32.6806 70.7274 32.4071 70.6996 32.148C70.5883 31.1331 70.9924 30.5237 71.9678 30.2912C72.1741 30.242 72.1679 30.1232 72.1864 29.9839C72.2246 29.7084 72.4246 29.394 71.9297 29.2148C72.1266 29.1728 72.2493 29.14 72.3731 29.1216C72.6484 29.0817 72.7422 29.1656 72.6824 29.4667C72.5329 30.2021 72.4112 30.9436 72.2998 31.6851C72.2504 32.021 72.1503 32.3784 72.4535 32.6703C71.875 32.8752 71.8616 32.8619 71.8596 32.2873C71.819 32.2624 71.7846 32.2288 71.7589 32.1889C71.7332 32.149 71.7168 32.1039 71.7111 32.0569C71.7379 31.7086 71.8647 31.3778 71.9049 31.0327C71.9225 30.8862 71.9245 30.6947 71.708 30.7613C71.3234 30.8791 71.2616 31.2396 71.2378 31.5683C71.2172 31.8561 71.0832 32.2412 71.5874 32.3016C71.6523 32.3344 71.7121 32.3672 71.676 32.4563Z" fill="#222220"/>
<path d="M76.5237 30.761C76.5416 30.6427 76.595 30.5325 76.6768 30.4446C76.7586 30.3568 76.8651 30.2954 76.9825 30.2684C77.1887 30.2428 77.3104 30.3708 77.3949 30.5326C77.8703 31.4165 77.2248 32.6557 76.2257 32.7643C76.1092 32.7766 76.038 32.7909 76.038 32.9138C76.038 33.1688 75.9349 33.4167 76.0009 33.6768C76.0215 33.7629 76.237 33.8468 76.0432 33.9339C75.9092 33.9878 75.7611 33.9968 75.6215 33.9595C75.4854 33.9196 75.5514 33.769 75.5658 33.6635C75.6905 32.7592 75.8102 31.8548 75.9473 30.9526C75.9834 30.7098 75.971 30.5173 75.6998 30.4313C75.7978 30.3002 75.9215 30.3196 76.0277 30.2981C76.302 30.2428 76.4401 30.3217 76.3422 30.6248C76.3102 30.7272 76.2226 30.8665 76.4453 30.8594C76.5804 31.2516 76.3051 31.5947 76.3123 31.9726C76.3123 32.1078 76.2092 32.285 76.3968 32.3485C76.5494 32.4007 76.669 32.2717 76.7495 32.1508C76.9753 31.8149 77.0052 31.439 76.9557 31.0498C76.932 30.7805 76.6804 30.844 76.5237 30.761Z" fill="#21211F"/>
<path d="M49.042 25.7294C49.0502 26.4904 48.5264 27.0885 47.8397 27.0926C47.1921 27.0926 46.7415 26.6368 46.725 25.9568C46.7075 25.1907 47.2179 24.5844 47.8974 24.566C48.5491 24.5465 49.0347 25.0402 49.042 25.7294Z" fill="#212120"/>
<path d="M31.2976 21.262C31.6956 20.8063 31.6522 19.3991 31.2109 19.0089C31.4821 18.9904 31.71 18.7457 31.9688 19.0283C32.0987 19.1707 32.2235 18.9812 32.3451 18.9464C32.9875 18.7631 33.3979 19.0406 33.4196 19.7043C33.4309 20.0402 33.436 20.3772 33.4196 20.7121C33.4061 20.9353 33.4371 21.1217 33.6794 21.2057C33.5433 21.3481 33.3907 21.3337 33.2535 21.345C32.9947 21.3665 32.8184 21.3972 32.9617 20.9865C33.1051 20.5758 33.0442 20.1017 32.9617 19.6551C32.903 19.3213 32.672 19.2321 32.3544 19.2567C32.0121 19.2844 31.942 19.4759 31.9605 19.776C31.9791 20.0761 31.9605 20.3833 31.9657 20.6875C31.9657 20.9046 31.8904 21.1617 32.2977 21.1996C31.9172 21.3511 31.6141 21.4218 31.2976 21.262Z" fill="#21211F"/>
<path d="M28.6798 20.214C28.6705 19.4521 29.1954 18.8529 29.8769 18.8458C30.5151 18.8396 30.9781 19.3107 30.9956 19.9826C31.0152 20.7415 30.4976 21.357 29.8243 21.3785C29.1727 21.3949 28.6881 20.9064 28.6798 20.214Z" fill="#21211F"/>
<path d="M42.4576 21.2528C42.1627 21.305 42.038 21.3398 41.9112 21.347C41.6585 21.3613 41.4812 21.4023 41.6225 20.9906C41.7637 20.5789 41.7049 20.1036 41.6297 19.6592C41.575 19.3355 41.343 19.23 41.0213 19.2587C40.6996 19.2874 40.5965 19.4635 40.6182 19.7708C40.6372 20.0743 40.6372 20.3788 40.6182 20.6823C40.6058 20.9168 40.6274 21.1186 40.9739 21.221C40.5883 21.3552 40.2996 21.392 39.948 21.2743C40.3511 20.9496 40.2057 20.5246 40.1995 20.1385C40.1934 19.7524 40.3975 19.2986 39.7871 19.0037C40.1552 18.9904 40.3851 18.7313 40.6378 19.0375C40.7409 19.1655 40.8625 18.9904 40.9718 18.9566C41.639 18.7517 42.0586 19.0262 42.0761 19.7124C42.0844 20.032 42.0875 20.3525 42.0761 20.6721C42.0658 20.9076 42.0751 21.1176 42.4576 21.2528Z" fill="#21211F"/>
<path d="M65.4512 19.0549C66.2451 18.7896 66.2431 18.7896 66.2431 19.4574C66.2431 19.8097 66.2338 20.163 66.2575 20.5133C66.2781 20.8205 66.4317 21.0192 66.7854 21.0059C67.1391 20.9926 67.2638 20.8277 67.2298 20.4846C67.2087 20.229 67.2087 19.9721 67.2298 19.7165C67.2494 19.4389 67.2185 19.1931 66.8988 19.0231C67.0679 18.974 67.1731 18.9371 67.2814 18.9125C67.5464 18.8541 67.6722 18.8879 67.6742 19.232C67.6742 19.8465 67.5536 20.4682 67.7639 21.0827C67.8268 21.266 67.5639 21.4248 67.434 21.2875C67.2277 21.0827 67.105 21.2076 66.9318 21.2691C66.2637 21.5057 65.8523 21.2281 65.8306 20.5297C65.8224 20.2408 65.8234 19.952 65.8306 19.6642C65.8368 19.4205 65.8451 19.1829 65.4512 19.0549Z" fill="#232321"/>
<path d="M59.9541 20.0279C59.9541 20.795 59.4221 21.3859 58.7436 21.3788C58.0919 21.3726 57.6383 20.8667 57.6506 20.1692C57.664 19.4165 58.1662 18.8552 58.8374 18.847C59.5087 18.8388 59.9552 19.3222 59.9541 20.0279Z" fill="#21211F"/>
<path d="M41.3944 26.9369C41.113 27.1172 40.8593 27.0731 40.5572 27.0393C40.7964 26.5498 40.6933 26.0459 40.6943 25.5502C40.6943 25.2061 40.5355 24.9644 40.1386 24.9705C39.7416 24.9767 39.623 25.201 39.6591 25.5686C39.6823 25.8724 39.6823 26.1774 39.6591 26.4812C39.6413 26.5795 39.6621 26.6808 39.7171 26.7644C39.7721 26.848 39.8572 26.9075 39.955 26.9308C39.6457 27.1356 39.3498 27.0547 39.0322 27.0557C39.3838 26.4412 39.325 25.0893 38.9219 24.7421C39.1941 24.694 39.422 24.4861 39.6653 24.7698C39.7488 24.8661 39.8344 24.7534 39.9148 24.7268C40.7284 24.4533 41.1119 24.7268 41.1181 25.5819C41.1181 25.8708 41.1305 26.1596 41.1181 26.4474C41.1047 26.6624 41.1439 26.8396 41.3944 26.9369Z" fill="#21211F"/>
<path d="M54.8935 20.8287C54.7729 21.2803 54.4604 21.3295 54.1635 21.3684C53.9712 21.4027 53.773 21.3801 53.5936 21.3034C53.4141 21.2267 53.2613 21.0994 53.154 20.9372C52.7983 20.4323 52.8942 19.5454 53.3438 19.1183C53.7933 18.6912 54.5295 18.7824 54.778 19.3078C55.0471 19.8731 54.8986 20.1169 54.2841 20.1169C54.1557 20.1076 54.0269 20.1076 53.8985 20.1169C53.7356 20.1414 53.4984 20.0093 53.4252 20.209C53.3448 20.4282 53.4737 20.6484 53.6417 20.8102C54.0109 21.1687 54.4161 20.9741 54.8935 20.8287Z" fill="#232321"/>
<path d="M81.294 20.8317C80.994 21.5107 80.0381 21.5537 79.5978 20.9771C79.2019 20.4589 79.3009 19.5156 79.7958 19.0875C80.2577 18.6871 80.9496 18.7967 81.194 19.3077C81.4621 19.871 81.3115 20.1168 80.6991 20.1168C80.5704 20.1071 80.4411 20.1071 80.3124 20.1168C80.1505 20.1414 79.9123 20.0083 79.8391 20.209C79.7597 20.4292 79.8896 20.6484 80.0577 20.8102C80.4268 21.1697 80.8321 20.9751 81.294 20.8317Z" fill="#232321"/>
<path d="M32.7334 30.3965C33.3417 30.204 33.3665 30.2214 33.4242 30.7857C33.4677 31.2646 33.5393 31.7406 33.6387 32.2113C33.8573 31.6419 34.3326 31.1411 34.0315 30.4569C33.9686 30.3135 34.1223 30.3197 34.2016 30.3012C34.3615 30.2634 34.4945 30.3084 34.5512 30.4733C34.5873 30.6143 34.5735 30.7633 34.512 30.8953C34.1898 31.8011 33.7573 32.6643 33.2242 33.4659C33.0303 33.768 32.7499 34.0015 32.3477 33.978C32.1817 33.9667 32.0054 33.8971 32.0446 33.6881C32.0838 33.4792 32.2508 33.6236 32.3601 33.6267C32.8231 33.638 33.3211 33.1935 33.2768 32.7162C33.2149 32.0485 33.0808 31.3848 32.987 30.7222C32.9664 30.5696 32.8231 30.5389 32.7334 30.3965Z" fill="#232321"/>
<path d="M57.954 26.5693C57.8374 27.0363 57.5075 27.0598 57.1858 27.0875C56.9924 27.114 56.7954 27.0826 56.6202 26.9972C56.4449 26.9118 56.2993 26.7763 56.2021 26.6082C55.8928 26.1145 55.9877 25.2768 56.4022 24.8671C56.7043 24.5691 57.0631 24.4728 57.4632 24.6459C57.8849 24.8271 57.9509 25.1999 57.9643 25.6014C57.9715 25.8062 57.855 25.8329 57.69 25.8308C57.3683 25.8257 57.0456 25.839 56.7239 25.8257C56.4929 25.8165 56.4516 25.9056 56.497 26.1135C56.5878 26.5314 56.9095 26.7833 57.3353 26.728C57.5443 26.6866 57.7509 26.6336 57.954 26.5693Z" fill="#232321"/>
<path d="M37.1543 33.8601C37.5585 33.7178 37.6317 33.4505 37.6637 33.1432C37.7369 32.4591 37.8214 31.7749 37.8854 31.0898C37.8998 30.9392 38.0266 30.7324 37.7627 30.6412C37.7379 30.633 37.7173 30.5326 37.7245 30.5285C38.1246 30.3237 37.9575 29.8639 38.1545 29.5638C38.274 29.3913 38.4432 29.2587 38.6398 29.1832C38.8365 29.1077 39.0515 29.093 39.2567 29.1408C39.3908 29.1736 39.5289 29.2105 39.497 29.3784C39.4557 29.5955 39.3042 29.4706 39.1876 29.4491C38.7102 29.3559 38.4855 29.4798 38.3999 29.9028C38.3442 30.1773 38.2803 30.4743 38.7504 30.3841C38.8237 30.3698 38.9278 30.3565 38.934 30.4732C38.9351 30.4976 38.9307 30.522 38.9209 30.5443C38.9111 30.5667 38.8963 30.5866 38.8776 30.6024C38.8589 30.6183 38.8367 30.6296 38.8129 30.6356C38.7891 30.6416 38.7642 30.6421 38.7401 30.6371C38.271 30.5726 38.2834 30.8788 38.2535 31.1983C38.1844 31.947 38.106 32.6967 37.9977 33.4413C37.9256 33.9554 37.709 34.068 37.1543 33.8601Z" fill="#222220"/>
<path d="M48.748 19.0529C49.5368 18.7887 49.5348 18.7887 49.5348 19.4554C49.5348 19.8077 49.5286 20.1611 49.5472 20.5123C49.5647 20.8268 49.7214 21.0183 50.072 21.006C50.4226 20.9937 50.5597 20.8391 50.5216 20.4939C50.5004 20.2383 50.5004 19.9814 50.5216 19.7258C50.5391 19.4482 50.5216 19.1953 50.1823 19.0324C50.3535 18.9812 50.4576 18.9423 50.5659 18.9187C50.8247 18.8624 50.9546 18.8788 50.9556 19.2332C50.9556 19.8477 50.7989 20.4765 51.068 21.0767C51.1134 21.1791 51.0392 21.2241 50.9773 21.2702C50.8824 21.3409 50.7711 21.4034 50.6824 21.2794C50.5473 21.0797 50.4226 21.1934 50.27 21.2508C49.5482 21.5252 49.1357 21.2508 49.1162 20.4939C49.1079 20.2225 49.1079 19.9491 49.1162 19.6746C49.1234 19.4288 49.1316 19.1912 48.748 19.0529Z" fill="#21211F"/>
<path d="M20.6928 25.1948C20.731 24.6141 21.1053 24.5803 21.4765 24.568C22.0064 24.5516 22.3116 24.7728 22.3426 25.1958C22.3622 25.4652 22.3271 25.7396 22.3343 26.0151C22.3415 26.265 22.2756 26.5139 22.4168 26.7638C22.5333 26.9686 22.2477 27.1079 22.19 27.0547C21.9105 26.8007 21.6847 27.0547 21.4414 27.0823C21.096 27.1171 20.7702 27.0823 20.6402 26.7126C20.5103 26.3429 20.7073 26.0909 21.0145 25.9189C21.1671 25.8294 21.3354 25.7697 21.5105 25.7427C21.7693 25.711 21.9838 25.7069 21.9167 25.333C21.8538 24.9869 21.6744 24.8773 21.3455 24.9162C21.129 24.9418 20.9537 25.0524 20.6928 25.1948Z" fill="#232321"/>
<path d="M60.3632 30.4435C60.3632 30.5624 60.2951 30.6484 60.1931 30.6351C59.7188 30.5767 59.7002 30.8952 59.6682 31.2209C59.5981 31.9378 59.528 32.6547 59.4393 33.3716C59.3733 33.9062 59.162 34.0496 58.6289 33.8981C59.0413 33.6523 59.0712 33.261 59.1115 32.8739C59.1743 32.2522 59.2558 31.6326 59.3177 31.0099C59.3311 30.8839 59.4208 30.715 59.197 30.6566C59.1176 30.6361 59.0939 30.5429 59.1506 30.5173C59.5136 30.3544 59.3878 29.9898 59.496 29.7246C59.5906 29.5 59.7647 29.3175 59.9854 29.2117C60.2062 29.1058 60.4583 29.0839 60.6942 29.15C60.8375 29.1889 60.9396 29.2391 60.9004 29.4071C60.854 29.6119 60.721 29.4849 60.6364 29.4593C60.3271 29.3672 60.0528 29.3774 59.8868 29.6969C59.7837 29.8844 59.7353 30.1199 59.8023 30.3012C59.8951 30.5347 60.2034 30.2735 60.3632 30.4435Z" fill="#232321"/>
<path d="M35.2662 26.5559C35.0084 27.153 34.1815 27.2728 33.7051 26.8396C33.1184 26.3122 33.2463 25.0934 33.9299 24.695C34.3681 24.439 34.9239 24.5701 35.1518 24.9838C35.4549 25.5348 35.2899 25.8288 34.6764 25.8288C34.5644 25.8154 34.4512 25.8154 34.3393 25.8288C34.1588 25.8749 33.8639 25.668 33.8113 25.964C33.7587 26.2599 33.934 26.5211 34.2238 26.6635C34.5579 26.8345 34.8765 26.6706 35.2662 26.5559Z" fill="#222220"/>
<path d="M23.8356 19.4269C23.7981 19.3721 23.782 19.3056 23.7906 19.2399C23.7992 19.1742 23.8317 19.1139 23.882 19.0705C24.2037 18.7704 24.5976 18.8113 24.975 18.9035C25.2947 18.9814 25.4204 19.2364 25.439 19.5559C25.4699 20.068 25.2678 20.5903 25.5256 21.1065C25.5885 21.2325 25.3307 21.4209 25.2101 21.3164C25.0039 21.1372 24.8616 21.2581 24.6894 21.3164C24.2501 21.4567 23.8552 21.3349 23.7294 21.0225C23.5923 20.6794 23.7985 20.3056 24.245 20.1243C24.3619 20.0703 24.487 20.0357 24.6152 20.0219C24.8997 20.0014 25.0544 19.9195 24.9967 19.5866C24.9389 19.2538 24.7595 19.1616 24.4574 19.1872C24.2223 19.2026 24.0429 19.347 23.8356 19.4269Z" fill="#222220"/>
<path d="M34.003 19.4492C34.0587 18.8419 34.4773 18.8552 34.8588 18.8511C35.2661 18.8511 35.5971 18.9842 35.6559 19.4482C35.7239 19.9961 35.5157 20.5553 35.7518 21.1042C35.8075 21.2333 35.5755 21.4299 35.4342 21.3091C35.228 21.1278 35.0805 21.264 34.9104 21.3162C34.467 21.4504 34.0855 21.3285 33.9556 21.0039C33.8257 20.6792 34.0226 20.3197 34.4413 20.1323C34.5579 20.0781 34.6819 20.0412 34.8094 20.0227C35.0816 19.9869 35.3187 19.9643 35.229 19.5731C35.1393 19.1819 34.8991 19.1266 34.5805 19.2054C34.3821 19.2721 34.189 19.3536 34.003 19.4492Z" fill="#222220"/>
<path d="M81.6838 19.4606C81.69 18.9434 82.0137 18.8727 82.3694 18.8543C82.7747 18.8327 83.1943 18.8686 83.2974 19.3428C83.4325 19.9276 83.1726 20.5452 83.4191 21.1371C83.4593 21.2395 83.2242 21.3932 83.1572 21.3348C82.8974 21.1084 82.685 21.3051 82.4509 21.3522C82.1076 21.4208 81.7858 21.3717 81.6332 21.0152C81.4806 20.6588 81.6766 20.4007 81.9663 20.2062C82.1299 20.1016 82.3154 20.0357 82.5086 20.0136C82.7293 19.9819 82.9726 19.9941 82.9056 19.6367C82.8448 19.3151 82.6994 19.1451 82.355 19.183C82.124 19.2076 81.9384 19.3387 81.6838 19.4606Z" fill="#222220"/>
<path d="M55.0471 25.2492C54.9162 25.0822 54.7646 24.9542 54.5316 24.9696C54.2645 24.987 54.0768 25.0454 54.1129 25.3895C54.149 25.7336 54.1201 26.09 54.1232 26.4413C54.1232 26.6461 54.0583 26.8766 54.4666 26.897C54.114 27.1203 53.8479 27.0753 53.5726 27.0384C53.8005 26.4915 53.7139 25.9384 53.6757 25.3946C53.653 25.028 53.3664 24.9481 53.0488 24.9583C52.9179 25.0116 52.8137 25.0198 52.8251 24.8303C53.0942 24.5927 53.4437 24.523 53.717 24.6951C54.0129 24.8794 54.2325 24.7781 54.4883 24.6951C54.9461 24.5476 55.2338 24.6736 55.4606 25.1304C55.5544 25.5667 55.4719 26.0091 55.508 26.4464C55.5194 26.5867 55.4049 26.7629 55.6039 26.8643C55.6241 26.8848 55.6424 26.9071 55.6586 26.9308C55.6586 26.938 55.6462 26.9575 55.639 26.9708C55.4328 26.978 55.1956 27.1756 55.0533 26.8622V26.8694C55.1733 26.3357 55.1712 25.782 55.0471 25.2492Z" fill="#222220"/>
<path d="M62.1372 32.7398C61.7247 32.7501 61.3876 32.959 61.368 32.4613C61.336 32.4613 61.2958 32.449 61.2752 32.4613C61.069 32.6098 60.9081 32.9273 60.5864 32.7736C60.2647 32.62 60.2513 32.2861 60.2369 31.984C60.1874 30.9035 60.8792 30.1661 61.7835 30.3023C62.0382 30.3402 62.1062 30.4252 62.0526 30.671C61.9619 31.092 61.8969 31.517 61.8289 31.942C61.7825 32.2124 61.7588 32.4817 62.1372 32.7398Z" fill="#232321"/>
<path d="M67.3082 32.5587C66.7535 32.9622 66.4473 32.8321 66.3556 32.149C66.2112 31.0839 66.8814 30.2164 67.7805 30.2881C68.0949 30.3137 68.2475 30.3905 68.1434 30.7531C68.0403 31.1361 68.0021 31.5386 67.9372 31.9329C67.8836 32.2309 67.9094 32.5044 68.1723 32.7072C67.8805 32.7963 67.5536 33.0021 67.4278 32.5023C67.4175 32.4819 67.3495 32.5392 67.3082 32.5587Z" fill="#232321"/>
<path d="M75.435 30.1956C75.2288 30.0799 75.2536 29.8249 75.0226 29.7808C74.7731 29.7317 74.5266 29.7276 74.3627 29.9539C74.1987 30.1803 74.2338 30.4117 74.4235 30.6084C74.6132 30.805 74.8215 30.9822 75.0185 31.1716C75.2762 31.4195 75.4371 31.7063 75.3175 32.0739C75.2629 32.2515 75.1586 32.4101 75.0167 32.531C74.8749 32.652 74.7013 32.7304 74.5163 32.7571C74.3896 32.7805 74.2605 32.7891 74.1317 32.7827C73.5069 32.7601 73.476 32.711 73.6832 32.0135C73.8502 32.2583 73.9513 32.5594 74.3091 32.5143C74.5246 32.4867 74.7318 32.4488 74.8473 32.247C74.9075 32.1501 74.9338 32.0362 74.9222 31.9229C74.9107 31.8096 74.8619 31.7032 74.7834 31.6202C74.5854 31.3898 74.3617 31.1809 74.1524 30.9586C73.8142 30.6002 73.776 30.1772 74.0492 29.832C74.3225 29.4869 75.0515 29.3251 75.3783 29.5412C75.6639 29.7337 75.3721 29.9785 75.435 30.1956Z" fill="#222220"/>
<path d="M45.2593 32.4469C45.1139 32.6722 44.9304 32.8801 44.6406 32.7869C44.3509 32.6937 44.3107 32.4162 44.2859 32.156C44.2437 31.7167 44.2859 31.2906 44.5221 30.9035C44.6122 30.7411 44.7393 30.602 44.8933 30.4972C45.0473 30.3925 45.2238 30.325 45.4088 30.3002C46.0275 30.2122 46.1388 30.3289 46.0275 30.9352C45.9587 31.2971 45.901 31.6603 45.8542 32.0249C45.8254 32.2605 45.812 32.5032 46.0728 32.6671C45.4542 32.8719 45.4408 32.8658 45.4542 32.2892C45.4147 32.1486 45.3843 32.0056 45.3634 31.8611C45.3634 31.5722 45.4665 31.2998 45.5006 31.0151C45.5181 30.8523 45.4769 30.6915 45.2727 30.7734C44.9335 30.9096 44.8221 31.223 44.8242 31.5518C44.8242 31.8365 44.6592 32.2298 45.1655 32.3025C45.2263 32.3281 45.2892 32.3537 45.2593 32.4469Z" fill="#222220"/>
<path d="M77.793 31.78C77.8291 31.3089 77.9291 30.8583 78.2951 30.5193C78.5446 30.2878 78.8385 30.1782 79.1818 30.3145C79.4984 30.4394 79.5943 30.7139 79.6097 31.0099C79.6416 31.4275 79.5484 31.8451 79.3417 32.2102C79.0829 32.6618 78.69 32.879 78.3219 32.7561C77.8476 32.5963 77.7971 32.1989 77.793 31.78Z" fill="#232321"/>
<path d="M37.3948 31.1616C37.3525 31.688 37.2422 32.1663 36.8597 32.536C36.637 32.7531 36.3709 32.8484 36.0637 32.748C35.7564 32.6476 35.6327 32.4111 35.5914 32.1335C35.5044 31.6387 35.6154 31.1297 35.9008 30.715C36.1369 30.3781 36.4606 30.1671 36.8947 30.2962C37.3288 30.4252 37.3793 30.8021 37.3948 31.1616Z" fill="#232321"/>
<path d="M57.314 21.2025C56.9387 21.351 56.6427 21.4073 56.2829 21.2752C56.6654 20.9679 56.551 20.5583 56.5242 20.1886C56.4974 19.8188 56.7675 19.3897 56.2148 19.1388C56.4819 19.0179 56.5386 18.8418 56.5469 18.5929C56.5675 17.9364 57.1067 17.5554 57.745 17.705C57.877 17.7357 58.0193 17.7726 58.0038 17.9323C57.9821 18.1566 57.8089 18.0276 57.7048 18.0204C57.116 17.9774 56.9758 18.0706 56.9428 18.5325C56.9211 18.8305 56.9717 19.0446 57.3552 18.9831C57.4336 18.9698 57.5687 18.935 57.5852 19.0732C57.6017 19.2115 57.4821 19.2719 57.3655 19.2515C56.9325 19.1777 56.9531 19.4501 56.9603 19.7379C56.9706 20.0575 56.9603 20.377 56.9603 20.6965C56.9686 20.9147 56.8892 21.1789 57.314 21.2025Z" fill="#232321"/>
<path d="M65.2271 32.239C65.0631 32.7623 64.7445 32.8176 64.4197 32.8186C64.2718 32.8292 64.1252 32.7856 64.0075 32.6962C63.8897 32.6068 63.8089 32.4777 63.7804 32.3332C63.6267 31.6736 63.7237 31.054 64.1928 30.5389C64.5022 30.1978 64.9981 30.162 65.224 30.4252C65.4498 30.6884 65.3508 31.1728 65.0012 31.4432C64.8796 31.5484 64.7348 31.6238 64.5785 31.6634C64.2578 31.7187 64.0031 31.772 64.1722 32.1929C64.3413 32.6138 64.6259 32.5165 64.928 32.3977C64.995 32.3721 65.0549 32.3311 65.2271 32.239Z" fill="#252523"/>
<path d="M44.0048 32.2829C43.8697 32.753 43.5532 32.8124 43.2284 32.8196C42.9036 32.8268 42.65 32.6608 42.5798 32.3475C42.4386 31.7155 42.5077 31.1041 42.9418 30.5859C43.148 30.3401 43.4202 30.2049 43.7553 30.2786C43.852 30.2928 43.9409 30.3393 44.0075 30.4104C44.074 30.4815 44.1142 30.573 44.1213 30.6699C44.1464 30.8287 44.1234 30.9914 44.0553 31.1372C43.9872 31.2831 43.877 31.4056 43.7388 31.4892C43.6098 31.5847 43.4607 31.6498 43.3026 31.6797C43.0036 31.7125 42.8634 31.8149 42.9479 32.1334C43.0325 32.4519 43.2315 32.5431 43.5284 32.4683C43.6906 32.4155 43.8497 32.3536 44.0048 32.2829Z" fill="#242422"/>
<path d="M57.7852 32.3537C57.6501 32.7521 57.3366 32.8166 57.0118 32.8207C56.687 32.8248 56.4365 32.6528 56.3684 32.3404C56.2323 31.7259 56.3004 31.1288 56.7077 30.6157C56.9139 30.3515 57.1995 30.206 57.5563 30.2808C57.6528 30.2963 57.741 30.3444 57.806 30.4169C57.871 30.4895 57.9088 30.5821 57.913 30.6792C57.9365 30.8467 57.9077 31.0174 57.8304 31.1681C57.7531 31.3188 57.6312 31.4424 57.481 31.5221C57.3778 31.5988 57.2582 31.651 57.1314 31.6747C56.7819 31.6993 56.6324 31.8365 56.7541 32.1868C56.8757 32.537 57.1345 32.5206 57.4233 32.4449C57.5274 32.4193 57.5934 32.2933 57.7852 32.3537Z" fill="#232321"/>
<path d="M44.0716 19.3132C43.8406 19.2723 43.6261 19.133 43.3776 19.1914C43.2281 19.2262 43.0972 19.2938 43.0611 19.4484C43.046 19.5201 43.0571 19.5947 43.0924 19.6589C43.1278 19.7231 43.185 19.7727 43.2539 19.7987C43.4251 19.8857 43.6065 19.9533 43.7829 20.0312C44.0365 20.1428 44.2097 20.3108 44.2108 20.6088C44.2137 20.7459 44.1752 20.8808 44.1002 20.996C44.0252 21.1112 43.9172 21.2014 43.7901 21.255C43.6548 21.3283 43.5053 21.3719 43.3516 21.3829C43.1979 21.3939 43.0436 21.3719 42.8992 21.3185C42.6631 21.2305 42.5837 21.0656 42.6765 20.8157C42.894 20.8853 43.0662 21.0533 43.2951 21.0666C43.4962 21.0779 43.7076 21.0615 43.7829 20.8464C43.8581 20.6313 43.7014 20.4931 43.521 20.3999C43.3405 20.3067 43.1353 20.2329 42.9611 20.1213C42.8483 20.0559 42.7603 19.9555 42.7106 19.8356C42.6609 19.7157 42.6521 19.5829 42.6858 19.4576C42.7134 19.3146 42.7842 19.1832 42.8888 19.0811C42.9935 18.979 43.1269 18.911 43.2714 18.8862C43.5385 18.8298 43.82 18.7837 44.0489 18.9957C44.1458 19.0818 44.1314 19.1965 44.0716 19.3132Z" fill="#232321"/>
<path d="M41.2637 24.6611C41.5705 24.6115 41.8829 24.6046 42.1917 24.6406C41.8627 25.3042 42.4329 25.7723 42.5278 26.3376C42.6567 25.7774 43.1949 25.3135 42.898 24.6437H43.5496C43.2403 25.3903 42.9454 26.1215 42.6433 26.8507C42.6031 26.9531 42.5855 27.0904 42.4371 27.0709C42.3267 27.0566 42.3102 26.9388 42.2762 26.8528C42.1009 26.4052 41.9329 25.9556 41.7534 25.5101C41.6318 25.2213 41.5544 24.912 41.2637 24.6611Z" fill="#222220"/>
<path d="M74.8511 20.9239C74.88 21.1676 74.7099 21.2495 74.5253 21.3171C74.3124 21.3974 74.0786 21.4049 73.8609 21.3385C73.6432 21.2721 73.4539 21.1356 73.323 20.9505C73.0034 20.5019 73.0405 19.7297 73.4045 19.2872C73.6942 18.9349 74.2593 18.7598 74.6264 18.9093C74.7944 18.9779 74.9058 19.0957 74.8326 19.2801C74.7594 19.4644 74.6532 19.3333 74.5604 19.2903C74.251 19.1469 73.9644 19.1664 73.7355 19.4542C73.4901 19.7686 73.4767 20.4005 73.7066 20.7282C73.9128 21.0211 74.1974 21.057 74.5212 20.9802C74.6326 20.9556 74.7192 20.845 74.8511 20.9239Z" fill="#242422"/>
<path d="M62.2532 26.6654C62.1501 27.0546 61.8871 27.0905 61.5984 27.0618C61.2891 27.03 61.1437 26.817 61.1252 26.5384C61.1025 26.2035 61.1417 25.8645 61.1179 25.5296C61.1025 25.3248 61.2943 25.038 60.9241 24.9254C60.8488 24.9029 60.8818 24.7779 60.9468 24.7205C61.1252 24.5669 61.2334 24.3109 61.4933 24.2812C61.6191 24.2668 61.5706 24.4256 61.5768 24.5116C61.5984 24.7912 61.815 24.6499 61.948 24.6775C62.0511 24.699 62.1954 24.654 62.1954 24.824C62.1954 24.9541 62.081 24.9756 61.984 24.9561C61.5211 24.8639 61.5428 25.1609 61.5489 25.4682C61.5489 25.673 61.5397 25.885 61.5428 26.094C61.55 26.6982 61.6221 26.7586 62.2532 26.6654Z" fill="#262624"/>
<path d="M48.6498 20.9283C48.5663 21.3165 48.3085 21.3677 48.0147 21.338C47.6837 21.3073 47.5311 21.0891 47.5187 20.786C47.5032 20.4193 47.529 20.0496 47.5187 19.6819C47.5187 19.514 47.6301 19.2989 47.3372 19.2149C47.2166 19.1801 47.2795 19.048 47.3537 18.9824C47.5301 18.8268 47.6528 18.6055 47.9446 18.5093C47.9549 18.793 47.9868 19.0685 48.3787 18.9722C48.4622 18.9517 48.5849 18.9486 48.5849 19.0941C48.586 19.1191 48.5808 19.144 48.5698 19.1666C48.5589 19.1892 48.5424 19.2087 48.522 19.2234C48.5016 19.2382 48.4778 19.2476 48.4528 19.2509C48.4277 19.2543 48.4023 19.2514 48.3787 19.2426C47.9332 19.1555 47.9229 19.432 47.9332 19.7434C47.9404 19.9677 47.9188 20.192 47.926 20.4163C47.9497 20.9755 48.0528 21.0543 48.6498 20.9283Z" fill="#272725"/>
<path d="M45.8294 20.9283C45.7469 21.3165 45.4881 21.3667 45.1942 21.338C44.8632 21.3073 44.7117 21.0881 44.6993 20.786C44.6838 20.4183 44.7106 20.0496 44.6993 19.6809C44.6993 19.5139 44.8127 19.2978 44.5178 19.2139C44.3951 19.179 44.4601 19.049 44.5343 18.9834C44.7106 18.8277 44.8333 18.6065 45.1241 18.5103C45.1334 18.795 45.1674 19.0695 45.5592 18.9732C45.6427 18.9527 45.7654 18.9496 45.7654 19.094C45.7661 19.1189 45.7607 19.1436 45.7495 19.1659C45.7384 19.1882 45.722 19.2074 45.7016 19.222C45.6813 19.2365 45.6577 19.2459 45.6329 19.2493C45.608 19.2527 45.5828 19.25 45.5592 19.2415C45.1148 19.1565 45.1004 19.4289 45.1117 19.7434C45.12 19.9676 45.0993 20.1919 45.1066 20.4162C45.1282 20.9754 45.2334 21.0553 45.8294 20.9283Z" fill="#242422"/>
<path d="M36.0938 17.7716C36.2845 17.7399 36.4113 17.7225 36.5361 17.6969C36.7897 17.6447 36.865 17.7225 36.8578 17.9949C36.8351 18.8911 36.8578 19.7893 36.8413 20.6854C36.8413 20.9251 36.8702 21.1166 37.1795 21.2323C36.8717 21.3601 36.5303 21.3846 36.2072 21.3019C36.5691 20.7806 36.5175 18.1352 36.0938 17.7716Z" fill="#21211F"/>
<path d="M44.9902 24.6774C45.346 24.7184 45.6037 24.446 45.8151 24.7921C45.8728 24.8884 45.946 24.7921 46.012 24.7532C46.118 24.6832 46.2346 24.6306 46.3574 24.5975C46.3924 24.5857 46.4298 24.5827 46.4662 24.5888C46.5027 24.5948 46.537 24.6098 46.5662 24.6324C46.5953 24.6549 46.6184 24.6844 46.6332 24.718C46.6481 24.7516 46.6543 24.7883 46.6513 24.8249C46.6585 25.0113 46.5905 25.0707 46.3873 25.0297C45.9698 24.9519 45.7914 25.1455 45.8213 25.5654C45.8434 25.8527 45.8434 26.1414 45.8213 26.4287C45.7996 26.6848 45.8615 26.8609 46.2028 26.9111C45.8326 27.1323 45.513 27.076 45.1717 27.0258C45.5161 26.4646 45.4604 25.082 44.9902 24.6774Z" fill="#292927"/>
<path d="M86.3469 20.9311C86.2613 21.3275 85.9983 21.3653 85.7096 21.3408C85.5861 21.3397 85.4678 21.2907 85.3801 21.2042C85.2925 21.1177 85.2424 21.0006 85.2405 20.8778C85.2198 20.5614 85.2559 20.2388 85.224 19.9233C85.1982 19.6785 85.4364 19.3447 85.0085 19.2064C84.9394 19.1828 84.9806 19.0579 85.0446 19.0016C85.2219 18.8459 85.3539 18.6339 85.6323 18.5161C85.6323 18.8449 85.7354 19.0722 86.1169 18.9821C86.1808 18.9667 86.2922 18.9626 86.2994 19.0774C86.304 19.1015 86.3025 19.1263 86.2949 19.1497C86.2874 19.173 86.2742 19.1941 86.2563 19.2111C86.2385 19.2281 86.2167 19.2404 86.1929 19.2469C86.1691 19.2534 86.1441 19.2539 86.12 19.2484C85.5405 19.1327 85.654 19.5403 85.6457 19.8557C85.6457 20.0472 85.6385 20.2388 85.6457 20.4303C85.654 20.9905 85.7437 21.0601 86.3469 20.9311Z" fill="#252523"/>
<path d="M84.8534 21.2353C84.2605 21.3735 84.2605 21.3735 83.8687 21.2844C84.2193 20.7498 84.1698 18.1464 83.8027 17.8238C84.4492 17.5565 84.4967 17.5862 84.4956 18.2386C84.4956 19.0579 84.5028 19.8772 84.4905 20.6894C84.4874 20.927 84.507 21.1257 84.8534 21.2353Z" fill="#222220"/>
<path d="M26.5441 18.5101C26.4616 18.9198 26.6472 19.0273 26.9936 18.9751C27.0607 18.9649 27.1679 18.9556 27.1751 19.0714C27.1803 19.0956 27.1793 19.1207 27.1721 19.1443C27.1649 19.168 27.1518 19.1895 27.134 19.2068C27.1162 19.224 27.0942 19.2366 27.0702 19.2432C27.0463 19.2497 27.021 19.2502 26.9967 19.2445C26.4173 19.1277 26.5286 19.5343 26.5214 19.8508C26.5214 20.0423 26.5132 20.2338 26.5214 20.4253C26.5328 20.9937 26.6245 21.0644 27.1741 20.9436C27.0978 21.2692 26.9916 21.3645 26.6864 21.3532C26.4039 21.342 26.1853 21.2334 26.1275 20.9272C26.0502 20.5175 26.1337 20.0986 26.1152 19.6849C26.1079 19.52 26.2348 19.2977 25.9285 19.227C25.7986 19.1963 25.8636 19.0755 25.9285 18.9987C26.077 18.8153 26.2286 18.633 26.3791 18.4497L26.5441 18.5101Z" fill="#232321"/>
<path d="M70.5684 17.7869C71.2902 17.62 71.2902 17.62 71.2902 18.2529C71.2902 19.0525 71.2902 19.852 71.2902 20.6515C71.2902 20.883 71.2087 21.1513 71.6944 21.2035C71.251 21.3582 70.9571 21.4022 70.6519 21.2875C71.0107 20.7744 70.9684 18.1597 70.5684 17.7869Z" fill="#21211F"/>
<path d="M30.4669 26.6851C30.3349 27.0722 30.0699 27.0947 29.7884 27.0558C29.6653 27.0439 29.5515 26.9857 29.4703 26.8932C29.389 26.8006 29.3464 26.6808 29.3512 26.5581C29.3347 26.1433 29.3512 25.7264 29.3512 25.3106C29.3512 25.1703 29.3924 25.0485 29.1862 24.9296C28.9522 24.7955 29.2337 24.6224 29.3399 24.5661C29.4708 24.4974 29.7131 23.7949 29.8276 24.5947C29.8513 24.7658 30.0781 24.6582 30.2101 24.6808C30.305 24.6982 30.4163 24.6808 30.4163 24.819C30.4163 24.9573 30.307 24.9747 30.2101 24.9563C29.7791 24.8754 29.7306 25.1191 29.7533 25.4509C29.7678 25.6558 29.7482 25.8668 29.7533 26.0747C29.7574 26.684 29.8214 26.7434 30.4669 26.6851Z" fill="#232321"/>
<path d="M39.5603 18.1178C39.1344 18.5817 39.1479 20.883 39.5603 21.2548C39.2374 21.3673 38.8875 21.3784 38.5581 21.2865C39.0221 20.8062 38.8365 20.2317 38.8158 19.7073C38.7952 19.1829 39.0901 18.6032 38.5312 18.1465C38.8619 18.0256 39.2233 18.0156 39.5603 18.1178Z" fill="#20201E"/>
<path d="M29.525 32.0588C29.5167 32.1914 29.4713 32.319 29.3941 32.4276C29.3169 32.5361 29.2109 32.6211 29.0879 32.6733C28.9607 32.744 28.8192 32.7855 28.6737 32.7945C28.5282 32.8036 28.3826 32.78 28.2475 32.7255C28.2205 32.7156 28.1959 32.7003 28.1751 32.6806C28.1542 32.661 28.1376 32.6372 28.1264 32.611C28.1151 32.5847 28.1093 32.5564 28.1094 32.5279C28.1095 32.4993 28.1154 32.4711 28.1269 32.4449C28.2011 32.282 28.3063 32.4049 28.4053 32.4367C28.6435 32.5145 28.8981 32.5667 29.0569 32.3148C29.2291 32.0424 29.0023 31.8744 28.8342 31.7054C28.7662 31.6368 28.6919 31.5743 28.6197 31.5108C28.3331 31.2589 28.2197 30.967 28.4403 30.6208C28.629 30.3259 29.1714 30.1927 29.4869 30.3463C29.6209 30.4109 29.6931 30.5071 29.6498 30.6536C29.5745 30.883 29.457 30.7038 29.359 30.67C29.1435 30.5973 28.9023 30.4908 28.7404 30.7263C28.5672 30.9854 28.8156 31.136 28.9703 31.2804C29.4333 31.7146 29.5188 31.8242 29.525 32.0588Z" fill="#252523"/>
<path d="M58.1456 29.2412C58.9592 29.0364 58.9705 29.0507 58.8808 29.6827C58.7839 30.3473 58.6746 31.0141 58.5952 31.6777C58.5509 32.0301 58.4436 32.3947 58.7457 32.7132C58.1508 32.8432 58.0745 32.7849 58.1446 32.2318C58.2484 31.3899 58.3618 30.5494 58.4849 29.7103C58.5148 29.5034 58.523 29.3303 58.1456 29.2412Z" fill="#252523"/>
<path d="M47.053 32.6997C46.4715 32.8452 46.3869 32.7929 46.4488 32.2706C46.5457 31.4441 46.6756 30.6207 46.789 29.7962C46.8189 29.5791 46.9313 29.3251 46.4725 29.2678C46.7695 29.1295 47.0045 29.0383 47.1839 29.1705C47.3634 29.3026 47.2149 29.532 47.1932 29.7112C47.1015 30.4425 46.987 31.1706 46.8839 31.8988C46.8365 32.1825 46.788 32.4672 47.053 32.6997Z" fill="#242422"/>
<path d="M30.7598 23.4915C31.3784 23.3246 31.3784 23.3246 31.3784 23.9268V24.8178C31.529 24.7584 31.6434 24.7031 31.7641 24.6683C32.4126 24.485 32.8127 24.7707 32.8323 25.4374C32.8415 25.7734 32.8323 26.1093 32.8323 26.4463C32.8323 26.6449 32.7756 26.8682 33.1653 26.9133C33.0294 26.9921 32.8789 27.0427 32.7228 27.0623C32.5667 27.0818 32.4082 27.0698 32.2569 27.0269C32.5157 26.5149 32.4301 25.9792 32.3837 25.4641C32.3425 24.9971 32.1012 24.9069 31.4723 25.0421C31.0072 24.9295 31.1526 24.5444 31.1505 24.2607C31.1536 23.9207 31.1124 23.64 30.7598 23.4915Z" fill="#232321"/>
<path d="M52.7743 20.9312C52.7196 21.3184 52.465 21.3542 52.1938 21.3409C51.8989 21.3286 51.6968 21.1668 51.6782 20.8677C51.6566 20.4847 51.6782 20.0986 51.6679 19.7155C51.6607 19.5363 51.7989 19.2967 51.471 19.2106C51.3493 19.1789 51.4297 19.0437 51.5009 18.9812C51.6772 18.8266 51.8009 18.6074 52.0865 18.5081C52.0608 18.8747 52.2092 19.0488 52.5763 18.9741C52.6526 18.9577 52.7434 18.9741 52.7382 19.0929C52.739 19.1178 52.7336 19.1426 52.7226 19.165C52.7115 19.1875 52.6951 19.2069 52.6748 19.2216C52.6545 19.2364 52.6309 19.246 52.606 19.2496C52.5811 19.2532 52.5557 19.2507 52.532 19.2424C52.0587 19.1574 52.0515 19.4472 52.0711 19.7801C52.0845 20.0033 52.0639 20.2287 52.0711 20.4529C52.0927 20.9732 52.2103 21.0541 52.7743 20.9312Z" fill="#232321"/>
<path d="M60.1758 18.9881C60.4542 18.9984 60.714 18.6655 60.9306 19.0906C60.9924 19.2083 61.0821 19.0568 61.144 19.0117C61.205 18.9585 61.2773 18.9199 61.3555 18.8986C61.4338 18.8773 61.5159 18.8739 61.5956 18.8888C61.7554 18.9246 61.7864 19.0445 61.7637 19.1858C61.741 19.3271 61.674 19.3466 61.5265 19.3148C61.0893 19.2196 60.8903 19.4101 60.9202 19.8566C60.9357 20.1295 60.9357 20.4031 60.9202 20.676C60.9079 20.93 60.9202 21.1532 61.2646 21.228C60.9254 21.356 60.615 21.4052 60.283 21.2925C60.6439 20.7927 60.5944 19.3835 60.1758 18.9881Z" fill="#232322"/>
<path d="M49.4506 30.8083C49.2233 31.3006 49.1126 31.838 49.1268 32.3794C49.1268 32.5361 49.1753 32.7583 48.8825 32.745C48.5535 32.7296 48.7061 32.5084 48.7216 32.3619C48.8158 31.4894 48.9151 30.6171 49.0196 29.7452C49.0454 29.5281 49.0866 29.3171 48.6309 29.2659C48.9907 29.1409 49.2238 29.0355 49.4011 29.1737C49.5785 29.312 49.4269 29.5312 49.4145 29.7145C49.4001 29.9193 49.3619 30.1241 49.3331 30.329C49.2702 30.5154 49.2609 30.6864 49.4506 30.8083Z" fill="#252523"/>
<path d="M30.7579 23.4917C31.226 23.4251 31.2982 23.675 31.291 24.0724C31.291 24.397 31.1342 24.7719 31.4714 25.0423C31.3343 25.6895 31.2652 26.3327 31.5549 27.0046C31.3487 27.1254 31.0497 27.0732 30.6826 27.0332C30.9404 26.7946 30.9703 26.5293 30.9631 26.2405C30.9486 25.6342 30.9631 25.0259 30.9631 24.4185C30.9631 24.1 31.0538 23.7457 30.6641 23.5572C30.6641 23.5572 30.6641 23.5244 30.6754 23.5214C30.7022 23.5097 30.7298 23.4998 30.7579 23.4917Z" fill="#222220"/>
<path d="M50.1118 24.8323C50.8944 24.3684 51.4574 24.6613 51.4698 25.539C51.4698 25.8606 51.4698 26.1811 51.4698 26.5017C51.4698 26.683 51.4523 26.8683 51.7049 26.8909C51.6317 27.0537 51.5121 27.0588 51.3956 27.0629C51.1306 27.0701 50.8233 27.1981 50.9965 26.6655C51.1182 26.2897 51.0316 25.839 51.0037 25.4243C50.9769 25.0248 50.6748 24.9562 50.3397 24.9613C50.2191 25.0033 50.1026 25.03 50.1118 24.8323Z" fill="#272725"/>
<path d="M82.1848 29.9214C81.9517 30.5041 82.3972 30.2952 82.6261 30.372C82.5859 30.4396 82.5591 30.4929 82.523 30.54C82.4003 30.7151 82.0631 30.5 82.0177 30.8011C81.9466 31.2723 81.795 31.7403 81.8888 32.2237C81.9425 32.5064 82.2219 32.4613 82.459 32.5176C82.292 32.7962 82.0621 32.8167 81.8198 32.7604C81.5568 32.6989 81.4857 32.4859 81.4702 32.2483C81.4455 31.8458 81.5476 31.4556 81.5898 31.0592C81.6063 30.9056 81.8187 30.7049 81.4867 30.5973C81.3671 30.5584 81.4867 30.4365 81.5465 30.3761C81.72 30.1765 81.9388 30.0206 82.1848 29.9214Z" fill="#252523"/>
<path d="M30.6681 29.8423C30.4619 30.4568 30.8743 30.3083 31.0703 30.3667C31.0816 30.4906 31.0125 30.5305 30.9486 30.5817C30.8125 30.6913 30.5269 30.5152 30.4959 30.8245C30.4475 31.312 30.233 31.7913 30.4021 32.289C30.4774 32.5092 30.7114 32.4816 30.9352 32.4887C30.7795 32.8134 30.5413 32.8083 30.3031 32.7612C30.0649 32.7141 29.9763 32.5102 29.9525 32.2952C29.9113 31.908 30.0247 31.5332 30.0557 31.1512C30.0711 30.9648 30.3093 30.7415 29.9525 30.5848C29.8546 30.5418 30.001 30.3902 30.0794 30.3195C30.2237 30.1915 30.3763 30.0789 30.6681 29.8423Z" fill="#252523"/>
<path d="M76.5246 30.7612C76.9884 30.5647 77.0801 30.6158 77.11 31.1113C77.1347 31.5463 77.0986 31.9742 76.8008 32.3294C76.6575 32.5003 76.4556 32.6027 76.2443 32.5218C76.0134 32.4328 76.1474 32.2147 76.1752 32.0643C76.2484 31.6548 76.3576 31.2607 76.4525 30.8605L76.5246 30.7612Z" fill="#F9F9F9"/>
<path d="M52.8299 24.8303C52.8732 24.9265 52.9629 24.9439 53.0537 24.9583C52.8176 25.0412 52.6949 25.1754 52.7206 25.454C52.7407 25.7899 52.7428 26.1266 52.7268 26.4628C52.7268 26.6676 52.7021 26.8725 53.0898 26.9165C52.7774 27.0754 52.4174 27.1158 52.0772 27.0302C52.4268 26.4607 52.3721 25.0843 51.9648 24.7493C52.2896 24.6244 52.5732 24.5353 52.8299 24.8303Z" fill="#2B2B29"/>
<path d="M48.159 29.915C47.9714 30.4497 48.3188 30.3606 48.6312 30.3247C48.5942 30.4017 48.5529 30.4765 48.5075 30.549C48.3807 30.7149 48.0435 30.506 48.0033 30.8143C47.9425 31.2874 47.7827 31.7575 47.8909 32.2409C47.9507 32.5011 48.1899 32.4939 48.4384 32.4796C48.3106 32.8083 48.0724 32.8063 47.8363 32.7684C47.6002 32.7305 47.494 32.543 47.4744 32.3188C47.4352 31.8661 47.5342 31.4267 47.6002 30.9873C47.6187 30.8593 47.7734 30.6873 47.4888 30.6104C47.3465 30.5715 47.4744 30.4537 47.528 30.3943C47.702 30.1922 47.917 30.0289 48.159 29.915Z" fill="#252523"/>
<path d="M50.1124 24.8323C50.1357 24.8729 50.1697 24.9064 50.2108 24.9291C50.2519 24.9518 50.2984 24.963 50.3454 24.9613C50.1165 25.0443 49.9804 25.1662 50.0093 25.4499C50.034 25.7836 50.034 26.1188 50.0093 26.4525C49.999 26.6717 50.0309 26.8489 50.3186 26.9257C49.9907 27.1438 49.6886 27.0517 49.3081 27.0619C49.6876 26.6809 49.602 26.261 49.5721 25.8718C49.5432 25.498 49.8206 25.0269 49.1875 24.7709C49.5742 24.6357 49.8587 24.5179 50.1124 24.8323Z" fill="#2B2B29"/>
<path d="M47.1463 21.2273C46.7441 21.3697 46.4626 21.3902 46.1151 21.2939C46.475 20.9518 46.3781 20.5319 46.3523 20.1427C46.3265 19.7536 46.5884 19.2917 46.043 19.0561C46.1636 18.9342 46.2977 18.9322 46.4214 18.9066C46.6874 18.8513 46.84 18.8871 46.8153 19.2312C46.7802 19.7249 46.8153 20.2236 46.7998 20.7183C46.7895 20.9457 46.8308 21.1188 47.1463 21.2273Z" fill="#2D2D2C"/>
<path d="M59.0488 24.8434C59.1864 24.7187 59.3598 24.6399 59.5447 24.618C59.7296 24.5962 59.9167 24.6324 60.0799 24.7215C60.414 24.8936 60.4202 25.2336 60.416 25.5634C60.4119 25.8931 60.4315 26.2035 60.4088 26.522C60.3944 26.7319 60.4892 26.8425 60.6748 26.9316C60.4171 27.1365 60.1459 27.0627 59.8314 27.0433C60.0912 26.5967 59.9974 26.1348 59.9943 25.6852C59.9943 25.1189 59.851 24.9949 59.2788 24.9612C59.1623 25.0001 59.0478 25.0339 59.0488 24.8434Z" fill="#222220"/>
<path d="M23.6172 24.8466C23.7567 24.722 23.9313 24.6429 24.1175 24.6198C24.3037 24.5967 24.4925 24.6308 24.6586 24.7175C24.9978 24.8865 25.0009 25.2296 24.9968 25.5594C24.9968 25.8666 24.9968 26.1688 24.9968 26.4729C24.9968 26.6727 24.972 26.8754 25.3195 26.8939C24.9153 27.0905 24.9153 27.0905 24.439 27.024C24.6916 26.5272 24.5802 25.9998 24.5668 25.4877C24.5555 25.0535 24.2441 24.9377 23.8564 24.9633C23.7409 24.993 23.6182 25.0412 23.6172 24.8466Z" fill="#222220"/>
<path d="M59.0504 24.8434C59.075 24.8817 59.1095 24.9128 59.1503 24.9335C59.1911 24.9542 59.2367 24.9638 59.2824 24.9612C59.0504 25.0503 58.9277 25.1865 58.9555 25.464C58.9803 25.7831 58.9803 26.1036 58.9555 26.4226C58.9431 26.652 58.9638 26.8466 59.2865 26.9409C58.9163 27.1098 58.6256 27.0832 58.3121 27.0341C58.6936 26.4728 58.6348 25.0882 58.209 24.7655C58.5235 24.6314 58.8029 24.5054 59.0504 24.8434Z" fill="#232321"/>
<path d="M25.8531 30.6443C26.0418 30.3688 26.2995 30.2008 26.6254 30.3371C26.9512 30.4733 26.8553 30.7908 26.8316 31.054C26.7996 31.3704 26.7481 31.6849 26.7109 32.0013C26.6831 32.2461 26.5851 32.5083 26.9419 32.6701C26.3006 32.8545 26.2026 32.7787 26.2738 32.2502C26.3284 31.8559 26.3892 31.4616 26.4315 31.0663C26.4707 30.6976 26.3284 30.5429 25.9593 30.7303C25.8665 30.7682 25.8335 30.7365 25.8531 30.6443Z" fill="#252523"/>
<path d="M72.9534 21.2354C72.5347 21.3593 72.2532 21.4033 71.9151 21.2794C72.3069 20.9568 72.1708 20.5318 72.1563 20.1467C72.1419 19.7616 72.3749 19.3028 71.8594 19.0529C71.9625 18.9248 72.0996 18.932 72.2203 18.9074C72.4832 18.8532 72.6399 18.8767 72.609 19.23C72.5677 19.7063 72.609 20.1897 72.5925 20.67C72.5873 20.9005 72.5966 21.1073 72.9534 21.2354Z" fill="#2C2C2A"/>
<path d="M23.6158 24.8466C23.6419 24.8846 23.6775 24.9153 23.719 24.9358C23.7605 24.9562 23.8067 24.9657 23.853 24.9633C23.6199 25.0545 23.5065 25.1989 23.5323 25.4754C23.5531 25.8113 23.5548 26.1481 23.5375 26.4842C23.5323 26.689 23.5292 26.8867 23.8942 26.8887C23.5272 27.1386 23.225 27.069 22.9188 27.0485C23.2529 26.4115 23.2055 25.1139 22.8105 24.7278C23.1168 24.6591 23.3962 24.4994 23.6158 24.8466Z" fill="#232321"/>
<path d="M50.5298 32.6887C49.9266 32.8587 49.8441 32.7962 49.9111 32.2555C49.9482 31.939 49.9874 31.6225 50.0348 31.3081C50.0926 30.9189 50.1297 30.5523 49.4316 30.665C49.7245 30.3577 49.9565 30.2061 50.2565 30.3393C50.5236 30.457 50.5091 30.7203 50.4761 30.964C50.4318 31.2948 50.373 31.6246 50.3308 31.9564C50.2978 32.2186 50.2338 32.4941 50.5298 32.6887Z" fill="#252523"/>
<path d="M69.4473 30.54C69.6308 30.3301 69.8597 30.2153 70.1278 30.3352C70.4258 30.4693 70.366 30.753 70.334 31.005C70.2969 31.3368 70.2443 31.6676 70.2082 31.9994C70.1814 32.2463 70.0855 32.5115 70.4402 32.6744C69.7906 32.8628 69.6989 32.785 69.7783 32.2135C69.8339 31.8195 69.8841 31.4249 69.9288 31.0296C69.9515 30.8247 69.9113 30.6414 69.6421 30.6332C69.5339 30.6906 69.4493 30.7049 69.4473 30.54Z" fill="#242422"/>
<path d="M27.4707 19.0068C27.5738 18.9761 27.6594 18.9443 27.7512 18.9208C28.0512 18.845 28.2327 18.8737 28.1987 19.2711C28.1595 19.7309 28.1987 20.1928 28.1863 20.6598C28.1801 20.9005 28.1863 21.1227 28.508 21.2374C28.1461 21.3583 27.8522 21.4054 27.547 21.2866C27.9079 20.7889 27.8646 19.4011 27.4707 19.0068Z" fill="#242422"/>
<path d="M43.7871 24.7606C44.5254 24.5097 44.5357 24.5168 44.5326 25.1846C44.5326 25.6004 44.5419 26.0152 44.5326 26.431C44.5254 26.6522 44.5388 26.8458 44.8347 26.9205C44.512 27.1459 44.216 27.0496 43.8995 27.0588C44.2449 26.4074 44.1892 25.0719 43.7871 24.7606Z" fill="#252523"/>
<path d="M24.6469 32.7133C24.0468 32.8218 23.9736 32.7655 24.0355 32.2841C24.0912 31.8547 24.1544 31.4273 24.2252 31.0019C24.2644 30.7633 24.3489 30.5185 23.8633 30.4232C24.2118 30.3065 24.4438 30.1959 24.6242 30.3331C24.8047 30.4703 24.65 30.6895 24.6242 30.8718C24.5747 31.2682 24.5211 31.6645 24.4634 32.0609C24.4345 32.2882 24.4448 32.5064 24.6469 32.7133Z" fill="#252523"/>
<path d="M80.709 30.8328C80.3894 31.2691 80.378 31.7822 80.3285 32.2902C80.3131 32.4592 80.4512 32.7787 80.0873 32.7336C79.7511 32.6927 79.9377 32.4069 79.9481 32.2431C79.9749 31.7986 80.0357 31.3541 80.1058 30.9117C80.1429 30.6782 80.1058 30.5092 79.8223 30.4446C80.2811 30.2132 80.2811 30.2132 80.6162 30.7283C80.6987 30.715 80.7492 30.7355 80.709 30.8328Z" fill="#242422"/>
<path d="M27.2129 30.4263C27.3634 30.2953 27.5129 30.3055 27.6521 30.2871C27.8893 30.2543 27.9614 30.3485 27.9181 30.5892C27.8387 30.9989 27.7758 31.4085 27.7305 31.8182C27.6965 32.1254 27.5913 32.4501 27.8965 32.7164C27.2923 32.8342 27.2366 32.7942 27.2954 32.2627C27.3407 31.853 27.4109 31.4433 27.4758 31.0337C27.516 30.7776 27.5676 30.5247 27.2129 30.4263Z" fill="#232321"/>
<path d="M32.056 30.9044C31.8127 31.3868 31.7653 31.906 31.7611 32.4345C31.7611 32.5963 31.7684 32.7602 31.5178 32.7418C31.2281 32.7264 31.3435 32.5369 31.3569 32.3987C31.4023 31.9224 31.4415 31.4452 31.5147 30.9741C31.5539 30.7211 31.5673 30.5101 31.1445 30.3821C31.5157 30.3288 31.7477 30.1179 31.954 30.422C31.9263 30.4776 31.9162 30.5403 31.925 30.6017C31.9338 30.6631 31.9612 30.7205 32.0034 30.7662C32.0437 30.8061 32.0921 30.8389 32.056 30.9044Z" fill="#252523"/>
<path d="M63.2329 30.8245C62.8916 31.2905 62.8772 31.8353 62.8473 32.3771C62.8391 32.5359 62.9092 32.7622 62.6122 32.7438C62.2895 32.7243 62.4421 32.4877 62.4534 32.3484C62.4864 31.904 62.5473 31.4605 62.5999 31.017C62.6298 30.7702 62.7473 30.4957 62.3184 30.3923C62.5988 30.4107 62.9185 29.9765 63.0278 30.5275C62.9649 30.6524 63.0443 30.7057 63.1422 30.7507C63.1783 30.7672 63.2095 30.7926 63.2329 30.8245Z" fill="#292927"/>
<path d="M25.8537 30.6443L25.9568 30.7324C25.5588 31.182 25.5052 31.7299 25.4804 32.2953C25.4732 32.4622 25.6093 32.7817 25.2402 32.7346C24.902 32.6926 25.0876 32.411 25.0989 32.2461C25.1268 31.818 25.1876 31.3909 25.2546 30.9669C25.2917 30.7303 25.2783 30.5368 25.0195 30.3934C25.2371 30.4825 25.6526 29.909 25.6382 30.6249C25.597 30.7406 25.6135 30.7979 25.7496 30.7273L25.8537 30.6443Z" fill="#252523"/>
<path d="M69.2944 30.93C69.0449 31.3397 69.0181 31.8047 68.9851 32.2707C68.9727 32.4366 69.1284 32.7592 68.7654 32.7336C68.3674 32.7059 68.5984 32.3915 68.6077 32.2215C68.6314 31.7914 68.6943 31.3622 68.7613 30.9352C68.7974 30.7078 68.7613 30.5357 68.4922 30.4569C69.0407 30.208 69.1315 30.2367 69.1428 30.63C69.1273 30.7252 69.0727 30.8348 69.2181 30.8799C69.2337 30.8822 69.2487 30.8879 69.2618 30.8966C69.275 30.9052 69.2861 30.9167 69.2944 30.93Z" fill="#252523"/>
<path d="M50.6758 33.4489C50.851 33.0486 51.1622 32.7927 50.9097 32.4079C50.8469 32.3127 51.0447 32.2031 51.1694 32.2031C51.3961 32.2031 51.4786 32.371 51.4497 32.5593C51.3838 32.9504 51.1849 33.2534 50.6758 33.4489Z" fill="#353533"/>
<path d="M28.0075 18.4188C27.9705 18.4231 27.933 18.4196 27.8975 18.4086C27.8619 18.3976 27.8291 18.3793 27.8011 18.3549C27.7731 18.3305 27.7506 18.3005 27.735 18.2669C27.7195 18.2333 27.7112 18.1968 27.7107 18.1598C27.7042 18.12 27.7064 18.0793 27.7172 18.0405C27.7279 18.0016 27.7471 17.9655 27.7732 17.9347C27.7993 17.9039 27.8319 17.879 27.8686 17.8619C27.9053 17.8447 27.9453 17.8357 27.9859 17.8353C28.0221 17.8307 28.0589 17.8339 28.0937 17.8448C28.1285 17.8558 28.1605 17.8741 28.1875 17.8985C28.2145 17.923 28.2358 17.953 28.2499 17.9864C28.264 18.0199 28.2706 18.056 28.2693 18.0922C28.2755 18.131 28.2736 18.1707 28.2635 18.2087C28.2535 18.2466 28.2356 18.2821 28.2109 18.3129C28.1863 18.3436 28.1555 18.3689 28.1205 18.3871C28.0854 18.4054 28.047 18.4161 28.0075 18.4188Z" fill="#3B3B39"/>
<path d="M44.61 23.8528C44.6121 23.8893 44.6068 23.9258 44.5943 23.9602C44.5818 23.9945 44.5625 24.026 44.5375 24.0528C44.5125 24.0795 44.4823 24.101 44.4487 24.1159C44.4151 24.1308 44.3788 24.1388 44.3421 24.1394C44.1452 24.1456 44.0515 24.0125 44.0659 23.8242C44.0657 23.7875 44.0732 23.7512 44.0882 23.7177C44.1031 23.6842 44.125 23.6542 44.1525 23.6297C44.18 23.6052 44.2124 23.5868 44.2475 23.5757C44.2827 23.5646 44.3198 23.561 44.3565 23.5652C44.5317 23.5703 44.6111 23.6819 44.61 23.8528Z" fill="#323230"/>
<path d="M46.5883 18.4144C46.5522 18.4163 46.5161 18.4105 46.4825 18.3973C46.4489 18.3841 46.4185 18.3638 46.3935 18.3378C46.3686 18.3119 46.3496 18.2808 46.3378 18.2469C46.3261 18.2129 46.3219 18.1768 46.3255 18.1411C46.3255 17.9538 46.4285 17.834 46.6192 17.834C46.6561 17.8336 46.6925 17.8414 46.726 17.8568C46.7594 17.8721 46.789 17.8947 46.8126 17.9228C46.8362 17.9509 46.8532 17.9839 46.8623 18.0194C46.8715 18.0548 46.8726 18.0919 46.8655 18.1278C46.8675 18.165 46.8618 18.2022 46.8487 18.2371C46.8356 18.272 46.8154 18.3039 46.7895 18.3308C46.7635 18.3576 46.7322 18.3789 46.6976 18.3933C46.663 18.4077 46.6258 18.4149 46.5883 18.4144Z" fill="#2E2E2C"/>
<path d="M72.6652 18.1012C72.659 18.2813 72.5806 18.4083 72.3828 18.4083C72.2065 18.4083 72.1272 18.2895 72.1282 18.1268C72.1247 18.0908 72.1286 18.0545 72.1398 18.0201C72.151 17.9858 72.1692 17.954 72.1933 17.927C72.2173 17.8999 72.2468 17.878 72.2797 17.8627C72.3127 17.8474 72.3485 17.8391 72.3848 17.8381C72.5559 17.8279 72.6466 17.9312 72.6652 18.1012Z" fill="#292927"/>
<path d="M80.706 30.8324L80.6133 30.7301C80.6253 30.6514 80.6554 30.5766 80.7011 30.5113C80.7468 30.4459 80.807 30.3919 80.8771 30.3534C81.0028 30.2705 81.1625 30.2223 81.2378 30.4107C81.2934 30.552 81.2759 30.6942 81.0708 30.7301C80.9475 30.7577 80.8257 30.7919 80.706 30.8324Z" fill="#383836"/>
<path d="M32.0588 30.9041C32.0453 30.8769 32.0301 30.8506 32.0134 30.8253C31.8784 30.7229 32.0041 30.683 32.0619 30.6267C32.0964 30.5738 32.1339 30.5229 32.1742 30.4742C32.2844 30.3524 32.4071 30.249 32.5864 30.3166C32.6719 30.3483 32.6822 30.4312 32.6822 30.5141C32.6822 30.7526 32.4926 30.7086 32.3473 30.7506C32.2459 30.7915 32.1492 30.8429 32.0588 30.9041Z" fill="#31312F"/>
<path d="M24.6091 29.234C24.6399 29.2306 24.6712 29.2336 24.7008 29.2427C24.7305 29.2517 24.758 29.2668 24.7815 29.2868C24.8051 29.3069 24.8243 29.3315 24.8379 29.3593C24.8515 29.387 24.8592 29.4172 24.8605 29.448C24.8676 29.4868 24.8663 29.5267 24.8568 29.5651C24.8473 29.6034 24.8298 29.6394 24.8054 29.6706C24.781 29.7017 24.7503 29.7275 24.7152 29.7461C24.6801 29.7647 24.6415 29.7758 24.6019 29.7786C24.5708 29.7868 24.5383 29.7876 24.5068 29.781C24.4754 29.7745 24.4459 29.7607 24.4208 29.7408C24.3956 29.7209 24.3755 29.6955 24.3621 29.6665C24.3486 29.6375 24.3421 29.6058 24.3432 29.5739C24.3371 29.5341 24.3393 29.4935 24.3495 29.4545C24.3597 29.4155 24.3778 29.3791 24.4027 29.3473C24.4276 29.3155 24.4587 29.2891 24.4942 29.2696C24.5297 29.2501 24.5688 29.238 24.6091 29.234Z" fill="#3F3F3D"/>
<path d="M63.2324 30.8243L63.0953 30.81C63.0788 30.7809 63.0739 30.7467 63.0818 30.7142C63.0896 30.6817 63.1096 30.6534 63.1376 30.635C63.1479 30.6237 63.1592 30.6124 63.1695 30.6002C63.2932 30.4394 63.4035 30.2511 63.656 30.3135C63.7436 30.334 63.7683 30.4159 63.7704 30.4998C63.7786 30.8315 63.4529 30.6687 63.32 30.7946C63.2929 30.8098 63.2632 30.8199 63.2324 30.8243Z" fill="#2B2B29"/>
<path d="M28.0936 29.5002C28.0952 29.5679 28.0709 29.6336 28.0255 29.6841C27.9802 29.7347 27.9172 29.7663 27.8494 29.7725C27.8184 29.7802 27.7861 29.7808 27.7549 29.774C27.7238 29.7673 27.6946 29.7535 27.6697 29.7336C27.6448 29.7138 27.6249 29.6885 27.6116 29.6597C27.5982 29.6309 27.5918 29.5994 27.5928 29.5677C27.5853 29.5287 27.5864 29.4886 27.5961 29.4501C27.6058 29.4116 27.6239 29.3756 27.649 29.3448C27.6741 29.3139 27.7057 29.2888 27.7415 29.2713C27.7774 29.2537 27.8166 29.2442 27.8566 29.2432C27.9988 29.233 28.0905 29.321 28.0936 29.5002Z" fill="#2D2D2B"/>
<path d="M55.6142 26.8643C55.3845 26.7712 55.472 26.5695 55.4689 26.4119C55.4597 25.985 55.4689 25.5582 55.4689 25.1313C55.6142 25.5162 55.5081 25.9154 55.54 26.3065C55.5545 26.4938 55.4999 26.6893 55.6142 26.8643Z" fill="#272725"/>
<path d="M55.0469 25.249C55.2462 25.7706 55.2484 26.3463 55.0531 26.8694C55.1304 26.3319 55.1283 25.786 55.0469 25.249Z" fill="#272725"/>
<path d="M67.3086 32.5582C67.3442 32.4358 67.4267 32.3321 67.5384 32.2695C67.4828 32.8479 67.4972 32.8581 68.1671 32.7097C67.8301 32.9421 67.5312 32.9615 67.3086 32.5582Z" fill="#F8F8F8"/>
<path d="M55.3575 31.9692C55.3575 32.1504 55.2658 32.1863 55.2071 32.0163C55.1336 31.7807 55.1247 31.5298 55.1814 31.2896C55.3194 31.4953 55.1576 31.7788 55.3575 31.9692Z" fill="#5F5F5E"/>
<path d="M45.453 31.8701C45.4849 32.0104 45.5364 32.1506 45.4468 32.2888L45.2582 32.4464L45.1623 32.3604C45.1314 32.123 45.1819 31.9326 45.453 31.8701Z" fill="#434342"/>
<path d="M69.2958 30.9299H69.1721C69.0763 30.8163 69.1876 30.7835 69.2515 30.7334L69.4473 30.543L69.6462 30.6371L69.2958 30.9299Z" fill="#40403E"/>
<path d="M49.4498 30.8081C49.1962 30.8081 49.1839 30.7548 49.3323 30.3311L49.4498 30.8081Z" fill="#ACACAC"/>
<path d="M55.0592 26.8633C55.2251 27.0516 55.4477 26.9411 55.6446 26.9718C55.4725 27.1397 55.2591 27.0741 55.0664 27.0496C54.9273 27.0281 54.9531 26.9319 55.0592 26.8633Z" fill="#272725"/>
<path d="M63.1387 30.6351C63.1243 30.6934 63.1109 30.7517 63.0965 30.8101C63.0602 30.8304 63.0218 30.8469 62.9821 30.8592C62.8965 30.7374 62.9625 30.632 63.0284 30.5276L63.1387 30.6351Z" fill="#BCBCBC"/>
<path d="M32.0607 30.6269C32.0442 30.6934 32.0288 30.7599 32.0123 30.8254C31.6959 30.7354 31.9278 30.5665 31.9556 30.4272C31.9927 30.4928 31.9587 30.5951 32.0607 30.6269Z" fill="#AAAAA9"/>
<path d="M71.6714 32.4558L71.5683 32.3535C71.5487 32.1969 71.5498 32.0556 71.7744 32.075L71.8548 32.288L71.6714 32.4558Z" fill="#5B5B5A"/>
<path d="M25.7553 30.7303C25.746 30.8327 25.6522 30.9576 25.6141 30.935C25.4924 30.845 25.5636 30.7303 25.6439 30.6279L25.7553 30.7303Z" fill="#8A8A89"/>
<path d="M69.2519 30.7304C69.2261 30.7959 69.1993 30.8614 69.1725 30.9269C68.9076 30.8532 69.0931 30.7324 69.1416 30.626L69.2519 30.7304Z" fill="#7B7B7A"/>
<path d="M53.8968 31.6851C53.9122 31.744 53.9059 31.8065 53.8791 31.8613C53.8523 31.9161 53.8067 31.9596 53.7504 31.9839C53.7278 31.9932 53.6979 31.854 53.7267 31.7792L53.8968 31.6851Z" fill="#ADADAC"/>
<path d="M2.77478 23.2254C2.73714 23.3467 2.70684 23.4702 2.68404 23.5951C2.67475 23.6385 2.67502 23.6834 2.68484 23.7266C2.69466 23.7699 2.7138 23.8106 2.74093 23.8458C2.76807 23.881 2.80257 23.91 2.84205 23.9307C2.88153 23.9514 2.92506 23.9634 2.96966 23.9659C3.17587 23.9935 3.38828 24.0068 3.47283 23.7313C3.54651 23.4882 3.63854 23.251 3.74813 23.0216C3.83062 22.8505 3.94507 22.6826 4.19047 22.743C4.38827 22.8085 4.60179 22.8107 4.80088 22.7492L4.89574 22.6467C5.05645 22.5293 5.23271 22.4346 5.41954 22.3651C5.76083 22.277 6.01242 22.4593 6.25473 22.6488C6.52694 22.8618 6.61355 22.7686 6.60427 22.4644C6.59293 22.1306 6.62077 21.7946 6.58571 21.43C6.39392 21.43 6.25266 21.5376 6.1114 21.6246C5.92581 21.7393 5.81857 21.684 5.74949 21.4976C5.63401 21.3368 5.51749 21.1842 5.84332 21.1238C6.00211 21.0951 6.20008 21.0306 6.24751 20.8852C6.41248 20.3823 6.79605 20.6568 7.07857 20.6496C7.28479 20.6435 7.16931 20.8729 7.19509 20.9968C7.21674 21.0992 7.17859 21.2436 7.35078 21.2344C7.47658 21.2262 7.50029 21.1136 7.47864 21.0163C7.37553 20.5462 7.67352 20.5042 8.02409 20.4673C8.8457 20.3917 9.67414 20.4425 10.4802 20.6179C10.576 20.6363 10.7431 20.8514 10.8349 20.5257C10.8874 20.3413 11.1112 20.5984 11.1442 20.6486C11.3401 20.9794 11.6453 21.1289 12.001 21.2201C11.6814 21.6615 11.2205 21.5878 10.8957 20.9374V23.0636L11.8721 22.4409C12.2371 22.276 12.497 22.5863 12.8125 22.6457C12.9761 22.7126 13.1575 22.7234 13.328 22.6764C13.3959 22.6749 13.4626 22.6935 13.5198 22.7297C13.8683 22.8884 13.9323 23.2305 14.0508 23.5378C14.121 23.7242 14.1106 23.9618 14.4004 23.9771C14.5664 23.9863 14.7365 23.9894 14.8324 23.8368C14.9716 23.6105 14.8551 23.4118 14.7293 23.2223C14.6839 23.1578 14.6406 23.0922 14.5973 23.0267C14.6001 23.002 14.6106 22.9787 14.6275 22.9604C14.6443 22.942 14.6666 22.9293 14.6912 22.9243C14.8065 23.0324 14.9134 23.1492 15.0108 23.2735C15.3428 23.7723 15.15 24.2137 14.5592 24.3335C14.4561 24.355 14.3303 24.3079 14.2344 24.4175C14.3292 24.7995 14.554 24.9614 14.9345 24.8088C14.8819 25.3526 14.6891 25.8851 15.0665 26.3778C14.9376 26.5222 14.6777 26.3686 14.5829 26.5888H14.5386L14.4963 26.5785C14.2901 26.5017 14.0838 26.5601 13.8776 26.5396C13.7797 26.5304 13.6776 26.5263 13.7065 26.3819L13.5549 26.1525C13.7456 26.1299 13.8271 25.878 14.0436 25.9189C14.1581 25.9405 14.287 26.1002 14.3767 25.9343C14.4478 25.8022 14.3653 25.6363 14.2736 25.5308C13.9302 25.1293 13.427 25.0074 12.9672 24.8139C13.4322 24.2915 13.427 23.9075 12.9362 23.4456C12.4454 22.9837 11.7484 22.9601 11.2916 23.3903C11.0493 23.6187 10.8421 23.8163 10.8792 24.2004C10.9143 24.5486 10.673 24.8016 10.3822 24.9716C9.90893 25.2461 9.42225 25.5001 8.94486 25.7694C8.89898 25.7995 8.84519 25.8156 8.79019 25.8156C8.73519 25.8156 8.68141 25.7995 8.63553 25.7694C8.15813 25.5011 7.67042 25.2491 7.19715 24.9726C7.0474 24.893 6.92185 24.7751 6.83354 24.631C6.74523 24.4869 6.6974 24.322 6.695 24.1533C6.66613 23.3677 5.81857 22.8546 5.08134 23.1793C4.65137 23.3678 4.30493 23.6545 4.28018 24.1738C4.26678 24.4554 4.39566 24.6602 4.81841 24.8108C4.26368 24.861 3.97291 25.1426 3.60275 25.2635C3.51148 25.299 3.43048 25.3564 3.36697 25.4305C3.30346 25.5047 3.25942 25.5933 3.23877 25.6885C3.21403 25.7786 3.16144 25.8811 3.23877 25.962C3.3161 26.0429 3.412 25.9835 3.49551 25.9364C3.57903 25.8892 3.68317 25.753 3.77288 25.8954C3.9028 26.1002 4.06055 26.3163 3.93992 26.5847C3.92961 26.6082 3.84299 26.6297 3.83681 26.6174C3.70998 26.4669 3.5615 26.558 3.43056 26.5867C3.12123 26.6523 2.86758 26.4976 2.61908 26.4095C2.79437 25.8903 2.75828 25.37 2.66239 24.8098C2.84077 24.8671 3.03977 24.9183 3.1934 24.7401C3.26764 24.6541 3.35528 24.566 3.33673 24.4462C3.31198 24.2752 3.15835 24.3591 3.06245 24.3438C2.4108 24.2076 2.25614 23.7999 2.6428 23.2172C2.66143 23.201 2.68577 23.1927 2.71049 23.1943C2.73522 23.1958 2.75833 23.207 2.77478 23.2254Z" fill="#FEFEFE"/>
<path d="M5.45504 26.4781C5.74993 26.2794 6.09741 26.2886 6.4284 26.2599C8.14715 26.0973 9.87842 26.1162 11.5932 26.3162C11.8437 26.348 12.2056 26.2876 12.2345 26.732C12.2737 27.3312 12.2809 27.3066 11.6911 27.2349C9.65674 26.9884 7.59911 26.9991 5.56743 27.2667C5.2447 27.0434 5.45813 26.7454 5.45504 26.4781Z" fill="#FDFDFE"/>
<path d="M13.5432 19.8405C13.6686 19.8333 13.7942 19.8333 13.9196 19.8405C14.1598 19.8692 14.1093 19.992 14 20.1242C13.8216 20.3075 14.0856 20.2491 14.1103 20.3218C14.3434 20.5973 13.9557 21.0326 14.3547 21.2661C14.3228 21.2999 14.2939 21.3593 14.2588 21.3624C13.8072 21.4095 13.9495 21.6522 14.1145 21.9298C13.8794 21.9154 13.5402 21.7751 13.7175 22.2155C13.8278 22.4879 13.5597 22.4664 13.4288 22.5494C12.8854 22.8669 12.4761 22.5606 12.0647 22.2616C11.8863 22.237 11.7626 22.194 11.8399 21.9543C11.9481 21.6307 12.1255 21.3921 12.4585 21.2722C12.6204 21.2139 12.8153 21.2272 12.937 21.0736C12.606 20.963 12.6864 20.5185 12.375 20.3915C12.2925 19.946 12.7277 19.9398 12.9359 19.7411C13.1473 19.6889 13.3628 19.6408 13.5432 19.8405Z" fill="#FCFCFD"/>
<path d="M7.40772 18.211C7.43969 17.9847 7.47268 17.7645 7.74386 17.6836C7.97586 17.614 8.10062 17.7707 8.24806 17.8884C8.31096 17.9396 8.40376 17.9837 8.35117 18.0697C8.30683 18.1394 8.21713 18.1342 8.13567 18.0851C8.03256 18.0247 7.92946 17.7717 7.82016 18.0113C7.77577 18.1148 7.7703 18.2307 7.80475 18.3379C7.83919 18.445 7.91127 18.5363 8.00782 18.5951C8.09236 18.6369 8.18121 18.6696 8.27281 18.6924C8.39139 18.7508 8.3553 18.9075 8.45944 18.9894C8.46975 18.8184 8.34086 18.6504 8.48728 18.5009L8.69349 18.4108C8.74093 18.3462 8.78939 18.3503 8.83991 18.4108C9.13377 18.4712 9.16883 18.6238 8.99148 18.845C8.92033 18.9341 8.83785 19.0181 8.94405 19.1307C8.97622 19.1663 9.01842 19.1913 9.06514 19.2026C9.11185 19.214 9.16093 19.211 9.20595 19.1942C9.34824 19.1502 9.34308 19.0498 9.30906 18.93C9.27503 18.8102 9.30184 18.6596 9.44722 18.6228C9.86585 18.5091 9.79883 18.2131 9.73387 17.9171C9.68025 17.8444 9.48434 17.9171 9.53796 17.7348C9.75964 17.574 9.92359 17.7266 10.0947 17.8372C10.3649 18.3042 10.0246 18.6627 9.84007 19.0744C10.0648 19.0611 10.2226 18.8194 10.436 18.9792C10.4443 19.0002 10.4477 19.0227 10.4461 19.0452C10.4445 19.0677 10.4379 19.0896 10.4268 19.1092C10.4494 19.4575 10.0927 19.6746 10.1112 20.031C10.1174 20.1508 9.95143 20.0709 9.86791 20.0566C9.15204 19.9245 8.41758 19.927 7.70261 20.0638C7.4964 20.1047 7.38813 20.0863 7.40978 19.8538C7.43556 19.5711 7.15923 19.4237 7.10664 19.1758C7.0324 19.0785 7.06849 19.0017 7.15304 18.9341C7.36854 18.8317 7.53661 18.9556 7.72014 19.1236C7.6655 18.7539 7.34998 18.549 7.40772 18.211Z" fill="#FBFCFC"/>
<path d="M4.68198 21.1065C5.00987 21.2908 5.42953 21.3205 5.65225 21.68C5.96158 22.0979 5.91724 22.2453 5.42746 22.3713C5.22124 22.4276 5.07071 22.611 4.83974 22.5905C4.67579 22.5905 4.5005 22.6212 4.39327 22.4461C4.08394 22.5331 3.76224 22.6693 3.89628 22.0989C3.98599 21.7179 3.64366 21.9903 3.50859 21.9207C3.59932 21.6687 3.77049 21.3984 3.32505 21.3656C3.30031 21.3656 3.27762 21.3277 3.25391 21.3072C3.6282 21.0327 3.15698 20.4807 3.6117 20.2318C3.72501 20.0952 3.88578 20.0056 4.06229 19.9809C4.07672 19.9553 4.20871 20.0465 4.12209 19.9154C4.06538 19.8304 4.03857 19.7341 4.18911 19.7105C4.33038 19.7187 4.47267 19.687 4.6098 19.7423C4.82633 19.9522 5.34601 19.9215 5.17588 20.4408C5.10255 20.5038 5.0122 20.544 4.91604 20.5565C4.9016 20.5565 4.76447 20.5319 4.86552 20.6179C5.25424 20.9498 4.87892 20.9252 4.69435 20.9948C4.64898 21.0092 4.6428 21.0635 4.68198 21.1065Z" fill="#FCFDFD"/>
<path d="M5.09895 25.5288C5.52995 24.8119 5.47221 24.6337 4.78343 24.3152C4.68032 24.267 4.4741 24.3018 4.54937 24.0478C4.59783 23.8717 4.60815 23.7263 4.81333 23.6515C5.11441 23.5429 5.34641 23.6607 5.57944 23.8174C5.81247 23.9741 5.98157 24.2373 6.3208 24.3295C6.15995 24.4739 6.01147 24.5978 5.9527 24.7914C5.91558 24.9163 5.74648 25.0259 5.94135 25.157C6.06715 25.24 6.18779 25.3106 6.33111 25.1816C6.40122 25.1191 6.60229 25.0536 6.56208 25.1376C6.43113 25.4131 7.05082 25.2215 6.7683 25.5104C6.67653 25.6046 6.81676 25.9692 6.45897 25.7695C6.39401 25.7336 6.27027 25.7828 6.17954 25.8125C5.99188 25.8739 5.87021 25.963 5.79907 25.6353C5.7372 25.3485 5.40312 25.4786 5.09895 25.5288Z" fill="#F9FAFB"/>
<path d="M12.3235 27.6936C12.4359 27.0064 12.7525 26.863 13.8093 26.9593C14.3115 27.0054 14.3744 27.1047 14.3651 27.8759C13.6536 27.6711 12.9659 27.8196 12.2792 27.9937C12.0929 28.0441 11.9018 28.075 11.709 28.0859C11.4265 28.0971 11.3759 27.9077 11.377 27.669C11.377 27.3618 11.5914 27.457 11.7502 27.4642C11.9577 27.4915 12.1549 27.5704 12.3235 27.6936Z" fill="#FBFBFC"/>
<path d="M3.19531 27.8761C3.26955 26.9625 3.30358 26.9257 4.16866 26.9543C4.42621 26.9702 4.68266 27.0002 4.93683 27.0445C5.02859 27.0578 5.17192 27.0742 5.16367 27.1827C5.10799 27.8792 5.51939 27.5125 5.79882 27.4736C5.93183 27.4541 6.11434 27.3712 6.18857 27.5432C6.22299 27.6663 6.21795 27.797 6.17414 27.9171C6.12568 28.0871 5.96792 28.1157 5.81738 28.0891C5.45134 28.0236 5.09046 27.9334 4.72648 27.8618C4.22214 27.7462 3.69738 27.7511 3.19531 27.8761Z" fill="#F6F8F9"/>
<path d="M10.8965 25.6189C10.9573 25.495 10.549 25.5227 10.8026 25.3352C10.9655 25.3352 11.0212 25.1232 11.1934 25.1417C11.3481 25.2984 11.5027 25.2728 11.6595 25.1417C11.8482 24.9911 11.644 24.8979 11.6162 24.7781C11.5749 24.5978 11.4687 24.4708 11.2233 24.3776C11.5945 24.224 11.7904 23.9495 12.0668 23.7713C12.2915 23.6259 12.5174 23.5563 12.7885 23.6597C13.003 23.7396 13.004 23.8983 13.035 24.0694C13.0752 24.3019 12.8721 24.2742 12.7628 24.3264C12.1183 24.6214 12.0544 24.8252 12.4606 25.4971C12.0575 25.3946 11.7389 25.4397 11.6842 25.9006L11.5646 25.8361C11.4347 25.6947 11.2656 25.7941 11.1171 25.7644C11.0253 25.749 10.8758 25.8115 10.8965 25.6189Z" fill="#F9FAFB"/>
<path d="M5.35766 22.3298C5.76474 22.252 5.83585 22.0227 5.65447 21.6798C5.68687 21.6623 5.71334 21.6356 5.73057 21.6032C5.7478 21.5708 5.75503 21.5341 5.75134 21.4976C6.18315 21.6675 6.36968 21.2929 6.69843 21.0615C6.69843 21.6706 6.69843 22.2397 6.69843 22.8078C6.69843 23.1334 6.53354 22.988 6.39853 22.9C6.08421 22.6952 5.82657 22.3533 5.37415 22.4762C5.36319 22.4678 5.35404 22.4573 5.34725 22.4453C5.34046 22.4333 5.33616 22.4201 5.33462 22.4065C5.33308 22.3928 5.33433 22.379 5.33829 22.3658C5.34225 22.3526 5.34884 22.3404 5.35766 22.3298Z" fill="#1D4877"/>
<path d="M14.3066 22.2532C14.3169 21.8437 14.6539 21.8611 14.925 21.8089C15.196 21.7567 15.4701 21.8673 15.7216 21.7147C15.7927 21.6707 15.838 21.6932 15.8535 21.769C15.8824 21.9051 15.8535 22.0761 15.7288 22.0925C15.4897 22.1314 15.2908 22.4968 14.9878 22.1631C14.8518 22.0136 14.6271 22.0812 14.4829 22.2532C14.4737 22.2682 14.4607 22.2806 14.4453 22.2893C14.4299 22.2979 14.4125 22.3024 14.3948 22.3024C14.377 22.3024 14.3596 22.2979 14.3442 22.2893C14.3288 22.2806 14.3158 22.2682 14.3066 22.2532Z" fill="#E3E8EE"/>
<path d="M2.77459 23.2244L2.63237 23.21C2.71156 23.076 2.7997 22.9475 2.89619 22.8252C3.06418 22.6409 3.24865 22.4423 3.03738 22.211C2.82612 21.9796 2.57672 22.1086 2.36855 22.2826C2.26549 22.0349 2.01403 22.1455 1.83987 22.0707C1.74712 22.0114 1.63375 21.9469 1.69147 21.821C1.74918 21.695 1.8749 21.7585 1.97384 21.7954C2.26755 21.8701 2.57466 21.7636 2.86734 21.8578C3.52072 22.2028 3.49083 22.644 2.77459 23.2244Z" fill="#E1E7ED"/>
<path d="M10.4041 18.9499C10.2557 19.0267 10.0589 19.0308 9.97539 19.2058C9.93005 19.301 9.89398 19.3921 9.76928 19.3205C9.72674 19.2955 9.69564 19.255 9.68257 19.2076C9.66949 19.1603 9.67546 19.1097 9.6992 19.0666C9.76171 18.9202 9.83688 18.7794 9.92386 18.6459C10.097 18.3962 10.1877 18.1341 10.0949 17.8352C10.2856 17.8925 10.1588 18.129 10.3083 18.2099C10.7597 18.4924 10.7731 18.5661 10.4041 18.9499Z" fill="#1D4877"/>
<path d="M7.41018 18.2109C7.56785 18.4853 7.73171 18.7565 7.87702 19.037C7.89261 19.0606 7.90311 19.0872 7.90787 19.115C7.91263 19.1428 7.91154 19.1714 7.90467 19.1988C7.8978 19.2262 7.88529 19.2518 7.86794 19.2742C7.85059 19.2966 7.82877 19.3151 7.80385 19.3287C7.64824 19.4035 7.61629 19.2837 7.59774 19.166C7.55343 18.9275 7.33907 19.0442 7.20819 18.9868C6.81142 18.5948 6.83306 18.3993 7.2896 18.2242L7.41018 18.2109Z" fill="#2E5681"/>
<path d="M8.40234 16.7977C8.59196 16.9236 8.75685 16.4066 8.97121 16.7977C9.03304 16.9113 9.20926 16.9113 8.93617 16.9635C8.78571 16.9922 8.86506 17.1682 8.96193 17.2573C9.11033 17.3924 9.12063 17.5265 8.97739 17.6667C8.95451 17.6951 8.92549 17.718 8.89249 17.7338C8.85949 17.7495 8.82335 17.7577 8.78674 17.7577C8.75013 17.7577 8.71398 17.7495 8.68098 17.7338C8.64798 17.718 8.61897 17.6951 8.59608 17.6667C8.44872 17.5255 8.4683 17.4006 8.61566 17.2573C8.97842 16.9174 8.45284 17.0044 8.40234 16.7977Z" fill="#EDF0F4"/>
<path d="M7.28062 18.2203C6.99103 18.4465 6.97144 18.7024 7.1992 18.9829C7.16764 19.0027 7.14243 19.031 7.12654 19.0646C7.11066 19.0981 7.10476 19.1355 7.10954 19.1722C7.00648 19.0535 6.90343 18.9419 6.81171 18.815C6.74954 18.7404 6.71211 18.6485 6.70455 18.5519C6.69699 18.4554 6.71965 18.3588 6.76945 18.2755C6.90858 18.0555 7.1013 18.1589 7.28062 18.2203Z" fill="#DEE4EB"/>
<path d="M12.0628 22.2637C12.5121 22.3834 12.912 22.7356 13.4262 22.5513L13.5221 22.7264L13.3737 22.7489C13.1815 22.7995 12.9794 22.7995 12.7873 22.7489C12.4544 22.7264 12.2163 22.4264 11.8711 22.4418L12.0628 22.2637Z" fill="#3A5F88"/>
<path d="M12.37 20.3987C12.4137 20.4171 12.4593 20.4309 12.506 20.4396C12.6503 20.4499 12.8451 20.3035 12.9234 20.5144C13.0079 20.7437 12.6616 20.6372 12.6359 20.8481C12.5565 21.0907 13.111 20.7017 12.9316 21.0804C12.6719 21.06 12.5637 20.803 12.3483 20.7119C12.2123 20.584 11.966 20.8348 11.8691 20.5737C12.0155 20.457 12.2566 20.6075 12.37 20.3987Z" fill="#1F4978"/>
<path d="M4.68319 21.106C4.63991 20.9279 4.63991 20.9279 4.96248 20.8338C4.93465 20.7949 4.91816 20.7457 4.88518 20.7314C4.78213 20.6771 4.58529 20.7079 4.65227 20.5134C4.70586 20.3568 4.85839 20.411 4.98618 20.4325C5.04946 20.4397 5.11315 20.4428 5.17683 20.4417C5.30256 20.5983 5.52723 20.456 5.65914 20.5983C5.54578 20.7928 5.33966 20.5983 5.20569 20.7007C5.08821 20.9126 4.89034 21.0129 4.68319 21.106Z" fill="#264F7C"/>
<path d="M10.4016 18.9499C10.3923 18.7451 10.8252 18.4299 10.248 18.3766L10.3099 18.2098C10.4913 18.22 10.7221 18.1289 10.8015 18.3777C10.9045 18.7247 10.6891 18.9314 10.4284 19.1065L10.4016 18.9499Z" fill="#DBE1E9"/>
<path d="M8.48712 18.5051C8.47377 18.5666 8.47621 18.6304 8.49422 18.6907C8.51223 18.751 8.54523 18.8058 8.59017 18.8501C8.67777 18.9351 8.72621 19.0343 8.63346 19.1388C8.60182 19.1743 8.55989 19.1993 8.5134 19.2103C8.46691 19.2213 8.41814 19.2178 8.37376 19.2002C8.23566 19.151 8.24185 19.0497 8.2707 18.931C8.27898 18.853 8.27898 18.7745 8.2707 18.6965L8.48712 18.5051Z" fill="#214B79"/>
<path d="M4.10299 20.041C3.94017 20.1075 3.79898 20.2273 3.61142 20.2314C3.31565 19.6848 3.76291 19.8608 4.00303 19.8363C4.07414 19.8864 4.15864 19.9305 4.10299 20.041Z" fill="#EEF1F4"/>
<path d="M8.84184 18.4113H8.69551C8.66253 18.3407 8.62852 18.2711 8.59245 18.1995C8.54298 18.0838 8.55947 17.9753 8.68108 17.9241C8.75207 17.897 8.83095 17.8988 8.90059 17.9292C8.92516 17.9421 8.94662 17.9602 8.96345 17.9822C8.98029 18.0042 8.99211 18.0296 8.99809 18.0565C9.00407 18.0835 9.00407 18.1115 8.99809 18.1384C8.99211 18.1654 8.98029 18.1908 8.96345 18.2128C8.93047 18.2834 8.8841 18.3458 8.84184 18.4113Z" fill="#DDE3EA"/>
<path d="M14.3066 22.2534H14.4787C14.4169 22.5155 14.5818 22.7089 14.6848 22.9178L14.5911 23.0201C14.2263 22.8666 14.354 22.5278 14.3066 22.2534Z" fill="#CDD6E1"/>
<path d="M9.54083 17.7329L9.73665 17.9151C9.70465 17.9191 9.67297 17.9252 9.64183 17.9336C9.49652 17.9837 9.37491 18.2939 9.22238 18.0615C9.13375 17.9264 9.40789 17.8271 9.54083 17.7329Z" fill="#D5DCE5"/>
<path d="M13.7029 26.3789C13.9224 26.6174 14.2687 26.3574 14.4933 26.5755C14.2522 26.6307 14.011 26.5509 13.7585 26.6062C13.537 26.6543 13.5957 26.4905 13.7029 26.3789Z" fill="#C8D3DE"/>
<path d="M5.35641 22.3301L5.37187 22.4765C5.2348 22.5891 5.0998 22.7099 4.89678 22.6464L4.78342 22.6402C4.75147 22.6218 4.74116 22.6044 4.7525 22.587C4.76384 22.5696 4.77517 22.5624 4.78651 22.5624L5.35641 22.3301Z" fill="#325984"/>
<path d="M5.45798 26.478C5.51259 26.738 5.35492 27.0277 5.57031 27.2662C5.5095 27.3174 5.3879 27.3758 5.38378 27.2867C5.37244 27.0175 5.24569 26.7288 5.45798 26.478Z" fill="#F6F8F9"/>
<path d="M10.8965 25.6187C11.0716 25.8377 11.4045 25.5869 11.5684 25.8387C11.3623 25.8572 11.1706 25.7599 10.9603 25.8326C10.8346 25.8756 10.8243 25.8459 10.8965 25.6187Z" fill="#BECBD8"/>
<path d="M13.5427 19.8403L12.9336 19.7482C13.1109 19.5988 13.3324 19.6981 13.5313 19.6602C13.7034 19.6264 13.5117 19.7759 13.5427 19.8403Z" fill="#CBD5E0"/>
<path d="M2.87006 21.861C2.57223 21.8446 2.26512 21.946 1.97656 21.7986C2.27439 21.8242 2.57944 21.7403 2.87006 21.861Z" fill="#DDE3EA"/>
<path d="M11.8683 20.5757C12.0105 20.678 12.2362 20.501 12.3475 20.7139C12.1919 20.7077 12.0579 20.8602 11.8899 20.7681C11.79 20.7088 11.7343 20.6535 11.8683 20.5757Z" fill="#DFE5EB"/>
<path d="M5.20703 20.6986C5.32348 20.5174 5.51619 20.6699 5.66047 20.5962C5.83154 20.717 5.712 20.7825 5.60173 20.7845C5.46719 20.7716 5.33468 20.7427 5.20703 20.6986Z" fill="#E7ECF0"/>
<path d="M1.83984 22.0742C2.03565 22.0957 2.3005 21.9472 2.36852 22.286L2.29844 22.3884C2.2768 22.0916 1.95836 22.2277 1.83984 22.0742Z" fill="#DDE3EA"/>
<path d="M4.6096 19.738L4.14379 19.7513C4.13582 19.7638 4.12504 19.7744 4.1123 19.7821C4.09955 19.7898 4.08519 19.7945 4.07033 19.7958C4.05547 19.797 4.04051 19.7949 4.02662 19.7895C4.01272 19.7841 4.00027 19.7756 3.99023 19.7646C4.19016 19.5988 4.4004 19.6817 4.6096 19.738Z" fill="#C9D3DE"/>
<path d="M11.1914 25.1412C11.0883 25.261 11.0038 25.4145 10.8008 25.3347C10.9646 25.3428 10.8853 24.8566 11.1914 25.1412Z" fill="#B0BFCF"/>
<path d="M3.99411 19.7648L4.14766 19.7515C4.27647 20.0637 4.27647 20.0637 4.10747 20.0412C4.07346 19.9726 4.04048 19.904 4.00442 19.8364C3.99614 19.8266 3.9908 19.8147 3.98898 19.8021C3.98715 19.7894 3.98893 19.7765 3.99411 19.7648Z" fill="#869EB6"/>
<path d="M14.5801 26.5824C14.6131 26.2242 14.9305 26.5067 15.0634 26.3716C14.9717 26.5988 14.7171 26.4596 14.5801 26.5824Z" fill="#4A6D92"/>
<path d="M14.1063 20.3238C13.9909 20.2787 13.7971 20.3555 13.7693 20.205C13.7487 20.1027 13.9157 20.1508 13.996 20.1262L14.1063 20.3238Z" fill="#617FA0"/>
<path d="M4.8015 22.7491C4.70951 22.8051 4.60348 22.8343 4.49556 22.8332C4.38765 22.8321 4.28224 22.8008 4.19141 22.7429L4.8015 22.7491Z" fill="#486B91"/>
<path d="M4.78696 22.5625C4.78696 22.5881 4.78696 22.6147 4.78696 22.6403C4.62929 22.6311 4.42008 22.7232 4.39844 22.4458C4.51695 22.5154 4.63547 22.5922 4.78696 22.5625Z" fill="#486B91"/>
<path d="M27.0552 25.7851C27.0552 25.9295 27.0603 26.0738 27.0552 26.2181C27.0469 26.385 27.1149 26.5887 26.8861 26.6706C26.6574 26.7525 26.4451 26.7781 26.2369 26.6307C25.768 26.297 25.8628 25.2088 26.3832 24.9509C26.8058 24.7461 27.0521 24.8884 27.0562 25.3521C27.0562 25.4965 27.0552 25.6408 27.0552 25.7851Z" fill="#FCFCFC"/>
<path d="M63.6942 19.0392C63.688 18.992 63.688 18.9441 63.6942 18.8969C63.7457 18.7065 63.5458 18.4025 63.8704 18.3441C64.0219 18.308 64.1811 18.3225 64.3235 18.3855C64.4658 18.4484 64.5833 18.5562 64.6577 18.6922C64.7445 18.8389 64.7799 19.0101 64.7585 19.179C64.737 19.3479 64.6599 19.505 64.5392 19.6257C64.4548 19.7249 64.3425 19.7967 64.2168 19.8321C64.091 19.8675 63.9575 19.8648 63.8333 19.8243C63.5798 19.7455 63.7302 19.4978 63.6952 19.3268C63.6861 19.2312 63.6857 19.1349 63.6942 19.0392Z" fill="#FAFAFA"/>
<path d="M68.7823 20.1544C68.7823 20.0101 68.772 19.8657 68.7823 19.7235C68.7978 19.5627 68.6988 19.357 68.9338 19.269C69.1688 19.1809 69.4141 19.1666 69.6212 19.3324C69.9366 19.5853 69.9562 19.9384 69.8974 20.2957C69.8387 20.6529 69.679 20.9272 69.2976 21.0286C68.9452 21.1217 68.7256 21.0654 68.7823 20.6324C68.7916 20.4732 68.7916 20.3136 68.7823 20.1544Z" fill="#FAFAFA"/>
<path d="M71.7766 32.0786L71.5705 32.357C71.4056 32.4686 71.2614 32.5218 71.1418 32.2854C70.9615 31.9189 71.1233 31.014 71.4293 30.7499C71.5829 30.6148 71.7766 30.5206 71.9621 30.5974C72.194 30.6916 72.0415 30.9045 72.0209 31.059C71.9847 31.408 71.9026 31.7508 71.7766 32.0786Z" fill="#FAFAF9"/>
<path d="M47.2012 25.8856C47.2012 25.2858 47.4969 24.8518 47.9122 24.862C48.3275 24.8722 48.612 25.3226 48.5677 25.9174C48.5285 26.4466 48.242 26.7977 47.8566 26.7895C47.4712 26.7813 47.2063 26.4261 47.2012 25.8856Z" fill="#FCFCFC"/>
<path d="M30.5186 20.0542C30.5248 20.6561 30.2249 21.0881 29.8106 21.0778C29.3757 21.0666 29.0892 20.5885 29.1562 19.9764C29.2087 19.4738 29.4922 19.1411 29.8611 19.1493C30.2517 19.1575 30.5135 19.5178 30.5186 20.0542Z" fill="#FCFCFC"/>
<path d="M59.4893 20.1235C59.478 20.2002 59.4718 20.3128 59.446 20.4213C59.3646 20.7735 59.1884 21.0703 58.7875 21.0693C58.3866 21.0683 58.2063 20.7765 58.1424 20.4152C58.1155 20.2749 58.1085 20.1316 58.1218 19.9894C58.1795 19.4448 58.4732 19.1203 58.8627 19.152C59.2523 19.1838 59.4975 19.5605 59.4893 20.1235Z" fill="#FCFCFC"/>
<path d="M53.9336 19.8758C53.7718 19.755 53.4503 20.0252 53.4348 19.6915C53.4299 19.619 53.44 19.5464 53.4645 19.478C53.4891 19.4096 53.5275 19.3469 53.5775 19.2939C53.6275 19.2409 53.6879 19.1987 53.755 19.1699C53.8221 19.1411 53.8945 19.1263 53.9676 19.1264C54.3025 19.1131 54.4623 19.3844 54.4489 19.6639C54.4314 20.0324 54.0923 19.7417 53.9336 19.8758Z" fill="#F5F5F5"/>
<path d="M80.349 19.8808C80.1944 19.7345 79.8337 20.0436 79.844 19.6556C79.8445 19.5169 79.8995 19.3839 79.9972 19.2848C80.095 19.1858 80.2279 19.1286 80.3675 19.1254C80.7055 19.11 80.8642 19.3731 80.8601 19.6546C80.855 20.0415 80.5066 19.7375 80.349 19.8808Z" fill="#F4F4F4"/>
<path d="M56.9988 25.5939C56.8483 25.47 56.5175 25.7484 56.5237 25.384C56.5216 25.3155 56.5334 25.2473 56.5584 25.1835C56.5833 25.1196 56.621 25.0613 56.669 25.0122C56.7171 24.963 56.7746 24.9239 56.8381 24.8972C56.9017 24.8706 56.97 24.8568 57.039 24.8569C57.3842 24.8415 57.5388 25.0954 57.5213 25.381C57.4966 25.7444 57.1585 25.4588 56.9988 25.5939Z" fill="#F9F9F9"/>
<path d="M21.9125 26.2209C22.0022 26.699 21.761 26.7819 21.4487 26.788C21.2261 26.788 21.0468 26.701 21.0592 26.4625C21.0798 26.0674 21.4086 25.9967 21.7146 25.9507C22.0207 25.9046 21.895 26.1687 21.9125 26.2209Z" fill="#F0F0EF"/>
<path d="M34.3127 25.5876C34.1571 25.4688 33.8263 25.7422 33.8263 25.388C33.8233 25.249 33.8758 25.1146 33.9724 25.014C34.0689 24.9135 34.2017 24.8551 34.3416 24.8516C34.692 24.8321 34.8476 25.0993 34.8352 25.3757C34.8177 25.735 34.4745 25.4668 34.3127 25.5876Z" fill="#F8F8F7"/>
<path d="M25.0068 20.639C25.0831 20.9625 24.8512 21.0485 24.5678 21.069C24.3359 21.0833 24.1175 20.9953 24.1381 20.7353C24.1669 20.3575 24.4823 20.2654 24.7987 20.2347C25.0058 20.2153 25.0099 20.2388 25.0068 20.639Z" fill="#F3F3F3"/>
<path d="M35.2285 20.5347C35.3213 21.0138 35.0317 21.0588 34.7472 21.069C34.5349 21.0762 34.3494 20.9738 34.3731 20.7282C34.4102 20.3392 34.7266 20.2645 35.0389 20.2317C35.3512 20.199 35.1955 20.4733 35.2285 20.5347Z" fill="#F1F1F1"/>
<path d="M82.9354 20.6708C83.0024 20.9615 82.7581 21.0577 82.4521 21.07C82.2171 21.0792 82.0172 20.984 82.0481 20.7117C82.0883 20.3514 82.3871 20.2797 82.6819 20.2316C82.991 20.1804 82.9003 20.4179 82.9354 20.6708Z" fill="#F0F0F0"/>
<path d="M61.6167 30.8246C61.5342 31.2934 61.5054 31.7458 61.2776 32.1399C61.19 32.2904 61.088 32.4696 60.887 32.447C60.6644 32.4204 60.6521 32.1983 60.6418 32.0376C60.6109 31.5554 60.6418 31.0774 61.0293 30.7161C61.0936 30.6549 61.1728 30.6113 61.2591 30.5896C61.3454 30.5679 61.436 30.5688 61.5218 30.5922C61.6847 30.627 61.6331 30.7488 61.6167 30.8246Z" fill="#F8F8F8"/>
<path d="M66.7305 31.8124C66.7789 31.3784 66.8078 30.971 67.1623 30.6946C67.3066 30.581 67.49 30.5165 67.6611 30.6014C67.8322 30.6864 67.7136 30.8635 67.6941 30.9884C67.6498 31.3051 67.5809 31.6179 67.4879 31.924C67.4106 32.1625 67.288 32.4859 66.9943 32.4358C66.68 32.3754 66.7789 32.0202 66.7305 31.8124Z" fill="#F8F8F8"/>
<path d="M45.4553 31.8695L45.1647 32.3598C44.973 32.4867 44.7782 32.5123 44.7205 32.2462C44.6102 31.7343 44.6277 31.2297 44.972 30.7946C45.1204 30.6063 45.3512 30.4988 45.5697 30.6022C45.7882 30.7056 45.6223 30.9154 45.6017 31.0741C45.5666 31.3413 45.5069 31.6043 45.4553 31.8695Z" fill="#FAFAFA"/>
<path d="M79.1745 31.4018C79.1735 31.6783 79.1064 31.9505 78.9787 32.1962C78.8911 32.3528 78.7871 32.5033 78.5799 32.4869C78.3429 32.4664 78.2831 32.2729 78.2378 32.0825C78.1467 31.6915 78.1967 31.281 78.3789 30.9228C78.4707 30.7344 78.5985 30.5358 78.8406 30.5707C79.1158 30.6116 79.156 30.8532 79.1735 31.0825C79.1797 31.1623 79.1745 31.2421 79.1745 31.4018Z" fill="#FAFAFA"/>
<path d="M36.9638 31.2524C36.9421 31.6158 36.9153 31.9485 36.7309 32.2443C36.6433 32.3845 36.5371 32.5094 36.3527 32.4869C36.1466 32.4623 36.0723 32.2996 36.027 32.1215C35.925 31.7178 35.9729 31.2911 36.162 30.9197C36.2527 30.7334 36.3825 30.5379 36.6289 30.5758C36.8752 30.6137 36.9267 30.8337 36.9504 31.0477C36.9586 31.1245 36.9607 31.2023 36.9638 31.2524Z" fill="#FAFAFA"/>
<path d="M64.1692 31.198C64.2496 30.9359 64.3186 30.5838 64.7113 30.5644C64.9277 30.5531 64.9452 30.7885 64.9174 30.9738C64.8524 31.3239 64.5989 31.4754 64.2712 31.4938C64.095 31.4989 64.1517 31.3454 64.1692 31.198Z" fill="#F4F4F4"/>
<path d="M43.7208 30.9421C43.6765 31.2737 43.4415 31.4324 43.1148 31.4897C42.952 31.5194 42.9376 31.4201 42.9448 31.2901C42.9613 30.9462 43.2808 30.5152 43.5075 30.5531C43.7156 30.5889 43.7239 30.7537 43.7208 30.9421Z" fill="#F2F2F2"/>
<path d="M57.5123 30.9401C57.4679 31.2779 57.2309 31.4345 56.9042 31.4908C56.7404 31.5184 56.728 31.4171 56.7363 31.2861C56.7569 30.9391 57.0753 30.5132 57.302 30.5531C57.5112 30.591 57.5143 30.7589 57.5123 30.9401Z" fill="#F2F2F2"/>
<path d="M7.6763 22.989C8.10214 22.4861 8.63831 22.6705 9.15798 22.7555C9.3642 22.7882 9.3807 22.9736 9.42194 23.117C9.50546 23.4079 9.65187 23.4847 9.90965 23.3054C10.0777 23.285 10.0901 23.3597 10.021 23.4847C9.89933 23.6393 9.70549 23.5984 9.54258 23.6455C9.54258 23.8575 9.68487 23.9199 9.84572 23.9527C10.1365 24.0172 9.96842 24.3173 10.121 24.4699C10.2014 24.5498 10.0365 24.6635 9.94367 24.6748C9.81272 24.6881 9.6694 24.9298 9.54155 24.6748C9.41369 24.4197 9.67971 24.43 9.78076 24.3317C9.75335 24.2824 9.71318 24.2413 9.66441 24.2127C9.61564 24.1841 9.56005 24.1689 9.5034 24.1688C9.21263 24.1289 8.89402 24.1309 9.07653 23.6659C9.14045 23.5011 9.03219 23.3259 8.84144 23.2471L8.80844 23.2194C8.51664 22.7585 8.15885 23.031 7.8155 23.1303C7.69899 23.1528 7.65155 23.1057 7.6763 22.989Z" fill="#204B79"/>
<path d="M8.9634 21.1053C8.98289 21.0634 9.01067 21.0259 9.0451 20.9949C9.07952 20.964 9.11988 20.9402 9.16375 20.9251C9.20762 20.9101 9.25411 20.9039 9.30043 20.9071C9.34675 20.9102 9.39196 20.9226 9.43334 20.9435C9.58071 21.0111 9.60648 21.1708 9.6106 21.3796C9.61884 21.7717 9.62297 22.0962 9.30968 22.4032C9.09635 22.608 8.45121 22.608 8.33785 22.3377C8.27086 22.178 8.40793 22.0634 8.54396 22.0306C8.74183 21.9795 8.79336 21.8638 8.77275 21.6857C8.76054 21.6243 8.7623 21.561 8.7779 21.5004C8.82428 21.3561 8.92836 21.2465 8.9634 21.1053Z" fill="#1C4877"/>
<path d="M8.80965 23.2231L8.84263 23.2508C8.84778 23.4616 8.84262 23.6541 8.5788 23.738C8.53885 23.7484 8.50141 23.7667 8.46868 23.7917C8.43594 23.8167 8.40859 23.848 8.38822 23.8837C8.36786 23.9193 8.3549 23.9587 8.35011 23.9995C8.34531 24.0402 8.34879 24.0815 8.36032 24.1209C8.51903 24.5017 8.05116 24.4147 8.01097 24.6327C7.85432 24.5948 7.61214 24.7074 7.56886 24.472C7.53588 24.2939 7.69356 24.2672 7.86051 24.2928C7.98623 24.3113 8.06043 24.2386 8.0594 24.0881C8.05425 23.4279 8.15112 23.3204 8.80965 23.2231Z" fill="#28517E"/>
<path d="M7.67933 22.9885L7.81846 23.1338C7.87617 23.269 7.93388 23.402 7.74529 23.489C7.58658 23.5627 7.56906 23.4092 7.49383 23.3437C7.39077 23.2516 7.27329 23.1686 7.17539 23.0683C7.10737 22.9967 7.16611 22.9199 7.21455 22.8636C7.25084 22.8109 7.30009 22.7683 7.35763 22.7398C7.41517 22.7113 7.47908 22.6979 7.54329 22.7008C7.75662 22.7111 7.55154 22.9312 7.67933 22.9885Z" fill="#335A85"/>
<path d="M10.0488 21.5088C10.0746 21.3706 9.99215 21.1474 10.191 21.1484C10.4755 21.1484 10.3405 21.4105 10.3528 21.5579C10.3642 21.6818 10.4332 21.907 10.2292 21.909C9.94268 21.907 10.0993 21.6459 10.0488 21.5088Z" fill="#3D638B"/>
<path d="M8.77734 25.0102C8.82578 24.8567 8.69799 24.6161 8.9206 24.6059C9.16691 24.5936 9.05767 24.8403 9.05663 24.9683C9.0556 25.0962 9.17206 25.3337 8.91957 25.3337C8.70623 25.3337 8.83403 25.1095 8.77734 25.0102Z" fill="#103E70"/>
<path d="M7.77651 21.7768C7.90945 21.9068 7.4591 21.8096 7.6951 21.9816C7.70918 21.9999 7.71554 22.023 7.71285 22.0459C7.71016 22.0688 7.69862 22.0898 7.68067 22.1044C7.56421 21.9437 7.38077 22.304 7.29627 22.0676C7.20351 21.8076 7.47558 21.7287 7.59616 21.5752C7.67286 21.6257 7.73502 21.6952 7.77651 21.7768Z" fill="#42668D"/>
<path d="M7.78125 21.3836C7.89981 21.1333 8.07639 20.9144 8.29653 20.7449C8.30684 21.1369 8.06878 21.3058 7.90183 21.5106C7.87126 21.5038 7.84343 21.4881 7.82194 21.4655C7.80044 21.4428 7.78627 21.4143 7.78125 21.3836Z" fill="#3F648C"/>
<path d="M7.68164 22.1039L7.69607 21.9811C7.77219 21.9705 7.84957 21.9729 7.92486 21.9883C8.03719 22.0343 8.26495 22.0292 8.15261 22.2411C8.06089 22.4141 7.93826 22.2493 7.8352 22.2083C7.78016 22.1795 7.72863 22.1445 7.68164 22.1039Z" fill="#40658C"/>
<path d="M8.9595 21.1052C9.13161 21.31 8.86469 21.4174 8.85644 21.5822C8.61219 21.6457 8.68124 21.4062 8.5957 21.3161C8.71628 21.2424 8.80491 21.1185 8.9595 21.1052Z" fill="#4B6D93"/>
<path d="M10.0205 23.4842C10.0229 23.4466 10.0134 23.4092 9.99351 23.3771C9.97358 23.345 9.94411 23.3199 9.90918 23.3051C9.95349 23.17 9.86796 23.0666 9.82055 22.954C9.81013 22.9439 9.80229 22.9314 9.79768 22.9177C9.79307 22.904 9.79182 22.8893 9.79404 22.875C9.79625 22.8607 9.80187 22.8471 9.81042 22.8354C9.81898 22.8237 9.83022 22.8142 9.84322 22.8076C10.0514 22.9949 10.2926 23.1731 10.0205 23.4842Z" fill="#335A84"/>
<path d="M10.0384 22.5277H9.92814C9.87764 22.5042 9.8189 22.4899 9.80859 22.4254C10.0405 22.2452 10.3043 22.4182 10.5527 22.3701C10.6186 22.3568 10.5867 22.4868 10.5084 22.5298C10.3476 22.4632 10.1909 22.5482 10.0384 22.5277Z" fill="#527397"/>
<path d="M7.78186 21.3838L7.90656 21.5107C7.86328 21.5988 7.81999 21.6878 7.77774 21.7769C7.75178 21.777 7.7261 21.7715 7.70244 21.7609C7.67877 21.7503 7.65768 21.7348 7.64058 21.7153C7.62348 21.6959 7.61078 21.6731 7.60333 21.6484C7.59588 21.6237 7.59386 21.5977 7.5974 21.5721L7.78186 21.3838Z" fill="#27517E"/>
<path d="M9.80604 22.4255L9.92558 22.5279C9.82253 22.5985 9.85447 22.706 9.84829 22.8033L9.82562 22.9496C9.63291 22.7848 9.56696 22.6108 9.80604 22.4255Z" fill="#214B7A"/>
<path d="M8.60091 21.3159C8.73489 21.3589 8.69366 21.5718 8.86165 21.5821C8.86165 21.6425 8.83073 21.6691 8.77611 21.6783C8.4927 21.6629 8.5401 21.4971 8.60091 21.3159Z" fill="#B9C6D5"/>
<path d="M10.0371 22.5279C10.1034 22.474 10.1864 22.4446 10.2721 22.4446C10.3577 22.4446 10.4408 22.474 10.5071 22.5279C10.3463 22.5648 10.1886 22.7418 10.0371 22.5279Z" fill="#214B7A"/>
<path d="M12.7852 22.749H13.3715C13.2828 22.8013 13.1815 22.8288 13.0784 22.8288C12.9752 22.8288 12.8739 22.8013 12.7852 22.749Z" fill="#42668D"/>
<path d="M12.8343 20.2029C12.8178 20.1793 12.7724 20.1445 12.7755 20.1128C12.7817 20.0329 12.8559 20.037 12.9136 20.0411C12.9538 20.0411 13.0167 20.0473 12.994 20.1138C12.9713 20.1803 12.925 20.209 12.8343 20.2029Z" fill="#234D7B"/>
<path d="M4.83467 20.1362C4.82776 20.1659 4.8095 20.1918 4.78374 20.2084C4.75798 20.2251 4.72673 20.2311 4.69658 20.2253C4.60899 20.214 4.55025 20.1598 4.56468 20.0779C4.56983 20.0512 4.66773 20.0257 4.72235 20.0277C4.77696 20.0298 4.84807 20.0492 4.83467 20.1362Z" fill="#6481A2"/>
</svg>
