<svg width="51" height="24" viewBox="0 0 51 24" fill="none" xmlns="http://www.w3.org/2000/svg">
<path d="M15.2268 0.482422H0.695312V23.4824H15.2268V0.482422Z" fill="#B84632"/>
<path d="M8.51464 17.0733C10.0963 17.0733 11.3896 17.4193 11.3896 17.8971C11.3896 18.3666 10.1045 18.7209 8.52287 18.7209C6.94121 18.7209 5.67259 18.3749 5.67259 17.8971C5.68082 17.4193 6.94121 17.0733 8.51464 17.0733ZM3.13534 19.5941C3.13534 19.5941 2.44336 19.66 2.44336 20.3602C2.44336 20.9698 3.09415 21.0604 3.09415 21.0604H12.5347C12.5347 21.0604 13.169 21.011 13.169 20.319C13.169 19.627 12.4688 19.5941 12.4688 19.5941H3.13534ZM7.5261 13.6958C7.419 13.7699 7.2872 13.8935 7.39429 14.0747C7.53433 14.3219 7.62495 14.2724 7.90504 14.1654C8.53111 13.9265 8.98419 14.0088 9.29723 14.0088C9.61027 14.0088 10.2363 14.2065 10.327 14.3219C10.4176 14.4372 10.5082 14.5196 10.434 14.7667C10.3517 15.0138 10.1375 15.055 10.1375 15.055C10.0057 15.2033 9.00891 15.261 8.77001 15.2363C8.62997 15.2198 8.48168 15.4093 8.48168 15.5493C8.48168 15.6893 8.61349 15.8212 8.72882 15.8212C10.0716 15.8459 10.4093 15.574 10.4093 15.574C10.4093 15.574 10.9695 15.4669 11.0354 14.7667C11.1013 14.0665 10.5659 13.7782 10.5659 13.7782V4.11521H9.49494V2.45117C9.49494 2.45117 9.49494 2.16284 9.14071 2.16284C8.78648 2.16284 8.78648 2.50059 8.78648 2.50059V4.10697H8.2016C8.2016 4.10697 7.79795 4.20582 7.79795 4.63419C7.79795 5.06256 8.25926 5.09551 8.25926 5.09551H9.66793V13.4734H9.62674C8.22631 13.2839 7.5261 13.6958 7.5261 13.6958ZM5.77144 12.526C6.29042 11.0432 7.32015 9.20618 7.32015 9.20618V7.26205C7.18011 7.44329 6.03505 9.53569 5.10418 11.5457C4.11564 13.6958 3.72022 16.0106 3.72022 16.0106C3.72022 16.0106 3.53899 17.3534 3.5637 17.7076C3.58842 18.0618 3.63784 18.6962 3.76141 19.0586C3.87674 19.4211 4.00855 19.6929 4.00855 19.6929L5.20303 19.7588C5.20303 19.7588 4.70876 19.3058 4.59343 18.2843C4.4781 17.3204 4.58519 16.5378 4.79938 15.5658C4.98061 14.7585 5.24422 13.9759 5.34307 13.6546C5.4584 13.3333 5.77144 12.526 5.77144 12.526Z" fill="white"/>
<path d="M19.2326 9.31324C19.0678 9.71689 18.9937 9.89812 18.9772 9.92284V9.93108H18.6806H18.3594V9.92284C18.3676 9.89812 18.45 9.71689 18.9772 8.51417L19.7516 6.72656H19.8339L20.5918 8.52241C21.1026 9.72513 21.1767 9.89813 21.1849 9.93108V9.93931H20.8719H20.5094V9.93108C20.5012 9.90636 20.4271 9.72513 20.2705 9.32148H19.2326V9.31324ZM20.0893 8.81897V8.81073C19.8587 8.21761 19.801 8.04461 19.7598 7.92105H19.7516C19.7186 8.04461 19.6527 8.21761 19.4138 8.81073V8.81897H20.0893ZM21.5721 8.51417C21.4074 9.70866 21.3744 9.89812 21.3662 9.92284V9.93108H21.6463H21.9511V9.92284C21.9511 9.88989 21.9758 9.68394 22.0582 8.96725C22.0911 8.6954 22.1158 8.44827 22.1323 8.1929H22.1405C22.2394 8.43179 22.3547 8.64598 22.47 8.8684C22.5936 9.09082 22.7913 9.43681 23.0632 9.88165H23.1373C23.4009 9.44504 23.6069 9.09906 23.7222 8.88487C23.8458 8.66245 23.9446 8.47298 24.0682 8.20113H24.0764C24.0847 8.44827 24.1094 8.68717 24.1423 8.96725C24.2247 9.69218 24.2577 9.90636 24.2577 9.93108V9.93931H24.5789H24.8755V9.93108C24.8755 9.90636 24.8425 9.71689 24.686 8.52241L24.4554 6.75128H24.3812C23.3597 8.47298 23.2444 8.67069 23.1291 8.90959H23.1208C22.9973 8.66245 22.8902 8.46474 21.8934 6.75128H21.8193L21.5721 8.51417ZM25.3039 8.51417V9.92284V9.93108H26.1771H26.9185V9.41209H26.9102H26.6137H25.9135C25.9135 9.38738 25.9135 9.3709 25.9135 9.35443V8.58007H26.4572H26.7867H26.7949V8.31646V8.06933H26.7867H26.4489H25.9135V7.2785H26.4242H26.8855H26.8938V6.76775H26.1276H25.3121V6.77599V8.10228V8.51417H25.3039ZM27.4127 8.11052V6.79247V6.78423C27.4704 6.77599 27.5693 6.76775 27.6599 6.76775C27.7505 6.75951 27.9152 6.75951 28.0059 6.75951C28.2448 6.75951 28.4425 6.78423 28.6237 6.83365C28.8626 6.89956 29.2251 7.12198 29.2251 7.68215C29.2251 8.06933 29.0274 8.30823 28.8873 8.40708C28.8132 8.46474 28.7226 8.52241 28.6567 8.54712V8.55536C28.6814 8.59655 28.739 8.67069 29.3898 9.58509C29.4804 9.70866 29.604 9.88989 29.6287 9.9146V9.92284H29.291H29.0438H28.9367C28.7061 9.57685 28.4342 9.15672 28.0882 8.66245H27.9894V8.81897V9.9146V9.92284H27.7011H27.4127V9.9146V8.50593V8.11052ZM28.6319 7.73158C28.6319 7.43502 28.4342 7.27026 28.1377 7.27026C28.0718 7.27026 28.0223 7.2785 27.9894 7.2785V8.23408C28.0141 8.23408 28.0553 8.23408 28.0965 8.23408C28.2118 8.23408 28.3189 8.20113 28.393 8.15171C28.5084 8.10228 28.6319 7.96224 28.6319 7.73158ZM30.1724 6.77599H29.8676V6.79247V8.11052V8.51417V9.92284V9.93108H30.1807H30.4772V9.92284V8.51417V8.11052V6.78423V6.77599H30.1724ZM33.2451 7.33616C33.2534 7.11374 33.2616 6.95722 33.2616 6.78423C33.1957 6.76775 33.0968 6.75128 33.0062 6.74304C32.9238 6.7348 32.8415 6.72656 32.7179 6.72656C31.5893 6.72656 30.8973 7.40206 30.8973 8.34118C30.8973 9.35443 31.647 9.9805 32.6026 9.9805C32.7344 9.9805 32.8415 9.97227 32.9815 9.95579C33.0721 9.93931 33.1792 9.9146 33.2451 9.89812C33.2451 9.78279 33.2286 9.478 33.2286 9.36267H33.2204C33.1545 9.38738 33.0968 9.39562 33.0392 9.40386C32.9238 9.42033 32.8085 9.42857 32.6685 9.42857C32.0012 9.42857 31.5564 8.99196 31.5564 8.34118C31.5564 7.69039 32.0177 7.27026 32.7344 7.27026C32.8579 7.27026 32.965 7.2785 33.0557 7.29497C33.1216 7.30321 33.171 7.31969 33.2204 7.32792H33.2451V7.33616ZM34.2996 9.31324C34.1348 9.71689 34.0607 9.89812 34.0442 9.92284V9.93108H33.7476H33.4264V9.92284C33.4346 9.89812 33.517 9.71689 34.0442 8.51417L34.8185 6.72656H34.9009L35.6588 8.52241C36.1695 9.72513 36.2437 9.89813 36.2519 9.93108V9.93931H35.9389H35.5764V9.93108C35.5682 9.90636 35.494 9.72513 35.3375 9.32148H34.2996V9.31324ZM35.1563 8.81897V8.81073C34.9256 8.21761 34.868 8.04461 34.8268 7.92105H34.8185C34.7856 8.04461 34.7197 8.21761 34.4808 8.81073V8.81897H35.1563ZM39.1846 8.11052V6.78423V6.77599H38.921H38.6244V6.78423V8.05285C38.6244 8.41532 38.6244 8.54712 38.6244 8.73659H38.6162C38.4267 8.53065 38.262 8.36589 38.089 8.18466C37.8171 7.90457 37.3805 7.47621 36.6391 6.74304H36.565V8.51417V9.92284V9.93108H36.8286H37.1251V9.92284V8.58831C37.1251 8.27527 37.1251 8.15171 37.1169 7.98695H37.1251C37.3558 8.24232 37.4958 8.37413 37.6935 8.57184C37.9654 8.85192 38.3938 9.27205 39.1022 9.97227H39.1764V8.11052H39.1846ZM20.147 14.6349C20.147 14.2806 19.9822 14.0582 19.7351 13.8276C19.5703 13.671 19.4303 13.5722 19.3397 13.4733C19.2573 13.3827 19.1996 13.2921 19.1996 13.1603C19.1996 12.9461 19.3891 12.8061 19.6445 12.8061C19.7104 12.8061 19.7763 12.8143 19.8257 12.8226C19.8751 12.8308 19.9328 12.8473 19.974 12.8637H19.9822C19.9905 12.5919 19.9905 12.5178 19.9987 12.3283C19.8998 12.2953 19.7351 12.2789 19.5868 12.2789C18.8784 12.2789 18.5653 12.7155 18.5653 13.1685C18.5653 13.4981 18.7218 13.7205 18.9195 13.9182C19.0184 14.017 19.1255 14.1159 19.2573 14.223C19.4138 14.3548 19.488 14.4701 19.488 14.6102C19.488 14.8491 19.2985 14.9726 19.0596 14.9726C18.9278 14.9726 18.8125 14.9561 18.7218 14.9232C18.6642 14.9067 18.6147 14.8902 18.5653 14.8655H18.5571C18.5488 15.1374 18.5406 15.2033 18.5406 15.4092C18.6806 15.4669 18.9113 15.5081 19.109 15.5081C19.7516 15.4998 20.147 15.1209 20.147 14.6349ZM23.7387 13.8605C23.7387 14.7749 23.0467 15.4998 22.0993 15.4998C21.1767 15.4998 20.4683 14.7832 20.4683 13.8852C20.4683 12.9708 21.1849 12.2541 22.1405 12.2541C23.0714 12.2541 23.7387 12.9544 23.7387 13.8605ZM23.1208 13.877C23.1208 13.2839 22.6925 12.8143 22.1158 12.8143C21.5227 12.8143 21.0943 13.2756 21.0943 13.8852C21.0943 14.4784 21.5227 14.9561 22.1241 14.9561C22.7089 14.9479 23.1208 14.4784 23.1208 13.877ZM26.3995 12.8555C26.4077 12.6331 26.416 12.4766 26.416 12.3036C26.3501 12.2871 26.2512 12.2706 26.1606 12.2624C26.0782 12.2541 25.9958 12.2459 25.8723 12.2459C24.7437 12.2459 24.0517 12.9214 24.0517 13.8605C24.0517 14.8738 24.8014 15.4916 25.7569 15.4916C25.8887 15.4916 25.9958 15.4834 26.1359 15.4669C26.2265 15.4587 26.3336 15.4339 26.3995 15.4092C26.3995 15.2939 26.383 14.9891 26.383 14.8738H26.3748C26.3089 14.8985 26.2512 14.9067 26.1935 14.9232C26.0782 14.9397 25.9629 14.9479 25.8228 14.9479C25.1556 14.9479 24.7107 14.5113 24.7107 13.8605C24.7107 13.2097 25.1638 12.7896 25.8887 12.7896C26.0123 12.7896 26.1194 12.7978 26.21 12.8143C26.2759 12.8226 26.3254 12.839 26.3748 12.8473H26.3995V12.8555ZM27.2233 12.2953H26.9185V12.3118V13.6299V14.0335V15.4339V15.4504H27.2315H27.5198V15.4422V14.0335V13.6299V12.3118V12.3036H27.2233V12.2953ZM28.1459 14.0335V15.4422V15.4504H29.0191H29.7605V14.9314H29.7523H29.4557H28.7555C28.7555 14.9067 28.7555 14.8902 28.7555 14.8738V14.0994H29.2992H29.6287H29.637V13.8358V13.5887H29.6205H29.291H28.7555V12.7978H29.2663H29.7276H29.7358V12.2871H28.9615H28.1459V12.2953V13.6216V14.0335ZM30.8726 14.0335V15.4422V15.4504H31.1774H31.474V15.4422V14.0335V12.8061H32.0671H32.3142H32.3307V12.2953H31.3422H30.955H29.9994V12.8061H30.0159H30.263H30.8562V14.0335H30.8726ZM34.3984 13.6793C35.0574 12.5013 35.1398 12.3448 35.1563 12.3118V12.3036H34.868H34.5137V12.3118C34.4973 12.3365 34.3984 12.526 34.176 12.9379C34.0442 13.1685 33.9206 13.391 33.8382 13.5722H33.83C33.7476 13.391 33.6158 13.1521 33.4923 12.9296C33.2781 12.526 33.1792 12.3448 33.1627 12.3118V12.3036H32.8497H32.479V12.3118C32.4955 12.353 32.5861 12.5178 33.2451 13.6793L33.5252 14.1818V14.2395V15.4422V15.4504H33.8382H34.1348V15.4422V14.223V14.1406L34.3984 13.6793ZM38.0972 12.8061V12.2953H37.3311H36.5155V12.3283V13.6299V14.0335V15.4339V15.4504H36.8203H37.1169V15.4339V14.2806V14.1818H37.6606H37.9819H37.9983V13.9182V13.671H37.9819H37.6524H37.1169V12.7978H37.6194H38.0725H38.0972V12.8061ZM41.6971 13.8605C41.6971 14.7749 41.0052 15.4998 40.0578 15.4998C39.1352 15.4998 38.4267 14.7832 38.4267 13.8852C38.4267 12.9708 39.1434 12.2541 40.099 12.2541C41.0216 12.2541 41.6971 12.9544 41.6971 13.8605ZM41.0793 13.877C41.0793 13.2839 40.6509 12.8143 40.0743 12.8143C39.4812 12.8143 39.0528 13.2756 39.0528 13.8852C39.0528 14.4784 39.4812 14.9561 40.0825 14.9561C40.6674 14.9479 41.0793 14.4784 41.0793 13.877ZM42.1255 13.6299V12.3118V12.3036C42.1832 12.2953 42.282 12.2953 42.3726 12.2871C42.4632 12.2789 42.628 12.2789 42.7186 12.2789C42.9575 12.2789 43.1552 12.3036 43.3365 12.3612C43.5754 12.4271 43.9378 12.6496 43.9378 13.2097C43.9378 13.5969 43.7401 13.8358 43.6001 13.9347C43.5259 13.9923 43.4353 14.05 43.3694 14.0747V14.0829C43.3941 14.1241 43.4518 14.1983 44.1026 15.1127C44.1932 15.2362 44.3168 15.4175 44.3415 15.4422V15.4504H44.0037H43.7566H43.6495C43.4188 15.1044 43.147 14.6843 42.801 14.19H42.7021V14.3465V15.4422V15.4504H42.4138H42.1255V15.4422V14.0335V13.6299ZM43.3447 13.2509C43.3447 12.9544 43.147 12.7896 42.8504 12.7896C42.7845 12.7896 42.7351 12.7978 42.7021 12.7978V13.7534C42.7269 13.7617 42.768 13.7617 42.8092 13.7617C42.9246 13.7617 43.0317 13.7287 43.1058 13.6793C43.2211 13.6216 43.3447 13.4816 43.3447 13.2509ZM18.6971 19.5529C18.5324 20.7473 18.4994 20.9286 18.4912 20.9615V20.9698H18.7713H19.0761V20.9615C19.0761 20.9286 19.1008 20.7226 19.1832 20.0059C19.2161 19.7341 19.2408 19.487 19.2573 19.2316H19.2655C19.3644 19.4705 19.4797 19.6847 19.595 19.9071C19.7186 20.1295 19.9163 20.4755 20.1882 20.9203H20.2623C20.5259 20.4837 20.7319 20.1377 20.8472 19.9236C20.9708 19.7011 21.0696 19.5117 21.1932 19.2398H21.2014C21.2097 19.4869 21.2344 19.7258 21.2673 20.0059C21.3497 20.7309 21.3827 20.945 21.3827 20.9698V20.978H21.7039H22.0005V20.9698C22.0005 20.945 21.9675 20.7556 21.811 19.5611L21.5804 17.79H21.5062C20.4847 19.5117 20.3694 19.7094 20.2541 19.9483H20.2458C20.1223 19.7011 20.0152 19.5034 19.0184 17.79H18.9443L18.6971 19.5529ZM22.7254 17.8147H22.4206V17.8311V19.1492V19.5529V20.9615V20.9698H22.7337H23.0302V20.9615V19.5529V19.1492V17.8229V17.8064H22.7254V17.8147ZM25.7981 18.3748C25.8064 18.1524 25.8146 17.9959 25.8146 17.8311C25.7487 17.8147 25.6498 17.7982 25.5592 17.79C25.4769 17.7817 25.3945 17.7735 25.2791 17.7735C24.1506 17.7735 23.4586 18.449 23.4586 19.3881C23.4586 20.4014 24.2082 21.0274 25.1638 21.0274C25.2956 21.0274 25.4027 21.0192 25.5428 21.0027C25.6334 20.9945 25.7405 20.9615 25.8064 20.945C25.8064 20.8297 25.7899 20.5249 25.7899 20.4096H25.7817C25.7158 20.4343 25.6581 20.4425 25.6004 20.459C25.4851 20.4755 25.3698 20.4837 25.2297 20.4837C24.5625 20.4837 24.1176 20.0471 24.1176 19.3963C24.1176 18.7455 24.5789 18.3254 25.2956 18.3254C25.4192 18.3254 25.5263 18.3337 25.6169 18.3501C25.6828 18.3584 25.7322 18.3748 25.7817 18.3831H25.7981V18.3748ZM26.3171 19.1492V17.8311V17.8229C26.3748 17.8147 26.4736 17.8147 26.5642 17.8064C26.6549 17.7982 26.8196 17.7982 26.9102 17.7982C27.1491 17.7982 27.3468 17.8229 27.5281 17.8723C27.767 17.9382 28.1294 18.1607 28.1294 18.7208C28.1294 19.108 27.9317 19.3469 27.7917 19.4458C27.7175 19.5034 27.6269 19.5611 27.561 19.5858V19.594C27.5857 19.6352 27.6434 19.7094 28.2942 20.6238C28.3848 20.7473 28.5084 20.9286 28.5331 20.9533V20.9615H28.1953H27.9482H27.8411C27.6104 20.6155 27.3386 20.1954 26.9926 19.7011H26.8938V19.8659V20.9615V20.9698H26.6054H26.3171V20.9615V19.5529V19.1492ZM27.5363 18.7703C27.5363 18.4737 27.3386 18.3089 27.042 18.3089C26.9761 18.3089 26.9267 18.3172 26.8938 18.3172V19.2728C26.9185 19.2728 26.9597 19.2728 27.0009 19.2728C27.1162 19.2728 27.2233 19.2398 27.2974 19.1904C27.4127 19.141 27.5363 19.0009 27.5363 18.7703ZM31.8282 19.3799C31.8282 20.2943 31.1362 21.0192 30.1889 21.0192C29.2663 21.0192 28.5578 20.3025 28.5578 19.4046C28.5578 18.4902 29.2745 17.7735 30.2301 17.7735C31.1527 17.7735 31.8282 18.4737 31.8282 19.3799ZM31.2104 19.3963C31.2104 18.8032 30.782 18.3337 30.2054 18.3337C29.6122 18.3337 29.1839 18.795 29.1839 19.4046C29.1839 19.9977 29.6122 20.4673 30.2136 20.4673C30.815 20.4673 31.2104 19.9977 31.2104 19.3963ZM34.1348 20.0801C34.1348 20.4013 33.9453 20.665 33.7064 20.805C33.5005 20.9203 33.2534 20.978 32.792 20.978C32.6849 20.978 32.6026 20.9698 32.4872 20.9698C32.4461 20.9698 32.3637 20.9615 32.2731 20.9533V20.945V19.5529V19.1492V17.8394V17.8311C32.3307 17.8229 32.4131 17.8229 32.4955 17.8147C32.6026 17.8064 32.7838 17.8064 32.9074 17.8064C33.0886 17.8064 33.2945 17.8394 33.4511 17.8806C33.6323 17.9382 34.003 18.1195 34.003 18.6467C34.003 18.9597 33.8135 19.2316 33.517 19.3222V19.3304C33.8382 19.3881 34.1348 19.6599 34.1348 20.0801ZM33.4181 18.6961C33.4181 18.4407 33.2369 18.3089 32.9897 18.3089C32.9403 18.3089 32.8662 18.3089 32.8332 18.3172V19.0915C32.8744 19.0998 32.9156 19.0998 32.9403 19.0998C33.0062 19.0998 33.0721 19.0915 33.1463 19.0668C33.2781 19.0339 33.4181 18.9103 33.4181 18.6961ZM33.517 20.0142C33.517 19.8082 33.3769 19.6682 33.2204 19.6188C33.1463 19.594 33.0474 19.5858 32.9733 19.5858C32.9403 19.5858 32.8662 19.5858 32.825 19.5858V20.4508C32.825 20.4508 32.825 20.459 32.8332 20.459C32.8744 20.4673 32.9321 20.4673 32.9815 20.4673C33.0721 20.4673 33.1792 20.4508 33.2616 20.4096C33.3687 20.3602 33.517 20.2366 33.517 20.0142ZM34.9174 17.8147H34.6126V17.8311V19.1492V19.5529V20.9615V20.9698H34.9256H35.2222V20.9615V19.5529V19.1492V17.8229V17.8064H34.9174V17.8147ZM38.9375 19.3799C38.9375 20.2943 38.2455 21.0192 37.2981 21.0192C36.3755 21.0192 35.667 20.3025 35.667 19.4046C35.667 18.4902 36.3837 17.7735 37.3393 17.7735C38.2702 17.7735 38.9375 18.4737 38.9375 19.3799ZM38.3196 19.3963C38.3196 18.8032 37.8913 18.3337 37.3146 18.3337C36.7215 18.3337 36.2931 18.795 36.2931 19.4046C36.2931 19.9977 36.7215 20.4673 37.3228 20.4673C37.9242 20.4673 38.3196 19.9977 38.3196 19.3963ZM39.3823 19.5529V20.9533V20.9698H40.2473H40.9887V20.4508H40.9722H40.8569H40.6839H40.0001C39.9837 20.4508 39.9837 20.4425 39.9837 20.4261V19.5446V19.141V17.8229V17.8064H39.6871H39.3741V17.8229V19.141V19.5529H39.3823ZM44.3415 19.3799C44.3415 20.2943 43.6495 21.0192 42.7021 21.0192C41.7795 21.0192 41.0711 20.3025 41.0711 19.4046C41.0711 18.4902 41.7877 17.7735 42.7433 17.7735C43.6742 17.7735 44.3415 18.4737 44.3415 19.3799ZM43.7236 19.3963C43.7236 18.8032 43.2953 18.3337 42.7186 18.3337C42.1255 18.3337 41.6971 18.795 41.6971 19.4046C41.6971 19.9977 42.1255 20.4673 42.7269 20.4673C43.32 20.4673 43.7236 19.9977 43.7236 19.3963ZM46.3845 21.0192C46.7634 21.0192 47.0352 20.9698 47.2412 20.8874V20.5084V20.2201V19.5034V19.4952H46.9364H46.6398V19.5034V20.2531V20.4508C46.5574 20.4673 46.4586 20.4755 46.368 20.4755C45.7419 20.4755 45.3218 20.0389 45.3218 19.3799C45.3218 18.6961 45.8243 18.2925 46.5327 18.2925C46.714 18.2925 46.8622 18.3172 46.9776 18.3337C47.06 18.3501 47.1341 18.3666 47.1753 18.3831H47.1835C47.1918 18.1524 47.2 18.0206 47.2082 17.8311C47.1094 17.8064 47.0023 17.79 46.8952 17.7735C46.7716 17.757 46.6398 17.7488 46.4833 17.7488C45.4124 17.7488 44.671 18.416 44.671 19.3716C44.671 20.4013 45.4289 21.0192 46.3845 21.0192ZM49.3583 19.1986C50.0173 18.0206 50.0997 17.8641 50.1244 17.8311V17.8229H49.8361H49.4819V17.8311C49.4654 17.8559 49.3665 18.0453 49.1441 18.4572C49.0123 18.6879 48.8887 18.9103 48.8064 19.0915H48.7981C48.7158 18.9103 48.584 18.6714 48.4604 18.449C48.2462 18.0453 48.1473 17.8641 48.1309 17.8311V17.8229H47.8261H47.4554V17.8311C47.4718 17.8723 47.5625 18.0371 48.2215 19.1986L48.5016 19.7011V19.7588V20.9615V20.9698H48.8146H49.1112V20.9615V19.7423V19.6599L49.3583 19.1986Z" fill="black"/>
</svg>
