<svg width="80" height="24" viewBox="0 0 80 24" fill="none" xmlns="http://www.w3.org/2000/svg">
<path d="M0.945313 10.6588C1.04238 10.1807 1.12506 9.69892 1.23651 9.22078C2.51994 3.63049 7.67164 -0.262945 13.4165 0.013873C19.1542 0.290691 23.9212 4.75573 24.5719 10.4611C25.1651 15.6811 22.6522 20.4625 18.1044 22.7561C16.8534 23.3888 15.5268 23.7807 14.1247 23.9209C14.0061 23.9317 13.8839 23.9209 13.7832 24C13.1253 24 12.4674 24 11.8095 24C11.7125 23.9065 11.5866 23.9317 11.4716 23.9173C6.3846 23.3133 2.30063 19.6033 1.22571 14.6026C1.11786 14.0992 1.04236 13.5852 0.948889 13.0783C0.945294 12.2694 0.945313 11.4641 0.945313 10.6588ZM12.8773 5.05053C8.05271 5.23028 4.45406 7.36574 2.00943 11.4569C1.81889 11.7769 1.76857 12.0501 1.97349 12.4024C4.38217 16.5223 7.9053 18.8807 12.7442 18.895C17.673 18.9094 21.2645 16.5331 23.6983 12.3233C23.817 12.1184 23.8673 11.9458 23.7307 11.7085C21.3328 7.47359 17.709 5.25904 12.8773 5.05053Z" fill="#90979E"/>
<path d="M59.3577 11.3886C59.7496 11.5755 60.0875 11.7265 60.4183 11.8991C62.356 12.9093 63.1721 14.545 63.075 16.6805C62.9815 18.7153 62.0109 20.182 60.1666 21.0556C58.8185 21.6955 57.3733 21.9328 55.8957 21.9436C52.6961 21.9652 49.4929 21.9436 46.2934 21.958C45.9482 21.958 45.8691 21.8465 45.8691 21.523C45.8763 15.0915 45.8763 8.65993 45.8691 2.23199C45.8691 1.88687 45.9626 1.77542 46.3185 1.77901C49.3995 1.79339 52.4804 1.76463 55.565 1.79699C57.3014 1.81496 58.9479 2.19244 60.3284 3.34645C62.6472 5.28418 62.4746 9.21356 59.9977 10.9464C59.7999 11.0794 59.6058 11.216 59.3577 11.3886ZM53.3972 18.0717C54.0551 18.0717 54.7129 18.0825 55.3708 18.0682C56.0431 18.0538 56.7154 18.0322 57.3517 17.7662C58.2217 17.4067 58.6603 16.7847 58.6639 15.8788C58.6675 14.9548 58.2217 14.3005 57.3445 13.9446C56.7082 13.6858 56.0395 13.6283 55.3637 13.6247C53.7782 13.6139 52.1928 13.6283 50.611 13.6139C50.309 13.6103 50.194 13.6858 50.1976 14.0093C50.2156 15.2317 50.2156 16.454 50.1976 17.6763C50.194 18.0034 50.3162 18.0789 50.6146 18.0717C51.5457 18.061 52.4696 18.0717 53.3972 18.0717ZM52.8399 9.92538C53.3037 9.92538 53.7675 9.93617 54.2312 9.92179C54.979 9.90381 55.7304 9.86427 56.4206 9.53712C57.1144 9.20997 57.5027 8.67431 57.5279 7.89059C57.5566 7.07451 57.269 6.43459 56.5249 6.03914C55.9676 5.74435 55.3636 5.66166 54.7453 5.65447C53.354 5.64368 51.9663 5.65447 50.5751 5.64009C50.2695 5.63649 50.1976 5.74794 50.2012 6.02835C50.2119 7.18955 50.2192 8.35435 50.1976 9.51555C50.1904 9.86786 50.3234 9.93976 50.6434 9.92898C51.3732 9.9146 52.1065 9.92538 52.8399 9.92538Z" fill="#90979E"/>
<path d="M72.2226 1.49144C74.5594 1.5202 76.8998 2.25359 78.9957 3.75991C79.3013 3.97921 79.3157 4.12661 79.1 4.4214C78.478 5.28061 77.8812 6.15421 77.2953 7.03859C77.1083 7.319 76.9717 7.37652 76.6733 7.17161C75.6451 6.46338 74.5378 5.90615 73.3227 5.60417C72.3377 5.35971 71.3419 5.27702 70.364 5.64012C69.5839 5.92772 69.1884 6.45979 69.1597 7.14644C69.1273 7.99128 69.5479 8.52334 70.2885 8.85049C71.4821 9.38256 72.7547 9.66297 74.0094 10.0045C74.8902 10.2418 75.7422 10.5581 76.5798 10.9248C79.8513 12.3521 80.4769 15.2209 79.6176 18.0933C78.9993 20.1569 77.4283 21.2893 75.4402 21.843C72.6001 22.6339 69.8427 22.2384 67.1644 21.0952C66.0967 20.6422 65.1368 20.0167 64.2345 19.2905C63.9612 19.0712 63.9792 18.949 64.1949 18.7009C64.9031 17.892 65.597 17.0688 66.2728 16.2347C66.4957 15.9579 66.6395 15.9076 66.9379 16.1556C68.0668 17.0903 69.3358 17.7842 70.7738 18.1185C71.9243 18.3845 73.0854 18.4529 74.2287 18.0646C75.2604 17.7159 75.717 16.8926 75.4762 15.904C75.3431 15.3575 74.9441 15.0591 74.4803 14.8255C73.4845 14.3257 72.4096 14.0561 71.3419 13.7685C69.9865 13.4018 68.6276 13.0459 67.3837 12.3593C65.6905 11.4245 64.8888 9.98653 64.7521 8.07396C64.4969 4.43218 67.0673 2.07743 70.2921 1.60648C70.8565 1.52379 71.4173 1.46627 72.2226 1.49144Z" fill="#90979E"/>
<path d="M36.3162 22.296C30.0321 22.3751 25.5958 17.9747 25.488 11.8632C25.3981 6.83371 28.9824 2.46214 33.9507 1.62809C37.0964 1.09962 40.0911 1.51305 42.755 3.42201C43.1289 3.69164 43.4632 4.01519 43.8227 4.30999C43.9881 4.4466 44.0276 4.55445 43.8658 4.74139C43.039 5.68329 42.2157 6.63239 41.4068 7.58867C41.2163 7.81516 41.1048 7.7109 40.9467 7.57069C39.9005 6.65036 38.7393 5.93495 37.3552 5.64375C34.0658 4.9535 30.992 6.97032 30.3125 10.2885C29.8883 12.3593 30.2227 14.3078 31.5205 16.0154C33.2245 18.2516 36.3558 18.8843 38.9694 17.5757C39.7531 17.1838 40.447 16.6733 41.0869 16.0873C41.3062 15.8896 41.4284 15.904 41.6297 16.1089C42.3883 16.8926 43.1576 17.6656 43.9377 18.4241C44.1499 18.629 44.1391 18.7441 43.9377 18.9562C41.7915 21.2498 39.1312 22.3212 36.3162 22.296Z" fill="#90979E"/>
<path d="M19.1833 12.0034C19.2192 15.4259 16.3576 18.3127 12.8955 18.3414C9.26815 18.3702 6.46402 15.5876 6.42807 11.9135C6.39212 8.53415 9.27174 5.65093 12.7158 5.62217C16.3216 5.59341 19.1437 8.37597 19.1833 12.0034Z" fill="#90979E"/>
</svg>
