<svg width="142" height="37" viewBox="0 0 142 37" fill="none" xmlns="http://www.w3.org/2000/svg">
<path d="M52.9343 15.7486C53.2498 15.7486 53.5052 15.8593 53.7005 16.0807C53.9108 16.2863 54.016 16.5631 54.016 16.911V27.2061C54.016 27.5224 53.9108 27.7913 53.7005 28.0127C53.5052 28.2341 53.2498 28.3448 52.9343 28.3448C52.6188 28.3448 52.3634 28.242 52.1681 28.0364C51.9728 27.815 51.8752 27.5382 51.8752 27.2061V26.5894C51.4845 27.1429 50.9512 27.6173 50.2752 28.0127C49.5991 28.3922 48.8705 28.582 48.0892 28.582C47.0677 28.582 46.1362 28.3052 45.2949 27.7517C44.4686 27.1982 43.8151 26.4312 43.3343 25.4507C42.8686 24.4544 42.6357 23.3395 42.6357 22.106C42.6357 20.8725 42.8686 19.7655 43.3343 18.785C43.8151 17.7887 44.4686 17.0138 45.2949 16.4603C46.1212 15.9068 47.0301 15.63 48.0216 15.63C48.8179 15.63 49.554 15.804 50.2301 16.1519C50.9212 16.4998 51.4695 16.9426 51.8752 17.4803V16.911C51.8752 16.5789 51.9728 16.3021 52.1681 16.0807C52.3634 15.8593 52.6188 15.7486 52.9343 15.7486ZM48.3371 26.4945C49.0432 26.4945 49.6667 26.3047 50.2076 25.9252C50.7634 25.5456 51.1916 25.0237 51.4921 24.3595C51.8075 23.6953 51.9653 22.9441 51.9653 22.106C51.9653 21.2836 51.8075 20.5404 51.4921 19.8762C51.1916 19.212 50.7634 18.6901 50.2076 18.3105C49.6667 17.9152 49.0432 17.7175 48.3371 17.7175C47.631 17.7175 47 17.9073 46.4442 18.2868C45.9033 18.6664 45.4752 19.1882 45.1597 19.8524C44.8592 20.5166 44.709 21.2678 44.709 22.106C44.709 22.9441 44.8592 23.6953 45.1597 24.3595C45.4752 25.0237 45.9033 25.5456 46.4442 25.9252C47 26.3047 47.631 26.4945 48.3371 26.4945Z" fill="black"/>
<path d="M79.2582 15.9147C79.5737 15.9147 79.8291 16.0254 80.0244 16.2468C80.2347 16.4682 80.3399 16.737 80.3399 17.0533V23.3632C80.3399 25.0079 79.9042 26.2889 79.0328 27.2061C78.1765 28.1075 76.9596 28.5582 75.3821 28.5582C73.8197 28.5582 72.6103 28.1075 71.754 27.2061C70.8976 26.2889 70.4695 25.0079 70.4695 23.3632V17.0533C70.4695 16.737 70.5671 16.4682 70.7624 16.2468C70.9728 16.0254 71.2281 15.9147 71.5286 15.9147C71.8441 15.9147 72.0995 16.0254 72.2948 16.2468C72.5051 16.4682 72.6103 16.737 72.6103 17.0533V23.3632C72.6103 25.4349 73.5342 26.4708 75.3821 26.4708C76.2986 26.4708 76.9971 26.2098 77.4779 25.6879C77.9586 25.1661 78.199 24.3912 78.199 23.3632V17.0533C78.199 16.737 78.2967 16.4682 78.492 16.2468C78.7023 16.0254 78.9577 15.9147 79.2582 15.9147Z" fill="black"/>
<path d="M97.0852 15.7012C99.7143 15.7012 101.029 17.4249 101.029 20.8725V27.2061C101.029 27.5382 100.931 27.815 100.736 28.0364C100.541 28.242 100.285 28.3448 99.9697 28.3448C99.6542 28.3448 99.3913 28.2341 99.181 28.0127C98.9857 27.7913 98.888 27.5224 98.888 27.2061V20.8962C98.888 18.8245 98.0618 17.7887 96.4092 17.7887C95.8233 17.7887 95.2899 17.931 94.8092 18.2157C94.3435 18.4845 93.9754 18.8561 93.705 19.3306C93.4496 19.805 93.3219 20.3269 93.3219 20.8962V27.2061C93.3219 27.5224 93.2167 27.7913 93.0064 28.0127C92.8111 28.2341 92.5557 28.3448 92.2402 28.3448C91.9247 28.3448 91.6693 28.242 91.474 28.0364C91.2787 27.815 91.181 27.5382 91.181 27.2061V20.8725C91.181 19.9394 90.9932 19.1961 90.6176 18.6426C90.2421 18.0733 89.6186 17.7887 88.7472 17.7887C87.8608 17.7887 87.1247 18.0891 86.5388 18.6901C85.9679 19.2752 85.6825 20.0027 85.6825 20.8725V27.2061C85.6825 27.5224 85.5773 27.7913 85.367 28.0127C85.1716 28.2341 84.9163 28.3448 84.6008 28.3448C84.2853 28.3448 84.0299 28.242 83.8346 28.0364C83.6393 27.815 83.5416 27.5382 83.5416 27.2061V17.0533C83.5416 16.737 83.6393 16.4682 83.8346 16.2468C84.0449 16.0254 84.3003 15.9147 84.6008 15.9147C84.9163 15.9147 85.1716 16.0254 85.367 16.2468C85.5773 16.4682 85.6825 16.737 85.6825 17.0533V17.8836C86.0731 17.2668 86.5914 16.7528 87.2374 16.3417C87.8984 15.9147 88.612 15.7012 89.3782 15.7012C91.2411 15.7012 92.4505 16.571 93.0064 18.3105C93.3369 17.6463 93.8852 17.0454 94.6514 16.5077C95.4176 15.97 96.2289 15.7012 97.0852 15.7012Z" fill="black"/>
<path d="M113.806 15.7486C114.121 15.7486 114.377 15.8593 114.572 16.0807C114.782 16.2863 114.887 16.5631 114.887 16.911V27.2061C114.887 27.5224 114.782 27.7913 114.572 28.0127C114.377 28.2341 114.121 28.3448 113.806 28.3448C113.49 28.3448 113.235 28.242 113.039 28.0364C112.844 27.815 112.746 27.5382 112.746 27.2061V26.5894C112.356 27.1429 111.823 27.6173 111.146 28.0127C110.47 28.3922 109.742 28.582 108.961 28.582C107.939 28.582 107.007 28.3052 106.166 27.7517C105.34 27.1982 104.686 26.4312 104.206 25.4507C103.74 24.4544 103.507 23.3395 103.507 22.106C103.507 20.8725 103.74 19.7655 104.206 18.785C104.686 17.7887 105.34 17.0138 106.166 16.4603C106.992 15.9068 107.901 15.63 108.893 15.63C109.689 15.63 110.425 15.804 111.101 16.1519C111.792 16.4998 112.341 16.9426 112.746 17.4803V16.911C112.746 16.5789 112.844 16.3021 113.039 16.0807C113.235 15.8593 113.49 15.7486 113.806 15.7486ZM109.208 26.4945C109.915 26.4945 110.538 26.3047 111.079 25.9252C111.635 25.5456 112.063 25.0237 112.363 24.3595C112.679 23.6953 112.837 22.9441 112.837 22.106C112.837 21.2836 112.679 20.5404 112.363 19.8762C112.063 19.212 111.635 18.6901 111.079 18.3105C110.538 17.9152 109.915 17.7175 109.208 17.7175C108.502 17.7175 107.871 17.9073 107.315 18.2868C106.775 18.6664 106.346 19.1882 106.031 19.8524C105.731 20.5166 105.58 21.2678 105.58 22.106C105.58 22.9441 105.731 23.6953 106.031 24.3595C106.346 25.0237 106.775 25.5456 107.315 25.9252C107.871 26.3047 108.502 26.4945 109.208 26.4945Z" fill="black"/>
<path d="M140.918 15.7486C141.234 15.7486 141.489 15.8593 141.684 16.0807C141.895 16.2863 142 16.5631 142 16.911V27.2061C142 27.5224 141.895 27.7913 141.684 28.0127C141.489 28.2341 141.234 28.3448 140.918 28.3448C140.603 28.3448 140.347 28.242 140.152 28.0364C139.957 27.815 139.859 27.5382 139.859 27.2061V26.5894C139.468 27.1429 138.935 27.6173 138.259 28.0127C137.583 28.3922 136.854 28.582 136.073 28.582C135.052 28.582 134.12 28.3052 133.279 27.7517C132.453 27.1982 131.799 26.4312 131.318 25.4507C130.853 24.4544 130.62 23.3395 130.62 22.106C130.62 20.8725 130.853 19.7655 131.318 18.785C131.799 17.7887 132.453 17.0138 133.279 16.4603C134.105 15.9068 135.014 15.63 136.006 15.63C136.802 15.63 137.538 15.804 138.214 16.1519C138.905 16.4998 139.453 16.9426 139.859 17.4803V16.911C139.859 16.5789 139.957 16.3021 140.152 16.0807C140.347 15.8593 140.603 15.7486 140.918 15.7486ZM136.321 26.4945C137.027 26.4945 137.651 26.3047 138.191 25.9252C138.747 25.5456 139.175 25.0237 139.476 24.3595C139.791 23.6953 139.949 22.9441 139.949 22.106C139.949 21.2836 139.791 20.5404 139.476 19.8762C139.175 19.212 138.747 18.6901 138.191 18.3105C137.651 17.9152 137.027 17.7175 136.321 17.7175C135.615 17.7175 134.984 17.9073 134.428 18.2868C133.887 18.6664 133.459 19.1882 133.144 19.8524C132.843 20.5166 132.693 21.2678 132.693 22.106C132.693 22.9441 132.843 23.6953 133.144 24.3595C133.459 25.0237 133.887 25.5456 134.428 25.9252C134.984 26.3047 135.615 26.4945 136.321 26.4945Z" fill="black"/>
<path d="M66.1316 28.3386C66.4471 28.3386 66.7025 28.2279 66.8978 28.0065C67.1081 27.7851 67.2132 27.5163 67.2132 27.2V20.89C67.2132 19.2453 66.7776 17.9644 65.9062 17.0471C65.0499 16.1457 63.833 15.695 62.2555 15.695C60.6931 15.695 59.4837 16.1457 58.6274 17.0471C57.771 17.9644 57.3429 19.2453 57.3429 20.89V27.2C57.3429 27.5163 57.4405 27.7851 57.6358 28.0065C57.8461 28.2279 58.1015 28.3386 58.402 28.3386C58.7175 28.3386 58.9729 28.2279 59.1682 28.0065C59.3785 27.7851 59.4837 27.5163 59.4837 27.2V20.89C59.4837 18.8184 60.4076 17.7825 62.2555 17.7825C63.1719 17.7825 63.8705 18.0435 64.3513 18.5653C64.832 19.0872 65.0724 19.8621 65.0724 20.89V27.2C65.0724 27.5163 65.1701 27.7851 65.3654 28.0065C65.5757 28.2279 65.8311 28.3386 66.1316 28.3386Z" fill="black"/>
<path d="M127.019 28.3386C127.335 28.3386 127.59 28.2279 127.785 28.0065C127.996 27.7851 128.101 27.5163 128.101 27.2V20.89C128.101 19.2453 127.665 17.9644 126.794 17.0471C125.937 16.1457 124.72 15.695 123.143 15.695C121.581 15.695 120.371 16.1457 119.515 17.0471C118.658 17.9644 118.23 19.2453 118.23 20.89V27.2C118.23 27.5163 118.328 27.7851 118.523 28.0065C118.734 28.2279 118.989 28.3386 119.289 28.3386C119.605 28.3386 119.86 28.2279 120.056 28.0065C120.266 27.7851 120.371 27.5163 120.371 27.2V20.89C120.371 18.8184 121.295 17.7825 123.143 17.7825C124.059 17.7825 124.758 18.0435 125.239 18.5653C125.719 19.0872 125.96 19.8621 125.96 20.89V27.2C125.96 27.5163 126.058 27.7851 126.253 28.0065C126.463 28.2279 126.719 28.3386 127.019 28.3386Z" fill="black"/>
<circle cx="6.96716" cy="18.8356" r="2.45446" fill="#4B5AFF"/>
<circle cx="30.6468" cy="18.8356" r="2.45446" fill="#4B5AFF"/>
<path d="M12.7509 7.31862C12.7541 6.55341 13.3025 5.87463 14.1155 5.62959C15.4199 5.2365 16.7708 6.10416 16.7657 7.33175L16.6964 24.1697C16.6933 24.935 16.1449 25.6137 15.3319 25.8588C14.0275 26.2519 12.6766 25.3842 12.6817 24.1566L12.7509 7.31862Z" fill="#4B5AFF"/>
<path d="M20.3604 18.1659C20.3635 17.4006 20.9119 16.7219 21.725 16.4768C23.0293 16.0837 24.3802 16.9514 24.3752 18.179L24.3058 28.9908C24.3027 29.756 23.7543 30.4347 22.9412 30.6798C21.6369 31.0729 20.286 30.2052 20.291 28.9776L20.3604 18.1659Z" fill="#4B5AFF"/>
</svg>
