<svg width="46" height="27" viewBox="0 0 46 27" fill="none" xmlns="http://www.w3.org/2000/svg">
<path d="M22.7602 3.90532C22.0566 2.16729 20.3426 0.290228 17.1323 0.548085C13.0429 0.987913 11.7685 4.8652 12.3866 7.17826C10.7578 6.08713 7.98838 5.60736 5.57107 7.65594C2.44991 10.7513 4.11939 14.9374 5.83518 15.9415C3.94422 15.7683 0.955602 17.0325 0.294456 20.3393C-0.408872 24.445 2.75466 26.8385 5.83518 26.8385H39.9946C43.5568 26.8385 45.5331 23.7896 45.3114 20.9143C44.962 17.1617 41.4911 15.7219 39.5977 16.0304C41.1796 15.1572 43.2921 11.0557 40.0798 7.83135C37.5298 5.43169 34.2791 6.30485 33.1361 7.35144C33.7523 5.34682 32.7419 1.20302 28.6061 0.547638C28.3201 0.515972 28.0449 0.499023 27.7826 0.499023C24.6254 0.499469 23.2057 2.78278 22.7602 3.90532Z" fill="white"/>
<path d="M6.13882 8.3099C4.33539 9.92509 3.67901 13.5849 6.93006 15.7243L19.8999 24.5279L13.6113 10.2739C12.2935 6.91026 8.68842 6.17676 6.13882 8.3099Z" fill="#F37021"/>
<path d="M17.3066 1.37997C15.1984 1.42247 12.0326 3.9063 13.4414 7.69916L19.9456 22.8753L22.2312 6.91291C22.7601 2.94661 19.7262 1.11568 17.3066 1.37997Z" fill="#CC004C"/>
<path d="M23.2446 6.30406H24.4745C24.4745 6.30406 25.1312 6.30406 25.2206 6.6106C24.7366 7.00162 23.4193 7.05062 23.5942 9.13928L25.6617 22.8731L32.1215 7.65712C33.4428 4.25968 30.6694 1.4223 28.2092 1.33558C28.0943 1.32743 27.9789 1.3208 27.8595 1.3208C25.6514 1.32074 23.1209 2.90847 23.2446 6.30406Z" fill="#6460AA"/>
<path d="M31.8619 10.4038L25.752 24.4868L38.718 15.6369C41.7069 13.5395 41.2249 10.1863 39.5518 8.52875C38.8504 7.74862 37.5625 7.146 36.1983 7.146C34.5866 7.14568 32.8617 7.99144 31.8619 10.4038Z" fill="#0089D0"/>
<path d="M37.2626 17.6405L25.0859 26.0553H40.079C43.155 26.0553 45.1317 22.9175 44.253 20.0381C43.6644 18.2282 41.9231 16.8075 39.902 16.8054C39.0513 16.8057 38.1491 17.0593 37.2626 17.6405Z" fill="#0DB14B"/>
<path d="M5.78927 26.0551H20.5611L8.3813 17.6403C5.56747 15.8517 2.40355 16.8983 1.26133 19.8665C0.293117 23.2642 2.71056 26.0551 5.78927 26.0551Z" fill="#FCB711"/>
</svg>
