<svg width="139" height="26" viewBox="0 0 139 26" fill="none" xmlns="http://www.w3.org/2000/svg">
<path d="M0 0.0866699H10.1466C12.0793 0.0866699 13.5288 0.569841 14.6025 1.37513C15.7836 2.34147 16.4278 3.73729 16.4278 5.45523C16.4278 7.4416 15.6225 8.67637 14.012 9.42797V9.53534C16.1594 10.2333 17.3941 12.1659 17.3941 14.4744C17.3941 16.6755 16.5352 18.3935 15.1393 19.4672C13.9583 20.3261 12.4551 20.7019 10.415 20.7019H0V0.0866699ZM9.12656 8.13951C10.2003 8.13951 11.0056 7.54897 11.0056 6.3142C11.0056 5.13312 10.2003 4.54258 9.07287 4.54258H5.58331V8.08583H9.12656V8.13951ZM9.60972 16.1387C10.8445 16.1387 11.7571 15.3871 11.7571 14.0449C11.7571 12.5954 10.7908 11.9512 9.60972 11.9512H5.63699V16.1924H9.60972V16.1387Z" fill="black"/>
<path d="M18.3066 0.0864258H23.6215V20.7554H18.3066V0.0864258Z" fill="black"/>
<path d="M24.6953 13.4004C24.6953 8.72973 27.7017 5.61597 32.3724 5.61597C37.043 5.61597 39.9957 8.78342 39.9957 13.4004C39.9957 18.071 37.043 21.1848 32.3724 21.1848C27.7017 21.1848 24.6953 18.071 24.6953 13.4004ZM34.6808 13.4004C34.6808 10.8235 33.8756 9.2129 32.265 9.2129C30.6544 9.2129 29.9028 10.8235 29.9028 13.4004C29.9028 15.9773 30.6544 17.6415 32.265 17.6415C33.8756 17.5879 34.6808 15.9773 34.6808 13.4004Z" fill="black"/>
<path d="M40.5859 13.4004C40.5859 8.72973 43.5923 5.61597 48.263 5.61597C52.9336 5.61597 55.8327 8.72973 55.8327 13.4004C55.8327 18.071 52.8799 21.1848 48.2093 21.1848C43.5923 21.1848 40.5859 18.071 40.5859 13.4004ZM50.5715 13.4004C50.5715 10.8235 49.7662 9.2129 48.1556 9.2129C46.545 9.2129 45.7934 10.8235 45.7934 13.4004C45.7934 15.9773 46.545 17.6415 48.1556 17.6415C49.7662 17.5879 50.5715 15.9773 50.5715 13.4004Z" fill="black"/>
<path d="M56.9062 5.99174H61.8453V8.19285H61.9527C62.919 6.47491 64.2612 5.56226 66.4086 5.56226C68.2876 5.56226 69.6834 6.47491 70.3813 8.08548H70.4887C71.6698 6.1528 73.2267 5.56226 75.052 5.56226C78.4879 5.56226 79.9374 8.08548 79.9374 11.4677V20.7016H74.7836V12.3803C74.7836 10.8771 74.3004 9.91079 73.0119 9.91079C71.7235 9.91079 71.0793 11.0919 71.0793 12.7024V20.7016H65.9254V12.3803C65.9254 10.8771 65.4423 9.91079 64.1538 9.91079C62.8654 9.91079 62.2211 11.0919 62.2211 12.7024V20.7016H56.9062V5.99174Z" fill="black"/>
<path d="M86.4342 18.769H86.3805V20.7017H81.4414V0.0864258H86.5952V7.49504H86.7026C87.6689 6.20659 89.0111 5.50867 90.8901 5.50867C94.5944 5.50867 96.7418 8.83718 96.7418 13.2931C96.7418 18.2859 94.4333 21.1849 90.568 21.1849C88.9574 21.1849 87.2931 20.4333 86.4342 18.769ZM91.4269 13.2394C91.4269 10.8772 90.568 9.32035 89.0111 9.32035C87.4005 9.32035 86.4342 10.8772 86.4342 13.2394C86.4342 15.6016 87.4542 17.1585 89.0111 17.1585C90.568 17.1585 91.4269 15.6553 91.4269 13.2394Z" fill="black"/>
<path d="M97.332 13.3467C97.332 8.72971 100.392 5.56226 104.794 5.56226C106.995 5.56226 108.66 6.26017 109.948 7.49494C111.666 9.15919 112.418 11.7361 112.364 14.7425H102.486C102.701 16.5678 103.56 17.5341 105.116 17.5341C106.029 17.5341 106.834 17.1047 107.157 16.1383H112.149C111.29 19.5205 108.66 21.1848 104.955 21.1848C100.392 21.1311 97.332 18.0173 97.332 13.3467ZM102.486 11.7898H107.21C107.103 10.0182 106.136 9.10551 104.902 9.10551C103.452 9.05182 102.647 10.0718 102.486 11.7898Z" fill="black"/>
<path d="M118.216 8.51502H118.324C119.398 6.47496 120.793 5.66968 122.565 5.66968C122.994 5.66968 123.263 5.72336 123.424 5.83073V10.3403H123.317C120.256 9.80347 118.485 11.253 118.485 14.5815V20.7553H113.277V5.99179H118.216V8.51502Z" fill="black"/>
<path d="M123.962 20.7555H128.955C129.169 21.3997 129.814 21.9903 131.048 21.9903C132.713 21.9903 133.303 20.9702 133.303 19.4134V18.3397H133.196C132.39 19.306 131.263 20.0039 129.652 20.0039C126.485 20.0039 123.693 17.6417 123.693 13.0248C123.693 8.78361 125.948 5.50879 129.384 5.50879C131.37 5.50879 132.551 6.31407 133.357 7.54884H133.464V5.93827H138.403V18.7155C138.403 21.0776 137.598 22.9029 136.363 23.9766C135.075 25.104 133.249 25.5872 131.156 25.5872C127.183 25.6409 124.445 24.0303 123.962 20.7555ZM133.518 12.81C133.518 10.9847 132.659 9.48153 131.156 9.48153C129.706 9.48153 128.793 10.77 128.793 12.81C128.793 14.7964 129.706 16.1922 131.156 16.1922C132.605 16.1922 133.518 14.7427 133.518 12.81Z" fill="black"/>
</svg>
