<svg width="411" height="37" viewBox="0 0 411 37" fill="none" xmlns="http://www.w3.org/2000/svg">
<path d="M326.996 0.932935C327.197 0.932935 327.439 0.893164 327.64 0.893164C333.068 0.893164 338.497 0.853393 343.926 0.893164C347.344 0.932935 350.159 2.16582 351.647 5.38725C353.054 8.44959 352.893 11.5517 351.285 14.5345C350.4 16.2049 349.274 17.0003 346.419 18.1934C346.459 18.2332 346.459 18.3127 346.499 18.3127C349.797 19.1081 350.641 20.4603 351.003 24.159C351.285 27.2611 351.486 30.3234 351.767 33.4256C351.807 33.9823 351.767 34.8175 352.531 34.7778C352.893 34.738 353.336 33.9823 353.456 33.5051C353.657 32.5904 353.697 31.5961 353.778 30.6416C354.301 30.4825 354.622 30.5621 354.582 31.2382C354.502 32.0734 354.542 32.9483 354.421 33.7835C354.18 35.4539 353.215 36.3686 351.687 36.6072C349.636 36.8856 348.027 36.2095 347.465 34.4994C346.942 32.7892 346.66 30.9598 346.499 29.1701C346.258 26.5055 346.298 23.8408 346.057 21.216C345.896 19.3467 345.333 18.9093 343.443 18.9093C342.8 18.9093 342.116 18.9093 341.352 18.9093C341.352 19.3467 341.352 19.6649 341.352 20.0228C341.352 24.2385 341.352 28.494 341.352 32.7097C341.352 34.3801 341.593 35.3743 343.524 35.6527C343.765 35.6925 343.926 36.0107 344.127 36.1697C344.087 36.2493 344.006 36.3288 343.966 36.4084C340.669 36.4084 337.411 36.4084 334.114 36.4084C334.074 36.3288 333.993 36.289 333.953 36.2095C334.194 36.0107 334.395 35.6527 334.677 35.5732C336.486 34.9766 336.728 34.6982 336.728 32.829C336.728 23.4431 336.728 14.0175 336.728 4.63161C336.728 2.2056 334.637 1.01248 332.505 2.2056C332.063 2.48399 331.621 3.08055 331.5 3.59757C331.299 4.43275 331.259 5.34748 331.259 6.22243C331.259 13.4209 331.299 20.6194 331.219 27.8577C331.219 29.369 331.018 30.92 330.656 32.3915C329.932 35.1357 327.961 36.6072 325.106 36.6868C323.98 36.7265 322.814 36.647 321.728 36.4084C318.833 35.6925 316.943 33.3858 316.581 30.2041C316.501 29.3292 316.42 28.4542 316.42 27.5793C316.42 20.1422 316.42 12.6653 316.42 5.22817C316.42 4.91 316.42 4.59184 316.42 4.27367C316.38 2.68284 316.179 2.40445 314.651 1.96697C314.209 1.84766 313.726 1.80789 314.008 1.05225C315.576 1.05225 317.184 1.05225 318.793 1.05225C320.361 1.05225 321.889 1.05225 323.458 1.05225C323.699 1.05225 323.98 1.2511 324.222 1.37041C323.98 1.56927 323.779 1.80789 323.498 1.9272C323.136 2.08628 322.774 2.12605 322.412 2.2056C321.728 2.40445 321.366 2.84193 321.286 3.5578C321.246 3.9555 321.246 4.35321 321.246 4.79069C321.246 12.6255 321.206 20.4603 321.246 28.2951C321.246 29.6871 321.407 31.1189 321.728 32.4711C322.131 34.1812 323.256 34.9368 324.945 35.0164C327.157 35.1357 328.484 34.4596 329.087 32.7892C329.409 31.8745 329.69 30.8405 329.69 29.8462C329.731 21.4944 329.731 13.1028 329.69 4.75092C329.69 2.84193 329.047 2.04651 327.398 1.88743C327.157 1.84766 326.996 1.56927 326.755 1.37041C326.876 1.09202 326.916 1.01248 326.996 0.932935ZM341.433 17.7559C342.156 17.7559 342.8 17.7559 343.443 17.7559C345.575 17.7162 346.62 16.9605 347.062 14.8924C347.706 11.7903 347.706 8.68821 347.062 5.5861C346.419 2.40445 344.77 1.41018 341.433 2.04651C341.433 7.25647 341.433 12.4267 341.433 17.7559Z" fill="#90979E"/>
<path d="M404.599 1.31148C404.36 1.5114 404.201 1.79128 403.922 1.91123C403.603 2.07116 403.204 2.11115 402.845 2.19111C402.128 2.39103 401.729 2.87083 401.69 3.6305C401.65 3.99035 401.65 4.39018 401.65 4.75003C401.65 14.7058 401.65 24.6616 401.65 34.6174C401.65 34.9373 401.65 35.2171 401.65 35.537C404.838 36.1767 407.11 35.1772 408.226 32.2984C408.984 30.2992 409.303 28.1002 409.781 26.021C409.821 25.8211 409.781 25.6212 409.861 25.4613C409.94 25.2614 410.14 25.1414 410.299 24.9415C410.458 25.1414 410.698 25.3413 410.698 25.5013C410.737 27.5804 410.698 29.6595 410.737 31.7386C410.737 33.3379 410.737 34.9373 410.737 36.6166C401.929 36.6166 393.16 36.6166 384.072 36.6166C384.431 36.2567 384.59 36.0568 384.79 35.8969C384.83 35.8569 384.909 35.8569 384.989 35.8569C387.141 35.497 387.779 35.2971 387.221 32.4583C386.902 30.859 386.543 29.2597 386.264 27.6603C386.185 27.1406 385.906 27.0206 385.427 27.0206C383.753 27.0206 382.079 27.0206 380.445 27.0606C380.166 27.0606 379.728 27.3005 379.688 27.5004C379.329 29.5395 378.931 31.5787 378.731 33.6578C378.612 35.0572 379.09 35.537 380.485 35.8569C380.884 35.9368 381.561 35.8569 381.282 36.6965C378.97 36.6965 376.619 36.6965 373.948 36.6965C374.267 36.2967 374.427 35.9368 374.626 35.8969C376.101 35.577 376.698 34.5374 376.977 33.258C377.735 29.7395 378.492 26.181 379.249 22.6625C380.724 15.6654 382.159 8.70836 383.634 1.71132C383.674 1.47142 383.753 1.23152 383.833 0.99162C385.348 0.751721 385.348 0.751721 385.667 2.31106C387.859 12.6267 390.051 22.9024 392.243 33.218C392.323 33.5379 392.403 33.8177 392.482 34.1376C392.961 35.657 393.598 36.0568 395.233 35.8569C396.349 35.7369 396.907 35.0172 396.946 33.5379C396.986 29.3796 396.946 25.2214 396.946 21.0631C396.946 15.7454 396.946 10.4276 396.946 5.10988C396.946 3.23067 396.787 2.31106 394.794 1.9912C394.595 1.95121 394.475 1.63135 394.316 1.43143C394.475 1.35147 394.635 1.15155 394.834 1.15155C398.023 1.15155 401.251 1.15155 404.44 1.15155C404.48 1.15155 404.52 1.23152 404.599 1.31148ZM382.916 11.7071C382.837 11.7071 382.757 11.7071 382.677 11.7071C381.76 16.3451 380.844 21.0231 379.927 25.7012C381.92 25.7012 383.833 25.7012 385.786 25.7012C384.79 20.9832 383.873 16.3451 382.916 11.7071Z" fill="#90979E"/>
<path d="M122.906 35.5791C126.095 36.2176 128.407 35.2598 129.483 32.3465C130.28 30.2313 130.599 27.9166 131.077 25.7216C131.197 25.2826 131.197 24.8037 131.914 25.123C131.914 28.635 131.914 32.1868 131.914 35.7387C131.914 36.058 131.914 36.3373 131.914 36.6965C123.105 36.6965 114.337 36.6965 105.289 36.6965C105.568 36.3373 105.727 36.1378 105.927 35.9383C106.006 35.8584 106.166 35.8584 106.285 35.8584C108.478 35.3795 108.796 34.9804 108.358 32.7456C108.039 31.0295 107.68 29.3533 107.282 27.6771C107.242 27.4377 106.843 27.0785 106.564 27.0785C104.85 27.0386 103.097 27.0386 101.383 27.0785C101.144 27.0785 100.785 27.3978 100.705 27.6372C100.346 29.3533 100.028 31.0694 99.7884 32.8254C99.5094 34.8208 99.908 35.3795 101.861 35.9383C102.1 36.0181 102.299 36.2974 102.499 36.497C102.459 36.5768 102.379 36.6566 102.339 36.6965C99.9877 36.6965 97.6361 36.6965 95.2844 36.6965C95.2446 36.6167 95.1649 36.5768 95.125 36.497C95.3243 36.2974 95.5236 35.9383 95.7627 35.8584C97.1578 35.5791 97.7556 34.6213 98.0346 33.3841C98.7521 30.1515 99.4696 26.9588 100.147 23.7262C101.741 16.1834 103.336 8.60079 104.89 1.05804C106.365 0.698861 106.445 0.778678 106.724 2.13557C108.916 12.432 111.108 22.6886 113.3 32.985C113.38 33.3442 113.46 33.7034 113.579 34.0625C114.098 35.619 115.333 36.2974 116.808 35.619C117.326 35.3795 117.685 34.7011 117.964 34.1823C118.123 33.863 118.043 33.3841 118.043 32.985C118.043 23.5666 118.043 14.188 118.043 4.76955C118.043 2.73421 117.924 2.61448 116.011 1.97594C115.772 1.89612 115.612 1.61676 115.413 1.41722C115.652 1.29749 115.891 1.13786 116.09 1.13786C119.04 1.13786 121.989 1.09795 124.979 1.13786C125.218 1.13786 125.417 1.3374 125.656 1.45713C125.457 1.65667 125.298 1.89612 125.098 2.01585C124.859 2.13557 124.54 2.17548 124.261 2.21539C123.305 2.37503 122.866 2.97366 122.787 3.89156C122.747 4.17092 122.747 4.45028 122.747 4.72964C122.747 14.7068 122.747 24.6441 122.747 34.6213C122.906 34.9804 122.906 35.2997 122.906 35.5791ZM107.003 25.7615C106.046 21.0124 105.09 16.3431 104.133 11.6738C104.053 11.6738 104.013 11.6738 103.934 11.6738C103.017 16.3431 102.1 21.0124 101.144 25.7615C103.137 25.7615 105.05 25.7615 107.003 25.7615Z" fill="#90979E"/>
<path d="M69.0816 0.945393C72.2587 0.945393 75.4359 0.945393 78.5729 0.945393C78.6533 1.02528 78.6936 1.10517 78.774 1.14512C78.5729 1.34485 78.412 1.66441 78.1707 1.7443C76.8838 2.1837 76.4414 2.58315 76.6022 3.9413C76.8838 6.09835 77.3262 8.29534 77.7685 10.4125C78.7338 15.2858 79.7392 20.1591 80.7446 24.9925C80.7849 25.2721 80.8653 25.5118 81.1066 25.7515C81.9512 21.2776 82.6751 16.8037 83.6805 12.3698C84.2838 9.69343 83.3186 7.29671 82.9566 4.78015C82.8762 4.30081 82.7555 3.78152 82.6349 3.30217C82.4338 2.54321 82.0718 1.90408 81.187 1.7443C80.9859 1.70436 80.8251 1.42474 80.6642 1.22501C80.9055 1.10517 81.1066 0.905447 81.3479 0.905447C84.0827 0.865502 86.8175 0.865502 89.5523 0.905447C89.7936 0.905447 89.9947 1.10517 90.236 1.22501C90.0349 1.42474 89.8338 1.70436 89.6327 1.7443C88.024 2.14375 87.5414 2.66304 87.8229 4.34075C88.5066 8.29534 89.311 12.2499 90.0751 16.2045C90.6784 19.4002 91.3218 22.5558 91.9653 25.8314C92.086 25.6316 92.2066 25.5518 92.2469 25.4319C93.574 18.8809 94.9012 12.2899 96.1882 5.73884C96.2686 5.29944 96.3088 4.8201 96.3088 4.34075C96.349 2.50326 96.1077 2.1837 94.2979 1.7443C94.0566 1.70436 93.8958 1.46468 93.6947 1.3049C93.8556 1.18507 94.0566 0.945393 94.2175 0.945393C96.3893 0.905447 98.6012 0.945393 100.773 0.945393C100.813 1.02528 100.894 1.10517 100.934 1.18506C100.773 1.38479 100.612 1.7443 100.371 1.78425C98.8425 1.98397 98.3599 3.10244 98.0784 4.34075C97.274 7.97578 96.4697 11.6508 95.7056 15.2858C94.2175 22.2762 92.7697 29.2267 91.2816 36.2172C91.2414 36.377 91.161 36.4968 91.1208 36.6965C90.7186 36.6965 90.3164 36.6965 89.7936 36.6965C88.1849 29.0669 86.5762 21.3974 85.0077 13.7679C84.9675 13.7679 84.887 13.7679 84.8468 13.7279C83.399 21.3575 81.9512 29.027 80.5033 36.6965C79.9001 36.6965 79.3772 36.6965 78.774 36.6965C78.2914 34.3797 77.7685 32.0229 77.2859 29.7061C75.5164 21.4374 73.7468 13.1687 71.9772 4.89999C71.8968 4.50053 71.7761 4.10108 71.6555 3.70162C71.374 2.70299 70.8109 1.98397 69.6848 1.7443C69.4435 1.70436 69.2022 1.38479 69.0011 1.18506C68.9609 1.10517 69.0011 1.02528 69.0816 0.945393Z" fill="#90979E"/>
<path d="M41.7493 36.6965C38.4912 36.6965 35.2725 36.6965 32.0144 36.6965C31.9752 36.6161 31.8967 36.5356 31.8574 36.4954C32.0537 36.2942 32.25 36.0126 32.4855 35.9322C34.4089 35.2885 34.6052 35.0472 34.6052 32.9955C34.6052 28.6509 34.6052 24.3062 34.6052 19.9616C34.6052 19.6397 34.5659 19.3581 34.5659 18.9961C32.0144 18.9961 29.5022 18.9961 27.0292 18.9961C26.99 19.157 26.9507 19.2375 26.9507 19.3179C26.9507 24.1453 26.9507 28.9325 26.9507 33.7599C26.9507 35.0069 27.461 35.4897 28.7171 35.8115C29.1489 35.9322 29.8162 35.8517 29.5022 36.6965C26.2442 36.6965 23.0254 36.6965 19.7674 36.6965C19.7281 36.6161 19.6496 36.5356 19.6104 36.4954C19.8459 36.2942 20.0421 35.9322 20.2777 35.8517C22.0441 35.2483 22.2796 34.9667 22.2796 33.076C22.2796 23.5821 22.2796 14.048 22.2796 4.55414C22.2796 2.58295 22.1226 2.38181 20.2384 1.73816C20.0421 1.69793 19.8851 1.41634 19.7281 1.25542C19.8851 1.13474 20.0814 0.893368 20.2384 0.893368C23.3394 0.853139 26.4404 0.893368 29.5022 0.893368C29.5807 0.973824 29.62 1.05428 29.6985 1.13474C29.5022 1.33588 29.3452 1.6577 29.1097 1.73816C27.0292 2.46227 26.9507 2.5025 26.9507 4.75528C26.9507 8.69765 26.9507 12.6802 26.9507 16.6226C26.9507 16.9444 26.9507 17.3065 26.9507 17.7088C29.5415 17.7088 32.0144 17.7088 34.6052 17.7088C34.6052 17.3467 34.6052 16.9847 34.6052 16.6628C34.6052 12.5998 34.6052 8.53674 34.6052 4.51391C34.6052 2.66341 34.3696 2.34158 32.6425 1.81862C32.564 1.81862 32.4855 1.81862 32.4462 1.77839C32.2499 1.61748 32.0929 1.41634 31.8967 1.25542C32.0929 1.13474 32.3285 0.933596 32.5247 0.933596C34.6444 0.893368 36.8033 0.933596 38.923 0.933596C39.8651 0.933596 40.7679 0.933596 41.71 0.933596C41.7493 1.01405 41.8278 1.09451 41.867 1.17497C41.6708 1.37611 41.5138 1.69793 41.239 1.77839C39.2371 2.5025 39.1586 2.58295 39.1586 4.75528C39.1586 14.1687 39.1586 23.5821 39.1586 32.9955C39.1586 35.0472 39.3156 35.2483 41.1997 35.9322C41.4745 36.0126 41.6708 36.3345 41.867 36.5356C41.9063 36.5356 41.8278 36.6161 41.7493 36.6965Z" fill="#90979E"/>
<path d="M205.987 18.3026C206.184 18.3824 206.302 18.4223 206.42 18.4622C209.369 19.38 210.273 20.4972 210.549 23.6096C210.824 26.8017 211.06 29.9939 211.296 33.186C211.335 33.5053 211.296 33.8245 211.453 34.1038C211.61 34.423 211.886 34.7023 212.122 34.9816C212.397 34.7023 212.79 34.4629 212.869 34.1437C213.065 33.3855 213.105 32.5875 213.223 31.8294C213.262 31.5102 213.223 31.151 213.223 30.752C213.498 30.7121 213.734 30.6722 214.206 30.6323C214.049 31.989 214.009 33.2658 213.773 34.5028C213.498 35.8595 212.515 36.5378 211.178 36.6575C209.566 36.8171 207.993 36.5378 207.324 34.8619C206.773 33.4254 206.459 31.8693 206.302 30.3131C206.066 27.52 206.026 24.7268 205.908 21.9337C205.908 21.5347 205.83 21.1357 205.751 20.7366C205.476 19.3401 205.043 18.9411 203.588 18.9012C202.841 18.8613 202.094 18.9012 201.189 18.9012C201.189 19.2204 201.189 19.5396 201.189 19.8189C201.189 24.1682 201.189 28.5574 201.189 32.9067C201.189 34.822 201.386 35.0614 203.195 35.6201C203.47 35.6999 203.667 35.9792 203.903 36.1388C203.863 36.2186 203.824 36.2984 203.745 36.3782C200.521 36.3782 197.257 36.3782 194.032 36.3782C193.993 36.2984 193.914 36.2186 193.875 36.1787C194.111 35.9792 194.347 35.66 194.622 35.5802C196.431 34.9816 196.588 34.7821 196.588 32.8269C196.588 23.3702 196.588 13.9134 196.588 4.45668C196.588 2.58129 196.392 2.34188 194.661 1.78326C194.426 1.70345 194.229 1.38424 193.993 1.18473C194.268 1.10492 194.504 0.905415 194.779 0.905415C198.161 0.905415 201.543 0.785709 204.925 1.02512C209.015 1.30443 211.886 4.45668 212.043 8.60648C212.082 9.96314 211.964 11.3597 211.65 12.7164C211.06 15.1504 209.487 16.8263 207.206 17.8238C206.813 17.9834 206.459 18.143 205.987 18.3026ZM201.268 1.98277C201.268 7.32962 201.268 12.5568 201.268 17.8238C201.897 17.8238 202.448 17.8238 202.998 17.8238C205.358 17.8238 206.498 16.9859 206.773 14.5918C207.049 12.3573 207.088 10.0828 207.009 7.84834C206.97 6.57148 206.616 5.25472 206.184 4.01776C205.79 2.86061 204.925 2.06257 203.628 1.98277C202.88 1.94286 202.094 1.98277 201.268 1.98277Z" fill="#90979E"/>
<path d="M295.529 19.6194C295.57 14.6329 295.894 10.517 297.596 6.63867C298.204 5.29311 299.014 3.94755 300.068 2.87902C302.661 0.187895 306.673 0.22747 309.348 2.87902C311.05 4.54118 311.982 6.63867 312.59 8.85488C314.413 15.8597 314.413 22.825 312.306 29.7902C311.739 31.6107 310.888 33.2728 309.51 34.6184C306.714 37.4282 302.58 37.3887 299.825 34.4997C297.839 32.4022 296.988 29.7902 296.38 27.0991C296.137 26.0701 295.935 25.0412 295.853 23.9726C295.691 22.3105 295.61 20.5692 295.529 19.6194ZM308.943 18.7091C308.781 18.7091 308.618 18.7091 308.497 18.7091C308.497 15.8597 308.659 13.0499 308.456 10.2004C308.294 8.06338 307.808 5.92631 307.281 3.78925C306.997 2.64156 305.944 2.08751 304.688 2.12708C303.472 2.12708 302.58 2.72071 302.216 3.82882C301.81 5.09523 301.405 6.40122 301.284 7.7072C300.554 14.6725 300.676 21.6377 301.122 28.603C301.243 30.3443 301.689 32.0856 302.175 33.7873C302.499 34.935 303.391 35.5682 304.688 35.5682C306.025 35.6078 306.876 34.9746 307.362 33.8269C307.646 33.1541 307.93 32.4022 308.011 31.6898C308.294 27.3761 308.618 23.0624 308.943 18.7091Z" fill="#90979E"/>
<path d="M56.6586 10.9778C56.6586 15.7271 56.6586 20.5167 56.6586 25.266C56.5771 25.3062 56.4956 25.3867 56.4141 25.427C56.2104 25.2257 55.9252 25.0245 55.8437 24.783C55.6807 24.0183 55.64 23.2133 55.5177 22.4486C55.0288 19.269 53.8879 18.4238 50.5467 18.7055C50.5467 24.3403 50.5467 29.9348 50.5467 35.7708C52.1766 35.6903 53.8064 35.7708 55.4362 35.5293C56.9846 35.2878 58.0847 34.2011 58.5737 32.8327C59.2664 30.941 59.6738 28.9688 60.1628 26.9967C60.285 26.4734 60.285 25.91 60.4073 25.3867C60.448 25.2257 60.6925 25.0647 60.8555 24.9038C60.9777 25.0647 61.2222 25.266 61.2222 25.427C61.2629 29.1701 61.2222 32.9132 61.2222 36.6965C55.1103 36.6965 49.0798 36.6965 43.0494 36.6965C43.0087 36.616 42.9272 36.5758 42.8865 36.4953C43.1309 36.294 43.3347 35.972 43.5791 35.8513C45.4942 35.2073 45.6572 35.0061 45.6572 32.9937C45.6572 23.5353 45.6572 14.0367 45.6572 4.57834C45.6572 2.56592 45.4535 2.32443 43.5791 1.7207C43.2939 1.64021 43.0902 1.35847 42.8457 1.15723C42.8864 1.07673 42.9679 0.996233 43.0087 0.875488C48.8761 0.875488 54.7028 0.875488 60.611 0.875488C60.611 4.81983 60.611 8.68367 60.611 12.5878C59.8776 12.9097 59.8368 12.3865 59.7553 11.9035C59.4293 10.1326 59.1441 8.36168 58.7774 6.59075C58.6144 5.78579 58.2477 5.02107 57.8403 4.2966C56.9846 2.64642 55.64 1.7207 53.6434 1.84145C52.6248 1.8817 51.6061 1.84145 50.506 1.84145C50.506 7.07373 50.506 12.2255 50.506 17.3371C52.91 17.7798 54.2953 17.0553 55.0288 14.8014C55.3547 13.755 55.5177 12.628 55.7215 11.5413C55.8844 11.1791 55.9659 10.6961 56.6586 10.9778Z" fill="#90979E"/>
<path d="M370.795 23.8641C370.795 23.1821 370.795 22.5 370.795 21.818C370.795 16.8432 370.795 11.8282 370.795 6.85333C370.795 6.33178 370.795 5.7701 370.755 5.24854C370.594 2.76112 370.274 2.40004 367.873 1.75812C367.593 1.67788 367.393 1.35693 367.153 1.15633C367.193 1.07609 367.273 0.955728 367.313 0.875488C369.674 0.875488 372.035 0.875488 374.396 0.875488C374.557 0.875488 374.717 1.07609 374.917 1.15633C374.797 1.35693 374.677 1.63776 374.517 1.67788C372.235 2.1192 372.155 3.80423 372.155 5.60962C372.155 15.5192 372.155 25.4288 372.155 35.3785C372.155 35.7396 372.155 36.1408 372.155 36.5018C370.635 36.8629 370.554 36.8228 370.034 35.4988C366.512 26.8731 362.99 18.2072 359.469 9.58148C359.348 9.26052 359.188 8.93956 358.988 8.45813C358.948 8.77908 358.868 8.89944 358.868 9.05992C358.868 16.803 358.868 24.5462 358.908 32.2893C358.908 34.7366 359.348 35.218 361.67 35.9C361.91 35.9803 362.07 36.221 362.27 36.3815C362.23 36.4617 362.15 36.542 362.11 36.6222C359.669 36.6222 357.227 36.6222 354.786 36.6222C354.746 36.542 354.666 36.4617 354.626 36.4216C354.826 36.221 355.026 35.9803 355.306 35.9C356.827 35.4587 357.267 34.9773 357.427 33.4126C357.508 32.53 357.548 31.6474 357.548 30.7647C357.548 22.4198 357.588 14.0749 357.508 5.72998C357.508 4.08507 356.827 2.56052 355.106 1.75812C354.906 1.67788 354.826 1.31681 354.586 0.915608C356.947 0.915608 359.068 0.875488 361.189 0.955728C361.43 0.955728 361.71 1.39705 361.83 1.718C364.191 7.61561 366.512 13.5132 368.834 19.4108C369.434 20.9354 370.034 22.4599 370.635 23.9444C370.635 23.8641 370.715 23.8641 370.795 23.8641Z" fill="#90979E"/>
<path d="M228.114 11.0295C228.114 15.7841 228.114 20.5388 228.114 25.2934C227.462 25.6158 227.339 25.2531 227.258 24.7293C227.135 23.722 227.054 22.7146 226.809 21.7073C226.32 19.4106 225.422 18.7256 223.097 18.6853C222.771 18.6853 222.445 18.6853 222.037 18.6853C222.037 24.3264 222.037 29.9675 222.037 35.8504C223.791 35.7295 225.545 35.7295 227.258 35.4071C228.685 35.1654 229.623 34.0371 230.072 32.7477C230.724 30.7734 231.173 28.7184 231.663 26.7037C231.785 26.2605 231.744 25.8172 231.866 25.374C231.948 25.1322 232.234 25.0114 232.397 24.8099C232.478 24.8502 232.56 24.9308 232.601 24.9711C232.601 28.8796 232.601 32.7477 232.601 36.6965C226.564 36.6965 220.569 36.6965 214.206 36.6965C214.573 36.2936 214.777 35.9309 215.022 35.8906C216.857 35.5683 217.143 34.7221 217.143 32.9492C217.143 23.5608 217.143 14.1724 217.143 4.78397C217.143 2.60811 217.02 2.44694 214.94 1.72165C214.736 1.64107 214.614 1.35901 214.451 1.15754C214.614 1.03666 214.777 0.875488 214.94 0.875488C220.609 0.875488 226.279 0.875488 231.948 0.915782C231.989 0.915782 231.989 0.956076 232.111 0.996369C232.111 1.19784 232.152 1.47989 232.152 1.76195C232.152 5.10632 232.152 8.49098 232.152 11.8354C232.152 12.1174 231.907 12.4398 231.785 12.7218C231.622 12.4398 231.377 12.1577 231.295 11.8756C230.806 9.78038 230.48 7.64482 229.909 5.58984C229.664 4.74368 229.134 3.85722 228.522 3.25281C227.91 2.64841 227.054 2.12459 226.238 2.00371C224.892 1.80224 223.505 1.96342 222.037 1.96342C222.037 7.16129 222.037 12.3189 222.037 17.4765C224.443 17.9197 225.789 17.1944 226.483 14.9783C226.85 13.8903 227.013 12.7621 227.217 11.6339C227.38 10.9489 227.339 10.9489 228.114 11.0295Z" fill="#90979E"/>
<path d="M233.568 36.4154C233.802 36.2146 234.035 35.8934 234.307 35.813C236.019 35.2107 236.213 35.0099 236.213 33.1224C236.213 23.5648 236.213 14.0072 236.213 4.44956C236.213 2.60229 236.019 2.36134 234.269 1.75897C234.035 1.67865 233.88 1.39754 233.646 1.19675C233.88 1.07628 234.074 0.875488 234.307 0.875488C239.598 0.875488 244.888 0.875488 250.139 0.875488C250.217 0.875488 250.334 0.915646 250.45 0.955805C250.45 4.85114 250.45 8.74648 250.45 12.6418C250.372 12.682 250.295 12.7623 250.217 12.8024C250.061 12.5615 249.789 12.3205 249.75 12.0796C249.439 10.393 249.167 8.70632 248.855 7.05984C248.739 6.45746 248.505 5.85509 248.272 5.25272C247.261 2.72276 246.055 1.9196 243.41 1.9196C242.593 1.9196 241.737 1.9196 240.842 1.9196C240.842 7.09999 240.842 12.2402 240.842 17.3805C242.865 17.9025 244.304 17.2198 245.004 15.2521C245.393 14.0473 245.588 12.7221 245.899 11.4772C245.938 11.2764 246.171 11.0756 246.327 10.915C246.444 11.1158 246.677 11.3166 246.677 11.5174C246.716 16.0553 246.677 20.6333 246.677 25.1711C246.171 25.4522 245.938 25.3318 245.86 24.7696C245.782 23.8861 245.666 23.0026 245.51 22.1593C244.966 19.1876 243.838 18.3443 240.803 18.7458C240.803 24.3278 240.803 29.9098 240.803 35.4918C244.615 36.817 247.883 35.2107 249.05 31.3555C249.594 29.5484 249.789 27.6609 250.139 25.8137C250.217 25.3719 250.139 24.6892 250.995 25.0105C250.995 28.9058 250.995 32.761 250.995 36.6965C245.238 36.6965 239.481 36.6965 233.763 36.6965C233.724 36.576 233.646 36.4957 233.568 36.4154Z" fill="#90979E"/>
<path d="M11.8657 1.96293C11.8657 2.36541 11.8657 2.6874 11.8657 3.04963C11.8657 12.991 11.8657 22.8921 11.8657 32.8334C11.8657 35.2081 11.906 35.2483 14.2457 35.8118C14.9314 35.9728 14.9314 35.9728 14.9314 36.6973C11.422 36.6973 7.87212 36.6973 4.36262 36.6973C4.28195 36.6168 4.24161 36.5765 4.16093 36.496C4.36262 36.2948 4.56432 35.9325 4.80635 35.8923C6.86364 35.5703 7.10568 34.7251 7.10568 32.8334C7.10568 22.8921 7.10568 12.991 7.10568 3.04963C7.10568 2.6874 7.10568 2.36541 7.10568 2.04342C5.3711 1.64094 4.24161 2.08367 3.27347 3.49236C2.10364 5.26329 1.70025 7.27571 1.37754 9.32837C1.21618 10.2541 1.17584 11.22 1.01449 12.1458C0.974148 12.3872 0.691775 12.5885 0.49008 12.7897C0.409402 12.7495 0.328725 12.669 0.248047 12.6287C0.248047 8.72465 0.248047 4.86081 0.248047 0.876221C6.37957 0.876221 12.4708 0.876221 18.6426 0.876221C18.6426 4.82056 18.6426 8.72465 18.6426 12.5885C17.8358 12.8702 17.8762 12.347 17.7955 11.864C17.5535 10.1333 17.3518 8.40266 16.9887 6.71223C16.787 5.78652 16.3836 4.86081 15.9399 3.97534C15.1331 2.40566 13.8826 1.60069 11.8657 1.96293Z" fill="#90979E"/>
<path d="M267.615 36.6965C264.106 36.6965 260.556 36.6965 257.046 36.6965C256.966 36.616 256.925 36.5758 256.845 36.4953C257.046 36.294 257.248 35.9318 257.49 35.8916C259.507 35.5696 259.789 34.7646 259.789 32.8327C259.789 22.8913 259.789 12.9902 259.789 3.0489C259.789 2.68666 259.789 2.36468 259.789 2.04269C258.014 1.64021 256.925 2.08294 255.957 3.49163C254.787 5.26256 254.384 7.27498 254.061 9.32764C253.9 10.2534 253.859 11.2193 253.698 12.145C253.658 12.3865 253.375 12.5878 253.174 12.789C253.093 12.7488 253.012 12.6683 252.932 12.628C252.932 8.72392 252.932 4.86007 252.932 0.875488C259.063 0.875488 265.154 0.875488 271.326 0.875488C271.326 4.81983 271.326 8.72392 271.326 12.5878C270.519 12.8695 270.56 12.3463 270.479 11.8633C270.237 10.1326 269.995 8.40193 269.632 6.7115C269.43 5.78579 269.027 4.86007 268.583 3.97461C267.776 2.36468 266.486 1.55971 264.469 1.92195C264.469 2.24393 264.469 2.60617 264.469 3.00865C264.469 12.95 264.469 22.8511 264.469 32.7924C264.469 35.1671 264.509 35.2073 266.849 35.7708C267.575 36.0123 267.575 36.0123 267.615 36.6965Z" fill="#90979E"/>
<path d="M181.048 2.00118C179.137 1.59915 177.952 2.44341 177.15 4.01134C175.965 6.34312 175.659 8.91612 175.392 11.5293C175.353 11.9314 175.697 12.655 174.895 12.6952C174.78 12.6952 174.551 11.9314 174.551 11.5293C174.513 8.27287 174.551 5.01642 174.513 1.75996C174.513 1.23732 174.513 0.875488 175.201 0.875488C180.665 0.915691 186.13 0.875488 191.557 0.875488C191.672 0.875488 191.786 0.915692 191.939 0.955895C191.939 4.8556 191.939 8.75531 191.939 12.6148C191.289 12.7756 191.328 12.7756 191.213 12.0922C190.946 10.2428 190.678 8.39348 190.334 6.58434C190.143 5.69987 189.799 4.8556 189.379 4.05154C188.576 2.44341 187.391 1.63935 185.481 2.04138C185.481 2.36301 185.481 2.76504 185.481 3.12687C185.481 13.0168 185.481 22.947 185.481 32.837C185.481 34.7668 185.748 35.5708 187.659 35.8925C187.888 35.9327 188.079 36.2543 188.309 36.4553C188.27 36.5357 188.194 36.6161 188.156 36.6965C184.869 36.6965 181.621 36.6965 178.334 36.6965C178.296 36.6161 178.22 36.5759 178.181 36.4955C178.411 36.2945 178.602 35.9729 178.831 35.8925C180.895 35.2492 180.971 35.1688 180.971 32.837C180.971 22.9068 180.971 12.9766 180.971 3.00626C181.048 2.68463 181.048 2.36301 181.048 2.00118Z" fill="#90979E"/>
<path d="M159.246 36.6959C159.246 34.0744 159.246 31.7309 159.246 29.3874C159.246 28.1561 159.206 26.885 159.246 25.6537C159.246 25.3757 159.487 25.0579 159.648 24.7799C159.809 25.0579 160.05 25.3359 160.13 25.6537C160.492 27.1233 160.653 28.6724 161.175 30.1024C161.617 31.3734 162.301 32.6444 163.145 33.6772C163.788 34.4319 164.793 35.0276 165.797 35.3851C167.526 35.9809 169.174 35.1071 169.937 33.3197C170.982 30.857 171.022 28.3149 169.736 25.9715C168.892 24.4224 167.727 22.9924 166.601 21.642C165.034 19.8148 163.265 18.1466 161.738 16.2797C159.085 13.0624 158.322 9.40814 159.688 5.47585C160.814 2.17907 163.868 0.312226 167.084 1.02719C167.928 1.22579 168.772 1.74215 169.535 2.21879C170.781 3.0132 171.344 2.89404 171.987 1.58327C172.067 1.38467 172.268 1.26551 172.429 1.06691C172.55 1.30523 172.751 1.50383 172.751 1.74215C172.751 5.19781 172.751 8.69318 172.751 12.1488C172.751 12.3474 172.55 12.5858 172.429 12.7844C172.268 12.5858 171.987 12.3872 171.907 12.1886C171.424 10.2025 171.103 8.1371 170.5 6.19081C170.178 5.11837 169.495 4.08564 168.731 3.25152C167.767 2.13935 166.4 1.70243 164.953 2.17907C163.506 2.65572 163.105 3.88704 162.904 5.19781C162.582 7.38242 163.145 9.40814 164.511 11.1161C165.677 12.5858 167.043 13.8965 168.289 15.3264C169.616 16.7961 171.022 18.226 172.148 19.8545C174.64 23.4691 175.162 27.4411 173.715 31.572C172.59 34.8688 169.897 36.7356 166.641 36.6959C165.275 36.6959 164.15 36.1398 163.064 35.3851C161.457 34.2332 161.014 34.3524 160.09 36.1001C159.889 36.259 159.608 36.3781 159.246 36.6959Z" fill="#90979E"/>
<path d="M133.043 0.875488C135.32 0.875488 137.557 0.875488 139.834 0.875488C140.792 0.875488 141.711 0.875488 142.67 0.915737C142.83 0.915737 143.029 1.15723 143.189 1.27797C143.029 1.43897 142.91 1.68046 142.75 1.76095C140.313 2.60617 140.313 2.60617 140.313 5.18206C140.313 14.9624 140.313 24.7025 140.313 34.4829C140.313 34.8451 140.313 35.2476 140.313 35.6098C143.868 36.1733 145.546 35.2073 146.824 32.6717C147.903 30.5788 148.223 28.2846 148.502 25.9905C148.542 25.5477 148.342 24.783 149.341 24.9842C149.341 28.8481 149.341 32.7522 149.341 36.6965C143.908 36.6965 138.475 36.6965 133.043 36.6965C133.003 36.6563 132.923 36.5758 132.883 36.5355C133.122 36.3343 133.282 35.972 133.562 35.8916C135.479 35.2476 135.599 35.0866 135.599 33.0742C135.599 23.5756 135.599 14.0769 135.599 4.53809C135.599 2.56592 135.439 2.36468 133.602 1.76095C133.322 1.68046 133.122 1.35847 132.883 1.15723C132.923 1.03648 133.003 0.955985 133.043 0.875488Z" fill="#90979E"/>
<path d="M287.91 17.4873C287.91 13.1393 287.91 8.75147 287.91 4.4035C287.91 2.56858 287.66 2.28935 285.786 1.81068C285.703 1.81068 285.661 1.81068 285.578 1.77079C285.328 1.61123 285.12 1.41178 284.912 1.25222C285.162 1.13255 285.412 0.893217 285.661 0.893217C287.16 0.853327 288.701 0.893217 290.2 0.893217C291.699 0.893217 293.24 0.893217 294.738 0.893217C295.03 0.893217 295.28 1.09267 295.53 1.21233C295.321 1.41178 295.155 1.69101 294.905 1.77079C293.073 2.36913 292.865 2.56858 292.865 4.44339C292.865 12.2219 292.865 20.0003 292.865 27.8187C292.865 29.6536 292.698 31.4487 291.824 33.124C290.325 35.9961 286.702 37.3922 283.413 36.3551C280.457 35.4376 278.625 32.3262 279.166 29.2148C279.457 27.699 280.623 26.5023 281.997 26.3029C283.205 26.1433 284.246 26.5821 284.787 27.4996C285.328 28.4968 285.203 29.9328 284.329 30.7306C283.871 31.2093 283.246 31.5683 282.705 31.9672C281.706 32.6852 281.622 33.5628 282.455 34.4803C283.246 35.3578 284.246 35.7567 285.453 35.5174C286.577 35.3179 287.202 34.5202 287.452 33.5229C287.702 32.5656 287.868 31.5284 287.868 30.5312C287.91 26.1433 287.91 21.8353 287.91 17.4873Z" fill="#90979E"/>
</svg>
