<svg width="97" height="18" viewBox="0 0 97 18" fill="none" xmlns="http://www.w3.org/2000/svg">
<path d="M3.38556 7.6678H4.06769C5.54406 7.6678 6.52883 7.50767 7.02042 7.18742C7.51201 6.86556 7.7586 6.29872 7.7586 5.48688C7.7586 4.61419 7.496 3.99771 6.96918 3.64062C6.44397 3.28194 5.4768 3.1042 4.06769 3.1042H3.38556V7.6678ZM3.21742 9.84872V17.1985H0.722656V0.820801H4.74983C5.94277 0.820801 6.82026 0.886449 7.38391 1.01776C7.94755 1.14746 8.43754 1.36203 8.85547 1.65986C9.36947 2.04096 9.77139 2.55337 10.0628 3.19868C10.3542 3.84398 10.4984 4.55494 10.4984 5.32996C10.4984 6.10496 10.3542 6.82233 10.0628 7.47725C9.77139 8.13376 9.36947 8.64777 8.85547 9.02086C8.43754 9.3203 7.94755 9.53167 7.38391 9.65817C6.82026 9.78627 5.94277 9.84872 4.74983 9.84872H3.21742Z" fill="#CF1C23"/>
<path d="M26.2433 9.04341C26.2433 8.21556 26.0928 7.42934 25.7918 6.68315C25.4891 5.93696 25.0552 5.27404 24.4883 4.69278C23.9359 4.11793 23.297 3.67598 22.57 3.36693C21.8431 3.05789 21.0761 2.90257 20.2706 2.90257C19.4652 2.90257 18.6998 3.05629 17.9712 3.36053C17.2458 3.66637 16.5973 4.10992 16.0305 4.69278C15.4636 5.26603 15.0313 5.92736 14.7335 6.67194C14.4356 7.41813 14.2867 8.20915 14.2867 9.04341C14.2867 9.87126 14.4356 10.6543 14.7335 11.3925C15.0313 12.1306 15.4636 12.792 16.0305 13.3732C16.5973 13.9545 17.2426 14.398 17.9664 14.7039C18.6902 15.0097 19.4572 15.1618 20.2706 15.1618C21.0681 15.1618 21.827 15.0097 22.5476 14.7039C23.2666 14.398 23.9135 13.9545 24.4883 13.3732C25.0552 12.792 25.4891 12.129 25.7918 11.3877C26.0928 10.6447 26.2433 9.86486 26.2433 9.04341ZM29.0183 9.04341C29.0183 10.2075 28.8005 11.3076 28.3634 12.3436C27.9279 13.3796 27.2922 14.3052 26.4563 15.1186C25.614 15.9304 24.6629 16.5533 23.6044 16.9857C22.546 17.418 21.4347 17.6342 20.2706 17.6342C19.0921 17.6342 17.968 17.4164 16.8984 16.9809C15.8287 16.5437 14.8824 15.9224 14.0625 15.1186C13.2267 14.3052 12.5926 13.3844 12.1602 12.3548C11.7279 11.3252 11.5117 10.2219 11.5117 9.04341C11.5117 7.87289 11.7279 6.76962 12.1602 5.732C12.5926 4.69598 13.2267 3.76725 14.0625 2.9474C14.8968 2.13396 15.8447 1.51587 16.9032 1.08994C17.9632 0.665603 19.0841 0.452637 20.2706 0.452637C21.4492 0.452637 22.5652 0.665603 23.6205 1.08994C24.6757 1.51587 25.622 2.13396 26.4563 2.9474C27.2922 3.77526 27.9279 4.70879 28.3634 5.74961C28.8005 6.78883 29.0183 7.8873 29.0183 9.04341Z" fill="#CF1C23"/>
<path d="M31.3867 17.1984V0.822266H34.048V14.8157H39.9999V17.1984H31.3867Z" fill="#CF1C23"/>
<path d="M41.5156 0.822266H44.1785V17.1984H41.5156V0.822266Z" fill="#CF1C23"/>
<path d="M52.6053 3.08165V17.1984H49.9424V3.08165H45.5918V0.822266H56.9351V3.08165H52.6053Z" fill="#CF1C23"/>
<path d="M58.3301 0.822266H60.9914V17.1984H58.3301V0.822266Z" fill="#CF1C23"/>
<path d="M77.2746 4.80482C76.5204 4.16272 75.7246 3.68234 74.8855 3.36049C74.0464 3.04023 73.1642 2.88011 72.2402 2.88011C70.45 2.88011 68.9945 3.45496 67.872 4.60307C66.7495 5.75117 66.1891 7.23874 66.1891 9.06578C66.1891 10.8336 66.7351 12.2907 67.8271 13.4404C68.9192 14.5885 70.2979 15.1618 71.96 15.1618C72.9304 15.1618 73.8527 14.9905 74.7286 14.6478C75.6045 14.3051 76.4467 13.7863 77.2522 13.093V16.1017C76.5364 16.6157 75.7566 17.0016 74.9143 17.2546C74.0705 17.5076 73.1577 17.6341 72.173 17.6341C70.9208 17.6341 69.7615 17.4292 68.6998 17.0193C67.6366 16.6093 66.7031 16.0057 65.8976 15.2066C65.1002 14.4236 64.4853 13.5013 64.0578 12.4396C63.6286 11.3764 63.4141 10.2443 63.4141 9.04337C63.4141 7.84242 63.6286 6.71513 64.0578 5.6599C64.4853 4.60467 65.1066 3.67754 65.92 2.88011C66.7335 2.07467 67.6654 1.46459 68.7158 1.05147C69.7679 0.636738 70.9048 0.430176 72.1281 0.430176C73.0905 0.430176 74.008 0.569487 74.8807 0.849707C75.7534 1.12993 76.5989 1.55266 77.4203 2.11951L77.2746 4.80482Z" fill="#CF1C23"/>
<path d="M93.9031 9.04341C93.9031 8.21556 93.751 7.42934 93.45 6.68315C93.1473 5.93696 92.7134 5.27404 92.1466 4.69278C91.5941 4.11793 90.9552 3.67598 90.2282 3.36693C89.5013 3.05789 88.7343 2.90257 87.9288 2.90257C87.1234 2.90257 86.358 3.05629 85.6294 3.36053C84.904 3.66637 84.2555 4.10992 83.6887 4.69278C83.1234 5.26603 82.6895 5.92736 82.3917 6.67194C82.0938 7.41813 81.9449 8.20915 81.9449 9.04341C81.9449 9.87126 82.0938 10.6543 82.3917 11.3925C82.6895 12.1306 83.1234 12.792 83.6887 13.3732C84.2555 13.9545 84.9008 14.398 85.6246 14.7039C86.3484 15.0097 87.1154 15.1618 87.9288 15.1618C88.7263 15.1618 89.4853 15.0097 90.2058 14.7039C90.9248 14.398 91.5717 13.9545 92.1466 13.3732C92.7134 12.792 93.1473 12.129 93.45 11.3877C93.751 10.6447 93.9031 9.86486 93.9031 9.04341ZM96.6765 9.04341C96.6765 10.2075 96.4588 11.3076 96.0216 12.3436C95.5861 13.3796 94.9504 14.3052 94.1145 15.1186C93.2722 15.9304 92.3211 16.5533 91.2627 16.9857C90.2042 17.418 89.0929 17.6342 87.9288 17.6342C86.7503 17.6342 85.6262 17.4164 84.5566 16.9809C83.4853 16.5437 82.5406 15.9224 81.7207 15.1186C80.8849 14.3052 80.2508 13.3844 79.8184 12.3548C79.3861 11.3252 79.1699 10.2219 79.1699 9.04341C79.1699 7.87289 79.3861 6.76962 79.8184 5.732C80.2508 4.69598 80.8849 3.76725 81.7207 2.9474C82.555 2.13396 83.5029 1.51587 84.5614 1.08994C85.6214 0.665603 86.7439 0.452637 87.9288 0.452637C89.1074 0.452637 90.2234 0.665603 91.2787 1.08994C92.3339 1.51587 93.2802 2.13396 94.1145 2.9474C94.9504 3.77526 95.5861 4.70879 96.0216 5.74961C96.4588 6.78883 96.6765 7.8873 96.6765 9.04341Z" fill="#CF1C23"/>
</svg>
