<svg width="231" height="43" viewBox="0 0 231 43" fill="none" xmlns="http://www.w3.org/2000/svg">
<path d="M0.0527344 0.140991H16.9782C20.2021 0.140991 22.62 0.946965 24.411 2.29025C26.3812 3.9022 27.4558 6.23057 27.4558 9.09625C27.4558 12.4097 26.1125 14.4694 23.426 15.7231V15.9022C27.0081 17.0664 29.0678 20.2903 29.0678 24.1411C29.0678 27.8127 27.6349 30.6784 25.3066 32.4695C23.3364 33.9023 20.8289 34.5292 17.4259 34.5292H0.0527344V0.140991ZM15.2767 13.5739C17.0677 13.5739 18.411 12.5888 18.411 10.5291C18.411 8.55893 17.0677 7.57385 15.1871 7.57385H9.3662V13.4843H15.2767V13.5739ZM16.0826 26.9172C18.1423 26.9172 19.6647 25.6635 19.6647 23.4247C19.6647 21.0067 18.0528 19.9321 16.0826 19.9321H9.45576V27.0068H16.0826V26.9172Z" fill="#90979E"/>
<path d="M30.5898 0.140625H39.4555V34.6184H30.5898V0.140625Z" fill="#90979E"/>
<path d="M41.2471 22.3494C41.2471 14.5583 46.262 9.36426 54.0531 9.36426C61.8442 9.36426 66.7696 14.6479 66.7696 22.3494C66.7696 30.1405 61.8442 35.3345 54.0531 35.3345C46.262 35.3345 41.2471 30.1405 41.2471 22.3494ZM57.9039 22.3494C57.9039 18.0509 56.5606 15.3643 53.874 15.3643C51.1874 15.3643 49.9337 18.0509 49.9337 22.3494C49.9337 26.6479 51.1874 29.424 53.874 29.424C56.5606 29.3345 57.9039 26.6479 57.9039 22.3494Z" fill="#90979E"/>
<path d="M67.7549 22.3494C67.7549 14.5583 72.7698 9.36426 80.5609 9.36426C88.352 9.36426 93.1878 14.5583 93.1878 22.3494C93.1878 30.1405 88.2624 35.3345 80.4713 35.3345C72.7698 35.3345 67.7549 30.1405 67.7549 22.3494ZM84.4117 22.3494C84.4117 18.0509 83.0684 15.3643 80.3818 15.3643C77.6952 15.3643 76.4415 18.0509 76.4415 22.3494C76.4415 26.6479 77.6952 29.424 80.3818 29.424C83.0684 29.3345 84.4117 26.6479 84.4117 22.3494Z" fill="#90979E"/>
<path d="M94.9785 9.99132H103.217V13.663H103.396C105.008 10.7973 107.247 9.2749 110.829 9.2749C113.964 9.2749 116.292 10.7973 117.456 13.4839H117.635C119.605 10.26 122.203 9.2749 125.247 9.2749C130.979 9.2749 133.397 13.4839 133.397 19.1257V34.5287H124.8V20.6481C124.8 18.1406 123.994 16.5287 121.844 16.5287C119.695 16.5287 118.62 18.4988 118.62 21.1854V34.5287H110.023V20.6481C110.023 18.1406 109.217 16.5287 107.068 16.5287C104.919 16.5287 103.844 18.4988 103.844 21.1854V34.5287H94.9785V9.99132Z" fill="#90979E"/>
<path d="M144.233 31.3049H144.143V34.5288H135.904V0.140625H144.501V12.4989H144.68C146.292 10.3496 148.531 9.18544 151.666 9.18544C157.845 9.18544 161.427 14.7377 161.427 22.1706C161.427 30.4989 157.576 35.3348 151.128 35.3348C148.442 35.3348 145.666 34.0811 144.233 31.3049ZM152.561 22.081C152.561 18.1407 151.128 15.5437 148.531 15.5437C145.845 15.5437 144.233 18.1407 144.233 22.081C144.233 26.0213 145.934 28.6183 148.531 28.6183C151.128 28.6183 152.561 26.1109 152.561 22.081Z" fill="#90979E"/>
<path d="M162.411 22.26C162.411 14.5585 167.516 9.2749 174.859 9.2749C178.531 9.2749 181.307 10.4391 183.456 12.4988C186.322 15.2749 187.575 19.5734 187.486 24.5884H171.008C171.366 27.6332 172.799 29.2451 175.396 29.2451C176.919 29.2451 178.262 28.5287 178.799 26.9168H187.128C185.695 32.5586 181.307 35.3347 175.128 35.3347C167.516 35.2451 162.411 30.0511 162.411 22.26ZM171.008 19.663H178.889C178.71 16.7078 177.098 15.1854 175.038 15.1854C172.62 15.0958 171.277 16.7973 171.008 19.663Z" fill="#90979E"/>
<path d="M197.248 14.2004H197.427C199.218 10.7974 201.546 9.4541 204.501 9.4541C205.218 9.4541 205.666 9.54365 205.934 9.72276V17.2452H205.755C200.651 16.3496 197.695 18.7676 197.695 24.3198V34.6184H189.009V9.99142H197.248V14.2004Z" fill="#90979E"/>
<path d="M206.83 34.6186H215.158C215.516 35.6932 216.591 36.6783 218.651 36.6783C221.427 36.6783 222.412 34.9768 222.412 32.3798V30.5887H222.233C220.889 32.2007 219.009 33.3649 216.322 33.3649C211.039 33.3649 206.382 29.4246 206.382 21.723C206.382 14.6484 210.143 9.18567 215.874 9.18567C219.188 9.18567 221.158 10.529 222.501 12.5887H222.68V9.90209H230.919V31.2156C230.919 35.1559 229.576 38.2007 227.516 39.9918C225.367 41.8724 222.322 42.6783 218.83 42.6783C212.203 42.7679 207.636 40.0813 206.83 34.6186ZM222.77 21.3648C222.77 18.32 221.337 15.8126 218.83 15.8126C216.412 15.8126 214.889 17.9618 214.889 21.3648C214.889 24.6783 216.412 27.0066 218.83 27.0066C221.248 27.0066 222.77 24.5887 222.77 21.3648Z" fill="#90979E"/>
</svg>
