<svg width="87" height="24" viewBox="0 0 87 24" fill="none" xmlns="http://www.w3.org/2000/svg">
<path d="M64.256 22.2713C64.2152 22.4468 64.1826 22.5856 64.154 22.7244C61.5787 22.7244 59.0402 22.7244 56.4609 22.7244C56.4935 22.5325 56.5221 22.3693 56.5507 22.2224C57.0322 22.1734 57.4975 22.1734 57.9383 22.0754C58.6239 21.9244 58.8606 21.5367 58.7504 20.8429C58.4484 18.9574 58.1342 17.0718 57.8403 15.1822C57.7913 14.868 57.6567 14.77 57.3424 14.77C54.9671 14.7823 52.5878 14.77 50.2125 14.7863C50.0411 14.7863 49.8003 14.8965 49.7187 15.0312C48.6983 16.6882 47.6903 18.3533 46.7026 20.0307C46.5149 20.345 46.4006 20.7123 46.3027 21.0674C46.1353 21.6918 46.3312 22.0101 46.9761 22.1122C47.425 22.1856 47.8821 22.1775 48.3637 22.206C48.3637 22.3775 48.3637 22.5366 48.3637 22.7244C46.2129 22.7244 44.0988 22.7244 41.9316 22.7244C41.9439 22.5611 41.9521 22.406 41.9643 22.2509C42.0337 22.2224 42.0786 22.1815 42.1194 22.1856C43.3887 22.2877 44.2702 21.6469 44.915 20.6593C46.4618 18.2921 47.9882 15.9128 49.4942 13.5171C52.2286 9.17464 54.9386 4.81587 57.6567 0.465264C57.6934 0.408127 57.7179 0.338744 57.7669 0.29385C57.8852 0.187738 58.0117 0.0979498 58.1342 0C58.2076 0.134681 58.3178 0.261202 58.3464 0.404045C58.5219 1.38762 58.6851 2.3712 58.8484 3.35478C59.7789 8.96241 60.7054 14.566 61.644 20.1736C61.7012 20.5205 61.8073 20.8674 61.9501 21.1898C62.2154 21.7938 62.6929 22.1448 63.3622 22.206C63.6479 22.2305 63.9336 22.2469 64.256 22.2713ZM51.0451 12.9661C53.253 12.9661 55.3589 12.9661 57.5179 12.9661C57.0771 10.2807 56.6486 7.63601 56.1915 4.84444C54.4366 7.61152 52.7592 10.2562 51.0451 12.9661Z" fill="black"/>
<path d="M1.3365 17.0715C1.40997 17.2225 1.47935 17.3776 1.55689 17.5286C2.0344 18.4224 2.45477 19.3489 3.00982 20.1896C3.53221 20.9813 4.3403 21.4915 5.2545 21.7772C6.72375 22.2343 8.22564 22.3322 9.72754 22.0017C13.6414 21.1446 13.9312 16.5246 12.0089 14.5616C11.2621 13.7943 10.3969 13.2147 9.42553 12.7862C8.30727 12.2965 7.16452 11.8639 6.05442 11.3578C4.55252 10.668 3.27509 9.70488 2.62209 8.12136C1.21406 4.72985 3.22204 1.02816 6.92781 0.350669C9.7357 -0.163567 12.4334 0.293534 14.923 1.77502C15.2495 1.97092 15.4005 2.17907 15.3556 2.58311C15.2535 3.48914 15.2046 4.39926 15.0168 5.37468C14.927 5.25224 14.8128 5.14205 14.7475 5.01145C14.5679 4.64822 14.425 4.26458 14.2455 3.90135C12.8048 0.995504 9.21739 0.571057 7.28696 1.40363C5.94423 1.98317 5.06676 2.9545 4.87086 4.42783C4.66272 5.97054 5.08717 7.30102 6.42174 8.20706C7.0176 8.61518 7.68284 8.93352 8.344 9.23961C9.49899 9.77426 10.6866 10.2354 11.8294 10.7946C13.1884 11.4598 14.3883 12.3454 15.127 13.7167C17.033 17.2552 14.9475 21.969 10.9356 22.8955C7.53184 23.6831 4.29949 23.0097 1.34059 21.1283C1.02633 20.9283 0.924306 20.6875 0.948793 20.3283C1.01817 19.3488 1.05898 18.3694 1.1202 17.3858C1.12428 17.2919 1.17326 17.2021 1.20183 17.1082C1.23856 17.1001 1.28753 17.0838 1.3365 17.0715Z" fill="black"/>
<path d="M21.2168 5.3547C21.2168 3.80791 21.2168 2.26112 21.2168 0.669434C27.7386 0.669434 34.2645 0.669434 40.819 0.669434C40.819 2.22439 40.819 3.79975 40.819 5.37103C40.7782 5.37511 40.7374 5.38327 40.6966 5.38735C40.6557 5.25267 40.6068 5.12207 40.5741 4.98739C40.0517 2.808 39.1008 1.94278 36.9051 1.67342C36.6031 1.63669 36.297 1.63669 35.9909 1.63261C34.84 1.62853 33.685 1.63261 32.4769 1.63261C32.4647 1.84483 32.4484 2.02032 32.4484 2.1999C32.4484 8.14219 32.4484 14.0845 32.4484 20.0268C32.4484 21.8633 32.8238 22.2388 34.6482 22.2429C34.9828 22.2429 35.3216 22.2429 35.6889 22.2429C35.6889 22.4265 35.6889 22.5653 35.6889 22.7285C32.6198 22.7285 29.567 22.7285 26.4694 22.7285C26.4571 22.5653 26.4489 22.4061 26.4326 22.1653C27.0122 22.1653 27.5509 22.1857 28.0896 22.1613C29.216 22.1123 29.6486 21.7082 29.6486 20.6022C29.6609 14.3742 29.6568 8.14219 29.6568 1.91421C29.6568 1.84891 29.6405 1.77953 29.6323 1.72239C29.5956 1.69383 29.5711 1.65301 29.5466 1.65301C28.0529 1.66526 26.551 1.57955 25.0695 1.71423C23.0656 1.90197 22.0534 2.89371 21.5719 4.84455C21.5229 5.03637 21.4453 5.22002 21.38 5.40776C21.327 5.39143 21.2739 5.37103 21.2168 5.3547Z" fill="black"/>
<path d="M86.9437 0.657227C86.9437 2.26524 86.9437 3.81203 86.9437 5.51391C86.7926 5.33025 86.7151 5.26495 86.6743 5.18332C86.6335 5.09353 86.6212 4.98743 86.6008 4.88948C86.1723 2.86926 85.0785 1.84895 82.9073 1.68162C81.4748 1.57143 80.0259 1.66121 78.5241 1.66121C78.5118 1.83671 78.4914 2.0122 78.4914 2.19178C78.4914 8.09733 78.4873 14.007 78.4996 19.9125C78.4996 20.3615 78.5893 20.8186 78.6751 21.2634C78.7852 21.8144 79.173 22.1082 79.7117 22.1572C80.3851 22.2225 81.0626 22.2388 81.7809 22.2756C81.8054 22.4959 81.936 22.749 81.5197 22.749C78.5485 22.749 75.5815 22.749 72.5654 22.749C72.5532 22.5613 72.541 22.4021 72.5246 22.1695C73.0511 22.1695 73.5368 22.1817 74.0224 22.1695C75.3407 22.1368 75.7692 21.7083 75.7692 20.4145C75.7733 14.3212 75.7692 8.22793 75.7692 2.13464C75.7692 1.98772 75.7488 1.8367 75.7325 1.5551C73.9694 1.6408 72.2185 1.61632 70.4963 1.84079C68.9535 2.04077 68.1251 3.17127 67.7251 4.62011C67.6516 4.88131 67.5782 5.14251 67.5047 5.39963C67.4516 5.39147 67.4027 5.38331 67.3496 5.37923C67.3496 3.81611 67.3496 2.25708 67.3496 0.661312C73.8674 0.657231 80.3933 0.657227 86.9437 0.657227Z" fill="black"/>
</svg>
