<svg width="59" height="63" viewBox="0 0 59 63" fill="none" xmlns="http://www.w3.org/2000/svg">
<path d="M20.0892 52.4397C18.8557 53.6269 17.7918 52.9331 16.7433 52.3934C12.6727 50.3118 10.5295 46.9814 10.4216 42.4019C10.3445 39.2102 10.3907 36.0339 10.3907 32.8422C10.3907 32.7497 10.4216 32.6417 10.4524 32.4875C15.8644 32.4875 21.2765 32.4875 26.7502 32.4875C26.7502 33.9061 26.7502 35.3246 26.7502 36.8049C26.1335 36.8049 25.5167 36.8049 24.8074 36.8049C24.8074 36.0802 24.8074 35.3709 24.8074 34.5999C20.6752 34.5999 16.6045 34.5999 12.4877 34.5999C12.4723 34.7079 12.426 34.8312 12.426 34.9392C12.4414 37.7917 12.3489 40.6442 12.5031 43.4967C12.6881 47.3052 14.5538 50.096 18.0385 51.7304C18.3469 51.8692 18.8557 51.8692 19.1641 51.7304C23.0188 49.9418 24.6532 46.7501 24.7766 42.6486C24.792 41.9702 24.7766 41.2763 24.7766 40.5517C23.7898 40.5517 22.8955 40.5517 21.8932 40.5517C21.8932 41.1684 21.8932 41.7543 21.8932 42.3248C21.8932 43.5892 21.7853 44.8535 21.9241 46.1025C22.0937 47.7369 21.1069 48.5695 19.935 49.4946C19.935 45.7633 19.935 42.1398 19.935 38.4701C23.5739 38.4701 27.2128 38.4701 30.9133 38.4701C30.9133 39.1177 30.9133 39.7653 30.9133 40.49C29.5873 40.49 28.2613 40.49 26.8736 40.49C26.8119 41.4922 26.7656 42.4328 26.6885 43.3733C26.3956 46.5805 25.0079 49.2017 22.4329 51.1753C22.2016 51.3449 22.0166 51.7612 22.0474 52.0542C22.51 56.7878 24.9925 60.0412 29.3406 61.9069C29.5719 62.0148 29.9419 61.9531 30.1886 61.8298C34.8297 59.7482 37.1888 56.0939 37.3739 51.0828C37.4972 47.6906 37.4201 44.2985 37.4201 40.9063C37.4201 40.8138 37.3893 40.7058 37.3584 40.5671C36.4487 40.5671 35.5699 40.5671 34.583 40.5671C34.4443 42.6949 34.4905 44.7919 35.354 46.7501C35.8166 47.7986 35.8628 48.8162 35.832 49.8955C35.832 49.9418 35.7857 49.988 35.6161 50.3427C35.4157 50.0035 35.3231 49.7413 35.1381 49.5255C33.442 47.5519 32.6403 45.2082 32.5786 42.6641C32.4861 39.3027 32.5631 35.9414 32.5631 32.503C37.9906 32.503 43.4181 32.503 48.8764 32.503C48.9072 32.6572 48.9381 32.7805 48.9381 32.9039C48.9227 36.296 49.0306 39.6882 48.8456 43.0804C48.568 48.3382 45.3917 51.4066 41.0436 53.041C40.5656 53.226 39.8872 52.856 39.2241 52.7172C39.1316 53.0718 39.0391 53.5036 38.9312 53.9353C37.821 58.0521 35.0764 60.7042 31.3605 62.5545C30.1732 63.1404 29.1864 63.1558 27.9991 62.5545C23.7898 60.4729 20.9527 57.3737 20.0892 52.4397ZM39.44 38.4393C39.44 42.5561 39.4554 46.565 39.44 50.5585C39.44 51.6225 40.3343 52.2238 41.3211 51.7612C44.7904 50.1114 46.6407 47.3206 46.8411 43.5121C46.9799 40.9217 46.9028 38.3313 46.9182 35.7409C46.9182 35.3709 46.9182 34.9854 46.9182 34.6154C42.7551 34.6154 38.6845 34.6154 34.6139 34.6154C34.6139 35.9106 34.6139 37.1595 34.6139 38.4547C36.2483 38.4393 37.8056 38.4393 39.44 38.4393Z" fill="#374554"/>
<path d="M5.56641 10.599C5.75143 10.4294 5.92105 10.1364 6.13692 10.0902C6.79993 9.9668 7.06206 9.56591 7.06206 8.96457C7.07747 6.68256 7.06206 4.38514 7.06206 2.10314C7.06206 1.51722 6.81534 1.11633 6.19858 1.03923C5.78227 0.992974 5.50474 0.823366 5.76686 0.237446C6.73825 0.237446 7.7559 0.206608 8.77355 0.268284C8.974 0.283703 9.20528 0.576663 9.32863 0.792528C10.3925 2.87409 11.4256 4.97106 12.4741 7.05262C12.5975 7.29932 12.7362 7.53061 12.9367 7.90066C13.6614 6.48212 14.3089 5.18693 14.972 3.89174C15.4808 2.8895 15.9896 1.87185 16.4984 0.869623C16.591 0.684595 16.6989 0.376216 16.8068 0.360797C17.8245 0.31454 18.8421 0.314541 19.8443 0.329959C19.8906 0.329959 19.9831 0.6075 19.9523 0.715433C19.9215 0.823366 19.7518 0.977555 19.6439 0.962136C18.6417 0.931298 18.58 1.54806 18.5954 2.33442C18.6263 4.60101 18.6108 6.85217 18.5954 9.11876C18.5954 9.70468 18.7496 10.0593 19.3972 10.0593C19.8444 10.0593 20.0911 10.2289 19.8906 10.784C18.4258 10.784 16.961 10.784 15.4345 10.784C15.3112 10.3523 15.3574 10.0439 15.9279 10.0593C16.4522 10.0593 16.7606 9.82803 16.7606 9.27295C16.7606 7.06804 16.7606 4.86313 16.7606 2.45777C16.5601 2.76615 16.4368 2.92034 16.3597 3.07453C15.2032 5.34112 14.0622 7.6077 12.9058 9.87429C12.7825 10.1056 12.582 10.2906 12.4124 10.5065C12.2274 10.2906 11.9961 10.0902 11.8728 9.84345C10.6392 7.45351 9.42114 5.04816 8.20304 2.6428C8.11053 2.68906 8.03344 2.70448 8.03344 2.7199C8.03344 4.77062 8.01802 6.82133 8.03344 8.88747C8.03344 9.53507 8.26472 10.0439 9.05108 10.0902C9.20527 10.1056 9.32864 10.3523 9.46741 10.491C9.31322 10.599 9.15903 10.8148 8.98942 10.8148C7.9101 10.8457 6.84619 10.8303 5.76686 10.8303C5.70518 10.7532 5.6435 10.6761 5.56641 10.599Z" fill="#374554"/>
<path d="M32.7111 25.536C32.526 25.7056 32.3564 26.014 32.1714 26.014C31.0921 26.0603 30.0282 26.0294 28.8872 26.0294C28.8718 25.7673 28.8563 25.5669 28.8409 25.3664C30.1361 25.0426 30.244 24.9347 30.244 23.6395C30.244 21.5579 30.2286 19.4764 30.244 17.3948C30.244 16.701 30.0128 16.2847 29.2881 16.1613C29.0722 16.1151 28.9026 15.8067 28.7021 15.6216C28.7484 15.56 28.7947 15.4829 28.8409 15.4212C29.7352 15.4212 30.6295 15.3904 31.5238 15.4366C31.7551 15.452 32.0172 15.6679 32.1868 15.8684C34.1142 18.0424 36.0261 20.2165 37.9381 22.406C38.1231 22.6064 38.3081 22.8069 38.6628 23.1769C38.6628 22.2826 38.6628 21.6042 38.6628 20.9103C38.6628 19.8002 38.6782 18.7054 38.6474 17.5953C38.6011 16.4389 38.4469 16.3001 37.3059 16.1305C37.2751 16.0688 37.2288 16.0071 37.2134 15.93C37.198 15.7913 37.2134 15.6371 37.2134 15.452C38.4932 15.452 39.7113 15.452 40.9756 15.452C41.0373 15.8375 41.1298 16.1613 40.5439 16.1921C39.8192 16.223 39.6188 16.7318 39.6034 17.364C39.5879 19.3993 39.5879 21.4192 39.5879 23.4545C39.5879 24.3179 39.5879 25.1968 39.5879 26.3532C39.0791 26.0757 38.6782 25.9678 38.4315 25.7056C36.2266 23.2694 34.0525 20.8024 31.8784 18.3354C31.6934 18.1349 31.5084 17.9345 31.1538 17.549C31.1538 18.5821 31.1538 19.3839 31.1538 20.1857C31.1538 21.3729 31.1383 22.5448 31.1692 23.732C31.2 24.9347 31.3542 25.1043 32.7111 25.536Z" fill="#374554"/>
<path d="M53.7013 5.33823C53.7167 8.85374 50.895 11.3516 47.2562 11.0587C44.2957 10.8119 42.4609 9.31631 42.06 6.81844C41.3815 2.56282 44.6966 -0.598066 49.1218 0.0957861C52.036 0.558354 53.6859 2.43947 53.7013 5.33823ZM43.8948 5.24571C43.864 5.26113 43.8331 5.26113 43.8023 5.27655C44.0028 6.14001 44.1261 7.04973 44.4345 7.86693C45.0512 9.4705 46.5469 10.3031 48.3046 10.1644C50.0316 10.0256 51.1417 9.10045 51.558 7.38895C51.8973 5.98582 51.8047 4.5827 51.2651 3.24125C50.5712 1.54517 49.0602 0.727963 47.0865 0.943828C45.4521 1.12886 44.3728 2.20818 44.049 4.02762C43.9719 4.42851 43.9411 4.84482 43.8948 5.24571Z" fill="#374554"/>
<path d="M32.229 10.7975C30.6408 10.7975 29.2377 10.7975 27.85 10.7975C27.8037 10.7358 27.7575 10.6587 27.6958 10.597C27.8808 10.4274 28.035 10.1653 28.2509 10.1036C29.0218 9.85691 29.1143 9.71814 28.8214 8.94719C28.2046 7.28195 28.2046 7.28195 26.416 7.28195C26.0614 7.28195 25.6913 7.26653 25.3367 7.28195C24.8741 7.29737 24.2111 7.1586 24.0107 7.4053C23.5943 7.92954 23.3476 8.62339 23.1626 9.28641C23.0084 9.84149 23.4556 10.0419 23.9336 10.0882C24.3807 10.1345 24.5966 10.3041 24.3961 10.8129C23.286 10.8129 22.1604 10.8129 20.9885 10.8129C20.9115 10.4428 20.8344 10.2115 21.3432 10.0265C21.6824 9.90317 21.9908 9.47144 22.1604 9.10138C23.4247 6.34139 24.6274 3.56598 25.8764 0.82141C25.9997 0.559288 26.3389 0.189233 26.4931 0.220071C26.7552 0.281747 27.0482 0.574707 27.1715 0.852248C28.4205 3.5814 29.6077 6.34139 30.8721 9.07055C31.0571 9.48686 31.5505 9.74898 31.8589 10.119C32.0131 10.2578 32.0902 10.5045 32.229 10.7975ZM26.046 2.57917C25.4446 3.95146 24.905 5.15413 24.3653 6.40307C25.5371 6.40307 26.5856 6.40307 27.7266 6.40307C27.1716 5.12329 26.6473 3.93604 26.046 2.57917Z" fill="#374554"/>
<path d="M30.7607 0.265932C32.5648 0.265932 34.045 0.265932 35.5252 0.265932C35.7411 0.743919 35.6177 0.944365 35.1243 0.990622C34.5538 1.0523 34.2454 1.36068 34.6155 1.93118C35.3093 2.99508 36.0494 4.04357 36.8512 5.19999C37.6376 4.05899 38.3931 3.04134 39.0561 1.96202C39.4262 1.36068 39.2257 1.16023 38.1156 0.867271C38.1156 0.682243 38.1156 0.481797 38.1156 0.219675C39.1795 0.219675 40.1971 0.204256 41.2302 0.235094C41.3844 0.235094 41.5386 0.404702 41.6928 0.512635C41.5848 0.682243 41.5077 0.867271 41.3535 0.990622C40.9989 1.299 40.5518 1.53029 40.2588 1.88492C39.7346 2.5171 39.3645 3.28804 38.8094 3.87396C37.4217 5.35418 37.0363 7.0811 37.2213 9.03931C37.283 9.6869 37.4371 10.0878 38.1464 10.0415C38.6707 10.0107 38.7323 10.3037 38.6244 10.7662C37.0979 10.7662 35.556 10.7662 33.9987 10.7662C33.8137 10.2882 33.937 10.0415 34.4767 10.0415C35.186 10.057 35.4018 9.67149 35.3864 9.00847C35.371 8.23752 35.4173 7.46658 35.371 6.69563C35.3556 6.38725 35.2322 6.04804 35.0472 5.78591C34.1375 4.44447 33.2123 3.11844 32.2564 1.82324C32.0097 1.48403 31.6088 1.28358 31.3004 0.990622C31.1308 0.851852 31.0229 0.620568 30.7607 0.265932Z" fill="#374554"/>
<path d="M11.0095 24.7048C10.0227 25.6762 8.85084 26.0925 7.58649 26.185C6.64593 26.2467 5.67455 26.2004 4.76483 26C2.46741 25.4603 1.04886 23.7951 0.786738 21.5593C0.524616 19.2619 1.68105 17.1186 3.74719 15.9931C5.61288 14.9908 8.72749 14.96 10.6703 15.9006C10.6394 17.5812 10.3156 18.4601 9.71431 18.4601C9.68347 18.4138 9.63722 18.383 9.6218 18.3367C9.42135 16.6561 9.06672 16.286 7.37064 16.101C4.24059 15.7618 2.18986 18.1363 2.80662 21.4205C3.3617 24.3964 6.01375 25.9383 8.97419 24.9515C9.49844 24.7819 10.0073 24.4889 10.5778 24.2268C10.6857 24.3501 10.8245 24.5197 11.0095 24.7048Z" fill="#374554"/>
<path d="M57.4198 18.6007C56.9726 16.6116 56.4792 16.1799 54.629 16.0874C52.2699 15.9794 50.6971 17.1975 50.3579 19.495C50.0804 21.4377 50.4504 23.2263 52.1619 24.4136C53.9043 25.6163 55.7545 25.4467 57.5431 24.4907C57.9594 24.2748 58.2678 24.0898 58.4991 24.7374C57.6511 25.5546 56.6026 25.9709 55.4462 26.1405C53.5034 26.4181 51.6223 26.2022 50.0649 24.8916C47.0274 22.332 47.9834 17.2901 51.8073 15.7482C53.7655 14.9464 55.77 15.0851 57.759 15.6711C58.1291 15.779 58.3295 15.964 58.2062 16.3958C58.0674 16.9354 58.0057 17.5059 57.8515 18.0456C57.8207 18.2614 57.574 18.4156 57.4198 18.6007Z" fill="#374554"/>
<path d="M21.4299 23.0985C21.2603 23.9774 21.1215 24.8562 20.9056 25.7197C20.8748 25.8585 20.5818 26.0281 20.3968 26.0281C17.8835 26.0435 15.3702 26.0435 12.8415 26.0281C12.6873 26.0281 12.5331 25.8585 12.379 25.766C12.4869 25.5963 12.5794 25.3188 12.7182 25.288C13.5662 25.1338 13.6587 24.5324 13.6433 23.8386C13.6433 21.6337 13.6279 19.4288 13.6433 17.2084C13.6433 16.5608 13.4429 16.1908 12.7336 16.16C12.5331 16.1445 12.3481 15.8362 12.1631 15.6665C12.2093 15.5895 12.2556 15.5278 12.3019 15.4507C13.8746 15.4507 15.4627 15.4507 17.0355 15.4507C17.2359 15.9749 17.0355 16.1908 16.5266 16.16C15.7403 16.1291 15.4627 16.4992 15.4782 17.2855C15.5244 19.5521 15.4782 21.8033 15.4936 24.0699C15.4936 25.0413 15.6169 25.1338 16.5575 25.1338C16.8967 25.1338 17.2359 25.1029 17.5597 25.1338C19.0554 25.3034 20.1038 24.7791 20.6589 23.3298C20.736 23.1293 20.9981 23.0214 21.1832 22.8672C21.2911 22.9751 21.3682 23.0368 21.4299 23.0985Z" fill="#374554"/>
<path d="M22.6808 25.299C22.9121 25.2682 23.128 25.2219 23.3592 25.1911C23.8064 25.1294 24.0377 24.9136 24.0377 24.4202C24.0223 21.9377 24.0223 19.4398 24.0377 16.9574C24.0377 16.3715 23.7139 16.171 23.2205 16.171C22.7116 16.171 22.4958 15.986 22.6654 15.4309C24.1765 15.4309 25.7029 15.4309 27.2602 15.4309C27.4299 15.8935 27.3682 16.1864 26.7823 16.1556C26.073 16.1402 25.8571 16.5102 25.8725 17.1732C25.888 19.3473 25.888 21.5368 25.8725 23.7109C25.8725 25.0832 25.8725 25.0832 27.2602 25.299C27.4453 25.8233 27.2911 26.0237 26.7206 26.0083C25.5487 25.9775 24.3615 25.9929 23.1742 26.0083C22.6346 26.0391 22.5112 25.7924 22.6808 25.299Z" fill="#374554"/>
<path d="M46.9684 26.0435C45.5652 26.0435 44.2084 26.0281 42.8515 26.0435C42.2656 26.0435 42.3273 25.7351 42.4198 25.3188C42.6665 25.288 42.8823 25.2417 43.1136 25.2109C43.5608 25.1492 43.7921 24.9179 43.7921 24.4399C43.7766 21.9421 43.7766 19.4596 43.7921 16.9617C43.7921 16.3758 43.4528 16.1908 42.9594 16.1908C42.4352 16.1908 42.2502 15.9903 42.4506 15.4507C43.9463 15.4507 45.4573 15.4507 47.0146 15.4507C47.1534 15.8978 47.138 16.2062 46.5521 16.1908C45.8582 16.1754 45.6423 16.5454 45.6423 17.2239C45.6732 19.5367 45.6732 21.8495 45.6423 24.1624C45.6269 24.8562 45.8736 25.2571 46.5829 25.2571C47.0917 25.2726 47.1534 25.5347 46.9684 26.0435Z" fill="#374554"/>
</svg>
