<svg width="69" height="25" viewBox="0 0 69 25" fill="none" xmlns="http://www.w3.org/2000/svg">
<path d="M59.4171 11.0704H53.9671L55.0194 6.63545H53.0762L52.0239 11.0704H50.2432L50.1624 11.4157H51.9432L49.5954 21.2358C49.4611 21.7829 49.2992 22.3586 49.2992 22.9921C49.2992 23.77 49.785 24.4607 50.8638 24.4607C52.8065 24.4607 53.7776 21.7252 53.8859 21.4085L53.6161 21.293C53.4271 21.7538 52.6716 23.5391 51.7542 23.5391C51.3767 23.5391 51.2147 23.3093 51.2147 22.8485C51.2147 22.5604 51.2684 22.2723 51.3496 21.9556L53.8588 11.4157H57.4202L55.0459 21.2358C54.9111 21.7538 54.7497 22.3872 54.7497 22.9348C54.7497 23.7409 55.2349 24.4607 56.3414 24.4607C58.2835 24.4607 59.2551 21.7252 59.3629 21.4085L59.0932 21.293C58.9042 21.7252 58.1226 23.5391 57.2583 23.5391C56.773 23.5391 56.6918 23.2516 56.6918 22.8194C56.6918 22.5313 56.746 22.2728 56.8267 21.9561L59.4171 11.0704ZM46.439 23.5397C45.9533 23.5397 45.8455 23.2521 45.8455 22.8771C45.8455 22.5895 45.8991 22.2728 45.9803 21.9561L47.7069 14.8143C47.8688 14.1517 48.0308 13.576 48.0308 12.7986C48.0308 11.9348 47.4913 10.8406 45.9533 10.8406C44.1996 10.8406 43.2551 12.3669 42.8776 13.0289L43.3363 11.0709H39.6395L39.5317 11.4162H41.2853L38.2097 24.2022H40.1523L42.2569 15.5335C42.7422 13.5755 43.8757 11.5598 45.1707 11.5598C45.9533 11.5598 46.1959 12.1069 46.1959 12.6254C46.1959 13.0861 46.061 13.5755 45.9262 14.1512L44.2267 21.2353C44.1184 21.6961 43.9299 22.5022 43.9299 23.0498C43.9299 23.8278 44.4152 24.4612 45.4945 24.4612C47.4372 24.4612 48.4088 21.7257 48.5436 21.409L48.2739 21.2935C48.0037 21.8692 47.2753 23.5397 46.439 23.5397ZM35.3766 21.9556L37.9936 11.0704H36.0514L35.7271 12.4813C35.6463 12.1932 35.4037 10.7823 33.6766 10.7823C31.383 10.7823 30.25 12.798 29.5216 14.8137C29.0899 16.0234 28.1995 19.047 28.1459 21.0918C28.0642 23.2802 29.0628 24.4607 30.628 24.4607C32.1119 24.4607 33.0559 22.8771 33.4069 22.0705C33.3798 22.186 33.3262 22.6181 33.3262 22.9348C33.2991 23.7409 33.8385 24.4607 34.8908 24.4607C36.9147 24.4607 37.8051 21.6961 37.9129 21.4085L37.6432 21.293C37.4541 21.7538 36.7257 23.5391 35.7812 23.5391C35.3766 23.5391 35.2142 23.2516 35.2418 22.7617C35.2418 22.5604 35.2959 22.2723 35.3766 21.9556ZM33.8385 20.0553C33.2179 22.1569 32.2468 23.77 31.0867 23.77C30.2771 23.77 29.8996 23.2515 29.9261 22.0996C30.0073 19.5368 31.4106 14.9583 31.7339 13.9499C32.2739 12.2509 33.0294 11.2722 34.0005 11.2722C34.8908 11.2722 35.323 12.1069 35.2959 13.0575C35.2418 14.4684 34.6211 17.2907 33.8385 20.0548V20.0553ZM25.1775 23.5397C24.7729 23.5397 24.6381 23.3093 24.6381 22.8485C24.6381 22.5604 24.6651 22.3014 24.7458 21.9561L29.7642 1.33717H26.0137L25.933 1.683H27.6867L22.9922 21.2358C22.8573 21.812 22.6954 22.4169 22.6954 23.0503C22.6954 23.77 23.1 24.4612 24.2059 24.4612C26.2027 24.4612 27.1743 21.812 27.3092 21.409L27.0394 21.2935C26.8504 21.7834 26.0408 23.5397 25.1775 23.5397ZM59.3364 6.1752C58.6886 6.1752 58.2299 6.72176 58.2299 7.49975C58.2299 8.13317 58.635 8.65166 59.2286 8.65166C59.8492 8.65166 60.3345 8.10457 60.3345 7.3557C60.3345 6.69367 59.9299 6.1752 59.3364 6.1752ZM65.7043 10.7823C63.3831 10.7823 62.1694 12.5396 61.4675 14.7851C61.0088 16.2257 60.2809 18.5576 60.2809 21.149C60.2809 22.4736 60.8479 24.4607 63.3024 24.4607C65.8657 24.4607 66.9716 21.034 67.1336 20.631L66.7832 20.4578C66.4322 21.3508 65.4877 23.7118 63.8423 23.7118C62.79 23.7118 62.223 22.8485 62.223 21.2353C62.223 18.9029 62.8978 16.4846 63.4914 14.5834C64.2198 12.2509 64.6786 11.1567 65.7574 11.1567C66.4593 11.1567 66.8915 11.5021 66.8915 11.9628C66.8915 12.6254 66.4864 12.9421 66.4864 13.5464C66.4864 14.094 66.8644 14.497 67.3497 14.497C67.9432 14.497 68.3207 13.9786 68.3207 13.1434C68.3207 12.2801 67.8625 10.7823 65.7038 10.7823H65.7043ZM19.6463 23.5397C19.2953 23.5397 19.0798 23.3093 19.0798 22.8485C19.0798 22.6181 19.1339 22.2728 19.2146 21.9561L21.7509 11.4162H23.8284L23.9091 11.0709H21.8321L22.911 6.63545H20.9683L19.8889 11.0704H18.2972L18.2165 11.4157H19.8082L17.461 21.2353C17.3256 21.7829 17.1642 22.33 17.1642 23.0498C17.1642 23.7409 17.5688 24.4607 18.6747 24.4607C20.7257 24.4607 21.616 21.7829 21.778 21.4085L21.5082 21.293C21.3192 21.7538 20.5366 23.5391 19.6463 23.5391V23.5397ZM3.02609 8.27724H2.37734L3.91543 1.85567H4.18515C4.88702 1.85567 5.04844 1.94199 4.83287 3.23796H4.9948L5.37281 1.65388H1.7572L1.37919 3.23796H1.54111C1.94569 2.14326 2.10813 1.85567 2.83657 1.85567H3.15992L1.62234 8.27724H1.02876L0.974609 8.47899H2.97194L3.02506 8.27724H3.02609ZM4.48296 8.47849H5.15725L5.85861 5.59896C6.04761 4.85009 6.45218 4.18755 6.88383 4.18755C7.15406 4.18755 7.23528 4.38933 7.23528 4.53338C7.23528 4.70604 7.18062 4.93694 7.12648 5.13821L6.58705 7.3552C6.56048 7.44204 6.47926 7.81597 6.47926 8.01774C6.47926 8.30585 6.61412 8.56483 6.99162 8.56483C7.69349 8.56483 7.99028 7.70152 8.0715 7.49975L7.93613 7.44253C7.85542 7.6438 7.61278 8.19091 7.31599 8.19091C7.2077 8.19091 7.15355 8.13319 7.15355 7.96053C7.15355 7.81648 7.20821 7.52886 7.23528 7.41341L7.77471 5.25366C7.82886 5.02328 7.88198 4.79288 7.88198 4.53338C7.88198 4.21667 7.69298 3.84275 7.15406 3.84275C6.58704 3.84275 6.20903 4.38933 6.10176 4.5625L6.80261 1.65388H5.67011L5.61546 1.85567H6.07469L4.48296 8.47899V8.47849ZM9.44715 8.56533C10.3375 8.56533 10.7692 7.47116 10.8504 7.24078L10.6885 7.15392C10.5265 7.55747 10.1756 8.2195 9.58201 8.2195C9.23107 8.2195 9.04258 7.96052 9.04258 7.49925C9.04258 7.18254 9.09622 6.86582 9.15036 6.60683C9.98658 6.40557 11.3898 5.65669 11.3898 4.61971C11.3898 4.15946 11.1472 3.84275 10.5802 3.84275C9.52786 3.84275 8.39485 5.65619 8.39485 7.38482C8.39485 8.01825 8.6375 8.56483 9.44715 8.56483V8.56533ZM10.5802 4.04404C10.8233 4.04404 10.904 4.15949 10.904 4.38987C10.904 5.13874 10.1756 6.08885 9.204 6.37695C9.44715 5.16732 10.0678 4.04404 10.5802 4.04404Z" fill="#231F20"/>
<path d="M16.7298 0.876465L2.07893 23.8564H0.891929L0.810547 24.2022H4.48033L4.56108 23.8564H2.51051L8.13009 15.0448H13.3742L12.44 23.8564H10.7128L10.6321 24.2022H15.9744L16.0556 23.8564H14.5445L16.9731 0.876465H16.7298ZM13.4142 14.6703H8.36897L14.3558 5.28228H14.41L13.4142 14.6703Z" fill="#231F20"/>
</svg>
