<svg width="94" height="22" viewBox="0 0 94 22" fill="none" xmlns="http://www.w3.org/2000/svg">
<path d="M8.45661 11.6854C8.53844 11.6656 8.60965 11.6154 8.65569 11.5449C8.70174 11.4745 8.71914 11.3891 8.70434 11.3062C8.66718 11.1287 8.49514 11.0082 8.32311 11.053C8.2818 11.0594 8.24226 11.0743 8.20689 11.0966C8.17152 11.1188 8.14108 11.1481 8.11743 11.1826C8.09379 11.2171 8.07743 11.256 8.06937 11.297C8.06131 11.338 8.06171 11.3803 8.07056 11.4211C8.10634 11.6035 8.277 11.7274 8.45592 11.6854H8.45661ZM15.0263 10.3146C15.1082 10.2944 15.1793 10.2439 15.2253 10.1732C15.2713 10.1026 15.2887 10.0171 15.2741 9.93405C15.2362 9.75513 15.0635 9.63402 14.8914 9.67944C14.8501 9.68649 14.8106 9.70183 14.7754 9.72453C14.7401 9.74723 14.7098 9.77683 14.6863 9.81154C14.6628 9.84625 14.6465 9.88536 14.6385 9.92652C14.6304 9.96767 14.6308 10.01 14.6396 10.051C14.674 10.2286 14.846 10.3518 15.0263 10.3146ZM9.24453 13.1387C9.3383 13.0642 9.39936 12.956 9.41478 12.8372C9.43019 12.7184 9.39875 12.5982 9.32711 12.5022C9.25012 12.4109 9.14132 12.3524 9.02275 12.3383C8.90418 12.3242 8.7847 12.3558 8.68851 12.4265C8.64267 12.463 8.60451 12.5082 8.57624 12.5595C8.54797 12.6108 8.53016 12.6672 8.52382 12.7254C8.51749 12.7836 8.52276 12.8425 8.53933 12.8987C8.55591 12.9549 8.58346 13.0073 8.62039 13.0527C8.76696 13.2461 9.05185 13.2943 9.24453 13.1387ZM14.6155 8.92386C14.709 8.84887 14.7697 8.74039 14.7846 8.62143C14.7995 8.50247 14.7675 8.38238 14.6953 8.28664C14.6185 8.19637 14.5102 8.13864 14.3925 8.1251C14.2747 8.11156 14.1562 8.14322 14.0609 8.21369C14.0152 8.25015 13.9773 8.29525 13.9491 8.34641C13.9209 8.39757 13.9032 8.45378 13.8968 8.51183C13.8904 8.56987 13.8955 8.62861 13.9119 8.68467C13.9282 8.74073 13.9555 8.79302 13.992 8.83853C14.1393 9.03258 14.4235 9.08007 14.6155 8.92386ZM11.0089 14.1565C11.0379 14.0828 11.0518 14.0041 11.05 13.925C11.0482 13.8459 11.0306 13.7679 10.9983 13.6957C10.966 13.6234 10.9197 13.5583 10.8619 13.5042C10.8042 13.45 10.7363 13.4079 10.6621 13.3803C10.3387 13.2543 10.0015 13.4126 9.86868 13.7395C9.74894 14.0471 9.9141 14.3932 10.2306 14.5164C10.3816 14.5693 10.5472 14.5613 10.6924 14.4941C10.8376 14.4269 10.9509 14.3058 11.0082 14.1565H11.0089ZM13.4491 7.64253C13.4772 7.56877 13.4905 7.49017 13.4882 7.41125C13.4858 7.33234 13.4679 7.25467 13.4354 7.18272C13.4029 7.11076 13.3565 7.04595 13.2988 6.992C13.2412 6.93805 13.1735 6.89603 13.0995 6.86837C12.7768 6.7445 12.441 6.90415 12.3068 7.22758C12.185 7.53725 12.3529 7.88269 12.666 8.00518C12.986 8.10841 13.3287 7.95977 13.4491 7.64253ZM14.5391 11.4432C14.4854 11.6923 14.6079 11.9249 14.8495 11.9889C14.9636 12.0183 15.0847 12.002 15.1869 11.9433C15.2891 11.8847 15.3644 11.7884 15.3965 11.6751C15.4111 11.6191 15.4144 11.5608 15.4062 11.5036C15.3981 11.4464 15.3786 11.3914 15.3491 11.3417C15.3195 11.292 15.2804 11.2487 15.2339 11.2143C15.1875 11.1798 15.1347 11.155 15.0786 11.1411C15.0233 11.1253 14.9654 11.1206 14.9083 11.1273C14.8512 11.1339 14.7959 11.1519 14.7458 11.18C14.6956 11.2082 14.6515 11.246 14.6161 11.2913C14.5806 11.3365 14.5544 11.3884 14.5391 11.4438V11.4432ZM13.6418 12.677C13.5207 12.8038 13.4535 12.9727 13.4546 13.1481C13.4556 13.3235 13.5247 13.4916 13.6473 13.617C13.9088 13.8682 14.3217 13.864 14.5584 13.6149C14.8302 13.3603 14.835 12.933 14.5763 12.6859C14.4533 12.5613 14.286 12.4904 14.1109 12.4887C13.9358 12.487 13.7671 12.5547 13.6418 12.677ZM12.2627 13.3995C11.9083 13.489 11.6613 13.8544 11.7487 14.2129C11.8264 14.5873 12.2029 14.8226 12.569 14.7414C12.9426 14.665 13.1683 14.2886 13.094 13.9219C13.0046 13.5454 12.6405 13.3266 12.2627 13.3995ZM7.92742 9.67806C7.86067 9.92304 7.99968 10.1563 8.24535 10.2306C8.32909 10.2512 8.41703 10.2468 8.49826 10.2178C8.57949 10.1889 8.65043 10.1367 8.7023 10.0678C8.75416 9.99894 8.78466 9.91634 8.79001 9.83027C8.79536 9.74421 8.77532 9.65847 8.73239 9.58368C8.68946 9.5089 8.62551 9.44836 8.54849 9.40958C8.47147 9.37081 8.38476 9.35549 8.29911 9.36554C8.21347 9.37559 8.13266 9.41057 8.06671 9.46612C8.00076 9.52168 7.95257 9.59537 7.92811 9.67806H7.92742ZM8.74838 7.74851C8.50065 8.01069 8.48964 8.42151 8.74494 8.67475C8.80626 8.73681 8.87928 8.78609 8.95978 8.81972C9.04029 8.85335 9.12666 8.87067 9.21391 8.87067C9.30115 8.87067 9.38753 8.85335 9.46803 8.81972C9.54854 8.78609 9.62156 8.73681 9.68288 8.67475C9.7437 8.61339 9.79183 8.54065 9.82454 8.46069C9.85725 8.38072 9.87388 8.2951 9.8735 8.20871C9.87312 8.12232 9.85572 8.03684 9.82231 7.95717C9.78889 7.8775 9.74011 7.8052 9.67875 7.74438C9.61739 7.68356 9.54465 7.63542 9.46469 7.60272C9.38473 7.57001 9.2991 7.55337 9.21271 7.55376C9.12632 7.55414 9.04085 7.57154 8.96118 7.60495C8.88151 7.63837 8.8092 7.68715 8.74838 7.74851ZM10.7557 6.62546C10.5773 6.66228 10.4206 6.76817 10.3199 6.92003C10.2193 7.07188 10.1827 7.25739 10.2183 7.43609C10.3125 7.80562 10.6724 8.04166 11.0495 7.95495C11.2261 7.91547 11.3798 7.80763 11.4771 7.65506C11.5743 7.50249 11.6072 7.3176 11.5684 7.14087C11.4824 6.77616 11.1142 6.53875 10.7564 6.62546H10.7557ZM15.1454 14.8708C15.3429 15.0628 15.636 15.069 15.8239 14.8694C15.8698 14.8278 15.9065 14.777 15.9318 14.7204C15.957 14.6638 15.9702 14.6025 15.9705 14.5406C15.9709 14.4786 15.9583 14.4172 15.9336 14.3603C15.909 14.3034 15.8728 14.2523 15.8273 14.2102C15.7842 14.1648 15.7324 14.1284 15.6751 14.1032C15.6177 14.078 15.5559 14.0644 15.4933 14.0633C15.4306 14.0622 15.3684 14.0736 15.3102 14.0968C15.252 14.12 15.199 14.1546 15.1543 14.1985C14.9685 14.3863 14.9665 14.6939 15.1461 14.8708H15.1454ZM7.44228 7.12367C7.63359 7.31222 7.93843 7.32117 8.12423 7.12092C8.21268 7.0313 8.26215 6.91039 8.26189 6.78448C8.26164 6.65857 8.21167 6.53785 8.12286 6.4486C8.03233 6.3601 7.91083 6.31043 7.78422 6.31018C7.65762 6.30992 7.53592 6.35909 7.44503 6.44723C7.35771 6.53801 7.3087 6.65893 7.30819 6.7849C7.30768 6.91086 7.3557 7.03218 7.44228 7.12367ZM16.4969 13.2055C16.6142 13.2552 16.7466 13.2564 16.8647 13.2086C16.9829 13.1609 17.0773 13.0682 17.1272 12.9509C17.1754 12.8338 17.1756 12.7025 17.1277 12.5853C17.0798 12.4681 16.9876 12.3745 16.8712 12.3247C16.8141 12.2988 16.7523 12.2849 16.6896 12.2839C16.6269 12.2829 16.5647 12.2948 16.5068 12.3188C16.4489 12.3427 16.3965 12.3784 16.3529 12.4234C16.3093 12.4685 16.2754 12.522 16.2533 12.5807C16.2278 12.6376 16.2138 12.6991 16.2123 12.7615C16.2107 12.8238 16.2216 12.8859 16.2443 12.9441C16.267 13.0022 16.301 13.0553 16.3443 13.1001C16.3877 13.145 16.4396 13.1808 16.4969 13.2055ZM17.1768 11.3317C17.2521 11.3327 17.3269 11.3188 17.3969 11.2908C17.4669 11.2628 17.5307 11.2213 17.5846 11.1686C17.6385 11.1159 17.6814 11.0531 17.711 10.9838C17.7406 10.9145 17.7562 10.84 17.7569 10.7646C17.7587 10.6894 17.7456 10.6146 17.7183 10.5445C17.6911 10.4744 17.6502 10.4104 17.598 10.3562C17.5459 10.302 17.4835 10.2587 17.4145 10.2288C17.3455 10.1988 17.2712 10.1829 17.196 10.1818C17.0441 10.1795 16.8974 10.2371 16.7875 10.342C16.6775 10.4469 16.6132 10.5908 16.6084 10.7426C16.6108 10.8946 16.6708 11.0399 16.7764 11.1493C16.8819 11.2587 17.025 11.3238 17.1768 11.3317ZM17.1685 9.30302C17.2592 9.26838 17.342 9.21581 17.412 9.14845C17.4819 9.08109 17.5376 9.00032 17.5756 8.91097C17.6136 8.82163 17.6332 8.72553 17.6333 8.62843C17.6333 8.53132 17.6138 8.43521 17.5759 8.34582C17.4314 7.97422 17.0116 7.77466 16.6386 7.92536C16.2485 8.07813 16.0578 8.50065 16.2072 8.8805C16.3606 9.26655 16.7852 9.45098 17.1685 9.30302ZM6.39905 8.9968C6.51778 9.04348 6.65001 9.04215 6.76778 8.99309C6.88554 8.94403 6.97961 8.8511 7.03008 8.73393C7.07733 8.61644 7.07712 8.4852 7.02949 8.36787C6.98187 8.25054 6.89055 8.15628 6.77478 8.10497C6.71639 8.08083 6.65379 8.06848 6.5906 8.06864C6.52741 8.0688 6.46488 8.08147 6.40661 8.1059C6.34834 8.13033 6.29548 8.16606 6.25107 8.21101C6.20667 8.25597 6.1716 8.30927 6.14788 8.36784C6.10037 8.48481 6.09998 8.61564 6.14681 8.7329C6.19363 8.85015 6.28403 8.94473 6.39905 8.9968ZM6.07838 11.139C6.22988 11.1381 6.37506 11.0782 6.48302 10.9719C6.59098 10.8656 6.6532 10.7214 6.65642 10.5699C6.65618 10.4207 6.59825 10.2773 6.49475 10.1699C6.39124 10.0624 6.25019 9.99909 6.10109 9.99323C6.02563 9.99057 5.9504 10.0029 5.87976 10.0296C5.80913 10.0563 5.74449 10.0967 5.68962 10.1486C5.63475 10.2004 5.59073 10.2627 5.56013 10.3317C5.52952 10.4007 5.51294 10.4751 5.51135 10.5506C5.50989 10.6265 5.5234 10.7019 5.55112 10.7726C5.57884 10.8432 5.62021 10.9077 5.67288 10.9624C5.72554 11.017 5.78847 11.0607 5.85805 11.0911C5.92762 11.1214 6.0025 11.1377 6.07838 11.139ZM6.64266 13.3934C6.73409 13.3583 6.8176 13.3053 6.88831 13.2376C6.95903 13.1698 7.01552 13.0887 7.05448 12.9988C7.09344 12.909 7.11409 12.8123 7.11522 12.7144C7.11634 12.6165 7.09793 12.5193 7.06105 12.4286C7.02701 12.3381 6.97508 12.2554 6.90838 12.1854C6.84167 12.1154 6.76154 12.0596 6.67278 12.0212C6.58402 11.9829 6.48845 11.9628 6.39176 11.9622C6.29507 11.9616 6.19926 11.9805 6.11003 12.0178C6.01987 12.0523 5.93742 12.1044 5.86744 12.1709C5.79746 12.2375 5.74132 12.3172 5.70225 12.4055C5.66318 12.4938 5.64194 12.589 5.63977 12.6855C5.63759 12.7821 5.65452 12.8781 5.68958 12.9681C5.84097 13.3466 6.25867 13.5413 6.64266 13.3934ZM13.5193 15.2431C13.4563 15.2682 13.3991 15.3056 13.3508 15.3532C13.3025 15.4008 13.2642 15.4575 13.2382 15.5201C13.2122 15.5827 13.1989 15.6498 13.1992 15.7176C13.1995 15.7853 13.2133 15.8524 13.2399 15.9147C13.2923 16.0419 13.3925 16.1435 13.5189 16.1978C13.6454 16.2521 13.788 16.2547 13.9163 16.2051C13.98 16.1795 14.0378 16.1413 14.0864 16.0929C14.135 16.0444 14.1733 15.9867 14.199 15.9231C14.2248 15.8595 14.2375 15.7914 14.2363 15.7228C14.2351 15.6542 14.2202 15.5865 14.1923 15.5238C14.1677 15.4603 14.1305 15.4024 14.083 15.3536C14.0355 15.3048 13.9785 15.2661 13.9157 15.2399C13.8528 15.2137 13.7853 15.2004 13.7172 15.201C13.649 15.2015 13.5817 15.2159 13.5193 15.2431ZM11.6193 15.5128C11.2388 15.506 10.927 15.8232 10.9195 16.2065C10.927 16.6022 11.2388 16.9015 11.6138 16.9125C11.7988 16.9101 11.9756 16.8361 12.1072 16.7062C12.2389 16.5762 12.3151 16.4003 12.3198 16.2154C12.326 15.8356 12.0116 15.5218 11.6193 15.5128ZM9.82533 15.1536C9.41863 14.9816 8.95826 15.1901 8.78898 15.5975C8.71354 15.7931 8.71827 16.0106 8.80213 16.2028C8.88599 16.395 9.04222 16.5464 9.23696 16.6242C9.3323 16.6636 9.43449 16.6837 9.53765 16.6834C9.6408 16.6832 9.74289 16.6625 9.83801 16.6226C9.93313 16.5826 10.0194 16.5243 10.0919 16.4509C10.1643 16.3775 10.2216 16.2904 10.2602 16.1948C10.3401 15.999 10.3392 15.7795 10.2577 15.5844C10.1762 15.3893 10.0208 15.2344 9.82533 15.1536ZM8.25154 14.0175C8.1712 13.9352 8.07534 13.8697 7.96951 13.8247C7.86367 13.7797 7.74997 13.7561 7.63496 13.7553C7.51996 13.7546 7.40595 13.7766 7.29953 13.8202C7.1931 13.8638 7.09637 13.928 7.01494 14.0092C6.93143 14.0899 6.86474 14.1863 6.81873 14.2929C6.77272 14.3995 6.7483 14.5141 6.74689 14.6302C6.74548 14.7463 6.76711 14.8615 6.81052 14.9692C6.85394 15.0769 6.91827 15.1749 6.9998 15.2575C7.16583 15.4224 7.38985 15.5157 7.62385 15.5174C7.85784 15.5191 8.08318 15.429 8.25154 15.2665C8.33383 15.1846 8.39913 15.0873 8.44369 14.9802C8.48825 14.873 8.51118 14.7581 8.51118 14.642C8.51118 14.5259 8.48825 14.411 8.44369 14.3038C8.39913 14.1967 8.33383 14.0994 8.25154 14.0175ZM9.36083 5.1198C9.23401 5.17118 9.13267 5.27063 9.07891 5.39646C9.02515 5.52229 9.02334 5.66427 9.07387 5.79142C9.1279 5.91955 9.22953 6.02171 9.35738 6.07639C9.48522 6.13107 9.6293 6.134 9.75926 6.08457C9.88606 6.02988 9.98612 5.92732 10.0377 5.79922C10.0892 5.67111 10.0881 5.52783 10.0345 5.40056C10.0095 5.33722 9.972 5.27955 9.92426 5.23097C9.87652 5.1824 9.81951 5.14391 9.75661 5.11778C9.69371 5.09166 9.62621 5.07844 9.5581 5.0789C9.49 5.07937 9.42268 5.09351 9.36014 5.12048L9.36083 5.1198ZM11.6613 4.40894C11.4749 4.40912 11.2963 4.48318 11.1644 4.61489C11.0326 4.74659 10.9584 4.92519 10.958 5.11154C10.9642 5.47488 11.267 5.79555 11.6585 5.79693C11.7496 5.79776 11.8399 5.78041 11.9242 5.7459C12.0085 5.71138 12.0851 5.6604 12.1494 5.59593C12.2138 5.53146 12.2646 5.45481 12.2989 5.37045C12.3333 5.28609 12.3504 5.19573 12.3494 5.10466C12.3563 4.73512 12.0418 4.41307 11.6613 4.40894ZM14.0492 4.6959C13.8545 4.61938 13.6377 4.62162 13.4446 4.70215C13.2516 4.78268 13.0975 4.93518 13.0149 5.12737C12.8538 5.52649 13.0534 6.00681 13.4505 6.16577C13.5474 6.20493 13.651 6.22456 13.7555 6.22353C13.86 6.2225 13.9633 6.20084 14.0594 6.15979C14.1555 6.11874 14.2426 6.05911 14.3156 5.98432C14.3885 5.90953 14.446 5.82106 14.4848 5.72399C14.524 5.62791 14.5438 5.52504 14.5431 5.42127C14.5424 5.31751 14.5212 5.2149 14.4808 5.11936C14.4403 5.02381 14.3813 4.93721 14.3072 4.86454C14.2332 4.79187 14.1455 4.73455 14.0492 4.6959ZM16.265 6.06599C15.914 5.71986 15.3587 5.71298 15.0132 6.07012C14.6726 6.39837 14.6726 6.95783 15.0132 7.29915C15.0945 7.38182 15.1912 7.44764 15.298 7.49285C15.4047 7.53806 15.5193 7.56175 15.6352 7.56259C15.7511 7.56342 15.866 7.54136 15.9734 7.49769C16.0807 7.45402 16.1784 7.38959 16.2609 7.30809C16.6084 6.95714 16.6173 6.41007 16.2643 6.06599H16.265ZM16.3593 16.8348C16.395 16.8769 16.4386 16.9116 16.4877 16.9368C16.5369 16.962 16.5905 16.9773 16.6455 16.9818C16.7005 16.9863 16.7559 16.9798 16.8085 16.9629C16.861 16.9459 16.9097 16.9187 16.9517 16.8829C16.994 16.8478 17.0287 16.8045 17.054 16.7557C17.0792 16.707 17.0945 16.6536 17.0988 16.5988C17.1031 16.544 17.0963 16.489 17.079 16.4368C17.0617 16.3847 17.0341 16.3366 16.9979 16.2953C16.9624 16.2533 16.9191 16.2188 16.8703 16.1936C16.8215 16.1684 16.7683 16.1531 16.7136 16.1485C16.6589 16.1439 16.6038 16.1501 16.5515 16.1668C16.4992 16.1835 16.4507 16.2103 16.4088 16.2457C16.3669 16.2811 16.3323 16.3245 16.3071 16.3732C16.282 16.422 16.2666 16.4753 16.262 16.53C16.2574 16.5847 16.2637 16.6397 16.2803 16.692C16.297 16.7443 16.3238 16.7928 16.3593 16.8348ZM17.633 15.6876C17.6839 15.7257 17.7419 15.7533 17.8036 15.7688C17.8653 15.7843 17.9295 15.7874 17.9924 15.7778C18.0552 15.7683 18.1156 15.7463 18.1699 15.7133C18.2242 15.6802 18.2714 15.6366 18.3088 15.5851C18.3851 15.4828 18.4178 15.3544 18.3997 15.228C18.3817 15.1017 18.3143 14.9876 18.2124 14.9107C18.1614 14.8727 18.1033 14.8451 18.0416 14.8294C17.9799 14.8138 17.9157 14.8105 17.8527 14.8197C17.7896 14.8289 17.7291 14.8505 17.6744 14.8831C17.6197 14.9157 17.572 14.9587 17.5339 15.0098C17.4959 15.0609 17.4683 15.1189 17.4526 15.1806C17.437 15.2424 17.4337 15.3066 17.4429 15.3696C17.4521 15.4326 17.4737 15.4932 17.5063 15.5479C17.5389 15.6025 17.582 15.6503 17.633 15.6883V15.6876ZM18.7409 14.1221C18.8105 14.1513 18.8852 14.1662 18.9607 14.1659C19.0361 14.1657 19.1108 14.1502 19.1801 14.1205C19.2495 14.0907 19.3121 14.0473 19.3643 13.9929C19.4166 13.9384 19.4573 13.874 19.4841 13.8035C19.5126 13.7339 19.5269 13.6593 19.5263 13.5841C19.5257 13.5089 19.5101 13.4346 19.4806 13.3654C19.451 13.2963 19.408 13.2337 19.354 13.1813C19.3 13.1289 19.2362 13.0878 19.1662 13.0603C19.0966 13.0322 19.022 13.0182 18.947 13.019C18.8719 13.0199 18.7977 13.0356 18.7287 13.0653C18.6597 13.095 18.5973 13.138 18.5451 13.192C18.4929 13.2459 18.4518 13.3097 18.4244 13.3796C18.3693 13.5202 18.3716 13.6769 18.4308 13.8159C18.49 13.9549 18.6013 14.0651 18.7409 14.1228V14.1221ZM19.4938 12.0831C19.5726 12.0916 19.6523 12.0845 19.7283 12.0622C19.8044 12.0399 19.8753 12.0028 19.937 11.9531C19.9987 11.9034 20.0501 11.842 20.0881 11.7725C20.1261 11.7029 20.15 11.6266 20.1585 11.5478C20.167 11.469 20.1599 11.3892 20.1376 11.3132C20.1153 11.2371 20.0782 11.1662 20.0285 11.1045C19.9788 11.0428 19.9174 10.9914 19.8478 10.9534C19.7783 10.9154 19.7019 10.8915 19.6231 10.883C19.4635 10.8662 19.3037 10.913 19.1784 11.0134C19.0532 11.1138 18.9726 11.2596 18.9543 11.4191C18.9178 11.7487 19.1607 12.0535 19.4938 12.0831ZM19.6451 9.96708C20.0463 9.89965 20.3182 9.50947 20.2397 9.10553C20.2135 8.96102 20.1451 8.82754 20.043 8.72198C19.9409 8.61642 19.8097 8.54354 19.6662 8.51258C19.5226 8.48162 19.3731 8.49396 19.2366 8.54804C19.1 8.60213 18.9826 8.69552 18.8992 8.81639C18.8158 8.93725 18.7701 9.08016 18.768 9.227C18.7659 9.37384 18.8074 9.51801 18.8873 9.64124C18.9672 9.76447 19.0818 9.86122 19.2167 9.91922C19.3517 9.97723 19.5008 9.99389 19.6451 9.96708ZM6.29652 5.01176C6.45479 5.18586 6.71422 5.20994 6.88695 5.06199C6.97119 4.99002 7.02391 4.88793 7.03381 4.77758C7.04372 4.66723 7.01002 4.55738 6.93994 4.47156C6.86658 4.38855 6.76381 4.33733 6.65337 4.32872C6.54292 4.32012 6.43346 4.35481 6.34813 4.42546C6.26452 4.49699 6.21228 4.59846 6.20263 4.70807C6.19299 4.81768 6.22669 4.92671 6.29652 5.01176ZM5.09089 6.39974C5.30697 6.55802 5.60907 6.51398 5.76665 6.29377C5.80488 6.24384 5.83276 6.18677 5.84863 6.12592C5.8645 6.06506 5.86806 6.00165 5.85908 5.9394C5.85011 5.87716 5.82878 5.81733 5.79637 5.76344C5.76395 5.70955 5.72109 5.66268 5.67031 5.62558C5.61973 5.58693 5.56194 5.55877 5.50034 5.54274C5.43873 5.52671 5.37455 5.52315 5.31155 5.53225C5.24854 5.54135 5.18799 5.56293 5.13344 5.59574C5.07889 5.62855 5.03144 5.67191 4.99386 5.7233C4.9558 5.77408 4.92812 5.83186 4.91239 5.89334C4.89667 5.95483 4.89321 6.01881 4.90223 6.08162C4.91124 6.14444 4.93254 6.20487 4.96491 6.25946C4.99728 6.31404 5.04009 6.36171 5.09089 6.39974ZM4.12887 8.24879C4.27081 8.30493 4.42919 8.30265 4.56946 8.24244C4.70973 8.18223 4.82049 8.06899 4.87757 7.92742C4.93357 7.78671 4.9314 7.62951 4.87152 7.4904C4.81164 7.35129 4.69897 7.24165 4.55827 7.1856C4.41669 7.12887 4.25842 7.13046 4.11801 7.19002C3.9776 7.24959 3.86647 7.3623 3.80888 7.50353C3.75464 7.64496 3.75773 7.80197 3.81749 7.94115C3.87725 8.08034 3.98897 8.19071 4.12887 8.24879ZM3.67882 10.4254C4.00913 10.4667 4.30916 10.2169 4.3532 9.88795C4.36631 9.7273 4.31606 9.56789 4.21318 9.4438C4.11031 9.31971 3.96298 9.24078 3.80269 9.22389C3.64387 9.20787 3.48516 9.2552 3.36106 9.35559C3.23696 9.45597 3.15752 9.6013 3.14 9.75995C3.13114 9.83912 3.1381 9.91925 3.16047 9.99571C3.18283 10.0722 3.22016 10.1434 3.27029 10.2053C3.32042 10.2672 3.38235 10.3186 3.45248 10.3563C3.52261 10.3941 3.59954 10.4176 3.67882 10.4254ZM3.91829 12.7995C4.32705 12.7279 4.59268 12.3412 4.51698 11.9407C4.5006 11.8444 4.46515 11.7523 4.41269 11.6698C4.36024 11.5874 4.29184 11.5163 4.21152 11.4606C4.1312 11.405 4.04057 11.366 3.94496 11.3458C3.84935 11.3257 3.75067 11.3248 3.65473 11.3434C3.55912 11.3607 3.46786 11.3966 3.38615 11.4492C3.30444 11.5018 3.23389 11.57 3.17852 11.6498C3.12315 11.7296 3.08405 11.8196 3.06345 11.9146C3.04285 12.0095 3.04115 12.1076 3.05846 12.2032C3.07576 12.2988 3.11173 12.3901 3.16431 12.4718C3.21688 12.5535 3.28504 12.6241 3.36488 12.6794C3.44473 12.7348 3.53469 12.7739 3.62965 12.7945C3.7246 12.8151 3.82268 12.8168 3.91829 12.7995ZM15.197 17.1678C15.1556 17.1905 15.1192 17.2211 15.0896 17.2579C15.0601 17.2947 15.0381 17.3369 15.025 17.3822C15.0118 17.4274 15.0076 17.4749 15.0127 17.5217C15.0179 17.5686 15.0322 17.614 15.0549 17.6554C15.0776 17.6967 15.1082 17.7332 15.1449 17.7627C15.1817 17.7922 15.224 17.8142 15.2692 17.8274C15.3145 17.8406 15.3619 17.8447 15.4088 17.8396C15.4557 17.8345 15.5011 17.8202 15.5424 17.7975C15.6193 17.7483 15.6747 17.6718 15.6973 17.5833C15.7199 17.4949 15.7081 17.4011 15.6641 17.3211C15.6202 17.2411 15.5476 17.1807 15.4608 17.1523C15.3741 17.1238 15.2798 17.1294 15.197 17.1678ZM13.7684 17.6908C13.6634 17.723 13.5752 17.7951 13.5229 17.8916C13.4705 17.9881 13.4581 18.1014 13.4883 18.2069C13.5571 18.4306 13.7863 18.5537 14.0099 18.4911C14.1159 18.4578 14.2045 18.3841 14.2567 18.286C14.3088 18.1879 14.3203 18.0733 14.2886 17.9668C14.2546 17.8623 14.1813 17.7753 14.0842 17.7239C13.9871 17.6725 13.8739 17.6609 13.7684 17.6915V17.6908ZM12.1155 17.9585C12.052 17.962 11.9899 17.9781 11.9328 18.0059C11.8757 18.0337 11.8247 18.0726 11.7827 18.1203C11.7408 18.168 11.7089 18.2237 11.6887 18.2839C11.6686 18.3442 11.6607 18.4078 11.6654 18.4712C11.6782 18.5956 11.7388 18.7102 11.8344 18.7909C11.93 18.8716 12.0532 18.9121 12.178 18.9038C12.3028 18.8955 12.4196 18.8391 12.5036 18.7465C12.5877 18.6539 12.6326 18.5322 12.6288 18.4072C12.6192 18.1416 12.3811 17.9434 12.1155 17.9585ZM10.274 17.7727C10.1115 17.741 9.94301 17.7748 9.80526 17.8667C9.6675 17.9586 9.57159 18.1011 9.53837 18.2634C9.50573 18.4269 9.53927 18.5966 9.63163 18.7354C9.724 18.8743 9.86765 18.9708 10.0311 19.0038C10.1126 19.0202 10.1965 19.0203 10.278 19.004C10.3595 18.9877 10.437 18.9553 10.5058 18.9087C10.5747 18.8621 10.6336 18.8023 10.6791 18.7328C10.7246 18.6632 10.7558 18.5853 10.7708 18.5035C10.8017 18.3407 10.7667 18.1722 10.6736 18.0351C10.5805 17.898 10.4368 17.8034 10.274 17.772V17.7727ZM8.39123 17.0839C8.21451 16.9978 8.01109 16.9845 7.82465 17.0468C7.63821 17.109 7.48363 17.2419 7.39411 17.4169C7.21657 17.7817 7.3597 18.2193 7.7196 18.4134C8.08638 18.5937 8.53161 18.4457 8.72154 18.0769C8.80799 17.9011 8.8218 17.6985 8.75999 17.5126C8.69818 17.3268 8.56571 17.1728 8.39123 17.0839ZM6.79611 15.85C6.62724 15.6953 6.40416 15.6135 6.17529 15.6222C5.94643 15.631 5.73026 15.7296 5.5737 15.8968C5.41714 16.064 5.33282 16.2861 5.33906 16.5151C5.34529 16.744 5.44157 16.9613 5.607 17.1197C5.95795 17.4486 6.51122 17.4321 6.83809 17.0839C6.91657 17.0002 6.97775 16.9019 7.01812 16.7945C7.0585 16.6872 7.07728 16.5729 7.07338 16.4582C7.06948 16.3436 7.04297 16.2309 6.9954 16.1265C6.94782 16.0221 6.88009 15.9282 6.79611 15.85ZM5.48864 14.0051C5.36816 13.7861 5.16595 13.6237 4.92614 13.5533C4.68633 13.4829 4.42841 13.5103 4.20869 13.6294C3.99045 13.7499 3.8289 13.952 3.7595 14.1914C3.69009 14.4309 3.71849 14.6881 3.83847 14.9066C3.95746 15.1256 4.15828 15.2886 4.39707 15.36C4.63585 15.4315 4.8932 15.4055 5.11291 15.2878C5.33209 15.1668 5.49453 14.9641 5.56479 14.7238C5.63505 14.4835 5.60743 14.2251 5.48795 14.0051H5.48864ZM7.75814 3.51091C7.68038 3.55941 7.6241 3.63579 7.60081 3.72442C7.57752 3.81305 7.58899 3.90724 7.63287 3.98769C7.67674 4.06815 7.74971 4.12879 7.83683 4.15721C7.92396 4.18563 8.01865 4.17967 8.10152 4.14057C8.18461 4.0941 8.24624 4.01698 8.27324 3.92569C8.30024 3.8344 8.29048 3.73617 8.24603 3.65198C8.19989 3.56855 8.12253 3.50683 8.03092 3.48038C7.93932 3.45393 7.84097 3.46491 7.75745 3.51091H7.75814ZM9.29201 2.82139C9.18685 2.85382 9.09873 2.92643 9.0468 3.02346C8.99488 3.12048 8.98334 3.23408 9.01469 3.33957C9.08351 3.55977 9.31335 3.6857 9.53149 3.61964C9.75445 3.55358 9.87556 3.31686 9.80881 3.09872C9.79363 3.04615 9.76809 2.99716 9.73369 2.95462C9.69929 2.91208 9.65673 2.87685 9.60851 2.85101C9.56028 2.82517 9.50738 2.80924 9.45291 2.80415C9.39844 2.79906 9.3435 2.80493 9.29133 2.82139H9.29201ZM11.1149 2.38649C10.9881 2.39602 10.87 2.45491 10.7862 2.55051C10.7023 2.6461 10.6592 2.77079 10.6662 2.89778C10.6855 3.16202 10.914 3.36778 11.1823 3.35195C11.246 3.34759 11.3081 3.33071 11.3653 3.3023C11.4224 3.27388 11.4733 3.23448 11.5152 3.18635C11.557 3.13822 11.589 3.0823 11.6092 3.02181C11.6295 2.96131 11.6376 2.89741 11.6331 2.83378C11.6236 2.70579 11.5637 2.58681 11.4665 2.50295C11.3694 2.41909 11.2429 2.3772 11.1149 2.38649ZM13.2674 2.31217C13.1865 2.29538 13.103 2.29489 13.0219 2.31073C12.9407 2.32657 12.8636 2.35842 12.7949 2.40442C12.7262 2.45043 12.6674 2.50965 12.6219 2.57865C12.5763 2.64764 12.545 2.72502 12.5297 2.80625C12.514 2.88727 12.5144 2.97059 12.5309 3.05145C12.5473 3.13232 12.5796 3.20915 12.6258 3.27755C12.719 3.4157 12.8633 3.51116 13.0269 3.54291C13.1905 3.57467 13.3601 3.54013 13.4982 3.44689C13.5666 3.40072 13.6253 3.34153 13.6708 3.2727C13.7163 3.20387 13.7479 3.12674 13.7636 3.04573C13.7943 2.88274 13.7594 2.71421 13.6665 2.57683C13.5736 2.43944 13.4301 2.34432 13.2674 2.31217ZM15.5087 2.85511C15.4212 2.81181 15.326 2.78636 15.2285 2.78024C15.1311 2.77413 15.0334 2.78747 14.9411 2.8195C14.8489 2.85152 14.764 2.90159 14.6913 2.96678C14.6186 3.03196 14.5596 3.11097 14.5178 3.19918C14.4317 3.37558 14.4193 3.57893 14.4832 3.76451C14.547 3.95008 14.682 4.10268 14.8584 4.18874C15.0348 4.27479 15.2382 4.28724 15.4237 4.22336C15.6093 4.15948 15.7619 4.0245 15.848 3.8481C15.891 3.76065 15.9164 3.66556 15.9226 3.56829C15.9289 3.47102 15.9158 3.37347 15.8843 3.28123C15.8528 3.18899 15.8034 3.10388 15.739 3.03076C15.6745 2.95764 15.5963 2.89795 15.5087 2.85511ZM17.6998 4.18461C17.6167 4.10589 17.5189 4.0444 17.4119 4.00367C17.305 3.96294 17.1911 3.94378 17.0767 3.9473C16.9623 3.95082 16.8497 3.97694 16.7455 4.02417C16.6413 4.07139 16.5474 4.13878 16.4694 4.22246C16.3124 4.39229 16.2287 4.6172 16.2366 4.84835C16.2444 5.0795 16.3432 5.29821 16.5113 5.45699C16.6802 5.61458 16.9047 5.69866 17.1355 5.69072C17.3663 5.68279 17.5845 5.58348 17.7421 5.41467C17.8997 5.24585 17.9838 5.02134 17.9758 4.79053C17.9679 4.55972 17.8686 4.34151 17.6998 4.18392V4.18461ZM19.4635 6.40181C19.3428 6.18303 19.1408 6.02062 18.9012 5.94978C18.6616 5.87893 18.4038 5.90536 18.1835 6.02333C17.9648 6.14317 17.8024 6.34466 17.7318 6.58383C17.6611 6.82299 17.688 7.08039 17.8064 7.29984C17.9259 7.5198 18.1274 7.68369 18.3671 7.75585C18.6068 7.82802 18.8653 7.80263 19.0864 7.6852C19.3058 7.56429 19.4686 7.36155 19.5392 7.12116C19.6099 6.88077 19.5826 6.62221 19.4635 6.40181ZM13.1986 20.7152C13.228 20.8569 13.3125 20.9812 13.4335 21.0606C13.5544 21.14 13.702 21.1681 13.8437 21.1388C13.9855 21.1094 14.1097 21.0249 14.1891 20.9039C14.2686 20.7829 14.2967 20.6353 14.2673 20.4936C14.2369 20.3525 14.152 20.2291 14.0312 20.1501C13.9104 20.0712 13.7633 20.043 13.6218 20.0718C13.4807 20.1018 13.357 20.1862 13.2778 20.3068C13.1985 20.4274 13.1701 20.5744 13.1986 20.7159V20.7152ZM15.3787 20.1895C15.4489 20.3424 15.577 20.4613 15.7348 20.5198C15.8926 20.5784 16.0672 20.572 16.2203 20.5019C16.3733 20.4305 16.4918 20.3012 16.5496 20.1425C16.6074 19.9838 16.5998 19.8086 16.5285 19.6555C16.4936 19.5798 16.4441 19.5118 16.3827 19.4554C16.3214 19.399 16.2495 19.3553 16.1712 19.3269C16.0929 19.2984 16.0097 19.2857 15.9265 19.2895C15.8433 19.2934 15.7616 19.3137 15.6863 19.3492C15.5355 19.4213 15.419 19.5495 15.3615 19.7064C15.3041 19.8633 15.3102 20.0364 15.3787 20.1888V20.1895ZM17.6103 19.1063C17.8856 19.4428 18.379 19.4917 18.71 19.2096C18.7893 19.1443 18.8549 19.0641 18.903 18.9733C18.9512 18.8826 18.9808 18.7832 18.9903 18.681C18.9998 18.5787 18.9889 18.4756 18.9582 18.3776C18.9276 18.2795 18.8778 18.1886 18.8118 18.1099C18.7469 18.0308 18.6669 17.9654 18.5764 17.9174C18.486 17.8695 18.387 17.84 18.285 17.8306C18.1831 17.8213 18.0804 17.8323 17.9827 17.863C17.8851 17.8937 17.7945 17.9434 17.7163 18.0094C17.5573 18.1412 17.457 18.3305 17.4371 18.536C17.4173 18.7415 17.4795 18.9466 17.6103 19.1063ZM19.7119 17.3061C19.9093 17.4421 20.1524 17.4945 20.3883 17.452C20.6242 17.4094 20.8337 17.2754 20.9712 17.0791C21.1079 16.8811 21.1604 16.637 21.1171 16.4004C21.0738 16.1638 20.9383 15.954 20.7403 15.8173C20.5424 15.6806 20.2983 15.6282 20.0617 15.6715C19.825 15.7148 19.6153 15.8503 19.4786 16.0482C19.2006 16.4563 19.2983 17.0274 19.7126 17.3061H19.7119ZM21.2471 14.9651C21.8011 15.1529 22.4067 14.8447 22.5938 14.2845C22.6817 14.0157 22.6595 13.7231 22.5321 13.4707C22.4047 13.2183 22.1824 13.0267 21.914 12.9378C21.7812 12.894 21.6411 12.8768 21.5017 12.8872C21.3623 12.8975 21.2263 12.9353 21.1015 12.9982C20.9767 13.0612 20.8655 13.1481 20.7743 13.254C20.6831 13.36 20.6137 13.4828 20.57 13.6156C20.5257 13.7487 20.5081 13.8892 20.5182 14.029C20.5283 14.1689 20.5658 14.3054 20.6287 14.4308C20.6916 14.5561 20.7786 14.6678 20.8847 14.7595C20.9909 14.8512 21.114 14.921 21.2471 14.9651ZM9.03189 0.809948C9.04606 0.88061 9.07412 0.947755 9.11445 1.00749C9.15477 1.06722 9.20655 1.11835 9.26679 1.15791C9.32703 1.19747 9.39453 1.22468 9.46536 1.23795C9.5362 1.25122 9.60896 1.25029 9.67944 1.23522C9.74968 1.22081 9.81638 1.19264 9.8757 1.15235C9.93501 1.11205 9.98576 1.06041 10.025 1.00042C10.0643 0.94042 10.0913 0.873246 10.1045 0.802764C10.1177 0.732282 10.1169 0.659885 10.102 0.589742C10.0663 0.454499 9.98011 0.338068 9.86123 0.264376C9.74234 0.190684 9.59974 0.165329 9.46273 0.193523C9.32573 0.221717 9.20473 0.301317 9.1246 0.415965C9.04447 0.530612 9.01129 0.671598 9.03189 0.809948ZM6.77065 1.65499C6.80582 1.73057 6.85561 1.79845 6.91714 1.8547C6.97867 1.91096 7.05072 1.95448 7.12915 1.98275C7.20757 2.01103 7.29082 2.0235 7.37409 2.01945C7.45736 2.01539 7.53901 1.9949 7.61432 1.95915C7.68971 1.92469 7.75753 1.87565 7.81389 1.81486C7.87024 1.75406 7.91401 1.68272 7.94266 1.60494C7.97132 1.52715 7.9843 1.44447 7.98086 1.36165C7.97742 1.27882 7.95762 1.1975 7.92261 1.12237C7.85059 0.971019 7.72225 0.853833 7.56499 0.795843C7.40774 0.737853 7.23404 0.743656 7.08101 0.812012C6.92882 0.883479 6.81091 1.01202 6.75282 1.1698C6.69473 1.32759 6.70114 1.5019 6.77065 1.65499ZM4.48464 3.19506C4.75989 3.52881 5.25054 3.57835 5.58636 3.2969C5.66538 3.23209 5.73082 3.15232 5.77894 3.06216C5.82705 2.97199 5.85689 2.87322 5.86674 2.77149C5.87658 2.66977 5.86624 2.5671 5.83632 2.46939C5.80639 2.37167 5.75746 2.28082 5.69233 2.20206C5.62741 2.12219 5.54726 2.05603 5.45653 2.00742C5.3658 1.95881 5.26631 1.92874 5.16386 1.91894C5.06139 1.90914 4.95801 1.91982 4.85971 1.95035C4.76142 1.98088 4.67018 2.03065 4.5913 2.09678C4.51173 2.16157 4.44579 2.2415 4.39731 2.33194C4.34882 2.42237 4.31875 2.52153 4.30883 2.62366C4.29891 2.7258 4.30934 2.82889 4.33952 2.92696C4.3697 3.02504 4.41902 3.11616 4.48464 3.19506ZM2.5599 5.49277C2.75839 5.62951 3.003 5.68195 3.2401 5.63861C3.4772 5.59526 3.68743 5.45967 3.82471 5.26155C4.10272 4.84867 4.00087 4.28783 3.58867 4.00018C3.39132 3.86404 3.14801 3.81177 2.91216 3.85486C2.67631 3.89796 2.4672 4.03289 2.33074 4.23002C2.19391 4.42794 2.14119 4.67205 2.18415 4.90879C2.22711 5.14553 2.36225 5.35556 2.5599 5.49277ZM1.3873 8.37197C1.65558 8.46021 1.94794 8.43826 2.20004 8.31095C2.45214 8.18364 2.64335 7.9614 2.73159 7.69311C2.81983 7.42483 2.79788 7.13247 2.67057 6.88037C2.54326 6.62827 2.32102 6.43706 2.05273 6.34882C1.91989 6.30513 1.77975 6.28803 1.6403 6.2985C1.50085 6.30897 1.36482 6.3468 1.23999 6.40984C0.987891 6.53715 0.796687 6.75939 0.708445 7.02768C0.664752 7.16052 0.647651 7.30066 0.65812 7.44011C0.668589 7.57956 0.706423 7.71559 0.76946 7.84042C0.89677 8.09252 1.11901 8.28372 1.3873 8.37197ZM11.6523 20.3684C11.5309 20.373 11.416 20.4246 11.3317 20.5121C11.2474 20.5997 11.2003 20.7165 11.2003 20.838C11.2003 20.9596 11.2474 21.0764 11.3317 21.164C11.416 21.2515 11.5309 21.3031 11.6523 21.3077C11.7765 21.3066 11.8953 21.2567 11.983 21.1688C12.0707 21.0808 12.1203 20.9619 12.121 20.8377C12.1204 20.7136 12.071 20.5948 11.9834 20.5069C11.8958 20.4191 11.7771 20.3693 11.653 20.3684H11.6523ZM9.6815 20.0718C9.53946 20.0427 9.39166 20.071 9.27044 20.1506C9.14922 20.2301 9.06444 20.3545 9.03465 20.4964C9.0201 20.5665 9.0195 20.6387 9.03287 20.709C9.04625 20.7793 9.07334 20.8463 9.11261 20.9062C9.15188 20.966 9.20255 21.0175 9.26172 21.0578C9.3209 21.0981 9.38743 21.1263 9.45751 21.1408C9.52759 21.1554 9.59985 21.156 9.67017 21.1426C9.74048 21.1292 9.80747 21.1021 9.86731 21.0629C9.92716 21.0236 9.97868 20.9729 10.0189 20.9137C10.0592 20.8546 10.0874 20.788 10.102 20.718C10.131 20.5766 10.1031 20.4295 10.0244 20.3085C9.94571 20.1876 9.8225 20.1025 9.6815 20.0718ZM7.61019 19.3492C7.53532 19.3136 7.45412 19.2931 7.37128 19.2891C7.28845 19.2851 7.20565 19.2975 7.12767 19.3258C7.0497 19.354 6.97811 19.3974 6.91705 19.4536C6.856 19.5097 6.80671 19.5774 6.77203 19.6527C6.70134 19.8056 6.69426 19.9802 6.75233 20.1383C6.8104 20.2964 6.92887 20.4249 7.08169 20.4957C7.15768 20.5363 7.24114 20.5609 7.32698 20.568C7.41281 20.5752 7.49921 20.5647 7.58086 20.5373C7.66251 20.5099 7.7377 20.4661 7.80181 20.4086C7.86593 20.3511 7.91762 20.2811 7.95372 20.2029C7.98982 20.1246 8.00956 20.0399 8.01174 19.9538C8.01391 19.8677 7.99848 19.782 7.96637 19.7021C7.93427 19.6222 7.88618 19.5497 7.82505 19.489C7.76392 19.4283 7.69104 19.3808 7.61088 19.3492H7.61019ZM5.58636 18.0087C5.4265 17.8765 5.2207 17.8131 5.01414 17.8324C4.80759 17.8518 4.61715 17.9523 4.48464 18.112C4.41884 18.1906 4.36929 18.2815 4.33885 18.3794C4.3084 18.4773 4.29767 18.5802 4.30727 18.6823C4.31686 18.7844 4.34661 18.8835 4.39477 18.974C4.44293 19.0645 4.50856 19.1446 4.58786 19.2096C4.66666 19.2761 4.75794 19.3263 4.85636 19.3572C4.95478 19.3881 5.05836 19.399 5.16107 19.3894C5.26377 19.3798 5.36352 19.3498 5.45451 19.3012C5.54549 19.2526 5.62587 19.1864 5.69095 19.1063C5.96621 18.7746 5.91667 18.2778 5.58636 18.0087ZM3.82127 16.0475C3.68414 15.8507 3.47459 15.7163 3.23854 15.6738C3.00249 15.6312 2.75919 15.6839 2.56196 15.8204C2.36443 15.9569 2.2288 16.1659 2.1846 16.4019C2.14039 16.6378 2.19119 16.8817 2.32593 17.0804C2.46486 17.2766 2.6754 17.4103 2.91207 17.4525C3.14874 17.4948 3.39252 17.4422 3.59074 17.3061C3.68879 17.2389 3.77258 17.1529 3.83728 17.0531C3.90198 16.9533 3.94632 16.8417 3.96774 16.7248C3.98917 16.6078 3.98726 16.4878 3.96212 16.3715C3.93698 16.2553 3.88911 16.1452 3.82127 16.0475ZM2.734 13.6136C2.64468 13.3458 2.45314 13.1242 2.20113 12.9971C1.94912 12.87 1.65707 12.8477 1.38868 12.9351C1.11983 13.0236 0.897112 13.2152 0.76939 13.4679C0.641668 13.7205 0.619378 14.0134 0.707412 14.2824C0.751019 14.4156 0.820489 14.5389 0.911836 14.6451C1.00318 14.7514 1.11461 14.8386 1.23973 14.9017C1.36485 14.9648 1.50119 15.0026 1.64094 15.0128C1.78069 15.0231 1.9211 15.0057 2.05411 14.9616C2.32315 14.8729 2.54596 14.681 2.67358 14.4281C2.80119 14.1752 2.82317 13.882 2.73469 13.6129L2.734 13.6136ZM2.46149 10.6518C2.44848 10.3341 2.31312 10.0337 2.08373 9.81356C1.85435 9.59338 1.54871 9.47043 1.23075 9.47043C0.912787 9.47043 0.607145 9.59338 0.377759 9.81356C0.148373 10.0337 0.0130141 10.3341 0 10.6518C0 11.3358 0.551204 11.8891 1.22971 11.8891C1.39194 11.8891 1.55256 11.857 1.70237 11.7948C1.85218 11.7325 1.98821 11.6413 2.10266 11.5263C2.21712 11.4114 2.30774 11.2749 2.36931 11.1249C2.43089 10.9748 2.46222 10.814 2.46149 10.6518ZM11.6468 2.02487e-06C11.5854 -8.92895e-05 11.5246 0.011962 11.4679 0.0354628C11.4111 0.0589635 11.3596 0.0934499 11.3162 0.136938C11.2729 0.180427 11.2385 0.232059 11.2152 0.288865C11.1919 0.345671 11.18 0.406529 11.1803 0.46794C11.1803 0.560548 11.2078 0.651074 11.2592 0.728055C11.3107 0.805037 11.3839 0.865012 11.4695 0.900389C11.5551 0.935765 11.6492 0.944951 11.74 0.926784C11.8308 0.908616 11.9142 0.863913 11.9796 0.798333C12.045 0.732753 12.0894 0.649245 12.1073 0.558384C12.1252 0.467522 12.1158 0.373392 12.0801 0.287912C12.0445 0.202432 11.9843 0.129446 11.9072 0.0781939C11.8301 0.0269421 11.7395 -0.000270351 11.6468 2.02487e-06ZM13.8462 0.170662C13.7763 0.155932 13.7041 0.155114 13.6339 0.168255C13.5637 0.181395 13.4968 0.208237 13.4369 0.247248C13.3771 0.28626 13.3255 0.336675 13.2851 0.395618C13.2448 0.45456 13.2164 0.520874 13.2017 0.590774C13.187 0.660674 13.1862 0.732791 13.1993 0.803007C13.2124 0.873223 13.2393 0.940163 13.2783 1.00001C13.3173 1.05985 13.3677 1.11142 13.4267 1.15178C13.4856 1.19214 13.5519 1.22049 13.6218 1.23522C13.6921 1.2506 13.7648 1.25181 13.8356 1.23879C13.9064 1.22576 13.9738 1.19876 14.0341 1.15935C14.0943 1.11995 14.146 1.06894 14.1863 1.0093C14.2266 0.949663 14.2546 0.882594 14.2687 0.812012C14.2833 0.742136 14.284 0.670048 14.2707 0.599904C14.2574 0.529761 14.2303 0.462951 14.191 0.403328C14.1517 0.343704 14.101 0.292448 14.0418 0.252515C13.9827 0.212582 13.9161 0.184763 13.8462 0.170662ZM16.2196 0.810636C16.0669 0.742168 15.8935 0.736084 15.7364 0.793681C15.5793 0.851278 15.4509 0.967995 15.3787 1.11892C15.3096 1.27125 15.3032 1.44458 15.3608 1.6016C15.4183 1.75862 15.5352 1.88677 15.6863 1.95846C15.7616 1.99431 15.8432 2.01482 15.9265 2.01881C16.0099 2.02279 16.0931 2.01017 16.1715 1.98167C16.2499 1.95317 16.3218 1.90937 16.3831 1.85282C16.4444 1.79626 16.4938 1.72808 16.5285 1.65224C16.5638 1.57675 16.5837 1.49502 16.5872 1.41179C16.5907 1.32855 16.5777 1.24545 16.5489 1.16727C16.5201 1.08909 16.4761 1.01739 16.4195 0.956295C16.3628 0.895203 16.2947 0.845932 16.2189 0.811324L16.2196 0.810636ZM18.7086 2.09815C18.6298 2.03235 18.5387 1.98284 18.4406 1.95249C18.3425 1.92215 18.2393 1.91156 18.1371 1.92135C18.0349 1.93115 17.9356 1.96112 17.8451 2.00954C17.7546 2.05796 17.6745 2.12387 17.6096 2.20344C17.5442 2.28226 17.4949 2.37325 17.4647 2.47116C17.4346 2.56907 17.424 2.67198 17.4338 2.77398C17.4435 2.87597 17.4733 2.97504 17.5214 3.06549C17.5695 3.15594 17.635 3.23599 17.7142 3.30103C17.7929 3.36674 17.8838 3.41621 17.9817 3.44661C18.0795 3.477 18.1825 3.48771 18.2845 3.47811C18.3866 3.46852 18.4857 3.43881 18.5762 3.3907C18.6667 3.34259 18.7468 3.27703 18.8118 3.19781C19.0919 2.86199 19.0403 2.37204 18.7086 2.09815ZM20.9684 4.23002C20.8661 4.08274 20.7224 3.96911 20.5555 3.90349C20.3885 3.83788 20.2059 3.82322 20.0307 3.86139C19.8554 3.89955 19.6954 3.98882 19.5709 4.1179C19.4464 4.24698 19.3629 4.41008 19.3311 4.58659C19.2992 4.7631 19.3204 4.94508 19.392 5.10953C19.4636 5.27399 19.5823 5.41353 19.7332 5.51052C19.8841 5.6075 20.0603 5.65758 20.2396 5.65443C20.4189 5.65127 20.5933 5.59501 20.7407 5.49277C20.9382 5.35546 21.0732 5.14533 21.1159 4.90855C21.1586 4.67176 21.1056 4.42771 20.9684 4.23002ZM22.5938 7.02527C22.5023 6.76038 22.3103 6.54214 22.0592 6.41773C21.808 6.29333 21.5181 6.27275 21.2519 6.36045C20.9857 6.44815 20.7648 6.63707 20.6368 6.88639C20.5088 7.1357 20.4841 7.42537 20.5679 7.69277C20.6581 7.95983 20.8499 8.18062 21.1017 8.30735C21.3535 8.43408 21.645 8.45655 21.9133 8.3699C22.1815 8.28131 22.4036 8.0901 22.5312 7.8381C22.6587 7.5861 22.6813 7.29384 22.5938 7.02527ZM23.3013 10.6525C23.3013 10.3254 23.1713 10.0118 22.9401 9.7805C22.7088 9.54924 22.3952 9.41932 22.0681 9.41932C21.741 9.41932 21.4274 9.54924 21.1961 9.7805C20.9649 10.0118 20.8349 10.3254 20.8349 10.6525C20.8349 11.3365 21.3868 11.8898 22.0667 11.8898C22.748 11.8898 23.3013 11.3365 23.3013 10.6525Z" fill="#90979E"/>
<path d="M69.2912 12.9088C69.2912 14.0814 69.3346 14.1131 70.3923 14.1131H73.9286C74.0787 14.1131 74.2053 14.239 74.2053 14.3918V15.285C74.2053 15.4825 74.1351 15.5527 73.9286 15.5795C73.4793 15.6497 72.5709 15.7736 70.9111 15.7736C68.59 15.7736 67.3631 15.7908 67.3631 12.9088V8.48405C67.3631 5.60417 68.59 5.62 70.9111 5.62C72.5709 5.62 73.4793 5.74593 73.9286 5.81543C74.1351 5.84227 74.2053 5.91315 74.2053 6.10996V7.00317C74.2051 7.07693 74.1761 7.1477 74.1244 7.20031C74.0727 7.25291 74.0024 7.28318 73.9286 7.28462H70.3923C69.3346 7.28462 69.2912 7.31558 69.2912 8.48474V9.76744H73.7587C73.9142 9.76744 74.036 9.89475 74.036 10.0455V11.055C74.0362 11.1288 74.0071 11.1996 73.9551 11.252C73.9031 11.3044 73.8325 11.334 73.7587 11.3343H69.2912V12.9088ZM89.9349 15.7811C88.7004 15.7811 87.4507 15.5685 86.7797 15.4144C86.6414 15.3861 86.5148 15.2891 86.5148 15.1357V14.1289C86.5148 13.9754 86.6414 13.8626 86.7797 13.8626H86.8073C87.3667 13.9328 88.6728 14.1151 89.9638 14.1151C91.2045 14.1151 91.5844 13.6692 91.5844 12.8593C91.5844 11.8105 89.0857 11.2298 87.8656 10.7267C86.6511 10.2237 86.221 9.25959 86.221 8.28243C86.221 6.74305 87.4569 5.62413 90.0526 5.62413C91.3841 5.62413 92.6021 5.87805 93.0763 5.99159C93.2167 6.0205 93.3268 6.11821 93.3268 6.25722V7.2915C93.3268 7.42982 93.2318 7.54267 93.0893 7.54267H93.0632C92.1411 7.4601 91.1846 7.28944 89.9714 7.28944C88.9371 7.28944 88.1636 7.65278 88.1636 8.28243C88.1636 8.74211 88.688 9.16532 89.3073 9.41236C89.9266 9.65665 90.74 9.9732 91.6683 10.3469C92.8437 10.8237 93.6068 11.5167 93.6068 12.8586C93.6068 14.2693 92.7281 15.7811 89.9349 15.7811ZM82.5133 8.78064C82.5133 7.73122 81.7012 7.28462 80.3022 7.28462C80.0112 7.28462 78.7408 7.31214 78.4897 7.33967V10.3716C78.7154 10.3854 80.069 10.4143 80.3022 10.4143C81.7432 10.4143 82.5133 10.1356 82.5133 8.90657V8.78064ZM84.6073 15.6635H82.9027C82.75 15.6635 82.6942 15.5224 82.6254 15.3841L80.614 11.9943H80.3022C79.9417 11.9943 78.8117 11.9544 78.4897 11.9365V15.3841C78.4897 15.5368 78.3789 15.6635 78.2261 15.6635H76.8319C76.7579 15.6631 76.6871 15.6335 76.6348 15.5812C76.5825 15.5289 76.5529 15.4581 76.5525 15.3841V6.22075C76.5525 5.94067 76.717 5.84227 76.9971 5.80098C77.7224 5.68881 79.2859 5.62 80.3022 5.62C82.4541 5.62 84.438 6.38934 84.438 8.78064V8.90657C84.438 10.3868 83.6975 11.1974 82.5525 11.6419L84.7463 15.3841C84.7752 15.4267 84.7752 15.4667 84.7752 15.4976C84.7752 15.5926 84.7181 15.6635 84.6073 15.6635ZM65.6516 7.35206H62.8667V15.3841C62.8657 15.4583 62.8355 15.5292 62.7827 15.5814C62.73 15.6336 62.6588 15.6631 62.5846 15.6635H61.2028C61.1289 15.6629 61.0581 15.6333 61.0058 15.581C60.9536 15.5288 60.924 15.458 60.9234 15.3841V7.35206H58.1364C57.985 7.35206 57.8591 7.25572 57.8591 7.10157V5.9159C57.8591 5.75969 57.985 5.64959 58.1371 5.64959H65.6516C65.803 5.64959 65.9283 5.75969 65.9283 5.9159V7.10157C65.9283 7.25572 65.803 7.35206 65.6516 7.35206ZM52.2886 15.7736C50.0432 15.7736 48.1088 14.7964 48.1088 11.8167V5.93035C48.1088 5.77483 48.2361 5.66404 48.3889 5.66404H49.7686C49.9234 5.66404 50.0487 5.77414 50.0487 5.93035V11.8154C50.0487 13.4105 50.7843 14.1667 52.2886 14.1667C53.797 14.1667 54.5326 13.4098 54.5326 11.8154V5.93173C54.5326 5.77621 54.6572 5.66541 54.8106 5.66541H56.1924C56.3472 5.66541 56.4732 5.77552 56.4732 5.93173V11.8167C56.4732 14.7964 54.5381 15.7743 52.2893 15.7743L52.2886 15.7736ZM41.1069 12.9095C41.1069 14.0821 41.1523 14.1138 42.2079 14.1138H45.7409C45.895 14.1138 46.0216 14.2397 46.0216 14.3925V15.2857C46.0216 15.4832 45.9508 15.5534 45.7409 15.5802C45.295 15.6504 44.3859 15.7743 42.7261 15.7743C40.4085 15.7743 39.1801 15.7915 39.1801 12.9095V8.48474C39.1801 5.60486 40.4085 5.62069 42.7261 5.62069C44.3859 5.62069 45.295 5.77965 45.7409 5.84915C45.9508 5.87667 46.0216 5.88149 46.0216 6.07693V7.00386C46.0211 7.07822 45.9914 7.14939 45.9389 7.20203C45.8863 7.25468 45.8152 7.28459 45.7409 7.28531H42.2079C41.1523 7.28531 41.1069 7.31627 41.1069 8.48543V9.68005H45.575C45.7285 9.68005 45.8544 9.80736 45.8544 9.95806V11.0556C45.8537 11.1295 45.824 11.2002 45.7718 11.2524C45.7196 11.3047 45.6489 11.3343 45.575 11.335H41.1069V12.9095ZM35.1235 8.78064C35.1235 7.73191 34.3115 7.28531 32.9159 7.28531C32.6221 7.28531 31.3518 7.31283 31.1027 7.34036V10.3723C31.3229 10.3861 32.6765 10.415 32.9159 10.415C34.3514 10.415 35.1235 10.1363 35.1235 8.90726V8.78133V8.78064ZM37.2189 15.6642H35.5137C35.3609 15.6642 35.3045 15.5231 35.2357 15.3848L33.2249 11.995H32.9159C32.5519 11.995 31.4234 11.9551 31.1027 11.9372V15.3848C31.1027 15.5375 30.9898 15.6642 30.8364 15.6642H29.4401C29.3664 15.6634 29.2959 15.6337 29.2439 15.5814C29.1918 15.5292 29.1625 15.4585 29.1621 15.3848V6.22075C29.1621 5.94067 29.3273 5.84227 29.608 5.80098C30.3354 5.68881 31.8954 5.62 32.9159 5.62C35.065 5.62 37.051 6.38934 37.051 8.78064V8.90657C37.051 10.3868 36.3112 11.1974 35.1669 11.6419L37.3565 15.3841C37.3861 15.4267 37.3861 15.4667 37.3861 15.4976C37.3861 15.5926 37.3297 15.6635 37.2189 15.6635V15.6642Z" fill="#90979E"/>
</svg>
