<svg width="134" height="23" viewBox="0 0 134 23" fill="none" xmlns="http://www.w3.org/2000/svg">
<path d="M10.7012 22.1533C10.8501 21.2845 10.9991 20.4652 11.1232 19.6212C11.57 16.9898 12.0169 14.3336 12.4885 11.7022C12.8857 9.44319 13.2581 7.15934 13.6553 4.90032C13.8787 3.5598 14.1269 2.21928 14.3255 0.878758C14.3752 0.580865 14.4745 0.481567 14.7972 0.481567C16.4853 0.506392 18.1982 0.506392 19.8862 0.481567C20.1593 0.481567 20.2338 0.556041 20.2834 0.804285C20.7799 3.70875 21.2764 6.6132 21.7729 9.51766C22.3935 13.0924 22.9893 16.6919 23.6099 20.2915C23.7092 20.9121 23.8085 21.5327 23.9326 22.1533C22.4431 22.1533 20.9785 22.1533 19.4394 22.1533C19.3897 21.7809 19.3153 21.4086 19.2656 21.0362C19.1663 20.2418 19.067 19.4226 18.9677 18.6034C18.9429 18.4296 18.8932 18.38 18.7195 18.38C17.7761 18.38 16.8328 18.38 15.8895 18.38C15.7157 18.38 15.6661 18.4545 15.6412 18.6282C15.5171 19.7205 15.3682 20.8376 15.2192 21.9299C15.1944 22.0788 15.1944 22.203 14.9958 22.203C13.6056 22.203 12.2155 22.203 10.8253 22.203C10.8005 22.203 10.7756 22.1781 10.7012 22.1533ZM17.3789 4.70172C17.3541 4.70172 17.3293 4.70172 17.3045 4.70172C16.9321 7.9289 16.5349 11.1561 16.1625 14.4081C16.9569 14.4081 17.7017 14.4081 18.4712 14.4081C18.0989 11.1561 17.7513 7.9289 17.3789 4.70172Z" fill="#90979E"/>
<path d="M36.4192 8.17712C34.9794 8.17712 33.5644 8.17712 32.1246 8.17712C32.1246 8.02817 32.1246 7.90405 32.1246 7.77993C32.0998 6.88625 32.1246 5.99257 32.0501 5.09889C31.9756 4.13073 31.3054 3.70872 30.362 3.93214C29.8656 4.05626 29.5677 4.47828 29.4932 5.19818C29.4684 5.39678 29.4684 5.57055 29.4684 5.76915C29.4684 9.49281 29.4684 13.2165 29.4684 16.9401C29.4684 17.1884 29.4932 17.4615 29.518 17.7097C29.6173 18.6779 30.2876 18.8765 31.082 18.7275C31.6529 18.6282 31.9508 18.2558 32.0005 17.5359C32.0501 16.7664 32.0501 15.972 32.0749 15.1776C32.0749 14.8301 32.0749 14.5074 32.0749 14.135C33.5148 14.135 34.9297 14.135 36.3696 14.135C36.3696 14.2343 36.3944 14.3336 36.3944 14.4577C36.3944 15.55 36.3944 16.6174 36.3696 17.7097C36.3447 18.6034 36.1958 19.4722 35.8482 20.2914C35.4262 21.2844 34.6815 21.905 33.6637 22.2029C31.8267 22.7242 29.9649 22.7242 28.103 22.2774C26.5143 21.905 25.6454 20.8624 25.3475 19.2985C25.2234 18.6034 25.1241 17.8835 25.1241 17.1636C25.0993 13.2413 25.0993 9.31904 25.1241 5.39678C25.1241 4.62722 25.2482 3.83284 25.3972 3.06328C25.695 1.57382 26.6384 0.630487 28.1278 0.307769C29.94 -0.114246 31.777 -0.114246 33.5892 0.382243C34.8304 0.729785 35.6497 1.54899 36.022 2.76539C36.2703 3.60942 36.3696 4.47828 36.3944 5.34713C36.3944 6.19116 36.3944 7.06002 36.3944 7.90405C36.444 8.02817 36.4192 8.10265 36.4192 8.17712Z" fill="#90979E"/>
<path d="M43.4182 12.8692C43.4182 14.6813 43.4182 16.4191 43.4182 18.2064C43.5424 18.2064 43.6665 18.2064 43.7906 18.2064C45.1808 18.2064 46.5709 18.2064 47.9611 18.2064C48.2342 18.2064 48.3087 18.2809 48.2838 18.554C48.259 19.6462 48.2838 20.7137 48.2838 21.806C48.2838 21.9301 48.259 22.0542 48.259 22.2032C45.2056 22.2032 42.2018 22.2032 39.1733 22.2032C39.1733 22.079 39.1484 21.9797 39.1484 21.8556C39.1484 14.8551 39.1484 7.85463 39.1484 0.878958C39.1484 0.581065 39.2477 0.506592 39.5208 0.506592C42.3011 0.506592 45.1063 0.506592 47.8866 0.506592C48.2838 0.506592 48.2838 0.506592 48.2838 0.903783C48.2838 1.97123 48.2838 3.03868 48.2838 4.13096C48.2838 4.23026 48.2838 4.35438 48.2838 4.50333C46.6454 4.50333 45.0567 4.50333 43.4182 4.50333C43.4182 5.99279 43.4182 7.43261 43.4182 8.89725C44.9574 8.89725 46.4965 8.89725 48.0356 8.89725C48.0356 10.2378 48.0356 11.5286 48.0356 12.894C46.4965 12.8692 44.9822 12.8692 43.4182 12.8692Z" fill="#90979E"/>
<path d="M0.945312 22.178C0.945312 14.9541 0.945312 7.75504 0.945312 0.531128C3.97389 0.531128 7.00248 0.531128 10.0559 0.531128C10.0559 1.84682 10.0559 3.13769 10.0559 4.47821C8.46712 4.47821 6.87835 4.47821 5.26477 4.47821C5.26477 5.96768 5.26477 7.4075 5.26477 8.87214C6.80388 8.87214 8.31817 8.87214 9.88211 8.87214C9.88211 10.2127 9.88211 11.5035 9.88211 12.8441C9.78281 12.8441 9.68352 12.8689 9.58422 12.8689C8.2437 12.8689 6.928 12.8689 5.58748 12.8689C5.31441 12.8689 5.23994 12.9433 5.23994 13.2164C5.23994 16.0712 5.23994 18.9509 5.23994 21.8057C5.23994 21.9298 5.23994 22.0291 5.23994 22.178C3.7753 22.178 2.38513 22.178 0.945312 22.178Z" fill="#90979E"/>
<path d="M129.061 17.2079C129.061 11.7555 129.061 6.16144 129.061 0.531987C130.354 0.531987 131.647 0.531987 133.011 0.531987C133.011 7.68387 133.011 14.8712 133.011 22.0584C132.868 22.0584 132.76 22.0938 132.616 22.0938C130.892 22.0938 129.169 22.0938 127.445 22.0938C127.157 22.0938 127.014 21.9876 126.942 21.7044C125.577 16.3228 124.248 10.9412 122.884 5.55955C122.848 5.45333 122.812 5.34711 122.704 5.2409C122.704 5.70117 122.704 6.19684 122.704 6.65711C122.704 9.77278 122.74 12.8885 122.74 16.0041C122.74 17.8452 122.776 19.7217 122.812 21.5628C122.812 21.9522 122.704 22.0938 122.309 22.0584C121.303 22.023 120.262 22.0584 119.256 22.0584C119.113 22.0584 119.005 22.023 118.861 22.023C118.861 14.8358 118.861 7.68387 118.861 0.496582C120.801 0.496582 122.776 0.496582 124.859 0.496582C126.295 6.09063 127.696 11.7201 129.061 17.2079Z" fill="#90979E"/>
<path d="M57.1194 0.496582C58.2485 0.496582 59.307 0.496582 60.3655 0.496582C61.0711 0.496582 61.8121 0.531872 62.5178 0.496582C62.8353 0.496582 62.9412 0.60245 63.0117 0.884768C64.0702 5.04895 65.1287 9.21312 66.152 13.4126C66.4695 14.6124 66.7165 15.8476 66.9988 17.0827C67.0341 17.1886 67.0693 17.2592 67.0693 17.2945C67.0693 11.754 67.0693 6.14293 67.0693 0.531871C68.3395 0.531871 69.6097 0.531871 70.9505 0.531871C70.9505 7.69567 70.9505 14.8242 70.9505 22.0233C70.8094 22.0233 70.6682 22.0586 70.5271 22.0586C68.9041 22.0586 67.3163 22.0586 65.6933 22.0586C65.2346 22.0586 65.0582 21.9527 64.9523 21.4939C63.788 16.7651 62.5883 12.0363 61.3887 7.30748C61.2123 6.60169 61.0359 5.86061 60.8947 5.15482C60.8947 8.01328 60.8947 10.8717 60.8947 13.7302C60.8947 15.0359 60.8947 16.3416 60.93 17.6826C60.93 18.9884 60.93 20.2941 60.9653 21.6351C60.9653 21.988 60.8594 22.0938 60.5066 22.0938C59.4834 22.0586 58.4602 22.0586 57.4722 22.0938C57.1547 22.0938 57.0488 21.988 57.0488 21.6704C57.0488 14.7536 57.0488 7.83683 57.0488 0.955346C57.0841 0.778898 57.1194 0.67303 57.1194 0.496582Z" fill="#90979E"/>
<path d="M105.225 11.2818C105.225 9.29118 105.189 7.30057 105.225 5.30995C105.26 4.49238 105.366 3.63925 105.577 2.82168C105.93 1.43536 106.846 0.617784 108.221 0.297864C109.843 -0.0931503 111.5 -0.0931524 113.121 0.262315C114.989 0.653329 115.906 1.68419 116.188 3.6748C116.294 4.42128 116.364 5.16776 116.364 5.91424C116.364 9.50446 116.4 13.1302 116.364 16.7204C116.364 17.5736 116.259 18.4622 116.118 19.3154C115.836 20.915 114.919 21.9458 113.333 22.3013C111.605 22.6923 109.878 22.6923 108.186 22.2657C106.635 21.9103 105.753 20.8794 105.471 19.3509C105.33 18.6044 105.225 17.8579 105.225 17.1115C105.225 15.1919 105.225 13.2369 105.225 11.2818ZM112.169 11.2818C112.169 11.2462 112.169 11.2462 112.169 11.2818C112.169 9.50446 112.205 7.76267 112.169 5.98534C112.169 5.59432 112.134 5.20331 112.064 4.84784C111.958 4.17245 111.605 3.92363 110.9 3.88808C110.195 3.85253 109.772 4.10136 109.631 4.7412C109.525 5.09667 109.49 5.48768 109.49 5.8787C109.49 9.50446 109.49 13.1658 109.49 16.7915C109.49 17.0759 109.525 17.3603 109.561 17.6447C109.702 18.3911 110.125 18.7466 110.794 18.7466C111.605 18.7466 111.958 18.3911 112.099 17.5736C112.134 17.3603 112.169 17.1826 112.169 16.9693C112.169 15.0853 112.169 13.1658 112.169 11.2818Z" fill="#90979E"/>
<path d="M84.8523 22.0938C84.0057 22.0938 83.265 22.0938 82.489 22.0938C81.9246 22.0938 81.3249 22.0938 80.7606 22.0938C80.4784 22.0938 80.3726 21.988 80.3373 21.7057C80.2315 20.6823 80.0551 19.6942 79.9493 18.6708C79.914 18.3884 79.8435 18.2473 79.526 18.2473C78.6089 18.2826 77.6565 18.2473 76.6689 18.2473C76.563 18.9178 76.4925 19.5883 76.3867 20.2588C76.3161 20.7528 76.2808 21.2469 76.175 21.741C76.1398 21.8468 75.9987 22.0233 75.8928 22.0233C74.5525 22.0233 73.2121 22.0233 71.8717 22.0233C71.8364 22.0233 71.8011 21.988 71.6953 21.9527C72.9299 14.8242 74.1292 7.69567 75.3637 0.496582C75.5048 0.496582 75.6459 0.496582 75.787 0.496582C77.4096 0.496582 79.0674 0.496582 80.69 0.496582C81.0427 0.496582 81.1838 0.567163 81.2191 0.920059C82.2068 6.77814 83.2297 12.6362 84.2173 18.459C84.429 19.6942 84.6406 20.8587 84.8523 22.0938ZM77.0921 14.3654C77.7623 14.3654 78.3267 14.3301 78.9263 14.3654C79.2791 14.4007 79.3849 14.2595 79.3496 13.9067C79.2085 12.8833 79.1027 11.8951 78.9969 10.8717C78.75 8.82494 78.5383 6.81343 78.2914 4.76663C78.2562 4.76663 78.2562 4.76663 78.2209 4.76663C77.8681 7.9427 77.4801 11.1188 77.0921 14.3654Z" fill="#90979E"/>
<path d="M92.1616 22.0938C90.6572 22.0938 89.2602 22.0938 87.7915 22.0938C87.7915 16.2327 87.7915 10.3716 87.7915 4.51055C86.7169 4.51055 85.6781 4.51055 84.6035 4.51055C84.6035 3.16072 84.6035 1.84641 84.6035 0.496582C88.1856 0.496582 91.696 0.496582 95.278 0.496582C95.278 1.81089 95.278 3.1252 95.278 4.47503C94.2751 4.47503 93.2363 4.47503 92.1616 4.47503C92.1616 10.3361 92.1616 16.1972 92.1616 22.0938Z" fill="#90979E"/>
<path d="M102.228 0.531987C102.228 7.71927 102.228 14.8712 102.228 22.0584C102.084 22.0584 101.976 22.0938 101.868 22.0938C100.643 22.0938 99.4534 22.0938 98.2282 22.0938C97.9039 22.0938 97.7598 22.023 97.7598 21.669C97.7598 14.7295 97.7598 7.79008 97.7598 0.815228C97.7598 0.709012 97.7598 0.638203 97.7958 0.496582C99.2733 0.531987 100.715 0.531987 102.228 0.531987Z" fill="#90979E"/>
<path d="M53.2252 14.2591C53.2252 13.5391 53.2252 12.8441 53.2252 12.149C53.0514 12.149 52.9025 12.149 52.7039 12.149C52.7039 12.8441 52.7039 13.5391 52.7039 14.2591C52.3067 14.2591 51.9343 14.2591 51.5371 14.2591C51.5371 12.4965 51.5371 10.7092 51.5371 8.9218C51.9343 8.9218 52.3067 8.9218 52.7039 8.9218C52.7039 9.61688 52.7039 10.2871 52.7039 10.9574C52.8776 10.9574 53.0266 10.9574 53.2003 10.9574C53.2003 10.2871 53.2003 9.61688 53.2003 8.89697C53.5727 8.89697 53.9203 8.89697 54.2678 8.89697C54.3174 8.89697 54.4167 9.04592 54.4167 9.12039C54.4416 9.59206 54.4167 10.0637 54.4167 10.5106C54.4167 11.6525 54.4167 12.7944 54.4167 13.9363C54.4167 14.1598 54.3671 14.2591 54.1188 14.2342C53.8458 14.2342 53.5727 14.2591 53.2252 14.2591Z" fill="#90979E"/>
<path d="M54.1446 15.9224C54.1446 16.2947 54.1446 16.6423 54.1446 17.0395C53.7722 17.0395 53.3999 17.0395 53.0275 17.0395C53.0275 17.3374 53.0275 17.5856 53.0275 17.8835C53.3006 17.8835 53.5985 17.8835 53.8715 17.8835C54.0453 17.8835 54.1198 17.9331 54.1198 18.1317C54.1198 18.4296 54.1198 18.7027 54.1198 19.0254C53.7474 19.0254 53.3999 19.0254 53.0275 19.0254C53.0275 19.3978 53.0275 19.7205 53.0275 20.0929C53.3999 20.0929 53.7722 20.0929 54.1446 20.0929C54.1446 20.4901 54.1446 20.8376 54.1446 21.21C53.3751 21.21 52.6055 21.21 51.8359 21.21C51.8359 19.4474 51.8359 17.7097 51.8359 15.9224C52.5807 15.9224 53.3502 15.9224 54.1446 15.9224Z" fill="#90979E"/>
<path d="M17.3785 4.70166C17.7509 7.92884 18.1232 11.156 18.4708 14.408C17.7012 14.408 16.9565 14.408 16.1621 14.408C16.5345 11.156 16.9317 7.92884 17.304 4.70166C17.3289 4.70166 17.3537 4.70166 17.3785 4.70166Z" fill="white"/>
</svg>
