<svg width="52" height="24" viewBox="0 0 52 24" fill="none" xmlns="http://www.w3.org/2000/svg">
<path d="M21.6007 0.0118465C19.5274 0.154835 17.7579 1.90633 17.7579 4.37286V16.0979C17.7579 16.5269 17.4362 16.8843 16.9894 16.8843H13.3253C5.38949 16.9021 6.10444 6.76787 12.8427 6.75H16.9V3.80088H12.6997C10.0187 3.80088 8.01689 4.80179 6.67638 6.30316C5.33588 7.80453 4.65668 9.80643 4.65668 11.8261C4.65668 13.828 5.318 15.8297 6.69426 17.3311C8.07051 18.8325 10.1438 19.8334 13.0036 19.8334H19.9027C20.3674 19.8334 20.7428 19.4401 20.7428 18.9933V4.69455C20.7428 3.96174 21.1539 3.38982 21.6901 3.21109C22.2263 3.05023 22.8697 3.2468 23.2451 3.80088L23.2629 3.81886C25.229 7.03608 33.0218 19.5474 33.0397 19.5653C33.2542 19.8691 33.5044 19.9228 33.701 19.8692C33.8798 19.7977 34.0764 19.6011 34.0764 19.1007V4.69455C34.0764 3.96174 34.4875 3.38982 35.0237 3.21109C35.5599 3.05023 36.1854 3.2468 36.5608 3.80088V3.81886H36.5965C38.5626 7.03608 46.3554 19.5474 46.3733 19.5653C46.5878 19.8691 46.838 19.9228 47.0346 19.8692C47.2312 19.7977 47.4278 19.6189 47.4278 19.1185V0.101213H44.4608V11.2006C44.4608 11.2006 42.6914 8.17994 39.6708 2.97877C36.7038 -2.11516 31.1094 -0.00613022 31.1094 4.37286V11.1828C31.1094 11.1828 29.3757 8.16214 26.355 2.96097C25.0324 0.744659 23.2272 -0.113268 21.6007 0.0118465ZM13.2181 0.0832367C-3.26125 0.0832367 -3.10039 23.5689 13.4325 23.5868H19.9027C22.691 23.5868 24.4605 21.9424 24.4605 18.9039V12.9521C24.4605 12.9521 28.0888 18.9576 29.5186 21.3169C31.9316 25.3205 37.794 24.5341 37.7762 19.5295V12.9521C37.7762 12.9521 41.4045 18.9576 42.8165 21.3169C45.2294 25.3205 51.1098 24.5341 51.0919 19.5295V0.101213H48.1249V19.1185C48.1249 19.8513 47.7496 20.3876 47.2134 20.5663C46.6772 20.745 46.0873 20.5305 45.712 19.9943H45.6941V19.9585C45.6941 19.9585 37.8834 7.48288 35.8995 4.22991H35.8816V4.21211C35.685 3.94401 35.4169 3.87251 35.2024 3.94401C34.9879 4.0155 34.7734 4.21197 34.7734 4.69455V19.1007C34.7734 19.8335 34.3981 20.4054 33.8798 20.5663C33.3614 20.745 32.7537 20.5125 32.3963 19.9763V19.9585H32.3784C32.3784 19.9585 24.5677 7.46507 22.5837 4.21211C22.3693 3.90826 22.1012 3.83673 21.8867 3.90822C21.6722 3.97972 21.4577 4.17636 21.4577 4.65894V4.67675V18.9755C21.4577 19.8513 20.7428 20.5663 19.8849 20.5663H12.9857C9.94722 20.5663 7.65942 19.4759 6.14018 17.8315C4.62094 16.1872 3.87025 14.0067 3.87025 11.8261C3.87025 9.64557 4.62094 7.4471 6.10443 5.80274C7.58793 4.15838 9.80424 3.06814 12.6819 3.06814H16.8821V0.0832367H13.2181Z" fill="#90979E"/>
</svg>
