<svg width="30" height="24" viewBox="0 0 30 24" fill="none" xmlns="http://www.w3.org/2000/svg">
<path d="M15.3753 2.62556C14.9218 1.50538 13.8171 0.295606 11.748 0.461796C9.11236 0.745269 8.29102 3.2442 8.6894 4.73499C7.63965 4.03175 5.85471 3.72253 4.29674 5.04286C2.28513 7.03784 3.36113 9.73582 4.46696 10.383C3.24823 10.2713 1.32204 11.0861 0.89593 13.2174C0.44263 15.8635 2.48155 17.4061 4.46696 17.4061H26.4829C28.7788 17.4061 30.0525 15.4411 29.9097 13.5879C29.6845 11.1694 27.4474 10.2414 26.2272 10.4402C27.2467 9.87749 28.6082 7.23405 26.5378 5.15591C24.8944 3.60931 22.7993 4.17207 22.0626 4.84661C22.4597 3.55462 21.8085 0.883904 19.143 0.461508C18.9587 0.441099 18.7813 0.430176 18.6122 0.430176C16.5774 0.430463 15.6624 1.90207 15.3753 2.62556Z" fill="white"/>
<path d="M4.66412 5.46428C3.5018 6.50528 3.07876 8.86406 5.17408 10.2429L13.5333 15.9169L9.48016 6.73007C8.63084 4.5622 6.30735 4.08946 4.66412 5.46428Z" fill="#F37021"/>
<path d="M11.859 0.997798C10.5003 1.02519 8.4599 2.62603 9.36791 5.07055L13.5599 14.8517L15.033 4.56381C15.3738 2.00751 13.4185 0.82746 11.859 0.997798Z" fill="#CC004C"/>
<path d="M15.6864 4.17171H16.4791C16.4791 4.17171 16.9024 4.1717 16.96 4.36927C16.648 4.62129 15.799 4.65286 15.9117 5.99902L17.2442 14.8506L21.4076 5.04376C22.2592 2.85409 20.4717 1.02538 18.8861 0.969488C18.8121 0.964231 18.7377 0.959961 18.6608 0.959961C17.2376 0.95992 15.6067 1.98322 15.6864 4.17171Z" fill="#6460AA"/>
<path d="M21.2406 6.81381L17.3027 15.8904L25.6595 10.1865C27.5858 8.83475 27.2751 6.67358 26.1968 5.60531C25.7448 5.10251 24.9147 4.71411 24.0355 4.71411C22.9967 4.71391 21.885 5.259 21.2406 6.81381Z" fill="#0089D0"/>
<path d="M24.723 11.4779L16.875 16.9013H26.5381C28.5206 16.9013 29.7946 14.879 29.2283 13.0232C28.8489 11.8567 27.7267 10.941 26.4241 10.9397C25.8757 10.9399 25.2943 11.1033 24.723 11.4779Z" fill="#0DB14B"/>
<path d="M4.43862 16.9012H13.9592L6.10921 11.4778C4.29567 10.3251 2.25651 10.9996 1.52034 12.9126C0.896316 15.1025 2.45437 16.9012 4.43862 16.9012Z" fill="#FCB711"/>
<path d="M0.863281 20.826C0.863281 21.7496 1.62647 23.4309 4.54061 23.4309C7.22737 23.4309 8.07595 22.2112 8.07595 21.6519H5.9959C5.9959 21.6519 5.89711 22.3908 4.72374 22.3908C3.54963 22.3908 3.2321 21.4212 3.2321 20.8605C3.2321 20.302 3.54963 19.3848 4.72374 19.3848C5.89711 19.3848 5.9959 20.0281 5.9959 20.0281H8.07595C8.07595 19.4681 7.45334 18.2656 4.54061 18.2656C1.62647 18.2656 0.863281 20.0561 0.863281 20.826Z" fill="#292526"/>
<path d="M22.6777 20.826C22.6777 21.7496 23.4417 23.4309 26.3551 23.4309C29.0416 23.4309 29.8905 22.2112 29.8905 21.6519H27.8119C27.8119 21.6519 27.7126 22.3908 26.539 22.3908C25.3647 22.3908 25.0469 21.4212 25.0469 20.8605C25.0469 20.302 25.3647 19.3848 26.539 19.3848C27.7126 19.3848 27.8119 20.0281 27.8119 20.0281H29.8905C29.8905 19.4681 29.2685 18.2656 26.3551 18.2656C23.4418 18.2656 22.6777 20.0561 22.6777 20.826Z" fill="#292526"/>
<path d="M13.7611 18.3521V21.4788L11.3403 18.3521H8.61719V23.3045H10.4841V20.1419L12.8624 23.3045H15.628V18.3521H13.7611Z" fill="#292526"/>
<path d="M19.7415 22.1214V22.1279H18.1859V21.2186H19.7415V21.2215C20.0736 21.2215 20.342 21.4235 20.342 21.6722C20.342 21.9202 20.0736 22.1214 19.7415 22.1214ZM18.2002 19.3153H19.699V19.3174C19.953 19.3174 20.1589 19.4827 20.1589 19.6861C20.1589 19.8903 19.953 20.0542 19.699 20.0542V20.0564H18.2002V19.3153ZM21.2692 20.6716C21.6091 20.6716 22.3197 20.2813 22.3197 19.5251C22.3197 18.4483 20.293 18.3521 19.9821 18.3521H16.248V23.3045H19.9821C21.7781 23.3045 22.4995 22.7432 22.4995 21.8059C22.4995 20.8685 21.2692 20.6716 21.2692 20.6716Z" fill="#292526"/>
</svg>
