<svg width="207" height="32" viewBox="0 0 207 32" fill="none" xmlns="http://www.w3.org/2000/svg">
<path d="M5.24259 7.82845C3.89283 8.45834 2.54308 9.13322 1.32829 9.71811C0.833376 6.3887 4.38775 3.64418 8.03211 5.08393C8.88696 5.39887 9.65182 5.89378 10.4617 6.20873C12.5763 7.01859 13.3862 6.83862 15.1409 5.39887C15.3208 5.53385 15.5008 5.62383 15.6808 5.75881C14.9609 6.83862 14.241 7.96342 13.5661 9.04323C13.2062 9.62813 12.5313 10.168 12.4863 10.7079C12.3964 13.8124 12.4413 16.9618 12.4413 20.7412C13.5661 19.5264 14.241 18.7615 14.8709 18.0417C14.8709 20.9661 12.5763 23.9356 9.69682 24.7455C6.63736 25.6003 3.39792 24.2956 1.77821 21.551C0.428447 19.2114 -0.0214825 16.5569 0.968344 14.2173C1.91318 12.0127 3.80285 10.213 5.24259 8.23337C5.28758 8.0984 5.24259 7.96342 5.24259 7.82845ZM11.8564 9.53815C10.6866 9.40317 9.60684 9.58314 8.79698 9.17821C6.54737 8.00842 5.37757 9.2232 4.6577 10.9779C4.02781 12.5076 3.48791 14.2623 3.57789 15.882C3.71287 19.5714 7.22226 22.001 10.5967 21.0111C11.0916 20.8762 11.8114 20.2463 11.8114 19.7963C11.9014 16.3769 11.8564 12.9575 11.8564 9.53815Z" fill="black"/>
<path d="M19.1446 27.85C22.0241 25.0155 22.4291 14.2174 19.8645 12.5526C18.7847 13.9474 18.6947 20.1113 19.7295 22.3609C19.0996 23.0358 18.4248 23.7557 17.6599 24.6105C16.7601 23.7557 15.9052 22.9908 15.3203 22.4509C15.5903 21.0112 15.9502 19.8864 15.9952 18.8065C16.0852 16.197 16.2201 13.5425 15.9502 10.9329C15.6802 8.14342 16.7151 6.20876 19.3696 4.63403C19.3696 7.1086 19.3696 9.40319 19.3696 11.6978C19.5946 11.7878 19.8195 11.9228 19.9995 12.0127C20.4944 11.1579 20.9443 10.348 21.3942 9.62816C23.9588 10.8879 24.7237 12.4177 24.5437 14.7123C24.3637 17.0968 24.4987 19.4814 24.4987 21.911C24.5437 25.2854 22.969 27.0851 19.1446 27.85Z" fill="black"/>
<path d="M86.6584 11.923C86.1185 15.3424 85.9835 18.5819 86.8833 22.1812C86.4334 22.6761 85.7135 23.441 84.8137 24.3858C84.0938 23.441 83.419 22.5412 82.7891 21.6863C82.969 20.6965 83.284 19.5267 83.329 18.3119C83.4189 15.6124 83.5989 12.8679 83.284 10.2133C82.969 7.37884 84.4988 5.8491 86.7484 4.1394C86.7484 6.74895 86.7484 8.99855 86.7484 11.7881C87.8732 10.7982 88.593 10.1233 89.3129 9.44847C91.4275 10.5733 92.1474 12.238 91.9674 14.5776C91.7425 16.9622 91.9225 19.3917 91.9225 21.7763C91.8775 24.9258 90.0328 26.9504 86.7484 27.4003C89.3579 24.2959 89.6279 13.6327 86.6584 11.923Z" fill="black"/>
<path d="M118.151 10.7979C118.826 10.303 119.456 9.85307 120.086 9.35815C121.481 10.123 122.831 10.8879 124.27 11.6528C124.18 12.0577 123.775 13.0925 123.82 14.0823C124 17.6817 124.54 21.2811 124.405 24.8354C124.36 25.9153 122.696 26.9051 121.751 27.9399C124.63 25.2404 120.041 24.5655 120.626 22.0009C118.916 23.9806 117.657 25.4653 116.757 26.5001C118.376 26.9501 120.086 27.445 121.751 27.8949C121.256 28.6148 120.761 29.3346 120.086 30.3245C118.017 27.7149 115.947 28.2998 113.697 28.8397C114.912 27.4 116.127 25.9152 117.522 24.2505C116.262 23.5307 115.182 22.9008 114.372 22.4059C114.462 20.7861 114.822 18.8965 114.597 17.0968C114.282 14.0373 115.362 12.0127 118.151 10.7979C118.062 13.4524 118.061 16.152 117.882 18.8065C117.792 20.3362 118.286 21.371 119.816 21.821C119.951 21.731 120.176 21.641 120.176 21.551C120.356 18.9865 120.671 16.4219 120.536 13.8574C120.491 13.0475 119.186 12.3276 118.466 11.5178C118.286 11.3828 118.241 11.0679 118.151 10.7979Z" fill="black"/>
<path d="M169.559 28.7948C168.389 29.6497 167.219 30.5495 165.734 31.6743C165.734 29.0198 165.734 26.6352 165.734 23.7107C164.34 24.4756 163.44 24.9705 161.955 25.8254C162.585 24.3856 162.765 22.9909 163.485 22.5859C166.589 20.7413 165.195 17.9518 165.554 15.0273C164.475 15.5672 163.71 15.9271 163.035 16.287C162.45 13.8575 162.765 13.3626 165.374 12.4177C165.734 8.90834 165.599 8.63838 163.08 8.81835C164.25 7.55857 165.239 6.52376 166.184 5.53394C168.839 6.79371 169.334 8.77336 169.199 11.4729C168.929 16.692 169.109 21.956 169.109 27.2201C169.109 27.76 169.424 28.3449 169.604 28.8848L169.559 28.7948Z" fill="black"/>
<path d="M169.514 28.8399C169.649 27.9851 169.874 27.1303 169.874 26.2754C169.919 19.7965 169.874 13.3627 170.369 6.88381C170.369 11.383 170.369 15.9272 170.369 20.2914C171.583 20.8314 172.618 21.2813 174.013 21.9112C173.383 17.142 175.183 12.3728 172.528 7.5137C172.978 7.10877 173.788 6.38889 174.643 5.62402C176.847 7.19875 178.602 8.81847 178.062 11.8329C177.837 13.0027 177.882 14.2625 178.062 15.4323C178.782 20.0665 177.567 23.6659 172.618 25.3756C172.348 25.1956 171.808 24.8356 170.953 24.2957C170.953 26.3654 170.953 28.1651 170.953 29.9647C170.773 30.0097 170.638 30.0547 170.458 30.0997C170.144 29.6948 169.829 29.2449 169.514 28.8399C169.514 28.8399 169.559 28.795 169.514 28.8399Z" fill="black"/>
<path d="M106.499 12.103C105.149 15.3424 105.824 18.6718 106.184 22.3162C105.734 22.7211 105.014 23.396 104.16 24.1609C103.44 23.486 102.63 22.7661 101.865 22.0462C103.485 18.0419 102.945 12.5979 100.785 11.878C101.64 11.0232 102.495 10.2583 103.44 9.35847C104.25 10.0783 105.149 10.8432 106.364 11.923C106.949 10.9782 107.579 9.98836 108.209 8.99854C110.548 10.4833 111.898 11.6981 111.493 14.2176C111.223 15.9723 111.448 17.817 111.448 19.6167C111.448 21.2364 112.123 21.8663 114.283 20.7865C112.888 22.2712 111.943 23.306 110.998 24.2958C108.974 23.216 108.119 21.6863 108.389 19.4817C108.569 17.862 108.524 16.1973 108.389 14.5326C108.299 13.6777 107.804 12.8679 107.489 12.058C107.174 12.013 106.814 12.058 106.499 12.103Z" fill="black"/>
<path d="M49.1342 20.6964C48.2793 21.7762 47.3795 22.901 46.5696 23.8908C42.1604 22.1811 41.4405 18.7167 42.1604 14.3075C40.9906 14.8024 40.3607 15.1174 39.6858 15.3873C39.4159 13.9476 39.5509 12.6878 41.1706 11.9229C42.1154 11.473 42.3854 7.87362 41.7555 6.11893C40.4957 2.65454 41.1256 1.39476 44.9949 0C43.7351 1.57472 43.8251 2.92449 44.9499 4.45422C45.6248 5.39906 45.8948 6.8388 45.8948 8.05359C45.8948 11.383 45.5798 14.7124 45.5348 18.0868C45.4898 19.9765 47.3345 21.2363 49.0442 20.6514C49.0892 20.6064 49.1342 20.6964 49.1342 20.6964Z" fill="black"/>
<path d="M63.9364 11.158C65.3311 9.35832 66.8159 8.72843 68.6156 10.7531C68.9755 11.158 69.7853 11.248 70.0103 11.338C69.9653 14.1725 69.7853 17.2319 69.9653 20.2464C70.0103 20.7413 71.2701 21.2362 71.99 21.7311C71.495 22.2261 70.6852 23.0809 69.7404 24.0707C68.7055 23.2159 67.7607 22.451 66.7259 21.5962C65.871 22.406 65.0612 23.1259 64.1613 23.9807C62.9915 23.1259 61.8217 22.316 60.8319 21.6412C60.8319 19.9315 61.0119 17.9968 60.7869 16.1521C60.427 13.4526 61.6418 11.9679 64.0264 11.113C64.0264 13.6326 64.0264 16.1971 63.9364 18.7167C63.8914 20.2914 64.6563 21.1013 66.6359 21.7311C66.6359 19.3916 66.5009 17.3669 66.6809 15.3423C66.9058 13.0477 65.916 11.7879 63.9364 11.158Z" fill="black"/>
<path d="M179.278 22.901C179.278 20.9663 179.458 18.9417 179.233 16.9171C179.008 14.6674 179.773 13.2277 181.708 12.1929C182.698 11.653 183.553 10.9331 184.452 10.3032C185.892 11.1581 187.242 11.9679 188.322 12.5978C188.322 14.6225 188.322 16.962 188.322 19.2566C188.322 21.0563 185.082 24.9706 183.328 25.0156C182.698 25.0606 182.068 24.3857 181.438 24.0258C180.628 23.6209 179.818 23.171 179.278 22.901ZM182.563 12.3279C182.563 14.9824 182.698 17.142 182.518 19.3016C182.338 21.3713 183.418 22.1811 185.532 22.901C184.228 19.3466 187.332 15.1624 182.563 12.3279Z" fill="black"/>
<path d="M143.393 11.6529C143.303 13.1377 142.988 14.8924 143.213 16.5571C143.618 19.6165 142.583 21.6862 139.838 23.0359C139.208 23.3509 138.623 23.8908 138.039 24.3407C136.644 23.3959 135.294 22.496 134.124 21.6862C134.124 19.6165 134.214 17.4569 134.079 15.3423C133.944 13.6776 134.394 12.4628 135.969 11.6979C136.689 11.338 137.364 10.8431 137.949 10.2582C139.028 9.22337 139.928 9.40333 141.008 10.3482C141.683 10.9781 142.673 11.293 143.393 11.6529ZM139.928 22.2261C139.928 19.5266 139.838 17.3669 139.973 15.2523C140.108 13.2727 139.073 12.3728 136.959 11.563C138.353 15.1173 135.204 19.3016 139.928 22.2261Z" fill="black"/>
<path d="M195.79 14.8921C196.6 15.252 197.364 15.657 198.534 16.1969C198.534 17.5466 198.624 19.3463 198.489 21.101C198.354 22.8107 194.53 24.8804 192.91 24.4754C191.65 24.1605 190.256 24.4304 189.086 24.4304C190.526 22.0009 191.471 21.6859 195.205 22.6757C195.205 21.191 195.205 19.7063 195.205 18.1315C193.54 18.5365 191.92 18.9414 189.806 19.4813C190.211 16.4668 189.131 14.1722 191.785 12.0126C194.125 10.1229 196.51 11.2028 199.254 10.3479C198.174 11.8326 197.319 12.9575 196.465 14.1272C196.555 13.7223 196.645 13.2724 196.69 12.9125C195.61 12.7325 194.575 12.5525 193.54 12.4175C193.54 13.7223 193.54 15.0721 193.54 16.9617C194.53 16.0169 195.16 15.432 195.79 14.8921Z" fill="black"/>
<path d="M56.3335 21.5512C55.5236 22.3611 54.7137 23.2159 53.9489 24.0258C52.2392 22.856 50.7094 21.7762 49.1347 20.6963L49.0897 20.6064C49.0897 17.7719 48.9997 14.9374 49.1797 12.1029C49.3147 9.98823 48.8648 8.32353 46.6602 7.28871C47.605 6.29888 48.4149 5.44403 49.2697 4.54419C51.6093 6.29888 53.5889 8.05357 52.9141 11.383C52.5991 12.9127 53.049 14.5324 52.8241 16.0622C52.4191 18.8517 53.8589 20.3364 56.1085 21.4162L56.3335 21.5512Z" fill="black"/>
<path d="M81.9341 9.40356C80.3593 12.1931 79.9994 12.2831 76.535 11.4732C76.535 12.823 76.535 14.1277 76.535 15.2525C78.1547 14.9826 79.5495 14.7576 80.8992 14.4877C82.159 19.7517 81.7091 20.6966 77.5248 23.6211C75.1852 23.6211 73.3856 23.6211 71.6309 23.6211C72.7107 22.0463 73.8805 20.3366 75.1403 18.402C74.3304 18.222 73.7005 18.042 72.8007 17.8171C73.2956 15.5225 71.9908 13.2279 74.6453 11.0233C77.0749 9.08862 79.5045 10.3934 81.9341 9.40356ZM78.1997 21.7764C78.1997 20.3816 78.1997 18.7619 78.1997 16.9172C75.6802 17.7271 75.2752 20.0217 73.9255 21.4165C75.4552 21.5514 76.8499 21.6864 78.1997 21.7764Z" fill="black"/>
<path d="M129.58 24.0257C128.545 23.5308 127.466 22.9908 126.566 22.5409C126.656 21.5961 126.836 20.3363 126.881 19.0765C126.926 17.1869 126.971 15.3422 126.836 13.4525C126.791 12.5977 126.251 11.8328 125.666 10.3931C126.611 8.95331 128.051 6.83868 129.49 4.76904C129.715 4.85903 129.94 4.94901 130.12 5.039C130.12 6.56873 130.12 8.09846 130.12 9.71817C131.065 9.80816 131.785 9.89814 133.09 10.0331C132.01 10.888 131.2 11.5179 130.21 12.3277C130.21 14.3524 130.075 16.7819 130.255 19.1665C130.345 20.1113 131.065 21.0112 131.515 21.956C131.74 21.866 131.965 21.821 132.19 21.7311C131.38 22.4959 130.48 23.2158 129.58 24.0257Z" fill="black"/>
<path d="M31.3376 16.9169C28.908 19.3915 28.953 19.5264 32.4624 21.866C33.1373 21.3261 33.8122 20.7412 34.487 20.1563C34.577 20.2463 34.712 20.3363 34.802 20.4713C33.4972 21.866 32.2375 23.3058 30.8427 24.7905C29.313 23.7107 27.8732 22.7209 26.5234 21.776C26.5684 20.1563 26.8384 18.1317 26.6584 16.107C26.5235 14.2174 27.1983 13.0026 28.773 12.1027C29.9428 11.4279 30.9777 10.573 32.3274 9.62817C33.3173 11.1579 34.3071 12.5977 35.4769 14.4423C34.1721 15.2072 32.9573 15.8821 31.6975 16.6019C33.0023 14.5323 30.7527 13.8574 29.9878 12.5527C29.9878 14.1274 29.9878 15.7021 29.9878 17.3218C30.5277 17.1418 30.9327 17.0519 31.3376 16.9169Z" fill="black"/>
<path d="M56.1538 21.4163C56.1088 18.0419 56.1988 14.6675 56.0188 11.2931C55.9288 9.89832 55.2539 8.54856 54.804 7.15381C54.534 7.15381 54.2641 7.1538 53.9941 7.19879C54.804 6.29895 55.6588 5.35412 56.4237 4.49927C59.1232 6.11898 60.338 8.36859 59.8431 11.473C59.6631 12.6428 59.6631 13.9026 59.8431 15.0724C60.383 18.2219 58.9433 20.1565 56.3337 21.5513L56.1538 21.4163Z" fill="black"/>
<path d="M204.157 25.1058C203.122 24.3859 202.177 23.756 201.368 23.2161C201.368 20.0667 201.458 16.8723 201.323 13.6778C201.278 13.0479 200.468 12.463 199.883 11.6982C201.008 9.89847 202.312 7.87384 203.572 5.8042C203.797 5.84919 203.977 5.93917 204.202 5.98416C204.202 7.4689 204.202 8.95364 204.202 10.5734C205.192 10.7083 205.912 10.7983 206.722 10.8883C206.587 11.1583 206.542 11.4732 206.362 11.6532C205.732 12.2381 204.472 12.778 204.427 13.3629C204.247 15.9724 204.292 18.5819 204.517 21.1915C204.562 21.6414 205.822 21.9564 206.677 22.4513C206.092 23.0362 205.102 24.071 204.157 25.1058Z" fill="black"/>
<path d="M150.411 12.1481C150.231 14.8476 149.826 17.5921 149.871 20.2917C149.916 22.5862 150.096 22.5863 148.117 24.251C147.397 23.4411 146.632 22.6312 145.867 21.8214C146.047 21.8214 146.272 21.8214 146.452 21.8214C146.542 18.9419 146.677 16.0174 146.632 13.1379C146.632 12.733 145.462 12.328 144.697 11.8331C145.282 11.2482 146.137 10.3034 147.307 9.08862C148.342 10.0784 149.331 11.0233 150.321 12.0131L150.411 12.1481Z" fill="black"/>
<path d="M95.7929 9.58325C97.0526 10.2581 98.0425 10.753 99.0323 11.293C97.3226 13.8125 98.0425 20.9213 100.562 21.7761C99.8421 22.676 99.1673 23.5758 98.4924 24.4306C97.2776 23.7558 96.1528 23.1259 95.3879 22.7209C95.3879 19.7065 95.4329 16.557 95.298 13.4076C95.298 13.0476 94.1731 12.7327 93.3633 12.2828C94.0382 11.5179 94.938 10.5281 95.7929 9.58325Z" fill="black"/>
<path d="M150.232 11.9677C150.997 11.0678 151.762 10.168 152.617 9.22314C153.787 9.98801 154.822 10.7079 155.631 11.2478C155.586 14.1273 155.497 17.2767 155.586 20.3812C155.586 20.7861 156.756 21.1011 157.521 21.551C156.936 22.1809 156.036 23.1707 155.092 24.2055C153.112 23.2157 152.167 21.8209 152.437 19.5263C152.617 17.8166 152.482 16.1069 152.482 14.3522C152.482 12.9575 151.942 12.0577 150.412 12.1026C150.412 12.1476 150.232 11.9677 150.232 11.9677Z" fill="black"/>
<path d="M99.3452 6.52377C98.5353 7.37862 97.9054 8.05351 97.1406 8.86337C96.2857 8.0985 95.5659 7.46861 94.666 6.65875C95.4309 5.84889 96.0608 5.12902 96.8256 4.27417C97.6355 4.99404 98.4004 5.66892 99.3452 6.52377Z" fill="black"/>
<path d="M195.789 14.8924C195.159 15.4323 194.529 16.0172 193.539 16.917C193.539 15.0273 193.539 13.6776 193.539 12.3728C194.574 12.5528 195.609 12.6878 196.689 12.8677C196.599 13.2726 196.554 13.6776 196.464 14.0825C196.239 14.3525 196.014 14.6224 195.789 14.8924Z" fill="white"/>
<path d="M31.338 16.917C30.9331 17.0519 30.5282 17.1419 29.9883 17.3219C29.9883 15.7022 29.9883 14.1275 29.9883 12.5527C30.7082 13.8575 32.9578 14.5324 31.698 16.602C31.563 16.692 31.473 16.827 31.338 16.917Z" fill="white"/>
<path d="M11.8554 9.5382C11.8554 12.9576 11.9004 16.377 11.8104 19.7964C11.8104 20.2463 11.0905 20.8762 10.5956 21.0112C7.22121 22.001 3.71182 19.5714 3.57685 15.8821C3.53185 14.2624 4.07176 12.5077 4.65665 10.9779C5.37653 9.22326 6.54633 8.00847 8.79593 9.17826C9.60579 9.58319 10.6856 9.40323 11.8554 9.5382ZM6.18638 11.6528C7.2212 14.4423 6.36636 17.0969 6.95125 19.9764C8.07606 19.0765 9.60579 18.4466 9.69577 17.6368C10.0107 15.1172 9.83074 12.5527 9.83074 9.62819C8.21103 10.528 6.99624 11.2029 6.18638 11.6528Z" fill="white"/>
<path d="M118.153 10.7981C118.243 11.068 118.288 11.338 118.468 11.563C119.188 12.3728 120.493 13.0927 120.538 13.9026C120.673 16.4671 120.358 19.0316 120.178 21.5962C120.178 21.6862 119.953 21.7762 119.818 21.8662C118.288 21.4162 117.793 20.4264 117.883 18.8517C118.063 16.1522 118.063 13.4526 118.153 10.7981Z" fill="white"/>
<path d="M121.797 27.9848C120.087 27.4899 118.422 27.04 116.803 26.59C117.658 25.5552 118.962 24.0705 120.672 22.0908C120.042 24.6554 124.631 25.3303 121.797 27.9848C121.752 27.9848 121.797 27.9848 121.797 27.9848Z" fill="white"/>
<path d="M63.9374 11.1581C65.9171 11.833 66.9069 13.0478 66.6819 15.2974C66.502 17.322 66.6369 19.3917 66.6369 21.6863C64.6573 21.0564 63.8924 20.2465 63.9374 18.6718C64.0274 16.1522 63.9824 13.5877 64.0274 11.0681C64.0274 11.0681 63.9374 11.1581 63.9374 11.1581Z" fill="white"/>
<path d="M182.562 12.3276C187.287 15.1171 184.182 19.3464 185.532 22.9008C183.417 22.1809 182.337 21.371 182.517 19.3014C182.697 17.1418 182.562 14.9822 182.562 12.3276Z" fill="white"/>
<path d="M139.928 22.2264C135.204 19.3019 138.354 15.1176 136.959 11.5632C139.074 12.3281 140.108 13.2279 139.973 15.2526C139.838 17.3672 139.928 19.5268 139.928 22.2264Z" fill="white"/>
<path d="M78.2 21.776C76.8503 21.641 75.4555 21.551 73.9258 21.371C75.2755 20.0213 75.6805 17.6817 78.2 16.8718C78.2 18.7615 78.2 20.3812 78.2 21.776Z" fill="white"/>
<path d="M6.1875 11.6528C6.99736 11.2029 8.21215 10.528 9.83186 9.62817C9.83186 12.5077 10.0568 15.1172 9.69689 17.6368C9.60691 18.4466 8.07717 19.0765 6.95237 19.9764C6.36747 17.0969 7.17733 14.4423 6.1875 11.6528Z" fill="black"/>
</svg>
