<svg width="95" height="23" viewBox="0 0 95 23" fill="none" xmlns="http://www.w3.org/2000/svg">
<path d="M73.5111 12.5949C73.5111 15.816 73.5111 19.0014 73.5111 22.2583C72.2584 22.2583 71.0437 22.2583 69.791 22.2583C69.791 15.2792 69.791 8.33582 69.791 1.35669C71.0437 1.35669 72.2963 1.35669 73.549 1.35669C74.7637 4.93573 75.9405 8.55057 77.1552 12.1654C77.1931 12.1654 77.2311 12.1654 77.269 12.1296C77.269 8.55056 77.269 4.97152 77.269 1.35669C78.5597 1.35669 79.7744 1.35669 81.065 1.35669C81.065 8.30003 81.065 15.2792 81.065 22.2941C79.7364 22.2941 78.4078 22.2941 77.0792 22.2583C76.9654 22.2583 76.7756 21.972 76.6997 21.8288C75.7507 19.0372 74.8396 16.2097 73.8906 13.4181C73.8147 13.1317 73.7008 12.8454 73.587 12.5591C73.6249 12.5949 73.549 12.5949 73.5111 12.5949Z" fill="black"/>
<path d="M37.5792 22.2941C36.3129 22.2941 35.1522 22.2941 33.9211 22.2941C33.077 19.0067 32.1977 15.7194 31.3535 12.3963C31.5645 12.3248 31.7404 12.2533 31.9163 12.1461C32.9363 11.6459 33.5342 10.8598 33.5342 9.68062C33.5342 8.60865 33.5342 7.53669 33.5342 6.46472C33.5342 5.46422 33.0066 4.96397 32.057 4.96397C31.7052 4.96397 31.3535 4.96397 30.8962 4.96397C30.8962 10.7526 30.8962 16.5055 30.8962 22.2941C29.7003 22.2941 28.5396 22.2941 27.3789 22.2941C27.3789 15.3263 27.3789 8.39426 27.3789 1.42648C29.2431 1.42648 31.1073 1.24782 32.9363 1.46221C35.4688 1.74807 37.0867 3.82054 37.0867 6.39325C37.0867 7.75108 37.0867 9.14463 37.0164 10.5025C36.9461 11.7531 36.4536 12.8608 35.5391 13.7541C35.2929 14.0042 35.2577 14.1829 35.3281 14.5402C36.1019 17.0772 36.8405 19.6142 37.5792 22.2941Z" fill="black"/>
<path d="M12.3477 11.7892C12.3477 9.82131 12.3477 7.85347 12.3477 5.88563C12.3477 3.04319 14.6307 0.783817 17.4662 0.820259C20.3385 0.8567 22.5479 3.07963 22.5479 5.92207C22.5479 9.85775 22.5479 13.7934 22.5479 17.7291C22.5479 20.608 20.3385 22.8309 17.4662 22.8309C14.6307 22.8309 12.3477 20.608 12.3477 17.7656C12.3477 15.7613 12.3477 13.7934 12.3477 11.7892ZM16.0669 11.8256C16.0669 13.7206 16.0669 15.6155 16.0669 17.5469C16.0669 18.5308 16.5824 19.1503 17.4294 19.1503C18.3132 19.1503 18.8287 18.5673 18.8287 17.5469C18.8287 13.757 18.8287 9.93063 18.8287 6.14072C18.8287 5.1568 18.2395 4.50085 17.4294 4.50085C16.6193 4.53729 16.1037 5.1568 16.0669 6.14072C16.0669 8.03568 16.0669 9.93064 16.0669 11.8256Z" fill="black"/>
<path d="M55.2949 1.35669C56.5515 1.35669 57.7341 1.35669 58.9907 1.35669C58.9907 1.60954 58.9907 1.82627 58.9907 2.07912C58.9907 7.13616 58.9907 12.1932 58.9907 17.2141C58.9907 17.5031 58.9907 17.8282 59.0646 18.1172C59.2124 18.7312 59.7668 19.1647 60.3951 19.1647C61.0233 19.1647 61.5777 18.7312 61.7255 18.1172C61.7994 17.8643 61.7994 17.5753 61.7994 17.2864C61.7994 12.2293 61.7994 7.17228 61.7994 2.15137C61.7994 1.89852 61.7994 1.68178 61.7994 1.39281C63.019 1.39281 64.2017 1.39281 65.4952 1.39281C65.4952 1.60954 65.4952 1.82627 65.4952 2.043C65.4952 7.38901 65.4952 12.6989 65.4952 18.0449C65.4952 20.3567 63.5734 22.4518 61.2081 22.7769C58.6211 23.1381 56.1819 21.6571 55.5167 19.3092C55.3688 18.8396 55.2949 18.3339 55.2949 17.8282C55.2949 12.5905 55.2949 7.35289 55.2949 2.07912C55.2949 1.89852 55.2949 1.68178 55.2949 1.35669Z" fill="black"/>
<path d="M89.425 18.7089C91.1358 18.7089 92.7754 18.7089 94.4862 18.7089C94.4862 19.9279 94.4862 21.111 94.4862 22.2941C91.6348 22.2941 88.7835 22.2941 85.8965 22.2941C85.8965 15.3389 85.8965 8.34777 85.8965 1.35669C88.7478 1.35669 91.5992 1.35669 94.4862 1.35669C94.4862 2.5398 94.4862 3.68705 94.4862 4.90601C92.811 4.90601 91.1358 4.90601 89.425 4.90601C89.425 6.51934 89.425 8.06096 89.425 9.67429C90.4943 9.67429 91.5279 9.67429 92.5972 9.67429C92.5972 10.8932 92.5972 12.0763 92.5972 13.2953C91.5635 13.2953 90.4943 13.2953 89.3894 13.2953C89.425 15.1596 89.425 16.9163 89.425 18.7089Z" fill="black"/>
<path d="M0 1.35693C2.88699 1.35693 5.70271 1.35693 8.5897 1.35693C8.5897 2.53802 8.5897 3.68331 8.5897 4.90019C6.95017 4.90019 5.31064 4.90019 3.59983 4.90019C3.59983 6.51075 3.59983 8.04974 3.59983 9.6961C4.59781 9.6961 5.63142 9.6961 6.73632 9.6961C6.73632 10.9488 6.73632 12.0941 6.73632 13.3467C5.70271 13.3467 4.66909 13.3467 3.56419 13.3467C3.56419 16.3531 3.56419 19.3237 3.56419 22.2943C2.35237 22.2943 1.21182 22.2943 0 22.2943C0 15.3152 0 8.33607 0 1.35693Z" fill="black"/>
<path d="M44.382 22.2941C44.382 16.522 44.382 10.7498 44.382 4.94186C43.3555 4.94186 42.3644 4.94186 41.3379 4.94186C41.3379 3.7229 41.3379 2.57565 41.3379 1.35669C44.559 1.35669 47.7802 1.35669 51.0013 1.35669C51.0013 2.5398 51.0013 3.68705 51.0013 4.90601C50.0102 4.90601 49.0191 4.90601 47.9572 4.90601C47.9572 10.714 47.9572 16.4861 47.9572 22.2941C46.7537 22.2941 45.6209 22.2941 44.382 22.2941Z" fill="black"/>
</svg>
