<svg width="180" height="21" viewBox="0 0 180 21" fill="none" xmlns="http://www.w3.org/2000/svg">
<path d="M18.7355 12.7774L21.7729 4.41448H21.8913L24.8104 12.7774H18.7355ZM19.9978 1.02197L12.4238 20.5881H15.9347L17.7887 15.4598H25.5994L27.4534 20.5881H31.1615L23.5875 1.02197H19.9978Z" fill="#D71635"/>
<path d="M166.471 11.6334L172.507 6.50521H170.179L162.369 13.2508V1.02197H160.633V20.5881H162.369V15.2232L165.169 12.8957L170.771 20.5881H172.98L166.471 11.6334Z" fill="#D71635"/>
<path d="M13.0167 1.02187H9.50581V14.3947C9.50581 16.8404 9.03243 18.1027 6.70502 18.1027C4.61428 18.1027 4.02257 16.8404 4.02257 14.5919V13.6452H0.511719V14.7102C0.511719 18.3 2.24742 20.9824 6.34999 20.9824C11.9516 20.9824 12.8589 17.5899 12.8589 14.2369V0.982422H13.0167V1.02187Z" fill="#D71635"/>
<path d="M153.883 9.77926V6.5051H152.266V20.5879H154.001V13.014C154.001 10.0948 156.092 7.76742 159.248 8.00411V6.26841C156.684 6.15007 154.711 7.45184 153.883 9.77926Z" fill="#D71635"/>
<path d="M103.471 7.45186C106.271 7.45186 107.889 9.89762 108.007 12.4617H98.8158C99.1708 10.016 100.67 7.45186 103.471 7.45186ZM103.471 6.03174C98.9341 6.03174 97.0801 9.73982 97.0801 13.4874C97.0801 17.5505 98.9341 20.943 103.471 20.943C107.06 20.943 108.954 19.0889 109.624 15.9331H108.007C107.415 18.1422 106.035 19.5229 103.589 19.5229C100.315 19.5229 98.9341 16.4854 98.9341 13.9213H109.861C109.861 10.016 108.125 6.03174 103.471 6.03174Z" fill="#D71635"/>
<path d="M114.08 2.20532H112.345V6.38678H109.859V7.8858H112.305V17.5505C112.305 19.9963 113.134 20.7063 115.343 20.7063C115.934 20.7063 116.408 20.7063 116.842 20.7063V19.2073C116.368 19.2073 115.777 19.3256 115.343 19.3256C114.08 19.2073 113.962 18.6156 113.962 17.4716V7.92525H116.881V6.54458H113.962V2.24477H114.08V2.20532Z" fill="#D71635"/>
<path d="M144.22 19.5623C140.946 19.5623 139.21 16.5248 139.21 13.5268C139.21 10.5288 140.828 7.49131 144.22 7.49131C147.494 7.49131 149.23 10.5288 149.23 13.5268C149.23 16.5248 147.494 19.5623 144.22 19.5623ZM144.22 6.03174C139.92 6.03174 137.475 9.42424 137.475 13.4874C137.475 17.5505 139.92 20.943 144.22 20.943C148.52 20.943 150.966 17.5505 150.966 13.4874C150.966 9.42424 148.52 6.03174 144.22 6.03174Z" fill="#D71635"/>
<path d="M42.4849 16.2882L37.0017 1.02197H32.2285V20.5881H35.5027V5.44012L40.9465 20.5881H43.8656L49.2305 5.44012H49.3488V20.5881H52.5836V1.02197H47.8104L42.4849 16.2882Z" fill="#D71635"/>
<path d="M93.6884 17.5506L82.288 1.02197H80.1973V20.5881H82.0513V4.05945L93.4517 20.5881H95.5424V1.02197H93.6884V17.5506Z" fill="#D71635"/>
<path d="M135.858 6.50513L132.229 18.4972L128.757 6.50513H126.746L123.274 18.4972L119.645 6.50513H117.791L122.328 20.588H124.182L127.692 8.7142H127.811L131.282 20.588H133.176L137.712 6.50513H135.858Z" fill="#D71635"/>
<path d="M59.9187 12.7774L62.9562 4.41448H63.0745L65.9936 12.7774H59.9187ZM61.2205 1.02197L53.6465 20.5881H57.1573L59.0114 15.4598H66.822L68.6761 20.5881H72.3842L64.8102 1.02197H61.2205Z" fill="#D71635"/>
<path d="M175.779 4.29619H174.95V6.50527H174.477V4.29619H173.648V3.94116H175.621L175.779 4.29619ZM179.053 6.50527H178.579V4.41453L177.751 6.50527H177.514L176.686 4.41453V6.50527H176.213V3.94116H176.804L177.514 5.7952L178.224 3.94116H178.816V6.50527H179.053Z" fill="#D71635"/>
</svg>
