<svg width="60" height="24" viewBox="0 0 60 24" fill="none" xmlns="http://www.w3.org/2000/svg">
<path d="M18.6301 22.2732C18.6301 23.2364 18.0658 23.7132 17.0442 23.7132H15.293V18.8388H17.0734C17.8518 18.8388 18.3966 19.2182 18.3966 20.055C18.3966 20.5901 18.1047 20.9014 17.6961 21.0473C18.1436 21.1738 18.6301 21.4852 18.6301 22.2732ZM17.8518 20.0842C17.8518 19.6366 17.5891 19.335 17.054 19.335H15.8378V20.8528H17.015C17.6183 20.8528 17.8518 20.5025 17.8518 20.0842ZM18.0853 22.3024C18.0853 21.6895 17.6766 21.3392 17.0442 21.3392H15.8378V23.217H17.0734C17.8031 23.2267 18.0853 22.857 18.0853 22.3024ZM20.2062 19.0334C20.2062 19.2377 20.0408 19.4031 19.8463 19.4031C19.6419 19.4128 19.4668 19.2474 19.4668 19.0431C19.4571 18.8388 19.6225 18.6637 19.8268 18.6637C20.0311 18.6539 20.2062 18.8193 20.2062 19.0237C20.2062 19.0237 20.2062 19.0237 20.2062 19.0334ZM20.0895 23.7132H19.5641V20.055H20.0895V23.7132ZM24.2633 21.8646C24.2633 23.1002 23.5531 23.791 22.658 23.791C21.7629 23.791 21.0819 23.1294 21.0819 21.8938C21.0819 20.6582 21.7921 19.9869 22.6872 19.9869C23.5823 19.9869 24.2633 20.6193 24.2633 21.8646ZM23.738 21.8743C23.738 20.9111 23.3099 20.4344 22.6677 20.4344C22.0353 20.4344 21.6073 20.9111 21.6073 21.8743C21.6073 22.8375 22.0353 23.3337 22.6677 23.3337C23.3099 23.3434 23.738 22.8375 23.738 21.8743ZM26.7638 20.5025H25.8589V22.8862C25.8589 23.217 25.9465 23.324 26.2286 23.324C26.4038 23.324 26.5789 23.2948 26.7443 23.217L26.7054 23.6742C26.4913 23.7618 26.2578 23.8007 26.0341 23.8007C25.5768 23.8007 25.3336 23.577 25.3336 22.9737V20.5122H24.8763V20.0744H25.3336V18.9458L25.8589 18.6539V20.0744H26.7638V20.5025ZM30.4317 21.777C30.4317 21.8743 30.4219 21.9716 30.4122 22.0592H27.9702C28.0188 22.8375 28.3885 23.3337 28.9917 23.3337C29.4198 23.3337 29.6631 23.2072 30.0036 22.9835L30.2468 23.3629C29.809 23.6451 29.4879 23.791 28.9334 23.791C28.2621 23.791 27.4448 23.3045 27.4448 21.8646C27.4448 20.6971 28.0869 19.9771 28.9528 19.9771C29.916 19.9869 30.4317 20.736 30.4317 21.777ZM29.9452 21.6408C29.9063 20.9306 29.595 20.4344 28.9528 20.4344C28.408 20.4344 28.0286 20.8236 27.9702 21.6408H29.9452ZM33.9439 20.4149L33.6326 20.8041C33.3699 20.5706 33.1267 20.4344 32.757 20.4344C32.1829 20.4344 31.7451 20.9501 31.7451 21.8646C31.7451 22.7597 32.1246 23.3434 32.7764 23.3434C33.1364 23.3434 33.3699 23.1975 33.6229 22.9543L33.9342 23.2851C33.6326 23.6159 33.2045 23.8007 32.757 23.791C31.9592 23.791 31.2197 23.1781 31.2197 21.9035C31.2197 20.5512 32.0273 19.9771 32.7959 19.9771C33.2142 19.9771 33.6229 20.1328 33.9439 20.4149ZM37.6702 23.7132H37.1449V21.5727C37.1449 20.7847 36.8627 20.4344 36.279 20.4344C35.773 20.4344 35.3741 20.7749 35.3741 21.5727V23.7132H34.8488V18.9264L35.3741 18.6345V20.5025C35.5979 20.1717 35.9774 19.9674 36.386 19.9771C37.1546 19.9771 37.6702 20.4344 37.6702 21.4852V23.7132ZM15.3124 7.73774H22.1618L20.8289 10.0144H18.2798V11.7656H20.8678V13.9353H18.2798V17.0875H15.3124V7.73774ZM22.5996 7.73774H25.5768V17.0875H22.5996V7.73774ZM27.1432 7.73774H33.4867V10.0046H30.0814V11.3084H32.757V13.371H30.0814V14.8206H33.6812V17.0875H27.1432V7.73774ZM34.8196 7.73774H38.5751C41.056 7.73774 42.2722 8.79822 42.2722 10.7052V10.8608C42.2722 12.0867 41.6592 12.7969 40.8128 13.2153L42.8073 17.0875H39.7134L38.1178 13.8282H37.7675V17.0875H34.8293L34.8196 7.73774ZM38.361 11.9408C39.0907 11.9408 39.4215 11.61 39.4215 10.9776V10.8122C39.4215 10.1992 39.081 9.94627 38.3902 9.94627H37.7578V11.9505H38.361V11.9408ZM43.1186 12.7775V12.0478C43.1186 9.31387 44.7823 7.5918 47.6135 7.5918C50.2404 7.5918 51.6901 8.70093 51.6901 11.2792H48.8589C48.8491 10.4133 48.4794 9.93655 47.633 9.93655C46.7184 9.93655 46.2222 10.6565 46.2222 12.0381V12.7678C46.2222 14.1688 46.6503 14.8887 47.6427 14.8887C48.4697 14.8887 48.9756 14.4704 48.9756 13.4683H51.7485C51.7485 15.9492 50.2599 17.2627 47.6135 17.2627C44.5196 17.2529 43.1186 15.4628 43.1186 12.7775ZM52.7895 7.73774H59.133V10.0046H55.7375V11.3084H58.4227V13.371H55.7375V14.8206H59.3373V17.0875H52.7992V7.73774H52.7895Z" fill="#ED2028"/>
<path d="M5.85624 23.7714L5.83678 18.5955L1.36133 21.1932L5.85624 23.7714Z" fill="url(#paint0_linear_34639_2387)"/>
<path d="M12.025 13.1084L12.0055 7.80591L0.943359 14.2175V19.5102L12.025 13.1084Z" fill="url(#paint1_linear_34639_2387)"/>
<path d="M12.025 5.78218L12.0055 0.479736L0.943359 6.89131V12.184L12.025 5.78218Z" fill="url(#paint2_linear_34639_2387)"/>
<defs>
<linearGradient id="paint0_linear_34639_2387" x1="5.57165" y1="18.9676" x2="3.38084" y2="22.8859" gradientUnits="userSpaceOnUse">
<stop stop-color="#F26722"/>
<stop offset="0.79" stop-color="#ED2028"/>
</linearGradient>
<linearGradient id="paint1_linear_34639_2387" x1="11.3988" y1="8.0743" x2="4.07895" y2="16.3996" gradientUnits="userSpaceOnUse">
<stop stop-color="#F26722"/>
<stop offset="0.79" stop-color="#ED2028"/>
</linearGradient>
<linearGradient id="paint2_linear_34639_2387" x1="11.3988" y1="0.751669" x2="4.07887" y2="9.07692" gradientUnits="userSpaceOnUse">
<stop stop-color="#F26722"/>
<stop offset="0.79" stop-color="#ED2028"/>
</linearGradient>
</defs>
</svg>
