<svg width="27" height="24" viewBox="0 0 27 24" fill="none" xmlns="http://www.w3.org/2000/svg">
<path d="M11.3015 20.2037H15.6197V19.2037H11.3015V20.2037ZM9.60135 20.1503H6.40109V21.1503H9.60135V20.1503ZM6.40109 20.1503C6.17852 20.1503 5.95394 20.1857 5.76652 20.2611C5.67415 20.2982 5.56597 20.355 5.47277 20.4437C5.37841 20.5334 5.26758 20.6893 5.26758 20.9052H6.26758C6.26758 21.0507 6.1922 21.1395 6.16195 21.1683C6.13287 21.1959 6.11747 21.1978 6.13974 21.1888C6.1816 21.172 6.27377 21.1503 6.40109 21.1503V20.1503ZM5.26758 20.9052V22.5605H6.26758V20.9052H5.26758ZM5.26758 22.5605C5.26758 22.7764 5.37841 22.9323 5.47277 23.022C5.56597 23.1107 5.67415 23.1674 5.76652 23.2046C5.95394 23.28 6.17852 23.3154 6.40109 23.3154V22.3154C6.27378 22.3154 6.1816 22.2937 6.13974 22.2769C6.11747 22.2679 6.13287 22.2698 6.16195 22.2974C6.1922 22.3262 6.26758 22.415 6.26758 22.5605H5.26758ZM6.40109 23.3154H20.5193V22.3154H6.40109V23.3154ZM20.5193 23.3154C20.7419 23.3154 20.9664 23.28 21.1539 23.2046C21.2462 23.1674 21.3544 23.1107 21.4476 23.022C21.542 22.9323 21.6528 22.7764 21.6528 22.5605H20.6528C20.6528 22.415 20.7282 22.3262 20.7584 22.2974C20.7875 22.2698 20.8029 22.2679 20.7806 22.2769C20.7388 22.2937 20.6466 22.3154 20.5193 22.3154V23.3154ZM21.6528 22.5605V20.9052H20.6528V22.5605H21.6528ZM21.6528 20.9052C21.6528 20.6893 21.542 20.5334 21.4476 20.4437C21.3544 20.355 21.2462 20.2982 21.1539 20.2611C20.9664 20.1857 20.7419 20.1503 20.5193 20.1503V21.1503C20.6466 21.1503 20.7388 21.172 20.7806 21.1888C20.8029 21.1978 20.7875 21.1959 20.7584 21.1683C20.7282 21.1395 20.6528 21.0507 20.6528 20.9052H21.6528ZM20.5193 20.1503H17.3198V21.1503H20.5193V20.1503ZM10.0267 19.9131C9.93511 20.0605 9.77346 20.1503 9.60135 20.1503V21.1503C10.1206 21.1503 10.6028 20.8807 10.8761 20.4409L10.0267 19.9131ZM17.3198 20.1503C17.1477 20.1503 16.9861 20.0605 16.8944 19.9131L16.0451 20.4409C16.3184 20.8807 16.8005 21.1503 17.3198 21.1503V20.1503ZM15.6197 20.2037C15.7918 20.2037 15.9535 20.2935 16.0451 20.4409L16.8944 19.9131C16.6211 19.4733 16.139 19.2037 15.6197 19.2037V20.2037ZM11.3015 19.2037C10.7822 19.2037 10.3 19.4733 10.0267 19.9131L10.8761 20.4409C10.9677 20.2935 11.1294 20.2037 11.3015 20.2037V19.2037Z" fill="white"/>
<path d="M1 2C1 1.44771 1.44772 1 2 1H25C25.5523 1 26 1.44772 26 2V16.2V19C26 19.5523 25.5523 20 25 20H2C1.44772 20 1 19.5523 1 19V16.2V2Z" stroke="white"/>
<path d="M4 5C4 4.44772 4.44772 4 5 4H22C22.5523 4 23 4.44772 23 5V14.4V16C23 16.5523 22.5523 17 22 17H5C4.44771 17 4 16.5523 4 16V14.4V5Z" stroke="white"/>
</svg>
