<svg width="80" height="24" viewBox="0 0 80 24" fill="none" xmlns="http://www.w3.org/2000/svg">
<path d="M0.945313 10.6588C1.04238 10.1807 1.12506 9.69892 1.23651 9.22078C2.51994 3.63049 7.67164 -0.262945 13.4165 0.013873C19.1542 0.290691 23.9212 4.75573 24.5719 10.4611C25.1651 15.6811 22.6522 20.4625 18.1044 22.7561C16.8534 23.3888 15.5268 23.7807 14.1247 23.9209C14.0061 23.9317 13.8839 23.9209 13.7832 24C13.1253 24 12.4674 24 11.8095 24C11.7125 23.9065 11.5866 23.9317 11.4716 23.9173C6.3846 23.3133 2.30063 19.6033 1.22571 14.6026C1.11786 14.0992 1.04236 13.5852 0.948889 13.0783C0.945294 12.2694 0.945313 11.4641 0.945313 10.6588ZM12.8773 5.05053C8.05271 5.23028 4.45406 7.36574 2.00943 11.4569C1.81889 11.7769 1.76857 12.0501 1.97349 12.4024C4.38217 16.5223 7.9053 18.8807 12.7442 18.895C17.673 18.9094 21.2645 16.5331 23.6983 12.3233C23.817 12.1184 23.8673 11.9458 23.7307 11.7085C21.3328 7.47359 17.709 5.25904 12.8773 5.05053Z" fill="#477CC0"/>
<path d="M59.3577 11.3887C59.7496 11.5756 60.0875 11.7266 60.4183 11.8992C62.356 12.9094 63.1721 14.5451 63.075 16.6806C62.9815 18.7154 62.0109 20.1822 60.1666 21.0558C58.8185 21.6957 57.3733 21.9329 55.8957 21.9437C52.6961 21.9653 49.4929 21.9437 46.2934 21.9581C45.9482 21.9581 45.8691 21.8467 45.8691 21.5231C45.8763 15.0916 45.8763 8.66005 45.8691 2.23211C45.8691 1.88699 45.9626 1.77554 46.3185 1.77914C49.3995 1.79352 52.4804 1.76476 55.565 1.79711C57.3014 1.81509 58.9479 2.19257 60.3284 3.34658C62.6472 5.2843 62.4746 9.21369 59.9977 10.9465C59.7999 11.0795 59.6058 11.2161 59.3577 11.3887ZM53.3972 18.0719C54.0551 18.0719 54.7129 18.0827 55.3708 18.0683C56.0431 18.0539 56.7154 18.0323 57.3517 17.7663C58.2217 17.4068 58.6603 16.7848 58.6639 15.8789C58.6675 14.955 58.2217 14.3007 57.3445 13.9448C56.7082 13.6859 56.0395 13.6284 55.3637 13.6248C53.7782 13.614 52.1928 13.6284 50.611 13.614C50.309 13.6104 50.194 13.6859 50.1976 14.0095C50.2156 15.2318 50.2156 16.4541 50.1976 17.6764C50.194 18.0036 50.3162 18.0791 50.6146 18.0719C51.5457 18.0611 52.4696 18.0719 53.3972 18.0719ZM52.8399 9.9255C53.3037 9.9255 53.7675 9.93629 54.2312 9.92191C54.979 9.90393 55.7304 9.86439 56.4206 9.53724C57.1144 9.21009 57.5027 8.67443 57.5279 7.89071C57.5566 7.07463 57.269 6.43472 56.5249 6.03926C55.9676 5.74447 55.3636 5.66178 54.7453 5.65459C53.354 5.64381 51.9663 5.65459 50.5751 5.64021C50.2695 5.63662 50.1976 5.74806 50.2012 6.02848C50.2119 7.18968 50.2192 8.35447 50.1976 9.51567C50.1904 9.86798 50.3234 9.93988 50.6434 9.9291C51.3732 9.91472 52.1065 9.9255 52.8399 9.9255Z" fill="#477CC0"/>
<path d="M72.2226 1.49156C74.5594 1.52032 76.8998 2.25371 78.9957 3.76003C79.3013 3.97933 79.3157 4.12673 79.1 4.42152C78.478 5.28074 77.8812 6.15433 77.2953 7.03871C77.1083 7.31913 76.9717 7.37665 76.6733 7.17173C75.6451 6.46351 74.5378 5.90627 73.3227 5.60429C72.3377 5.35983 71.3419 5.27714 70.364 5.64024C69.5839 5.92784 69.1884 6.45991 69.1597 7.14656C69.1273 7.9914 69.5479 8.52347 70.2885 8.85061C71.4821 9.38268 72.7547 9.66309 74.0094 10.0046C74.8902 10.2419 75.7422 10.5583 76.5798 10.925C79.8513 12.3522 80.4769 15.221 79.6176 18.0935C78.9993 20.157 77.4283 21.2895 75.4402 21.8431C72.6001 22.634 69.8427 22.2386 67.1644 21.0953C66.0967 20.6424 65.1368 20.0168 64.2345 19.2906C63.9612 19.0713 63.9792 18.9491 64.1949 18.701C64.9031 17.8921 65.597 17.0689 66.2728 16.2348C66.4957 15.958 66.6395 15.9077 66.9379 16.1557C68.0668 17.0905 69.3358 17.7843 70.7738 18.1186C71.9243 18.3847 73.0854 18.453 74.2287 18.0647C75.2604 17.716 75.717 16.8927 75.4762 15.9041C75.3431 15.3576 74.9441 15.0593 74.4803 14.8256C73.4845 14.3259 72.4096 14.0562 71.3419 13.7686C69.9865 13.4019 68.6276 13.046 67.3837 12.3594C65.6905 11.4247 64.8888 9.98665 64.7521 8.07408C64.4969 4.43231 67.0673 2.07755 70.2921 1.6066C70.8565 1.52392 71.4173 1.4664 72.2226 1.49156Z" fill="#477CC0"/>
<path d="M36.3162 22.2959C30.0321 22.375 25.5958 17.9746 25.488 11.8631C25.3981 6.83359 28.9824 2.46201 33.9507 1.62796C37.0964 1.09949 40.0911 1.51292 42.755 3.42189C43.1289 3.69152 43.4632 4.01507 43.8227 4.30987C43.9881 4.44648 44.0276 4.55433 43.8658 4.74127C43.039 5.68317 42.2157 6.63226 41.4068 7.58855C41.2163 7.81503 41.1048 7.71078 40.9467 7.57057C39.9005 6.65024 38.7393 5.93483 37.3552 5.64363C34.0658 4.95338 30.992 6.9702 30.3125 10.2884C29.8883 12.3592 30.2227 14.3077 31.5205 16.0153C33.2245 18.2514 36.3558 18.8842 38.9694 17.5756C39.7531 17.1837 40.447 16.6732 41.0869 16.0872C41.3062 15.8895 41.4284 15.9039 41.6297 16.1088C42.3883 16.8925 43.1576 17.6655 43.9377 18.424C44.1499 18.6289 44.1391 18.744 43.9377 18.9561C41.7915 21.2497 39.1312 22.321 36.3162 22.2959Z" fill="#477CC0"/>
<path d="M19.1833 12.0032C19.2192 15.4257 16.3576 18.3125 12.8955 18.3413C9.26815 18.3701 6.46402 15.5875 6.42807 11.9134C6.39212 8.53403 9.27174 5.65081 12.7158 5.62205C16.3216 5.59329 19.1437 8.37585 19.1833 12.0032Z" fill="#477CC0"/>
</svg>
