<svg width="123" height="24" viewBox="0 0 123 24" fill="none" xmlns="http://www.w3.org/2000/svg">
<path d="M11.5604 0.319336C12.9885 0.319336 14.4044 0.319336 15.9414 0.319336C15.9414 2.39216 15.9414 4.44059 15.9414 6.69631C16.3166 6.42806 16.5223 6.30613 16.7038 6.14762C17.7446 5.29411 18.9306 5.17217 20.1045 5.70867C21.2421 6.23297 21.8352 7.22061 21.8473 8.47649C21.8715 10.7078 21.8352 12.927 21.8352 15.1583C21.8352 15.5607 21.8594 15.963 21.9078 16.3654C21.9925 17.0116 22.3676 17.475 22.9728 17.731C23.1422 17.8042 23.2995 17.9017 23.4205 18.1212C21.5689 18.1212 19.7173 18.1212 17.793 18.1212C17.8657 17.9627 17.8778 17.8773 17.9141 17.8651C18.8338 17.5725 18.9427 16.8531 18.9306 16.024C18.9185 13.6098 18.9306 11.2077 18.9185 8.79351C18.9185 8.42772 18.8943 8.06193 18.7975 7.70833C18.6523 7.13526 18.2287 6.78166 17.672 6.63534C17.1274 6.50122 16.7523 6.81824 16.5102 7.22061C16.2682 7.62298 16.0382 8.09851 16.0382 8.54965C15.9898 10.9517 15.9898 13.3659 16.014 15.7679C16.0261 17.1945 16.0503 17.1945 17.1758 17.9505C16.8249 18.2553 12.5528 18.3895 11.3789 18.0846C11.6088 17.9261 11.7541 17.7798 11.9235 17.7188C12.6254 17.4384 12.9643 16.9629 12.9643 16.1947C12.9522 11.6955 12.9643 7.20842 12.9643 2.70918C12.9643 2.4897 12.9159 2.27023 12.9159 2.03856C12.9401 1.2582 12.5528 0.794865 11.8146 0.587583C11.7057 0.563197 11.6088 0.490039 11.512 0.441267C11.5483 0.41688 11.5604 0.368108 11.5604 0.319336Z" fill="black"/>
<path d="M110.87 0.319336C112.322 0.319336 113.762 0.319336 115.311 0.319336C115.311 2.35558 115.311 4.4284 115.311 6.67192C115.626 6.45244 115.795 6.34271 115.953 6.20858C116.969 5.31849 118.143 5.24533 119.353 5.6599C120.6 6.08665 121.145 7.11087 121.193 8.34237C121.266 10.0616 121.193 11.7808 121.193 13.5C121.193 14.2438 121.181 14.9998 121.205 15.7436C121.229 16.5117 121.399 17.2311 122.113 17.6944C122.21 17.7554 122.306 17.9383 122.282 18.0359C122.27 18.1212 122.076 18.2431 121.967 18.2309C120.418 18.2187 118.869 18.2066 117.308 18.17C117.248 18.17 117.187 18.0846 117.078 17.9993C117.236 17.9017 117.332 17.8286 117.453 17.7798C117.986 17.5725 118.276 17.1701 118.288 16.6215C118.301 13.8049 118.313 11.0005 118.264 8.18386C118.252 7.7571 117.938 7.28157 117.635 6.94017C117.223 6.47683 116.558 6.51341 116.122 6.94017C115.662 7.39131 115.311 7.90342 115.323 8.635C115.348 10.8419 115.311 13.0489 115.299 15.2558C115.299 15.6338 115.36 16.024 115.36 16.402C115.36 17.0848 115.638 17.5603 116.292 17.792C116.401 17.8286 116.485 17.9139 116.57 18.0724C114.658 18.4382 112.746 18.2675 110.846 18.2309C110.821 18.17 110.809 18.109 110.785 18.048C110.93 17.9505 111.064 17.8042 111.221 17.7554C112.056 17.5115 112.346 16.9385 112.346 16.1093C112.346 13.9024 112.383 11.6955 112.383 9.48852C112.371 7.0621 112.322 4.63568 112.298 2.20926C112.286 1.34355 111.947 0.782672 111.076 0.587583C110.991 0.563197 110.918 0.490039 110.834 0.441267C110.846 0.404687 110.858 0.368108 110.87 0.319336Z" fill="black"/>
<path d="M100.486 5.61119C101.007 5.58681 101.515 5.55023 102.036 5.53804C102.786 5.52584 103.524 5.52584 104.274 5.55023C104.722 5.56242 105.23 5.51365 105.158 6.294C105.364 6.15988 105.473 6.11111 105.557 6.02576C106.876 4.83084 108.655 5.26979 109.636 6.28181C110.737 7.42796 111.221 8.85455 111.403 10.3787C111.657 12.4759 111.185 14.439 110.047 16.2192C109.732 16.7069 109.333 17.158 108.897 17.536C107.893 18.4017 106.864 18.4627 105.715 17.8164C105.509 17.6945 105.303 17.5848 104.988 17.4019C104.952 17.9872 104.904 18.4871 104.916 18.9748C104.916 19.743 104.952 20.5111 104.988 21.2793C105.049 22.3035 105.376 22.6815 106.344 22.9375C106.501 22.9741 106.659 23.0473 106.816 23.096C106.804 23.1448 106.804 23.2058 106.792 23.2546C104.71 23.2546 102.616 23.2546 100.535 23.2546C100.523 23.2058 100.499 23.1692 100.486 23.1204C100.68 23.0229 100.874 22.901 101.079 22.8278C101.636 22.6327 101.939 22.2669 101.963 21.6695C101.987 20.8647 102.023 20.0478 102.023 19.243C102.023 15.7192 102.011 12.2076 102.011 8.68384C102.011 8.43998 101.987 8.19612 101.999 7.95226C102.011 7.03778 101.793 6.26962 100.789 5.97699C100.68 5.94041 100.595 5.85505 100.499 5.79409C100.474 5.72093 100.474 5.65997 100.486 5.61119ZM104.843 11.5248C104.904 12.8905 104.916 13.9391 105.013 14.9877C105.073 15.5973 105.267 16.207 105.473 16.7922C105.63 17.28 106.053 17.6092 106.525 17.536C106.913 17.475 107.397 17.1946 107.566 16.8776C107.929 16.146 108.268 15.3534 108.341 14.5487C108.486 12.927 108.534 11.281 108.462 9.6471C108.413 8.65946 108.195 7.63524 107.857 6.70857C107.445 5.58681 106.32 5.53804 105.69 6.57445C105.424 7.0134 105.206 7.5255 105.134 8.02542C104.976 9.2935 104.916 10.5738 104.843 11.5248Z" fill="black"/>
<path d="M77.4325 5.8061C77.5777 5.92803 77.6624 6.00119 77.7592 6.06215C79.6229 7.39119 79.8892 8.91533 79.4051 10.9638C79.1389 12.0977 78.2554 12.7683 77.1783 13.0732C76.3554 13.3048 75.484 13.4146 74.6369 13.5731C74.3585 13.6218 74.056 13.6218 73.8139 13.7316C73.6082 13.8291 73.463 14.073 73.2935 14.2559C73.463 14.4022 73.6203 14.6461 73.8139 14.6948C74.6127 14.8777 75.4356 15.0119 76.2465 15.1582C76.6458 15.2313 77.0452 15.3045 77.4325 15.402C78.8726 15.7922 79.9618 16.5482 80.2643 18.1211C80.579 19.8037 80.1191 21.1937 78.7274 22.2423C76.6942 23.7787 73.4388 23.6202 71.5508 21.8887C70.3285 20.767 70.5101 19.1331 71.9502 18.304C72.3617 18.0723 72.7973 17.8528 73.354 17.5602C72.9789 17.3895 72.7247 17.292 72.4827 17.17C70.9578 16.4263 70.8005 14.9021 72.1801 13.9023C72.5674 13.6218 72.991 13.4024 73.4751 13.0975C73.1967 12.8903 72.9789 12.7318 72.761 12.5732C71.2604 11.4515 70.8005 8.76901 71.8413 7.19611C72.3617 6.41575 73.1604 6.09873 74.0197 5.90364C74.8184 5.72075 75.6292 5.55004 76.428 5.35495C76.6942 5.29399 76.9363 5.14767 77.263 5.00136C77.0452 4.70872 76.8758 4.48925 76.7063 4.26977C76.1738 3.61135 76.2343 2.66029 76.8394 2.22134C77.5414 1.70923 78.558 1.87993 79.0299 2.59932C79.5745 3.42845 79.4051 4.48925 78.5943 5.07451C78.2554 5.35495 77.8681 5.55004 77.4325 5.8061ZM79.0057 20.5841C78.9936 19.4136 78.4974 18.8527 77.7834 18.4625C76.7547 17.9138 75.6413 17.7675 74.5037 17.9382C73.4509 18.0967 72.7489 18.7064 72.398 19.7062C72.168 20.3646 72.1559 21.0474 72.6763 21.5839C74.3706 23.2909 76.7305 23.2788 78.3522 21.718C78.7153 21.3766 78.8726 20.8158 79.0057 20.5841ZM73.9471 9.51279C73.9713 9.51279 73.9955 9.51279 74.0318 9.52498C74.0318 9.842 73.9834 10.1834 74.0439 10.4882C74.1649 11.0979 74.2496 11.7441 74.5401 12.2684C74.7216 12.6098 75.2541 12.9268 75.6292 12.939C75.9197 12.939 76.3554 12.4879 76.4764 12.1587C77.0815 10.5248 77.1662 8.84217 76.6216 7.18391C76.4401 6.63523 76.1012 6.1597 75.4114 6.17189C74.8789 6.18408 74.3948 6.61084 74.2496 7.30584C74.0923 8.02523 74.0439 8.76901 73.9471 9.51279Z" fill="black"/>
<path d="M4.08086 1.9165C3.1732 1.9287 2.50759 2.35546 2.13242 3.01388C1.59993 3.96494 1.20056 5.01354 0.801186 6.03776C0.631756 6.47671 0.631756 6.98882 0.547041 7.46435C0.510735 7.64725 0.450224 7.83014 0.268692 8.01304C0.232386 7.89111 0.171875 7.76918 0.171875 7.64725C0.171875 5.70855 0.171875 3.75766 0.171875 1.81896C0.171875 1.48975 0.25659 1.27027 0.643858 1.28247C4.21399 1.28247 7.77201 1.28247 11.3905 1.28247C11.3905 3.5138 11.3905 5.72074 11.3905 7.92769C11.3421 7.93988 11.3058 7.95207 11.2574 7.96426C11.1969 7.70821 11.1122 7.46435 11.0759 7.2083C10.8823 5.87925 10.5918 4.5624 9.81727 3.45283C9.4179 2.87976 8.81279 2.44081 8.2561 2.00186C7.85673 1.68484 7.62679 1.94089 7.59048 2.37984C7.56628 2.72125 7.54207 3.06265 7.54207 3.40406C7.54207 7.51312 7.54207 11.6222 7.55417 15.7191C7.55417 16.8896 7.90514 17.3285 9.01853 17.7065C9.21216 17.7797 9.4058 17.8528 9.58733 18.0479C7.05799 18.2674 4.54074 18.2552 2.0114 18.2064C1.98719 18.1455 1.97509 18.0845 1.95089 18.0235C2.13242 17.926 2.31395 17.7919 2.50759 17.7309C3.7299 17.3163 4.14137 16.8286 4.14137 15.5727C4.15348 11.2808 4.14137 6.98882 4.12927 2.70905C4.15348 2.47739 4.11717 2.24572 4.08086 1.9165Z" fill="black"/>
<path d="M37.2637 8.04987C37.2637 5.80634 37.2637 3.56282 37.2637 1.28271C41.0153 1.28271 44.7307 1.28271 48.4097 1.28271C48.4097 3.57501 48.4097 5.79415 48.4097 8.01329C48.3371 8.02548 48.2645 8.02548 48.1919 8.03767C48.1193 7.6353 48.0467 7.23293 47.9862 6.83056C47.7925 5.51371 47.4658 4.23344 46.6428 3.17264C46.2556 2.67272 45.6747 2.28255 45.1301 1.94114C44.7912 1.73386 44.4765 1.85579 44.4765 2.38009C44.5007 6.89152 44.5007 11.403 44.5128 15.9144C44.5128 16.8411 45.0695 17.341 45.8683 17.6458C46.1224 17.7434 46.3766 17.8409 46.6186 18.0482C44.0893 18.2677 41.572 18.2555 39.0548 18.2067C39.0306 18.1457 39.0185 18.0848 38.9943 18.0238C39.1637 17.9262 39.3089 17.7921 39.4905 17.7312C40.8217 17.2556 41.1122 16.9386 41.1243 15.5486C41.1727 11.3786 41.1727 7.22074 41.1848 3.05071C41.1848 3.02632 41.1848 3.01413 41.1848 2.98974C41.0758 2.62395 40.979 2.24597 40.8701 1.88017C40.4707 2.05088 39.9988 2.13623 39.6962 2.41667C38.4739 3.50185 37.9656 4.96502 37.6993 6.52573C37.6146 7.03784 37.5299 7.54995 37.4452 8.07425C37.3847 8.07425 37.3242 8.06206 37.2637 8.04987Z" fill="black"/>
<path d="M101.575 16.1583C101.648 16.9996 101.188 17.6092 100.316 17.975C98.9489 18.5603 97.9323 18.2433 96.7584 16.8899C96.2622 17.2435 95.8023 17.7068 95.2577 17.9385C93.0793 18.8651 91.0704 17.5605 90.8283 15.1097C90.6468 13.2929 91.143 12.4028 92.8131 11.659C93.4545 11.3664 94.1201 11.1469 94.7736 10.8909C96.7826 10.0861 96.9278 8.28155 96.3227 6.40382C96.0201 5.47715 95.052 5.19671 94.3016 5.64785C93.7328 5.98926 93.6723 6.24531 94.1201 6.74523C94.5679 7.24514 94.7978 7.78164 94.7131 8.45225C94.6163 9.257 94.0233 9.90323 93.2366 9.97639C92.3532 10.0617 91.5181 9.54963 91.2882 8.76927C91.0825 8.0255 91.1793 7.3183 91.6271 6.68426C92.9825 4.73337 97.0125 4.37977 98.6221 6.11119C98.961 6.47698 99.2514 7.05005 99.2756 7.53777C99.4087 10.1471 99.4451 12.7564 99.5177 15.3535C99.5298 15.6705 99.5177 16.012 99.6145 16.3168C99.6992 16.5728 99.917 16.9264 100.123 16.9508C100.413 16.9996 100.752 16.8167 101.03 16.6704C101.236 16.5972 101.357 16.3777 101.575 16.1583ZM96.5042 10.6592C96.3348 10.6836 96.1654 10.6714 96.0686 10.7445C95.1488 11.4396 94.2411 12.1955 93.8781 13.3295C93.5513 14.3415 93.6723 15.3779 94.2048 16.3168C94.6042 17.0118 95.3303 17.2069 95.8749 16.707C96.1775 16.4265 96.4558 15.9388 96.48 15.5242C96.5526 13.9391 96.5042 12.3418 96.5042 10.6592Z" fill="black"/>
<path d="M87.1264 18.1822C85.1174 18.1822 83.0964 18.1822 81.0874 18.1822C81.0632 18.1334 81.0511 18.0847 81.0269 18.0359C81.2085 17.914 81.3779 17.7554 81.5715 17.6823C82.1766 17.4506 82.4429 16.9995 82.4671 16.3776C82.4913 15.8899 82.5155 15.4022 82.5155 14.9267C82.5155 12.8051 82.5034 10.6713 82.5034 8.54968C82.5034 7.39134 82.6002 6.19642 80.9785 5.86721C81.0148 5.81844 81.039 5.76966 81.0753 5.7087C81.2448 5.65993 81.4142 5.58677 81.5957 5.57457C82.7091 5.55019 83.8104 5.55019 84.9238 5.538C85.4079 5.5258 85.7225 5.68431 85.6378 6.36712C85.9888 6.13546 86.2429 5.96475 86.4971 5.79405C88.264 4.57474 89.7525 5.41606 90.5029 6.4159C91.1443 7.2816 90.9143 8.59845 90.0551 9.15933C89.2079 9.70802 88.0219 9.42758 87.5016 8.47652C87.3079 8.09854 87.3805 7.58643 87.3079 7.13529C87.2716 6.89143 87.1869 6.65976 87.1264 6.42809C86.848 6.55002 86.4366 6.5866 86.3155 6.79388C86.0372 7.30599 85.7346 7.89126 85.7104 8.45214C85.6257 10.8176 85.6862 13.183 85.6257 15.5485C85.6015 16.6093 85.8436 17.4262 86.9085 17.8164C86.9933 17.853 87.0659 17.9383 87.1385 17.9871C87.1385 18.0725 87.1264 18.1334 87.1264 18.1822Z" fill="black"/>
<path d="M56.3019 0.307129C57.7178 0.307129 59.1459 0.307129 60.6102 0.307129C60.6344 0.758272 60.6707 1.22161 60.6828 1.68495C60.7312 6.3305 60.7918 10.9883 60.8039 15.6338C60.8039 16.719 61.1548 17.475 62.1714 17.8651C62.2319 17.8895 62.2803 17.9627 62.3408 18.0236C61.8083 18.3651 57.4758 18.4504 56.1566 18.1334C56.314 17.9993 56.4108 17.8773 56.5318 17.8286C57.4395 17.4994 57.7662 16.8043 57.7662 15.8899C57.7783 13.8049 57.8025 11.7198 57.8025 9.64702C57.8025 7.48884 57.7904 5.31848 57.7783 3.16031C57.7783 1.98977 57.9114 0.733886 56.1445 0.538797C56.205 0.453445 56.2535 0.380287 56.3019 0.307129Z" fill="black"/>
<path d="M56.6157 12.9635C56.6399 13.1098 56.7125 13.2561 56.6883 13.4024C56.5068 14.8534 56.059 16.2069 54.994 17.2677C53.8322 18.426 52.3316 18.6089 50.9761 17.67C49.1366 16.4019 48.35 14.5364 48.2168 12.3904C48.0837 10.2444 48.7009 8.31794 50.1895 6.70845C51.787 4.98923 54.5463 5.11116 55.8412 7.3303C56.5189 8.48864 56.8457 9.74453 56.8457 11.0858C56.8457 11.5613 56.6641 11.793 56.1679 11.8052C54.7157 11.8173 53.2634 11.8539 51.8112 11.8783C51.0245 11.8905 50.9519 11.9393 51.0124 12.7074C51.0851 13.6463 51.2182 14.5852 51.3755 15.524C51.4239 15.8167 51.557 16.0971 51.6902 16.3654C52.4163 17.7676 53.7475 17.9627 54.8609 16.8531C55.6112 16.1093 55.8896 15.1339 56.1074 14.134C56.1921 13.7317 56.289 13.3415 56.3737 12.9391C56.4584 12.9635 56.5431 12.9635 56.6157 12.9635ZM54.0259 11.1955C54.0622 9.72014 54.1469 8.3911 53.6628 7.11083C53.4934 6.67188 53.2876 6.23292 52.743 6.18415C52.1621 6.13538 51.8596 6.54994 51.6539 6.98889C51.0972 8.15943 50.9882 9.42751 51.0487 10.7078C51.0609 10.8785 51.3029 11.1589 51.4481 11.1711C52.2832 11.2199 53.1303 11.1955 54.0259 11.1955Z" fill="black"/>
<path d="M70.2564 12.9758C70.2564 13.2806 70.2927 13.5976 70.2443 13.8902C70.0628 14.9632 69.6755 15.9509 68.9978 16.8166C67.6666 18.5236 65.7061 18.7553 64.0844 17.3165C62.2448 15.6704 61.6518 13.5123 61.8455 11.1102C61.9665 9.56171 62.5474 8.1717 63.5519 6.96458C65.3551 4.80641 68.1265 5.05027 69.5303 7.47669C70.1596 8.57407 70.438 9.75679 70.4622 11.0127C70.4743 11.5004 70.2927 11.7808 69.7724 11.7808C68.3201 11.8052 66.8679 11.8296 65.4156 11.854C64.6169 11.8662 64.52 11.915 64.5927 12.7319C64.6895 13.7683 64.8226 14.8169 65.0646 15.8289C65.2583 16.5971 65.6939 17.3287 66.5774 17.475C67.594 17.6335 68.4532 17.2068 68.8889 16.2801C69.2883 15.4388 69.5061 14.4999 69.7966 13.6098C69.8692 13.3781 69.9176 13.1465 69.966 12.9026C70.0628 12.9514 70.1596 12.9636 70.2564 12.9758ZM67.6666 11.1956C67.594 9.9275 67.5456 8.75696 67.4488 7.59862C67.4245 7.2938 67.2551 6.97678 67.0857 6.72072C66.5895 5.97695 65.8634 5.97695 65.3914 6.74511C64.6532 7.9888 64.5685 9.37881 64.6411 10.781C64.6532 10.9273 64.9678 11.1712 65.1494 11.1834C65.9481 11.22 66.7226 11.1956 67.6666 11.1956Z" fill="black"/>
<path d="M31.2017 12.9635C31.226 13.1708 31.2986 13.3781 31.2744 13.5854C31.1291 14.9754 30.6693 16.2191 29.689 17.2311C28.5151 18.4504 26.966 18.6211 25.5864 17.6335C23.5169 16.1459 22.7666 13.9999 22.8755 11.5491C22.9481 9.81771 23.5048 8.22042 24.6908 6.90357C26.5666 4.80636 29.3743 5.15996 30.6935 7.65954C31.2865 8.7813 31.4801 9.97622 31.4438 11.2321C31.4317 11.6467 31.2744 11.8052 30.8629 11.8052C29.3743 11.8174 27.8858 11.8783 26.3851 11.8905C25.8405 11.8905 25.6227 12.0856 25.6227 12.6221C25.6227 13.8414 25.7195 15.0485 26.2278 16.1825C27.0265 17.9383 28.745 18.1456 29.7858 16.5117C30.3062 15.707 30.4998 14.6949 30.8266 13.7683C30.9113 13.5122 30.9355 13.244 30.9839 12.9757C31.0565 12.9635 31.1291 12.9635 31.2017 12.9635ZM28.6845 11.1955C28.6845 10.7322 28.6845 10.4152 28.6845 10.0981C28.6724 9.69578 28.7087 9.28121 28.6361 8.89104C28.5151 8.22042 28.4304 7.52541 28.1641 6.90357C27.7647 5.9647 26.9297 5.90374 26.4214 6.76944C25.6953 8.00094 25.5379 9.39095 25.6832 10.8053C25.6953 10.9517 25.9494 11.1711 26.0946 11.1833C26.9418 11.2199 27.7647 11.1955 28.6845 11.1955Z" fill="black"/>
</svg>
