<svg width="106" height="24" viewBox="0 0 106 24" fill="none" xmlns="http://www.w3.org/2000/svg">
<path d="M105.193 0.509033H0.355469V21.0151H105.193V0.509033Z" fill="#00549F"/>
<path d="M15.7954 20.6816C12.0887 20.6816 9.30859 19.2771 9.30859 15.7833V5.54785H12.5607V15.5024C12.5607 17.0825 13.7322 17.9955 15.8653 17.9955C17.7362 17.9955 19.0476 17.065 19.0476 15.52V5.54785H22.2997V15.9764C22.2997 19.1191 19.5896 20.6816 15.7954 20.6816Z" fill="white"/>
<path d="M24.3966 17.4512H21.4941V20.4885H24.3966V17.4512Z" fill="white"/>
<path d="M31.461 20.6989C26.9675 20.6989 25.3414 19.3295 24.7469 17.451C24.5896 16.9594 24.5371 16.222 24.5371 15.9236H27.8942C27.8942 16.1869 27.9816 16.6434 28.104 16.8716C28.5236 17.7494 29.5028 18.1181 31.4785 18.1181C33.734 18.1181 34.5383 17.5036 34.5383 16.5029C34.5383 15.274 33.9089 14.8351 31.5135 14.3961C31.0764 14.3259 29.9923 14.1152 29.3279 13.9748C26.4255 13.4305 24.642 12.0962 24.642 9.6032C24.642 7.07506 26.6702 5.37207 31.0414 5.37207C34.7656 5.37207 36.5316 6.67126 37.2659 8.56737C37.4583 9.05895 37.6156 9.62076 37.6156 10.007H34.2586C34.2586 9.83143 34.1712 9.49786 34.0488 9.26963C33.6466 8.44447 32.8423 8.00555 30.954 8.00555C28.4886 8.00555 27.9991 8.54981 27.9991 9.41008C27.9991 10.5161 28.8908 10.9375 31.3212 11.4291C32.073 11.5871 33.0521 11.7802 33.3843 11.8504C36.3393 12.4122 37.8779 13.6412 37.8779 16.2045C37.8779 18.8731 35.7448 20.6989 31.461 20.6989Z" fill="white"/>
<path d="M40.0294 17.4512H37.127V20.4885H40.0294V17.4512Z" fill="white"/>
<path d="M50.133 20.4885L44.1358 10.3759V20.4885H41.041V5.54785H44.8177L50.5527 15.1689V5.54785H53.6474V20.4885H50.133Z" fill="white"/>
<path d="M64.925 19.6632C63.9633 20.2776 62.6345 20.6639 60.851 20.6639C58.4207 20.6639 56.4449 19.9441 55.3783 18.2586C54.8363 17.3984 54.5391 16.2923 54.5391 14.9053C54.5391 13.6413 54.8888 12.5177 55.5007 11.6398C56.5498 10.0948 58.4556 9.19946 60.851 9.19946C63.3688 9.19946 65.0823 10.1124 66.0615 11.552C66.8833 12.7459 67.1805 14.3435 67.0056 15.9938H57.7038C57.7038 16.503 57.9311 16.8717 58.2983 17.293C58.7529 17.8022 59.6621 18.1182 60.851 18.1182C61.7428 18.1182 62.4072 17.9602 62.8618 17.7671C63.4388 17.5037 63.7185 17.1526 63.771 16.9068H66.9007C66.656 17.9602 66.0265 18.9609 64.925 19.6632ZM63.2814 12.6405C62.8268 12.1841 62.0575 11.7978 60.8685 11.7978C59.732 11.7978 58.8927 12.0963 58.3507 12.5879C57.9661 12.9215 57.6688 13.5886 57.6688 13.9046H63.8059C63.8234 13.571 63.6836 13.0619 63.2814 12.6405Z" fill="white"/>
<path d="M82.6207 20.4884H78.844C78.844 20.4884 76.6934 14.1505 76.6584 13.7994C76.6409 13.6589 76.5185 13.0093 76.5185 13.0093C76.5185 13.0093 76.3961 13.6589 76.3786 13.7818C76.3612 14.168 74.1931 20.4884 74.1931 20.4884H70.3989L66.4648 9.46289H69.8044L72.4446 17.6618L74.8575 9.46289H78.4069L80.8897 17.6618L83.4599 9.46289H86.5897L82.6207 20.4884Z" fill="white"/>
<path d="M92.4481 20.6817C88.7414 20.6817 86.9754 19.9443 86.5208 18.136C86.4159 17.6971 86.3984 17.3986 86.3984 17.0299H89.5632C89.5632 17.1704 89.5806 17.3635 89.6681 17.5917C89.8604 18.1184 90.6997 18.2589 92.4481 18.2589C94.2665 18.2589 94.826 17.9428 94.826 17.2933C94.826 16.6612 94.1616 16.5208 92.553 16.2925C92.1334 16.2399 90.8221 16.0292 90.1576 15.9414C87.7448 15.6078 86.5908 14.5369 86.5908 12.4301C86.5908 10.4638 88.3392 9.18213 91.8711 9.18213C94.8785 9.18213 96.7843 9.97217 97.3438 11.5523C97.4837 11.9736 97.5362 12.6583 97.5362 12.869H94.4414C94.4414 12.7461 94.3889 12.4125 94.3015 12.2721C94.0742 11.9736 93.4972 11.7103 91.9935 11.7103C90.2451 11.7103 89.7205 11.9912 89.7205 12.5179C89.7205 12.9919 90.0702 13.185 91.6263 13.4133C92.2558 13.501 93.7944 13.7293 94.1791 13.7995C96.8018 14.2033 97.9733 15.1865 97.9733 17.2406C97.9558 19.5229 96.2423 20.6817 92.4481 20.6817Z" fill="white"/>
<path d="M57.2146 7.56677C57.302 7.44387 57.3719 7.28586 57.3719 7.1103H58.2112C58.1937 7.47899 58.0538 7.81257 57.8091 8.0408C58.0014 8.18125 58.2287 8.35682 58.456 8.53238H57.3195C57.267 8.49727 57.2321 8.4446 57.1796 8.40949C56.9523 8.51483 56.6376 8.54994 56.3578 8.54994C55.641 8.54994 55.0115 8.42705 54.9766 7.86523V7.70723C54.9766 7.37365 55.3088 7.16297 55.6585 6.98741C55.4836 6.74161 55.4137 6.53093 55.4137 6.35537V6.19736C55.4312 5.82867 55.7983 5.47754 56.4103 5.47754C56.9873 5.47754 57.302 5.81111 57.337 6.1798V6.32025C57.337 6.7065 57.0397 6.96985 56.7425 7.14541C56.8824 7.26831 57.0397 7.42632 57.2146 7.56677ZM55.8683 7.75989C55.8683 7.90035 56.0082 7.95302 56.3054 7.95302C56.3928 7.95302 56.4977 7.95302 56.5677 7.9179C56.3928 7.75989 56.218 7.637 56.0956 7.49655C55.9557 7.60189 55.8683 7.67211 55.8683 7.75989ZM56.6026 6.39048V6.33781C56.6026 6.23247 56.5502 6.14469 56.4103 6.14469C56.2704 6.14469 56.218 6.23247 56.218 6.33781V6.42559C56.218 6.51338 56.2704 6.60116 56.3404 6.7065C56.4802 6.61872 56.5851 6.51338 56.6026 6.39048Z" fill="white"/>
<path d="M62.9506 8.55003H61.954C61.954 8.55003 61.5169 6.81193 61.4994 6.72414C61.4994 6.82948 61.0448 8.55003 61.0448 8.55003H60.0482L59.1914 5.54785H60.1705C60.1705 5.54785 60.6251 7.40885 60.6251 7.49663C60.6251 7.40885 61.0623 5.54785 61.0623 5.54785H62.0064C62.0064 5.54785 62.461 7.40885 62.461 7.49663C62.461 7.40885 62.9156 5.54785 62.9156 5.54785H63.8074L62.9506 8.55003Z" fill="white"/>
<path d="M67.026 7.00496C67.026 8.05836 66.5189 8.58505 65.4349 8.58505C64.3333 8.58505 63.8438 8.0408 63.8438 7.02251C63.8438 6.0569 64.3333 5.47754 65.4349 5.47754C66.5539 5.47754 67.026 6.00424 67.026 7.00496ZM66.0993 7.04007C66.0993 6.44315 65.9419 6.19736 65.4349 6.19736C64.9453 6.19736 64.7704 6.44315 64.7704 7.04007C64.7704 7.67211 64.9977 7.88279 65.4349 7.88279C65.8545 7.88279 66.0993 7.70722 66.0993 7.04007Z" fill="white"/>
<path d="M70.1709 7.05772C70.0835 7.21573 69.9436 7.32107 69.8037 7.33862L70.5031 8.55003H69.4715L68.9469 7.53175H68.335V8.55003H67.4258V5.54785H69.3141C69.7163 5.54785 69.9785 5.65319 70.1184 5.86387C70.2408 6.02188 70.2933 6.215 70.2933 6.49591C70.2933 6.72414 70.2408 6.91727 70.1709 7.05772ZM69.3666 6.37301C69.3316 6.28523 69.2442 6.25011 69.1043 6.25011H68.335V6.8646H69.1218C69.2267 6.8646 69.3316 6.82948 69.3666 6.75925C69.3841 6.70658 69.4015 6.63636 69.4015 6.56614C69.4015 6.49591 69.4015 6.42568 69.3666 6.37301Z" fill="white"/>
<path d="M70.9238 8.55003V5.54785H71.8505V7.7951H73.2843V8.55003H70.9238Z" fill="white"/>
<path d="M75.4344 8.55003H73.7559V5.54785H75.3994C75.9415 5.54785 76.2737 5.67075 76.466 5.9341C76.6408 6.19745 76.6933 6.44324 76.6933 6.98749C76.6933 7.61953 76.6408 7.86532 76.4835 8.11111C76.2737 8.39202 75.9764 8.55003 75.4344 8.55003ZM75.7841 6.98749C75.7841 6.77681 75.7666 6.49591 75.6967 6.40812C75.5743 6.28523 75.4694 6.25011 75.2421 6.25011H74.6651V7.83021H75.2421C75.4694 7.83021 75.5918 7.77754 75.6967 7.65464C75.7666 7.56686 75.7841 7.23329 75.7841 6.98749Z" fill="white"/>
<path d="M80.9249 7.05772C80.8375 7.21573 80.6976 7.32107 80.5578 7.33862L81.2571 8.55003H80.243L79.7185 7.53175H79.1066V8.55003H78.2148V5.54785H80.1032C80.5053 5.54785 80.7676 5.65319 80.9075 5.86387C81.0298 6.02188 81.0823 6.215 81.0823 6.49591C81.0648 6.72414 81.0124 6.91727 80.9249 7.05772ZM80.1381 6.37301C80.0857 6.28523 79.9983 6.25011 79.8759 6.25011H79.1066V6.8646H79.8934C79.9983 6.8646 80.1032 6.82948 80.1381 6.75925C80.1556 6.70658 80.1731 6.63636 80.1731 6.56614C80.1731 6.49591 80.1556 6.42568 80.1381 6.37301Z" fill="white"/>
<path d="M81.7305 8.55003V5.54785H84.2832V6.25011H82.6397V6.68903H84.2133V7.39129H82.6397V7.84776H84.3007V8.55003H81.7305Z" fill="white"/>
<path d="M87.5521 7.30351C87.3773 7.49663 87.0975 7.60197 86.7303 7.60197C86.6254 7.60197 85.8036 7.60197 85.8036 7.60197V8.55003H84.877V5.54785H86.7128C87.08 5.54785 87.3248 5.63563 87.4997 5.79364C87.6745 5.95165 87.7619 6.19744 87.7619 6.58369C87.7619 6.89971 87.692 7.1455 87.5521 7.30351ZM86.8003 6.37301C86.7478 6.28523 86.6604 6.23256 86.5205 6.23256H85.7862V6.91727H86.503C86.6779 6.91727 86.7653 6.8646 86.8003 6.77681C86.8352 6.72414 86.8352 6.67147 86.8352 6.58369C86.8527 6.49591 86.8352 6.42568 86.8003 6.37301Z" fill="white"/>
<path d="M91.274 7.00496C91.274 8.05836 90.767 8.58505 89.6829 8.58505C88.5814 8.58505 88.0918 8.0408 88.0918 7.02251C88.0918 6.0569 88.5814 5.47754 89.6829 5.47754C90.8194 5.47754 91.274 6.00424 91.274 7.00496ZM90.3473 7.04007C90.3473 6.44315 90.19 6.19736 89.6829 6.19736C89.1933 6.19736 89.0185 6.44315 89.0185 7.04007C89.0185 7.67211 89.2458 7.88279 89.6829 7.88279C90.1025 7.88279 90.3473 7.70722 90.3473 7.04007Z" fill="white"/>
<path d="M94.4404 7.05772C94.353 7.21573 94.2131 7.32107 94.0732 7.33862L94.7726 8.55003H93.741L93.2165 7.53175H92.6045V8.55003H91.6953V5.54785H93.5837C93.9858 5.54785 94.2481 5.65319 94.388 5.86387C94.5103 6.02188 94.5628 6.215 94.5628 6.49591C94.5628 6.72414 94.5103 6.91727 94.4404 7.05772ZM93.6361 6.37301C93.5836 6.28523 93.4962 6.25011 93.3738 6.25011H92.6045V6.8646H93.3913C93.4962 6.8646 93.6011 6.82948 93.6361 6.75925C93.6536 6.70658 93.6711 6.63636 93.6711 6.56614C93.6711 6.49591 93.6711 6.42568 93.6361 6.37301Z" fill="white"/>
<path d="M96.7127 6.26767V8.55003H95.786V6.26767H94.8418V5.54785H97.6743V6.26767H96.7127Z" fill="white"/>
<path d="M105.209 20.1724H0.371094V21.138H105.209V20.1724Z" fill="white"/>
<path d="M105.246 20.98H0.337891V23.7715H105.246V20.98Z" fill="#E41319"/>
</svg>
