<svg width="32" height="24" viewBox="0 0 32 24" fill="none" xmlns="http://www.w3.org/2000/svg">
<path d="M12.3005 20.2037H16.6187V19.2037H12.3005V20.2037ZM10.6004 20.1504H7.40011V21.1504H10.6004V20.1504ZM7.40011 20.1504C7.17755 20.1504 6.95296 20.1857 6.76554 20.2611C6.67317 20.2983 6.56499 20.3551 6.4718 20.4437C6.37743 20.5335 6.2666 20.6893 6.2666 20.9052H7.2666C7.2666 21.0507 7.19123 21.1395 7.16098 21.1683C7.1319 21.196 7.11649 21.1978 7.13877 21.1889C7.18063 21.172 7.2728 21.1504 7.40011 21.1504V20.1504ZM6.2666 20.9052V22.5606H7.2666V20.9052H6.2666ZM6.2666 22.5606C6.2666 22.7765 6.37743 22.9323 6.4718 23.0221C6.56499 23.1107 6.67317 23.1675 6.76554 23.2047C6.95296 23.2801 7.17755 23.3154 7.40011 23.3154V22.3154C7.2728 22.3154 7.18063 22.2938 7.13877 22.2769C7.11649 22.268 7.1319 22.2698 7.16098 22.2975C7.19122 22.3263 7.2666 22.4151 7.2666 22.5606H6.2666ZM7.40011 23.3154H21.5183V22.3154H7.40011V23.3154ZM21.5183 23.3154C21.7409 23.3154 21.9655 23.2801 22.1529 23.2047C22.2453 23.1675 22.3534 23.1107 22.4466 23.0221C22.541 22.9323 22.6518 22.7765 22.6518 22.5606H21.6518C21.6518 22.4151 21.7272 22.3263 21.7574 22.2975C21.7865 22.2698 21.8019 22.268 21.7797 22.2769C21.7378 22.2938 21.6456 22.3154 21.5183 22.3154V23.3154ZM22.6518 22.5606V20.9052H21.6518V22.5606H22.6518ZM22.6518 20.9052C22.6518 20.6893 22.541 20.5335 22.4466 20.4437C22.3534 20.3551 22.2453 20.2983 22.1529 20.2611C21.9655 20.1857 21.7409 20.1504 21.5183 20.1504V21.1504C21.6456 21.1504 21.7378 21.172 21.7797 21.1889C21.8019 21.1978 21.7865 21.196 21.7574 21.1683C21.7272 21.1395 21.6518 21.0507 21.6518 20.9052H22.6518ZM21.5183 20.1504H18.3188V21.1504H21.5183V20.1504ZM11.0258 19.9131C10.9341 20.0606 10.7725 20.1504 10.6004 20.1504V21.1504C11.1197 21.1504 11.6018 20.8808 11.8751 20.441L11.0258 19.9131ZM18.3188 20.1504C18.1467 20.1504 17.9851 20.0606 17.8935 19.9131L17.0441 20.441C17.3174 20.8808 17.7996 21.1504 18.3188 21.1504V20.1504ZM16.6187 20.2037C16.7908 20.2037 16.9525 20.2935 17.0441 20.441L17.8935 19.9131C17.6201 19.4733 17.138 19.2037 16.6187 19.2037V20.2037ZM12.3005 19.2037C11.7812 19.2037 11.2991 19.4733 11.0258 19.9131L11.8751 20.441C11.9667 20.2935 12.1284 20.2037 12.3005 20.2037V19.2037Z" fill="#1A2530"/>
<path d="M2 2C2 1.44771 2.44772 1 3 1H26C26.5523 1 27 1.44772 27 2V16.2V19C27 19.5523 26.5523 20 26 20H3C2.44772 20 2 19.5523 2 19V16.2V2Z" stroke="#1A2530"/>
<path d="M5 5C5 4.44772 5.44772 4 6 4H23C23.5523 4 24 4.44772 24 5V14.4V16C24 16.5523 23.5523 17 23 17H6C5.44771 17 5 16.5523 5 16V14.4V5Z" stroke="#1A2530"/>
<rect x="19.5" y="7.5" width="10" height="14" rx="1.5" fill="white" stroke="#1A2530"/>
<rect x="21.5" y="9.5" width="6" height="10" rx="0.5" stroke="#1A2530"/>
<g style="mix-blend-mode:multiply">
<path d="M18 4L1 4" stroke="url(#paint0_linear)" stroke-width="2" stroke-linecap="round" stroke-linejoin="round"/>
</g>
<g style="mix-blend-mode:multiply">
<rect x="26" y="14.1221" width="4.19056" height="4.19056" rx="1" transform="rotate(-45 26 14.1221)" fill="url(#paint1_linear)"/>
</g>
<defs>
<linearGradient id="paint0_linear" x1="19" y1="3" x2="0.499999" y2="3.00001" gradientUnits="userSpaceOnUse">
<stop stop-color="#14DDE0"/>
<stop offset="1" stop-color="#4B5AFF"/>
</linearGradient>
<linearGradient id="paint1_linear" x1="26" y1="14.1221" x2="29.4917" y2="17.6147" gradientUnits="userSpaceOnUse">
<stop stop-color="#0057FF"/>
<stop offset="0.588542" stop-color="#5AEEFF"/>
<stop offset="1" stop-color="#DEFFDE"/>
</linearGradient>
</defs>
</svg>
