<svg width="68" height="24" viewBox="0 0 68 24" fill="none" xmlns="http://www.w3.org/2000/svg">
<path d="M26.6922 7.30413C26.2094 6.79463 25.6917 6.48441 25.3342 6.48441H25.0127V6.20192H25.2808C25.4051 6.20192 26.8709 6.2615 27.0137 6.2615C27.2469 6.2615 27.9238 6.20192 28.0677 6.20192H28.3532L35.1513 13.7468V7.79514C35.1513 6.84907 34.7404 6.48441 33.706 6.48441H33.402V6.20192H33.7235C33.7595 6.20192 35.2941 6.2615 35.4184 6.2615C35.5961 6.2615 36.6141 6.20192 36.8103 6.20192H37.0075L37.025 6.48441C36.0779 6.55734 35.8283 6.81312 35.8283 7.6503V17.0596H35.5078L27.3887 8.05091V14.8305C27.3887 16.2522 27.7112 16.6343 28.8884 16.6343H29.1914V16.9384H28.8514C28.6018 16.9384 27.3712 16.8768 27.0846 16.8768C26.9244 16.8768 25.7811 16.9384 25.5315 16.9384H25.2449V16.6343C26.4426 16.5244 26.6932 16.3241 26.6932 15.4499V7.30413H26.6922ZM38.9983 7.41301C38.9983 6.70321 38.7302 6.48441 37.8899 6.48441H37.6228V6.20192H38.3193C38.8021 6.20192 41.4091 6.2615 41.4276 6.2615C41.8015 6.2615 44.2802 6.20192 44.8133 6.20192H45.5272L45.5632 8.54089H45.2858C45.2314 7.32056 44.6901 6.82853 43.442 6.82853H40.9459V10.9641H43.103C43.9412 10.9641 44.4055 10.5635 44.5298 9.70576L44.8483 9.72425V12.9887H44.5473C44.4055 11.9687 43.8878 11.5681 42.6397 11.5681H40.9284V15.34C40.9284 15.9594 41.2325 16.2697 41.8375 16.2697H43.6207C44.7774 16.2697 45.6176 15.7407 46.1169 14.6467H46.4394L45.6885 16.9374C45.1698 16.9374 42.7116 16.8778 41.8919 16.8778C41.3383 16.8778 38.6767 16.9189 38.0686 16.9374H37.6043V16.6343H37.8899C38.7302 16.6169 38.9993 16.3981 38.9993 15.6862V7.41301H38.9983ZM56.1538 17.0791H55.6535L53.6155 11.4181L51.5252 17.0801H51.0424L47.556 7.57737C47.2889 6.84804 47.0373 6.55734 46.5729 6.46797V6.2009H46.877C47.0732 6.2009 48.0573 6.2615 48.2894 6.2615C48.4856 6.2615 49.5036 6.20192 49.7183 6.20192H50.0408V6.48441C49.5221 6.50392 49.3074 6.64876 49.3074 6.93946C49.3074 7.10382 49.3608 7.34008 49.4512 7.59586L51.8991 14.3313L53.293 10.4895L52.3819 7.90505C51.9884 6.79463 51.6484 6.50392 50.7897 6.48441V6.20192H51.0773C51.3269 6.20192 52.614 6.2615 52.9191 6.2615C53.1677 6.2615 54.4548 6.20192 54.7403 6.20192H55.1687V6.48441H54.7403C54.1507 6.48441 53.8652 6.63027 53.8652 6.93946C53.8652 7.10382 53.9371 7.39555 54.0439 7.68625L56.4209 14.3858L58.2976 8.70525C58.5297 7.97695 58.6366 7.50341 58.6366 7.2127C58.6366 6.7032 58.387 6.48338 57.8333 6.48338H57.5118V6.20192H57.6011C57.8507 6.20192 58.4753 6.2615 58.8513 6.2615C59.029 6.2615 59.7254 6.20192 60.0634 6.20192H60.1897V6.48441C59.7419 6.61281 59.5118 6.93946 59.1553 8.05091L56.1528 17.0801L56.1538 17.0791ZM60.2729 14.4464C60.5585 15.1531 60.8071 15.4818 61.2878 15.8444C61.8939 16.3169 62.6951 16.5532 63.5857 16.5532C65.1173 16.5532 66.1507 15.7355 66.1507 14.5542C66.1507 13.6811 65.6514 13.2086 63.8065 12.32C62.0192 11.4469 61.5734 11.0113 61.1995 10.6477C60.6479 10.0478 60.4167 9.5034 60.4167 8.77613C60.4167 7.10485 61.7521 5.99854 63.7706 5.99854C64.3787 5.99854 65.0402 6.08893 65.7562 6.26972C66.0418 6.34163 66.3284 6.3786 66.4896 6.3786C66.6314 6.3786 66.7043 6.34265 66.7567 6.22144H67.0649L67.0998 8.5111H66.8461C66.6858 7.96565 66.579 7.73042 66.3458 7.43253C65.8445 6.83161 65.0577 6.50495 64.0479 6.50495C62.766 6.50495 61.9278 7.12231 61.9278 8.04989C61.9278 8.84906 62.4106 9.30309 64.1198 10.1023C66.3119 11.1377 67.6391 12.0653 67.6391 13.7725C67.6391 15.7345 66.0603 17.0596 63.7285 17.0596C63.0922 17.0542 62.4586 16.9752 61.8405 16.8244C61.6298 16.7756 61.4154 16.745 61.1995 16.7329C60.9848 16.7329 60.9149 16.7699 60.7732 16.9384H60.4701L60.4342 16.6836C60.313 15.9646 60.1692 15.2476 60.0048 14.5368L60.2729 14.4453V14.4464ZM4.99844 10.4094C4.72931 10.4094 4.47456 10.471 4.24858 10.582C3.6456 10.8809 3.26553 11.4962 3.26759 12.17C3.26759 13.1418 4.04313 13.9307 4.99742 13.9307C5.95376 13.9307 6.72725 13.1418 6.72725 12.17C6.72725 11.1973 5.95376 10.4084 4.99742 10.4084L4.99844 10.4094ZM12.455 10.4094C11.4997 10.4094 10.7241 11.1973 10.7241 12.17C10.7241 13.1418 11.4987 13.9307 12.455 13.9307C13.4103 13.9307 14.1848 13.1418 14.1848 12.17C14.1848 11.1973 13.4093 10.4084 12.455 10.4084V10.4094Z" fill="black"/>
<path d="M19.8926 15.6925C17.9799 15.6925 16.4309 14.1158 16.4309 12.1692C16.4309 10.2247 17.9799 8.6479 19.8926 8.6479C21.532 8.6479 22.9044 9.81071 23.2619 11.37H21.4334C21.2913 11.0824 21.0719 10.84 20.7997 10.6702C20.5275 10.5004 20.2134 10.4097 19.8926 10.4085C18.9352 10.4085 18.1607 11.1975 18.1607 12.1702C18.1607 13.142 18.9352 13.9309 19.8916 13.9309C20.2132 13.9297 20.528 13.8386 20.8007 13.668C21.0733 13.4974 21.2928 13.254 21.4345 12.9653L23.266 12.9478C22.9177 14.5195 21.5403 15.6925 19.8916 15.6925H19.8926ZM12.4545 15.6925C10.5511 15.6925 9.00719 14.1291 8.99384 12.1949L8.95275 6.01515H10.7031L10.7134 9.331C11.226 8.92422 11.8197 8.6479 12.4545 8.6479C14.3652 8.6479 15.9142 10.2247 15.9142 12.1702C15.9142 14.1158 14.3641 15.6925 12.4545 15.6925ZM6.75759 15.6925L6.7504 14.8102C6.358 15.2098 5.67901 15.6925 4.87676 15.6925C2.96614 15.6925 1.53728 14.1158 1.53728 12.1692C1.53728 10.2247 3.08632 8.6479 4.99694 8.6479C5.29483 8.6479 5.58554 8.68591 5.86288 8.75884C7.35543 9.14918 8.45763 10.5287 8.45763 12.1692V12.1795L8.47818 15.6925H6.75656H6.75759ZM12.4545 0.430176C6.08374 0.430176 0.919922 5.68644 0.919922 12.1702C0.919922 18.654 6.08374 23.9113 12.4545 23.9113C18.8233 23.9113 23.9881 18.654 23.9881 12.1702C23.9881 5.68644 18.8233 0.430176 12.4545 0.430176Z" fill="black"/>
</svg>
