<svg width="74" height="19" viewBox="0 0 74 19" fill="none" xmlns="http://www.w3.org/2000/svg">
<path d="M4.94176 18.2932H0.328125L7.94586 1.01465H12.5908L4.94176 18.2932Z" fill="#0A99E0"/>
<path d="M38.7531 1.01466V18.3252H34.4491V1.01466H38.7531ZM49.4369 0.457268C54.5773 0.457268 58.7268 4.45157 58.7268 9.62332C58.7268 14.8257 54.5467 18.8819 49.3749 18.8819C44.2032 18.8819 40.0238 14.857 40.0238 9.6838C40.0552 4.51277 44.2972 0.455811 49.4376 0.455811L49.4369 0.457268ZM49.4056 14.6705C52.1306 14.6705 54.143 12.317 54.143 9.65393C54.143 6.99081 52.1306 4.6687 49.4056 4.6687C46.6805 4.6687 44.6681 6.99081 44.6681 9.65393C44.6681 12.317 46.6805 14.6705 49.4056 14.6705ZM59.2223 13.0675L63.1546 12.1385C63.433 14.2129 64.9507 14.9561 66.5296 14.9561C68.1085 14.9561 68.6659 14.0271 68.6659 13.2839C68.6659 12.6959 68.3257 12.1072 67.1795 11.8908L64.7649 11.4245C61.8854 10.8671 59.8416 9.07103 59.8416 6.28405C59.8416 2.97101 62.845 0.648167 66.2826 0.648167C70.6798 0.648167 72.4759 3.37321 72.7855 5.69533L68.977 6.81012C68.7606 5.38566 67.8936 4.36414 66.3139 4.36414C64.9514 4.36414 64.3015 5.2618 64.3015 5.9671C64.3015 6.5551 64.5798 7.20576 65.6021 7.39156L68.11 7.85569C71.3924 8.50562 73.1885 10.4875 73.1885 13.0886C73.1885 15.9062 70.7425 18.6313 66.5617 18.6313C62.1338 18.6626 59.811 16.3711 59.223 13.0573L59.2223 13.0675ZM7.94336 1.01466H12.5883L18.7503 14.9495L22.4968 9.46886L16.7065 0.984061H22.0254L25.0288 6.12448L28.1254 0.984061H33.3897L27.63 9.46886L33.3584 18.2939H28.6209L25.0288 12.8132L21.4061 18.2939H15.6157L10.3405 6.20099L7.94336 1.01466Z" fill="#222222"/>
<path d="M7.94336 1.01464L15.623 18.2932L13.8394 7.92051L7.94336 1.01318" fill="#222222"/>
</svg>
