<svg width="60" height="22" viewBox="0 0 60 22" fill="none" xmlns="http://www.w3.org/2000/svg">
<path d="M4.13429 14.7434C3.92308 17.0791 5.73702 18.6818 8.18459 18.4955C9.70035 18.3837 11.154 18.0606 12.6697 17.3649C12.6697 18.3588 12.6822 19.2534 12.6573 20.1479C12.6573 20.2597 12.4213 20.4212 12.2597 20.4834C9.65065 21.5146 6.97944 21.7009 4.32065 20.7691C1.86065 19.9118 0.593379 17.9861 0.233076 15.464C-0.0154085 13.7246 0.0839847 11.9852 0.717621 10.3327C1.63701 7.94729 3.38883 6.58063 5.9358 6.38184C7.00429 6.29487 8.14732 6.33214 9.17853 6.58063C11.6634 7.16457 13.3158 9.32638 13.4276 11.9106C13.4649 12.6561 13.4276 13.4015 13.4649 14.147C13.4897 14.6067 13.3282 14.7558 12.8685 14.7434C10.1973 14.7185 7.52611 14.7309 4.85489 14.7309C4.60641 14.7434 4.37035 14.7434 4.13429 14.7434ZM4.17156 12.2088C5.9855 12.2088 7.76217 12.2088 9.53884 12.1964C9.63823 12.1964 9.82459 12.0224 9.83702 11.9106C9.97368 10.8546 9.11641 9.4879 8.07277 9.17729C5.84883 8.51881 4.22126 9.76123 4.17156 12.2088Z" fill="#666B6E"/>
<path d="M50.3142 14.7432C50.3267 17.2529 51.9542 18.719 54.3894 18.4829C55.1473 18.4084 55.9176 18.3214 56.6506 18.1599C57.3712 17.9984 58.067 17.7126 58.8745 17.4393C58.8745 18.3711 58.887 19.2905 58.8621 20.1975C58.8621 20.2969 58.6385 20.4211 58.4894 20.4832C55.7685 21.5393 52.9979 21.7381 50.2645 20.6696C47.9288 19.7502 46.7733 17.8493 46.4379 15.4266C46.2142 13.8363 46.3136 12.246 46.7982 10.7054C47.5933 8.17081 49.5439 6.55566 52.2027 6.38172C53.2588 6.30718 54.3645 6.34445 55.3958 6.58051C57.8806 7.16445 59.533 9.32627 59.6573 11.9105C59.6945 12.6808 59.6573 13.4387 59.6946 14.209C59.7194 14.6563 59.533 14.7681 59.1106 14.7557C56.4394 14.7432 53.7682 14.7432 51.097 14.7432C50.8361 14.7432 50.6 14.7432 50.3142 14.7432ZM56.0045 12.159C56.1661 10.3575 55.0355 9.04051 53.3458 9.01566C51.507 8.99081 50.2894 10.2705 50.4136 12.159C52.2773 12.159 54.1409 12.159 56.0045 12.159Z" fill="#666B6E"/>
<path d="M45.0721 6.59292C45.0721 7.6117 45.0721 8.50625 45.0721 9.48776C43.9912 9.48776 42.9352 9.48776 41.7797 9.48776C41.7797 13.3641 41.7797 17.1784 41.7797 21.0299C40.413 21.0299 39.1458 21.0299 37.7791 21.0299C37.7791 17.2281 37.7791 13.4138 37.7791 9.52503C36.9964 9.52503 36.3006 9.52503 35.5179 9.52503C35.5179 8.8417 35.493 8.23291 35.5303 7.62413C35.5427 7.49988 35.7291 7.32594 35.8782 7.26382C36.3379 7.07746 36.81 6.91594 37.2821 6.7917C37.6549 6.69231 37.7542 6.49352 37.7542 6.12079C37.7667 5.43746 37.7915 4.75413 37.9158 4.08322C38.3009 2.10776 39.5061 0.939883 41.5064 0.691399C43.0967 0.492611 44.687 0.554732 46.2276 1.03928C46.3394 1.07655 46.4512 1.1511 46.5879 1.21322C46.3021 2.02079 46.0412 2.82837 45.7306 3.6111C45.6809 3.73534 45.3952 3.85958 45.2336 3.84716C44.5752 3.80988 43.9291 3.63594 43.2706 3.64837C42.3885 3.67322 41.8294 4.26958 41.7549 5.13928C41.7176 5.58655 41.7549 6.04625 41.7549 6.56806C42.8606 6.59291 43.9291 6.59292 45.0721 6.59292Z" fill="#666B6E"/>
<path d="M15.8008 1.80957C17.1178 1.80957 18.3974 1.80957 19.7393 1.80957C19.7393 7.12715 19.7393 12.4199 19.7393 17.7871C22.3732 17.7871 24.945 17.7871 27.5541 17.7871C27.5541 18.9053 27.5541 19.9241 27.5541 21.005C23.6529 21.005 19.7517 21.005 15.8008 21.005C15.8008 14.6438 15.8008 8.25775 15.8008 1.80957Z" fill="#666B6E"/>
<path d="M33.5054 21.0421C32.1885 21.0421 30.9088 21.0421 29.5918 21.0421C29.5918 16.2588 29.5918 11.4879 29.5918 6.67969C30.8839 6.67969 32.1636 6.67969 33.5054 6.67969C33.5054 11.4506 33.5054 16.2091 33.5054 21.0421Z" fill="#666B6E"/>
<path d="M31.5424 4.66708C30.1881 4.65466 29.4054 3.89678 29.4427 2.61708C29.48 1.34981 30.2378 0.654053 31.5672 0.654053C32.909 0.666477 33.6669 1.37466 33.6793 2.62951C33.6793 3.9092 32.8718 4.67951 31.5424 4.66708Z" fill="#666B6E"/>
</svg>
