<svg width="247" height="22" viewBox="0 0 247 22" fill="none" xmlns="http://www.w3.org/2000/svg">
<path d="M196.397 0.122329C196.518 0.122329 196.662 0.0984871 196.783 0.0984871C200.037 0.0984871 203.292 0.0746451 206.546 0.0984871C208.595 0.122329 210.283 0.861431 211.175 2.79263C212.019 4.62847 211.922 6.48814 210.958 8.27629C210.428 9.27766 209.753 9.7545 208.041 10.4698C208.065 10.4936 208.065 10.5413 208.089 10.5413C210.066 11.0181 210.572 11.8287 210.789 14.0461C210.958 15.9057 211.078 17.7416 211.247 19.6012C211.271 19.935 211.247 20.4357 211.705 20.4119C211.922 20.388 212.187 19.935 212.26 19.6489C212.38 19.1006 212.404 18.5045 212.453 17.9323C212.766 17.8369 212.959 17.8846 212.935 18.2899C212.886 18.7906 212.911 19.3151 212.838 19.8158C212.694 20.8172 212.115 21.3655 211.199 21.5086C209.97 21.6755 209.005 21.2702 208.668 20.245C208.354 19.2198 208.186 18.123 208.089 17.0501C207.945 15.4527 207.969 13.8553 207.824 12.2817C207.728 11.1612 207.39 10.8989 206.257 10.8989C205.871 10.8989 205.462 10.8989 205.003 10.8989C205.003 11.1612 205.003 11.3519 205.003 11.5665C205.003 14.0937 205.003 16.6448 205.003 19.1721C205.003 20.1734 205.148 20.7695 206.305 20.9364C206.45 20.9602 206.546 21.151 206.667 21.2463C206.643 21.294 206.595 21.3417 206.57 21.3894C204.594 21.3894 202.641 21.3894 200.664 21.3894C200.64 21.3417 200.592 21.3179 200.568 21.2702C200.712 21.151 200.833 20.9364 201.002 20.8887C202.087 20.5311 202.231 20.3642 202.231 19.2436C202.231 13.6169 202.231 7.96635 202.231 2.33963C202.231 0.885273 200.978 0.170013 199.7 0.885273C199.435 1.05217 199.17 1.4098 199.097 1.71974C198.977 2.22042 198.953 2.76879 198.953 3.29331C198.953 7.60872 198.977 11.9241 198.929 16.2634C198.929 17.1694 198.808 18.0992 198.591 18.9813C198.157 20.6264 196.976 21.5086 195.264 21.5563C194.589 21.5801 193.89 21.5324 193.239 21.3894C191.504 20.9602 190.371 19.5774 190.154 17.67C190.105 17.1455 190.057 16.621 190.057 16.0965C190.057 11.638 190.057 7.15572 190.057 2.69726C190.057 2.50653 190.057 2.31579 190.057 2.12506C190.033 1.17138 189.913 1.00448 188.996 0.742221C188.731 0.670695 188.442 0.646853 188.611 0.193855C189.551 0.193855 190.515 0.193855 191.479 0.193855C192.42 0.193855 193.336 0.193855 194.276 0.193855C194.421 0.193855 194.589 0.313065 194.734 0.384591C194.589 0.503801 194.469 0.646853 194.3 0.718379C194.083 0.813747 193.866 0.837589 193.649 0.885273C193.239 1.00448 193.022 1.26674 192.974 1.6959C192.95 1.93432 192.95 2.17274 192.95 2.435C192.95 7.13188 192.926 11.8287 192.95 16.5256C192.95 17.3601 193.046 18.2184 193.239 19.029C193.48 20.0542 194.155 20.5072 195.168 20.5549C196.494 20.6264 197.289 20.2211 197.651 19.2198C197.844 18.6714 198.012 18.0515 198.012 17.4555C198.037 12.4486 198.037 7.41798 198.012 2.41116C198.012 1.26674 197.627 0.789905 196.638 0.694537C196.494 0.670695 196.397 0.503801 196.253 0.384591C196.325 0.217697 196.349 0.170013 196.397 0.122329ZM205.052 10.2075C205.486 10.2075 205.871 10.2075 206.257 10.2075C207.535 10.1837 208.162 9.73065 208.427 8.49087C208.812 6.63119 208.812 4.77152 208.427 2.91184C208.041 1.00448 207.053 0.408433 205.052 0.789905C205.052 3.91321 205.052 7.01267 205.052 10.2075Z" fill="black"/>
<path d="M242.92 0.349265C242.776 0.469112 242.681 0.636897 242.514 0.708805C242.322 0.804683 242.084 0.828652 241.868 0.876591C241.438 0.996437 241.199 1.28407 241.176 1.73949C241.152 1.95521 241.152 2.1949 241.152 2.41063C241.152 8.379 241.152 14.3474 241.152 20.3157C241.152 20.5075 241.152 20.6753 241.152 20.867C243.063 21.2505 244.425 20.6513 245.094 18.9255C245.548 17.727 245.739 16.4087 246.026 15.1623C246.05 15.0425 246.026 14.9226 246.074 14.8268C246.122 14.7069 246.241 14.635 246.337 14.5152C246.432 14.635 246.576 14.7548 246.576 14.8507C246.6 16.0971 246.576 17.3435 246.6 18.5899C246.6 19.5487 246.6 20.5075 246.6 21.5142C241.319 21.5142 236.062 21.5142 230.614 21.5142C230.829 21.2985 230.925 21.1786 231.044 21.0828C231.068 21.0588 231.116 21.0588 231.164 21.0588C232.454 20.8431 232.836 20.7232 232.502 19.0214C232.311 18.0626 232.096 17.1038 231.928 16.1451C231.881 15.8335 231.713 15.7616 231.427 15.7616C230.423 15.7616 229.419 15.7616 228.44 15.7855C228.272 15.7855 228.01 15.9293 227.986 16.0492C227.771 17.2716 227.532 18.4941 227.412 19.7405C227.341 20.5794 227.627 20.867 228.464 21.0588C228.703 21.1067 229.109 21.0588 228.942 21.5621C227.556 21.5621 226.146 21.5621 224.545 21.5621C224.736 21.3224 224.832 21.1067 224.951 21.0828C225.835 20.891 226.194 20.2678 226.361 19.5008C226.815 17.3915 227.269 15.2582 227.723 13.1489C228.607 8.95426 229.467 4.78359 230.351 0.588958C230.375 0.445142 230.423 0.301326 230.471 0.15751C231.379 0.013694 231.379 0.013694 231.57 0.948499C232.884 7.13259 234.198 13.2927 235.513 19.4768C235.56 19.6686 235.608 19.8363 235.656 20.0281C235.943 20.9389 236.325 21.1786 237.305 21.0588C237.974 20.9869 238.308 20.5554 238.332 19.6686C238.356 17.1757 238.332 14.6829 238.332 12.1901C238.332 9.0022 238.332 5.81428 238.332 2.62635C238.332 1.49979 238.236 0.948499 237.042 0.756744C236.922 0.732774 236.851 0.54102 236.755 0.421173C236.851 0.373234 236.946 0.253388 237.066 0.253388C238.977 0.253388 240.913 0.253388 242.824 0.253388C242.848 0.253388 242.872 0.301326 242.92 0.349265ZM229.921 6.5813C229.873 6.5813 229.826 6.5813 229.778 6.5813C229.228 9.36174 228.679 12.1662 228.129 14.9706C229.324 14.9706 230.471 14.9706 231.642 14.9706C231.044 12.1422 230.495 9.36174 229.921 6.5813Z" fill="black"/>
<path d="M74.049 20.8922C75.9606 21.275 77.3464 20.7008 77.9916 18.9543C78.4695 17.6863 78.6606 16.2987 78.9474 14.9828C79.0191 14.7197 79.0191 14.4326 79.4492 14.624C79.4492 16.7293 79.4492 18.8586 79.4492 20.9879C79.4492 21.1793 79.4492 21.3468 79.4492 21.5621C74.1685 21.5621 68.9117 21.5621 63.4876 21.5621C63.6549 21.3468 63.7505 21.2272 63.8699 21.1076C63.9177 21.0597 64.0133 21.0597 64.085 21.0597C65.3992 20.7726 65.5903 20.5334 65.3275 19.1936C65.1363 18.1648 64.9213 17.16 64.6824 16.1551C64.6585 16.0116 64.4195 15.7963 64.2523 15.7963C63.2248 15.7723 62.1734 15.7723 61.146 15.7963C61.0026 15.7963 60.7876 15.9877 60.7398 16.1312C60.5247 17.16 60.3336 18.1887 60.1902 19.2414C60.0229 20.4377 60.2619 20.7726 61.4327 21.1076C61.5761 21.1554 61.6955 21.3229 61.815 21.4425C61.7911 21.4904 61.7433 21.5382 61.7194 21.5621C60.3097 21.5621 58.8999 21.5621 57.4901 21.5621C57.4662 21.5143 57.4184 21.4904 57.3945 21.4425C57.514 21.3229 57.6335 21.1076 57.7768 21.0597C58.6132 20.8922 58.9716 20.3181 59.1388 19.5764C59.5689 17.6385 59.999 15.7245 60.4052 13.7866C61.361 9.26481 62.3168 4.71911 63.2487 0.197327C64.1328 -0.0179954 64.1806 0.0298542 64.3478 0.843296C65.662 7.01588 66.9762 13.1645 68.2904 19.3371C68.3382 19.5525 68.386 19.7678 68.4577 19.9831C68.7683 20.9162 69.509 21.3229 70.3931 20.9162C70.7038 20.7726 70.9188 20.3659 71.0861 20.0549C71.1817 19.8635 71.1339 19.5764 71.1339 19.3371C71.1339 13.6909 71.1339 8.06857 71.1339 2.42233C71.1339 1.20217 71.0622 1.13039 69.9153 0.747597C69.7719 0.699747 69.6763 0.532274 69.5568 0.41265C69.7002 0.340876 69.8436 0.245177 69.963 0.245177C71.7312 0.245177 73.4994 0.221252 75.2915 0.245177C75.4349 0.245177 75.5544 0.364801 75.6977 0.436575C75.5783 0.556199 75.4827 0.699748 75.3632 0.771522C75.2198 0.843296 75.0287 0.867221 74.8614 0.891146C74.288 0.986845 74.0251 1.34572 73.9773 1.89599C73.9534 2.06346 73.9534 2.23093 73.9534 2.39841C73.9534 8.3796 73.9534 14.3369 73.9534 20.3181C74.049 20.5334 74.049 20.7248 74.049 20.8922ZM64.5151 15.0068C63.9416 12.1597 63.3682 9.36051 62.7947 6.56131C62.7469 6.56131 62.723 6.56131 62.6752 6.56131C62.1256 9.36051 61.5761 12.1597 61.0026 15.0068C62.1973 15.0068 63.3443 15.0068 64.5151 15.0068Z" fill="black"/>
<path d="M41.7823 0.129798C43.687 0.129798 45.5916 0.129798 47.4722 0.129798C47.5204 0.177691 47.5446 0.225585 47.5928 0.249531C47.4722 0.369265 47.3758 0.560839 47.2311 0.608733C46.4596 0.872147 46.1944 1.11161 46.2908 1.9258C46.4596 3.21893 46.7248 4.536 46.99 5.80518C47.5687 8.72668 48.1714 11.6482 48.7742 14.5457C48.7983 14.7134 48.8465 14.857 48.9911 15.0007C49.4974 12.3187 49.9314 9.63666 50.5342 6.97857C50.8958 5.37414 50.3172 3.93733 50.1002 2.42869C50.052 2.14132 49.9796 1.83002 49.9073 1.54266C49.7868 1.08767 49.5698 0.70452 49.0394 0.608733C48.9188 0.584786 48.8224 0.417158 48.7259 0.297425C48.8706 0.225584 48.9911 0.105851 49.1358 0.105851C50.7753 0.0819039 52.4147 0.0819039 54.0542 0.105851C54.1989 0.105851 54.3194 0.225584 54.4641 0.297425C54.3435 0.417158 54.223 0.584786 54.1024 0.608733C53.138 0.8482 52.8487 1.15951 53.0175 2.16527C53.4274 4.536 53.9096 6.90673 54.3676 9.27746C54.7293 11.1932 55.1151 13.085 55.5008 15.0486C55.5731 14.9289 55.6455 14.881 55.6696 14.8092C56.4652 10.8819 57.2608 6.93067 58.0323 3.00341C58.0806 2.73999 58.1047 2.45263 58.1047 2.16527C58.1288 1.06372 57.9841 0.872147 56.8992 0.608733C56.7545 0.584786 56.6581 0.441105 56.5375 0.345318C56.634 0.273478 56.7545 0.129798 56.851 0.129798C58.1529 0.105851 59.4789 0.129798 60.7809 0.129798C60.805 0.177691 60.8532 0.225584 60.8773 0.273478C60.7809 0.393212 60.6844 0.608732 60.5398 0.632679C59.6236 0.752413 59.3343 1.42292 59.1655 2.16527C58.6833 4.34443 58.2011 6.54753 57.743 8.72668C56.851 12.9174 55.983 17.0841 55.0909 21.2748C55.0668 21.3706 55.0186 21.4424 54.9945 21.5621C54.7534 21.5621 54.5123 21.5621 54.1989 21.5621C53.2345 16.9883 52.2701 12.3905 51.3298 7.8167C51.3057 7.8167 51.2575 7.8167 51.2334 7.79276C50.3654 12.3666 49.4974 16.9644 48.6295 21.5621C48.2678 21.5621 47.9544 21.5621 47.5928 21.5621C47.3035 20.1732 46.99 18.7604 46.7007 17.3715C45.6399 12.4145 44.579 7.4575 43.5182 2.50053C43.47 2.26106 43.3976 2.02159 43.3253 1.78212C43.1565 1.18345 42.819 0.752413 42.1439 0.608733C41.9993 0.584786 41.8546 0.393212 41.7341 0.273478C41.71 0.225584 41.7341 0.177691 41.7823 0.129798Z" fill="black"/>
<path d="M25.397 21.5621C23.4439 21.5621 21.5142 21.5621 19.5611 21.5621C19.5376 21.5139 19.4905 21.4657 19.467 21.4416C19.5846 21.321 19.7023 21.1522 19.8435 21.1039C20.9965 20.7181 21.1142 20.5734 21.1142 19.3434C21.1142 16.7389 21.1142 14.1343 21.1142 11.5297C21.1142 11.3368 21.0907 11.168 21.0907 10.951C19.5611 10.951 18.055 10.951 16.5725 10.951C16.549 11.0474 16.5255 11.0957 16.5255 11.1439C16.5255 14.0378 16.5255 16.9077 16.5255 19.8016C16.5255 20.5493 16.8314 20.8386 17.5844 21.0316C17.8433 21.1039 18.2433 21.0557 18.055 21.5621C16.1019 21.5621 14.1723 21.5621 12.2191 21.5621C12.1956 21.5139 12.1485 21.4657 12.125 21.4416C12.2662 21.321 12.3839 21.1039 12.525 21.0557C13.584 20.694 13.7252 20.5251 13.7252 19.3917C13.7252 13.7002 13.7252 7.98465 13.7252 2.29319C13.7252 1.11149 13.631 0.990913 12.5015 0.605052C12.3839 0.580936 12.2897 0.412121 12.1956 0.315656C12.2897 0.243307 12.4074 0.098609 12.5015 0.098609C14.3605 0.0744927 16.2196 0.098609 18.055 0.098609C18.1021 0.146842 18.1256 0.195074 18.1727 0.243307C18.055 0.363889 17.9609 0.556819 17.8197 0.605052C16.5725 1.03915 16.5255 1.06326 16.5255 2.41378C16.5255 4.77718 16.5255 7.16469 16.5255 9.52809C16.5255 9.72102 16.5255 9.93807 16.5255 10.1792C18.0786 10.1792 19.5611 10.1792 21.1142 10.1792C21.1142 9.96219 21.1142 9.74514 21.1142 9.55221C21.1142 7.11646 21.1142 4.68071 21.1142 2.26908C21.1142 1.15973 20.973 0.966797 19.9376 0.653285C19.8905 0.653285 19.8435 0.653284 19.8199 0.629168C19.7023 0.532703 19.6082 0.412121 19.4905 0.315656C19.6082 0.243307 19.7493 0.122725 19.867 0.122725C21.1377 0.0986091 22.432 0.122725 23.7027 0.122725C24.2675 0.122725 24.8087 0.122725 25.3735 0.122725C25.397 0.170958 25.4441 0.219191 25.4676 0.267423C25.3499 0.388005 25.2558 0.580936 25.0911 0.629168C23.891 1.06326 23.8439 1.11149 23.8439 2.41378C23.8439 8.057 23.8439 13.7002 23.8439 19.3434C23.8439 20.5734 23.938 20.694 25.0676 21.1039C25.2323 21.1522 25.3499 21.3451 25.4676 21.4657C25.4911 21.4657 25.4441 21.5139 25.397 21.5621Z" fill="black"/>
<path d="M123.855 10.5352C123.973 10.5831 124.043 10.607 124.114 10.6309C125.882 11.1811 126.424 11.8509 126.589 13.7167C126.754 15.6303 126.896 17.544 127.037 19.4577C127.061 19.649 127.037 19.8404 127.132 20.0078C127.226 20.1992 127.391 20.3666 127.532 20.5341C127.697 20.3666 127.933 20.2231 127.98 20.0317C128.098 19.5773 128.122 19.0988 128.192 18.6443C128.216 18.453 128.192 18.2377 128.192 17.9985C128.357 17.9746 128.499 17.9506 128.782 17.9267C128.688 18.74 128.664 19.5055 128.523 20.247C128.357 21.0603 127.768 21.467 126.967 21.5387C126 21.6344 125.057 21.467 124.656 20.4623C124.326 19.6012 124.138 18.6683 124.043 17.7354C123.902 16.0609 123.878 14.3865 123.808 12.712C123.808 12.4728 123.76 12.2336 123.713 11.9944C123.548 11.1572 123.289 10.918 122.417 10.8941C121.969 10.8701 121.521 10.8941 120.979 10.8941C120.979 11.0854 120.979 11.2768 120.979 11.4442C120.979 14.0516 120.979 16.6829 120.979 19.2902C120.979 20.4384 121.097 20.5819 122.181 20.9168C122.346 20.9647 122.464 21.1321 122.605 21.2278C122.582 21.2756 122.558 21.3235 122.511 21.3713C120.578 21.3713 118.621 21.3713 116.688 21.3713C116.664 21.3235 116.617 21.2756 116.594 21.2517C116.735 21.1321 116.877 20.9407 117.042 20.8929C118.126 20.5341 118.22 20.4145 118.22 19.2424C118.22 13.5732 118.22 7.90397 118.22 2.23477C118.22 1.1105 118.103 0.966975 117.065 0.632086C116.924 0.584244 116.806 0.392879 116.664 0.273276C116.829 0.225435 116.971 0.105831 117.136 0.105831C119.163 0.105831 121.191 0.0340691 123.218 0.177593C125.67 0.345038 127.391 2.23477 127.485 4.72252C127.509 5.53582 127.438 6.37305 127.249 7.18635C126.896 8.64551 125.953 9.65018 124.586 10.2482C124.35 10.3439 124.138 10.4396 123.855 10.5352ZM121.026 0.751689C121.026 3.95706 121.026 7.09067 121.026 10.2482C121.403 10.2482 121.733 10.2482 122.063 10.2482C123.478 10.2482 124.161 9.74586 124.326 8.31062C124.491 6.97106 124.515 5.60758 124.468 4.26803C124.444 3.50257 124.232 2.71318 123.973 1.97164C123.737 1.27794 123.218 0.799531 122.44 0.751689C121.992 0.727768 121.521 0.751689 121.026 0.751689Z" fill="black"/>
<path d="M177.533 11.3246C177.557 8.33527 177.752 5.86788 178.772 3.54284C179.137 2.7362 179.622 1.92955 180.254 1.28898C181.809 -0.324313 184.214 -0.300588 185.817 1.28898C186.838 2.28542 187.396 3.54284 187.761 4.87144C188.854 9.07074 188.854 13.2463 187.591 17.4219C187.251 18.5132 186.74 19.5097 185.914 20.3163C184.238 22.0008 181.76 21.9771 180.108 20.2452C178.918 18.9877 178.408 17.4219 178.043 15.8086C177.898 15.1918 177.776 14.5749 177.728 13.9343C177.63 12.9379 177.582 11.894 177.533 11.3246ZM185.574 10.7789C185.477 10.7789 185.38 10.7789 185.307 10.7789C185.307 9.07074 185.404 7.38627 185.283 5.67808C185.186 4.39694 184.894 3.1158 184.578 1.83465C184.408 1.14663 183.777 0.814482 183.024 0.838207C182.295 0.838207 181.76 1.19408 181.542 1.85838C181.299 2.61757 181.056 3.40049 180.983 4.18341C180.546 8.35899 180.618 12.5346 180.886 16.7102C180.959 17.754 181.226 18.7979 181.517 19.8181C181.712 20.5061 182.246 20.8857 183.024 20.8857C183.825 20.9095 184.335 20.5299 184.627 19.8418C184.797 19.4385 184.967 18.9877 185.016 18.5607C185.186 15.9747 185.38 13.3887 185.574 10.7789Z" fill="black"/>
<path d="M34.3334 6.14411C34.3334 8.99126 34.3334 11.8625 34.3334 14.7097C34.2845 14.7338 34.2357 14.7821 34.1868 14.8062C34.0647 14.6856 33.8937 14.5649 33.8449 14.4201C33.7472 13.9617 33.7227 13.4791 33.6495 13.0207C33.3563 11.1146 32.6724 10.6079 30.6694 10.7768C30.6694 14.1547 30.6694 17.5086 30.6694 21.0072C31.6465 20.9589 32.6235 21.0072 33.6006 20.8624C34.5288 20.7176 35.1883 20.0662 35.4815 19.2458C35.8967 18.1118 36.141 16.9295 36.4341 15.7472C36.5074 15.4335 36.5074 15.0957 36.5807 14.7821C36.6051 14.6856 36.7516 14.589 36.8494 14.4925C36.9226 14.589 37.0692 14.7097 37.0692 14.8062C37.0936 17.0501 37.0692 19.2941 37.0692 21.5621C33.4052 21.5621 29.79 21.5621 26.1749 21.5621C26.1504 21.5139 26.1016 21.4898 26.0772 21.4415C26.2237 21.3209 26.3459 21.1278 26.4924 21.0554C27.6405 20.6694 27.7382 20.5487 27.7382 19.3423C27.7382 13.6722 27.7382 7.97787 27.7382 2.3077C27.7382 1.10128 27.616 0.956512 26.4924 0.594586C26.3214 0.54633 26.1993 0.377431 26.0527 0.256789C26.0772 0.208532 26.126 0.160276 26.1504 0.0878906C29.6679 0.0878906 33.1609 0.0878906 36.7028 0.0878906C36.7028 2.45247 36.7028 4.76879 36.7028 7.10925C36.2631 7.30227 36.2387 6.9886 36.1898 6.69906C35.9944 5.63741 35.8234 4.57577 35.6036 3.51412C35.5059 3.03155 35.286 2.57311 35.0418 2.1388C34.5288 1.14954 33.7227 0.594587 32.5258 0.666972C31.9152 0.6911 31.3045 0.666972 30.645 0.666972C30.645 3.80366 30.645 6.89209 30.645 9.95639C32.0861 10.2218 32.9167 9.78749 33.3563 8.43631C33.5517 7.80897 33.6495 7.13337 33.7716 6.48191C33.8693 6.26475 33.9181 5.97521 34.3334 6.14411Z" fill="black"/>
<path d="M222.654 13.8693C222.654 13.4604 222.654 13.0515 222.654 12.6427C222.654 9.6603 222.654 6.65389 222.654 3.67153C222.654 3.35887 222.654 3.02215 222.63 2.70948C222.534 1.2183 222.342 1.00184 220.903 0.617019C220.735 0.568916 220.615 0.376506 220.471 0.25625C220.495 0.208147 220.543 0.135993 220.567 0.0878906C221.983 0.0878906 223.398 0.0878906 224.814 0.0878906C224.91 0.0878906 225.006 0.208147 225.126 0.25625C225.054 0.376506 224.982 0.544865 224.886 0.568916C223.518 0.83348 223.47 1.84363 223.47 2.92594C223.47 8.86661 223.47 14.8073 223.47 20.772C223.47 20.9885 223.47 21.229 223.47 21.4454C222.558 21.6619 222.51 21.6378 222.199 20.8442C220.087 15.6731 217.976 10.478 215.865 5.30702C215.793 5.11461 215.697 4.9222 215.577 4.63358C215.553 4.82599 215.505 4.89815 215.505 4.99435C215.505 9.63625 215.505 14.2782 215.529 18.92C215.529 20.3872 215.793 20.6758 217.184 21.0847C217.328 21.1328 217.424 21.2771 217.544 21.3733C217.52 21.4214 217.472 21.4695 217.448 21.5176C215.985 21.5176 214.521 21.5176 213.057 21.5176C213.033 21.4695 212.985 21.4214 212.962 21.3973C213.081 21.2771 213.201 21.1328 213.369 21.0847C214.281 20.8201 214.545 20.5315 214.641 19.5935C214.689 19.0644 214.713 18.5352 214.713 18.0061C214.713 13.0034 214.737 8.00076 214.689 2.9981C214.689 2.01199 214.281 1.09804 213.249 0.617019C213.129 0.568916 213.081 0.352455 212.938 0.111942C214.353 0.111942 215.625 0.0878907 216.896 0.135993C217.04 0.135993 217.208 0.400557 217.28 0.592968C218.696 4.12851 220.087 7.66405 221.479 11.1996C221.839 12.1135 222.199 13.0275 222.558 13.9174C222.558 13.8693 222.606 13.8693 222.654 13.8693Z" fill="black"/>
<path d="M137.121 6.17508C137.121 9.02543 137.121 11.8758 137.121 14.7261C136.73 14.9194 136.656 14.702 136.607 14.388C136.534 13.7841 136.485 13.1802 136.339 12.5763C136.045 11.1994 135.507 10.7888 134.113 10.7646C133.918 10.7646 133.722 10.7646 133.478 10.7646C133.478 14.1464 133.478 17.5282 133.478 21.0549C134.529 20.9824 135.581 20.9824 136.607 20.7892C137.463 20.6442 138.026 19.9679 138.295 19.1949C138.686 18.0113 138.955 16.7793 139.248 15.5716C139.321 15.3059 139.297 15.0402 139.37 14.7744C139.419 14.6295 139.59 14.557 139.688 14.4363C139.737 14.4604 139.786 14.5087 139.811 14.5329C139.811 16.876 139.811 19.1949 139.811 21.5621C136.192 21.5621 132.598 21.5621 128.783 21.5621C129.003 21.3206 129.126 21.1032 129.272 21.079C130.373 20.8858 130.544 20.3785 130.544 19.3157C130.544 13.6874 130.544 8.05921 130.544 2.43097C130.544 1.12658 130.47 1.02996 129.223 0.595156C129.101 0.546845 129.028 0.377757 128.93 0.256979C129.028 0.184513 129.126 0.0878906 129.223 0.0878906C132.622 0.0878906 136.021 0.0878907 139.419 0.112046C139.444 0.112046 139.444 0.136202 139.517 0.160357C139.517 0.281135 139.542 0.450223 139.542 0.619312C139.542 2.62422 139.542 4.65328 139.542 6.65819C139.542 6.82728 139.395 7.02052 139.322 7.18961C139.224 7.02052 139.077 6.85143 139.028 6.68234C138.735 5.42626 138.539 4.14602 138.197 2.91409C138.05 2.40682 137.732 1.8754 137.365 1.51307C136.999 1.15073 136.485 0.836711 135.996 0.764245C135.189 0.643467 134.358 0.740089 133.478 0.740089C133.478 3.85615 133.478 6.94806 133.478 10.04C134.92 10.3057 135.727 9.87087 136.143 8.54232C136.363 7.89012 136.461 7.21377 136.583 6.53741C136.681 6.12677 136.656 6.12677 137.121 6.17508Z" fill="black"/>
<path d="M140.389 21.3936C140.529 21.2732 140.669 21.0807 140.832 21.0325C141.858 20.6714 141.974 20.551 141.974 19.4195C141.974 13.6899 141.974 7.96018 141.974 2.2305C141.974 1.12308 141.858 0.978639 140.808 0.617525C140.668 0.569376 140.575 0.400856 140.435 0.280485C140.575 0.208262 140.692 0.0878906 140.832 0.0878906C144.003 0.0878906 147.175 0.0878906 150.323 0.0878906C150.369 0.0878906 150.439 0.111965 150.509 0.136039C150.509 2.47124 150.509 4.80645 150.509 7.14165C150.463 7.16573 150.416 7.21387 150.369 7.23795C150.276 7.0935 150.113 6.94906 150.089 6.80461C149.903 5.79349 149.74 4.78237 149.553 3.79533C149.483 3.43421 149.343 3.0731 149.203 2.71199C148.597 1.19531 147.874 0.713822 146.288 0.713822C145.799 0.713822 145.286 0.713822 144.749 0.713822C144.749 3.8194 144.749 6.90091 144.749 9.98242C145.962 10.2954 146.825 9.88612 147.244 8.70648C147.478 7.98425 147.594 7.1898 147.781 6.4435C147.804 6.32313 147.944 6.20275 148.037 6.10646C148.107 6.22683 148.247 6.3472 148.247 6.46757C148.271 9.18796 148.247 11.9324 148.247 14.6528C147.944 14.8213 147.804 14.7491 147.758 14.4121C147.711 13.8824 147.641 13.3528 147.548 12.8473C147.221 11.0658 146.545 10.5602 144.726 10.8009C144.726 14.1473 144.726 17.4936 144.726 20.8399C147.011 21.6344 148.97 20.6714 149.67 18.3603C149.996 17.2769 150.113 16.1454 150.323 15.038C150.369 14.7732 150.323 14.3639 150.836 14.5565C150.836 16.8917 150.836 19.2029 150.836 21.5621C147.384 21.5621 143.933 21.5621 140.505 21.5621C140.482 21.4899 140.435 21.4418 140.389 21.3936Z" fill="black"/>
<path d="M7.4822 0.740333C7.4822 0.981617 7.4822 1.17464 7.4822 1.3918C7.4822 7.35151 7.4822 13.2871 7.4822 19.2468C7.4822 20.6704 7.50638 20.6945 8.90898 21.0323C9.32008 21.1288 9.32009 21.1288 9.32009 21.5631C7.21619 21.5631 5.08811 21.5631 2.98421 21.5631C2.93585 21.5149 2.91167 21.4907 2.8633 21.4425C2.98421 21.3218 3.10513 21.1047 3.25022 21.0805C4.48354 20.8875 4.62864 20.3808 4.62864 19.2468C4.62864 13.2871 4.62864 7.35151 4.62864 1.3918C4.62864 1.17464 4.62864 0.981617 4.62864 0.78859C3.58878 0.547306 2.91167 0.812718 2.33128 1.65721C1.62998 2.71886 1.38816 3.92528 1.19469 5.15582C1.09796 5.71078 1.07378 6.28986 0.977049 6.84481C0.952866 6.98958 0.783588 7.11022 0.662674 7.23087C0.614309 7.20674 0.565944 7.15848 0.517578 7.13435C0.517578 4.7939 0.517578 2.47758 0.517578 0.0888672C4.19335 0.0888672 7.84494 0.0888672 11.5449 0.0888672C11.5449 2.45345 11.5449 4.7939 11.5449 7.11022C11.0612 7.27912 11.0854 6.96545 11.0371 6.67591C10.892 5.63839 10.771 4.60087 10.5534 3.58748C10.4325 3.03253 10.1907 2.47758 9.92465 1.94675C9.441 1.00575 8.69133 0.523178 7.4822 0.740333Z" fill="black"/>
<path d="M160.801 21.5621C158.697 21.5621 156.569 21.5621 154.465 21.5621C154.416 21.5139 154.392 21.4898 154.344 21.4415C154.465 21.3209 154.586 21.1037 154.731 21.0796C155.94 20.8865 156.109 20.404 156.109 19.2458C156.109 13.2861 156.109 7.35053 156.109 1.39082C156.109 1.17367 156.109 0.98064 156.109 0.787614C155.045 0.54633 154.392 0.811742 153.812 1.65623C153.11 2.71788 152.869 3.9243 152.675 5.15485C152.578 5.7098 152.554 6.28888 152.458 6.84383C152.433 6.9886 152.264 7.10925 152.143 7.22989C152.095 7.20576 152.046 7.1575 151.998 7.13337C151.998 4.79292 151.998 2.4766 151.998 0.0878906C155.674 0.0878906 159.325 0.0878906 163.025 0.0878906C163.025 2.45247 163.025 4.79292 163.025 7.10925C162.542 7.27814 162.566 6.96448 162.518 6.67494C162.372 5.63742 162.227 4.5999 162.01 3.5865C161.889 3.03155 161.647 2.4766 161.381 1.94578C160.897 0.98064 160.123 0.498073 158.914 0.715228C158.914 0.908255 158.914 1.12541 158.914 1.36669C158.914 7.3264 158.914 13.262 158.914 19.2217C158.914 20.6453 158.938 20.6694 160.341 21.0072C160.776 21.152 160.776 21.152 160.801 21.5621Z" fill="black"/>
<path d="M108.904 0.762727C107.758 0.521714 107.048 1.02784 106.567 1.96779C105.857 3.36567 105.674 4.90815 105.513 6.47473C105.49 6.71574 105.697 7.14957 105.215 7.17367C105.147 7.17367 105.009 6.71574 105.009 6.47473C104.986 4.52253 105.009 2.57032 104.986 0.618119C104.986 0.304802 104.986 0.0878906 105.399 0.0878906C108.675 0.111992 111.951 0.0878906 115.204 0.0878906C115.273 0.0878906 115.342 0.111992 115.433 0.136093C115.433 2.47392 115.433 4.81174 115.433 7.12547C115.044 7.22187 115.067 7.22187 114.998 6.81215C114.838 5.70349 114.677 4.59483 114.471 3.51027C114.356 2.98005 114.15 2.47392 113.898 1.99189C113.417 1.02784 112.707 0.545815 111.561 0.786828C111.561 0.979638 111.561 1.22065 111.561 1.43756C111.561 7.36648 111.561 13.3195 111.561 19.2484C111.561 20.4053 111.722 20.8873 112.867 21.0801C113.005 21.1042 113.119 21.297 113.257 21.4175C113.234 21.4657 113.188 21.5139 113.165 21.5621C111.195 21.5621 109.248 21.5621 107.277 21.5621C107.254 21.5139 107.209 21.4898 107.186 21.4416C107.323 21.3211 107.438 21.1283 107.575 21.0801C108.812 20.6945 108.858 20.6463 108.858 19.2484C108.858 13.2954 108.858 7.34238 108.858 1.36526C108.904 1.17245 108.904 0.979638 108.904 0.762727Z" fill="black"/>
<path d="M95.8332 21.5618C95.8332 19.9902 95.8332 18.5853 95.8332 17.1804C95.8332 16.4422 95.8091 15.6803 95.8332 14.9421C95.8332 14.7754 95.9778 14.5849 96.0742 14.4182C96.1706 14.5849 96.3151 14.7516 96.3633 14.9421C96.5802 15.8231 96.6766 16.7518 96.9898 17.609C97.2548 18.371 97.6645 19.133 98.1704 19.7521C98.556 20.2045 99.1583 20.5617 99.7607 20.776C100.797 21.1332 101.785 20.6093 102.242 19.5378C102.869 18.0614 102.893 16.5375 102.122 15.1326C101.616 14.2039 100.917 13.3467 100.243 12.5371C99.3029 11.4418 98.2427 10.4417 97.3271 9.32254C95.7369 7.39379 95.2791 5.20311 96.0983 2.84575C96.7729 0.869374 98.6042 -0.249778 100.532 0.178834C101.038 0.297892 101.544 0.607445 102.002 0.893185C102.748 1.36942 103.086 1.29798 103.471 0.512198C103.52 0.393139 103.64 0.321704 103.736 0.202645C103.809 0.345516 103.929 0.464574 103.929 0.607445C103.929 2.67906 103.929 4.7745 103.929 6.84612C103.929 6.96518 103.809 7.10805 103.736 7.22711C103.64 7.10805 103.471 6.98899 103.423 6.86993C103.134 5.67934 102.941 4.44113 102.58 3.27436C102.387 2.63144 101.977 2.01234 101.52 1.51229C100.941 0.845562 100.122 0.583633 99.2547 0.869374C98.3873 1.15511 98.1464 1.89328 98.0259 2.67907C97.8331 3.98871 98.1704 5.20311 98.9897 6.22701C99.6884 7.10805 100.508 7.89383 101.255 8.75106C102.05 9.63209 102.893 10.4893 103.568 11.4656C105.062 13.6325 105.375 16.0136 104.507 18.4901C103.833 20.4664 102.218 21.5856 100.267 21.5618C99.4475 21.5618 98.7728 21.2284 98.1223 20.776C97.1585 20.0854 96.8934 20.1569 96.3392 21.2046C96.2188 21.2998 96.0501 21.3713 95.8332 21.5618Z" fill="black"/>
<path d="M80.1251 0.0878906C81.4901 0.0878906 82.8312 0.0878906 84.1962 0.0878906C84.771 0.0878906 85.3218 0.0878907 85.8965 0.112019C85.9923 0.112019 86.1121 0.256789 86.2079 0.329174C86.1121 0.425688 86.0402 0.570458 85.9444 0.618715C84.4836 1.12541 84.4836 1.12541 84.4836 2.66963C84.4836 8.53282 84.4836 14.3719 84.4836 20.2351C84.4836 20.4522 84.4836 20.6935 84.4836 20.9107C86.615 21.2485 87.6208 20.6694 88.3871 19.1493C89.0337 17.8946 89.2253 16.5193 89.3929 15.144C89.4169 14.8786 89.2971 14.4201 89.8958 14.5408C89.8958 16.8571 89.8958 19.1976 89.8958 21.5621C86.6389 21.5621 83.382 21.5621 80.1251 21.5621C80.1011 21.538 80.0532 21.4898 80.0293 21.4656C80.173 21.345 80.2688 21.1278 80.4364 21.0796C81.5859 20.6935 81.6578 20.597 81.6578 19.3906C81.6578 13.6963 81.6578 8.002 81.6578 2.28357C81.6578 1.10128 81.562 0.98064 80.4604 0.618715C80.2927 0.570458 80.173 0.377431 80.0293 0.256789C80.0532 0.184404 80.1011 0.136147 80.1251 0.0878906Z" fill="black"/>
<path d="M172.967 10.0465C172.967 7.4399 172.967 4.80944 172.967 2.20289C172.967 1.10288 172.817 0.935485 171.694 0.648525C171.644 0.648525 171.619 0.648525 171.569 0.624611C171.419 0.528958 171.294 0.409392 171.169 0.313739C171.319 0.241999 171.469 0.0985188 171.619 0.0985188C172.517 0.0746055 173.441 0.0985188 174.339 0.0985188C175.238 0.0985188 176.162 0.0985188 177.06 0.0985188C177.235 0.0985188 177.385 0.218085 177.535 0.289825C177.41 0.409392 177.31 0.576785 177.16 0.624611C176.062 0.983311 175.937 1.10288 175.937 2.2268C175.937 6.8899 175.937 11.553 175.937 16.24C175.937 17.34 175.837 18.4161 175.313 19.4205C174.414 21.1422 172.243 21.9792 170.271 21.3574C168.498 20.8074 167.4 18.9422 167.725 17.077C167.899 16.1683 168.598 15.4509 169.422 15.3313C170.146 15.2356 170.77 15.4987 171.094 16.0487C171.419 16.6465 171.344 17.5074 170.82 17.9857C170.545 18.2726 170.171 18.4879 169.846 18.727C169.247 19.1574 169.197 19.6835 169.697 20.2335C170.171 20.7596 170.77 20.9987 171.494 20.8553C172.168 20.7357 172.542 20.2574 172.692 19.6596C172.842 19.0857 172.942 18.4639 172.942 17.8661C172.967 15.2356 172.967 12.653 172.967 10.0465Z" fill="black"/>
</svg>
