<svg width="117" height="24" viewBox="0 0 117 24" fill="none" xmlns="http://www.w3.org/2000/svg">
<path d="M106.237 17.7236C106.275 19.5986 107.841 20.3718 109.542 20.3718C110.779 20.3718 112.364 19.8886 112.364 18.3615C112.364 17.047 110.567 16.6024 107.474 15.9259C104.98 15.3846 102.487 14.4954 102.487 11.7312C102.487 7.71054 105.947 6.68604 109.33 6.68604C112.77 6.68604 115.921 7.84585 116.25 11.6926H112.171C112.055 10.0302 110.779 9.56623 109.214 9.56623C108.247 9.56623 106.817 9.74021 106.817 11.016C106.817 12.5624 109.252 12.7751 111.707 13.355C114.22 13.9349 116.694 14.8434 116.694 17.7622C116.694 21.8989 113.118 23.2327 109.523 23.2327C105.869 23.2327 102.313 21.8602 102.139 17.7043H106.237" fill="#9EC8EB"/>
<path d="M46.218 1.13826H41.9847V22.8267H46.218V1.13826ZM40.9988 1.13826H36.7655V22.8267H40.9988V1.13826ZM25.0321 13.2003C25.2833 11.0933 26.3272 9.81751 28.3182 9.81751C29.6713 9.81751 31.3337 10.6101 31.585 13.2003H25.0321ZM31.411 18.1295C31.0824 19.27 29.8646 19.8885 28.6855 19.8885C25.264 19.8885 25.0321 17.163 24.9161 15.9645H35.9536V15.2106C35.9536 7.86516 31.5657 6.35741 28.3955 6.35741C21.3593 6.35741 20.6828 12.5431 20.6828 14.4761C20.6828 21.087 24.1622 23.2713 28.6855 23.2713C31.4304 23.2713 34.6392 21.9955 35.7603 18.1295H31.411ZM20.0449 8.23243C19.7936 5.02362 17.184 0.55835 10.6697 0.55835C5.08327 0.55835 0.695312 4.42439 0.695312 12.0212C0.695312 19.5213 4.83198 23.4066 10.6117 23.4066C16.0435 23.4066 19.1363 20.1205 20.0449 15.4039H15.5216C14.9803 18.0715 13.2213 19.4826 10.7084 19.4826C6.86165 19.4826 5.33456 15.9838 5.33456 12.0791C5.33456 5.95147 8.54338 4.50171 10.7084 4.50171C14.4584 4.50171 15.1543 6.95664 15.5216 8.25177H20.0449V8.23243Z" fill="#004E84"/>
<path d="M47.668 1.13818H52.6745C58.087 1.13818 60.1746 4.57896 60.1746 8.09706C60.1746 11.6152 58.087 15.0559 52.6745 15.0559H47.668V11.3445H51.3794C53.6023 11.3445 55.574 10.8613 55.574 8.09706C55.574 5.33284 53.6023 4.84958 51.3794 4.84958H47.668V1.13818Z" fill="#9EC8EB"/>
<path d="M61.5078 7.13083H65.6058V10.0497H65.6638C66.4563 8.07801 68.5827 6.70557 70.6703 6.70557C70.9796 6.70557 71.3469 6.76355 71.6175 6.86021V10.8809C71.2309 10.7842 70.593 10.7262 70.0711 10.7262C66.9203 10.7262 65.8185 13.0072 65.8185 15.7714V22.8463H61.5078V7.13083Z" fill="#9EC8EB"/>
<path d="M75.1155 16.0225C75.2315 18.748 76.5653 20.0045 78.9816 20.0045C80.7213 20.0045 82.113 18.9413 82.3837 17.9748H86.1917C84.9739 21.6862 82.3837 23.2713 78.8462 23.2713C73.8977 23.2713 70.8242 19.8692 70.8242 14.998C70.8242 10.2814 74.0717 6.70532 78.8462 6.70532C84.2007 6.70532 86.7716 11.2093 86.4817 16.0418H75.1155V16.0225ZM82.1324 13.2969C81.7458 11.1126 80.7986 9.9528 78.6916 9.9528C75.966 9.9528 75.1735 12.0791 75.1155 13.2969H82.1324Z" fill="#9EC8EB"/>
<path d="M91.141 17.7236C91.1796 19.5986 92.7454 20.3718 94.4464 20.3718C95.6836 20.3718 97.2687 19.8886 97.2687 18.3615C97.2687 17.047 95.4709 16.6024 92.3781 15.9259C89.8845 15.3846 87.3909 14.4954 87.3909 11.7312C87.3909 7.71054 90.851 6.68604 94.2338 6.68604C97.6746 6.68604 100.825 7.84585 101.154 11.6926H97.056C96.94 10.0302 95.6642 9.56623 94.1178 9.56623C93.1513 9.56623 91.7209 9.74021 91.7209 11.016C91.7209 12.5624 94.1565 12.7751 96.6114 13.355C99.1243 13.9349 101.599 14.8434 101.599 17.7622C101.599 21.8989 98.0032 23.2327 94.4271 23.2327C90.7737 23.2327 87.2169 21.8602 87.043 17.7043H91.141" fill="#9EC8EB"/>
</svg>
