<svg width="42" height="42" viewBox="0 0 42 42" fill="none" xmlns="http://www.w3.org/2000/svg">
<path d="M16.6494 14.2805L11.3541 16.5461L12.7425 30.9571H16.6494" stroke="black" stroke-linecap="round" stroke-linejoin="round"/>
<path d="M25.8242 14.2805L31.1195 16.5461L29.7312 30.9571H25.8242" stroke="black" stroke-linecap="round" stroke-linejoin="round"/>
<path d="M16.4414 9.33984H25.6216V32.1343H16.4414V9.33984Z" fill="white"/>
<path d="M16.4414 9.33984V8.83984C16.1653 8.83984 15.9414 9.0637 15.9414 9.33984H16.4414ZM25.6216 9.33984H26.1216C26.1216 9.0637 25.8977 8.83984 25.6216 8.83984V9.33984ZM25.6216 32.1343V32.6343C25.8977 32.6343 26.1216 32.4104 26.1216 32.1343H25.6216ZM16.4414 32.1343H15.9414C15.9414 32.4104 16.1653 32.6343 16.4414 32.6343V32.1343ZM16.4414 9.83984H25.6216V8.83984H16.4414V9.83984ZM25.1216 9.33984V32.1343H26.1216V9.33984H25.1216ZM25.6216 31.6343H16.4414V32.6343H25.6216V31.6343ZM16.9414 32.1343V9.33984H15.9414V32.1343H16.9414Z" fill="black"/>
<rect x="15" y="9" width="12" height="2" fill="white" stroke="black" stroke-linecap="round" stroke-linejoin="round"/>
<rect x="15" y="19" width="12" height="2" fill="white" stroke="black" stroke-linecap="round" stroke-linejoin="round"/>
<rect x="19" y="26" width="4" height="6" fill="white" stroke="black" stroke-linecap="round" stroke-linejoin="round"/>
<path d="M34.5 27.5C34.5 28.7145 33.7301 29.5 33 29.5C32.2699 29.5 31.5 28.7145 31.5 27.5C31.5 26.2855 32.2699 25.5 33 25.5C33.7301 25.5 34.5 26.2855 34.5 27.5Z" fill="white" stroke="black"/>
<path d="M33 30V32" stroke="black" stroke-linecap="round"/>
<g style="mix-blend-mode:multiply">
<path d="M35 32L8 32" stroke="url(#paint0_linear)" stroke-width="3" stroke-linecap="round" stroke-linejoin="round"/>
</g>
<circle cx="21" cy="21" r="20.5" stroke="black" stroke-dasharray="2 6"/>
<defs>
<linearGradient id="paint0_linear" x1="36.5882" y1="31" x2="7.20588" y2="31" gradientUnits="userSpaceOnUse">
<stop stop-color="#14DDE0"/>
<stop offset="1" stop-color="#4B5AFF"/>
</linearGradient>
</defs>
</svg>
