<svg width="159" height="38" viewBox="0 0 159 38" fill="none" xmlns="http://www.w3.org/2000/svg">
<path d="M123.184 20.0701C123.184 25.4432 123.184 30.7567 123.184 36.1895C121.094 36.1895 119.068 36.1895 116.979 36.1895C116.979 24.5477 116.979 12.9656 116.979 1.32373C119.068 1.32373 121.158 1.32373 123.247 1.32373C125.273 7.2939 127.236 13.3238 129.263 19.3537C129.326 19.3537 129.389 19.3536 129.453 19.2939C129.453 13.3238 129.453 7.3536 129.453 1.32373C131.605 1.32373 133.632 1.32373 135.785 1.32373C135.785 12.9059 135.785 24.5477 135.785 36.2492C133.568 36.2492 131.352 36.2492 129.136 36.1895C128.946 36.1895 128.629 35.7119 128.503 35.4731C126.92 30.8164 125.4 26.0999 123.817 21.4432C123.69 20.9656 123.5 20.488 123.311 20.0104C123.374 20.0701 123.247 20.0701 123.184 20.0701Z" fill="#90979E"/>
<path d="M63.2474 36.2492C61.1352 36.2492 59.199 36.2492 57.1455 36.2492C55.7373 30.7656 54.2705 25.282 52.8624 19.7388C53.2144 19.6196 53.5078 19.5003 53.8012 19.3215C55.5027 18.4871 56.5001 17.1758 56.5001 15.2088C56.5001 13.4207 56.5001 11.6325 56.5001 9.8444C56.5001 8.17547 55.62 7.341 54.0359 7.341C53.4491 7.341 52.8624 7.341 52.0997 7.341C52.0997 16.9969 52.0997 26.5933 52.0997 36.2492C50.1048 36.2492 48.1686 36.2492 46.2324 36.2492C46.2324 24.6263 46.2324 13.063 46.2324 1.44015C49.3421 1.44015 52.4517 1.14212 55.5027 1.49975C59.7271 1.97659 62.426 5.43365 62.426 9.72519C62.426 11.9902 62.426 14.3147 62.3087 16.5797C62.1913 18.6659 61.3699 20.5136 59.8444 22.0037C59.4337 22.421 59.375 22.719 59.4924 23.315C60.7832 27.547 62.0153 31.7789 63.2474 36.2492Z" fill="#90979E"/>
<path d="M21.1572 18.726C21.1572 15.4434 21.1572 12.1609 21.1572 8.87833C21.1572 4.13688 24.9656 0.368038 29.6954 0.428826C34.4867 0.489613 38.1722 4.19767 38.1722 8.93912C38.1722 15.5042 38.1722 22.0693 38.1722 28.6344C38.1722 33.4366 34.4867 37.1447 29.6954 37.1447C24.9656 37.1447 21.1572 33.4366 21.1572 28.6951C21.1572 25.3518 21.1572 22.0693 21.1572 18.726ZM27.3612 18.7867C27.3612 21.9477 27.3612 25.1087 27.3612 28.3304C27.3612 29.9717 28.2212 31.0051 29.634 31.0051C31.1082 31.0051 31.9682 30.0325 31.9682 28.3304C31.9682 22.0085 31.9682 15.6258 31.9682 9.30384C31.9682 7.66257 30.9854 6.56839 29.634 6.56839C28.2826 6.62918 27.4227 7.66257 27.3612 9.30384C27.3612 12.4648 27.3612 15.6258 27.3612 18.7867Z" fill="#90979E"/>
<path d="M92.7998 1.32373C94.8959 1.32373 96.8686 1.32373 98.9647 1.32373C98.9647 1.74551 98.9647 2.10704 98.9647 2.52882C98.9647 10.9644 98.9647 19.4 98.9647 27.7754C98.9647 28.2574 98.9647 28.7997 99.088 29.2817C99.3346 30.3061 100.259 31.0291 101.307 31.0291C102.355 31.0291 103.28 30.3061 103.527 29.2817C103.65 28.86 103.65 28.3779 103.65 27.8959C103.65 19.4603 103.65 11.0247 103.65 2.64933C103.65 2.22755 103.65 1.86602 103.65 1.38398C105.684 1.38398 107.657 1.38398 109.815 1.38398C109.815 1.74551 109.815 2.10704 109.815 2.46856C109.815 11.3862 109.815 20.2436 109.815 29.1612C109.815 33.0175 106.609 36.5123 102.664 37.0546C98.3482 37.6571 94.2794 35.1867 93.1697 31.2701C92.9231 30.4868 92.7998 29.6433 92.7998 28.7997C92.7998 20.0628 92.7998 11.326 92.7998 2.52882C92.7998 2.22755 92.7998 1.86602 92.7998 1.32373Z" fill="#90979E"/>
<path d="M149.731 30.2688C152.584 30.2688 155.319 30.2688 158.173 30.2688C158.173 32.3022 158.173 34.2757 158.173 36.2492C153.417 36.2492 148.66 36.2492 143.845 36.2492C143.845 24.6473 143.845 12.9855 143.845 1.32373C148.601 1.32373 153.357 1.32373 158.173 1.32373C158.173 3.29726 158.173 5.21099 158.173 7.24432C155.379 7.24432 152.584 7.24432 149.731 7.24432C149.731 9.9355 149.731 12.5071 149.731 15.1982C151.514 15.1982 153.238 15.1982 155.022 15.1982C155.022 17.2316 155.022 19.2051 155.022 21.2384C153.298 21.2384 151.514 21.2384 149.671 21.2384C149.731 24.3483 149.731 27.2786 149.731 30.2688Z" fill="#90979E"/>
<path d="M0.560547 1.32422C5.37632 1.32422 10.0732 1.32422 14.889 1.32422C14.889 3.29438 14.889 5.20483 14.889 7.23469C12.1541 7.23469 9.41919 7.23469 6.5654 7.23469C6.5654 9.92127 6.5654 12.4884 6.5654 15.2347C8.23011 15.2347 9.95428 15.2347 11.7974 15.2347C11.7974 17.3243 11.7974 19.2347 11.7974 21.3243C10.0732 21.3243 8.34902 21.3243 6.50595 21.3243C6.50595 26.3392 6.50595 31.2945 6.50595 36.2497C4.48451 36.2497 2.58198 36.2497 0.560547 36.2497C0.560547 24.6079 0.560547 12.9661 0.560547 1.32422Z" fill="#90979E"/>
<path d="M74.5935 36.2492C74.5935 26.6208 74.5935 16.9924 74.5935 7.30413C72.8812 7.30413 71.2279 7.30413 69.5156 7.30413C69.5156 5.27079 69.5156 3.35706 69.5156 1.32373C74.8888 1.32373 80.2619 1.32373 85.6351 1.32373C85.6351 3.29726 85.6351 5.21099 85.6351 7.24432C83.9818 7.24432 82.3285 7.24432 80.5572 7.24432C80.5572 16.9326 80.5572 26.561 80.5572 36.2492C78.5496 36.2492 76.6601 36.2492 74.5935 36.2492Z" fill="#90979E"/>
</svg>
