<svg width="30" height="26" viewBox="0 0 30 26" fill="none" xmlns="http://www.w3.org/2000/svg">
<g style="mix-blend-mode:multiply">
<path d="M26 20H17" stroke="url(#paint0_linear)" stroke-width="2" stroke-linecap="round" stroke-linejoin="round"/>
</g>
<rect x="4.5" y="3.5" width="19" height="22" stroke="#1A2530"/>
<line x1="7" y1="14.5" x2="21" y2="14.5" stroke="#1A2530"/>
<line x1="14" y1="9.5" x2="21" y2="9.5" stroke="#1A2530"/>
<line x1="7" y1="19.5" x2="21" y2="19.5" stroke="#1A2530"/>
<rect x="7.74219" y="7.5" width="4" height="4" stroke="#1A2530" stroke-linejoin="round"/>
<g style="mix-blend-mode:multiply">
<rect y="8.36328" width="7.58515" height="7.58515" rx="0.5" transform="rotate(-45 0 8.36328)" fill="url(#paint1_linear)"/>
</g>
<rect x="27.333" width="1.33333" height="1.33333" fill="#1A2530"/>
<rect x="27.333" y="2.6665" width="1.33333" height="1.33333" fill="#1A2530"/>
<rect width="1.33333" height="1.33333" transform="matrix(1 0 0 -1 28.667 2.6665)" fill="#1A2530"/>
<rect width="1.33333" height="1.33333" transform="matrix(1 0 0 -1 26 2.6665)" fill="#1A2530"/>
<defs>
<linearGradient id="paint0_linear" x1="10.9898" y1="22.005" x2="15.5578" y2="30.528" gradientUnits="userSpaceOnUse">
<stop stop-color="#0057FF"/>
<stop offset="0.463177" stop-color="#5AEEFF"/>
<stop offset="1" stop-color="#DEFFDE"/>
</linearGradient>
<linearGradient id="paint1_linear" x1="0" y1="8.36328" x2="6.32023" y2="14.6851" gradientUnits="userSpaceOnUse">
<stop stop-color="#0057FF"/>
<stop offset="0.588542" stop-color="#5AEEFF"/>
<stop offset="1" stop-color="#DEFFDE"/>
</linearGradient>
</defs>
</svg>
