<svg width="148" height="33" viewBox="0 0 148 33" fill="none" xmlns="http://www.w3.org/2000/svg">
<path d="M45.8505 12.2213C46.9947 12.2213 48.0296 12.5158 48.9551 13.1047C49.8806 13.6769 50.6042 14.4846 51.1259 15.5279C51.6643 16.5712 51.9336 17.7491 51.9336 19.0616C51.9336 20.3742 51.6643 21.5521 51.1259 22.5954C50.6042 23.6219 49.8806 24.4296 48.9551 25.0185C48.0296 25.6075 47.0115 25.902 45.9009 25.902C45.0259 25.902 44.2098 25.7085 43.4526 25.3214C42.6953 24.9344 42.0811 24.4632 41.6099 23.9079V29.5115C41.6099 29.848 41.4922 30.1341 41.2566 30.3697C41.0378 30.6052 40.7518 30.723 40.3984 30.723C40.0618 30.723 39.7758 30.6052 39.5402 30.3697C39.3214 30.1509 39.212 29.8648 39.212 29.5115V13.6348C39.212 13.2814 39.3214 12.9869 39.5402 12.7513C39.7589 12.5158 40.045 12.398 40.3984 12.398C40.7518 12.398 41.0378 12.5158 41.2566 12.7513C41.4922 12.9869 41.6099 13.2814 41.6099 13.6348V14.3668C42.0138 13.7778 42.6028 13.273 43.3768 12.8523C44.1509 12.4316 44.9754 12.2213 45.8505 12.2213ZM45.5728 23.6808C46.3469 23.6808 47.0452 23.4788 47.6678 23.075C48.2904 22.6711 48.77 22.1242 49.1066 21.4343C49.4599 20.7275 49.6366 19.9367 49.6366 19.0616C49.6366 18.1866 49.4599 17.4041 49.1066 16.7142C48.77 16.0075 48.2904 15.4522 47.6678 15.0483C47.0452 14.6444 46.3469 14.4425 45.5728 14.4425C44.7819 14.4425 44.0752 14.6444 43.4526 15.0483C42.8299 15.4353 42.3419 15.9822 41.9886 16.689C41.652 17.3957 41.4837 18.1866 41.4837 19.0616C41.4837 19.9367 41.652 20.7275 41.9886 21.4343C42.3419 22.141 42.8299 22.6964 43.4526 23.1002C44.0752 23.4872 44.7819 23.6808 45.5728 23.6808ZM61.3045 12.1456C61.742 12.1456 62.1207 12.2634 62.4404 12.4989C62.7601 12.7177 62.92 12.9953 62.92 13.3319C62.92 13.7358 62.8106 14.0471 62.5918 14.2658C62.3899 14.4677 62.1375 14.5687 61.8346 14.5687C61.6831 14.5687 61.456 14.5182 61.1531 14.4173C60.7997 14.2995 60.5221 14.2406 60.3201 14.2406C59.7985 14.2406 59.2852 14.4257 58.7804 14.7959C58.2924 15.1493 57.8886 15.6457 57.5688 16.2851C57.266 16.9077 57.1145 17.6061 57.1145 18.3801V24.4632C57.1145 24.7998 56.9967 25.0858 56.7611 25.3214C56.5424 25.557 56.2563 25.6748 55.9029 25.6748C55.5496 25.6748 55.2635 25.5654 55.0447 25.3467C54.826 25.1111 54.7166 24.8166 54.7166 24.4632V13.66C54.7166 13.3235 54.826 13.0374 55.0447 12.8018C55.2803 12.5662 55.5664 12.4485 55.9029 12.4485C56.2563 12.4485 56.5424 12.5662 56.7611 12.8018C56.9967 13.0374 57.1145 13.3235 57.1145 13.66V14.9473C57.4847 14.1228 58.04 13.4581 58.7804 12.9533C59.5208 12.4316 60.3622 12.1624 61.3045 12.1456ZM75.575 12.2718C75.9284 12.2718 76.2145 12.3896 76.4332 12.6251C76.6688 12.8439 76.7866 13.1384 76.7866 13.5086V24.4632C76.7866 24.7998 76.6688 25.0858 76.4332 25.3214C76.2145 25.557 75.9284 25.6748 75.575 25.6748C75.2217 25.6748 74.9356 25.5654 74.7168 25.3467C74.4981 25.1111 74.3887 24.8166 74.3887 24.4632V23.807C73.9512 24.3959 73.3538 24.9007 72.5966 25.3214C71.8393 25.7253 71.0232 25.9272 70.1482 25.9272C69.0039 25.9272 67.9606 25.6327 67.0183 25.0438C66.0928 24.4548 65.3608 23.6387 64.8223 22.5954C64.3007 21.5353 64.0398 20.3489 64.0398 19.0364C64.0398 17.7239 64.3007 16.5459 64.8223 15.5026C65.3608 14.4425 66.0928 13.618 67.0183 13.029C67.9438 12.44 68.9619 12.1456 70.0725 12.1456C70.9643 12.1456 71.7889 12.3307 72.5461 12.7009C73.3202 13.0711 73.9344 13.5422 74.3887 14.1144V13.5086C74.3887 13.1552 74.4981 12.8607 74.7168 12.6251C74.9356 12.3896 75.2217 12.2718 75.575 12.2718ZM70.4258 23.706C71.2167 23.706 71.9151 23.5041 72.5209 23.1002C73.1435 22.6964 73.6231 22.141 73.9596 21.4343C74.313 20.7275 74.4897 19.9282 74.4897 19.0364C74.4897 18.1614 74.313 17.3705 73.9596 16.6637C73.6231 15.957 73.1435 15.4017 72.5209 14.9978C71.9151 14.5771 71.2167 14.3668 70.4258 14.3668C69.635 14.3668 68.9282 14.5687 68.3056 14.9726C67.6998 15.3764 67.2202 15.9317 66.8668 16.6385C66.5303 17.3452 66.362 18.1445 66.362 19.0364C66.362 19.9282 66.5303 20.7275 66.8668 21.4343C67.2202 22.141 67.6998 22.6964 68.3056 23.1002C68.9282 23.5041 69.635 23.706 70.4258 23.706ZM95.522 12.2213C98.4668 12.2213 99.9392 14.0555 99.9392 17.7239V24.4632C99.9392 24.8166 99.8298 25.1111 99.6111 25.3467C99.3923 25.5654 99.1063 25.6748 98.7529 25.6748C98.3995 25.6748 98.105 25.557 97.8694 25.3214C97.6507 25.0858 97.5413 24.7998 97.5413 24.4632V17.7491C97.5413 15.5447 96.6158 14.4425 94.7648 14.4425C94.1085 14.4425 93.5111 14.594 92.9727 14.8968C92.451 15.1829 92.0387 15.5784 91.7359 16.0832C91.4498 16.588 91.3068 17.1433 91.3068 17.7491V24.4632C91.3068 24.7998 91.189 25.0858 90.9534 25.3214C90.7346 25.557 90.4486 25.6748 90.0952 25.6748C89.7418 25.6748 89.4557 25.5654 89.237 25.3467C89.0182 25.1111 88.9089 24.8166 88.9089 24.4632V17.7239C88.9089 16.731 88.6985 15.9401 88.2778 15.3512C87.8571 14.7454 87.1588 14.4425 86.1828 14.4425C85.19 14.4425 84.3654 14.7622 83.7092 15.4017C83.0697 16.0243 82.75 16.7983 82.75 17.7239V24.4632C82.75 24.7998 82.6322 25.0858 82.3966 25.3214C82.1779 25.557 81.8918 25.6748 81.5384 25.6748C81.1851 25.6748 80.899 25.5654 80.6802 25.3467C80.4615 25.1111 80.3521 24.8166 80.3521 24.4632V13.66C80.3521 13.3235 80.4615 13.0374 80.6802 12.8018C80.9158 12.5662 81.2019 12.4485 81.5384 12.4485C81.8918 12.4485 82.1779 12.5662 82.3966 12.8018C82.6322 13.0374 82.75 13.3235 82.75 13.66V14.5435C83.1875 13.8872 83.7681 13.3403 84.4917 12.9028C85.2321 12.4485 86.0314 12.2213 86.8896 12.2213C88.9762 12.2213 90.3308 13.1468 90.9534 14.9978C91.3236 14.2911 91.9378 13.6516 92.796 13.0795C93.6542 12.5074 94.5629 12.2213 95.522 12.2213ZM114.25 12.2718C114.604 12.2718 114.89 12.3896 115.108 12.6251C115.344 12.8439 115.462 13.1384 115.462 13.5086V24.4632C115.462 24.7998 115.344 25.0858 115.108 25.3214C114.89 25.557 114.604 25.6748 114.25 25.6748C113.897 25.6748 113.611 25.5654 113.392 25.3467C113.173 25.1111 113.064 24.8166 113.064 24.4632V23.807C112.626 24.3959 112.029 24.9007 111.272 25.3214C110.514 25.7253 109.698 25.9272 108.823 25.9272C107.679 25.9272 106.636 25.6327 105.693 25.0438C104.768 24.4548 104.036 23.6387 103.497 22.5954C102.976 21.5353 102.715 20.3489 102.715 19.0364C102.715 17.7239 102.976 16.5459 103.497 15.5026C104.036 14.4425 104.768 13.618 105.693 13.029C106.619 12.44 107.637 12.1456 108.748 12.1456C109.639 12.1456 110.464 12.3307 111.221 12.7009C111.995 13.0711 112.609 13.5422 113.064 14.1144V13.5086C113.064 13.1552 113.173 12.8607 113.392 12.6251C113.611 12.3896 113.897 12.2718 114.25 12.2718ZM109.101 23.706C109.892 23.706 110.59 23.5041 111.196 23.1002C111.819 22.6964 112.298 22.141 112.635 21.4343C112.988 20.7275 113.165 19.9282 113.165 19.0364C113.165 18.1614 112.988 17.3705 112.635 16.6637C112.298 15.957 111.819 15.4017 111.196 14.9978C110.59 14.5771 109.892 14.3668 109.101 14.3668C108.31 14.3668 107.603 14.5687 106.981 14.9726C106.375 15.3764 105.895 15.9317 105.542 16.6385C105.205 17.3452 105.037 18.1445 105.037 19.0364C105.037 19.9282 105.205 20.7275 105.542 21.4343C105.895 22.141 106.375 22.6964 106.981 23.1002C107.603 23.5041 108.31 23.706 109.101 23.706ZM125.767 12.1456C128.796 12.1456 130.31 13.9629 130.31 17.5976V24.4632C130.31 24.7998 130.192 25.0858 129.957 25.3214C129.738 25.557 129.452 25.6748 129.098 25.6748C128.762 25.6748 128.476 25.557 128.24 25.3214C128.021 25.0858 127.912 24.7998 127.912 24.4632V17.6229C127.912 16.6301 127.685 15.8392 127.231 15.2502C126.776 14.6613 126.036 14.3668 125.009 14.3668C124.336 14.3668 123.722 14.5182 123.167 14.8211C122.628 15.1072 122.199 15.5026 121.879 16.0075C121.577 16.4955 121.425 17.0339 121.425 17.6229V24.4632C121.425 24.7998 121.307 25.0858 121.072 25.3214C120.853 25.557 120.567 25.6748 120.214 25.6748C119.86 25.6748 119.574 25.5654 119.355 25.3467C119.137 25.1111 119.027 24.8166 119.027 24.4632V13.66C119.027 13.3235 119.137 13.0374 119.355 12.8018C119.591 12.5662 119.877 12.4485 120.214 12.4485C120.567 12.4485 120.853 12.5662 121.072 12.8018C121.307 13.0374 121.425 13.3235 121.425 13.66V14.5435C121.863 13.8704 122.468 13.3067 123.242 12.8523C124.033 12.3811 124.875 12.1456 125.767 12.1456ZM144.618 12.2718C144.972 12.2718 145.258 12.3896 145.477 12.6251C145.712 12.8439 145.83 13.1384 145.83 13.5086V24.4632C145.83 24.7998 145.712 25.0858 145.477 25.3214C145.258 25.557 144.972 25.6748 144.618 25.6748C144.265 25.6748 143.979 25.5654 143.76 25.3467C143.541 25.1111 143.432 24.8166 143.432 24.4632V23.807C142.995 24.3959 142.397 24.9007 141.64 25.3214C140.883 25.7253 140.067 25.9272 139.192 25.9272C138.047 25.9272 137.004 25.6327 136.062 25.0438C135.136 24.4548 134.404 23.6387 133.866 22.5954C133.344 21.5353 133.083 20.3489 133.083 19.0364C133.083 17.7239 133.344 16.5459 133.866 15.5026C134.404 14.4425 135.136 13.618 136.062 13.029C136.987 12.44 138.005 12.1456 139.116 12.1456C140.008 12.1456 140.832 12.3307 141.589 12.7009C142.364 13.0711 142.978 13.5422 143.432 14.1144V13.5086C143.432 13.1552 143.541 12.8607 143.76 12.6251C143.979 12.3896 144.265 12.2718 144.618 12.2718ZM139.469 23.706C140.26 23.706 140.958 23.5041 141.564 23.1002C142.187 22.6964 142.666 22.141 143.003 21.4343C143.356 20.7275 143.533 19.9282 143.533 19.0364C143.533 18.1614 143.356 17.3705 143.003 16.6637C142.666 15.957 142.187 15.4017 141.564 14.9978C140.958 14.5771 140.26 14.3668 139.469 14.3668C138.678 14.3668 137.972 14.5687 137.349 14.9726C136.743 15.3764 136.264 15.9317 135.91 16.6385C135.574 17.3452 135.405 18.1445 135.405 19.0364C135.405 19.9282 135.574 20.7275 135.91 21.4343C136.264 22.141 136.743 22.6964 137.349 23.1002C137.972 23.5041 138.678 23.706 139.469 23.706Z" fill="black"/>
<path d="M15.2198 25.1037C19.7245 20.2781 32.1674 10.5149 27.882 7.08345C25.3993 5.09545 23.8865 5.39424 18.7306 8.872C13.5746 12.3498 2.0287 26.7635 5.51545 29.5555C8.6906 32.0979 10.715 29.9293 15.2198 25.1037Z" fill="url(#paint0_linear)"/>
<path d="M10.9746 31.1256V5.42053H20.4432V31.1256H10.9746Z" stroke="black" stroke-width="1.80504" stroke-linejoin="round"/>
<defs>
<linearGradient id="paint0_linear" x1="4.74998" y1="29.866" x2="28.673" y2="5.33837" gradientUnits="userSpaceOnUse">
<stop stop-color="#BB1EEC"/>
<stop offset="0.21875" stop-color="#E443FE"/>
<stop offset="0.604167" stop-color="#FD4CDF"/>
<stop offset="1" stop-color="#FC7E8B"/>
</linearGradient>
</defs>
</svg>
