<svg width="52" height="24" viewBox="0 0 52 24" fill="none" xmlns="http://www.w3.org/2000/svg">
<path d="M21.6007 0.0119686C19.5274 0.154957 17.7579 1.90645 17.7579 4.37299V16.0981C17.7579 16.527 17.4362 16.8844 16.9894 16.8844H13.3253C5.38949 16.9023 6.10444 6.76799 12.8427 6.75012H16.9V3.801H12.6997C10.0187 3.801 8.01689 4.80191 6.67638 6.30328C5.33588 7.80465 4.65668 9.80655 4.65668 11.8262C4.65668 13.8281 5.318 15.8299 6.69426 17.3312C8.07051 18.8326 10.1438 19.8335 13.0036 19.8335H19.9027C20.3674 19.8335 20.7428 19.4403 20.7428 18.9934V4.69467C20.7428 3.96186 21.1539 3.38995 21.6901 3.21121C22.2263 3.05035 22.8697 3.24692 23.2451 3.801L23.2629 3.81898C25.229 7.0362 33.0218 19.5475 33.0397 19.5654C33.2542 19.8693 33.5044 19.9229 33.701 19.8693C33.8798 19.7978 34.0764 19.6012 34.0764 19.1008V4.69467C34.0764 3.96186 34.4875 3.38995 35.0237 3.21121C35.5599 3.05035 36.1854 3.24692 36.5608 3.801V3.81898H36.5965C38.5626 7.0362 46.3554 19.5475 46.3733 19.5654C46.5878 19.8693 46.838 19.9229 47.0346 19.8693C47.2312 19.7978 47.4278 19.619 47.4278 19.1186V0.101336H44.4608V11.2007C44.4608 11.2007 42.6914 8.18006 39.6708 2.97889C36.7038 -2.11504 31.1094 -0.00600815 31.1094 4.37299V11.1829C31.1094 11.1829 29.3757 8.16226 26.355 2.96109C25.0324 0.744781 23.2272 -0.113146 21.6007 0.0119686ZM13.2181 0.0833588C-3.26125 0.0833588 -3.10039 23.5691 13.4325 23.5869H19.9027C22.691 23.5869 24.4605 21.9425 24.4605 18.9041V12.9522C24.4605 12.9522 28.0888 18.9577 29.5186 21.317C31.9316 25.3206 37.794 24.5342 37.7762 19.5296V12.9522C37.7762 12.9522 41.4045 18.9577 42.8165 21.317C45.2294 25.3206 51.1098 24.5342 51.0919 19.5296V0.101336H48.1249V19.1186C48.1249 19.8514 47.7496 20.3877 47.2134 20.5664C46.6772 20.7452 46.0873 20.5306 45.712 19.9944H45.6941V19.9587C45.6941 19.9587 37.8834 7.483 35.8995 4.23003H35.8816V4.21223C35.685 3.94413 35.4169 3.87263 35.2024 3.94413C34.9879 4.01562 34.7734 4.21209 34.7734 4.69467V19.1008C34.7734 19.8336 34.3981 20.4056 33.8798 20.5664C33.3614 20.7452 32.7537 20.5127 32.3963 19.9765V19.9587H32.3784C32.3784 19.9587 24.5677 7.4652 22.5837 4.21223C22.3693 3.90838 22.1012 3.83685 21.8867 3.90835C21.6722 3.97984 21.4577 4.17648 21.4577 4.65907V4.67687V18.9756C21.4577 19.8514 20.7428 20.5664 19.8849 20.5664H12.9857C9.94722 20.5664 7.65942 19.476 6.14018 17.8317C4.62094 16.1873 3.87025 14.0068 3.87025 11.8262C3.87025 9.64569 4.62094 7.44722 6.10443 5.80286C7.58793 4.1585 9.80424 3.06826 12.6819 3.06826H16.8821V0.0833588H13.2181Z" fill="#C6322D"/>
</svg>
