<svg width="42" height="42" viewBox="0 0 42 42" fill="none" xmlns="http://www.w3.org/2000/svg">
<circle cx="21" cy="21" r="20.5" stroke="black" stroke-dasharray="2 6"/>
<path d="M28 13H24C23.4477 13 23 13.4477 23 14V18C23 18.5523 23.4477 19 24 19H28C28.5523 19 29 18.5523 29 18V14C29 13.4477 28.5523 13 28 13Z" fill="white" stroke="#1A2530" stroke-miterlimit="10"/>
<path d="M17 13H13C12.4477 13 12 13.4477 12 14V18C12 18.5523 12.4477 19 13 19H17C17.5523 19 18 18.5523 18 18V14C18 13.4477 17.5523 13 17 13Z" fill="white" stroke="#1A2530" stroke-miterlimit="10"/>
<path d="M17 25H13C12.4477 25 12 25.4477 12 26V30C12 30.5523 12.4477 31 13 31H17C17.5523 31 18 30.5523 18 30V26C18 25.4477 17.5523 25 17 25Z" fill="white" stroke="#1A2530" stroke-miterlimit="10"/>
<path d="M28 25H24C23.4477 25 23 25.4477 23 26V30C23 30.5523 23.4477 31 24 31H28C28.5523 31 29 30.5523 29 30V26C29 25.4477 28.5523 25 28 25Z" fill="white" stroke="#1A2530" stroke-miterlimit="10"/>
<line x1="20.5" y1="30" x2="20.5" y2="13" stroke="black"/>
<line x1="29" y1="22" x2="12" y2="22" stroke="black"/>
</svg>
