<svg width="346" height="54" viewBox="0 0 346 54" fill="none" xmlns="http://www.w3.org/2000/svg">
<path d="M9.01599 14.0508C6.76447 15.1015 4.51295 16.2273 2.48657 17.203C1.66101 11.6492 7.59003 7.07108 13.6692 9.47271C15.0951 9.99807 16.371 10.8236 17.7219 11.349C21.2493 12.6999 22.6002 12.3997 25.5272 9.99807C25.8274 10.2232 26.1276 10.3733 26.4278 10.5985C25.227 12.3997 24.0262 14.276 22.9004 16.0772C22.3 17.0529 21.1743 17.9535 21.0992 18.8541C20.9491 24.0326 21.0241 29.2862 21.0241 35.5905C22.9004 33.5641 24.0262 32.2882 25.0769 31.0874C25.0769 35.9657 21.2493 40.9191 16.4461 42.27C11.3426 43.696 5.93892 41.5195 3.23708 36.9414C0.985555 33.0387 0.235031 28.6107 1.88615 24.7081C3.46222 21.0306 6.61436 18.0285 9.01599 14.7263C9.09105 14.5011 9.01599 14.276 9.01599 14.0508ZM20.0485 16.9028C18.0972 16.6776 16.296 16.9778 14.945 16.3024C11.1925 14.351 9.24116 16.3774 8.04034 19.3044C6.98963 21.8561 6.08902 24.7831 6.23912 27.4849C6.46428 33.6391 12.3183 37.6919 17.9471 36.0408C18.7726 35.8156 19.9734 34.7649 19.9734 34.0144C20.1235 28.3105 20.0485 22.6066 20.0485 16.9028Z" fill="#90979E"/>
<path d="M32.2065 47.4485C37.0097 42.7203 37.6852 24.708 33.4073 21.9311C31.6061 24.2577 31.456 34.5397 33.1821 38.2923C32.1314 39.418 31.0057 40.6188 29.7298 42.0448C28.2288 40.6188 26.8028 39.343 25.8271 38.4424C26.2775 36.0407 26.8779 34.1644 26.9529 32.3632C27.103 28.0103 27.3281 23.5823 26.8778 19.2293C26.4275 14.5761 28.1537 11.349 32.5817 8.72217C32.5817 12.85 32.5817 16.6776 32.5817 20.5052C32.957 20.6553 33.3322 20.8804 33.6324 21.0305C34.458 19.6046 35.2085 18.2536 35.959 17.0528C40.2369 19.1543 41.5128 21.706 41.2126 25.5336C40.9124 29.5113 41.1375 33.489 41.1375 37.5417C41.2126 43.1706 38.5858 46.1726 32.2065 47.4485Z" fill="#90979E"/>
<path d="M144.825 20.881C143.924 26.5849 143.699 31.9886 145.2 37.9926C144.449 38.8182 143.248 40.0941 141.747 41.6702C140.547 40.0941 139.421 38.5931 138.37 37.1671C138.67 35.516 139.196 33.5646 139.271 31.5383C139.421 27.0352 139.721 22.4571 139.196 18.0291C138.67 13.3009 141.222 10.7492 144.975 7.89722C144.975 12.2502 144.975 16.0027 144.975 20.6559C146.851 19.0048 148.052 17.879 149.253 16.7532C152.78 18.6295 153.981 21.4064 153.681 25.309C153.305 29.2867 153.605 33.3395 153.605 37.3172C153.53 42.5708 150.453 45.9481 144.975 46.6986C149.328 41.52 149.778 23.733 144.825 20.881Z" fill="#90979E"/>
<path d="M197.361 19.0042C198.486 18.1786 199.537 17.4281 200.588 16.6025C202.914 17.8784 205.166 19.1543 207.568 20.4301C207.418 21.1056 206.742 22.8318 206.817 24.4829C207.117 30.487 208.018 36.4911 207.793 42.4201C207.718 44.2213 204.941 45.8724 203.365 47.5986C208.168 43.0955 200.513 41.9698 201.489 37.6919C198.637 40.9941 196.535 43.4708 195.034 45.197C197.736 45.9475 200.588 46.773 203.365 47.5235C202.539 48.7244 201.714 49.9252 200.588 51.5763C197.136 47.2233 193.683 48.199 189.931 49.0996C191.957 46.698 193.983 44.2213 196.31 41.4444C194.209 40.2436 192.407 39.1929 191.056 38.3673C191.207 35.6655 191.807 32.5133 191.432 29.5113C190.906 24.4078 192.708 21.0305 197.361 19.0042C197.211 23.4322 197.211 27.9352 196.91 32.3632C196.76 34.915 197.586 36.6411 200.138 37.3917C200.363 37.2416 200.738 37.0915 200.738 36.9414C201.038 32.6635 201.564 28.3855 201.338 24.1076C201.263 22.7567 199.087 21.5559 197.886 20.205C197.586 19.9798 197.511 19.4545 197.361 19.0042Z" fill="#90979E"/>
<path d="M283.11 49.0245C281.159 50.4504 279.208 51.9515 276.731 53.8278C276.731 49.3997 276.731 45.422 276.731 40.5437C274.404 41.8196 272.903 42.6452 270.427 44.0711C271.477 41.6695 271.778 39.3429 272.978 38.6675C278.157 35.5904 275.83 30.9372 276.431 26.0589C274.63 26.9595 273.354 27.5599 272.228 28.1603C271.252 24.1076 271.778 23.282 276.131 21.7059C276.731 15.852 276.506 15.4017 272.303 15.7019C274.254 13.6004 275.905 11.8743 277.482 10.2231C281.91 12.3246 282.735 15.6268 282.51 20.1299C282.06 28.8358 282.36 37.6167 282.36 46.3977C282.36 47.2983 282.885 48.274 283.185 49.1746L283.11 49.0245Z" fill="#90979E"/>
<path d="M283.035 49.1C283.26 47.674 283.636 46.248 283.636 44.8221C283.711 34.0147 283.636 23.2824 284.461 12.4751C284.461 19.9802 284.461 27.5603 284.461 34.8403C286.487 35.7409 288.214 36.4914 290.54 37.5421C289.49 29.5867 292.492 21.6313 288.064 13.5258C288.814 12.8503 290.165 11.6495 291.591 10.3737C295.268 13.0004 298.195 15.7023 297.295 20.7307C296.92 22.682 296.995 24.7835 297.295 26.7348C298.496 34.465 296.469 40.4691 288.214 43.321C287.763 43.0208 286.863 42.4204 285.437 41.5198C285.437 44.9722 285.437 47.9742 285.437 50.9762C285.137 51.0513 284.911 51.1264 284.611 51.2014C284.086 50.5259 283.561 49.7754 283.035 49.1C283.035 49.1 283.11 49.0249 283.035 49.1Z" fill="#90979E"/>
<path d="M177.922 21.181C175.671 26.5846 176.796 32.1384 177.397 38.2175C176.646 38.893 175.445 40.0188 174.019 41.2946C172.819 40.1689 171.468 38.968 170.192 37.7672C172.894 31.0877 171.993 22.0065 168.391 20.8057C169.817 19.3797 171.243 18.1039 172.819 16.6029C174.17 17.8037 175.671 19.0795 177.697 20.8808C178.673 19.3047 179.723 17.6536 180.774 16.0024C184.677 18.4791 186.928 20.5055 186.253 24.7084C185.802 27.6353 186.178 30.7124 186.178 33.7145C186.178 36.4163 187.303 37.467 190.906 35.6658C188.579 38.1425 187.003 39.8687 185.427 41.5198C182.05 39.7185 180.624 37.1668 181.074 33.4893C181.374 30.7875 181.299 28.0106 181.074 25.2337C180.924 23.8077 180.099 22.4568 179.573 21.1059C179.048 21.0309 178.447 21.1059 177.922 21.181Z" fill="#90979E"/>
<path d="M82.2317 35.5156C80.8058 37.3169 79.3047 39.1931 77.9538 40.8443C70.5988 37.9923 69.398 32.2134 70.5988 24.8584C68.6475 25.684 67.5968 26.2093 66.471 26.6596C66.0207 24.258 66.2459 22.1566 68.9477 20.8807C70.5238 20.1302 70.9741 14.1261 69.9234 11.1991C67.8219 5.4202 68.8727 3.31877 75.327 0.992188C73.2256 3.61897 73.3757 5.87051 75.252 8.42224C76.3778 9.99831 76.8281 12.3999 76.8281 14.4263C76.8281 19.9801 76.3027 25.5339 76.2276 31.1627C76.1526 34.3148 79.2297 36.4163 82.0816 35.4406C82.1567 35.3655 82.2317 35.5156 82.2317 35.5156Z" fill="#90979E"/>
<path d="M106.924 19.6047C109.251 16.6027 111.727 15.5519 114.729 18.9292C115.33 19.6047 116.681 19.7548 117.056 19.9049C116.981 24.6331 116.681 29.7366 116.981 34.765C117.056 35.5905 119.157 36.4161 120.358 37.2417C119.532 38.0672 118.182 39.4932 116.606 41.1443C114.879 39.7183 113.303 38.4425 111.577 37.0165C110.151 38.3674 108.8 39.5682 107.299 40.9942C105.348 39.5682 103.397 38.2173 101.745 37.0916C101.745 34.2396 102.046 31.0124 101.67 27.9354C101.07 23.4323 103.096 20.9556 107.074 19.5296C107.074 23.7325 107.074 28.0104 106.924 32.2133C106.849 34.84 108.125 36.191 111.427 37.2417C111.427 33.339 111.202 29.9617 111.502 26.5844C111.877 22.7568 110.226 20.6554 106.924 19.6047Z" fill="#90979E"/>
<path d="M299.321 39.1933C299.321 35.9662 299.621 32.5888 299.246 29.2116C298.871 25.459 300.147 23.0574 303.374 21.3312C305.025 20.4306 306.451 19.2298 307.952 18.1791C310.354 19.605 312.605 20.9559 314.406 22.0067C314.406 25.384 314.406 29.2866 314.406 33.1142C314.406 36.1163 309.003 42.6457 306.076 42.7207C305.025 42.7958 303.974 41.67 302.924 41.0696C301.573 40.3942 300.222 39.6437 299.321 39.1933ZM304.8 21.5564C304.8 25.9844 305.025 29.5868 304.725 33.1893C304.425 36.6416 306.226 37.9925 309.753 39.1933C307.577 33.2643 312.755 26.2846 304.8 21.5564Z" fill="#90979E"/>
<path d="M239.464 20.4304C239.314 22.9071 238.788 25.8341 239.164 28.611C239.839 33.7144 238.113 37.1668 233.535 39.4183C232.484 39.9437 231.508 40.8443 230.533 41.5948C228.206 40.0187 225.955 38.5177 224.003 37.1668C224.003 33.7144 224.153 30.112 223.928 26.5846C223.703 23.8077 224.454 21.7813 227.08 20.5055C228.281 19.9051 229.407 19.0795 230.383 18.1038C232.184 16.3777 233.685 16.6779 235.486 18.2539C236.612 19.3046 238.263 19.83 239.464 20.4304ZM233.685 38.0674C233.685 33.5643 233.535 29.9619 233.76 26.4345C233.985 23.1323 232.259 21.6312 228.732 20.2803C231.058 26.2093 225.805 33.1891 233.685 38.0674Z" fill="#90979E"/>
<path d="M326.865 25.8337C328.216 26.4341 329.492 27.1096 331.443 28.0102C331.443 30.2617 331.593 33.2638 331.368 36.1907C331.143 39.0427 324.764 42.495 322.062 41.8196C319.961 41.2942 317.634 41.7445 315.683 41.7445C318.084 37.6918 319.66 37.1664 325.89 38.8175C325.89 36.3408 325.89 33.8642 325.89 31.2374C323.113 31.9128 320.411 32.5883 316.883 33.4889C317.559 28.4605 315.758 24.6329 320.186 21.0304C324.088 17.8783 328.066 19.6795 332.644 18.2535C330.843 20.7302 329.417 22.6065 327.991 24.5578C328.141 23.8824 328.291 23.1319 328.366 22.5315C326.565 22.2313 324.839 21.931 323.113 21.7059C323.113 23.8824 323.113 26.1339 323.113 29.286C324.764 27.71 325.814 26.7343 326.865 25.8337Z" fill="#90979E"/>
<path d="M94.2404 36.9415C92.8895 38.2924 91.5386 39.7184 90.2628 41.0693C87.4108 39.118 84.8591 37.3168 82.2323 35.5156L82.1573 35.3655C82.1573 30.6372 82.0071 25.909 82.3074 21.1808C82.5325 17.6534 81.782 14.8766 78.1045 13.1504C79.6806 11.4993 81.0315 10.0733 82.4575 8.57227C86.3601 11.4993 89.6624 14.4262 88.5366 19.98C88.0112 22.5317 88.7617 25.2336 88.3865 27.7853C87.711 32.4385 90.1126 34.9152 93.8652 36.7164L94.2404 36.9415Z" fill="#90979E"/>
<path d="M136.945 16.6781C134.318 21.3313 133.717 21.4814 127.938 20.1304C127.938 22.382 127.938 24.5585 127.938 26.4347C130.64 25.9844 132.967 25.6092 135.218 25.1589C137.32 33.9398 136.569 35.5159 129.589 40.3942C125.687 40.3942 122.685 40.3942 119.758 40.3942C121.559 37.7674 123.51 34.9155 125.612 31.6883C124.261 31.3881 123.21 31.0879 121.709 30.7126C122.535 26.885 120.358 23.0574 124.786 19.3799C128.839 16.1527 132.892 18.3292 136.945 16.6781ZM130.715 37.3171C130.715 34.9905 130.715 32.2887 130.715 29.2116C126.512 30.5625 125.837 34.3901 123.585 36.7167C126.137 36.9419 128.464 37.167 130.715 37.3171Z" fill="#90979E"/>
<path d="M216.423 41.0693C214.697 40.2438 212.896 39.3432 211.395 38.5926C211.545 37.0166 211.845 34.9151 211.92 32.8137C211.995 29.6616 212.07 26.5845 211.845 23.4324C211.77 22.0064 210.869 20.7305 209.894 18.3289C211.47 15.9273 213.871 12.3999 216.273 8.94751C216.648 9.09761 217.023 9.24772 217.324 9.39782C217.324 11.9496 217.324 14.5013 217.324 17.2031C218.9 17.3532 220.1 17.5033 222.277 17.7285C220.476 19.1544 219.125 20.2052 217.474 21.5561C217.474 24.9334 217.249 28.9861 217.549 32.9638C217.699 34.5399 218.9 36.0409 219.65 37.617C220.025 37.4669 220.401 37.3918 220.776 37.2417C219.425 38.5176 217.924 39.7184 216.423 41.0693Z" fill="#90979E"/>
<path d="M52.5451 29.211C48.4924 33.3388 48.5674 33.5639 54.4214 37.4666C55.5471 36.566 56.6729 35.5903 57.7987 34.6147C57.9488 34.7648 58.1739 34.9149 58.324 35.14C56.1476 37.4666 54.0461 39.8682 51.7196 42.3449C49.1678 40.5437 46.7662 38.8926 44.5146 37.3165C44.5897 34.6147 45.04 31.2374 44.7398 27.8601C44.5147 24.7079 45.6404 22.6816 48.2672 21.1805C50.2185 20.0548 51.9447 18.6288 54.1962 17.0527C55.8474 19.6045 57.4985 22.0061 59.4498 25.0832C57.2733 26.3591 55.2469 27.4848 53.1455 28.6856C55.322 25.2333 51.5694 24.1075 50.2936 21.931C50.2936 24.5578 50.2936 27.1846 50.2936 29.8864C51.1942 29.5862 51.8697 29.4361 52.5451 29.211Z" fill="#90979E"/>
<path d="M93.9403 36.7165C93.8653 31.0877 94.0154 25.4588 93.7152 19.83C93.5651 17.5034 92.4393 15.2519 91.6888 12.9253C91.2385 12.9253 90.7882 12.9253 90.3379 13.0004C91.6888 11.4994 93.1148 9.92328 94.3906 8.49731C98.8937 11.1991 100.92 14.9517 100.095 20.1302C99.7943 22.0815 99.7943 24.183 100.095 26.1343C100.995 31.3879 98.5935 34.6151 94.2405 36.9416L93.9403 36.7165Z" fill="#90979E"/>
<path d="M340.825 42.8708C339.099 41.67 337.523 40.6193 336.172 39.7187C336.172 34.4651 336.322 29.1365 336.097 23.8079C336.022 22.7572 334.671 21.7815 333.695 20.5056C335.572 17.5036 337.748 14.1263 339.85 10.674C340.225 10.749 340.525 10.8991 340.9 10.9741C340.9 13.4508 340.9 15.9275 340.9 18.6293C342.551 18.8545 343.752 19.0046 345.103 19.1547C344.878 19.605 344.803 20.1304 344.503 20.4306C343.452 21.4062 341.35 22.3068 341.275 23.2825C340.975 27.6355 341.05 31.9884 341.426 36.3414C341.501 37.0919 343.602 37.6172 345.028 38.4428C344.052 39.4185 342.401 41.1446 340.825 42.8708Z" fill="#90979E"/>
<path d="M251.172 21.2564C250.872 25.7595 250.196 30.3376 250.271 34.8406C250.347 38.6682 250.647 38.6682 247.344 41.4451C246.144 40.0942 244.868 38.7433 243.592 37.3924C243.892 37.3924 244.267 37.3924 244.568 37.3924C244.718 32.5891 244.943 27.7108 244.868 22.9075C244.868 22.2321 242.916 21.5566 241.641 20.7311C242.616 19.7554 244.042 18.1793 245.994 16.153C247.72 17.8041 249.371 19.3801 251.022 21.0313L251.172 21.2564Z" fill="#90979E"/>
<path d="M160.06 16.9778C162.161 18.1035 163.812 18.9291 165.463 19.8297C162.611 24.0326 163.812 35.8906 168.015 37.3166C166.814 38.8176 165.688 40.3186 164.563 41.7446C162.536 40.6188 160.66 39.5681 159.384 38.8927C159.384 33.8642 159.459 28.6107 159.234 23.3571C159.234 22.7567 157.358 22.2314 156.007 21.4808C157.133 20.205 158.634 18.5539 160.06 16.9778Z" fill="#90979E"/>
<path d="M250.872 20.9553C252.148 19.4543 253.424 17.9533 254.85 16.3772C256.801 17.6531 258.527 18.8539 259.878 19.7545C259.803 24.5578 259.653 29.8113 259.803 34.9898C259.803 35.6653 261.754 36.1907 263.03 36.9412C262.055 37.9919 260.554 39.643 258.978 41.3692C255.675 39.7181 254.099 37.3915 254.55 33.5639C254.85 30.7119 254.625 27.86 254.625 24.933C254.625 22.6064 253.724 21.1054 251.172 21.1805C251.172 21.2555 250.872 20.9553 250.872 20.9553Z" fill="#90979E"/>
<path d="M165.989 11.8746C164.638 13.3006 163.587 14.4264 162.311 15.7773C160.885 14.5014 159.685 13.4507 158.184 12.0998C159.459 10.7489 160.51 9.54804 161.786 8.12207C163.137 9.32289 164.413 10.4487 165.989 11.8746Z" fill="#90979E"/>
<path d="M326.866 25.8342C325.815 26.7348 324.764 27.7105 323.113 29.2115C323.113 26.0594 323.113 23.8078 323.113 21.6313C324.839 21.9316 326.566 22.1567 328.367 22.4569C328.217 23.1324 328.142 23.8078 327.992 24.4833C327.616 24.9336 327.241 25.3839 326.866 25.8342Z" fill="white"/>
<path d="M52.5455 29.2111C51.87 29.4362 51.1946 29.5863 50.2939 29.8865C50.2939 27.1847 50.2939 24.5579 50.2939 21.9312C51.4948 24.1076 55.2473 25.2334 53.1459 28.6857C52.9207 28.8358 52.7706 29.061 52.5455 29.2111Z" fill="white"/>
<path d="M20.0481 16.9028C20.0481 22.6067 20.1232 28.3106 19.9731 34.0144C19.9731 34.7649 18.7723 35.8157 17.9467 36.0408C12.3179 37.6919 6.46391 33.6392 6.23876 27.485C6.16371 24.7832 7.06431 21.8562 8.03998 19.3044C9.24079 16.3775 11.1921 14.3511 14.9447 16.3024C16.2956 16.9779 18.0968 16.6777 20.0481 16.9028ZM10.5917 20.4302C12.3179 25.0834 10.8919 29.5114 11.8676 34.3146C13.7439 32.8136 16.2956 31.7629 16.4457 30.412C16.971 26.2091 16.6708 21.9312 16.6708 17.0529C13.969 18.5539 11.9426 19.6797 10.5917 20.4302Z" fill="white"/>
<path d="M197.361 19.0045C197.511 19.4548 197.586 19.9051 197.886 20.2804C199.087 21.6313 201.264 22.8321 201.339 24.183C201.564 28.4609 201.038 32.7388 200.738 37.0168C200.738 37.1669 200.363 37.317 200.138 37.4671C197.586 36.7166 196.76 35.0654 196.911 32.4386C197.211 27.9356 197.211 23.4325 197.361 19.0045Z" fill="white"/>
<path d="M203.439 47.6736C200.587 46.848 197.81 46.0975 195.108 45.347C196.534 43.6208 198.711 41.1442 201.563 37.8419C200.512 42.1198 208.167 43.2456 203.439 47.6736C203.364 47.6736 203.439 47.6736 203.439 47.6736Z" fill="white"/>
<path d="M106.924 19.6048C110.226 20.7306 111.877 22.7569 111.502 26.5095C111.202 29.8868 111.427 33.3391 111.427 37.1667C108.125 36.116 106.849 34.7651 106.924 32.1383C107.074 27.9355 106.999 23.6576 107.074 19.4547C107.074 19.4547 106.924 19.6048 106.924 19.6048Z" fill="white"/>
<path d="M304.801 21.5559C312.681 26.2091 307.503 33.2639 309.754 39.1929C306.227 37.9921 304.425 36.6412 304.726 33.1888C305.026 29.5864 304.801 25.9839 304.801 21.5559Z" fill="white"/>
<path d="M233.685 38.0678C225.804 33.1895 231.058 26.2098 228.731 20.2808C232.259 21.5566 233.985 23.0576 233.76 26.4349C233.535 29.9623 233.685 33.5648 233.685 38.0678Z" fill="white"/>
<path d="M130.715 37.3165C128.463 37.0914 126.137 36.9413 123.585 36.6411C125.836 34.3896 126.512 30.4869 130.715 29.136C130.715 32.2881 130.715 34.99 130.715 37.3165Z" fill="white"/>
<path d="M10.5918 20.43C11.9427 19.6795 13.9691 18.5538 16.6709 17.0527C16.6709 21.856 17.0462 26.209 16.4458 30.4118C16.2957 31.7627 13.7439 32.8134 11.8677 34.3145C10.892 29.5112 12.2429 25.0832 10.5918 20.43Z" fill="#90979E"/>
</svg>
