<svg width="232" height="17" viewBox="0 0 232 17" fill="none" xmlns="http://www.w3.org/2000/svg">
<path d="M6.62774 7.72756C4.88939 6.95496 3.53733 6.63304 3.53733 5.2166C3.53733 4.18646 4.37432 3.47825 5.72637 3.47825C6.75651 3.47825 7.52911 3.92893 8.04418 4.8303L9.97569 2.96318C8.94555 1.54674 7.65788 0.967285 5.79076 0.967285C2.50719 0.967285 0.382534 2.89879 0.382534 5.28098C0.382534 7.40564 1.67021 8.56455 3.92363 9.72345C6.04829 10.818 7.27158 11.0755 7.27158 12.4276C7.27158 13.6509 6.37021 14.4235 4.76062 14.4235C3.47295 14.4235 2.37843 13.7152 1.92774 12.6207L0.125 14.6166C0.961987 16.0974 2.63596 16.9988 5.01815 16.9988C8.43048 16.9988 10.4264 15.0673 10.4264 12.2988C10.4264 10.3673 9.20309 8.88647 6.62774 7.72756Z" fill="#E30613"/>
<path d="M12.7441 8.95075C12.7441 13.522 16.1565 16.9987 21.114 16.9987C22.788 16.9987 24.3332 16.6124 25.6852 15.7754V12.4275C24.3976 13.6508 22.8524 14.2302 21.114 14.2302C17.9592 14.2302 16.0921 12.1699 16.0921 9.01514C16.0921 5.73157 18.1524 3.60692 21.4359 3.60692C23.2387 3.60692 24.5907 4.31513 25.6852 5.34527L25.814 2.06171C24.5907 1.48226 23.0455 0.967188 21.114 0.967188C16.0921 0.902805 12.7441 4.37952 12.7441 8.95075Z" fill="#E30613"/>
<path d="M33.1527 1.28906H29.8691V16.6124H33.1527V1.28906Z" fill="#E30613"/>
<path d="M37.7246 16.548H46.7383V13.7795H41.0082V9.98085H46.7383V7.14797H41.0082V4.05756H46.7383V1.28906H37.7246V16.548Z" fill="#E30613"/>
<path d="M62.7065 9.85208C62.7065 10.5603 62.7065 11.5904 62.8997 12.8781C62.3846 11.5904 61.9339 10.6891 61.5476 10.174L54.7873 1.28906H51.375V16.6124H54.5298V7.85619C54.5298 7.08358 54.5298 6.11783 54.3366 4.83016C54.8517 6.11783 55.3024 7.0192 55.6887 7.53427L62.5777 16.548H65.7969V1.28906H62.6421V9.85208H62.7065Z" fill="#E30613"/>
<path d="M69.3379 4.05756H73.0721V16.548H76.3557V4.05756H80.1543V1.28906H69.3379V4.05756Z" fill="#E30613"/>
<path d="M87.0433 1.28906H83.7598V16.6124H87.0433V1.28906Z" fill="#E30613"/>
<path d="M92 16.548H95.2836V9.98085H101.014V7.14797H95.2836V4.05756H101.014V1.28906H92V16.548Z" fill="#E30613"/>
<path d="M108.289 1.28906H105.006V16.6124H108.289V1.28906Z" fill="#E30613"/>
<path d="M111.703 8.95075C111.703 13.522 115.115 16.9987 120.073 16.9987C121.747 16.9987 123.292 16.6124 124.644 15.7754V12.4275C123.357 13.6508 121.811 14.2302 120.073 14.2302C116.918 14.2302 115.051 12.1699 115.051 9.01514C115.051 5.73157 117.111 3.60692 120.395 3.60692C122.198 3.60692 123.55 4.31513 124.644 5.34527L124.773 2.06171C123.55 1.48226 122.004 0.967188 120.073 0.967188C115.051 0.902805 111.703 4.37952 111.703 8.95075Z" fill="#E30613"/>
<path d="M189.349 3.22071C187.933 1.80427 186.065 0.967285 183.876 0.967285C181.687 0.967285 179.82 1.80427 178.404 3.22071C176.923 4.70153 176.086 6.76181 176.086 8.95085C176.086 11.2043 176.923 13.2002 178.404 14.681C179.82 16.0974 181.687 16.9344 183.876 16.9344C186.065 16.9344 187.933 16.0974 189.349 14.681C190.83 13.2002 191.667 11.1399 191.667 8.95085C191.667 6.69742 190.894 4.63715 189.349 3.22071ZM189.091 9.01523C189.091 12.2988 186.838 14.681 183.876 14.681C180.915 14.681 178.661 12.2988 178.661 9.01523V8.95085V8.88647C178.661 5.6029 180.915 3.22071 183.876 3.22071C186.838 3.22071 189.091 5.6029 189.091 8.88647V9.01523Z" fill="black"/>
<path d="M145.246 5.474C145.246 4.05756 144.667 2.83427 143.766 2.12605C142.8 1.41783 141.577 1.28906 139.967 1.28906H136.49V16.6124H138.808V9.72331H139.066L144.152 16.548H146.985L141.705 9.59455C144.023 9.33701 145.246 7.92057 145.246 5.474ZM138.937 7.79181V3.41372H139.387C141.641 3.41372 142.671 3.80002 142.671 5.73153C142.671 7.59865 141.577 7.85619 139.387 7.85619H138.937V7.79181Z" fill="black"/>
<path d="M150.332 16.548H158.831V14.3589H152.779V9.40139H158.831V7.21235H152.779V3.41372H158.831V1.28906H150.332V16.548Z" fill="black"/>
<path d="M171.709 2.06167C170.679 1.28906 169.455 1.28906 167.91 1.28906H164.176V16.6124H166.494V9.72331H167.91C169.455 9.72331 170.743 9.65893 171.709 8.95071C172.674 8.24249 173.254 6.95482 173.254 5.53838C173.189 3.99317 172.61 2.76988 171.709 2.06167ZM167.202 7.66304H166.558V3.41372H167.202C169.52 3.41372 170.614 3.80002 170.614 5.66715C170.679 7.4055 169.52 7.66304 167.202 7.66304Z" fill="black"/>
<path d="M204.221 5.474C204.221 4.05756 203.642 2.83427 202.74 2.12605C201.774 1.41783 200.551 1.28906 198.942 1.28906H195.465V16.6124H197.783V9.72331H198.04L203.126 16.548H205.959L200.744 9.59455C203.062 9.33701 204.221 7.92057 204.221 5.474ZM197.976 7.79181V3.41372H198.426C200.68 3.41372 201.71 3.80002 201.71 5.73153C201.71 7.59865 200.616 7.85619 198.426 7.85619H197.976V7.79181Z" fill="black"/>
<path d="M208.406 3.41372H212.462V16.548H214.973V3.41372H219.03V1.28906H208.406V3.41372Z" fill="black"/>
<path d="M227.72 7.72756C225.982 6.95496 224.823 6.50427 224.823 5.02345C224.823 3.86455 225.66 3.09194 227.012 3.09194C227.978 3.09194 228.686 3.54263 229.265 4.50838L231.197 3.47825C230.617 1.86866 229.072 0.967285 226.819 0.967285C224.05 0.967285 222.247 2.70564 222.247 5.15222C222.247 7.47003 223.728 8.50016 226.432 9.78784C228.042 10.5604 229.137 10.9467 229.137 12.4276C229.137 13.7796 228.235 14.681 226.69 14.681C225.145 14.681 224.115 13.9728 223.728 12.5563L221.732 13.4577C222.247 15.7111 223.986 16.9344 226.561 16.9344C229.716 16.9344 231.647 15.0673 231.647 12.2344C231.712 10.0454 230.424 8.95085 227.72 7.72756Z" fill="black"/>
</svg>
