<?xml version="1.0" encoding="utf-8"?>
<!-- Generator: Adobe Illustrator 24.3.0, SVG Export Plug-In . SVG Version: 6.00 Build 0)  -->
<svg version="1.1" id="Layer_1" xmlns="http://www.w3.org/2000/svg" xmlns:xlink="http://www.w3.org/1999/xlink" x="0px" y="0px"
	 viewBox="0 0 1853 1932" style="enable-background:new 0 0 1853 1932;" xml:space="preserve">
<style type="text/css">
	.st0{clip-path:url(#SVGID_2_);}
	.st1{fill:#FFFFFF;stroke:url(#SVGID_3_);stroke-width:17.0188;}
	.st2{fill:none;stroke:#1C2329;stroke-width:17.0188;}
	.st3{fill:url(#SVGID_4_);}
	.st4{fill:none;stroke:url(#SVGID_5_);stroke-width:34.0375;stroke-linecap:round;}
	.st5{fill-rule:evenodd;clip-rule:evenodd;fill:url(#SVGID_6_);}
	.st6{fill:url(#SVGID_7_);}
	.st7{fill:none;stroke:#000000;stroke-width:17.0188;stroke-dasharray:17.02,48.2;}
	.st8{fill:none;stroke:#1A2530;stroke-width:8.5094;stroke-dasharray:8.51,8.51;}
	.st9{fill:url(#SVGID_8_);}
	.st10{fill:url(#SVGID_9_);}
	.st11{fill:none;stroke:#1A2530;stroke-width:8.5094;stroke-dasharray:8.51,25;}
	.st12{fill:url(#SVGID_10_);}
	.st13{fill:none;stroke:#000000;stroke-width:8.5094;}
	.st14{fill:url(#SVGID_11_);}
	.st15{fill:url(#SVGID_12_);}
	.st16{fill:url(#SVGID_13_);}
</style>
<g>
	<defs>
		<rect id="SVGID_1_" width="1853" height="1931.6"/>
	</defs>
	<clipPath id="SVGID_2_">
		<use xlink:href="#SVGID_1_"  style="overflow:visible;"/>
	</clipPath>
	<g class="st0">
		
			<linearGradient id="SVGID_3_" gradientUnits="userSpaceOnUse" x1="1136" y1="1668.2095" x2="1136" y2="485.4105" gradientTransform="matrix(1 0 0 -1 0 1932)">
			<stop  offset="0" style="stop-color:#C7FDE4"/>
			<stop  offset="1" style="stop-color:#14DDE0"/>
		</linearGradient>
		<path class="st1" d="M587.1,272.3h1097.7c18.8,0,34,15.2,34,34V1404c0,18.8-15.2,34-34,34H587.1c-18.8,0-34-15.2-34-34V306.3
			C553.1,287.5,568.3,272.3,587.1,272.3z"/>
		<circle class="st2" cx="1140.5" cy="781.4" r="72"/>
		<g>
			
				<linearGradient id="SVGID_4_" gradientUnits="userSpaceOnUse" x1="1780.7124" y1="1568.4756" x2="1872.1625" y2="1477.0045" gradientTransform="matrix(0.7071 -0.7071 -0.7071 -0.7071 908.7759 2902.4709)">
				<stop  offset="0" style="stop-color:#0057FF"/>
				<stop  offset="0.5885" style="stop-color:#5AEEFF"/>
				<stop  offset="1" style="stop-color:#DEFFDE"/>
			</linearGradient>
			<path class="st3" d="M1064.9,528.2l65.6-65.6c3.3-3.3,8.7-3.3,12,0l65.6,65.6c3.3,3.3,3.3,8.7,0,12l-65.6,65.6
				c-3.3,3.3-8.7,3.3-12,0l-65.6-65.6C1061.5,536.9,1061.5,531.6,1064.9,528.2z"/>
		</g>
		<g>
			
				<linearGradient id="SVGID_5_" gradientUnits="userSpaceOnUse" x1="1349.99" y1="859.825" x2="933.0336" y2="859.8151" gradientTransform="matrix(1 0 0 -1 0 1932)">
				<stop  offset="0" style="stop-color:#14DDE0"/>
				<stop  offset="1" style="stop-color:#4B5AFF"/>
			</linearGradient>
			<path class="st4" d="M1327.5,1072.2H944.5"/>
		</g>
		
			<linearGradient id="SVGID_6_" gradientUnits="userSpaceOnUse" x1="788.8415" y1="1157.407" x2="788.8415" y2="1000.444" gradientTransform="matrix(1 0 0 -1 0 1932)">
			<stop  offset="0" style="stop-color:#14DDE0"/>
			<stop  offset="1" style="stop-color:#4B5AFF"/>
		</linearGradient>
		<path class="st5" d="M733.7,838.2c-9.4,0-17,7.6-17,17s7.6,17,17,17h38.1v38.1c0,9.4,7.6,17,17,17s17-7.6,17-17v-38.1h38.1
			c9.4,0,17-7.6,17-17s-7.6-17-17-17h-38.1v-38.1c0-9.4-7.6-17-17-17s-17,7.6-17,17v38.1H733.7z"/>
		<g>
			
				<linearGradient id="SVGID_7_" gradientUnits="userSpaceOnUse" x1="1446.589" y1="1072.553" x2="1557.2111" y2="1072.553" gradientTransform="matrix(1 0 0 -1 0 1932)">
				<stop  offset="0" style="stop-color:#0057FF"/>
				<stop  offset="0.5885" style="stop-color:#5AEEFF"/>
				<stop  offset="1" style="stop-color:#DEFFDE"/>
			</linearGradient>
			<ellipse class="st6" cx="1501.9" cy="859.4" rx="55.3" ry="59.6"/>
		</g>
		<path class="st2" d="M1033.2,996.1c0-59.3,48.1-107.3,107.3-107.3l0,0c59.3,0,107.3,48.1,107.3,107.3v75.9c0,2.5-2,4.6-4.6,4.6
			h-205.5c-2.5,0-4.6-2-4.6-4.6V996.1z"/>
		<circle class="st7" cx="1136" cy="880.7" r="353.1"/>
		<circle class="st8" cx="1827.5" cy="1906.1" r="21.3"/>
		<g>
			
				<linearGradient id="SVGID_8_" gradientUnits="userSpaceOnUse" x1="1710.3883" y1="149.29" x2="1803.9916" y2="149.29" gradientTransform="matrix(1 0 0 -1 0 1932)">
				<stop  offset="0" style="stop-color:#0057FF"/>
				<stop  offset="0.5885" style="stop-color:#5AEEFF"/>
				<stop  offset="1" style="stop-color:#DEFFDE"/>
			</linearGradient>
			<circle class="st9" cx="1757.2" cy="1782.7" r="46.8"/>
		</g>
		<g>
			
				<linearGradient id="SVGID_9_" gradientUnits="userSpaceOnUse" x1="989.1366" y1="1893.708" x2="1031.6833" y2="1893.708" gradientTransform="matrix(1 0 0 -1 0 1932)">
				<stop  offset="0" style="stop-color:#0057FF"/>
				<stop  offset="0.5885" style="stop-color:#5AEEFF"/>
				<stop  offset="1" style="stop-color:#DEFFDE"/>
			</linearGradient>
			<circle class="st10" cx="1010.4" cy="38.3" r="21.3"/>
		</g>
		<circle class="st11" cx="1131.8" cy="102.1" r="63.8"/>
		<g>
			
				<linearGradient id="SVGID_10_" gradientUnits="userSpaceOnUse" x1="2058.2522" y1="1984.9523" x2="2138.6521" y2="1904.5322" gradientTransform="matrix(0.7071 -0.7071 -0.7071 -0.7071 1284.5592 2976.738)">
				<stop  offset="0" style="stop-color:#0057FF"/>
				<stop  offset="0.5885" style="stop-color:#5AEEFF"/>
				<stop  offset="1" style="stop-color:#DEFFDE"/>
			</linearGradient>
			<path class="st12" d="M1342.4,111.8l56.2-56.2c3.3-3.3,8.7-3.3,12,0l56.2,56.2c3.3,3.3,3.3,8.7,0,12l-56.2,56.2
				c-3.3,3.3-8.7,3.3-12,0l-56.2-56.2C1339.1,120.5,1339.1,115.1,1342.4,111.8z"/>
		</g>
		<path class="st13" d="M1359.1,114.8l65.2-65.2c1.7-1.7,4.4-1.7,6,0l65.2,65.2c1.7,1.7,1.7,4.4,0,6l-65.2,65.2
			c-1.7,1.7-4.4,1.7-6,0l-65.2-65.2C1357.4,119.1,1357.4,116.4,1359.1,114.8z"/>
		<g>
			
				<linearGradient id="SVGID_11_" gradientUnits="userSpaceOnUse" x1="2002.8221" y1="286.6912" x2="2067.1421" y2="222.3512" gradientTransform="matrix(0.7071 -0.7071 -0.7071 -0.7071 67.4722 3434.9524)">
				<stop  offset="0" style="stop-color:#0057FF"/>
				<stop  offset="0.5885" style="stop-color:#5AEEFF"/>
				<stop  offset="1" style="stop-color:#DEFFDE"/>
			</linearGradient>
			<path class="st14" d="M1287,1810l42.6-42.6c3.3-3.3,8.7-3.3,12,0l42.6,42.6c3.3,3.3,3.3,8.7,0,12l-42.6,42.6
				c-3.3,3.3-8.7,3.3-12,0L1287,1822C1283.7,1818.7,1283.7,1813.3,1287,1810z"/>
		</g>
		<path class="st13" d="M1276.9,1807.3l36.2-36.2c1.7-1.7,4.4-1.7,6,0l36.2,36.2c1.7,1.7,1.7,4.4,0,6l-36.2,36.2
			c-1.7,1.7-4.4,1.7-6,0l-36.2-36.2C1275.3,1811.6,1275.3,1808.9,1276.9,1807.3z"/>
		<g>
			
				<linearGradient id="SVGID_12_" gradientUnits="userSpaceOnUse" x1="774.3536" y1="1800.104" x2="816.9004" y2="1800.104" gradientTransform="matrix(1 0 0 -1 0 1932)">
				<stop  offset="0" style="stop-color:#0057FF"/>
				<stop  offset="0.5885" style="stop-color:#5AEEFF"/>
				<stop  offset="1" style="stop-color:#DEFFDE"/>
			</linearGradient>
			<circle class="st15" cx="795.6" cy="131.9" r="21.3"/>
		</g>
		<g>
			
				<linearGradient id="SVGID_13_" gradientUnits="userSpaceOnUse" x1="764.4103" y1="1172.1335" x2="878.3274" y2="1058.1925" gradientTransform="matrix(0.7071 -0.7071 -0.7071 -0.7071 330.8507 2299.9224)">
				<stop  offset="0" style="stop-color:#0057FF"/>
				<stop  offset="0.5885" style="stop-color:#5AEEFF"/>
				<stop  offset="1" style="stop-color:#DEFFDE"/>
			</linearGradient>
			<path class="st16" d="M60.6,912.5l60.6-60.6c10-10,26.1-10,36.1,0l60.6,60.6c10,10,10,26.1,0,36.1l-60.6,60.6
				c-10,10-26.1,10-36.1,0l-60.6-60.6C50.6,938.7,50.6,922.5,60.6,912.5z"/>
		</g>
		<path class="st13" d="M9,921.7l36.2-36.2c1.7-1.7,4.4-1.7,6,0l36.2,36.2c1.7,1.7,1.7,4.4,0,6l-36.2,36.2c-1.7,1.7-4.4,1.7-6,0
			L9,927.7C7.4,926.1,7.4,923.4,9,921.7z"/>
		<circle class="st11" cx="1693.4" cy="1761.4" r="63.8"/>
		<circle class="st8" cx="1650.8" cy="145.6" r="21.3"/>
		<circle class="st8" cx="986.5" cy="25.5" r="21.3"/>
	</g>
</g>
</svg>
