<?xml version="1.0" encoding="utf-8"?>
<!-- Generator: Adobe Illustrator 24.3.0, SVG Export Plug-In . SVG Version: 6.00 Build 0)  -->
<svg version="1.1" id="Layer_1" xmlns="http://www.w3.org/2000/svg" xmlns:xlink="http://www.w3.org/1999/xlink" x="0px" y="0px"
	 viewBox="0 0 1065 1065" style="enable-background:new 0 0 1065 1065;" xml:space="preserve">
<style type="text/css">
	.st0{fill:#FFFFFF;}
	.st1{fill:#C4EAFC;}
	.st2{fill:#2793FF;}
	.st3{fill:none;stroke:#1A2530;stroke-width:17.3641;}
	.st4{fill:none;stroke:#CCD8E3;stroke-width:11.5761;}
	.st5{clip-path:url(#SVGID_2_);}
</style>
<g>
	<path class="st0" d="M57.9,5.8h949.2c28.8,0,52.1,23.3,52.1,52.1v949.2c0,28.8-23.3,52.1-52.1,52.1H57.9
		c-28.8,0-52.1-23.3-52.1-52.1V57.9C5.8,29.1,29.1,5.8,57.9,5.8z"/>
	<path class="st1" d="M808,676c117.2-1.2,215.2,77.5,249.5,117l3,213.5L1048,1044l-34.5,16H50l-34.5-18.5L8,1008V677.5
		c33.2-39,134.9-114.3,276.5-103.5C461.5,587.5,550,750.5,561,771.5C571.5,759,661.5,677.5,808,676z"/>
	<circle class="st2" cx="413.6" cy="331.2" r="99.2"/>
	<circle class="st3" cx="390.4" cy="690.4" r="146.7"/>
</g>
<path class="st4" d="M57.9,5.8h949.2c28.8,0,52.1,23.3,52.1,52.1v949.2c0,28.8-23.3,52.1-52.1,52.1H57.9
	c-28.8,0-52.1-23.3-52.1-52.1V57.9C5.8,29.1,29.1,5.8,57.9,5.8z"/>
<g>
	<defs>
		<circle id="SVGID_1_" cx="573.1" cy="478.4" r="216.2"/>
	</defs>
	<clipPath id="SVGID_2_">
		<use xlink:href="#SVGID_1_"  style="overflow:visible;"/>
	</clipPath>
	<g class="st5">
		<line class="st3" x1="212.8" y1="568.1" x2="728.8" y2="52.1"/>
		<line class="st3" x1="244.4" y1="599.6" x2="760.4" y2="83.7"/>
		<line class="st3" x1="276" y1="631.2" x2="792" y2="115.2"/>
		<line class="st3" x1="307.6" y1="662.8" x2="823.6" y2="146.8"/>
		<line class="st3" x1="339.2" y1="694.4" x2="855.2" y2="178.4"/>
		<line class="st3" x1="370.8" y1="726" x2="886.8" y2="210"/>
		<line class="st3" x1="402.4" y1="757.6" x2="918.4" y2="241.6"/>
		<line class="st3" x1="497.1" y1="852.4" x2="1013.1" y2="336.4"/>
		<line class="st3" x1="434" y1="789.2" x2="949.9" y2="273.2"/>
		<line class="st3" x1="465.5" y1="820.8" x2="981.5" y2="304.8"/>
	</g>
</g>
</svg>
