<?xml version="1.0" encoding="utf-8"?>
<!-- Generator: Adobe Illustrator 24.3.0, SVG Export Plug-In . SVG Version: 6.00 Build 0)  -->
<svg version="1.1" id="Layer_1" xmlns="http://www.w3.org/2000/svg" xmlns:xlink="http://www.w3.org/1999/xlink" x="0px" y="0px"
	 viewBox="0 0 796 796" style="enable-background:new 0 0 796 796;" xml:space="preserve">
<style type="text/css">
	.st0{fill:#FFFFFF;}
	.st1{fill:#2793FF;}
	.st2{fill:none;stroke:#1A2530;stroke-width:12.98;}
	.st3{fill:#D0F7E9;}
	.st4{opacity:0.9;fill:#10BF80;enable-background:new    ;}
	.st5{fill:none;stroke:#1C2329;stroke-width:12.98;stroke-dasharray:10,26.3;}
	.st6{fill:#1C2329;}
	.st7{fill:none;stroke:#1A2530;stroke-width:12.98;stroke-linecap:round;}
	.st8{fill:none;stroke:#CCD8E3;stroke-width:8.62;}
	.st9{fill:none;stroke:#CCD8E3;stroke-width:8.65;}
</style>
<g>
	<path class="st0" d="M43.3,4.3h709.5c21.5,0,38.9,17.4,38.9,38.9v709.5c0,21.5-17.4,38.9-38.9,38.9H43.3
		c-21.5,0-38.9-17.4-38.9-38.9V43.3C4.3,21.8,21.8,4.3,43.3,4.3z"/>
	<path class="st0" d="M43.3,0h709.5C776.6,0,796,19.4,796,43.3v709.5c0,23.9-19.4,43.3-43.3,43.3H43.3C19.4,796,0,776.6,0,752.7
		V43.3C0,19.4,19.4,0,43.3,0z"/>
	<circle class="st1" cx="302.2" cy="247.2" r="74.2"/>
	<circle class="st2" cx="284.8" cy="515.7" r="109.6"/>
	<path class="st0" d="M43.3,4.3h709.5c21.5,0,39,17.4,39,39v709.5c0,21.5-17.4,39-39,39H43.3c-21.5,0-39-17.4-39-39V43.3
		C4.3,21.7,21.7,4.3,43.3,4.3z"/>
	<path class="st0" d="M43.3,0h709.5C776.6,0,796,19.4,796,43.3v709.5c0,23.9-19.4,43.3-43.3,43.3H43.3C19.4,796,0,776.6,0,752.7
		V43.3C0,19.4,19.4,0,43.3,0z"/>
	<path class="st3" d="M787.5,437L366,788l377.6,5.8c23.9,0.4,43.6-18.7,43.9-42.6c0-0.2,0-0.4,0-0.7V437z"/>
	<circle class="st4" cx="397.2" cy="396.5" r="102.6"/>
	<path class="st5" d="M291.4,230.5c65.7-38,147.4-34.7,209.9,8.3"/>
	<path class="st5" d="M488.1,571c-66.4,38.4-149.1,34.6-211.7-9.6"/>
	<path class="st6" d="M217.8,505.4c3.5,0.9,7-1.1,7.9-4.6l15.1-56.4c0.9-3.5-1.2-7-4.6-7.9c-3.4-0.9-7,1.1-7.9,4.6l-13.4,50.1
		l-50.1-13.4c-3.4-1.1-7.1,0.9-8.1,4.3s0.9,7.1,4.3,8.1c0.2,0,0.3,0.1,0.5,0.1L217.8,505.4z M225.1,495.8
		c-52.5-90.9-21.4-207.2,69.6-259.8l-6.5-11.2c-97.2,56.1-130.4,180.3-74.4,277.5L225.1,495.8z"/>
	<path class="st6" d="M558.5,290.7c-3.4-0.9-7,1.1-7.9,4.6c0,0,0,0,0,0l-15.1,56.4c-0.7,3.5,1.7,6.9,5.2,7.6
		c3.2,0.6,6.3-1.2,7.3-4.2l13.4-50.1l50.2,13.4c3.5,0.7,7-1.5,7.7-5c0.7-3.2-1.2-6.5-4.3-7.5L558.5,290.7z M551.3,300.2
		c52.7,91.4,29.5,209.8-60.9,262.1l6.5,11.2c97.6-56.4,121.5-183.1,65.7-279.8L551.3,300.2z"/>
	<path class="st7" d="M295.2,486.8c0,0-10.5-28.7-5.7-56.4 M490.6,291.4c0,0,10,27.1,6.1,54 M305,398.9l31.9,31.9 M305,398.9
		c-9,9-13.5,20.2-15.5,31.5 M305,398.9c9-9,20.2-13.5,31.5-15.5 M480.9,379.4L449,347.4 M480.9,379.3c9.6-9.6,14.1-21.7,15.9-33.9
		 M480.9,379.3c-9.6,9.6-21.7,14.1-33.9,15.9 M496.8,345.4l-19.8-19.8 M446.9,395.2c-26.9,3.8-54-6.1-54-6.1s-28.7-10.5-56.4-5.7
		 M446.9,395.2l-19.8-19.8 M289.4,430.4l18.6,18.6 M336.5,383.3l18.5,18.5"/>
	<path class="st7" d="M383.1,477l-31.9-31.9 M383.1,477c-9,9-20.2,13.5-31.5,15.5l-16.4-16.4 M383.1,477c9-9,13.5-20.2,15.5-31.5
		 M402.6,301.1l31.9,31.9 M402.6,301.1c9.6-9.6,21.7-14.1,33.9-15.9l18.3,18.3 M402.6,301.1c-9.6,9.6-14.1,21.7-15.9,33.9
		 M386.8,335c-3.8,26.9,6.1,54,6.1,54s10.5,28.7,5.7,56.4 M386.8,335l18.3,18.3 M398.6,445.5l-16.4-16.4"/>
	<path class="st3" d="M3.5,387.5L363.5,6h-315C24.7,6,5.4,25.2,5.3,49L3.5,387.5z"/>
	<path class="st8" d="M43.3,4.3h709.5c21.5,0,39,17.4,39,39v709.5c0,21.5-17.4,39-39,39H43.3c-21.5,0-39-17.4-39-39V43.3
		C4.3,21.7,21.7,4.3,43.3,4.3z"/>
	<path class="st9" d="M43.3,4.3h709.5c21.5,0,38.9,17.4,38.9,38.9v709.5c0,21.5-17.4,38.9-38.9,38.9H43.3
		c-21.5,0-38.9-17.4-38.9-38.9V43.3C4.3,21.8,21.8,4.3,43.3,4.3z"/>
</g>
</svg>
