<svg id="Layer_1" data-name="Layer 1" xmlns="http://www.w3.org/2000/svg" xmlns:xlink="http://www.w3.org/1999/xlink" viewBox="0 0 1415 1415"><defs><style>.cls-1,.cls-6{fill:none;}.cls-2{fill:#fff;stroke:#a9b9c9;stroke-width:15.38px;}.cls-3{fill:url(#linear-gradient);}.cls-4{fill:url(#linear-gradient-2);}.cls-5{clip-path:url(#clip-path);}.cls-6{stroke:#1a2530;stroke-width:23.15px;}</style><linearGradient id="linear-gradient" x1="1367.36" y1="701.29" x2="1483.62" y2="585" gradientTransform="matrix(1, 0, 0, -1, -446.38, 1437.66)" gradientUnits="userSpaceOnUse"><stop offset="0" stop-color="#0057ff"/><stop offset="0.59" stop-color="#5aeeff"/><stop offset="1" stop-color="#deffde"/></linearGradient><linearGradient id="linear-gradient-2" x1="798.28" y1="998.77" x2="943.6" y2="853.41" gradientTransform="matrix(1, 0, 0, -1, -439.16, 1420.22)" xlink:href="#linear-gradient"/><clipPath id="clip-path" transform="translate(0 0)"><rect class="cls-1" x="285" y="285" width="844.64" height="829"/></clipPath></defs><rect class="cls-2" x="7.69" y="7.69" width="1399.62" height="1399.62" rx="69.21"/><rect class="cls-3" x="920.97" y="736.38" width="139.53" height="139.53" rx="15.38" transform="translate(-279.85 936.67) rotate(-45)"/><rect class="cls-4" x="359.11" y="421.47" width="174.4" height="174.4" rx="15.38" transform="translate(-228.96 464.57) rotate(-45)"/><g class="cls-5"><g class="cls-5"><path class="cls-6" d="M785.07,1024.88a19.11,19.11,0,0,0-.35-3.1c-.69-6.36-1.72-13.07-4-19.1a36.05,36.05,0,0,0-12-16.51c-6-4.3-13.24-6.71-21.67-7.4-.69,0-1.21-.17-1.89-.17-7.23-.69-16.52-1.38-25.12.52-10.67,2.41-19.78,8.77-26,21.33v.34a76.36,76.36,0,0,0-6.71,28.73,73.07,73.07,0,0,0,5,29.07v.35a32.59,32.59,0,0,0,6.37,9.46,63.82,63.82,0,0,0,8.08,7.22,75.87,75.87,0,0,0,17.2,10.15c27,10,57.81,7.23,82.58,1.55,43.18-9.8,72.77-32.34,93.07-62.1,20.12-29.24,31-65,37.84-100.81,8.78-46.27,12.56-93.92,16-140.72,1.38-16.85,2.58-33.71,4.13-50.23,3.44-38,6.54-76.2,9.63-115.26,1.21-15.48,2.41-31,3.79-46.79h92.2l1.38-10.15c2.06-16.34,4-29.59,6-46.44l1.72-13.08H975.5c.34-3.1.52-6,.86-8.94,1.2-13.25,2.41-24.43,5.33-36.13,1.38-5.68,2.58-11.53,3.61-17.2,0-.35.18-.86.18-1.21,1.2-6,2.41-11.87,3.78-17.37,2.93-11.18,6.54-20.65,12.39-28,2.92-3.61,4.82-4.47,6.19-5,.52-.17,1.21-.34,1.89-.52.69,1.38,1.38,2.93,2.07,4.3a51.37,51.37,0,0,0,3.78,6.54c.69,1,1.55,2.24,2.41,3.44a159.33,159.33,0,0,0,10.49,14.11c4.65,5.33,11.36,11.87,20.65,13.59,8.25,1.55,17.89.86,26.49-1.38s17.55-6.19,24.08-12.38c35.79-33.72,15.49-91.7-32.51-100.3-32.34-5.84-67.26-6.36-101,9.12-71.39,33.38-92.38,98.23-102.36,163.94a51.36,51.36,0,0,1-2.06,9.47c-.34.85-.52,1.54-.86,1.72,0,.17-.17.51-.17.34a.56.56,0,0,0-.35.17,6.87,6.87,0,0,1-1.72.52,57.94,57.94,0,0,1-9.8.69h-.69a169.35,169.35,0,0,1-18.58,0,44.36,44.36,0,0,0-10.66-.52,19.84,19.84,0,0,0-12.05,5,22.63,22.63,0,0,0-6.36,10.66,93.78,93.78,0,0,0-2.41,11.7c-.69,4.3-1.55,9-2.41,13.59-1,5.68-2.06,11.36-2.92,17.2l-2.24,13.42h28.21c8.78,0,17,.18,25.12,0a34.12,34.12,0,0,1,6.88.35.66.66,0,0,1,.52.17,27.15,27.15,0,0,1-.18,7.4c-3.26,26-5.16,52.64-6.88,79-1.2,16.17-2.23,32.34-3.61,48-1,10.67-1.89,21.51-2.92,32.17-6.54,72.08-13.08,144-21.34,215.72a183.26,183.26,0,0,1-6.53,31.83c-3.27,10.67-7.06,19.09-11.18,24.25A45.12,45.12,0,0,1,785.07,1024.88Z" transform="translate(0 0)"/><path class="cls-6" d="M577.61,818.62c0,5,.35,10.32.69,15.31.17,1.89.17,3.61.35,5.5l.68,10.84h96.85V838.74c0-24.94,0-49.71.18-74.31.17-58.49.34-116.29-.52-174.09-.69-48.17-17-92.9-56.25-125.07-24.09-19.61-60.73-28.21-95.82-28-35.27.17-71.91,9.12-96.34,27.7l-25.29,18.41V449.79M577.61,818.62l-.51-73.29c-.35-46.27-.52-92.55-1.21-138.82m1.72,212.11-1.72-212.11m0,0c-.51-28.9-7-49-18.58-62.79-11.35-13.59-28.9-22.19-54.53-25.29-40.43-4.82-82.92,25.29-94.27,70.87a173.23,173.23,0,0,0-4.65,39.92c-.51,50.92-.34,101.66-.34,153.27v66.75H312.17V449.79h90.15v33.72m25.28-18.58c-9.46,7.22-17,12.73-25.28,18.41Z" transform="translate(0 0)"/></g></g></svg>