<svg width="101" height="24" viewBox="0 0 101 24" fill="none" xmlns="http://www.w3.org/2000/svg">
<g clip-path="url(#clip0_34639_2331)">
<path d="M100.723 0.430176H0.714844V23.4302H100.723V0.430176Z" fill="#B60017"/>
<path d="M11.2966 8.36713C11.2966 6.32112 11.473 6.25056 12.4254 6.14474L12.7782 6.07418C12.9193 5.96835 12.884 5.58032 12.7429 5.50977C11.9669 5.54504 11.0497 5.58032 10.1325 5.58032C9.21532 5.58032 8.29814 5.54504 7.45152 5.50977C7.27514 5.58032 7.27514 5.93308 7.41624 6.07418L7.80428 6.14474C8.75673 6.25056 8.93311 6.32112 8.93311 8.36713V15.5634C8.93311 17.6095 8.75673 17.68 7.80428 17.8211L7.52207 17.8564C7.38096 17.9622 7.41624 18.3503 7.55734 18.4208C8.29814 18.3855 9.2506 18.3503 10.1325 18.3503C11.0144 18.3503 11.9316 18.3855 12.884 18.4208C13.0604 18.3503 13.0604 17.9622 12.9193 17.8564L12.4254 17.7858C11.473 17.68 11.2966 17.6095 11.2966 15.5634V13.0941C11.2966 12.5297 11.2613 12.0711 11.7552 12.0711C11.9316 12.0711 12.108 12.2122 12.2491 12.3533C12.9899 13.0941 15.4239 16.2337 16.2705 17.2214C16.4822 17.5036 16.4469 17.68 16.1294 17.7506L15.565 17.8211C15.3886 17.9269 15.3886 18.315 15.6003 18.3855C16.4822 18.3503 17.3994 18.315 18.3871 18.315C19.4454 18.315 20.2567 18.3503 20.9975 18.3855C21.1739 18.315 21.1739 17.9269 21.0328 17.8211L20.5389 17.7506C19.9392 17.68 19.4807 17.5036 19.0221 17.0098C17.5758 15.3871 15.6356 13.0941 14.0481 11.0834C13.8365 10.8012 13.8718 10.6953 14.1187 10.4484C14.8948 9.70762 15.7061 8.89627 16.588 8.08492C17.9991 6.7797 18.5282 6.32112 20.4331 6.07418C20.6448 5.96835 20.6095 5.58032 20.3626 5.50977C19.6218 5.54504 18.9868 5.58032 18.1402 5.58032C17.3994 5.58032 16.7291 5.54504 15.8825 5.50977C15.7061 5.65087 15.6708 5.93308 15.8472 6.07418L16.4822 6.25056C16.7291 6.32112 16.6938 6.46222 16.3411 6.92081C16.0942 7.23829 15.4945 7.87326 15.2475 8.1202L13.1662 10.2368C12.496 10.9423 12.0374 11.3656 11.6494 11.3656C11.3319 11.3656 11.2966 11.0128 11.2966 10.4837V8.36713ZM25.2307 13.2705C25.2307 15.2107 25.654 16.5865 26.5711 17.3978C27.4883 18.2444 28.8288 18.6325 30.7337 18.6325C32.1448 18.6325 33.6616 18.2797 34.7199 17.1861C35.7782 16.0926 36.0604 14.4699 36.0604 12.7414V10.4484C36.0604 8.93155 36.0604 7.23829 36.3426 6.6386C36.4837 6.32112 36.8365 6.25056 37.2245 6.18001L37.6831 6.07418C37.8595 5.93308 37.7889 5.61559 37.6478 5.54504C36.907 5.58032 36.3426 5.61559 35.496 5.61559C34.7199 5.61559 33.9438 5.58032 33.2383 5.54504C33.0267 5.61559 33.0267 5.93308 33.2031 6.07418L33.5911 6.14474C34.085 6.21529 34.4377 6.35639 34.6141 6.6386C34.9669 7.20302 35.0021 9.0021 35.0021 10.4484V12.8472C35.0021 15.7751 33.9086 17.68 31.2629 17.68C28.4408 17.68 27.5942 15.4223 27.5942 12.7766V8.36713C27.5942 6.32112 27.7705 6.25056 28.723 6.14474L29.1816 6.07418C29.3227 5.93308 29.2874 5.61559 29.1463 5.54504C28.2644 5.58032 27.3472 5.61559 26.43 5.61559C25.5481 5.61559 24.631 5.58032 23.8196 5.54504C23.6432 5.61559 23.6432 5.93308 23.7843 6.07418L24.1371 6.14474C25.0896 6.28584 25.2659 6.32112 25.2659 8.36713V13.2705H25.2307ZM42.5865 15.5634C42.5865 17.6095 42.4101 17.68 41.4577 17.7858L40.9991 17.8564C40.8227 17.9975 40.8932 18.3503 41.0343 18.4208C41.9515 18.3855 42.8687 18.3503 43.7859 18.3503C44.6678 18.3503 45.585 18.3855 46.4669 18.4208C46.6432 18.3503 46.6432 17.9975 46.5021 17.8564L46.0435 17.7858C45.0911 17.68 44.9147 17.6095 44.9147 15.5634V13.0941C44.9147 12.6708 44.95 12.6708 45.5497 12.6708C46.2199 12.6708 46.4316 12.7414 46.8196 13.3411C47.3135 14.0819 47.8779 15.1401 48.407 15.9515C49.6417 17.7506 50.7 18.4914 52.6402 18.4914C53.3457 18.4914 53.7337 18.4208 53.9807 18.3855C54.0512 18.2797 54.0512 18.068 53.9454 17.9975C53.6984 17.9622 53.0988 17.8564 52.5343 17.3978C51.5819 16.657 50.5589 14.999 48.9362 12.3886C48.8656 12.2828 48.8304 12.1064 48.9362 12.0711C49.9239 11.6831 51.3702 10.8012 51.3702 9.0021C51.3702 7.62633 50.6294 6.70915 49.5712 6.18001C48.6893 5.72142 47.3135 5.50977 45.7261 5.50977C44.0681 5.50977 42.3396 5.58032 41.0696 5.68615C40.8932 5.79197 40.8932 6.07418 41.0343 6.21529L41.5635 6.28584C42.5159 6.39167 42.5512 6.60332 42.5512 8.47296V15.5634H42.5865ZM44.9147 7.23829C44.9147 6.35639 44.95 6.28584 45.973 6.28584C47.7368 6.28584 48.7598 7.62633 48.7598 9.1432C48.7598 10.9776 47.8426 11.8947 45.8672 11.8947C44.8794 11.8947 44.8794 11.8595 44.8794 11.2245V7.23829H44.9147ZM61.177 8.36713C61.177 6.32112 61.3534 6.25056 62.3058 6.14474L62.7644 6.07418C62.9055 5.93308 62.8702 5.58032 62.7291 5.50977C61.8472 5.54504 60.93 5.58032 60.0481 5.58032C59.131 5.58032 58.2138 5.54504 57.2966 5.50977C57.1202 5.58032 57.1202 5.93308 57.2613 6.07418L57.7199 6.14474C58.6724 6.25056 58.8488 6.32112 58.8488 8.36713V15.5634C58.8488 17.6095 58.6724 17.68 57.7199 17.7858L57.2613 17.8564C57.1202 17.9975 57.1555 18.3503 57.2966 18.4208C58.1785 18.3855 59.131 18.3503 60.0481 18.3503C60.93 18.3503 61.8472 18.3855 62.7291 18.4208C62.9055 18.3503 62.9055 17.9975 62.7644 17.8564L62.3058 17.7858C61.3534 17.68 61.177 17.6095 61.177 15.5634V8.36713ZM68.9377 15.5634C68.9377 17.6095 68.7613 17.68 67.8089 17.7506L67.0681 17.8211C66.927 17.9622 66.9623 18.315 67.1034 18.3855C68.0205 18.3503 69.2552 18.315 70.1371 18.315H72.4653C74.8288 18.315 76.5926 18.3503 77.4745 18.3855C77.7567 17.8564 78.2153 16.4101 78.3212 15.5987C78.2153 15.4223 77.8626 15.3518 77.6862 15.4929C76.9807 17.045 76.5221 17.6095 73.9469 17.5742C72.2537 17.5742 71.9009 17.4331 71.654 17.1509C71.3365 16.8334 71.3012 16.1279 71.3012 15.1401V12.6708C71.3012 12.1769 71.3365 12.1417 71.7951 12.1417H72.7828C74.5466 12.1417 74.8994 12.1769 75.0405 12.9883L75.1816 13.7644C75.358 13.8702 75.746 13.8702 75.8166 13.7291C75.7813 13.0941 75.746 12.4239 75.746 11.7184C75.746 11.0128 75.7813 10.3073 75.8166 9.77817C75.7107 9.63707 75.3227 9.63707 75.1816 9.74289L75.0405 10.4131C74.8994 11.2598 74.5466 11.2598 72.7828 11.2598H71.7951C71.3365 11.2598 71.3012 11.2245 71.3012 10.7306V7.44995C71.3012 6.35639 71.3012 6.32112 72.1831 6.32112H73.5589C74.088 6.32112 74.723 6.35639 75.1816 6.4975C75.8166 6.6386 76.134 7.13247 76.4515 8.2613C76.6279 8.36713 77.0159 8.33185 77.0865 8.19075C76.9807 7.34412 76.8396 5.82725 76.769 5.50977C76.5221 5.54504 75.3227 5.58032 74.0175 5.58032H70.1371C69.2552 5.58032 68.3027 5.54504 67.5267 5.50977C67.3503 5.58032 67.3503 5.93308 67.4914 6.07418L67.8089 6.10946C68.7613 6.25056 68.9377 6.28584 68.9377 8.33185V15.5634ZM83.6478 15.5634C83.6478 17.6095 83.4715 17.68 82.519 17.7858L82.0604 17.8564C81.884 17.9975 81.9546 18.3503 82.0957 18.4208C83.0129 18.3855 83.93 18.3503 84.8472 18.3503C85.7291 18.3503 86.6463 18.3855 87.5282 18.4208C87.7046 18.3503 87.7046 17.9975 87.5635 17.8564L87.1049 17.7858C86.1524 17.68 85.9761 17.6095 85.9761 15.5634V13.0941C85.9761 12.6708 86.0113 12.6708 86.611 12.6708C87.2813 12.6708 87.4929 12.7414 87.881 13.3411C88.3748 14.0819 88.9393 15.1401 89.4684 15.9515C90.7031 17.7506 91.7613 18.4914 93.7015 18.4914C94.407 18.4914 94.7951 18.4208 95.042 18.3855C95.1126 18.2797 95.1126 18.068 95.0067 17.9975C94.7598 17.9622 94.1601 17.8564 93.5957 17.3978C92.6432 16.657 91.6202 14.999 89.9975 12.3886C89.927 12.2828 89.8917 12.1064 89.9975 12.0711C90.9853 11.6831 92.4316 10.8012 92.4316 9.0021C92.4316 7.62633 91.6908 6.70915 90.6325 6.18001C89.7506 5.72142 88.3748 5.50977 86.7874 5.50977C85.1294 5.50977 83.4009 5.58032 82.131 5.68615C81.9546 5.79197 81.9546 6.07418 82.0957 6.21529L82.6248 6.28584C83.5773 6.39167 83.6126 6.60332 83.6126 8.47296V15.5634H83.6478ZM86.0113 7.23829C86.0113 6.35639 86.0466 6.28584 87.0696 6.28584C88.8334 6.28584 89.8564 7.62633 89.8564 9.1432C89.8564 10.9776 88.9393 11.8947 86.9638 11.8947C85.9761 11.8947 85.9761 11.8595 85.9761 11.2245V7.23829H86.0113Z" fill="white"/>
</g>
<defs>
<clipPath id="clip0_34639_2331">
<rect width="100.008" height="23" fill="white" transform="translate(0.714844 0.430176)"/>
</clipPath>
</defs>
</svg>
