<svg width="117" height="18" viewBox="0 0 117 18" fill="none" xmlns="http://www.w3.org/2000/svg">
<path d="M0.675781 13.0626L3.88375 11.8278C4.5507 13.4324 5.6099 14.3952 7.85772 14.3952C9.48482 14.3952 10.5216 13.7296 10.5216 12.6426C10.5216 11.1384 8.72014 10.7924 6.72061 10.2984C4.17959 9.68297 1.26877 8.81924 1.26877 5.1926C1.26877 2.40329 3.6632 0.430176 7.63453 0.430176C11.1132 0.430176 13.1379 1.95955 14.0742 4.47679L10.6457 5.51221C10.1755 4.15454 9.08994 3.53909 7.58566 3.53909C6.22799 3.53909 5.31539 4.10567 5.31539 5.06846C5.31539 6.52387 6.92003 6.79461 9.18899 7.33874C11.9281 7.97927 14.4929 8.99094 14.4929 12.4221C14.4929 15.3329 12.3468 17.4302 7.93036 17.4302C3.56282 17.4302 1.63857 15.5561 0.675781 13.0626ZM16.0962 13.4588V7.5342H14.6659V4.94564H16.1213L16.3683 1.19486H19.8232V4.94564H22.3392V7.5342H19.8232V12.8394C19.8232 13.8036 20.2181 14.3464 21.1307 14.4692C21.5996 14.5194 22.0671 14.5194 22.5874 14.4692V17.2083C21.9945 17.2823 21.1307 17.3562 20.366 17.3562C17.5781 17.3562 16.0962 16.0474 16.0962 13.4588ZM23.1672 13.9739C23.1672 11.2625 25.6105 9.90353 29.8777 9.48487C30.3479 9.43468 30.8418 9.38582 31.3595 9.36072C31.3595 9.2379 31.3344 8.86811 31.3344 8.77037C31.2605 7.80759 30.6939 7.21459 29.36 7.21459C27.9297 7.21459 27.2376 7.70853 26.9933 8.74527L23.4882 8.42435C24.0812 5.98106 26.1269 4.72244 29.7311 4.72244C33.8503 4.72244 35.0363 6.5001 35.0363 9.14017V14.7901C35.0363 15.5046 35.0852 16.7144 35.3084 17.1832H31.6553C31.5074 16.9362 31.4586 16.2931 31.4586 15.605C30.3967 16.6879 29.113 17.3311 26.9431 17.3311C24.6728 17.3311 23.1672 16.0474 23.1672 13.9739ZM31.3595 13.4324V11.285C30.8907 11.3114 30.4456 11.3616 30.0507 11.4355C28.1753 11.7565 27.1148 12.471 27.1148 13.6305C27.1148 14.5418 27.7078 14.9618 28.6679 14.9618C29.9279 14.9618 30.8418 14.2222 31.3595 13.4324ZM36.3834 4.94564H40.0365V7.51043C40.6031 6.05502 42.0585 4.72244 43.8586 4.72244C44.231 4.72244 44.5506 4.74885 44.7487 4.79772V7.88155C44.5018 7.83268 43.9576 7.80758 43.638 7.80758C42.1826 7.80758 40.9478 8.54717 40.2584 9.85466V17.1832H36.3834V4.94564ZM45.9981 3.83493H41.7296V0.726014H54.1164V3.83493H49.8968V17.1832H45.9981V3.83493ZM51.5305 4.94564H55.1822V7.51043C55.7488 6.05502 57.2055 4.72244 59.0056 4.72244C59.3754 4.72244 59.6977 4.74885 59.8945 4.79772V7.88155C59.6462 7.83268 59.1034 7.80758 58.7838 7.80758C57.3284 7.80758 56.0935 8.54717 55.4028 9.85466V17.1832H51.5305V4.94564ZM61.1901 0.726014H65.0888V3.95775H61.1901V0.726014ZM61.2152 4.94564H65.065V17.1845H61.2152V4.94564ZM69.348 15.3805L68.8052 17.1832H66.4874V0.726014H70.2606V6.8197C70.9527 5.75919 72.0871 4.72244 73.9876 4.72244C76.8007 4.72244 78.3301 6.86989 78.3301 11.0406C78.3301 15.2339 76.3068 17.3562 73.3946 17.3562C71.3964 17.3562 70.287 16.6153 69.348 15.3805ZM74.3812 11.1635C74.3812 8.57227 73.8384 7.33874 72.3579 7.33874C71.2472 7.33874 70.5564 7.97927 70.287 9.16394V12.3732C70.287 14.1483 71.0504 15.284 72.3354 15.284C73.8384 15.284 74.3812 13.925 74.3812 11.1635ZM79.4553 13.4813V4.94564H83.3051V13.2858C83.3051 14.4441 83.7978 14.8892 84.8107 14.8892C85.7233 14.8892 86.389 14.2711 86.7838 13.4588V4.94564H90.6337V17.1832H86.9318L86.9569 15.432C86.1195 16.7395 84.7843 17.3813 83.0331 17.3813C80.9358 17.3813 79.4553 16.1953 79.4553 13.4813ZM92.1181 4.94564H95.795V6.96894C96.5108 5.95729 97.669 4.72244 99.7425 4.72244C102.26 4.72244 103.271 6.22803 103.271 8.57227V17.1832H99.4454V8.6951C99.4454 7.93041 99.0518 7.36251 98.1154 7.36251C97.1038 7.36251 96.4368 8.05456 95.9429 8.79547V17.1832H92.1181V4.94564ZM104.349 11.2361C104.349 7.28855 107.26 4.72244 110.663 4.72244C114.489 4.72244 116.733 7.23969 116.832 11.0406C116.832 11.3114 116.832 11.5082 116.809 11.7789H108.343C108.392 13.9739 109.53 14.9367 111.033 14.9367C112.268 14.9367 113.058 14.3199 113.504 13.1128L116.684 13.5302C115.87 15.8493 113.846 17.3813 110.688 17.3813C107.013 17.3813 104.349 14.9618 104.349 11.2361ZM112.982 9.7807C112.86 8.12851 112.144 7.11686 110.712 7.11686C109.481 7.11686 108.493 8.10342 108.392 9.7807H112.982Z" fill="#231F20"/>
</svg>
