<svg width="119" height="29" viewBox="0 0 119 29" fill="none" xmlns="http://www.w3.org/2000/svg">
<path d="M97.8618 21.6572C96.9181 21.6572 95.4448 20.8178 94.8848 19.6963C94.3552 18.6735 94.2226 18.1116 94.2226 15.8144L94.2214 15.3847C94.218 14.511 94.2125 13.6081 94.3548 12.6304C94.8236 9.50827 97.1184 8.82407 97.9621 8.82407C100.45 8.82407 101.332 10.5357 101.332 15.3626C101.332 21.6572 99.4873 21.6572 97.8621 21.6572H97.8618ZM98.2325 7.77904C96.5503 7.77904 95.0518 8.73997 94.1548 10.3308V8.02902C94.1629 7.80121 94.0148 7.78974 93.9148 7.80579C93.8985 7.80874 93.8844 7.81269 93.8688 7.81652C93.8466 7.82265 93.831 7.82801 93.831 7.82801L93.8287 7.82388C93.2369 7.95155 92.6776 8.03028 92.1273 8.05857C91.4865 8.12737 90.5628 8.13502 90.5628 8.13502L90.4732 8.13031C90.074 8.16931 89.8932 8.27555 89.9347 8.55841C89.9666 8.7694 90.2436 8.84738 90.4147 8.89248C90.7414 8.95899 90.7903 8.97734 91.1503 9.09201C91.2517 9.11723 91.3873 9.13938 91.3873 9.39627L91.3901 9.31523C91.3901 10.6569 91.3835 26.3514 91.3896 27.4194C91.3955 28.4873 91.4288 28.4277 92.4562 28.4277L94.3903 28.4301H94.4532C95.3606 28.4301 95.7777 28.4186 95.7206 28.0211C95.688 27.8063 95.374 27.7451 95.2332 27.7031C94.5577 27.5081 94.231 26.8683 94.2073 26.087C94.2073 26.087 94.2192 21.9237 94.2251 20.3527C95.1228 21.8243 96.3843 22.5612 98.0976 22.5612C102.323 22.5612 104.602 18.9071 104.602 15.467C104.602 9.82596 100.792 7.77872 98.2324 7.77872L98.2325 7.77904ZM53.335 17.1622H53.3476L53.3343 17.1651C53.335 17.1645 53.335 17.1628 53.335 17.1622H53.335ZM63.0297 17.6927C63.0297 15.3496 61.9904 14.1708 59.4445 13.6242C54.3268 12.5555 54.1002 12.0571 54.1002 11.1191C54.1002 10.8882 54.2365 10.0909 54.8453 9.47851C55.3935 8.92657 56.1727 8.66053 57.1638 8.68499C59.4312 8.80196 60.3601 10.6352 60.7401 12.1534C60.7401 12.1534 60.7497 12.1817 60.7593 12.2321C60.8586 12.7818 61.683 12.8208 61.683 12.2321V8.29206L61.6763 8.29088C61.6718 8.04243 61.5675 7.91017 61.3519 7.88265C61.3356 7.88147 61.32 7.88501 61.3045 7.88678C61.3017 7.88619 61.3 7.88442 61.2956 7.88265C61.0645 7.85591 60.9082 8.18156 60.8245 8.32528C60.6749 8.55768 60.4371 8.92615 60.3741 9.02477C59.3571 8.20373 58.3134 7.77869 57.2683 7.77869C53.5965 7.77869 52.6157 10.5346 52.6157 12.1629C52.6157 15.113 54.4283 15.5587 56.5253 16.0739L56.872 16.1596C59.4638 16.8361 61.446 17.4576 61.446 18.7717C61.446 19.4086 61.209 19.9712 60.8371 20.4276L60.836 20.427L60.7782 20.4927C60.1397 21.1991 59.1641 21.6402 58.233 21.6402C55.9049 21.6402 54.0946 19.9905 53.3894 17.2308L53.3701 17.1551L53.3662 17.1557C53.3232 16.9936 53.255 16.6427 53.0276 16.6075C52.9721 16.5976 52.9328 16.6014 52.901 16.6111C52.6906 16.6172 52.6069 16.7945 52.5713 17.1622H52.5736C52.5484 17.3243 52.5588 17.387 52.5588 17.387V21.8874L52.5601 21.888C52.552 22.2848 52.6357 22.4698 52.9223 22.4782C53.0927 22.4835 53.2505 22.2259 53.3334 22.057C53.4364 21.8842 53.9571 21.0051 54.0483 20.8514C55.0349 21.914 56.503 22.5546 58.0215 22.5546C59.4408 22.5546 60.7326 22.07 61.6578 21.1893L61.7282 21.1075L61.7259 21.1069C62.5481 20.2553 63.0296 19.078 63.0296 17.6928L63.0297 17.6927ZM85.3257 17.9711C85.3257 19.3005 84.9265 19.7011 84.6643 19.9656L84.6139 20.0175C83.8243 20.7292 83.1391 20.9968 82.091 20.9968C80.5755 20.9968 79.5969 19.9587 79.5969 18.354C79.5969 16.1042 81.528 14.9269 85.3258 14.8467L85.3257 17.9711ZM90.6249 19.4541C90.5857 19.052 90.4761 18.9152 90.2035 18.9572C89.9746 18.9947 89.9027 19.3509 89.8583 19.513H89.8611L89.8434 19.5749C89.5612 20.5794 89.2071 21.0664 88.7619 21.0664C88.1849 21.0664 88.1553 20.6819 88.1553 19.5711V11.2934C88.1553 9.8937 88.1553 7.77841 83.4716 7.77841C79.4687 7.77841 77.9769 9.8914 77.9769 11.2223C77.9769 12.301 78.5724 12.9974 79.4946 12.9974C80.3827 12.9974 80.979 12.3683 80.979 11.4318C80.979 10.6085 80.4805 10.2438 80.182 10.0259C80.0968 9.96327 79.9679 9.86923 79.9679 9.83177C79.9679 8.95722 82.1909 8.68584 82.9998 8.68584C83.699 8.68584 85.3257 8.88154 85.3257 10.701V13.9056C80.0524 13.9308 76.9687 15.7985 76.8658 19.0459C76.8658 21.3149 78.3028 22.5617 80.9116 22.5617C82.7375 22.5617 84.3227 21.8316 85.4145 20.5282C85.7116 21.8293 86.4908 22.5617 87.6508 22.5617C89.2367 22.5617 90.5108 21.2935 90.6152 19.6124L90.6227 19.5008L90.6249 19.4541ZM109.01 10.8033C109.103 10.4708 110.029 8.68576 111.914 8.68576C113.282 8.68576 114.913 9.24 114.913 11.8843V12.9614H108.689C108.73 12.08 108.836 11.3484 109.01 10.8033ZM118.19 17.4183H118.193C118.207 17.0131 118.075 16.8029 117.759 16.822C117.724 16.8244 117.693 16.8312 117.662 16.8457C117.429 16.903 117.331 17.2654 117.272 17.4343H117.274C117.258 17.4894 117.243 17.5421 117.232 17.5872H117.223L117.206 17.6706C116.728 19.9984 114.424 21.6221 112.655 21.6221C109.302 21.6221 108.645 19.3784 108.645 15.5018V14.1807H117.357C117.755 14.1807 118.272 14.2901 118.123 13.1648C117.698 9.954 115.311 7.77832 112.015 7.77832C107.795 7.77832 105.273 11.8285 105.273 15.7441C105.273 19.8225 108.81 22.5616 112.115 22.5616C115.306 22.5616 117.505 20.7957 118.146 17.7149L118.172 17.5872H118.169C118.183 17.5253 118.19 17.468 118.19 17.4183L118.19 17.4183ZM76.4622 17.3982H76.4645C76.4786 17.0053 76.3512 16.8027 76.0452 16.8218C76.0112 16.823 75.9801 16.8318 75.9512 16.8448C75.7252 16.899 75.6312 17.2499 75.5734 17.4143H75.5757C75.5527 17.4861 75.5364 17.5549 75.5223 17.6069H75.5195L75.4958 17.6788C74.6973 20.1511 72.8699 21.7442 70.947 21.641C69.3337 21.5447 68.2522 20.898 67.7315 19.7192C67.7041 19.6534 67.0337 18.0052 67.0337 15.5895C67.0337 10.5708 68.1107 8.70316 71.0099 8.70316C71.8358 8.70316 73.7729 9.1175 73.7729 9.92019C73.7729 10.0028 73.6521 10.1029 73.5114 10.2183C73.1855 10.489 72.6944 10.8964 72.6944 11.8337C72.6944 12.8565 73.3869 13.5721 74.3788 13.5721C75.4299 13.5721 75.9965 12.5691 75.9965 11.625C75.9965 8.81707 72.7729 7.79879 70.6062 7.79879C68.83 7.79879 63.7626 9.22911 63.7626 15.5895C63.7626 17.5343 65.0033 22.5806 70.6714 22.5806C74.4492 22.4307 75.7143 19.9179 76.3958 17.7445L76.4395 17.6069H76.4328C76.4513 17.529 76.4624 17.4594 76.4624 17.3982" fill="#333132"/>
<path d="M32.7369 8.86215C33.5191 8.86215 33.9695 9.38964 33.9695 10.1939C33.9695 13.5728 30.3347 15.0597 27.5703 15.247C28.0532 13.2013 30.4258 8.86215 32.7369 8.86215ZM37.5398 13.6967C37.1539 14.7004 36.3798 16.1689 35.7717 16.9862C35.6331 17.1735 32.7198 20.8246 29.6421 20.8246C28.231 20.8246 27.1814 19.9882 27.1814 18.4387C27.1814 17.6314 27.2384 16.9334 27.4177 16.1261C30.6317 15.8158 36.3724 14.2853 36.3724 10.0708C36.3724 8.36678 34.7813 7.86987 33.428 7.86987C29.0732 7.86987 24.7785 13.3549 24.7785 18.3148C24.7785 20.3911 25.7088 22.498 28.4732 22.498C32.7547 22.498 35.4235 18.9417 36.3183 17.5962C36.5087 17.3088 36.842 16.6964 37.0161 16.3616L37.5398 13.6967ZM45.4209 20.7536C44.9861 21.1328 43.9928 21.6702 43.1521 21.6702C40.5469 21.6702 39.8329 20.152 39.8329 14.608C39.8329 11.7337 40.0766 8.66508 42.9825 8.66508C44.9024 8.66508 46.2846 9.92874 46.8735 12.2244C47.098 13.0019 47.115 14.7808 47.115 15.3083C47.115 18.8891 46.7009 19.571 45.4209 20.7536ZM52.0305 21.8177C52.0053 21.6473 51.7727 21.5777 51.6046 21.5265L51.5016 21.4944C51.0083 21.3147 50.5572 20.6733 50.3757 20.2582C50.309 20.0663 50.2794 19.785 50.2653 19.584C50.252 19.0213 50.2216 17.6881 50.1846 15.9917L50.1757 2.15715C50.1727 2.15715 50.1757 1.93393 50.1757 1.93164C50.1757 0.904192 50.2742 0.957705 49.0231 0.917189L46.8743 0.914244H46.8106C45.8995 0.914244 45.478 0.926497 45.538 1.32706C45.5706 1.54263 45.8846 1.60456 46.0261 1.64584C46.7054 1.84231 47.0343 2.48523 47.0565 3.27034L47.0469 10.1429H46.9787C46.0617 8.30207 44.0076 7.85944 42.9247 7.85944C38.8907 7.85944 36.6226 11.2162 36.6226 15.1318C36.6226 15.4942 36.644 15.8512 36.6914 16.2006C36.764 16.7349 36.9833 17.6546 36.9714 17.6125C37.7944 20.4556 39.9055 22.5189 42.5832 22.5089C44.1521 22.5036 46.1358 21.7949 47.0091 20.2499H47.0787C47.0787 20.2499 47.1387 20.571 47.1387 21.2751C47.1387 22.2422 47.0691 22.2299 48.1091 22.2299H50.232V22.2276L50.6194 22.2287C51.3713 22.2287 51.8387 22.2203 51.9853 22.0453C52.0194 22.0047 52.0364 21.9535 52.0364 21.887C52.0364 21.8656 52.0342 21.8427 52.0305 21.8175L52.0305 21.8177ZM24.3416 21.4545C23.7238 21.2313 23.2527 20.4783 23.2401 20.0938C23.2275 19.707 22.849 2.60969 22.849 2.60969C22.832 1.72443 22.8712 1.08075 22.6416 0.992839C22.3646 0.885051 21.1935 0.91028 20.8838 0.91028C20.1364 0.91028 19.5824 0.888893 19.4483 1.05247C19.3039 1.22448 19.0335 1.83834 18.7283 2.66702L17.2128 6.14994C16.8209 6.93811 16.1521 8.28052 15.7587 9.06639L13.4595 13.6654C13.0647 14.4528 12.4091 14.4605 11.9973 13.683L9.59584 9.13538C9.18473 8.35944 8.51289 7.08584 8.10252 6.30837L6.41736 2.63587C6.07662 1.82324 5.91292 1.19255 5.74626 1.04042C5.60404 0.908934 5.0033 0.908935 4.14628 0.914285H2.13075C1.12928 0.914285 0.678174 0.925008 0.743358 1.36226C0.777431 1.60154 1.12631 1.67034 1.28039 1.71392C1.90112 1.8951 2.12778 2.67638 2.12778 3.06397C2.12778 3.4485 2.11594 19.0253 2.04334 19.7072C2.03223 19.8219 2.01149 19.9396 1.98779 20.0612C1.97667 20.0665 1.96631 20.0772 1.96334 20.094C1.84483 20.7576 1.48483 21.2744 0.863359 21.4548C0.710026 21.4992 0.360401 21.5679 0.326328 21.8072C0.261144 22.2437 0.725581 22.259 1.72631 22.259L2.40334 22.2555C2.45815 22.2616 2.51593 22.2662 2.57815 22.2662C2.57815 22.2662 2.58335 22.2615 2.59297 22.2555H3.38481L5.04257 22.259C6.0433 22.259 6.50922 22.2437 6.44478 21.8072C6.40922 21.5679 6.06108 21.4991 5.90774 21.4548C5.28627 21.2744 5.03294 20.8707 4.80554 20.094C4.80479 20.0911 4.80331 20.0871 4.80331 20.0818C4.69442 19.5811 4.64257 18.9022 4.64257 18.9022C4.60998 18.0162 4.58924 16.5675 4.59887 15.683L4.60035 15.4094C4.60998 14.5241 4.63294 13.0754 4.65368 12.1902L4.73294 8.70038C4.7522 7.81589 5.10109 7.72874 5.50775 8.50773L7.73809 12.7842C8.14549 13.5647 10.2832 17.7387 10.6647 18.5284C10.9899 19.2004 11.0573 19.4534 12.0603 19.4672C13.1832 19.4817 13.1832 19.1591 13.6447 18.1377C13.9832 17.387 18.7668 7.67217 18.7668 7.67217C19.1565 6.88324 19.4942 6.96198 19.5165 7.84723C19.5165 7.84723 19.5772 19.6934 19.4972 20.2247C19.4839 20.3058 19.4728 20.3631 19.4661 20.4029C19.3017 20.9143 18.9661 21.3034 18.4461 21.4548C18.2913 21.4991 17.9454 21.5679 17.9083 21.8072C17.8454 22.2437 18.3083 22.259 19.3091 22.259L21.3935 22.2543L22.3261 22.2549L22.812 22.2602C22.8238 22.2602 22.8335 22.259 22.8453 22.2549L23.4764 22.2584C24.4816 22.2584 24.9423 22.2431 24.8786 21.8066C24.8431 21.5673 24.4927 21.5092 24.3416 21.4542" fill="#005B81"/>
</svg>
