<svg width="76" height="24" viewBox="0 0 76 24" fill="none" xmlns="http://www.w3.org/2000/svg">
<g clip-path="url(#clip0_34639_2392)">
<path d="M0.337891 0.640381V23.6373H15.6496V0.640381H0.337891ZM13.435 21.3221H2.54455V2.95714H13.435V21.3221Z" fill="#FBD42C"/>
<path d="M24.7745 8.6585H24.7531C23.5316 6.60059 22.2984 4.78281 21.0547 2.95294H20.1057V10.9573H21.1531V5.21669H21.1636C22.3971 7.28669 23.6296 9.11655 24.8737 10.9573H25.8227V2.95294H24.7745V8.6585ZM32.3352 10.9573L29.9021 2.95294H28.8117L26.1713 10.9573H27.3057L27.9716 8.77311H30.2729L30.8733 10.9573H32.3352ZM28.3093 7.78918C28.615 6.73703 28.9206 5.76674 29.1931 4.5302H29.2154C29.521 5.76635 29.7935 6.73703 30.0773 7.78918H28.3093ZM33.5676 10.9573H34.8769V4.02809H36.8846V2.95294H31.5607V4.02809H33.568V10.9573H33.5676ZM38.6077 2.95294H37.3097V10.9573H38.6077V2.95294ZM42.6453 11.0938C44.642 11.0938 45.8857 9.23038 45.8857 6.84033C45.8857 4.5992 44.5105 2.81494 42.6453 2.81494C40.7793 2.81494 39.4041 4.5992 39.4041 6.84033C39.4041 9.23077 40.6478 11.0938 42.6453 11.0938ZM42.6453 3.95909C43.9436 3.95909 44.4886 5.36521 44.4886 6.84072C44.4886 8.37276 44.0092 9.95079 42.6453 9.95079C41.2813 9.95079 40.8015 8.37315 40.8015 6.84072C40.8015 5.36521 41.3469 3.95909 42.6453 3.95909ZM47.7283 5.21669H47.7404C48.9728 7.28669 50.2052 9.11655 51.4493 10.9573H52.3983V2.95294H51.3509V8.6585H51.3291C50.1076 6.60059 48.8744 4.78281 47.6307 2.95294H46.6817V10.9573H47.7283V5.21669ZM54.5465 8.77311H56.8493L57.4493 10.9573H58.9108L56.4784 2.95294H55.3874L52.7465 10.9573H53.8825L54.5465 8.77311ZM55.7699 4.5302H55.7914C56.0963 5.76635 56.3691 6.73703 56.6537 7.78918H54.885C55.1914 6.73703 55.4959 5.76635 55.7699 4.5302ZM63.1764 9.88179H60.5914V2.95294H59.2926V10.9573H63.1768V9.88179H63.1764ZM23.7072 20.1121C23.434 20.261 23.14 20.307 22.791 20.307C21.6675 20.307 20.5764 19.1859 20.5764 17.2882C20.5764 15.4704 21.5254 14.3149 22.9221 14.3149C23.4242 14.3149 23.9695 14.5091 24.3185 14.7375L24.7436 13.7891C24.3076 13.4452 23.5983 13.1712 22.889 13.1712C20.5983 13.1712 19.1797 15.081 19.1797 17.2648C19.1797 19.6205 20.5983 21.4504 22.8449 21.4504C23.587 21.4504 24.3181 21.2457 25.0169 20.9584V17.6531H23.7072V20.1121ZM27.5141 17.6538H29.6529V16.5795H27.5141V14.3839H29.6966V13.3092H26.2056V21.3136H30.0894V20.2376H27.5141V17.6538ZM33.7335 13.1716C31.8675 13.1716 30.4934 14.9554 30.4934 17.197C30.4934 19.5866 31.7367 21.4508 33.7335 21.4508C35.7298 21.4508 36.9732 19.5866 36.9732 17.197C36.9732 14.9554 35.5987 13.1716 33.7335 13.1716ZM33.7335 20.307C32.3691 20.307 31.8894 18.729 31.8894 17.1966C31.8894 15.7211 32.4347 14.3146 33.7335 14.3146C35.0314 14.3146 35.5768 15.7207 35.5768 17.1966C35.5768 18.729 35.0974 20.307 33.7335 20.307ZM41.9484 20.1121C41.6759 20.261 41.3808 20.307 41.0318 20.307C39.908 20.307 38.8169 19.1859 38.8169 17.2882C38.8169 15.4704 39.7662 14.3149 41.1634 14.3149C41.665 14.3149 42.2107 14.5091 42.5586 14.7375L42.9845 13.7891C42.5484 13.4452 41.8387 13.1712 41.1291 13.1712C38.8391 13.1712 37.4209 15.081 37.4209 17.2648C37.4209 19.6205 38.8391 21.4504 41.0868 21.4504C41.8278 21.4504 42.5586 21.2457 43.2577 20.9584V17.6531H41.9484V20.1121ZM48.8654 15.6193C48.8654 14.0631 47.9593 13.3092 46.4982 13.3092H44.4577V21.3136H45.7666V18.2947H46.3557L47.5885 21.3136H49.0828L47.5455 17.9969C48.3845 17.5283 48.8654 16.5795 48.8654 15.6193ZM46.3124 17.2652C46.1808 17.2769 45.8748 17.2886 45.7662 17.2999V14.3843H46.3455C47.1189 14.3843 47.5549 14.8521 47.5549 15.6758C47.5549 16.7502 46.9342 17.2313 46.3124 17.2652ZM51.7455 13.3092L49.1047 21.3136H50.2387L50.9047 19.129H53.2067L53.8082 21.3136H55.269L52.8358 13.3092H51.7455ZM51.2439 18.1466C51.5492 17.0937 51.8544 16.1218 52.1273 14.8872H52.1495C52.4544 16.1218 52.7273 17.0937 53.0115 18.1466H51.2439ZM64.8483 16.3849H62.1313V13.3092H60.833V21.3136H62.1313V17.4593H64.8483V21.3136H66.1568V13.331H64.8483V16.3849ZM67.4111 21.3128H68.7091V13.3092H67.4111V21.3128ZM73.2916 20.307C72.0261 20.307 70.9564 19.1859 70.9564 17.2882C70.9564 15.4704 71.9284 14.3149 73.2588 14.3149C73.7608 14.3149 74.2847 14.5547 74.6013 14.7605L75.0155 13.7895C74.5681 13.469 73.9361 13.1716 73.2592 13.1716C70.9791 13.1716 69.5714 15.0814 69.5714 17.2652C69.5714 19.6209 70.99 21.4508 73.2381 21.4508C73.8705 21.4508 74.5685 21.1877 74.9612 20.9023L74.6017 19.9071C74.2632 20.1355 73.7936 20.307 73.2916 20.307ZM57.7233 13.3092H55.6843V21.3136H56.9936V18.2947H57.5819C59.143 18.2947 60.0912 16.9674 60.0912 15.6193C60.0909 14.0631 59.1863 13.3092 57.7233 13.3092ZM57.5382 17.2652C57.4075 17.2757 57.0916 17.2866 56.9933 17.2971V14.3839H57.5816C58.3459 14.3839 58.7823 14.8517 58.7823 15.6755C58.782 16.7502 58.1601 17.2313 57.5382 17.2652Z" fill="black"/>
</g>
<defs>
<clipPath id="clip0_34639_2392">
<rect width="75" height="23" fill="white" transform="translate(0.337891 0.640381)"/>
</clipPath>
</defs>
</svg>
