<svg width="72" height="24" viewBox="0 0 72 24" fill="none" xmlns="http://www.w3.org/2000/svg">
<g clip-path="url(#clip0_34639_2356)">
<path d="M24.2053 23.4302V0.430176H0.638672V23.4302H24.2053Z" fill="#D62021"/>
<path d="M47.8808 23.4302V0.430176H24.2031V23.4302H47.8808Z" fill="#000005"/>
<path d="M71.1718 23.4302V0.430176H47.8828V23.4302H71.1718Z" fill="#237BBD"/>
<path d="M14.8899 18.1649V11.1998C14.8899 10.1751 14.6956 9.42735 14.2931 8.94271C13.8906 8.45806 13.2521 8.2365 12.35 8.2365C11.8781 8.25035 11.434 8.37497 11.0176 8.58268C10.5874 8.77654 10.1988 9.08118 9.90729 9.45505V18.1787H7.08984V6.06251H9.13006L9.65747 7.19797C10.4208 6.31176 11.5589 5.86865 13.0717 5.86865C14.5151 5.86865 15.6532 6.29791 16.486 7.15643C17.3187 8.01495 17.7351 9.21965 17.7351 10.7567V18.1787L14.8899 18.1649Z" fill="white"/>
<path d="M35.8205 18.3997C37.6664 18.3997 39.1376 17.8597 40.2063 16.7935C41.275 15.7272 41.8162 14.2041 41.8162 12.2239C41.8162 7.97287 39.8871 5.85427 36.0148 5.85427C35.0433 5.82658 34.0995 6.1866 33.4055 6.86511V6.06198H30.5742V21.3768H33.3917V17.8735C34.155 18.2336 34.9878 18.4136 35.8205 18.3997ZM35.1959 8.26366C36.5006 8.26366 37.4305 8.55445 37.9995 9.13603C38.5685 9.7176 38.8461 10.7284 38.8461 12.1547C38.8461 13.4979 38.5547 14.4671 37.9995 15.0903C37.4305 15.7134 36.5006 16.018 35.1959 16.018C34.5436 16.0319 33.9052 15.8103 33.4055 15.3949V9.05294C33.8636 8.55445 34.5159 8.27751 35.1959 8.26366Z" fill="white"/>
<path d="M62.8562 8.70706C62.3565 8.38858 61.7875 8.22241 61.2045 8.23626C60.5522 8.23626 59.9693 8.52705 59.4697 9.12247C58.9561 9.73175 58.6786 10.5072 58.7063 11.2965V18.1646H55.875V6.06227H58.7063V7.22542C59.4974 6.32536 60.5384 5.86841 61.8569 5.86841C62.8145 5.86841 63.5501 6.02073 64.0636 6.31152L62.8562 8.70706Z" fill="white"/>
</g>
<defs>
<clipPath id="clip0_34639_2356">
<rect width="70.5333" height="23" fill="white" transform="translate(0.638672 0.430176)"/>
</clipPath>
</defs>
</svg>
