<svg width="202" height="28" viewBox="0 0 202 28" fill="none" xmlns="http://www.w3.org/2000/svg">
<g clip-path="url(#clip0_31179:1456)">
<path d="M11.8614 0.00165466C11.671 0.0106614 11.4861 0.0583021 11.3077 0.17053C12.0419 0.315112 12.9021 0.412289 13.3655 1.0712C13.5978 1.31414 13.5254 1.68745 13.2932 1.90077C12.8541 2.41628 12.1001 2.57805 11.4552 2.41332C9.26869 1.90491 7.20077 0.916546 4.95417 0.659381C3.75084 0.502949 2.57459 1.07298 1.7443 1.8978C0.977777 2.65508 0.699087 3.80462 0.850826 4.84276C1.02037 5.66403 1.6384 6.51729 2.53247 6.63817C2.00301 6.0717 1.90253 5.08807 2.45125 4.49908C2.76171 4.11985 3.31343 4.06771 3.7719 4.13763C5.51311 4.45642 7.2098 4.97253 8.9462 5.31976C9.91848 5.58048 10.8793 5.89156 11.8733 6.06933C11.8913 7.23902 11.8913 8.40752 11.8733 9.5772C11.2319 10.0489 10.6194 10.5567 9.99008 11.0438C10.6026 11.4953 11.2343 11.9184 11.8674 12.3414C11.9083 13.9958 11.8614 15.6497 11.8915 17.304C10.8554 18.0921 9.46724 18.2201 8.20627 18.0743C6.86685 18.001 5.67797 17.2151 4.80074 16.2611C6.27132 15.4884 7.77007 14.7596 9.27422 14.051C9.32705 11.4425 9.28373 8.83296 9.29817 6.22339C7.41857 6.99963 5.55823 7.81734 3.68466 8.60543C4.22615 7.24138 5.32768 6.13629 6.64183 5.47975C6.29876 5.49989 5.93897 5.47501 5.619 5.62196C3.15941 6.57833 1.1324 8.63387 0.369616 11.1415C-0.140593 12.7343 0.0236604 14.4757 0.57719 16.033C1.26309 17.7656 2.53199 19.2992 4.21424 20.1749C5.15897 20.656 6.17578 21.1068 7.25877 21.12C9.50057 21.3037 11.859 20.4707 13.3717 18.8091C14.0322 18.1111 14.365 17.201 14.6923 16.3204C14.9957 15.453 15.1327 14.5297 15.1014 13.6124C14.3758 15.0298 13.4108 16.3611 12.0931 17.301C12.1014 15.6526 12.0901 14.0047 12.096 12.3562C12.6689 11.9261 13.244 11.4965 13.7987 11.0438C13.2296 10.5472 12.664 10.0512 12.096 9.5535C12.0985 8.39448 12.0936 7.23309 12.096 6.07525C13.3776 6.00889 14.8522 5.34287 15.1976 4.01912C15.4383 3.15519 15.564 2.13186 15.0261 1.3497C14.5315 0.795074 13.8902 0.313334 13.1369 0.179419C12.7198 0.14351 12.28 -0.0180179 11.8614 0.00165466ZM5.86568 7.95066C5.86087 10.4631 5.88073 12.9755 5.85666 15.488C5.43068 15.6527 5.0118 15.8328 4.59317 16.0152C3.82063 14.9144 3.34051 13.6184 3.11909 12.3029C3.05893 11.1925 3.26831 10.0678 3.66059 9.02613C4.40184 8.6789 5.12684 8.30382 5.86568 7.95066ZM152.846 0.00165466C152.639 -0.00450782 152.438 0.0354298 152.247 0.17053C152.681 0.268893 153.138 0.310964 153.544 0.511244C153.905 0.681898 154.144 1.03506 154.269 1.40006C154.336 1.7947 154.043 2.15852 153.691 2.30666C153.061 2.59345 152.345 2.46072 151.703 2.28888C150.162 1.82433 148.662 1.22349 147.091 0.860847C146.283 0.691379 145.437 0.531391 144.621 0.742338C143.737 0.987652 142.839 1.4048 142.317 2.18222C141.643 3.03905 141.558 4.21762 141.887 5.22495C142.157 5.8969 142.706 6.55759 143.481 6.6441C143.228 6.32412 142.793 6.00119 142.919 5.54493C142.988 5.09222 143.179 4.633 143.547 4.33909C143.916 4.06534 144.42 4.06889 144.847 4.19096C146.414 4.47775 147.943 4.9109 149.492 5.27235C150.541 5.4916 151.549 5.87734 152.605 6.06933C152.623 7.23427 152.61 8.39922 152.614 9.56535C152.046 10.0595 151.479 10.5531 150.918 11.0556C151.483 11.4858 152.039 11.9266 152.611 12.3474C152.62 14.0054 152.608 15.6656 152.62 17.3247C151.626 18.0582 150.318 18.239 149.113 18.0742C147.781 17.996 146.616 17.2068 145.731 16.273C146.094 16.024 146.507 15.8641 146.899 15.6627C147.998 15.1294 149.084 14.5712 150.193 14.0569C150.228 11.4461 150.197 8.83415 150.208 6.22339C148.34 7.00674 146.487 7.82682 144.612 8.59358C145.041 7.59217 145.725 6.6761 146.646 6.0634C146.921 5.81572 147.2 5.55618 147.578 5.47086C147.2 5.49693 146.809 5.48449 146.465 5.65751C143.824 6.70987 141.571 9.0054 141.074 11.8259C140.885 13.2575 141.021 14.7442 141.529 16.1011C142.179 17.6939 143.326 19.1089 144.817 20.0119C145.53 20.4398 146.297 20.784 147.097 21.0221C149.013 21.3362 151.067 21.0648 152.744 20.0622C153.849 19.3025 154.876 18.3177 155.34 17.0402C155.837 15.9558 156.036 14.7713 156.062 13.5886C155.831 13.8861 155.695 14.2398 155.499 14.5574C154.862 15.6098 154.039 16.5632 153.035 17.292C153.047 15.6388 153.02 13.9856 153.05 12.3324C153.618 11.9283 154.151 11.478 154.723 11.0762C154.196 10.5382 153.598 10.0736 153.038 9.57116C153.027 8.41214 153.051 7.25193 153.026 6.09291C154.127 6.02299 155.241 5.53651 155.833 4.58488C156.449 3.60718 156.445 2.27514 155.851 1.29032C155.383 0.681187 154.647 0.288921 153.886 0.176337C153.545 0.14908 153.19 0.0120835 152.846 0.00165466ZM146.802 7.9477C146.817 10.4554 146.802 12.9624 146.808 15.4701C146.374 15.649 145.945 15.838 145.512 16.0182C144.883 15.1483 144.394 14.17 144.143 13.1295C143.865 11.7667 143.938 10.2894 144.582 9.03206C145.328 8.68127 146.063 8.31389 146.802 7.9477ZM57.3096 0.837145C58.0268 2.07438 57.578 3.75129 56.4986 4.64248C55.8356 5.06793 55.0727 5.30257 54.3254 5.54078C54.3422 10.6011 54.3279 15.6627 54.3302 20.723C54.3832 20.9541 54.1678 21.1353 53.9465 21.043C53.5095 21.0228 53.394 20.5689 53.2087 20.2632C50.5205 15.3948 47.8613 10.5099 45.1512 5.65218C45.0995 9.22523 45.15 12.8018 45.126 16.376C46.4063 16.6143 47.653 17.2222 48.4905 18.2248C48.8791 17.9285 49.1306 17.4071 49.6288 17.2874C49.5025 17.5138 49.3184 17.6997 49.1427 17.8894C48.174 18.9454 47.2077 20.006 46.2402 21.0643C45.7915 20.5073 45.1935 19.9788 44.4449 19.9029C43.9527 19.884 43.3837 19.9088 43.025 20.2916C42.6122 20.6543 42.3356 21.2658 42.6303 21.7837C42.9756 22.5267 43.8444 22.7282 44.5761 22.9059C43.6615 23.0837 42.6376 22.9794 41.9 22.3762C41.3128 21.882 40.7796 21.255 40.6269 20.4895C40.4211 19.4348 40.7412 18.2626 41.5414 17.5148C42.4163 16.6628 43.6989 16.3451 44.8999 16.4127C44.9324 14.8554 44.9179 13.2983 44.9071 11.7411C44.3235 11.6498 43.5281 11.7316 43.2561 12.3324C43.0985 12.8195 43.4692 13.2295 43.8361 13.4962C43.3813 13.418 42.8759 13.3326 42.5474 12.9854C42.1599 12.5149 41.8591 11.9591 41.7472 11.3595C41.6352 10.588 41.841 9.70863 42.4932 9.21208C43.1755 8.69182 44.084 8.62071 44.9167 8.63968V5.34749C44.6147 4.90071 44.3247 4.38875 43.8062 4.15766C43.4668 4.019 43.024 3.96923 42.7316 4.22995C42.3273 4.5677 42.2297 5.10455 42.0698 5.57503C41.9145 4.42667 42.0313 3.12426 42.8483 2.22358C43.835 0.965017 45.9228 0.918798 47.0022 2.08256C47.4691 2.55541 47.7892 3.13848 48.107 3.71325C50.1045 7.21638 52.0623 10.742 54.0803 14.2333C54.0923 11.3381 54.0983 8.4407 54.0779 5.5454C53.7312 5.41267 53.345 5.41622 52.9923 5.29534C52.3353 5.12469 51.7878 4.70754 51.3017 4.25602C50.9984 4.60681 50.6927 4.95641 50.41 5.3226C50.3438 5.28705 50.2127 5.21713 50.1466 5.18158C51.1815 3.89694 52.2908 2.67036 53.3679 1.41891C53.9323 2.00434 54.6688 2.48312 55.5086 2.53645C56.3855 2.43702 57.2483 1.74611 57.3096 0.837145ZM124.482 3.63989C125.926 2.71315 127.367 1.77811 128.816 0.858477C128.828 6.32649 128.805 11.7957 128.828 17.2637C129.141 17.6832 129.568 18.0281 129.947 18.3968C130.186 18.1455 130.433 17.905 130.679 17.662C130.737 17.7188 130.852 17.8327 130.911 17.8884C129.755 18.8754 128.635 19.9005 127.471 20.8772C126.738 20.1365 125.98 19.4219 125.253 18.6775C124.927 18.9631 124.629 19.2761 124.322 19.5807C124.259 19.5333 124.134 19.4372 124.072 19.3899C124.626 18.8673 125.221 18.3885 125.781 17.8706C125.777 13.7263 125.785 9.58206 125.777 5.43898C125.763 4.66381 125.362 3.73588 124.482 3.63989ZM16.6601 3.80106C17.9031 2.88854 19.1221 1.94284 20.3664 1.03387C20.3724 4.04638 20.3652 7.06007 20.37 10.0738C21.4229 9.21812 22.4841 8.37315 23.5262 7.50566C24.3625 8.36011 25.1434 9.26789 26.005 10.0951C26.3685 9.83792 26.7415 9.59379 27.1229 9.36389C27.0544 9.84148 26.4743 10.005 26.1735 10.338C26.1771 11.9853 26.1735 13.6314 26.1747 15.2787C26.1987 16.5101 26.0183 17.733 25.9811 18.9631C25.9244 20.2976 25.3987 21.6617 24.3421 22.5374C23.4828 23.2936 22.3085 23.566 21.1882 23.6573C21.169 23.6834 21.1281 23.7367 21.1076 23.7638L21.1377 23.6668C20.7514 23.6668 20.3664 23.6525 19.9813 23.6241C20.4651 23.3776 21.0125 23.22 21.394 22.8123C21.832 22.331 22.3422 21.8725 22.5576 21.2433C22.9102 20.2833 22.921 19.2487 22.9559 18.2414C22.9463 15.9838 22.9667 13.725 22.9451 11.4686C22.4349 10.8133 21.8236 10.2349 21.2821 9.60209C20.9861 9.91377 20.6312 10.1757 20.3772 10.5217C20.3567 12.8516 20.3748 15.1827 20.3688 17.5125C20.6757 17.8136 20.9813 18.117 21.2905 18.4156C21.5385 18.1703 21.7863 17.9238 22.0342 17.6773C22.0896 17.7306 22.199 17.8373 22.2544 17.8906C21.051 18.8174 19.8599 19.7584 18.6565 20.6839C17.8948 20.0179 17.1512 19.3329 16.4015 18.6538C16.15 18.8387 15.8985 19.0259 15.6458 19.2095C15.5918 19.1538 15.4858 19.0424 15.4318 18.9867C16.0094 18.6205 16.5761 18.2379 17.1477 17.8644C17.1465 13.7214 17.1465 9.57945 17.1477 5.43637C17.1355 5.11995 17.1513 4.77864 16.9816 4.49659C16.8696 4.28091 16.617 4.21217 16.428 4.08181C16.3858 3.94446 16.5855 3.88639 16.6601 3.80106ZM99.5387 1.60153C98.4075 2.50339 97.3017 3.43309 96.1814 4.34798C96.1693 3.48523 96.1964 2.62426 96.1663 1.76152C95.9932 1.75322 95.9168 1.83025 95.9407 1.99261C95.9347 8.0911 95.9426 14.189 95.9378 20.2875C95.3265 20.1724 94.714 20.0522 94.1088 19.9171C94.0991 14.7738 94.1082 9.6316 94.1058 4.48723C94.0926 3.83661 93.8783 3.18244 93.4439 2.68589C92.9024 2.05423 92.0559 1.76092 91.239 1.70523C90.2702 1.67797 89.3821 2.17926 88.7058 2.82514C88.0837 3.40702 87.7499 4.3065 87.9267 5.14199C88.0025 4.62411 88.174 4.04045 88.6577 3.75247C89.1884 3.52968 89.8953 3.70922 90.213 4.19985C90.485 4.59567 90.512 5.09044 90.5229 5.55381C90.5253 6.94393 90.5215 8.33404 90.5229 9.72534C89.5915 9.73956 88.4916 9.8877 87.9536 10.7386C87.4121 11.4046 87.2449 12.3491 87.6167 13.1325C87.861 13.9075 88.6792 14.307 89.4396 14.4302C89.0138 14.1589 88.5805 13.6813 88.8319 13.1503C89.1702 12.617 89.939 12.5387 90.5106 12.694C90.5334 15.1612 90.5226 17.6275 90.5166 20.0949C89.6622 20.3887 88.8307 20.899 88.3747 21.6918C88.0426 22.2571 88.0341 22.9332 88.0618 23.5672C88.1641 24.6788 88.909 25.6938 89.9089 26.2011C90.6646 26.5495 91.5154 26.5602 92.3336 26.5329C94.656 26.3967 96.8623 25.4888 99.1896 25.4131C99.8827 25.362 100.289 26.1165 100.107 26.7078C99.9687 27.2423 99.5139 27.6038 99.0843 27.9166C99.9013 27.746 100.715 27.4438 101.353 26.8973C102.072 26.2966 102.403 25.3277 102.357 24.4175C102.303 23.5169 101.566 22.8467 100.799 22.4592C99.7895 21.8761 98.5706 22.006 97.4599 22.1245C95.3733 22.3615 93.3397 23.0139 91.2327 23.0696C90.518 23.117 89.8508 22.6187 89.7075 21.9289C89.5462 21.2642 90.0944 20.6827 90.6491 20.3972C91.8499 19.839 93.232 20.0457 94.4847 20.3054C95.9371 20.4548 97.2999 21.0383 98.7535 21.1853C99.579 21.2777 100.456 21.1214 101.133 20.6284C101.831 20.2042 102.146 19.3774 102.165 18.599C102.173 13.7448 102.156 8.89115 102.174 4.03713C102.624 3.65198 103.12 3.30652 103.513 2.86093C102.964 2.99484 102.62 3.50147 102.171 3.81196C101.284 3.08527 100.416 2.33984 99.5387 1.60153ZM97.0777 4.05467C97.5831 4.4813 98.0807 4.91623 98.5849 5.34642C98.5861 6.87519 98.5813 8.40396 98.5849 9.93273C98.3454 10.165 98.0837 10.4103 97.7335 10.4542C97.1632 10.5727 96.6078 10.2948 96.1782 9.94754C96.1806 8.1628 96.1795 6.37864 96.1782 4.59389C96.4792 4.41612 96.7794 4.23836 97.0777 4.05467ZM96.1782 10.3712C96.9172 10.741 97.8678 10.853 98.5849 10.3742C98.5825 11.0675 98.5825 11.7637 98.5849 12.457C98.2937 12.1773 97.9196 11.9551 97.5019 11.9563C97.0111 11.9456 96.5598 12.1737 96.1782 12.457C96.1806 11.7625 96.177 11.0669 96.1782 10.3712ZM97.4959 12.1755C97.9724 12.1874 98.3382 12.5376 98.5849 12.9073C98.5814 14.8426 98.5862 16.779 98.5849 18.7143C98.6234 19.308 98.2084 19.8158 97.7547 20.1571C97.3167 20.4996 96.7223 20.5115 96.1904 20.483C96.1603 17.9552 96.1891 15.4234 96.1782 12.8955C96.5224 12.5269 96.958 12.1684 97.4959 12.1755ZM156.737 4.75625C157.516 4.08311 158.25 3.36021 159.047 2.70604C159.721 3.40643 160.431 4.07245 161.116 4.76217C160.294 5.51945 159.467 6.27079 158.634 7.01622C158.005 6.25894 157.358 5.51945 156.737 4.75625ZM66.7401 5.47678C67.2274 5.14733 67.8435 5.16747 68.4068 5.09637C67.982 5.42701 67.5104 5.81098 67.4525 6.38101C67.3574 6.8906 67.6848 7.34923 68.0663 7.65498C68.7606 8.2025 69.6523 8.50825 70.2178 9.20982C70.4898 9.54876 70.6546 9.97776 70.6426 10.4127C70.639 12.7118 70.645 15.0097 70.639 17.3076C71.2598 17.8017 71.8832 18.29 72.5028 18.7842C72.6833 18.6692 72.8638 18.5544 73.0456 18.4393C73.0372 15.9305 73.0588 13.4205 73.0347 10.9128C72.7159 10.5419 72.2743 10.2764 71.9096 9.94577C72.8049 9.13398 73.6821 8.30086 74.5954 7.50922C75.3896 8.27716 76.2247 9.00362 77.0394 9.75023C76.7301 10.0724 76.4119 10.3862 76.0851 10.6912C76.0791 12.8966 76.0851 15.1021 76.0815 17.3076C76.895 17.9285 77.7085 18.5507 78.5303 19.1622C78.6459 19.0957 78.7626 19.0307 78.8818 18.9655C78.8696 16.2719 78.883 13.5793 78.8744 10.8855C78.4978 10.5691 78.1079 10.2669 77.7361 9.94458C78.6145 9.12687 79.5038 8.32337 80.387 7.51159C81.2666 8.18946 82.1475 8.86733 83.0222 9.55113C83.3255 9.22167 83.636 8.89459 83.9824 8.60661C84.0269 8.66942 84.1184 8.79623 84.1629 8.85904C83.4145 9.51558 82.6708 10.1804 81.9452 10.8618C81.8825 13.0092 81.944 15.1637 81.9151 17.3123C80.0102 18.5448 78.0211 19.6696 76.0886 20.8688C75.0693 20.1494 74.0791 19.391 73.073 18.655C72.1705 19.3696 71.2668 20.0854 70.3583 20.7929C70.2283 20.9351 70.0947 20.7277 69.9876 20.6685C69.138 19.9965 68.2934 19.3185 67.433 18.6621C67.072 18.9725 66.693 19.2628 66.3308 19.5733C66.2731 19.5188 66.16 19.411 66.1022 19.3577C66.5438 19.0568 66.9758 18.7402 67.4174 18.4392C67.42 16.357 67.42 14.276 67.4174 12.1938C67.4162 11.6368 67.2177 11.0727 66.8314 10.6603C66.4067 10.2064 65.8351 9.88758 65.4969 9.35547C65.1227 8.73685 65.089 7.9701 65.2322 7.27907C65.4417 6.49833 66.0712 5.90342 66.7401 5.47678ZM200.663 6.96407C200.75 7.18213 200.777 7.42567 200.669 7.64254C200.403 8.24101 199.679 8.47092 199.063 8.46025C198.418 8.40337 197.915 7.94652 197.48 7.51514C196.751 7.99629 196.018 8.47388 195.29 8.95503C194.45 9.51202 193.523 9.92325 192.592 10.306C192.588 11.484 192.593 12.6596 192.589 13.8376C193.269 14.3958 193.968 14.9291 194.634 15.5027C194.123 16.036 193.619 16.5768 193.136 17.135C192.641 17.7228 192.172 18.4019 192.144 19.1913C192.115 20.0883 192.505 21.0596 193.311 21.5347C193.667 21.7409 194.1 21.9246 194.514 21.7658C193.999 21.5844 193.366 21.2171 193.41 20.5984C193.553 20.013 194.259 19.6213 194.845 19.7896C195.453 19.9603 195.954 20.3881 196.343 20.8681C197.905 19.76 199.55 18.7698 201.259 17.8964C201.246 16.4021 201.28 14.9041 201.244 13.4109C200.489 12.8894 199.77 12.3212 199.024 11.7902C199.813 10.8054 200.607 9.76374 200.937 8.53124C201.059 8.0111 201.101 7.35515 200.663 6.96407ZM195.633 9.2039C196.14 9.92088 196.811 10.6183 197.73 10.7653C198.646 10.9774 199.533 10.4885 200.134 9.83792C199.312 11.3347 198.037 12.5364 196.719 13.6124C196.363 13.2403 195.98 12.8937 195.627 12.5192C195.641 11.4147 195.629 10.3084 195.633 9.2039ZM196.924 13.6717C197.318 13.9988 197.708 14.3317 198.103 14.6613C198.283 14.7679 198.195 14.9907 198.22 15.159C198.209 16.4424 198.237 17.73 198.205 19.0135C197.91 18.3568 197.469 17.746 196.846 17.3572C195.942 16.7755 194.699 16.7417 193.78 17.3068C193.359 17.5366 193.022 17.8798 192.703 18.2283C193.159 17.3513 193.896 16.6592 194.589 15.9646C195.381 15.2135 196.173 14.4633 196.924 13.6717ZM34.4326 7.51218C33.3929 8.10472 32.3883 8.75119 31.3703 9.37574C30.5074 9.81896 29.6309 10.2373 28.762 10.6675C28.7656 13.0673 28.7585 15.4671 28.7681 17.8669C28.3975 18.1503 27.9648 18.354 27.6278 18.6788C27.6928 18.7166 27.8216 18.7938 27.8865 18.8329C28.1777 18.5852 28.4658 18.3328 28.786 18.1218C29.863 19.0034 30.8793 19.9581 31.9538 20.8446C32.0066 20.8174 32.1132 20.7623 32.1674 20.735C33.9867 19.346 35.8249 17.9778 37.6454 16.5901L37.4198 16.3946C36.4066 17.172 35.421 17.9904 34.4175 18.7796C33.5884 18.0448 32.7864 17.281 31.9597 16.5427C31.6781 16.34 31.8357 15.9555 31.8153 15.6687C33.5132 14.4445 35.2118 13.2197 36.8843 11.9623C36.0493 10.4879 35.2413 9.00066 34.4326 7.51218ZM31.8094 9.28093C32.6685 10.671 33.5319 12.0564 34.3815 13.4525C33.5175 14.0509 32.6607 14.6565 31.8065 15.2656C31.7979 13.2711 31.7937 11.2754 31.8094 9.28093ZM62.5724 7.50922C61.8396 7.98444 61.1019 8.45373 60.3522 8.9017C59.2561 9.5772 58.0679 10.0856 56.9198 10.6675C56.9234 13.0661 56.9131 15.4653 56.9228 17.864C56.5691 18.1235 56.178 18.3291 55.8338 18.6017C55.8699 18.6645 55.9451 18.7907 55.9812 18.8535C56.3626 18.6011 56.7393 18.3421 57.1303 18.1039C58.1159 19.0319 59.1158 19.9457 60.1086 20.8653C61.9654 19.5071 63.7871 18.1005 65.6259 16.7175C65.8618 16.6701 65.6681 16.2932 65.5176 16.4389C64.5213 17.1997 63.5545 17.9997 62.5725 18.7794C61.8024 18.0269 61.0377 17.2709 60.2711 16.5159C60.0231 16.3014 60.1701 15.9435 60.1568 15.6627C61.7909 14.4681 63.3745 13.2054 65.0122 12.0155C64.2576 10.4868 63.375 9.01547 62.5724 7.50922ZM60.1356 9.32833C60.978 10.6793 61.7499 12.0754 62.5273 13.4643C61.7246 14.0438 60.9491 14.6589 60.1536 15.2479C60.1164 13.2759 60.1537 11.3015 60.1356 9.32833ZM110.038 7.51514C109.234 7.97614 108.441 8.45136 107.661 8.9491C106.745 9.49899 105.745 9.88947 104.77 10.3208C104.793 12.838 104.777 15.3557 104.779 17.873C104.453 18.1928 104.124 18.5117 103.807 18.8387C103.874 18.8351 104.006 18.8257 104.072 18.821C104.303 18.578 104.544 18.341 104.782 18.1039C105.876 18.9857 106.954 19.8864 108.04 20.7764C108.219 20.947 108.422 20.6929 108.597 20.6312C110.344 19.6902 111.995 18.5815 113.795 17.7366C113.823 15.3913 113.803 13.0466 113.807 10.7001C114.132 10.3801 114.461 10.0613 114.779 9.73423C114.715 9.73541 114.588 9.74075 114.523 9.74312C114.22 9.98843 113.913 10.2272 113.608 10.469C112.417 9.48536 111.231 8.49403 110.038 7.51514ZM108.001 9.25426C108.86 10.0495 109.735 10.8328 110.594 11.6304C110.586 14.1274 110.588 16.6232 110.588 19.1202C109.707 18.3593 108.871 17.5524 108.001 16.7796L108.001 9.25426Z" fill="black"/>
<path d="M128.966 13.1091C130.205 11.2354 131.471 9.37838 132.742 7.52371C133.292 7.98412 133.972 8.26924 134.69 8.34142C135.393 8.34261 135.992 7.93138 136.521 7.52015C136.388 8.53104 136.046 9.58103 135.258 10.2838C134.571 10.9048 133.529 11.0541 132.664 10.7507C132.153 10.5801 131.682 10.3122 131.259 9.98397C131.185 10.157 131.123 10.3359 131.079 10.5184C132.838 13.128 134.566 15.7613 136.294 18.3922C136.691 18.1386 137.039 17.8185 137.389 17.5069C137.458 17.5495 137.594 17.6349 137.662 17.6775C136.419 18.7689 135.136 19.8166 133.862 20.8737C132.224 18.2891 130.623 15.6819 128.966 13.1091ZM188.482 7.51245C187.716 7.97108 186.948 8.42912 186.192 8.90197C185.147 9.61777 183.948 10.0634 182.838 10.6678C182.85 13.0664 182.838 15.4668 182.844 17.8642C182.461 18.1131 182.084 18.3666 181.701 18.6109C181.75 18.6701 181.85 18.7916 181.899 18.8508C182.229 18.6103 182.527 18.3247 182.883 18.1161C183.876 19.025 184.914 19.8848 185.922 20.7796C186.018 20.9313 186.158 20.776 186.256 20.7144C188.07 19.3373 189.89 17.9685 191.707 16.5962C191.494 16.2288 191.252 16.5849 191.039 16.7354C190.186 17.4194 189.334 18.1025 188.479 18.7827C187.604 17.997 186.759 17.1822 185.867 16.4154C185.854 16.1687 185.853 15.9215 185.865 15.6747C187.567 14.4599 189.25 13.2168 190.94 11.9832C190.126 10.4888 189.31 8.99737 188.482 7.51245ZM185.855 9.32268C186.776 10.663 187.585 12.0792 188.449 13.4587C187.573 14.0501 186.721 14.6758 185.85 15.2719C185.864 13.2892 185.851 11.3053 185.855 9.32268ZM118.259 7.70977C118.947 8.3272 119.526 9.05485 120.165 9.72206C120.86 9.06552 121.54 8.39001 122.212 7.70858C122.7 8.01671 123.209 8.44927 123.836 8.32483C124.278 8.29521 124.508 7.86857 124.883 7.69436C124.884 8.60096 124.672 9.55378 124.063 10.2577C123.366 11.0802 122.045 11.3208 121.112 10.7566C120.753 10.5848 120.515 10.2554 120.18 10.0527C120.189 12.5319 120.185 15.0099 120.183 17.4892C120.679 17.8648 121.176 18.2393 121.686 18.5972C122.056 18.3578 122.342 17.917 122.81 17.8755C121.71 18.9065 120.557 19.8878 119.41 20.8702C118.549 20.0703 117.668 19.2905 116.816 18.4812C116.484 18.775 116.177 19.0951 115.861 19.4044C115.81 19.3463 115.709 19.2313 115.658 19.1733C116.076 18.7159 116.542 18.3034 116.969 17.8543C116.953 15.733 116.977 13.6117 116.958 11.4915C116.729 10.9559 116.332 10.4913 116.045 9.97934C115.651 10.2081 115.365 10.6845 114.875 10.7011C115.988 9.68769 117.152 8.72895 118.259 7.70977ZM162.91 10.362C163.934 9.47911 164.937 8.5737 165.967 7.69792C166.706 8.50023 167.47 9.28002 168.195 10.0942C169.283 9.32031 170.328 8.48838 171.405 7.69792C172.159 8.4943 172.899 9.30372 173.661 10.0942C174.728 9.2978 175.782 8.48482 176.857 7.6991C177.591 8.50497 178.348 9.29069 179.091 10.0894C179.545 9.80383 179.963 9.46134 180.426 9.18758C180.461 9.45304 180.216 9.57392 180.045 9.72087C179.797 9.9176 179.556 10.1238 179.308 10.3193C179.288 12.526 179.313 14.7326 179.295 16.9392C179.722 17.3757 180.158 17.804 180.602 18.2238C180.837 17.9833 181.077 17.7474 181.306 17.5009C181.374 17.5436 181.513 17.6277 181.581 17.6704C180.459 18.7595 179.301 19.8155 178.148 20.8737C177.336 19.9292 176.484 19.0154 175.691 18.0543C175.884 17.8801 176.071 17.6988 176.257 17.5164C176.259 15.613 176.257 13.7098 176.257 11.8077C175.643 11.1335 175.032 10.4567 174.399 9.80028C174.216 9.98396 174.033 10.1665 173.852 10.3512C173.85 12.7309 173.862 15.1106 173.846 17.4902C174.151 17.8268 174.494 18.1278 174.803 18.4632C173.972 19.1897 173.17 19.9505 172.344 20.6841C171.571 19.8842 170.811 19.0731 170.063 18.2511C170.276 17.9927 170.703 17.8055 170.636 17.412C170.626 15.5562 170.646 13.6991 170.626 11.8446C170.111 11.1382 169.534 10.4544 168.937 9.80976C168.763 9.99226 168.586 10.1712 168.408 10.3502C168.413 12.6552 168.394 14.9614 168.416 17.2664C168.669 17.6905 169.045 18.0379 169.359 18.4205C168.552 19.2561 167.718 20.0678 166.877 20.8701C166.073 19.9269 165.24 19.0085 164.431 18.071C164.683 17.8778 164.938 17.6871 165.192 17.4939C165.185 15.5467 165.178 13.5985 165.196 11.6514C164.722 11.0731 164.202 10.5327 163.704 9.97448C163.35 10.2328 163.038 10.5576 162.634 10.7401C162.614 10.5587 162.796 10.4722 162.91 10.362Z" fill="black"/>
<path d="M155.787 10.5144C156.846 9.55925 157.942 8.64081 159.012 7.69629C159.774 8.54956 160.514 9.42178 161.272 10.2786C161.665 9.97522 162.018 9.61495 162.453 9.3649C162.421 9.50119 162.384 9.64221 162.255 9.71924C161.929 9.98589 161.605 10.2537 161.277 10.5133C161.282 12.7235 161.267 14.9325 161.284 17.1427C161.712 17.6191 162.155 18.086 162.555 18.5884C162.888 18.3882 163.166 18.1143 163.484 17.8916C163.551 17.9271 163.687 17.9971 163.754 18.0315C162.697 19.008 161.599 19.9442 160.497 20.8697C159.764 20.0023 159.012 19.1489 158.263 18.2946C157.936 18.5861 157.664 18.9393 157.307 19.1929C157.257 19.1467 157.156 19.0518 157.105 19.0044C157.423 18.7082 157.722 18.3929 158.045 18.099C158.07 16.0915 158.046 14.0816 158.057 12.0739C158.038 11.7942 158.129 11.4636 157.908 11.2408C157.515 10.7608 157.154 10.256 156.737 9.79734C156.426 10.0451 156.131 10.3142 155.787 10.5144Z" fill="black"/>
</g>
<defs>
<clipPath id="clip0_31179:1456">
<rect width="201.321" height="27.9165" fill="white"/>
</clipPath>
</defs>
</svg>
