<svg width="336" height="47" viewBox="0 0 336 47" fill="none" xmlns="http://www.w3.org/2000/svg">
<g clip-path="url(#clip0)">
<path d="M19.9629 0.129835C19.6453 0.144859 19.3368 0.224328 19.0393 0.411536C20.2639 0.652711 21.6989 0.814812 22.4719 1.91394C22.8593 2.31919 22.7387 2.9419 22.3513 3.29773C21.6188 4.15765 20.3611 4.42749 19.2854 4.15271C15.638 3.30465 12.1885 1.65596 8.441 1.22698C6.43374 0.96604 4.47165 1.9169 3.08664 3.29279C1.80802 4.55599 1.34314 6.47353 1.59625 8.20524C1.87907 9.5752 2.91 10.9985 4.40139 11.2002C3.5182 10.2552 3.35059 8.61445 4.2659 7.63196C4.78378 6.99937 5.7041 6.91239 6.46887 7.02902C9.37337 7.56079 12.2036 8.42171 15.1001 9.00092C16.7219 9.43583 18.3247 9.95475 19.9827 10.2513C20.0128 12.2024 20.0128 14.1516 19.9827 16.1027C18.9129 16.8895 17.8912 17.7366 16.8414 18.5491C17.8631 19.3023 18.9169 20.008 19.9729 20.7137C20.0411 23.4734 19.9629 26.2323 20.013 28.9918C18.2848 30.3064 15.9692 30.5199 13.8658 30.2767C11.6315 30.1543 9.64836 28.8435 8.18507 27.2521C10.6381 25.9632 13.1382 24.7475 15.6473 23.5655C15.7354 19.2143 15.6631 14.8613 15.6872 10.5083C12.5519 11.8031 9.44864 13.1671 6.32334 14.4817C7.22661 12.2064 9.06405 10.363 11.2562 9.2678C10.6839 9.3014 10.0837 9.25989 9.55001 9.50502C5.44717 11.1003 2.06595 14.5292 0.793548 18.7122C-0.0575286 21.369 0.216462 24.2738 1.1398 26.8716C2.28394 29.7617 4.40059 32.32 7.20674 33.7807C8.78263 34.5833 10.4788 35.3352 12.2853 35.3572C16.0248 35.6636 19.9588 34.2741 22.4822 31.5023C23.5839 30.338 24.1392 28.82 24.6851 27.351C25.1912 25.9041 25.4198 24.364 25.3676 22.8339C24.1572 25.1982 22.5474 27.419 20.3495 28.9868C20.3633 26.237 20.3444 23.4882 20.3543 20.7384C21.3099 20.0208 22.2692 19.3042 23.1945 18.5491C22.2451 17.7208 21.3017 16.8935 20.3543 16.0632C20.3585 14.1298 20.3503 12.1925 20.3543 10.2612C22.492 10.1505 24.9519 9.03947 25.528 6.83134C25.9294 5.39022 26.1392 3.68321 25.2419 2.3785C24.417 1.45333 23.3471 0.649745 22.0905 0.426362C21.3948 0.366464 20.6612 0.0970197 19.9629 0.129835ZM9.9615 13.3895C9.95347 17.5804 9.98659 21.7713 9.94644 25.9624C9.23587 26.2372 8.53715 26.5377 7.83882 26.8419C6.55016 25.0056 5.74927 22.8438 5.37993 20.6495C5.27957 18.7972 5.62883 16.9211 6.2832 15.1835C7.51967 14.6043 8.72904 13.9786 9.9615 13.3895ZM255.138 0.129835C254.794 0.119556 254.457 0.186175 254.14 0.411536C254.862 0.575614 255.626 0.645791 256.302 0.979878C256.904 1.26454 257.303 1.85364 257.511 2.46251C257.624 3.1208 257.134 3.72769 256.548 3.9748C255.496 4.45319 254.303 4.23179 253.231 3.94514C250.662 3.17022 248.16 2.16796 245.538 1.56305C244.191 1.28036 242.779 1.01348 241.419 1.36536C239.943 1.77457 238.446 2.47042 237.575 3.76723C236.45 5.19649 236.309 7.16246 236.857 8.84277C237.309 9.96364 238.224 11.0657 239.517 11.21C239.095 10.6763 238.37 10.1376 238.578 9.37652C238.695 8.62137 239.013 7.85534 239.627 7.36508C240.242 6.90843 241.082 6.91436 241.795 7.11798C244.409 7.59637 246.96 8.31891 249.543 8.92185C251.293 9.28756 252.975 9.93103 254.737 10.2513C254.767 12.1945 254.744 14.1378 254.752 16.083C253.805 16.9073 252.857 17.7307 251.922 18.5688C252.865 19.2864 253.791 20.0218 254.747 20.7236C254.761 23.4894 254.742 26.2588 254.762 29.0263C253.104 30.2498 250.922 30.5515 248.911 30.2765C246.689 30.146 244.746 28.8297 243.27 27.2719C243.874 26.8566 244.565 26.5899 245.217 26.2538C247.052 25.3642 248.863 24.4332 250.712 23.5752C250.77 19.2202 250.719 14.8633 250.737 10.5083C247.622 11.815 244.531 13.1829 241.404 14.462C242.118 12.7915 243.26 11.2634 244.796 10.2414C245.255 9.82823 245.721 9.3953 246.351 9.25297C245.721 9.29646 245.069 9.2757 244.494 9.56432C240.089 11.3198 236.331 15.1489 235.502 19.8538C235.187 22.2418 235.413 24.7218 236.26 26.9853C237.345 29.6421 239.258 32.0025 241.745 33.5088C242.935 34.2225 244.213 34.7968 245.548 35.1939C248.744 35.7178 252.171 35.2651 254.967 33.5927C256.812 32.3255 258.525 30.6827 259.298 28.5517C260.127 26.7429 260.46 24.767 260.502 22.7942C260.117 23.2903 259.891 23.8804 259.564 24.4102C258.502 26.1657 257.128 27.756 255.454 28.9718C255.474 26.2141 255.429 23.4564 255.479 20.6987C256.426 20.0246 257.315 19.2734 258.269 18.6032C257.39 17.7058 256.392 16.9308 255.459 16.0927C255.441 14.1593 255.481 12.224 255.439 10.2906C257.275 10.174 259.133 9.36249 260.121 7.77508C261.148 6.14418 261.142 3.92221 260.15 2.27946C259.37 1.26336 258.142 0.609022 256.874 0.421222C256.305 0.375755 255.712 0.147232 255.138 0.129835ZM245.057 13.3846C245.081 17.5676 245.057 21.7496 245.067 25.9326C244.342 26.2311 243.626 26.5464 242.904 26.8469C241.856 25.3959 241.04 23.764 240.62 22.0283C240.157 19.755 240.279 17.2908 241.353 15.1934C242.598 14.6082 243.824 13.9954 245.057 13.3846ZM95.7748 1.52351C96.9711 3.58733 96.2224 6.38457 94.4219 7.87116C93.3159 8.58084 92.0433 8.97226 90.7968 9.3696C90.8249 17.8107 90.801 26.2538 90.8048 34.6949C90.8931 35.0804 90.5338 35.3827 90.1647 35.2287C89.4358 35.1951 89.2431 34.438 88.934 33.9279C84.4498 25.8071 80.014 17.6585 75.4934 9.55543C75.4071 15.5156 75.4914 21.4817 75.4513 27.4437C77.587 27.8412 79.6665 28.8554 81.0636 30.5278C81.7119 30.0335 82.1314 29.1637 82.9624 28.9641C82.7517 29.3417 82.4446 29.6518 82.1515 29.9683C80.5357 31.7297 78.9238 33.499 77.31 35.2643C76.5615 34.3352 75.5639 33.4535 74.3152 33.327C73.4942 33.2953 72.545 33.3369 71.9466 33.9754C71.2581 34.5803 70.7967 35.6003 71.2882 36.4642C71.8643 37.7037 73.3136 38.0398 74.534 38.3363C73.0085 38.6328 71.3005 38.4589 70.07 37.4526C69.0905 36.6283 68.2011 35.5824 67.9464 34.3055C67.6031 32.5461 68.137 30.5908 69.4719 29.3434C70.9313 27.9221 73.0709 27.3923 75.0741 27.505C75.1283 24.9072 75.1042 22.3098 75.0862 19.7123C74.1126 19.56 72.7858 19.6964 72.3322 20.6987C72.0693 21.5112 72.6877 22.1952 73.2997 22.64C72.541 22.5095 71.6979 22.3672 71.1499 21.7879C70.5036 21.0031 70.0018 20.076 69.8151 19.0757C69.6284 17.7888 69.9717 16.322 71.0596 15.4937C72.1977 14.6258 73.7132 14.5072 75.1022 14.5389V9.04718C74.5984 8.30191 74.1146 7.44791 73.2497 7.06243C72.6837 6.83114 71.945 6.74811 71.4572 7.18302C70.7828 7.74642 70.62 8.64193 70.3532 9.42673C70.0943 7.51117 70.289 5.33862 71.6519 3.83622C73.2979 1.73681 76.7805 1.65972 78.581 3.60098C79.3598 4.38974 79.8937 5.36234 80.4239 6.32111C83.7559 12.1647 87.0217 18.0458 90.3879 23.8696C90.408 19.0401 90.418 14.2069 90.3839 9.37731C89.8056 9.15591 89.1615 9.16184 88.5731 8.9602C87.4772 8.67553 86.5639 7.97968 85.7529 7.22651C85.2471 7.81165 84.7371 8.39482 84.2655 9.00567C84.1552 8.94636 83.9364 8.82973 83.8262 8.77042C85.5524 6.62752 87.4029 4.58149 89.1996 2.49394C90.141 3.4705 91.3696 4.26915 92.7705 4.35811C94.2332 4.19225 95.6724 3.03975 95.7748 1.52351ZM207.824 6.19875C210.233 4.65285 212.637 3.09312 215.054 1.55909C215.074 10.6803 215.036 19.8034 215.074 28.9245C215.596 29.6243 216.309 30.1996 216.941 30.8146C217.338 30.3955 217.752 29.9942 218.162 29.589C218.258 29.6836 218.451 29.8736 218.549 29.9665C216.62 31.613 214.751 33.323 212.81 34.9521C211.588 33.7166 210.323 32.5246 209.111 31.2829C208.567 31.7593 208.069 32.2814 207.557 32.7895C207.453 32.7104 207.244 32.5501 207.14 32.4712C208.065 31.5994 209.057 30.8008 209.992 29.9369C209.984 23.0239 209.998 16.1108 209.984 9.19979C209.962 7.90674 209.293 6.35887 207.824 6.19875ZM27.9676 6.4676C30.0411 4.94543 32.0744 3.36791 34.15 1.85167C34.16 6.8768 34.1479 11.9039 34.156 16.931C35.9123 15.5037 37.6825 14.0943 39.4208 12.6472C40.8159 14.0725 42.1186 15.5868 43.5558 16.9666C44.1622 16.5376 44.7842 16.1304 45.4205 15.7469C45.3063 16.5436 44.3386 16.8164 43.8368 17.3719C43.8428 20.1197 43.8368 22.8655 43.8388 25.6133C43.8789 27.6675 43.5778 29.7074 43.5158 31.7593C43.4213 33.9853 42.5443 36.2608 40.7819 37.7215C39.3486 38.9829 37.3897 39.4374 35.5209 39.5896C35.4888 39.6331 35.4205 39.7221 35.3864 39.7673L35.4366 39.6054C34.7923 39.6054 34.15 39.5817 33.5076 39.5343C34.3148 39.1231 35.2279 38.8602 35.8642 38.1801C36.5948 37.3773 37.4459 36.6125 37.8052 35.5628C38.3933 33.9615 38.4114 32.2358 38.4696 30.5554C38.4535 26.7895 38.4876 23.0217 38.4515 19.2578C37.6004 18.1646 36.5807 17.1999 35.6775 16.1442C35.1837 16.6642 34.5918 17.101 34.168 17.6783C34.1339 21.5648 34.164 25.4532 34.154 29.3395C34.666 29.8418 35.1757 30.3479 35.6915 30.846C36.1052 30.4368 36.5185 30.0256 36.932 29.6145C37.0245 29.7034 37.207 29.8813 37.2993 29.9703C35.2921 31.5162 33.3051 33.086 31.2978 34.6297C30.0272 33.5187 28.7868 32.3761 27.5362 31.2434C27.1167 31.5518 26.6972 31.8641 26.2757 32.1703C26.1856 32.0774 26.0087 31.8916 25.9186 31.7987C26.8821 31.1878 27.8275 30.5495 28.7809 29.9266C28.7789 23.0156 28.7789 16.1065 28.7809 9.19544C28.7607 8.66763 28.787 8.0983 28.5039 7.62781C28.3171 7.26802 27.8957 7.15336 27.5804 6.93591C27.5099 6.70679 27.8431 6.60993 27.9676 6.4676ZM166.217 2.79857C164.33 4.30295 162.485 5.85379 160.616 7.37991C160.596 5.94077 160.641 4.50459 160.591 3.06545C160.302 3.05161 160.175 3.18011 160.215 3.45093C160.205 13.6238 160.218 23.7956 160.21 33.9685C159.19 33.7765 158.169 33.5761 157.159 33.3507C157.143 24.7712 157.158 16.1935 157.154 7.61219C157.132 6.5269 156.775 5.43568 156.05 4.60739C155.147 3.55373 153.735 3.06446 152.372 2.97155C150.756 2.92608 149.275 3.76229 148.147 4.83967C147.109 5.8103 146.552 7.31072 146.847 8.7044C146.973 7.84051 147.259 6.86692 148.066 6.38655C148.951 6.0149 150.131 6.31439 150.661 7.1328C151.114 7.79307 151.159 8.6184 151.177 9.39135C151.182 11.7102 151.175 14.029 151.177 16.3498C149.624 16.3736 147.789 16.6207 146.892 18.04C145.989 19.151 145.71 20.7266 146.33 22.0333C146.737 23.3261 148.102 23.9925 149.371 24.1979C148.66 23.7454 147.937 22.9487 148.357 22.0629C148.921 21.1733 150.204 21.0429 151.157 21.3018C151.195 25.4174 151.177 29.5314 151.167 33.6472C149.742 34.1373 148.355 34.9885 147.594 36.311C147.04 37.254 147.026 38.3818 147.072 39.4394C147.243 41.2937 148.485 42.9866 150.153 43.8329C151.414 44.4141 152.833 44.4319 154.198 44.3864C158.072 44.1593 161.752 42.6448 165.634 42.5185C166.791 42.4333 167.468 43.6918 167.165 44.6782C166.934 45.5698 166.175 46.1727 165.459 46.6946C166.822 46.4099 168.179 45.9058 169.242 44.9943C170.443 43.9922 170.995 42.376 170.919 40.8578C170.828 39.3554 169.598 38.2375 168.319 37.591C166.635 36.6184 164.602 36.8351 162.749 37.0328C159.269 37.4281 155.876 38.5164 152.362 38.6093C151.169 38.6884 150.056 37.8571 149.817 36.7066C149.548 35.5978 150.463 34.6277 151.388 34.1515C153.391 33.2204 155.697 33.5652 157.786 33.9983C160.209 34.2476 162.482 35.221 164.907 35.4661C166.284 35.6203 167.746 35.3596 168.876 34.5372C170.04 33.8295 170.565 32.4504 170.597 31.1518C170.612 23.0547 170.582 14.9583 170.613 6.86138C171.363 6.21891 172.191 5.64266 172.846 4.89937C171.93 5.12275 171.356 5.96785 170.608 6.48578C169.128 5.27358 167.68 4.03015 166.217 2.79857ZM162.112 6.89064C162.955 7.6023 163.785 8.32781 164.626 9.0454C164.628 11.5955 164.62 14.1457 164.626 16.6958C164.226 17.0832 163.79 17.4925 163.206 17.5656C162.254 17.7633 161.328 17.2997 160.611 16.7205C160.615 13.7434 160.613 10.7672 160.611 7.7901C161.113 7.49358 161.614 7.19705 162.112 6.89064ZM160.611 17.4272C161.844 18.044 163.43 18.2308 164.626 17.4322C164.622 18.5886 164.622 19.75 164.626 20.9065C164.14 20.4399 163.516 20.0693 162.819 20.0712C162 20.0535 161.248 20.434 160.611 20.9065C160.615 19.748 160.609 18.5876 160.611 17.4272ZM162.809 20.437C163.604 20.4567 164.214 21.0409 164.626 21.6577C164.62 24.8859 164.628 28.116 164.626 31.3442C164.69 32.3346 163.998 33.1817 163.241 33.751C162.51 34.3223 161.519 34.3421 160.631 34.2946C160.581 30.078 160.629 25.8547 160.611 21.6379C161.185 21.0231 161.912 20.4251 162.809 20.437ZM261.628 8.06093C262.929 6.93809 264.153 5.73221 265.482 4.64099C266.606 5.80931 267.791 6.92029 268.933 8.07082C267.562 9.33402 266.183 10.5873 264.794 11.8308C263.744 10.5676 262.664 9.33402 261.628 8.06093ZM111.506 9.26285C112.319 8.71329 113.346 8.7469 114.286 8.62829C113.577 9.17983 112.79 9.82032 112.694 10.7712C112.535 11.6212 113.082 12.3863 113.718 12.8963C114.876 13.8096 116.363 14.3196 117.307 15.4899C117.76 16.0553 118.035 16.7709 118.015 17.4964C118.009 21.3315 118.019 25.1646 118.009 28.9977C119.045 29.822 120.085 30.6365 121.118 31.4608C121.419 31.2691 121.721 31.0775 122.024 30.8856C122.01 26.7006 122.046 22.5136 122.006 18.3306C121.474 17.7119 120.737 17.2691 120.129 16.7175C121.622 15.3634 123.086 13.9737 124.609 12.6531C125.934 13.9341 127.327 15.1459 128.686 16.3914C128.17 16.9288 127.639 17.4522 127.094 17.961C127.084 21.6399 127.094 25.3188 127.088 28.9977C128.445 30.0336 129.802 31.0714 131.173 32.0914C131.366 31.9805 131.56 31.872 131.759 31.7633C131.739 27.2701 131.761 22.7785 131.747 18.2852C131.119 17.7574 130.468 17.2533 129.848 16.7156C131.313 15.3515 132.797 14.0112 134.27 12.6571C135.737 13.7878 137.207 14.9186 138.666 16.0592C139.172 15.5097 139.69 14.9641 140.267 14.4837C140.342 14.5885 140.494 14.8 140.569 14.9048C139.32 15.9999 138.08 17.1089 136.869 18.2456C136.765 21.8277 136.867 25.4216 136.819 29.0056C133.641 31.0615 130.323 32.9377 127.1 34.9381C125.399 33.7382 123.748 32.473 122.069 31.2454C120.564 32.4374 119.057 33.6314 117.541 34.8116C117.324 35.0488 117.101 34.7029 116.923 34.604C115.506 33.4831 114.097 32.3522 112.661 31.2572C112.059 31.775 111.427 32.2593 110.823 32.7772C110.727 32.6863 110.538 32.5064 110.442 32.4174C111.178 31.9155 111.899 31.3875 112.636 30.8854C112.64 27.4121 112.64 23.9407 112.636 20.4674C112.634 19.5383 112.302 18.5973 111.658 17.9094C110.949 17.1522 109.996 16.6205 109.432 15.7329C108.808 14.701 108.751 13.4219 108.99 12.2692C109.34 10.9669 110.39 9.97452 111.506 9.26285ZM334.902 11.7438C335.046 12.1075 335.092 12.5138 334.911 12.8755C334.468 13.8738 333.26 14.2573 332.232 14.2396C331.156 14.1447 330.317 13.3826 329.592 12.663C328.376 13.4656 327.154 14.2623 325.939 15.0649C324.538 15.994 322.991 16.68 321.438 17.3185C321.432 19.2835 321.439 21.2445 321.433 23.2095C322.567 24.1406 323.733 25.0302 324.845 25.9869C323.992 26.8765 323.151 27.7788 322.346 28.7099C321.519 29.6904 320.738 30.8231 320.69 32.1399C320.642 33.6362 321.292 35.2564 322.637 36.0489C323.231 36.3929 323.954 36.6993 324.644 36.4344C323.785 36.1319 322.729 35.5191 322.803 34.4872C323.041 33.5106 324.219 32.8573 325.196 33.138C326.21 33.4227 327.047 34.1363 327.695 34.9369C330.301 33.0886 333.045 31.4369 335.895 29.98C335.873 27.4874 335.93 24.9884 335.87 22.4976C334.612 21.6278 333.411 20.6799 332.167 19.7943C333.484 18.1515 334.808 16.4139 335.358 14.358C335.563 13.4903 335.632 12.3962 334.902 11.7438ZM326.511 15.48C327.356 16.676 328.475 17.8394 330.009 18.0845C331.536 18.4384 333.017 17.6229 334.018 16.5376C332.647 19.0344 330.521 21.0389 328.323 22.8339C327.729 22.2132 327.089 21.6349 326.501 21.0102C326.525 19.1678 326.505 17.3224 326.511 15.48ZM328.664 22.9327C329.322 23.4783 329.973 24.0336 330.631 24.5834C330.932 24.7613 330.785 25.133 330.827 25.4137C330.809 27.5546 330.854 29.7024 330.802 31.8433C330.31 30.748 329.573 29.7291 328.534 29.0805C327.026 28.1101 324.953 28.0537 323.42 28.9965C322.717 29.3798 322.155 29.9523 321.623 30.5335C322.384 29.0706 323.614 27.9162 324.77 26.7575C326.091 25.5046 327.411 24.2533 328.664 22.9327ZM57.6138 12.6581C55.8795 13.6465 54.2037 14.7249 52.5055 15.7667C51.0661 16.506 49.604 17.2038 48.1546 17.9214C48.1606 21.9245 48.1488 25.9276 48.1648 29.9308C47.5466 30.4034 46.8248 30.7432 46.2627 31.2851C46.3711 31.3482 46.5859 31.4768 46.6943 31.5421C47.1801 31.1289 47.6606 30.7079 48.1947 30.356C49.9912 31.8265 51.6866 33.4191 53.4788 34.8978C53.567 34.8525 53.7448 34.7606 53.8351 34.7149C56.8699 32.3981 59.9362 30.1158 62.973 27.8009L62.5966 27.4747C60.9065 28.7715 59.2625 30.1367 57.5885 31.4531C56.2055 30.2275 54.8677 28.9534 53.4887 27.7218C53.019 27.3838 53.2819 26.7423 53.2478 26.2639C56.08 24.2218 58.9135 22.1788 61.7034 20.0813C60.3105 17.6219 58.9627 15.141 57.6138 12.6581ZM53.238 15.6085C54.6712 17.9274 56.1114 20.2383 57.5285 22.567C56.0873 23.5653 54.6581 24.5755 53.2331 25.5916C53.2189 22.2646 53.2119 18.9356 53.238 15.6085ZM104.553 12.6531C103.331 13.4459 102.101 14.2287 100.85 14.9759C99.0217 16.1027 97.0395 16.9508 95.1244 17.9214C95.1304 21.9226 95.1134 25.9247 95.1294 29.9258C94.5395 30.3587 93.8871 30.7017 93.3129 31.1564C93.3731 31.2612 93.4985 31.4717 93.5588 31.5765C94.1951 31.1554 94.8233 30.7235 95.4757 30.3261C97.1196 31.874 98.7877 33.3983 100.444 34.9324C103.541 32.6667 106.58 30.3204 109.647 28.0134C110.041 27.9343 109.717 27.3057 109.466 27.5487C107.804 28.8178 106.192 30.1522 104.554 31.4529C103.269 30.1976 101.993 28.9366 100.715 27.6772C100.301 27.3193 100.546 26.7223 100.524 26.2538C103.25 24.2612 105.892 22.1548 108.623 20.1701C107.365 17.62 105.892 15.1657 104.553 12.6531ZM100.489 15.6876C101.894 17.9412 103.182 20.2699 104.478 22.5868C103.139 23.5535 101.846 24.5794 100.519 25.5619C100.457 22.2725 100.519 18.979 100.489 15.6876ZM183.73 12.663C182.389 13.432 181.066 14.2247 179.766 15.055C178.238 15.9723 176.569 16.6236 174.943 17.3432C174.981 21.542 174.954 25.7418 174.958 29.9408C174.414 30.4744 173.865 31.0064 173.337 31.5518C173.448 31.5458 173.669 31.53 173.779 31.5223C174.164 31.1169 174.566 30.7215 174.963 30.3261C176.788 31.7969 178.585 33.2995 180.398 34.7841C180.697 35.0686 181.035 34.6447 181.326 34.5417C184.241 32.9721 186.995 31.1228 189.997 29.7133C190.044 25.8011 190.011 21.8899 190.018 17.9758C190.56 17.442 191.109 16.9103 191.639 16.3647C191.532 16.3666 191.32 16.3755 191.212 16.3795C190.706 16.7887 190.194 17.187 189.686 17.5903C187.699 15.9495 185.721 14.2959 183.73 12.663ZM180.332 15.564C181.766 16.8905 183.225 18.1972 184.658 19.5276C184.644 23.6928 184.648 27.8561 184.648 32.0213C183.179 30.7521 181.784 29.4061 180.333 28.117L180.332 15.564Z" fill="#90979E"/>
<path d="M215.304 21.994C217.371 18.8686 219.483 15.7709 221.602 12.6771C222.521 13.4451 223.654 13.9207 224.852 14.0411C226.024 14.0431 227.024 13.3571 227.907 12.6712C227.684 14.3574 227.114 16.1089 225.8 17.2812C224.653 18.317 222.915 18.5661 221.472 18.0601C220.621 17.7754 219.834 17.3286 219.129 16.781C219.005 17.0697 218.902 17.3682 218.828 17.6726C221.763 22.0256 224.645 26.4182 227.528 30.8068C228.19 30.3837 228.77 29.8498 229.354 29.3301C229.469 29.401 229.695 29.5436 229.81 29.6145C227.737 31.4352 225.597 33.1827 223.471 34.9461C220.739 30.6348 218.068 26.2857 215.304 21.994ZM314.582 12.6583C313.305 13.4234 312.023 14.1874 310.763 14.9762C309.019 16.1702 307.018 16.9135 305.168 17.9217C305.188 21.9228 305.168 25.9269 305.178 29.9261C304.539 30.3412 303.909 30.7641 303.271 31.1715C303.353 31.2703 303.52 31.473 303.602 31.5718C304.152 31.1705 304.649 30.6941 305.243 30.3462C306.899 31.8624 308.631 33.2966 310.311 34.7891C310.472 35.0422 310.706 34.7832 310.868 34.6804C313.895 32.3833 316.93 30.1 319.961 27.8109C319.606 27.198 319.202 27.7921 318.847 28.0431C317.424 29.184 316.004 30.3234 314.577 31.4581C313.117 30.1475 311.708 28.7884 310.221 27.5092C310.198 27.0977 310.197 26.6853 310.216 26.2737C313.056 24.2474 315.864 22.1737 318.682 20.116C317.324 17.6232 315.963 15.1353 314.582 12.6583ZM310.201 15.678C311.736 17.9138 313.085 20.2761 314.527 22.5772C313.065 23.5638 311.644 24.6074 310.191 25.6017C310.215 22.2945 310.193 18.9852 310.201 15.678ZM197.443 12.9875C198.591 14.0174 199.557 15.2312 200.623 16.3442C201.783 15.249 202.917 14.1222 204.037 12.9855C204.852 13.4995 205.701 14.221 206.747 14.0135C207.484 13.964 207.867 13.2524 208.493 12.9618C208.495 14.4741 208.142 16.0634 207.126 17.2377C205.962 18.6096 203.76 19.0109 202.202 18.0699C201.604 17.7833 201.207 17.2337 200.649 16.8957C200.663 21.0313 200.657 25.1648 200.653 29.3004C201.48 29.9271 202.309 30.5517 203.16 31.1488C203.778 30.7494 204.254 30.014 205.035 29.9449C203.2 31.6647 201.277 33.3015 199.364 34.9403C197.927 33.606 196.458 32.3052 195.036 30.9552C194.482 31.4453 193.97 31.9792 193.443 32.4952C193.358 32.3983 193.19 32.2064 193.106 32.1097C193.802 31.3466 194.579 30.6587 195.291 29.9095C195.265 26.3709 195.306 22.8324 195.273 19.2958C194.892 18.4023 194.23 17.6273 193.75 16.7733C193.093 17.1549 192.616 17.9496 191.799 17.9772C193.656 16.2868 195.597 14.6876 197.443 12.9875ZM271.926 17.4117C273.634 15.9389 275.307 14.4286 277.025 12.9677C278.257 14.306 279.532 15.6068 280.742 16.9649C282.557 15.674 284.299 14.2863 286.096 12.9677C287.354 14.2961 288.589 15.6463 289.859 16.9649C291.64 15.6364 293.398 14.2803 295.191 12.9697C296.415 14.3139 297.678 15.6246 298.916 16.957C299.675 16.4806 300.372 15.9092 301.144 15.4526C301.203 15.8954 300.793 16.097 300.508 16.3422C300.094 16.6703 299.693 17.0143 299.28 17.3405C299.245 21.0214 299.288 24.7023 299.258 28.3829C299.97 29.1111 300.697 29.8255 301.437 30.5259C301.829 30.1247 302.23 29.7312 302.612 29.32C302.726 29.3911 302.957 29.5315 303.071 29.6027C301.199 31.4194 299.268 33.181 297.345 34.9461C295.99 33.3705 294.569 31.8464 293.246 30.2432C293.567 29.9526 293.88 29.6501 294.189 29.3459C294.193 26.1709 294.189 22.996 294.189 19.8232C293.166 18.6986 292.146 17.5696 291.09 16.4746C290.785 16.781 290.48 17.0855 290.179 17.3937C290.175 21.3632 290.195 25.3327 290.169 29.3022C290.677 29.8636 291.249 30.3657 291.764 30.9252C290.377 32.137 289.041 33.4061 287.662 34.6298C286.374 33.2955 285.106 31.9426 283.858 30.5713C284.213 30.1404 284.926 29.828 284.814 29.1717C284.797 26.076 284.83 22.9783 284.797 19.8847C283.938 18.7065 282.975 17.5658 281.979 16.4904C281.688 16.7949 281.393 17.0934 281.096 17.3919C281.104 21.2368 281.074 25.0838 281.11 28.9288C281.532 29.6363 282.16 30.2157 282.684 30.854C281.337 32.2479 279.946 33.6018 278.543 34.9401C277.202 33.3668 275.813 31.8347 274.462 30.271C274.884 29.9486 275.309 29.6305 275.733 29.3083C275.721 26.0602 275.709 22.8104 275.739 19.5625C274.948 18.5978 274.081 17.6963 273.25 16.7652C272.66 17.1962 272.14 17.7378 271.465 18.0423C271.433 17.7398 271.736 17.5955 271.926 17.4117Z" fill="#90979E"/>
<path d="M260.046 17.666C261.812 16.0727 263.641 14.5406 265.425 12.9651C266.696 14.3884 267.93 15.8434 269.195 17.2726C269.851 16.7666 270.439 16.1656 271.166 15.7485C271.112 15.9758 271.05 16.2111 270.835 16.3396C270.291 16.7844 269.751 17.2311 269.203 17.664C269.211 21.3509 269.187 25.0357 269.215 28.7225C269.93 29.5172 270.668 30.2961 271.335 31.1341C271.891 30.8002 272.355 30.3433 272.885 29.9719C272.997 30.031 273.224 30.1478 273.336 30.2051C271.572 31.8341 269.741 33.3958 267.903 34.9395C266.68 33.4926 265.426 32.0691 264.175 30.644C263.631 31.1303 263.177 31.7194 262.581 32.1425C262.497 32.0654 262.329 31.9072 262.244 31.8281C262.774 31.3339 263.274 30.8081 263.812 30.3178C263.854 26.9691 263.814 23.6163 263.832 20.2674C263.8 19.8008 263.953 19.2493 263.583 18.8776C262.929 18.077 262.327 17.2349 261.63 16.4698C261.112 16.8832 260.62 17.3319 260.046 17.666Z" fill="#90979E"/>
</g>
<defs>
<clipPath id="clip0">
<rect width="335.822" height="46.5673" fill="white" transform="translate(0.177734 0.126953)"/>
</clipPath>
</defs>
</svg>
