<svg width="105" height="26" viewBox="0 0 105 26" fill="none" xmlns="http://www.w3.org/2000/svg">
<path d="M66.9664 1.90248L66.8791 2.21818C68.2279 2.28914 68.6094 2.8864 68.6094 3.40572C68.6094 3.71026 68.4893 4.06306 68.2485 4.45913C68.2485 4.45913 61.6114 15.0552 61.0915 15.885C61.0616 15.7539 58.3367 3.94425 58.3367 3.94425C58.288 3.72679 58.2636 3.53595 58.2636 3.36862C58.2636 2.54947 58.8811 2.26576 60.0747 2.22046L60.1627 1.90234H54.8934L54.8028 2.21804C55.9295 2.26266 56.588 2.57043 56.9422 4.03215C57.5709 6.66903 60.0058 17.142 60.0767 17.4483C57.5279 21.2469 55.3783 23.4472 51.9424 23.4472C49.4373 23.4472 47.5487 21.6826 47.5487 19.3421C47.5487 17.007 49.38 15.1068 51.6304 15.1068C53.0302 15.1068 53.7859 15.8336 53.7859 16.5186C53.7859 16.9123 53.5727 17.1095 53.4127 17.2241C53.2256 17.3456 53.052 17.4987 53.052 17.7898C53.052 18.0669 53.2644 18.268 53.5572 18.268C54.0397 18.268 54.3004 17.6747 54.3004 17.1168C54.3004 15.6805 53.2774 14.7877 51.6305 14.7877C48.8707 14.7877 47.1621 17.191 47.1621 19.4172C47.1621 21.5823 48.9502 23.8219 51.9425 23.8219C56.312 23.8219 58.6147 20.2921 61.0527 16.5557C61.0527 16.5557 68.0656 5.43096 68.809 4.30363C69.67 2.99728 70.7845 2.27126 72.0191 2.21966L72.1077 1.90234H66.9664V1.90248ZM66.5744 13.3575C66.5744 15.9183 68.2316 17.2574 69.8688 17.2574C71.297 17.2574 72.7731 16.5116 73.9193 15.2097C75.0939 13.8752 75.7678 12.1029 75.7678 10.3471C75.7678 8.13746 74.481 6.65317 72.5657 6.65317C69.598 6.65304 66.5744 10.0365 66.5744 13.3575ZM67.7133 13.7504C67.7133 10.8454 70.0846 6.94575 72.5108 6.94575C74.2315 6.94575 74.5926 8.51391 74.5926 9.82294C74.5926 12.3127 72.9636 16.9646 69.8498 16.9646C68.5122 16.9646 67.7133 15.7588 67.7133 13.7504ZM82.1988 6.82117C82.1984 6.82117 80.4294 6.85342 80.4294 6.85342C79.5615 6.8756 78.646 6.89764 77.9739 6.87708L77.9035 7.1206C78.902 7.18498 79.277 7.4394 78.9058 8.65503L76.9055 15.4069C76.6457 16.2574 76.0818 16.7012 75.2052 16.7532L75.1126 17.0143H79.1185L79.1898 16.7532C78.4403 16.7171 77.8782 16.5962 77.8782 15.9214C77.8782 15.7675 77.9084 15.5901 77.9685 15.3861C77.9685 15.3861 78.9414 12.08 78.9534 12.0401C78.9936 12.0401 80.7349 12.0401 80.7683 12.0401C80.7744 12.0525 80.7813 12.0656 80.7813 12.0656C81.5753 13.6859 82.5637 15.7004 83.1456 16.9978L83.1528 17.0143H88.5321L88.6021 16.7515C87.8598 16.7353 87.2747 16.5732 87.2747 15.9136C87.2747 15.762 87.3048 15.5867 87.3632 15.3859C87.3632 15.3859 88.1587 12.6836 88.1865 12.5897C88.2001 12.5785 89.5133 11.5358 89.5646 11.4943C91.3991 15.2673 94.4645 21.5409 100.437 21.5409C102.151 21.5409 103.492 20.4518 103.492 19.0623C103.492 17.9985 102.712 17.4256 101.978 17.4256C101.253 17.4256 100.867 17.9305 100.867 18.2952C100.867 18.5136 101.043 18.6605 101.208 18.6605C101.402 18.6605 101.53 18.5781 101.636 18.3839C101.742 18.1877 101.964 18.0016 102.27 18.0016C102.846 18.0016 103.235 18.4009 103.235 19.0623C103.235 20.2529 102.012 21.2215 100.511 21.2215C96.7274 21.2215 93.4558 17.8137 90.5085 10.8047C90.5437 10.778 93.9771 8.10682 93.9771 8.10682C95.1159 7.24895 95.6718 7.15743 96.1248 7.12155L96.1978 6.87721H92.8382L92.7677 7.11993C93.327 7.15259 93.6576 7.36575 93.6576 7.65699C93.6576 7.88331 93.4669 8.15641 93.0982 8.45437C93.0982 8.45437 88.8901 11.6915 88.3054 12.1416C88.354 11.9807 89.3627 8.61618 89.3627 8.61618C89.3622 8.61753 89.3847 8.55113 89.3847 8.55113C89.6824 7.67594 89.8673 7.18444 91.1014 7.12007L91.1718 6.87735H87.3702L87.2955 7.12168C87.8474 7.14654 88.1828 7.26334 88.3238 7.46762C88.4716 7.68198 88.4592 8.02631 88.2816 8.6561L86.3001 15.4069C86.0428 16.2489 85.5178 16.7515 84.8958 16.7515C84.3287 16.7515 83.9524 16.4012 83.5084 15.4585C83.5084 15.4585 81.9588 12.233 81.7995 11.9009C83.3424 11.6052 85.1254 10.6389 85.1254 8.86925C85.1253 7.62917 84.2791 6.81404 82.1988 6.82117ZM81.887 7.06496C83.668 7.06496 84.0419 7.97551 84.0419 8.73875C84.0419 10.1248 83.4036 11.7768 80.3636 11.7768C80.3636 11.7768 79.0978 11.7768 79.0255 11.7768C79.0475 11.7041 80.4113 7.15649 80.4219 7.1198C80.6482 7.10018 81.3197 7.06496 81.887 7.06496ZM82.1984 6.82117C82.1984 6.82117 82.1984 6.82117 82.1988 6.82117C82.1984 6.82117 82.1984 6.82117 82.1984 6.82117Z" fill="black"/>
<path d="M25.4335 14.4846C23.8383 11.639 21.7154 7.14423 20.5877 1.90285H15.3494C13.9956 1.90285 11.7245 2.19799 11.7245 4.15899C11.7245 4.92842 12.3244 5.75859 13.2943 5.75859C14.1744 5.75859 14.6432 5.1663 14.6432 4.73905C14.6432 4.4724 14.4968 4.18614 14.1747 4.18614C13.851 4.18614 13.7063 4.46367 13.7063 4.73905C13.7063 5.07451 13.484 5.3089 13.1654 5.3089C12.5233 5.3089 12.0743 4.82036 12.0743 4.12189C12.0743 2.86245 13.1764 2.22393 15.3493 2.22393H17.5708C18.872 2.22393 19.446 2.8814 19.1198 4.20872C16.8937 12.2077 12.4397 20.756 6.61525 20.756C3.93536 20.756 2.53332 19.1621 2.53332 17.5867C2.53332 16.4472 3.29387 15.5958 3.97334 15.5958C4.4235 15.5958 4.58925 15.9001 4.74906 16.194C4.89898 16.4702 5.05418 16.7552 5.44092 16.7552C5.71268 16.7552 6.00145 16.5552 6.00145 16.1848C6.00145 15.5496 5.29535 15.0713 4.35863 15.0713C3.28174 15.0713 2.12891 16.0821 2.12891 17.5868C2.12891 19.6516 4.01567 21.1502 6.61538 21.1502C9.73251 21.1502 12.6426 18.9184 15.2655 14.5165C17.7712 10.3106 19.1393 5.55982 19.5342 4.0598C21.8167 12.3796 28.6327 23.8247 35.5877 23.8247C37.4516 23.8247 38.7533 22.7669 38.7533 21.2529C38.7533 20.3139 38.1928 19.5813 37.4775 19.5813C37.0479 19.5813 36.7703 19.7731 36.7703 20.0744C36.7703 20.3381 37.0084 20.4964 37.2392 20.4964C37.3571 20.4964 37.449 20.4557 37.538 20.4164C37.6193 20.3801 37.6967 20.346 37.7892 20.346C38.1662 20.346 38.4399 20.7512 38.4399 21.3091C38.4399 22.582 37.2636 23.5057 35.6427 23.5057C32.3086 23.5057 29.0417 20.6876 25.6549 14.8902C27.043 10.3217 29.833 2.67309 32.9454 2.67309C33.5137 2.67309 33.8673 2.81783 34.1793 2.94578C34.4248 3.04604 34.6566 3.14052 34.9459 3.14052C35.6193 3.14052 35.799 2.71139 35.799 2.45724C35.799 1.89223 35.2493 1.5127 34.4318 1.5127C29.8901 1.51229 27.1229 8.89611 25.4335 14.4846ZM49.3825 6.87745L49.3098 7.11775C50.1614 7.1785 50.4162 7.63976 50.4162 8.02064C50.4162 8.22775 50.3514 8.46375 50.2226 8.7265L46.5989 15.806L46.0527 8.13541C45.9939 7.34032 46.4172 7.12918 47.2588 7.12179L47.3318 6.87745H43.8785L43.8063 7.11775C44.6614 7.19033 44.9226 7.49461 44.9226 7.84888C44.9226 8.01822 44.8781 8.1885 44.755 8.44588C44.7547 8.44588 41.2211 15.7726 41.2211 15.7726L40.6717 8.15262C40.6285 7.28078 41.0574 7.15203 41.8478 7.12044L41.9191 6.87732H38.3924L38.3185 7.12044C39.3121 7.17958 39.6173 7.47243 39.6877 8.40434L40.3868 17.1906H40.8156L45.0684 8.39494L45.7629 17.1906H46.1727L50.5095 8.75243C51.0888 7.63666 51.7352 7.1742 52.5808 7.12017L52.6518 6.87745H49.3825ZM37.5137 6.87745H30.7777L30.7065 7.11856C31.2569 7.15848 31.6015 7.27406 31.7457 7.4852C31.8867 7.6919 31.8867 8.00706 31.7439 8.50675L29.6889 15.4824C29.4497 16.2697 28.869 16.7023 28.0049 16.7573L27.9143 17.0155H36.5037L37.9929 14.0176L37.8165 13.9406C36.5935 15.9232 34.7999 16.7519 31.6605 16.7519C31.6605 16.7519 30.4489 16.7519 30.3777 16.7519C30.3989 16.6802 31.8165 11.875 31.8285 11.8348C31.8689 11.8348 33.2569 11.8348 33.2569 11.8348C33.833 11.8348 34.217 11.9658 34.4315 12.235C34.6777 12.5439 34.7091 13.0714 34.5449 13.8721L34.7641 13.8731L35.9529 9.83595L35.7299 9.83434C35.3104 10.9541 34.4347 11.5901 33.2758 11.5901C33.2758 11.5901 31.972 11.5901 31.9008 11.5901C31.922 11.5183 33.2111 7.16144 33.2232 7.12165C33.2634 7.12165 34.5602 7.12165 34.5602 7.12165C36.2481 7.12165 37.3033 7.87603 37.6788 9.31341L37.8576 9.28694L37.5386 6.87732H37.5137V6.87745Z" fill="black"/>
</svg>
