<svg width="38" height="24" viewBox="0 0 38 24" fill="none" xmlns="http://www.w3.org/2000/svg">
<g clip-path="url(#clip0_34639_3085)">
<path d="M27.9238 23.4822L34.4067 11.9703L27.9487 0.482422H29.5632C30.4574 0.482422 31.5254 1.10991 31.9477 1.85807L37.6109 11.9703L31.9228 22.0825C31.5006 22.8547 30.4077 23.4581 29.5383 23.4581H27.9238V23.4822Z" fill="#20558A"/>
<path d="M2.51037 0.482422C1.31812 0.482422 0.349609 1.42384 0.349609 2.60641V21.3584C0.349609 22.5169 1.31812 23.4824 2.51037 23.4824H26.3059L32.7886 11.9702L26.3059 0.482422H2.51037ZM3.97594 6.85392H5.91354L10.6823 14.4321H10.7071V6.85392H12.4458V17.135H10.5087L5.7646 9.58079H5.71464V17.135H3.97594V6.85392ZM14.2592 6.85392H16.0973V17.135H16.0726H14.2592V6.85392ZM17.9103 6.85392H19.7484V10.9327H24.5177V6.85392H26.3306V17.135H24.4925V12.5014H19.7484V17.135H17.9103V6.85392Z" fill="#616265"/>
</g>
<defs>
<clipPath id="clip0_34639_3085">
<rect width="37.26" height="23" fill="white" transform="translate(0.349609 0.482422)"/>
</clipPath>
</defs>
</svg>
