<svg width="37" height="37" viewBox="0 0 37 37" fill="none" xmlns="http://www.w3.org/2000/svg">
<path d="M10.0295 24.4543C8.09755 24.4543 6.16555 24.4543 4.23355 24.4543C4.22155 24.3943 4.19755 24.3223 4.18555 24.2623C4.46155 24.1663 4.73755 24.0463 5.02555 23.9983C5.62555 23.8783 5.96155 23.5423 5.96155 22.9303C5.98555 20.8303 6.03355 18.7303 6.00955 16.6423C5.99755 15.6943 5.87755 15.6463 4.92955 15.4543C4.83355 15.4303 4.73755 15.4063 4.64155 15.3583C4.60555 15.3463 4.59355 15.2983 4.54555 15.2383C4.61755 15.1783 4.68955 15.1183 4.76155 15.0703C5.73355 14.4583 6.71755 13.8463 7.70155 13.2463C7.85755 13.1503 8.04955 13.1023 8.21755 13.0183C8.26555 13.1983 8.36155 13.3783 8.36155 13.5583C8.38555 14.0263 8.37355 14.4943 8.37355 14.9503C8.44555 14.9743 8.52955 15.0103 8.60155 15.0343C8.82955 14.8423 9.08155 14.6623 9.29755 14.4463C10.3535 13.4023 11.6015 12.8743 13.1015 13.1023C14.6495 13.3303 15.6815 14.4223 15.7535 16.0423C15.8375 17.8543 15.8015 19.6783 15.8135 21.5023C15.8135 21.9823 15.8375 22.4623 15.8615 22.9423C15.8855 23.5423 16.1735 23.9023 16.7855 24.0103C17.0255 24.0463 17.2535 24.1543 17.4815 24.2383C17.4695 24.2983 17.4575 24.3583 17.4575 24.4303C15.5135 24.4303 13.5695 24.4303 11.6255 24.4303C11.6135 24.3823 11.6015 24.3463 11.6015 24.2983C11.8895 24.2023 12.1775 24.1063 12.4775 24.0223C13.0775 23.8543 13.4015 23.4703 13.4015 22.8583C13.4015 20.7943 13.4495 18.7423 13.3775 16.6903C13.3295 15.3343 12.5495 14.6143 11.2895 14.5183C9.95755 14.4223 8.80555 15.1303 8.58955 16.3663C8.18155 18.6103 8.30155 20.8663 8.50555 23.1223C8.55355 23.6143 8.93755 23.8543 9.38155 24.0103C9.60955 24.0943 9.83755 24.1903 10.0655 24.2743C10.0535 24.3103 10.0415 24.3823 10.0295 24.4543Z" fill="#E60000"/>
<path d="M19.8697 15.1782C21.3097 13.2582 23.2777 12.8022 25.4737 13.1022C26.8417 13.2942 27.9937 13.9662 28.8817 15.0462C30.6937 17.2302 30.5497 20.9502 28.5457 22.9782C27.3217 24.2142 25.7977 24.7062 24.0817 24.6462C22.3537 24.5742 20.9257 23.9142 19.7737 22.3302C19.7497 22.7382 19.7257 22.9422 19.7257 23.1462C19.7257 25.1862 19.7137 27.2262 19.7377 29.2662C19.7377 29.7462 19.6057 29.9502 19.1017 29.9382C18.6337 29.9382 18.4297 29.8062 18.4297 29.3022C18.4417 24.1662 18.4417 19.0182 18.4297 13.8822C18.4297 13.3662 18.6577 13.2942 19.0777 13.3062C19.4857 13.3062 19.7857 13.3422 19.7377 13.8822C19.7017 14.2902 19.7257 14.6982 19.7257 15.1062C19.7737 15.1182 19.8217 15.1542 19.8697 15.1782ZM24.3457 14.1822C21.6097 14.1942 19.5937 16.1862 19.5937 18.8862C19.5937 21.4782 21.7177 23.5182 24.3937 23.5062C26.9737 23.4942 28.8937 21.4662 28.8577 18.8022C28.8217 16.0662 26.9737 14.1702 24.3457 14.1822Z" fill="#707070"/>
<path d="M32.6274 13.3662C32.6394 13.5822 32.6754 13.8222 32.6754 14.0502C32.6754 18.1302 32.6754 22.1982 32.6754 26.2782C32.6754 26.7942 32.6394 27.3222 32.5674 27.8262C32.2554 30.1662 29.9994 30.5022 28.5234 29.9622C28.5714 29.6502 28.6074 29.3262 28.6674 28.9662C28.9554 28.9902 29.1834 29.0262 29.4234 29.0382C30.5274 29.0982 31.2234 28.5102 31.3314 27.4182C31.3794 26.9982 31.3914 26.5782 31.4034 26.1582C31.4034 22.2222 31.4034 18.2862 31.4034 14.3502C31.3914 13.2102 31.4034 13.1862 32.6274 13.3662Z" fill="#707070"/>
<path d="M33.0338 8.74616C33.0458 9.28616 32.6018 9.75416 32.0618 9.76616C31.5098 9.77816 31.0298 9.34616 31.0178 8.81816C31.0058 8.25416 31.4618 7.77416 32.0258 7.77416C32.5658 7.76216 33.0218 8.20616 33.0338 8.74616Z" fill="#707070"/>
</svg>
