<svg width="86" height="24" viewBox="0 0 86 24" fill="none" xmlns="http://www.w3.org/2000/svg">
<path d="M15.0762 0.496338C17.3294 2.62206 22.998 19.5995 24.2876 23.4683V0.496338H15.0762Z" fill="#005699"/>
<path d="M18.2636 23.44C16.9598 19.4861 12.0565 2.70709 9.44893 0.496338H0.648438V23.44H0.832667L9.34973 1.07737L2.23564 23.44H2.46239L10.2284 2.59372L3.76617 23.44H4.06377L11.0928 4.40767L5.3392 23.4258H5.60846L9.25053 15.6173H8.3719L11.9148 6.23579L9.25053 15.6173H10.0441L6.81303 23.44H18.2636Z" fill="#005699"/>
<path d="M76.5241 22.8306C76.2974 22.8306 75.9714 22.8023 75.6455 22.7031C75.1495 22.5614 74.5259 22.1504 73.7607 20.2514C72.7687 17.7856 70.6713 12.3296 69.4242 9.05594L68.4605 6.54759C68.1913 5.85319 68.0779 5.65479 67.8512 5.65479C67.6244 5.65479 67.5252 5.85319 67.2418 6.61845L62.0692 20.7332C61.6299 21.952 61.1906 22.6747 60.2411 22.8023C60.2411 22.8023 60.1844 22.8023 60.1135 22.8165C59.986 22.8023 59.8443 22.7739 59.7026 22.7173C59.2066 22.5755 58.583 22.1646 57.8178 20.2656C56.8258 17.7998 54.7284 12.3296 53.4813 9.05594L52.5176 6.56176C52.2484 5.86736 52.135 5.66896 51.9082 5.66896C51.6815 5.66896 51.5823 5.86736 51.2989 6.63262L46.1546 20.7191C45.7153 21.9378 45.276 22.6606 44.3265 22.7881C44.3265 22.7881 44.2698 22.7881 44.199 22.8023C44.0714 22.7881 43.9297 22.7598 43.788 22.7031C43.292 22.5614 42.6684 22.1504 41.9032 20.2514C40.9112 17.7856 38.8138 12.3296 37.5667 9.05594L36.603 6.54759C36.3338 5.85319 36.2204 5.65479 35.9937 5.65479C35.7669 5.65479 35.6677 5.85319 35.3843 6.61845L30.2117 20.7332C29.7724 21.952 29.3331 22.6747 28.3836 22.8023L27.7317 22.8448C27.5475 22.8448 27.4199 22.944 27.4199 23.0857C27.4199 23.3833 27.7884 23.3833 27.9584 23.3833L30.0133 23.3266L30.5376 23.3125L31.1187 23.3408L32.3091 23.3833C32.6775 23.3833 32.7626 23.2274 32.7626 23.0857C32.7626 23.0007 32.7201 22.8448 32.4225 22.8448H32.1957C31.8981 22.8448 31.4446 22.7031 31.4446 22.2921C31.4446 21.8953 31.558 21.371 31.7564 20.8041L33.1169 16.7794C33.1594 16.6802 33.2019 16.666 33.2444 16.666H38.1336C38.1902 16.666 38.2044 16.6802 38.2328 16.7369L40.3443 22.3205C40.3727 22.4055 40.3868 22.4905 40.3868 22.5614C40.3868 22.6181 40.3727 22.6606 40.3585 22.7031C40.3301 22.7598 40.2876 22.7881 40.2735 22.7881C40.0751 22.8448 40.0325 22.9723 40.0325 23.0574C40.0325 23.2841 40.2876 23.2983 40.7128 23.3266H40.812C41.6623 23.355 42.6968 23.3691 43.7738 23.3691C43.8022 23.3691 43.8447 23.3691 43.8588 23.3691H43.8872C44.0431 23.3691 44.2131 23.3691 44.3832 23.3691C44.4824 23.3691 44.5674 23.355 44.6383 23.355L45.9137 23.3266L46.4381 23.3125L47.0191 23.3408L48.2237 23.3833C48.5921 23.3833 48.6771 23.2274 48.6771 23.0857C48.6771 23.0007 48.6346 22.8448 48.337 22.8448H48.1386C47.841 22.8448 47.3875 22.7031 47.3875 22.2921C47.3875 21.8953 47.5009 21.371 47.6993 20.8041L49.0598 16.7794C49.1023 16.6802 49.1448 16.666 49.1873 16.666H54.0765C54.1332 16.666 54.1473 16.6802 54.1757 16.7369L56.2872 22.3205C56.3156 22.4055 56.3298 22.4905 56.3298 22.5614C56.3298 22.6181 56.3156 22.6606 56.3014 22.7031C56.2731 22.7598 56.2306 22.7881 56.2164 22.7881C56.018 22.8448 55.9755 22.9723 55.9755 23.0574C55.9755 23.2841 56.2306 23.2983 56.6557 23.3266H56.7549C57.6052 23.355 58.6397 23.3691 59.7167 23.3691C59.7451 23.3691 59.7876 23.3691 59.8018 23.3691H59.8301C59.986 23.3691 60.1561 23.3691 60.3261 23.3691C60.4253 23.3691 60.5103 23.355 60.5812 23.355L61.8566 23.3266L62.381 23.3125L62.962 23.3408L64.1524 23.3833C64.5209 23.3833 64.6059 23.2274 64.6059 23.0857C64.6059 23.0007 64.5634 22.8448 64.2658 22.8448H64.039C63.7414 22.8448 63.288 22.7031 63.288 22.2921C63.288 21.8953 63.4013 21.371 63.5997 20.8041L64.9602 16.7794C65.0027 16.6802 65.0452 16.666 65.0877 16.666H69.9769C70.0336 16.666 70.0478 16.6802 70.0761 16.7369L72.1876 22.3205C72.216 22.4055 72.2302 22.4905 72.2302 22.5614C72.2302 22.6181 72.216 22.6606 72.2018 22.7031C72.1735 22.7598 72.131 22.7881 72.1168 22.7881C71.9184 22.8448 71.8759 22.9723 71.8759 23.0574C71.8759 23.2841 72.131 23.2983 72.5561 23.3266H72.6553C73.6757 23.355 74.9369 23.3691 76.2407 23.3691C76.6233 23.3691 76.8075 23.2699 76.8075 23.0715C76.8642 22.9015 76.7509 22.8306 76.5241 22.8306ZM69.7076 15.6173H65.4137V15.6032C65.4137 15.589 67.426 9.46692 67.426 9.46692C67.4544 9.38189 67.4685 9.33937 67.4969 9.31103C67.5111 9.33937 67.5394 9.38189 67.5677 9.46692C67.5394 9.46692 69.7076 15.6032 69.7076 15.6173C69.7076 15.6032 69.7076 15.6032 69.7076 15.6173C69.7076 15.6032 69.7076 15.6173 69.7076 15.6173ZM53.7789 15.6173H49.4849V15.6032C49.4849 15.589 51.4973 9.46692 51.4973 9.46692C51.5256 9.38189 51.5398 9.33937 51.5681 9.31103C51.5823 9.33937 51.6106 9.38189 51.639 9.46692C51.6106 9.46692 53.7789 15.6032 53.7789 15.6173C53.7789 15.6032 53.7647 15.6032 53.7789 15.6173C53.7647 15.6032 53.7789 15.6173 53.7789 15.6173ZM37.8501 15.6173H33.542V15.6032C33.542 15.589 35.5402 9.46692 35.5402 9.46692C35.5685 9.38189 35.5827 9.33937 35.611 9.31103C35.6252 9.33937 35.6536 9.38189 35.6819 9.46692C35.6819 9.46692 37.836 15.6032 37.8501 15.6173C37.836 15.6032 37.836 15.6032 37.8501 15.6173C37.836 15.6032 37.8501 15.6173 37.8501 15.6173Z" fill="#005699"/>
<path d="M77.2307 22.8448C76.919 22.6889 76.8906 22.5897 76.8906 21.9804C76.8906 20.8466 76.9757 19.9397 77.004 19.5712C77.0323 19.3161 77.0749 19.2027 77.1882 19.2027C77.3299 19.2027 77.3441 19.2736 77.3441 19.4578C77.3441 19.6562 77.3441 19.9822 77.415 20.2939C77.7551 21.9804 79.2573 22.6181 80.7878 22.6181C82.9702 22.6181 84.0472 21.045 84.0472 19.5995C84.0472 18.0265 83.3812 17.1195 81.4255 15.504L80.4052 14.6679C77.996 12.698 77.4433 11.2809 77.4433 9.73618C77.4433 7.29869 79.2573 5.64062 82.1482 5.64062C83.041 5.64062 83.6929 5.72565 84.2598 5.86737C84.6991 5.9524 84.8692 5.98074 85.0534 5.98074C85.2376 5.98074 85.2801 6.02326 85.2801 6.13663C85.2801 6.25 85.1951 7.00109 85.1951 8.54578C85.1951 8.91424 85.1526 9.07012 85.0392 9.07012C84.8975 9.07012 84.8833 8.95675 84.855 8.77252C84.8267 8.50326 84.6991 7.87972 84.5574 7.6388C84.4157 7.38372 83.8063 6.43423 81.7089 6.43423C80.1359 6.43423 78.903 7.41206 78.903 9.07012C78.903 10.3597 79.5407 11.1392 81.6806 12.8823L82.3183 13.3783C85.0109 15.4898 85.6486 16.907 85.6486 18.7209C85.6486 19.6562 85.2801 21.3851 83.7071 22.4905C82.7293 23.1708 81.4964 23.44 80.2776 23.44C79.2006 23.4542 78.1519 23.2983 77.2307 22.8448Z" fill="#005699"/>
<path d="M77.2307 22.8448C76.919 22.6889 76.8906 22.5897 76.8906 21.9804C76.8906 20.8466 76.9757 19.9397 77.004 19.5712C77.0323 19.3161 77.0749 19.2027 77.1882 19.2027C77.3299 19.2027 77.3441 19.2736 77.3441 19.4578C77.3441 19.6562 77.3441 19.9822 77.415 20.2939C77.7551 21.9804 79.2573 22.6181 80.7878 22.6181C82.9702 22.6181 84.0472 21.045 84.0472 19.5995C84.0472 18.0265 83.3812 17.1195 81.4255 15.504L80.4052 14.6679C77.996 12.698 77.4433 11.2809 77.4433 9.73618C77.4433 7.29869 79.2573 5.64062 82.1482 5.64062C83.041 5.64062 83.6929 5.72565 84.2598 5.86737C84.6991 5.9524 84.8692 5.98074 85.0534 5.98074C85.2376 5.98074 85.2801 6.02326 85.2801 6.13663C85.2801 6.25 85.1951 7.00109 85.1951 8.54578C85.1951 8.91424 85.1526 9.07012 85.0392 9.07012C84.8975 9.07012 84.8833 8.95675 84.855 8.77252C84.8267 8.50326 84.6991 7.87972 84.5574 7.6388C84.4157 7.38372 83.8063 6.43423 81.7089 6.43423C80.1359 6.43423 78.903 7.41206 78.903 9.07012C78.903 10.3597 79.5407 11.1392 81.6806 12.8823L82.3183 13.3783C85.0109 15.4898 85.6486 16.907 85.6486 18.7209C85.6486 19.6562 85.2801 21.3851 83.7071 22.4905C82.7293 23.1708 81.4964 23.44 80.2776 23.44C79.2006 23.4542 78.1519 23.2983 77.2307 22.8448Z" stroke="#005699" stroke-width="0.138294"/>
</svg>
