<svg width="24" height="24" viewBox="0 0 24 24" fill="none" xmlns="http://www.w3.org/2000/svg">
<path d="M12.1176 0.390137C11.4193 0.390137 11.714 1.41178 11.7684 1.74729C11.7684 1.76254 11.8228 4.05818 11.8384 4.58432C11.947 4.55382 12.0479 4.53058 12.1565 4.5077L12.3658 4.45454C12.3735 3.94366 12.4278 1.7555 12.4278 1.74025C12.4744 1.38949 12.8392 0.390141 12.1176 0.390137ZM12.6609 1.49556L12.6529 1.52682C12.6452 1.58019 12.6297 1.62569 12.6219 1.67144C13.8245 1.78582 14.9497 2.30455 15.811 3.13569L15.2056 3.72984L15.2287 3.62351L15.1515 3.58521L15.0505 3.59301L15.0735 3.52422L15.0035 3.28031L14.8564 3.12005L14.3831 2.87613L14.3441 2.92147L14.259 2.94493C14.4219 3.17369 14.5072 3.44828 14.5072 3.72279V3.82911L14.7402 4.11914L14.6313 4.1418L14.7013 4.2489L14.492 4.4545L14.4061 4.30206C14.3673 4.40881 14.3131 4.51545 14.251 4.60695L14.2979 4.64525L13.6536 5.27067C13.6148 5.23256 13.5763 5.20169 13.5375 5.16357C13.4754 5.19407 13.4134 5.2173 13.3513 5.24018L13.4054 5.27768L13.3744 5.30818L13.2972 5.34649L13.2662 5.4231L13.2193 5.37698L13.0872 5.4231L13.1262 5.48408L13.2193 5.46062L13.2813 5.46842L13.2892 5.43792L13.3354 5.41525L13.3513 5.39259L13.4364 5.36912H13.4985L13.5375 5.39963L13.2893 5.65135L13.2733 5.62869L13.01 5.67481L12.948 5.73579L12.8931 5.74285L13.0562 5.59041L12.9941 5.55991L12.839 5.75847L12.8859 5.75067V5.82728L12.94 5.84995L12.948 5.92578L12.8549 5.91093L12.7618 5.92578L12.5288 5.81164C12.5288 5.81164 12.5128 6.42208 12.5128 6.72709C13.056 6.9101 13.6384 7.16891 13.6384 7.85518C13.6462 8.14494 13.4906 8.41975 13.2423 8.57988L13.2272 8.58768L13.2113 8.60252C12.994 8.7474 12.707 8.82334 12.4587 8.89959L12.4508 9.38037C12.8465 9.57101 13.3199 9.85304 13.2733 10.6461C13.2655 10.8443 13.1882 10.8974 13.1262 10.9126C12.8934 10.966 12.6525 11.0045 12.4198 11.0197V11.1949C13.4439 11.1262 14.4066 10.7067 15.1514 10.0128L15.7878 10.6382C13.7472 12.575 10.5114 12.5754 8.46305 10.6539L9.09944 10.0285C9.83654 10.7071 10.7906 11.1186 11.7993 11.1948V11.0197C10.8372 10.9435 9.93695 10.5544 9.23865 9.89868L9.40172 9.73138L9.6348 9.75405L9.75889 9.62427L10.0842 9.6399L10.1312 9.52498L10.1161 9.47964C10.5971 9.83802 11.171 10.0667 11.7762 10.1277V9.95183C11.109 9.87557 10.4877 9.60118 9.99118 9.1513L10.6276 8.52589C10.7827 8.66314 10.9538 8.77758 11.1478 8.86908C11.1633 8.80808 11.1788 8.75516 11.2098 8.70178C11.0469 8.6179 10.8915 8.51831 10.7596 8.40393L11.396 7.7793C11.4969 7.85555 11.6129 7.9241 11.7293 7.96223V7.77148C11.6517 7.74098 11.5822 7.69528 11.5201 7.64952L11.6983 7.47363C11.6362 7.45837 11.5742 7.43552 11.5121 7.41265L11.388 7.53539C11.326 7.46676 11.2717 7.3904 11.2329 7.31414C11.1243 7.26839 11.0156 7.21469 10.9147 7.14606C10.5423 6.92494 10.3175 6.52063 10.3253 6.08599C10.3175 5.79624 10.403 5.5064 10.5814 5.27764L9.94504 4.65301C10.4106 4.21075 11.0079 3.92816 11.6442 3.82903V3.65397C10.9614 3.7531 10.3175 4.05835 9.82094 4.53111L9.71196 4.42401C9.68866 4.46215 9.65788 4.51564 9.62685 4.58427L9.69685 4.65307C9.13044 5.24021 8.81188 6.01732 8.79636 6.82559H7.88872C7.90424 5.78094 8.31541 4.78235 9.05251 4.01983L9.33968 4.30205H9.37865C9.43297 4.29445 9.49517 4.2788 9.54173 4.25593L9.1766 3.8979C9.37058 3.71489 9.58002 3.54713 9.80503 3.40226C9.82055 3.3565 9.8287 3.31061 9.85196 3.27248C9.89074 3.21148 9.93686 3.15055 9.99118 3.08955C9.64978 3.27256 9.33979 3.50124 9.06046 3.76812L8.42408 3.14271C9.27756 2.32682 10.3873 1.8161 11.5821 1.6941C11.5821 1.67124 11.5742 1.65579 11.5742 1.65579C11.5665 1.61004 11.5589 1.57236 11.5511 1.51899C8.5329 1.82399 6.35275 4.46978 6.67087 7.42836C6.96571 10.1658 9.30858 12.2478 12.1096 12.2401C15.1355 12.2401 17.5878 9.8229 17.5801 6.84907C17.5801 4.08875 15.4541 1.77769 12.6609 1.49556ZM8.02881 1.70976C7.04342 1.91564 6.22057 2.76904 5.99556 3.82131C6.30592 3.46293 6.84164 3.2574 7.14423 2.90664C7.44683 2.54826 7.54775 2.06052 8.02881 1.70976ZM16.1753 1.70976C16.6564 2.06052 16.7573 2.54826 17.0599 2.90664C17.3625 3.26503 17.8902 3.47074 18.2006 3.82913C17.9756 2.77685 17.1529 1.91564 16.1753 1.70976ZM12.847 2.04514L12.777 2.09048L12.6219 2.07563V2.11393C12.7228 2.12154 12.8235 2.12918 12.9011 2.14443L13.0332 2.13663L13.1652 2.14443L13.2193 2.09831L13.1183 2.05297L12.847 2.04514ZM12.5988 2.30391C12.5988 2.38777 12.5909 2.57909 12.5909 2.57909C12.5909 2.64008 12.5829 2.86089 12.5829 2.90664C12.645 2.91425 12.715 2.92169 12.777 2.9293C13.359 3.06654 13.5685 3.39472 13.5685 3.71498C13.5685 4.24111 13.1106 4.43961 12.5519 4.59212L12.3658 4.63746C12.1951 4.6756 12.017 4.72148 11.8463 4.76723C11.7843 4.78247 11.7223 4.79753 11.6602 4.82039C11.0395 5.00339 10.5036 5.30068 10.5036 6.05558C10.5036 6.81047 11.1168 7.08509 11.7143 7.2681C11.7143 7.05459 11.7061 6.83352 11.6984 6.62001C11.4268 6.49801 11.2489 6.3381 11.2489 6.07121C11.2489 5.80433 11.4192 5.65165 11.6753 5.53727C11.7296 5.51442 11.7916 5.49135 11.8614 5.46847C12.0088 5.41511 12.18 5.37741 12.3507 5.33167L12.5368 5.28554C13.3748 5.08729 14.3209 4.82844 14.3131 3.72279C14.3131 3.16615 13.902 2.5557 12.9011 2.34219C12.8003 2.32694 12.6997 2.31151 12.5988 2.30391ZM11.6053 2.38833C11.4191 2.44934 11.2333 2.51807 11.0548 2.60957C10.8608 2.67058 10.5814 2.68529 10.2943 2.99029C10.2012 3.09704 10.1156 3.21129 10.0302 3.32567C9.94488 3.44768 9.93719 3.64635 9.87511 3.74548C9.78201 3.89799 9.80511 3.98939 9.80511 3.98939C9.78959 4.05802 9.75144 4.12677 9.70488 4.18014C9.61177 4.28688 9.47146 4.33983 9.3318 4.31695C9.4637 4.37796 9.64283 4.29429 9.64283 4.29429C9.6118 4.37817 9.58835 4.46214 9.57283 4.54602C9.72025 4.21814 9.85163 4.10414 9.89818 4.06602C9.96025 4.08127 10.0928 4.0735 10.3333 3.93624C10.6049 3.78374 11.0156 3.53194 11.132 3.37181C11.2561 3.21168 11.4193 3.0816 11.6132 3.01298C11.6132 2.78422 11.6053 2.57134 11.6053 2.38833ZM6.15068 2.58612C4.83942 3.54689 5.39799 5.08758 5.32816 5.57559C6.00318 4.13443 7.00466 4.43964 7.4314 3.07473C7.18312 3.48649 6.08863 3.66161 5.5843 4.73676C5.8481 4.09624 5.71618 3.11988 6.15068 2.58612ZM18.0606 2.58612C18.5028 3.11226 18.3709 4.09624 18.627 4.73676C18.1149 3.66161 17.0212 3.4861 16.7807 3.05909C17.2074 4.43162 18.2081 4.12642 18.8831 5.55996C18.8133 5.07958 19.3718 3.53164 18.0606 2.58612ZM14.6313 2.78469L14.5382 2.85348L14.6544 2.91446L14.7864 3.00593L14.8023 2.92932L14.7482 2.84567L14.6313 2.78469ZM10.4884 3.15837L10.6825 3.16618L10.4574 3.40228L10.3174 3.43278L10.4884 3.15837ZM8.29211 3.25766L8.92849 3.88229C8.16036 4.66768 7.72613 5.72038 7.71062 6.81079H6.81013C6.82565 5.47638 7.35328 4.21081 8.29211 3.25766ZM15.943 3.27251C16.8741 4.22566 17.3936 5.49162 17.4091 6.81078H16.5094C16.5017 6.15502 16.3459 5.50683 16.0433 4.91969L16.0512 4.90404L16.1132 4.93455L16.1292 4.8892L15.9661 4.6148L15.772 4.35526L15.5469 4.17232C15.4693 4.08082 15.392 3.98943 15.3066 3.89793L15.943 3.27251ZM12.5678 3.63134V3.80645C12.8239 3.84456 13.0717 3.91274 13.3044 4.00424C13.3355 3.95087 13.3587 3.89814 13.3665 3.84476C13.1104 3.73801 12.8394 3.66946 12.5678 3.63134ZM5.08792 3.86743C3.88528 5.53735 5.15751 6.53614 5.20406 7.14616C5.50666 5.9795 6.22846 5.97215 6.69399 4.43187C6.56985 4.59962 6.48451 4.67529 6.15864 4.93454C5.66982 5.3158 5.3284 5.85738 5.21201 6.45977C5.24305 5.7125 4.77756 4.6452 5.08792 3.86743ZM19.1241 3.86743C19.4345 4.6452 18.9688 5.7125 18.9921 6.45977C18.868 5.85738 18.5343 5.3158 18.0455 4.93454C17.7196 4.66766 17.6343 4.59962 17.5101 4.43187C17.9757 5.97215 18.6968 5.9795 19.0072 7.14616C19.0538 6.54377 20.3268 5.54497 19.1241 3.86743ZM9.56487 4.38574C9.52606 4.39335 9.49469 4.4012 9.45589 4.39355L9.54181 4.48501C9.54955 4.45451 9.55713 4.41624 9.56487 4.38574ZM14.7944 4.4084L15.0115 4.41621L15.0656 4.47718L15.0426 4.56865L15.3456 4.75159L15.4077 4.74454L15.7879 5.17921L15.943 5.12526C16.1913 5.6514 16.3227 6.23123 16.3304 6.81075H15.4308C15.4308 6.582 15.4 6.36112 15.3456 6.14L15.3838 6.08605L15.4387 5.80383L15.3997 5.50677L15.2907 5.16357L15.0425 4.80552L15.1046 4.83602L15.1356 4.80552L14.9344 4.66793L14.9184 4.71405L15.1205 4.99549L15.2366 5.22455L15.3146 5.45361L15.3376 5.60605L15.3766 5.86481L15.2987 5.87262C15.2987 5.87262 15.2136 5.71297 15.1825 5.64434L15.2215 5.58337L15.1435 5.47627V5.37698L15.0895 5.30819L15.0194 5.31599C14.9962 5.27023 14.9725 5.22434 14.9415 5.18621L14.9884 5.20968L15.0035 5.19403L14.9805 5.14087L15.0425 5.11037L15.0195 5.07987L14.9344 5.11037L14.9654 4.97278L14.9105 4.94228L14.8644 5.04939C14.7635 4.90451 14.6546 4.76702 14.5382 4.63739L14.7944 4.4084ZM9.81307 4.7516L10.4494 5.37701C10.3175 5.52189 10.2015 5.68241 10.1161 5.85779H10.0692L9.97614 5.88046H9.9451L9.85203 5.96411L9.97613 5.94927L10.0843 5.92581L10.0613 5.95631L9.96819 6.01728H9.92205L9.78205 6.12439L9.64999 6.10954L9.4559 6.46759L9.49487 6.53639L9.38668 6.65834L9.37076 6.81079H8.96746C8.97519 6.04064 9.2777 5.30824 9.81307 4.7516ZM14.4141 4.77506C14.5615 4.93519 14.6939 5.11037 14.8103 5.29337L14.7323 5.31604L14.7402 5.45363L14.9725 5.59825C15.0346 5.72788 15.0817 5.85735 15.1205 5.99461L15.0815 6.05558L14.9964 6.11657L14.9725 6.24634L14.9105 6.27684L14.8643 6.33781L14.8174 6.31514H14.7323L14.7792 6.24635L14.8174 6.07123L14.8794 6.03293L14.7092 5.87266L14.5851 5.91879L14.5541 6.04074L14.4761 6.12439L14.391 6.0556L14.36 5.97976L14.4061 5.94927L14.43 5.99461L14.4681 5.97977L14.453 5.90316H14.3989V5.93366L14.36 5.94146L14.1659 5.7124L14.0959 5.65924L14.1189 5.63657L14.181 5.61391L14.1189 5.59044C14.1189 5.59044 14.0495 5.60607 14.0417 5.60607L14.0807 5.65923H13.9797C13.9176 5.56009 13.8552 5.47592 13.7776 5.39967L14.4141 4.77506ZM14.5231 5.02679L14.3831 5.09481L14.337 5.17924L14.3059 5.25507L14.368 5.35435L14.3441 5.39969L14.259 5.43019L14.2669 5.49899L14.422 5.45365L14.4682 5.36218L14.36 5.22459L14.4141 5.14094L14.5613 5.24023L14.5851 5.21676L14.5541 5.1941L14.523 5.13311L14.5851 5.10261L14.5231 5.02679ZM12.3427 5.52165C12.1798 5.55979 12.0166 5.60586 11.8614 5.65924C11.8692 5.93374 11.9084 7.96947 11.9084 8.1906C11.9859 8.1677 12.0629 8.13784 12.1327 8.12258C12.187 8.10732 12.2343 8.09172 12.2886 8.07646C12.2886 7.93158 12.3349 5.88766 12.3427 5.52165ZM13.6536 5.52165C13.7157 5.59028 13.7704 5.6596 13.8247 5.73585L13.7936 5.83435L13.7085 5.77337L13.6385 5.789L13.6695 5.84998H13.7006L13.6616 5.94145L13.6386 5.90314L13.5375 5.87264L13.6147 5.8578V5.84217L13.5375 5.78902L13.5606 5.62093L13.6536 5.52165ZM11.6673 5.72804C11.5121 5.81954 11.4349 5.92635 11.4271 6.07123C11.4271 6.22373 11.5203 6.32292 11.6832 6.41443V6.34563L11.5822 6.23852L11.6363 6.14003L11.6832 6.1244C11.6755 5.94902 11.6753 5.75854 11.6753 5.72804L11.6673 5.72804ZM4.37438 5.73584C3.88556 7.76414 5.18882 8.00028 5.53021 8.8543C5.47589 7.63428 6.26764 7.39001 6.20557 5.9946C5.85642 6.65799 5.30506 6.81082 5.36713 8.17573C5.0723 6.96332 4.36662 6.50598 4.37438 5.73584ZM19.8297 5.73584C19.8375 6.5136 19.1318 6.96352 18.837 8.18355C18.899 6.80339 18.3555 6.65799 17.9985 5.9946C17.9287 7.39001 18.7282 7.63428 18.6739 8.8543C19.0075 8.00791 20.3185 7.76414 19.8297 5.73584ZM15.1436 6.04072C15.1591 6.08647 15.167 6.13178 15.1825 6.17753L15.0966 6.42926V6.51291L15.2056 6.33779C15.2289 6.4903 15.2448 6.65044 15.2526 6.80294H14.461L14.4451 6.73415L14.5382 6.66613L14.5541 6.62001L14.5923 6.58951L14.7013 6.57467L14.7092 6.52854L14.6161 6.48242L14.7792 6.39877L14.9415 6.37611L14.9805 6.2995L15.0735 6.24633L15.1125 6.1705L15.1436 6.04072ZM9.67386 6.43708L9.86716 6.46758L9.89819 6.49808C9.88268 6.59721 9.87494 6.70384 9.86716 6.80297H9.64999L9.54897 6.6732L9.56489 6.49808L9.67386 6.43708ZM12.4978 6.90223C12.49 7.07761 12.4897 7.32881 12.4819 7.50419C12.6914 7.58044 12.8311 7.68022 12.8311 7.84035C12.8311 8.03861 12.6219 8.14522 12.4668 8.20622C12.4047 8.22907 12.3117 8.25957 12.2806 8.26719C12.1565 8.30534 12.0325 8.3434 11.9083 8.38915C11.8463 8.41205 11.7843 8.43448 11.7222 8.46498C11.5205 8.57173 11.295 8.73224 11.295 9.00675C11.295 9.31175 11.5203 9.47204 11.7453 9.60167C11.7453 9.54829 11.7373 9.08317 11.7373 9.07554C11.7451 8.98404 11.8308 8.92311 11.9084 8.89261C12.0247 8.83923 12.1485 8.79314 12.2727 8.75502C12.3425 8.73217 12.3968 8.70929 12.4588 8.69404C12.9166 8.55679 13.4444 8.38936 13.4444 7.84035C13.4444 7.29134 12.9944 7.06998 12.4978 6.90223ZM7.8888 6.97806H8.78929C8.78929 7.06194 8.79682 7.14611 8.81234 7.23761L8.70336 7.26027L8.6803 7.36738L8.44723 7.65741L8.45517 8.05377L8.22289 8.1296H8.09084C7.9667 7.75596 7.90432 7.37457 7.8888 6.97806ZM15.4307 6.97806H16.3304C16.2994 8.01509 15.8807 8.99884 15.1436 9.73848L15.0195 9.61652L15.0895 9.54069L15.0195 9.1975L14.9725 9.18187L15.0036 9.12089L14.8564 9.07555L14.8254 9.1975L14.8103 9.34995L14.7792 9.38045L14.5072 9.11387C15.0736 8.53435 15.3997 7.77871 15.4307 6.97806ZM16.5014 6.97806H17.4011C17.3701 8.2896 16.8349 9.54795 15.8961 10.4859L15.2677 9.86043C16.0358 9.08266 16.4782 8.05321 16.5014 6.97806ZM6.81013 6.98586H7.71062C7.71836 7.36713 7.78833 7.75654 7.90471 8.12255L7.84983 8.11475L7.79573 8.06159L7.53959 8.03813L7.61754 8.14523L7.38447 8.09911L7.44652 8.04595L7.39242 7.99279L7.2214 8.06158L7.15935 8.1679L7.18322 8.41963L7.37652 8.87696L7.46958 9.02159L7.52448 9.03722L7.37652 8.76282L7.34548 8.62522L7.37652 8.59472L7.35346 8.5189L7.43858 8.53374L7.57858 8.7323L7.60962 8.74714V8.60252L7.66371 8.63302L7.67963 8.70963L7.81884 8.74713L7.88089 8.70179L7.90476 8.71663V8.82373L7.96681 8.89956L8.04397 8.91519L8.21499 9.18959L8.31602 9.22009L8.34706 9.09032C8.52551 9.37245 8.727 9.63961 8.96753 9.87599L8.33115 10.5014C7.38456 9.56351 6.84117 8.30502 6.81013 6.98586ZM8.96747 6.98586H9.23873L9.17668 7.19928L9.25464 7.28372L9.16952 7.41271H9.02157L9.01362 7.40565C8.99037 7.26839 8.97524 7.12312 8.96747 6.98586ZM9.47181 6.98586H9.68102L9.71205 7.04684L9.66591 7.25323L9.64286 7.29073L9.72002 7.45882L9.66593 7.48932L9.62695 7.44319L9.61184 7.45882L9.65 7.5581L9.71205 7.67224H9.74308L9.75901 7.56592L9.72797 7.52761V7.45885L9.72003 7.31422L9.76696 7.05468L9.72003 6.98588H9.86719C9.89823 7.51202 10.116 8.00789 10.4885 8.38915L9.85208 9.00675C9.79001 8.93812 9.72025 8.86977 9.66594 8.80114L9.69697 8.5799L9.6039 8.36648L9.58004 8.03111L9.47185 7.82472L9.49491 7.69494L9.36286 7.45103L9.25467 7.39787L9.30081 7.2681L9.25467 7.16881L9.30081 7.05468H9.4249L9.47181 6.98586ZM14.5462 6.99367H15.2366C15.2056 7.74856 14.8956 8.46533 14.368 9.00672L14.2749 8.91525L14.3131 8.79329L14.2439 8.51889L14.1039 8.7245L14.0187 8.64085L14.0808 8.5572L14.1659 8.38912L14.1349 8.343L14.189 8.22104L14.181 8.1069L14.15 7.99277L14.0728 7.9693L14.0418 8.03106L13.9949 8.01543C14.0647 7.9163 14.1267 7.80166 14.181 7.69491L14.2589 7.66441L14.3059 7.60343L14.3289 7.62689L14.383 7.56591L14.3369 7.51197L14.3751 7.50417L14.4451 7.53543H14.5851L14.6702 7.4893L14.8873 7.42832L14.8484 7.35953L14.8333 7.27588L14.9494 7.32904L14.9963 7.30638L14.9725 7.21491L14.8253 7.26807L14.6702 7.23757L14.5462 6.99367ZM10.0461 7.09295L10.1782 7.22976H10.3023L10.4646 7.33686L10.5115 7.3142L10.6276 7.39785L10.5735 7.43615L10.7056 7.5198L10.6976 7.42833L10.7677 7.3142L10.8448 7.39003L10.9228 7.49713L10.7828 7.53544L10.8448 7.65739L10.9379 7.60345L10.9228 7.56594L10.9928 7.51982L11.0309 7.32906C11.0853 7.44345 11.1556 7.55027 11.2409 7.64177L10.6046 8.26719C10.2942 7.94693 10.1005 7.53521 10.0461 7.09295ZM6.14352 7.44318C6.09697 8.16758 5.59988 8.51857 5.93352 9.83773C5.3516 8.71683 4.45204 8.29795 4.18823 7.53543C4.20375 9.63236 5.91823 9.94461 6.35273 10.5241C5.98806 9.18972 6.63234 8.72421 6.14352 7.44318ZM18.0606 7.44318C17.5718 8.72421 18.216 9.18972 17.8514 10.5241C18.2859 9.94461 20.0004 9.63236 20.0159 7.53543C19.7521 8.30558 18.8525 8.71683 18.2706 9.83773C18.6042 8.51857 18.1071 8.16758 18.0606 7.44318ZM12.4899 7.70273C12.4899 7.74084 12.4819 7.91612 12.4819 8.00762C12.5828 7.95424 12.6529 7.90875 12.6529 7.83251C12.6529 7.78675 12.5911 7.74086 12.5058 7.70273H12.4899ZM13.5606 8.54156L13.7236 8.65571L13.8477 8.71668L13.9098 8.77766L13.8787 8.80816L13.6846 8.75499L13.6226 8.77766L13.5144 8.69401L13.4134 8.65571C13.4677 8.61756 13.514 8.57969 13.5606 8.54156ZM12.2806 8.9301C12.2806 8.9301 12.2105 8.95316 12.1717 8.9684C12.1484 8.976 12.079 9.00631 12.0325 9.02157C11.9859 9.03683 11.9314 9.06027 11.9314 9.07551C11.9314 9.07551 11.9776 11.4235 11.9776 11.4693C11.9776 11.9497 12.2265 11.9573 12.2265 11.4693C12.2265 11.4388 12.2806 8.9301 12.2806 8.9301ZM6.53888 9.02157C6.66302 9.57821 6.30578 10.3942 6.87218 11.1644C6.29026 10.5239 5.04894 10.3564 4.54461 9.3804C5.17308 11.7671 6.8184 11.2791 7.5555 11.7976C6.9503 10.936 7.44667 10.3636 6.53888 9.02157ZM17.6573 9.02157C16.7495 10.3636 17.2459 10.936 16.6407 11.7976C17.3855 11.2791 19.0231 11.7671 19.6515 9.3804C19.1472 10.3564 17.9139 10.5239 17.3319 11.1644C17.8983 10.3942 17.5409 9.58583 17.6573 9.02157ZM7.59447 9.14431L7.75675 9.39525L7.7647 9.35775L7.68754 9.18185L7.59447 9.14431ZM14.3751 9.24281L15.0115 9.86822C14.7788 10.0894 14.5151 10.2874 14.228 10.4475L14.3131 10.2724L14.2821 10.1966L14.4062 10.0895V10.0285L14.298 9.95969L14.3831 9.78458L14.5151 9.6165L14.3831 9.47969H14.2821L14.22 9.38038C14.2743 9.33463 14.3286 9.28856 14.3751 9.24281ZM8.99054 9.47186L9.19259 9.586L9.23157 9.6165L9.08361 9.76191C9.01378 9.69328 8.95159 9.62474 8.88951 9.54848L8.99054 9.47186ZM12.4437 9.55551L12.4358 9.90653C12.7151 10.0438 12.9786 10.2418 13.0873 10.6078C13.1338 9.99776 12.7851 9.73852 12.4437 9.55551ZM7.40754 10.4405C7.71013 10.898 7.3998 11.4697 8.35416 12.3542C7.42308 11.8129 6.12785 12.0412 5.50714 11.3168C6.57787 13.3299 8.45498 12.5068 8.98259 12.7584C8.47825 12.0722 8.81966 11.6834 7.40754 10.4405ZM16.7966 10.4405C15.3767 11.6834 15.7257 12.0722 15.2136 12.7584C15.7489 12.5068 17.626 13.3299 18.689 11.3168C18.0761 12.0489 16.781 11.8129 15.85 12.3542C16.8043 11.4621 16.494 10.8904 16.7966 10.4405ZM10.6897 12.6287C10.1621 12.6439 9.64283 12.7281 9.1385 12.8577C8.28502 13.0788 7.5472 13.2538 6.90321 12.9335C7.51616 13.4673 8.23801 13.6655 9.27771 13.5511C10.139 13.4596 10.8375 13.033 11.6522 13.0406H11.6832C11.1712 13.2923 10.7129 13.6432 10.3405 14.0702L10.7366 14.1234C10.7366 14.1234 11.1473 13.3073 12.1017 13.0938C13.056 13.3073 13.4675 14.1234 13.4675 14.1234L13.8637 14.0702C13.4912 13.6432 13.033 13.2923 12.5209 13.0406H12.5519C13.3666 13.033 14.0652 13.4596 14.9264 13.5511C15.9661 13.6579 16.6802 13.4673 17.3009 12.9335C16.6569 13.2538 15.9191 13.0788 15.0656 12.8577C14.5613 12.7281 14.0421 12.6439 13.5144 12.6287C13.0334 12.621 12.5517 12.697 12.1017 12.8647C11.6517 12.697 11.1707 12.621 10.6897 12.6287ZM7.88721 15.2053V18.5669H8.45677V15.2053H7.88721ZM10.1949 15.2053V16.5945H10.1885C10.0823 16.361 9.84501 16.2133 9.58239 16.2255C9.07591 16.2255 8.76941 16.6619 8.76941 17.4177C8.76941 18.0568 9.01282 18.6037 9.59432 18.6037C9.95698 18.6037 10.1258 18.4071 10.2196 18.2104H10.2323C10.2323 18.3272 10.2381 18.4502 10.2506 18.5669H10.7828C10.7703 18.4379 10.7637 18.3027 10.7637 18.1737V15.2053H10.1949ZM19.2737 15.2053V18.5669H19.8361V15.2053H19.2737ZM21.6999 15.2053V18.5669H22.2623V17.2215C22.2623 16.9266 22.3686 16.6805 22.6624 16.6805C22.8938 16.6805 22.9878 16.8284 22.9878 17.1848V18.5669H23.5502V17.08C23.5502 16.613 23.388 16.2255 22.8565 16.2255C22.5064 16.2255 22.3751 16.4165 22.275 16.5578H22.2623V15.2053H21.6999ZM0.609375 15.4391L1.25928 18.5732H1.94737L2.44773 16.0043H2.45408L2.93534 18.5732H3.63536L4.29243 15.4391H3.76105L3.29172 17.854H3.28536L2.81047 15.4391H2.09692L1.61565 17.854H1.61007L1.15983 15.4391L0.609375 15.4391ZM12.4453 15.4391V18.5669H13.0332V17.1848H13.9774V18.5732H14.5589V15.4391H13.9774V16.711H13.0332V15.4391L12.4453 15.4391ZM21.0492 15.6111L20.4868 15.7831H20.4804V16.2623H20.105V16.668H20.4804V17.9274C20.4804 18.4129 20.7178 18.6037 21.1367 18.6037C21.268 18.6037 21.3997 18.5794 21.5185 18.5302V18.137C21.456 18.1677 21.3804 18.1862 21.3054 18.1862C21.1428 18.1862 21.0492 18.1123 21.0492 17.8665V16.6618H21.5185V16.256H21.0492L21.0492 15.6111ZM5.11735 16.2201C4.64215 16.2201 4.08631 16.4658 4.08005 17.406C4.08005 18.3708 4.63589 18.5974 5.11735 18.5974C5.59881 18.5974 6.14909 18.3769 6.14909 17.406C6.14909 16.4658 5.59881 16.2201 5.11735 16.2201ZM17.8546 16.2201C17.5982 16.2201 17.3413 16.2807 17.11 16.3913L17.1482 16.8338C17.3357 16.6924 17.5603 16.6132 17.7917 16.607C18.1168 16.607 18.2292 16.8222 18.2292 17.0495V17.1355H18.1163C17.3972 17.1355 16.8785 17.2952 16.8785 17.922C16.8785 18.3521 17.2166 18.5974 17.5793 18.5974C17.917 18.5974 18.0918 18.4377 18.2356 18.2472H18.2419C18.2357 18.3517 18.248 18.4562 18.273 18.5607H18.786C18.7673 18.4255 18.755 18.2901 18.755 18.1549V17.1472C18.755 16.5696 18.5861 16.2201 17.8546 16.2201ZM7.54993 16.2255C7.19351 16.2255 7.01813 16.5023 6.94934 16.6805H6.94299C6.94299 16.5392 6.93093 16.3974 6.9247 16.256H6.41162C6.42412 16.3851 6.43072 16.5085 6.43072 16.6375L6.43708 18.5732H6.99948V17.3067C6.99948 16.8766 7.25575 16.736 7.4871 16.736C7.53712 16.736 7.59379 16.748 7.64382 16.7602V16.238C7.61258 16.2319 7.58119 16.2255 7.54993 16.2255ZM15.8102 16.2255C15.2099 16.2255 14.8405 16.7608 14.8405 17.449C14.8405 18.0696 15.1721 18.6037 15.9287 18.6037C16.1663 18.6037 16.4099 18.555 16.6287 18.4567L16.6096 18.0259C16.5033 18.0997 16.3346 18.2042 15.9907 18.2042C15.5531 18.2042 15.3909 17.965 15.3909 17.5717H16.7472V17.4607C16.7472 16.5144 16.3167 16.2255 15.8102 16.2255ZM15.803 16.6008C16.0594 16.6008 16.1976 16.8097 16.1976 17.2152H15.3846C15.3846 16.908 15.5029 16.6008 15.803 16.6008ZM5.11735 16.6187C5.48626 16.6187 5.56759 17.0243 5.56759 17.4115C5.56759 17.7986 5.48001 18.2104 5.11735 18.2104C4.75469 18.2104 4.66711 17.7986 4.66711 17.4115C4.66711 17.0243 4.74844 16.6187 5.11735 16.6187ZM9.75101 16.6312C10.0636 16.6312 10.1885 16.9574 10.1885 17.406C10.1885 17.8361 10.076 18.1917 9.74465 18.1917C9.41951 18.1917 9.33168 17.9281 9.32543 17.3935C9.32543 16.9326 9.43838 16.6312 9.75101 16.6312ZM18.1727 17.4365H18.1735H18.2229H18.2292V17.5709C18.2292 17.9826 18.1047 18.2292 17.767 18.2292H17.7225C17.5349 18.2169 17.3918 18.057 17.4043 17.8727C17.4043 17.5347 17.6913 17.4365 18.1727 17.4365ZM11.6578 19.2861V19.8326H12.2456V19.2861H11.6578ZM18.3422 19.2861V19.8326H18.9237V19.2861H18.3422ZM1.90362 19.4026C1.24082 19.4026 0.634031 19.8878 0.634031 21.0123C0.634031 22.1368 1.24082 22.6227 1.90362 22.6227C2.5664 22.6227 3.1732 22.1368 3.1732 21.0123C3.1732 19.8878 2.5664 19.4026 1.90362 19.4026ZM17.5292 19.6239L16.9668 19.7959L16.9596 20.2688H16.585V20.6746H16.9596V21.941C16.9596 22.4203 17.1978 22.6102 17.6167 22.6102C17.748 22.6163 17.8789 22.592 17.9977 22.5367V22.1435C17.9352 22.1804 17.8604 22.1928 17.7853 22.1928C17.6228 22.1928 17.5292 22.1188 17.5292 21.873V20.6746H17.9977V20.2688H17.5292L17.5292 19.6239ZM1.90361 19.8451C2.27252 19.8451 2.57261 20.1458 2.57261 21.0123C2.57261 21.8787 2.27252 22.1865 1.90361 22.1865C1.5347 22.1865 1.23462 21.8726 1.23462 21.0123C1.23462 20.152 1.5347 19.8451 1.90361 19.8451ZM8.01209 20.2321C7.75573 20.2321 7.49967 20.2881 7.26832 20.4048L7.30571 20.8465C7.49328 20.7052 7.7187 20.6252 7.95005 20.619C8.2752 20.619 8.38756 20.8342 8.38756 21.0615V21.1475H8.2754C7.55634 21.1475 7.03684 21.3072 7.03684 21.934C7.03684 22.3641 7.37421 22.6102 7.73686 22.6102C8.07451 22.6102 8.25011 22.4505 8.39392 22.26H8.40028C8.39405 22.3644 8.4063 22.469 8.43131 22.5735H8.9436C8.92482 22.4383 8.91256 22.3029 8.91256 22.1677V21.16C8.91256 20.5824 8.74366 20.2321 8.01209 20.2321ZM15.453 20.2321C15.1966 20.2321 14.9406 20.2881 14.7092 20.4048L14.7466 20.8465C14.9342 20.7052 15.1596 20.6252 15.391 20.619C15.7161 20.619 15.8285 20.8342 15.8285 21.0615V21.1475H15.7155C14.9965 21.1475 14.4777 21.3072 14.4777 21.934C14.4777 22.3641 14.8159 22.6102 15.1786 22.6102C15.5162 22.6102 15.691 22.4505 15.8348 22.26H15.8412C15.835 22.3644 15.8472 22.469 15.8722 22.5735H16.3845C16.3658 22.4383 16.3535 22.3029 16.3535 22.1677V21.16C16.3535 20.5824 16.1846 20.2321 15.453 20.2321ZM20.2672 20.2321C19.792 20.2321 19.2362 20.484 19.2299 21.418C19.2299 22.3889 19.7858 22.6102 20.2672 22.6102C20.7487 22.6102 21.2998 22.3889 21.2998 21.418C21.2998 20.4778 20.7487 20.2321 20.2672 20.2321ZM4.52949 20.2383C4.17933 20.2383 3.99848 20.5151 3.9297 20.6933H3.92335C3.92335 20.552 3.91048 20.4101 3.90424 20.2688H3.39195C3.40446 20.3978 3.41024 20.5212 3.41024 20.6503V22.5859H3.97344V21.3203C3.97344 20.8901 4.22971 20.748 4.46107 20.748C4.51734 20.748 4.57333 20.7608 4.62334 20.773V20.2508C4.59211 20.2447 4.56075 20.2383 4.52949 20.2383ZM5.6177 20.2383C4.99868 20.2383 4.76734 20.7977 4.76734 21.4368C4.76734 22.3708 5.26153 22.5859 5.58668 22.5859C5.95559 22.5859 6.11178 22.3709 6.20556 22.1927H6.21192V22.414C6.21192 22.7765 6.12372 23.1387 5.59224 23.1387C5.34838 23.1325 5.11118 23.0653 4.89858 22.9424L4.8739 23.4342C5.13027 23.5263 5.4046 23.5749 5.67972 23.5749C6.5426 23.5749 6.76794 23.0656 6.76794 22.3405V20.6378C6.76794 20.5149 6.78081 20.3979 6.78704 20.275H6.27475C6.26853 20.3918 6.25565 20.5086 6.25565 20.6315H6.23655C6.11775 20.4287 5.9616 20.2383 5.6177 20.2383ZM10.5322 20.2383C10.1508 20.2383 9.98821 20.4839 9.90693 20.6253H9.90057C9.90057 20.5085 9.88852 20.3855 9.88228 20.2688H9.35011C9.36261 20.3978 9.36921 20.5212 9.36921 20.6503V22.5734H9.93241V21.228C9.93241 20.9331 10.0387 20.687 10.3325 20.687C10.5639 20.687 10.6571 20.8341 10.6571 21.1905V22.5797H11.2267V21.092C11.2267 20.625 11.0636 20.2383 10.5322 20.2383ZM22.9122 20.2383C22.5308 20.2383 22.369 20.4839 22.2878 20.6253H22.2814C22.2814 20.5085 22.2686 20.3855 22.2623 20.2688H21.7309C21.7434 20.3978 21.75 20.5212 21.75 20.6503L21.7556 22.5734H22.3188V21.228C22.3188 20.9331 22.4251 20.687 22.7189 20.687C22.9503 20.687 23.0443 20.8341 23.0443 21.1905V22.5797H23.6067V21.092C23.6067 20.625 23.4437 20.2383 22.9122 20.2383ZM11.6705 20.2688V22.5797H12.2329V20.2688H11.6705ZM12.7086 20.2688V20.6933H13.6839L12.6768 22.1005H12.6704V22.5797H14.2781V22.1552H13.2583L14.2463 20.7426V20.2688H12.7086ZM18.3541 20.2688L18.3605 22.5797H18.9237V20.2688H18.3541ZM20.2672 20.6315C20.6362 20.6315 20.7175 21.0371 20.7175 21.4243C20.7175 21.8114 20.6299 22.2232 20.2672 22.2232C19.9046 22.2232 19.8178 21.8114 19.8178 21.4243C19.8178 21.0371 19.8983 20.6315 20.2672 20.6315ZM5.76168 20.662C6.03055 20.6559 6.21829 20.9138 6.21829 21.3993C6.21829 21.9216 6.07434 22.174 5.71793 22.174C5.5241 22.174 5.34883 21.947 5.34883 21.4063C5.34883 20.9393 5.46155 20.6682 5.76168 20.662ZM8.33108 21.4485H8.3812L8.38755 21.5845C8.38755 21.9962 8.26223 22.2412 7.92458 22.2412H7.88083C7.69325 22.2289 7.54933 22.0691 7.56184 21.8847C7.56184 21.5468 7.84962 21.4485 8.33108 21.4485ZM15.772 21.4485H15.8221H15.8285V21.5845C15.8285 21.9962 15.7031 22.2412 15.3655 22.2412H15.3217C15.1342 22.2289 14.9902 22.0691 15.0028 21.8847C15.0028 21.5468 15.2905 21.4485 15.772 21.4485Z" fill="#3391CF"/>
</svg>
