<svg width="375" height="300" viewBox="0 0 375 300" fill="none" xmlns="http://www.w3.org/2000/svg">
<g clip-path="url(#clip0)">
<rect width="375" height="300" fill="white"/>
<path d="M201 -93.046V72C201 72.5523 200.552 73 200 73H178C177.448 73 177 72.5523 177 72V-149C177 -149.552 177.448 -150 178 -150H200C200.552 -150 201 -149.552 201 -149V-101.581" fill="white"/>
<path d="M201 -93.046V72C201 72.5523 200.552 73 200 73H178C177.448 73 177 72.5523 177 72V-149C177 -149.552 177.448 -150 178 -150H200C200.552 -150 201 -149.552 201 -149V-101.581" stroke="black" stroke-width="1.5" stroke-miterlimit="10"/>
<circle cx="188.5" cy="168.5" r="114.75" fill="white" stroke="black" stroke-width="1.5"/>
<circle opacity="0.5" cx="188.082" cy="168.582" r="53.5" transform="rotate(-30 188.082 168.582)" fill="url(#paint0_linear)"/>
<path d="M240.342 36L139 36C138.448 36 138 36.4477 138 37L138 46.9255C138 47.4778 138.448 47.9255 139 47.9255L240.342 47.9255C240.895 47.9255 241.342 47.4778 241.342 46.9255L241.342 37C241.342 36.4477 240.895 36 240.342 36Z" fill="white" stroke="black" stroke-width="1.5" stroke-miterlimit="10"/>
<path d="M225.906 48L152.906 48C152.354 48 151.906 48.4477 151.906 49L151.906 59C151.906 59.5523 152.354 60 152.906 60L225.906 60C226.459 60 226.906 59.5523 226.906 59L226.906 49C226.906 48.4477 226.459 48 225.906 48Z" fill="white" stroke="black" stroke-width="1.5" stroke-miterlimit="10"/>
<g style="mix-blend-mode:multiply">
<mask id="path-7-inside-1" fill="white">
<rect x="183" y="-6" width="12" height="12" rx="1"/>
</mask>
<rect x="183" y="-6" width="12" height="12" rx="1" stroke="black" stroke-width="3" stroke-dasharray="1.8 1.8" mask="url(#path-7-inside-1)"/>
</g>
<g style="mix-blend-mode:multiply">
<mask id="path-8-inside-2" fill="white">
<rect x="183" y="9" width="12" height="12" rx="1"/>
</mask>
<rect x="183" y="9" width="12" height="12" rx="1" stroke="black" stroke-width="3" stroke-dasharray="1.8 1.8" mask="url(#path-8-inside-2)"/>
</g>
<g style="mix-blend-mode:multiply">
<mask id="path-9-inside-3" fill="white">
<rect x="183" y="24" width="12" height="12" rx="1"/>
</mask>
<rect x="183" y="24" width="12" height="12" rx="1" stroke="black" stroke-width="3" stroke-dasharray="1.8 1.8" mask="url(#path-9-inside-3)"/>
</g>
<path d="M225.814 102.56C219.308 102.56 214.034 97.2862 214.034 90.7802C214.034 84.2742 219.308 79 225.814 79C232.32 79 237.594 84.2742 237.594 90.7802C237.594 97.2862 232.32 102.56 225.814 102.56Z" fill="white"/>
<path d="M225.814 102.56C219.308 102.56 214.034 97.2862 214.034 90.7802C214.034 84.2742 219.308 79 225.814 79C232.32 79 237.594 84.2742 237.594 90.7802C237.594 97.2862 232.32 102.56 225.814 102.56ZM225.814 102.56L242.012 132.011M225.814 102.56L206.671 132.011M225.814 102.56L169.858 132.011M225.814 102.56L133.045 132.011" stroke="black" stroke-width="1.5"/>
<path d="M189 102.56C182.494 102.56 177.22 97.2862 177.22 90.7802C177.22 84.2742 182.494 79 189 79C195.506 79 200.78 84.2742 200.78 90.7802C200.78 97.2862 195.506 102.56 189 102.56Z" fill="white"/>
<path d="M189 102.56C182.494 102.56 177.22 97.2862 177.22 90.7802C177.22 84.2742 182.494 79 189 79C195.506 79 200.78 84.2742 200.78 90.7802C200.78 97.2862 195.506 102.56 189 102.56ZM189 102.56L241.274 131.275M189 102.56L206.67 131.275M189 102.56L170.593 131.275M189 102.56L133.044 131.275" stroke="black" stroke-width="1.5"/>
<path d="M152.187 102.56C145.681 102.56 140.407 97.2862 140.407 90.7802C140.407 84.2742 145.681 79 152.187 79C158.693 79 163.967 84.2742 163.967 90.7802C163.967 97.2862 158.693 102.56 152.187 102.56Z" fill="white"/>
<path d="M152.187 102.56C145.681 102.56 140.407 97.2862 140.407 90.7802C140.407 84.2742 145.681 79 152.187 79C158.693 79 163.967 84.2742 163.967 90.7802C163.967 97.2862 158.693 102.56 152.187 102.56ZM152.187 102.56L242.747 132.011M152.187 102.56L206.67 132.011M152.187 102.56L171.33 132.011M152.187 102.56L133.044 132.011" stroke="black" stroke-width="1.5"/>
<path d="M189 238.03C182.494 238.03 177.22 243.304 177.22 249.81C177.22 256.316 182.494 261.591 189 261.591C195.506 261.591 200.78 256.316 200.78 249.81C200.78 243.304 195.506 238.03 189 238.03Z" fill="white" stroke="black" stroke-width="1.5"/>
<path d="M244.22 155.572C237.714 155.572 232.44 150.298 232.44 143.791C232.44 137.285 237.714 132.011 244.22 132.011C250.726 132.011 256 137.285 256 143.791C256 150.298 250.726 155.572 244.22 155.572Z" fill="white"/>
<path d="M244.22 155.572C237.714 155.572 232.44 150.298 232.44 143.791C232.44 137.285 237.714 132.011 244.22 132.011C250.726 132.011 256 137.285 256 143.791C256 150.298 250.726 155.572 244.22 155.572ZM244.22 155.572L244.22 185.022M244.22 155.572L206.67 185.022M244.22 155.572L169.121 185.022M244.22 155.572L131.572 185.022" stroke="black" stroke-width="1.5"/>
<path d="M207.407 155.572C200.901 155.572 195.626 150.298 195.626 143.791C195.626 137.285 200.901 132.011 207.407 132.011C213.913 132.011 219.187 137.285 219.187 143.791C219.187 150.298 213.913 155.572 207.407 155.572Z" fill="white"/>
<path d="M207.407 155.572C200.901 155.572 195.626 150.298 195.626 143.791C195.626 137.285 200.901 132.011 207.407 132.011C213.913 132.011 219.187 137.285 219.187 143.791C219.187 150.298 213.913 155.572 207.407 155.572ZM207.407 155.572L244.22 184.286M207.407 155.572L207.407 184.286M207.407 155.572L169.857 184.286M207.407 155.572L131.572 185.758" stroke="black" stroke-width="1.5"/>
<path d="M170.593 155.572C164.087 155.572 158.813 150.298 158.813 143.791C158.813 137.285 164.087 132.011 170.593 132.011C177.099 132.011 182.374 137.285 182.374 143.791C182.374 150.298 177.099 155.572 170.593 155.572Z" fill="white"/>
<path d="M170.593 155.572C164.087 155.572 158.813 150.298 158.813 143.791C158.813 137.285 164.087 132.011 170.593 132.011C177.099 132.011 182.374 137.285 182.374 143.791C182.374 150.298 177.099 155.572 170.593 155.572ZM170.593 155.572L244.22 185.022M170.593 155.572L207.407 185.022M170.593 155.572L170.593 185.022M170.593 155.572L133.044 185.022" stroke="black" stroke-width="1.5"/>
<path d="M133.78 155.572C127.274 155.572 122 150.298 122 143.791C122 137.285 127.274 132.011 133.78 132.011C140.286 132.011 145.56 137.285 145.56 143.791C145.56 150.298 140.286 155.572 133.78 155.572Z" fill="white"/>
<path d="M133.78 155.572C127.274 155.572 122 150.298 122 143.791C122 137.285 127.274 132.011 133.78 132.011C140.286 132.011 145.56 137.285 145.56 143.791C145.56 150.298 140.286 155.572 133.78 155.572ZM133.78 155.572L243.483 185.022M133.78 155.572L207.407 185.022M133.78 155.572L170.593 185.022M133.78 155.572L133.78 185.022" stroke="black" stroke-width="1.5"/>
<path d="M244.22 185.022C237.714 185.022 232.44 190.296 232.44 196.802C232.44 203.308 237.714 208.582 244.22 208.582C250.726 208.582 256 203.308 256 196.802C256 190.296 250.726 185.022 244.22 185.022Z" fill="white"/>
<path d="M244.22 208.582C237.714 208.582 232.44 203.308 232.44 196.802C232.44 190.296 237.714 185.022 244.22 185.022C250.726 185.022 256 190.296 256 196.802C256 203.308 250.726 208.582 244.22 208.582ZM244.22 208.582L188.264 238.033" stroke="black" stroke-width="1.5"/>
<path d="M207.407 185.022C200.901 185.022 195.627 190.296 195.627 196.802C195.627 203.308 200.901 208.582 207.407 208.582C213.913 208.582 219.188 203.308 219.188 196.802C219.188 190.296 213.913 185.022 207.407 185.022Z" fill="white"/>
<path d="M207.407 208.582C200.901 208.582 195.627 203.308 195.627 196.802C195.627 190.296 200.901 185.022 207.407 185.022C213.913 185.022 219.188 190.296 219.188 196.802C219.188 203.308 213.913 208.582 207.407 208.582ZM207.407 208.582L188.264 238.033" stroke="black" stroke-width="1.5"/>
<path d="M170.593 185.021C164.087 185.021 158.813 190.295 158.813 196.801C158.813 203.307 164.087 208.582 170.593 208.582C177.099 208.582 182.374 203.307 182.374 196.801C182.374 190.295 177.099 185.021 170.593 185.021Z" fill="white"/>
<path d="M170.593 208.582C164.087 208.582 158.813 203.307 158.813 196.801C158.813 190.295 164.087 185.021 170.593 185.021C177.099 185.021 182.374 190.295 182.374 196.801C182.374 203.307 177.099 208.582 170.593 208.582ZM170.593 208.582L188.264 237.296" stroke="black" stroke-width="1.5"/>
<path d="M133.78 185.021C127.274 185.021 122 190.295 122 196.801C122 203.307 127.274 208.582 133.78 208.582C140.286 208.582 145.561 203.307 145.561 196.801C145.561 190.295 140.286 185.021 133.78 185.021Z" fill="white"/>
<path d="M133.78 208.582C127.274 208.582 122 203.307 122 196.801C122 190.295 127.274 185.021 133.78 185.021C140.286 185.021 145.561 190.295 145.561 196.801C145.561 203.307 140.286 208.582 133.78 208.582ZM133.78 208.582L189 237.296" stroke="black" stroke-width="1.5"/>
<path d="M201 308.008V377C201 377.552 200.552 378 200 378H178C177.448 378 177 377.552 177 377V285C177 284.448 177.448 284 178 284H200C200.552 284 201 284.448 201 285V304.41" fill="white"/>
<path d="M201 308.008V377C201 377.552 200.552 378 200 378H178C177.448 378 177 377.552 177 377V285C177 284.448 177.448 284 178 284H200C200.552 284 201 284.448 201 285V304.41" stroke="black" stroke-width="1.5" stroke-miterlimit="10"/>
</g>
<defs>
<linearGradient id="paint0_linear" x1="134.582" y1="115.082" x2="241.582" y2="115.082" gradientUnits="userSpaceOnUse">
<stop stop-color="#0057FF"/>
<stop offset="0.588542" stop-color="#5AEEFF"/>
<stop offset="1" stop-color="#DEFFDE"/>
</linearGradient>
<clipPath id="clip0">
<rect width="375" height="300" fill="white"/>
</clipPath>
</defs>
</svg>
