<svg width="375" height="310" viewBox="0 0 375 310" fill="none" xmlns="http://www.w3.org/2000/svg">
<g clip-path="url(#clip0)">
<rect width="375" height="310" fill="white"/>
<path d="M285 226.173V249C285 249.552 284.552 250 284 250H262C261.448 250 261 249.552 261 249V219C261 218.448 261.448 218 262 218H284C284.552 218 285 218.448 285 219V224.948" fill="white"/>
<path d="M285 226.173V249C285 249.552 284.552 250 284 250H262C261.448 250 261 249.552 261 249V219C261 218.448 261.448 218 262 218H284C284.552 218 285 218.448 285 219V224.948" stroke="black" stroke-width="1.5" stroke-miterlimit="10"/>
<path d="M236.547 130L228 130C227.448 130 227 130.448 227 131L227 217C227 217.552 227.448 218 228 218L318 218C318.552 218 319 217.552 319 217L319 131C319 130.448 318.552 130 318 130L242 130" stroke="black" stroke-width="1.5" stroke-miterlimit="10"/>
<path d="M148 226.173V249C148 249.552 147.552 250 147 250H125C124.448 250 124 249.552 124 249V219C124 218.448 124.448 218 125 218H147C147.552 218 148 218.448 148 219V224.948" fill="white"/>
<path d="M148 226.173V249C148 249.552 147.552 250 147 250H125C124.448 250 124 249.552 124 249V219C124 218.448 124.448 218 125 218H147C147.552 218 148 218.448 148 219V224.948" stroke="black" stroke-width="1.5" stroke-miterlimit="10"/>
<path d="M53.9512 251.661C53.9512 251.108 54.3989 250.661 54.9512 250.661H320.598C321.151 250.661 321.598 251.108 321.598 251.661V519.661C321.598 519.78 321.577 519.899 321.535 520.01L304.864 564.728C304.718 565.119 304.344 565.378 303.927 565.378H71.605C71.1873 565.378 70.8136 565.119 70.6678 564.727L54.0141 520.01C53.9725 519.899 53.9512 519.78 53.9512 519.661V251.661Z" fill="white" stroke="black" stroke-width="1.5" stroke-miterlimit="10"/>
<path d="M154 238H117C116.448 238 116 238.448 116 239V249C116 249.552 116.448 250 117 250H154C154.552 250 155 249.552 155 249V239C155 238.448 154.552 238 154 238Z" fill="white" stroke="black" stroke-width="1.5" stroke-miterlimit="10"/>
<path d="M292 238H255C254.448 238 254 238.448 254 239V249C254 249.552 254.448 250 255 250H292C292.552 250 293 249.552 293 249V239C293 238.448 292.552 238 292 238Z" fill="white" stroke="black" stroke-width="1.5" stroke-miterlimit="10"/>
<path d="M286.097 309H52C51.4477 309 51 308.552 51 308V270C51 269.448 51.4477 269 52 269H324C324.552 269 325 269.448 325 270V308C325 308.552 324.552 309 324 309H293.468" fill="white"/>
<path d="M286.097 309H52C51.4477 309 51 308.552 51 308V270C51 269.448 51.4477 269 52 269H324C324.552 269 325 269.448 325 270V308C325 308.552 324.552 309 324 309H293.468" stroke="black" stroke-width="1.5" stroke-miterlimit="10"/>
<path d="M98.5036 167.833C98.5086 169.131 97.5441 169.747 96.7089 169.747C95.7892 169.747 95.1528 169.081 95.1528 168.042V163.364H93.6663V168.221C93.6663 170.115 94.7053 171.099 96.172 171.099C97.3204 171.099 98.1009 170.493 98.4539 169.678H98.5335V171H99.9951V163.364H98.5036V167.833ZM103.479 166.466C103.479 165.248 104.225 164.552 105.259 164.552C106.268 164.552 106.88 165.213 106.88 166.322V171H108.366V166.143C108.366 164.254 107.327 163.264 105.766 163.264C104.617 163.264 103.867 163.796 103.514 164.607H103.419V163.364H101.992V171H103.479V166.466ZM116.082 165.228C115.774 164.04 114.844 163.264 113.193 163.264C111.468 163.264 110.245 164.174 110.245 165.526C110.245 166.61 110.902 167.331 112.333 167.649L113.626 167.933C114.362 168.097 114.705 168.425 114.705 168.902C114.705 169.494 114.073 169.956 113.099 169.956C112.209 169.956 111.637 169.573 111.458 168.822L110.022 169.041C110.27 170.393 111.394 171.154 113.109 171.154C114.953 171.154 116.231 170.175 116.231 168.793C116.231 167.714 115.545 167.048 114.143 166.724L112.93 166.446C112.09 166.247 111.727 165.964 111.732 165.447C111.727 164.86 112.363 164.442 113.208 164.442C114.133 164.442 114.561 164.955 114.735 165.467L116.082 165.228ZM121.43 163.364H119.864V161.534H118.378V163.364H117.259V164.557H118.378V169.066C118.373 170.453 119.432 171.124 120.605 171.099C121.077 171.094 121.395 171.005 121.569 170.94L121.301 169.712C121.201 169.732 121.017 169.777 120.779 169.777C120.297 169.777 119.864 169.618 119.864 168.758V164.557H121.43V163.364ZM123.074 171H124.561V166.337C124.561 165.337 125.332 164.616 126.386 164.616C126.694 164.616 127.042 164.671 127.161 164.706V163.284C127.012 163.264 126.719 163.249 126.53 163.249C125.635 163.249 124.869 163.756 124.591 164.577H124.511V163.364H123.074V171ZM133.285 167.833C133.29 169.131 132.325 169.747 131.49 169.747C130.57 169.747 129.934 169.081 129.934 168.042V163.364H128.448V168.221C128.448 170.115 129.487 171.099 130.953 171.099C132.102 171.099 132.882 170.493 133.235 169.678H133.315V171H134.776V163.364H133.285V167.833ZM139.99 171.154C141.795 171.154 142.963 170.07 143.127 168.584H141.681C141.492 169.409 140.85 169.896 140 169.896C138.742 169.896 137.932 168.847 137.932 167.182C137.932 165.546 138.757 164.517 140 164.517C140.945 164.517 141.522 165.114 141.681 165.83H143.127C142.968 164.288 141.71 163.264 139.975 163.264C137.823 163.264 136.431 164.885 136.431 167.217C136.431 169.518 137.773 171.154 139.99 171.154ZM148.282 163.364H146.716V161.534H145.229V163.364H144.111V164.557H145.229V169.066C145.224 170.453 146.283 171.124 147.456 171.099C147.929 171.094 148.247 171.005 148.421 170.94L148.152 169.712C148.053 169.732 147.869 169.777 147.63 169.777C147.148 169.777 146.716 169.618 146.716 168.758V164.557H148.282V163.364ZM154.763 167.833C154.768 169.131 153.804 169.747 152.969 169.747C152.049 169.747 151.413 169.081 151.413 168.042V163.364H149.926V168.221C149.926 170.115 150.965 171.099 152.432 171.099C153.58 171.099 154.361 170.493 154.714 169.678H154.793V171H156.255V163.364H154.763V167.833ZM158.252 171H159.739V166.337C159.739 165.337 160.509 164.616 161.563 164.616C161.872 164.616 162.22 164.671 162.339 164.706V163.284C162.19 163.264 161.896 163.249 161.707 163.249C160.813 163.249 160.047 163.756 159.769 164.577H159.689V163.364H158.252V171ZM166.643 171.154C168.309 171.154 169.487 170.334 169.825 169.091L168.418 168.837C168.149 169.558 167.503 169.926 166.658 169.926C165.385 169.926 164.53 169.101 164.49 167.629H169.919V167.102C169.919 164.343 168.269 163.264 166.539 163.264C164.411 163.264 163.009 164.885 163.009 167.232C163.009 169.603 164.391 171.154 166.643 171.154ZM164.495 166.516C164.555 165.432 165.34 164.492 166.549 164.492C167.702 164.492 168.458 165.347 168.463 166.516H164.495ZM174.427 171.149C175.819 171.149 176.366 170.299 176.635 169.812H176.759V171H178.211V160.818H176.724V164.602H176.635C176.366 164.129 175.859 163.264 174.437 163.264C172.593 163.264 171.236 164.721 171.236 167.197C171.236 169.668 172.573 171.149 174.427 171.149ZM174.755 169.881C173.428 169.881 172.737 168.713 172.737 167.182C172.737 165.665 173.413 164.527 174.755 164.527C176.053 164.527 176.749 165.586 176.749 167.182C176.749 168.788 176.038 169.881 174.755 169.881ZM105.297 188H111.741V186.678H106.834V183.56H111.348V182.243H106.834V179.141H111.681V177.818H105.297V188ZM113.733 177.818V188H115.195V180.627H115.289L118.292 187.985H119.505L122.508 180.632H122.602V188H124.064V177.818H122.199L118.958 185.733H118.839L115.597 177.818H113.733ZM126.297 188H127.834V184.147H129.922C129.956 184.147 129.986 184.147 130.021 184.147L132.089 188H133.839L131.582 183.879C132.83 183.416 133.451 182.377 133.451 181.01C133.451 179.136 132.288 177.818 129.927 177.818H126.297V188ZM127.834 182.825V179.136H129.763C131.279 179.136 131.905 179.857 131.905 181.01C131.905 182.158 131.279 182.825 129.782 182.825H127.834ZM141.765 188.149C143.157 188.149 143.704 187.299 143.973 186.812H144.097V188H145.549V177.818H144.062V181.602H143.973C143.704 181.129 143.197 180.264 141.775 180.264C139.931 180.264 138.573 181.721 138.573 184.197C138.573 186.668 139.911 188.149 141.765 188.149ZM142.093 186.881C140.766 186.881 140.075 185.713 140.075 184.182C140.075 182.665 140.751 181.527 142.093 181.527C143.391 181.527 144.087 182.586 144.087 184.182C144.087 185.788 143.376 186.881 142.093 186.881ZM149.892 188.169C151.155 188.169 151.866 187.528 152.15 186.956H152.209V188H153.661V182.929C153.661 180.707 151.911 180.264 150.698 180.264C149.316 180.264 148.043 180.821 147.546 182.213L148.943 182.531C149.162 181.989 149.718 181.467 150.718 181.467C151.677 181.467 152.169 181.969 152.169 182.835V182.869C152.169 183.411 151.613 183.401 150.241 183.56C148.794 183.729 147.312 184.107 147.312 185.842C147.312 187.344 148.441 188.169 149.892 188.169ZM150.216 186.976C149.375 186.976 148.769 186.598 148.769 185.862C148.769 185.067 149.475 184.783 150.335 184.669C150.817 184.604 151.961 184.475 152.174 184.261V185.246C152.174 186.151 151.454 186.976 150.216 186.976ZM159.206 180.364H157.639V178.534H156.153V180.364H155.034V181.557H156.153V186.066C156.148 187.453 157.207 188.124 158.38 188.099C158.853 188.094 159.171 188.005 159.345 187.94L159.076 186.712C158.977 186.732 158.793 186.777 158.554 186.777C158.072 186.777 157.639 186.618 157.639 185.758V181.557H159.206V180.364ZM163.072 188.169C164.335 188.169 165.046 187.528 165.329 186.956H165.389V188H166.841V182.929C166.841 180.707 165.091 180.264 163.878 180.264C162.495 180.264 161.223 180.821 160.726 182.213L162.123 182.531C162.341 181.989 162.898 181.467 163.897 181.467C164.857 181.467 165.349 181.969 165.349 182.835V182.869C165.349 183.411 164.792 183.401 163.42 183.56C161.973 183.729 160.492 184.107 160.492 185.842C160.492 187.344 161.62 188.169 163.072 188.169ZM163.395 186.976C162.555 186.976 161.949 186.598 161.949 185.862C161.949 185.067 162.655 184.783 163.515 184.669C163.997 184.604 165.14 184.475 165.354 184.261V185.246C165.354 186.151 164.633 186.976 163.395 186.976Z" fill="black"/>
<path d="M260.69 156.228C260.382 155.04 259.452 154.264 257.802 154.264C256.077 154.264 254.854 155.174 254.854 156.526C254.854 157.61 255.51 158.331 256.942 158.649L258.234 158.933C258.97 159.097 259.313 159.425 259.313 159.902C259.313 160.494 258.682 160.956 257.707 160.956C256.817 160.956 256.246 160.573 256.067 159.822L254.63 160.041C254.879 161.393 256.002 162.154 257.717 162.154C259.562 162.154 260.839 161.175 260.839 159.793C260.839 158.714 260.153 158.048 258.751 157.724L257.538 157.446C256.698 157.247 256.335 156.964 256.34 156.447C256.335 155.86 256.972 155.442 257.817 155.442C258.741 155.442 259.169 155.955 259.343 156.467L260.69 156.228ZM265.765 162.154C267.431 162.154 268.609 161.334 268.947 160.091L267.54 159.837C267.271 160.558 266.625 160.926 265.78 160.926C264.507 160.926 263.652 160.101 263.612 158.629H269.041V158.102C269.041 155.343 267.391 154.264 265.661 154.264C263.533 154.264 262.131 155.885 262.131 158.232C262.131 160.603 263.513 162.154 265.765 162.154ZM263.617 157.516C263.677 156.432 264.463 155.492 265.671 155.492C266.824 155.492 267.58 156.347 267.585 157.516H263.617ZM270.691 162H272.177V157.292C272.177 156.263 272.898 155.547 273.743 155.547C274.569 155.547 275.14 156.094 275.14 156.924V162H276.622V157.133C276.622 156.213 277.184 155.547 278.153 155.547C278.939 155.547 279.585 155.984 279.585 157.018V162H281.071V156.879C281.071 155.134 280.097 154.264 278.715 154.264C277.616 154.264 276.791 154.791 276.423 155.607H276.343C276.01 154.771 275.309 154.264 274.29 154.264C273.281 154.264 272.53 154.766 272.212 155.607H272.118V154.364H270.691V162ZM283.064 162H284.55V154.364H283.064V162ZM283.814 153.185C284.327 153.185 284.754 152.788 284.754 152.3C284.754 151.813 284.327 151.411 283.814 151.411C283.297 151.411 282.875 151.813 282.875 152.3C282.875 152.788 283.297 153.185 283.814 153.185ZM291.049 157.053H286.535V158.341H291.049V157.053ZM244.735 173.228C244.427 172.04 243.497 171.264 241.847 171.264C240.122 171.264 238.899 172.174 238.899 173.526C238.899 174.61 239.555 175.331 240.987 175.649L242.279 175.933C243.015 176.097 243.358 176.425 243.358 176.902C243.358 177.494 242.727 177.956 241.752 177.956C240.862 177.956 240.291 177.573 240.112 176.822L238.675 177.041C238.923 178.393 240.047 179.154 241.762 179.154C243.607 179.154 244.884 178.175 244.884 176.793C244.884 175.714 244.198 175.048 242.796 174.724L241.583 174.446C240.743 174.247 240.38 173.964 240.385 173.447C240.38 172.86 241.017 172.442 241.862 172.442C242.786 172.442 243.214 172.955 243.388 173.467L244.735 173.228ZM250.083 171.364H248.517V169.534H247.031V171.364H245.912V172.557H247.031V177.066C247.026 178.453 248.085 179.124 249.258 179.099C249.73 179.094 250.049 179.005 250.223 178.94L249.954 177.712C249.855 177.732 249.671 177.777 249.432 177.777C248.95 177.777 248.517 177.618 248.517 176.758V172.557H250.083V171.364ZM251.728 179H253.214V174.337C253.214 173.337 253.985 172.616 255.039 172.616C255.347 172.616 255.695 172.671 255.814 172.706V171.284C255.665 171.264 255.372 171.249 255.183 171.249C254.288 171.249 253.523 171.756 253.244 172.577H253.165V171.364H251.728V179ZM261.938 175.833C261.943 177.131 260.979 177.747 260.143 177.747C259.224 177.747 258.587 177.081 258.587 176.042V171.364H257.101V176.221C257.101 178.115 258.14 179.099 259.607 179.099C260.755 179.099 261.536 178.493 261.888 177.678H261.968V179H263.43V171.364H261.938V175.833ZM268.644 179.154C270.448 179.154 271.617 178.07 271.781 176.584H270.334C270.145 177.409 269.504 177.896 268.654 177.896C267.396 177.896 266.585 176.847 266.585 175.182C266.585 173.546 267.411 172.517 268.654 172.517C269.598 172.517 270.175 173.114 270.334 173.83H271.781C271.622 172.288 270.364 171.264 268.629 171.264C266.476 171.264 265.084 172.885 265.084 175.217C265.084 177.518 266.426 179.154 268.644 179.154ZM276.935 171.364H275.369V169.534H273.882V171.364H272.764V172.557H273.882V177.066C273.877 178.453 274.936 179.124 276.11 179.099C276.582 179.094 276.9 179.005 277.074 178.94L276.806 177.712C276.706 177.732 276.522 177.777 276.284 177.777C275.801 177.777 275.369 177.618 275.369 176.758V172.557H276.935V171.364ZM283.417 175.833C283.422 177.131 282.457 177.747 281.622 177.747C280.702 177.747 280.066 177.081 280.066 176.042V171.364H278.579V176.221C278.579 178.115 279.618 179.099 281.085 179.099C282.233 179.099 283.014 178.493 283.367 177.678H283.447V179H284.908V171.364H283.417V175.833ZM286.906 179H288.392V174.337C288.392 173.337 289.163 172.616 290.217 172.616C290.525 172.616 290.873 172.671 290.992 172.706V171.284C290.843 171.264 290.55 171.249 290.361 171.249C289.466 171.249 288.7 171.756 288.422 172.577H288.342V171.364H286.906V179ZM295.296 179.154C296.962 179.154 298.14 178.334 298.478 177.091L297.071 176.837C296.803 177.558 296.156 177.926 295.311 177.926C294.039 177.926 293.183 177.101 293.144 175.629H298.573V175.102C298.573 172.343 296.922 171.264 295.192 171.264C293.064 171.264 291.662 172.885 291.662 175.232C291.662 177.603 293.044 179.154 295.296 179.154ZM293.149 174.516C293.208 173.432 293.994 172.492 295.202 172.492C296.355 172.492 297.111 173.347 297.116 174.516H293.149ZM303.081 179.149C304.473 179.149 305.02 178.299 305.288 177.812H305.412V179H306.864V168.818H305.377V172.602H305.288C305.02 172.129 304.512 171.264 303.091 171.264C301.246 171.264 299.889 172.721 299.889 175.197C299.889 177.668 301.226 179.149 303.081 179.149ZM303.409 177.881C302.081 177.881 301.39 176.713 301.39 175.182C301.39 173.665 302.066 172.527 303.409 172.527C304.706 172.527 305.402 173.586 305.402 175.182C305.402 176.788 304.691 177.881 303.409 177.881ZM242.297 196H248.741V194.678H243.834V191.56H248.348V190.243H243.834V187.141H248.681V185.818H242.297V196ZM250.733 185.818V196H252.195V188.627H252.289L255.292 195.985H256.505L259.508 188.632H259.602V196H261.064V185.818H259.199L255.958 193.733H255.839L252.597 185.818H250.733ZM263.297 196H264.834V192.147H266.922C266.956 192.147 266.986 192.147 267.021 192.147L269.089 196H270.839L268.582 191.879C269.83 191.416 270.451 190.377 270.451 189.01C270.451 187.136 269.288 185.818 266.927 185.818H263.297V196ZM264.834 190.825V187.136H266.763C268.279 187.136 268.905 187.857 268.905 189.01C268.905 190.158 268.279 190.825 266.782 190.825H264.834ZM278.765 196.149C280.157 196.149 280.704 195.299 280.973 194.812H281.097V196H282.549V185.818H281.062V189.602H280.973C280.704 189.129 280.197 188.264 278.775 188.264C276.931 188.264 275.573 189.721 275.573 192.197C275.573 194.668 276.911 196.149 278.765 196.149ZM279.093 194.881C277.766 194.881 277.075 193.713 277.075 192.182C277.075 190.665 277.751 189.527 279.093 189.527C280.391 189.527 281.087 190.586 281.087 192.182C281.087 193.788 280.376 194.881 279.093 194.881ZM286.892 196.169C288.155 196.169 288.866 195.528 289.15 194.956H289.209V196H290.661V190.929C290.661 188.707 288.911 188.264 287.698 188.264C286.316 188.264 285.043 188.821 284.546 190.213L285.943 190.531C286.162 189.989 286.718 189.467 287.718 189.467C288.677 189.467 289.169 189.969 289.169 190.835V190.869C289.169 191.411 288.613 191.401 287.241 191.56C285.794 191.729 284.312 192.107 284.312 193.842C284.312 195.344 285.441 196.169 286.892 196.169ZM287.216 194.976C286.375 194.976 285.769 194.598 285.769 193.862C285.769 193.067 286.475 192.783 287.335 192.669C287.817 192.604 288.961 192.475 289.174 192.261V193.246C289.174 194.151 288.454 194.976 287.216 194.976ZM296.206 188.364H294.639V186.534H293.153V188.364H292.034V189.557H293.153V194.066C293.148 195.453 294.207 196.124 295.38 196.099C295.853 196.094 296.171 196.005 296.345 195.94L296.076 194.712C295.977 194.732 295.793 194.777 295.554 194.777C295.072 194.777 294.639 194.618 294.639 193.758V189.557H296.206V188.364ZM300.072 196.169C301.335 196.169 302.046 195.528 302.329 194.956H302.389V196H303.841V190.929C303.841 188.707 302.091 188.264 300.878 188.264C299.495 188.264 298.223 188.821 297.726 190.213L299.123 190.531C299.341 189.989 299.898 189.467 300.897 189.467C301.857 189.467 302.349 189.969 302.349 190.835V190.869C302.349 191.411 301.792 191.401 300.42 191.56C298.973 191.729 297.492 192.107 297.492 193.842C297.492 195.344 298.62 196.169 300.072 196.169ZM300.395 194.976C299.555 194.976 298.949 194.598 298.949 193.862C298.949 193.067 299.655 192.783 300.515 192.669C300.997 192.604 302.14 192.475 302.354 192.261V193.246C302.354 194.151 301.633 194.976 300.395 194.976Z" fill="black"/>
<path d="M252.725 109.002C253.63 109.724 255.232 111.851 256.39 110.866C257.06 110.296 257.089 110.004 256.568 109.102C256.047 108.2 253.213 106.425 252.271 107.226C251.413 107.956 251.82 108.28 252.725 109.002Z" fill="url(#paint0_linear)"/>
<path d="M242.652 100.336L246.335 96.6529L257.737 108.054C258.754 109.071 258.754 110.72 257.737 111.737C256.72 112.754 255.071 112.754 254.054 111.737L246.098 103.782L242.652 100.336Z" stroke="black"/>
<path d="M241.657 100.803C241.448 100.594 241.448 100.255 241.657 100.047L246.047 95.6566C246.255 95.4478 246.594 95.4478 246.803 95.6566L248.998 97.8516C249.207 98.0604 249.207 98.399 248.998 98.6078L244.608 102.998C244.399 103.207 244.06 103.207 243.852 102.998L241.657 100.803Z" fill="white" stroke="black" stroke-linejoin="round"/>
<path d="M300.31 54.9858C300.18 57.8279 298.869 64.531 301.136 64.4079C302.45 64.3366 302.847 63.8074 303.542 61.2125C304.237 58.6175 304.023 50.6752 302.178 50.7754C300.498 50.8665 300.44 52.1438 300.31 54.9858Z" fill="url(#paint1_linear)"/>
<path d="M298.875 55.3789V54.1436V52.9082V51.1562C298.875 50.7593 299.197 50.4375 299.594 50.4375H309.656C310.053 50.4375 310.375 50.7593 310.375 51.1562V52.9082V54.1436V55.3789M298.875 55.3789V57.7373M298.875 55.3789H304.625M310.375 55.3789V57.7373M310.375 55.3789H307.5M298.875 60.0957H310.375M298.875 60.0957V57.7373M298.875 60.0957V62.4541M310.375 60.0957V57.7373M310.375 60.0957V62.4541M298.875 57.7373H310.375M298.875 62.4541V64.0937C298.875 64.4907 299.197 64.8125 299.594 64.8125H309.656C310.053 64.8125 310.375 64.4907 310.375 64.0938V62.4541M298.875 62.4541H304.625M310.375 62.4541H308.458H307.5M304.625 62.4541H306.542H307.5M304.625 62.4541V55.3789M304.625 55.3789H307.5M307.5 62.4541V55.3789" stroke="black"/>
<path d="M300.312 52.2344H304.625M300.312 54.0312H304.625" stroke="black" stroke-linecap="round"/>
<path d="M255.906 13L253.75 13C253.336 13 253 13.3358 253 13.75L253 40.25C253 40.6642 253.336 41 253.75 41L280.25 41C280.664 41 281 40.6642 281 40.25L281 13.75C281 13.3358 280.664 13 280.25 13L257.565 13" stroke="black" stroke-width="1.5" stroke-miterlimit="10" stroke-dasharray="1.8 1.8"/>
<path d="M293.906 44L291.75 44C291.336 44 291 44.3358 291 44.75L291 71.25C291 71.6642 291.336 72 291.75 72L318.25 72C318.664 72 319 71.6642 319 71.25L319 44.75C319 44.3358 318.664 44 318.25 44L295.565 44" stroke="black" stroke-width="1.5" stroke-miterlimit="10" stroke-dasharray="1.8 1.8"/>
<path d="M238.906 90L236.75 90C236.336 90 236 90.3358 236 90.75L236 117.25C236 117.664 236.336 118 236.75 118L263.25 118C263.664 118 264 117.664 264 117.25L264 90.75C264 90.3358 263.664 90 263.25 90L240.565 90" stroke="black" stroke-width="1.5" stroke-miterlimit="10" stroke-dasharray="1.8 1.8"/>
<path d="M263.845 31.2822C266.627 31.3268 273.152 32.5379 273.11 30.0479C273.085 28.6053 272.58 28.1871 270.06 27.5119C267.541 26.8368 259.748 27.3466 259.782 29.3726C259.814 31.2176 261.064 31.2376 263.845 31.2822Z" fill="url(#paint2_linear)"/>
<path d="M260.088 29.2079C260.088 27.551 261.431 26.2079 263.088 26.2079V26.2079C264.745 26.2079 266.088 27.551 266.088 29.2079V31.3298C266.088 31.4006 266.031 31.4579 265.96 31.4579H260.216C260.145 31.4579 260.088 31.4006 260.088 31.3298V29.2079Z" stroke="black"/>
<path d="M267.588 29.2079C267.588 27.551 268.931 26.2079 270.588 26.2079V26.2079C272.245 26.2079 273.588 27.551 273.588 29.2079V31.3298C273.588 31.4006 273.531 31.4579 273.46 31.4579H267.716C267.645 31.4579 267.588 31.4006 267.588 31.3298V29.2079Z" stroke="black"/>
<circle cx="263.088" cy="23.2079" r="1.75" stroke="black"/>
<circle cx="270.588" cy="23.2079" r="1.75" stroke="black"/>
<path d="M221.906 42L219.5 42C219.224 42 219 42.2239 219 42.5L219 69.5C219 69.7761 219.224 70 219.5 70L246.5 70C246.776 70 247 69.7761 247 69.5L247 42.5C247 42.2239 246.776 42 246.5 42L223.565 42" stroke="black" stroke-width="1.5" stroke-miterlimit="10" stroke-dasharray="1.8 1.8"/>
<path d="M258.906 55L256.5 55C256.224 55 256 55.2239 256 55.5L256 82.5C256 82.7761 256.224 83 256.5 83L283.5 83C283.776 83 284 82.7761 284 82.5L284 55.5C284 55.2239 283.776 55 283.5 55L260.565 55" stroke="black" stroke-width="1.5" stroke-miterlimit="10" stroke-dasharray="1.8 1.8"/>
<path d="M286.906 95L284.5 95C284.224 95 284 95.2239 284 95.5L284 122.5C284 122.776 284.224 123 284.5 123L311.5 123C311.776 123 312 122.776 312 122.5L312 95.5C312 95.2239 311.776 95 311.5 95L288.565 95" stroke="black" stroke-width="1.5" stroke-miterlimit="10" stroke-dasharray="1.8 1.8"/>
<path d="M290.906 4L288.5 4C288.224 4 288 4.22386 288 4.5L288 31.5C288 31.7761 288.224 32 288.5 32L315.5 32C315.776 32 316 31.7761 316 31.5L316 4.5C316 4.22386 315.776 4 315.5 4L292.565 4" stroke="black" stroke-width="1.5" stroke-miterlimit="10" stroke-dasharray="1.8 1.8"/>
<path d="M70.9151 130L55 130C54.4477 130 54 130.448 54 131L54 217C54 217.552 54.4477 218 55 218L135.5 218L216 218C216.552 218 217 217.552 217 217L217 131C217 130.448 216.552 130 216 130L80.5761 130" stroke="black" stroke-width="1.5" stroke-miterlimit="10"/>
<path d="M125.532 99.217C125.415 102.759 123.819 111.095 126.793 110.984C128.515 110.92 129.026 110.268 129.89 107.044C130.754 103.82 130.324 93.9102 127.905 94.0005C125.702 94.0827 125.649 95.6747 125.532 99.217Z" fill="url(#paint3_linear)"/>
<path d="M126.147 97.4241C125.733 97.4241 125.397 97.7599 125.397 98.1741C125.397 98.5883 125.733 98.9241 126.147 98.9241V97.4241ZM135.412 98.9241C135.826 98.9241 136.162 98.5883 136.162 98.1741C136.162 97.7599 135.826 97.4241 135.412 97.4241V98.9241ZM126.147 101.174C125.733 101.174 125.397 101.51 125.397 101.924C125.397 102.338 125.733 102.674 126.147 102.674V101.174ZM135.412 102.674C135.826 102.674 136.162 102.338 136.162 101.924C136.162 101.51 135.826 101.174 135.412 101.174V102.674ZM126.147 104.924C125.733 104.924 125.397 105.26 125.397 105.674C125.397 106.088 125.733 106.424 126.147 106.424V104.924ZM135.412 106.424C135.826 106.424 136.162 106.088 136.162 105.674C136.162 105.26 135.826 104.924 135.412 104.924V106.424ZM124.941 94.1027H137.059V92.6027H124.941V94.1027ZM137.309 94.3527V110H138.809V94.3527H137.309ZM137.059 110.25H124.941V111.75H137.059V110.25ZM124.691 110V94.3527H123.191V110H124.691ZM126.147 98.9241H135.412V97.4241H126.147V98.9241ZM126.147 102.674H135.412V101.174H126.147V102.674ZM126.147 106.424H135.412V104.924H126.147V106.424ZM124.941 110.25C124.803 110.25 124.691 110.138 124.691 110H123.191C123.191 110.966 123.975 111.75 124.941 111.75V110.25ZM137.309 110C137.309 110.138 137.197 110.25 137.059 110.25V111.75C138.026 111.75 138.809 110.966 138.809 110H137.309ZM137.059 94.1027C137.197 94.1027 137.309 94.2146 137.309 94.3527H138.809C138.809 93.3862 138.026 92.6027 137.059 92.6027V94.1027ZM124.941 92.6027C123.975 92.6027 123.191 93.3862 123.191 94.3527H124.691C124.691 94.2146 124.803 94.1027 124.941 94.1027V92.6027Z" fill="black"/>
<mask id="path-34-outside-1" maskUnits="userSpaceOnUse" x="125.473" y="89.0004" width="11" height="8" fill="black">
<rect fill="white" x="125.473" y="89.0004" width="11" height="8"/>
<path fill-rule="evenodd" clip-rule="evenodd" d="M132.171 92.3082C132.175 92.2651 132.178 92.2212 132.178 92.1768C132.178 91.5271 131.651 91.0004 131.001 91.0004C130.352 91.0004 129.825 91.5271 129.825 92.1768C129.825 92.2213 129.827 92.2653 129.832 92.3085C128.458 92.6303 127.473 93.503 127.473 94.5291H134.531C134.531 93.5026 133.546 92.6297 132.171 92.3082Z"/>
</mask>
<path fill-rule="evenodd" clip-rule="evenodd" d="M132.171 92.3082C132.175 92.2651 132.178 92.2212 132.178 92.1768C132.178 91.5271 131.651 91.0004 131.001 91.0004C130.352 91.0004 129.825 91.5271 129.825 92.1768C129.825 92.2213 129.827 92.2653 129.832 92.3085C128.458 92.6303 127.473 93.503 127.473 94.5291H134.531C134.531 93.5026 133.546 92.6297 132.171 92.3082Z" fill="white"/>
<path d="M132.171 92.3082L130.68 92.1426C130.596 92.8974 131.09 93.5958 131.829 93.7688L132.171 92.3082ZM129.832 92.3085L130.174 93.769C130.914 93.5958 131.407 92.8973 131.323 92.1425L129.832 92.3085ZM127.473 94.5291H125.973C125.973 95.3575 126.644 96.0291 127.473 96.0291V94.5291ZM134.531 94.5291V96.0291C135.36 96.0291 136.031 95.3575 136.031 94.5291H134.531ZM130.678 92.1768C130.678 92.1658 130.678 92.1543 130.68 92.1426L133.661 92.4738C133.672 92.3758 133.678 92.2767 133.678 92.1768H130.678ZM131.001 92.5004C130.823 92.5004 130.678 92.3555 130.678 92.1768H133.678C133.678 90.6987 132.48 89.5004 131.001 89.5004V92.5004ZM131.325 92.1768C131.325 92.3555 131.18 92.5004 131.001 92.5004V89.5004C129.523 89.5004 128.325 90.6987 128.325 92.1768H131.325ZM131.323 92.1425C131.324 92.1543 131.325 92.1658 131.325 92.1768H128.325C128.325 92.2769 128.33 92.3763 128.341 92.4745L131.323 92.1425ZM129.49 90.848C127.856 91.2306 125.973 92.4528 125.973 94.5291H128.973C128.973 94.5282 128.968 94.4294 129.156 94.2559C129.349 94.0773 129.69 93.8824 130.174 93.769L129.49 90.848ZM127.473 96.0291H134.531V93.0291H127.473V96.0291ZM136.031 94.5291C136.031 92.4521 134.147 91.2298 132.512 90.8476L131.829 93.7688C132.314 93.8821 132.655 94.0771 132.848 94.2557C133.036 94.4294 133.031 94.5282 133.031 94.5291H136.031Z" fill="black" mask="url(#path-34-outside-1)"/>
<path d="M119.906 87L117.75 87C117.336 87 117 87.3358 117 87.75L117 114.25C117 114.664 117.336 115 117.75 115L144.25 115C144.664 115 145 114.664 145 114.25L145 87.75C145 87.3358 144.664 87 144.25 87L121.565 87" stroke="black" stroke-width="1.5" stroke-miterlimit="10" stroke-dasharray="1.8 1.8"/>
<path d="M98.5318 15.2172C98.4148 18.7596 96.8192 27.0956 99.7925 26.9846C101.515 26.9203 102.026 26.2677 102.89 23.0441C103.754 19.8206 103.324 9.91032 100.905 10.0006C98.7015 10.0828 98.6489 11.6748 98.5318 15.2172Z" fill="url(#paint4_linear)"/>
<path d="M100.147 13.4241C99.7331 13.4241 99.3973 13.7599 99.3973 14.1741C99.3973 14.5883 99.7331 14.9241 100.147 14.9241V13.4241ZM109.412 14.9241C109.826 14.9241 110.162 14.5883 110.162 14.1741C110.162 13.7599 109.826 13.4241 109.412 13.4241V14.9241ZM100.147 17.1741C99.7331 17.1741 99.3973 17.5099 99.3973 17.9241C99.3973 18.3383 99.7331 18.6741 100.147 18.6741V17.1741ZM109.412 18.6741C109.826 18.6741 110.162 18.3383 110.162 17.9241C110.162 17.5099 109.826 17.1741 109.412 17.1741V18.6741ZM100.147 20.9241C99.7331 20.9241 99.3973 21.2599 99.3973 21.6741C99.3973 22.0883 99.7331 22.4241 100.147 22.4241V20.9241ZM109.412 22.4241C109.826 22.4241 110.162 22.0883 110.162 21.6741C110.162 21.2599 109.826 20.9241 109.412 20.9241V22.4241ZM98.9414 10.1027H111.059V8.60266H98.9414V10.1027ZM111.309 10.3527V25.9997H112.809V10.3527H111.309ZM111.059 26.2497H98.9414V27.7497H111.059V26.2497ZM98.6914 25.9997V10.3527H97.1914V25.9997H98.6914ZM100.147 14.9241H109.412V13.4241H100.147V14.9241ZM100.147 18.6741H109.412V17.1741H100.147V18.6741ZM100.147 22.4241H109.412V20.9241H100.147V22.4241ZM98.9414 26.2497C98.8033 26.2497 98.6914 26.1378 98.6914 25.9997H97.1914C97.1914 26.9662 97.9749 27.7497 98.9414 27.7497V26.2497ZM111.309 25.9997C111.309 26.1378 111.197 26.2497 111.059 26.2497V27.7497C112.026 27.7497 112.809 26.9662 112.809 25.9997H111.309ZM111.059 10.1027C111.197 10.1027 111.309 10.2146 111.309 10.3527H112.809C112.809 9.38616 112.026 8.60266 111.059 8.60266V10.1027ZM98.9414 8.60266C97.9749 8.60266 97.1914 9.38617 97.1914 10.3527H98.6914C98.6914 10.2146 98.8033 10.1027 98.9414 10.1027V8.60266Z" fill="black"/>
<mask id="path-39-outside-2" maskUnits="userSpaceOnUse" x="99.4727" y="5.00037" width="11" height="8" fill="black">
<rect fill="white" x="99.4727" y="5.00037" width="11" height="8"/>
<path fill-rule="evenodd" clip-rule="evenodd" d="M106.171 8.30817C106.175 8.26505 106.178 8.22123 106.178 8.17684C106.178 7.52709 105.651 7.00037 105.001 7.00037C104.352 7.00037 103.825 7.52709 103.825 8.17684C103.825 8.22134 103.827 8.26527 103.832 8.30849C102.458 8.63026 101.473 9.50297 101.473 10.5291H108.531C108.531 9.50262 107.546 8.62967 106.171 8.30817Z"/>
</mask>
<path fill-rule="evenodd" clip-rule="evenodd" d="M106.171 8.30817C106.175 8.26505 106.178 8.22123 106.178 8.17684C106.178 7.52709 105.651 7.00037 105.001 7.00037C104.352 7.00037 103.825 7.52709 103.825 8.17684C103.825 8.22134 103.827 8.26527 103.832 8.30849C102.458 8.63026 101.473 9.50297 101.473 10.5291H108.531C108.531 9.50262 107.546 8.62967 106.171 8.30817Z" fill="white"/>
<path d="M106.171 8.30817L104.68 8.14258C104.596 8.89744 105.09 9.59584 105.829 9.76877L106.171 8.30817ZM103.832 8.30849L104.174 9.76899C104.914 9.59585 105.407 8.89731 105.323 8.14249L103.832 8.30849ZM101.473 10.5291H99.9727C99.9727 11.3575 100.644 12.0291 101.473 12.0291V10.5291ZM108.531 10.5291V12.0291C109.36 12.0291 110.031 11.3575 110.031 10.5291H108.531ZM104.678 8.17684C104.678 8.1658 104.678 8.15434 104.68 8.14258L107.661 8.47375C107.672 8.37576 107.678 8.27667 107.678 8.17684H104.678ZM105.001 8.50037C104.823 8.50037 104.678 8.35552 104.678 8.17684H107.678C107.678 6.69866 106.48 5.50037 105.001 5.50037V8.50037ZM105.325 8.17684C105.325 8.35552 105.18 8.50037 105.001 8.50037V5.50037C103.523 5.50037 102.325 6.69866 102.325 8.17684H105.325ZM105.323 8.14249C105.324 8.15428 105.325 8.16577 105.325 8.17684H102.325C102.325 8.27691 102.33 8.37626 102.341 8.47449L105.323 8.14249ZM103.49 6.84799C101.856 7.23062 99.9727 8.45277 99.9727 10.5291H102.973C102.973 10.5282 102.968 10.4294 103.156 10.2559C103.349 10.0773 103.69 9.88238 104.174 9.76899L103.49 6.84799ZM101.473 12.0291H108.531V9.02909H101.473V12.0291ZM110.031 10.5291C110.031 8.45208 108.147 7.22984 106.512 6.84757L105.829 9.76877C106.314 9.88207 106.655 10.0771 106.848 10.2557C107.036 10.4294 107.031 10.5282 107.031 10.5291H110.031Z" fill="black" mask="url(#path-39-outside-2)"/>
<path d="M93.9057 3L91.75 3C91.3358 3 91 3.33579 91 3.75L91 30.25C91 30.6642 91.3358 31 91.75 31L118.25 31C118.664 31 119 30.6642 119 30.25L119 3.75C119 3.33579 118.664 3 118.25 3L95.5652 3" stroke="black" stroke-width="1.5" stroke-miterlimit="10" stroke-dasharray="1.8 1.8"/>
<path d="M125.906 39L123.75 39C123.336 39 123 39.3358 123 39.75L123 66.25C123 66.6642 123.336 67 123.75 67L150.25 67C150.664 67 151 66.6642 151 66.25L151 39.75C151 39.3358 150.664 39 150.25 39L127.565 39" stroke="black" stroke-width="1.5" stroke-miterlimit="10" stroke-dasharray="1.8 1.8"/>
<circle cx="139" cy="53" r="3" fill="url(#paint5_linear)"/>
<circle cx="137" cy="53" r="9" stroke="#1C2329" stroke-width="1.25"/>
<circle cx="137" cy="53" r="3" stroke="#1C2329" stroke-width="1.25"/>
<path d="M142.5 53C142.5 48.6 136.167 45.8333 133 45M142.5 53C142.5 59.5 134 60 131 60M142.5 53C143.333 53.3333 145 54.6 145 57M142.5 53C144.5 51.8 144.333 48.8333 144 47.5" stroke="#1C2329" stroke-width="1.25"/>
<path d="M163.906 72L161.75 72C161.336 72 161 72.3358 161 72.75L161 99.25C161 99.6642 161.336 100 161.75 100L188.25 100C188.664 100 189 99.6642 189 99.25L189 72.75C189 72.3358 188.664 72 188.25 72L165.565 72" stroke="black" stroke-width="1.5" stroke-miterlimit="10" stroke-dasharray="1.8 1.8"/>
<path d="M172.004 81.0859C170.376 81.1194 169.824 83.6286 169.103 84.8758C169.08 85.5958 169.831 87.9832 172.406 88.3086C172.977 88.3806 173.637 88.3516 174.337 88.2632C176.686 87.9664 177.802 83.8415 175.829 82.532C174.534 81.6724 172.929 81.2566 172.387 81.1336C172.261 81.105 172.133 81.0832 172.004 81.0859Z" fill="url(#paint6_linear)"/>
<circle cx="175" cy="86" r="9" stroke="#1C2329" stroke-width="1.25"/>
<path d="M166 86.25C166.45 85.2273 167.125 84 168.25 84C169.375 84 169.866 85.0919 170.5 86.25C171.097 87.3398 171.625 88.5 172.75 88.5C173.875 88.5 174.55 87.2727 175 86.25C175.45 85.2273 176.125 84 177.25 84C178.375 84 178.866 85.0919 179.5 86.25C180.097 87.3398 180.625 88.5 181.75 88.5C182.875 88.5 183.55 87.2727 184 86.25" stroke="#1C2329" stroke-width="1.25"/>
<path d="M161.906 -1.09691e-06L159.75 -1.19114e-06C159.336 -1.20924e-06 159 0.335786 159 0.749999L159 27.25C159 27.6642 159.336 28 159.75 28L186.25 28C186.664 28 187 27.6642 187 27.25L187 0.75C187 0.335786 186.664 0 186.25 0L163.565 0" stroke="black" stroke-width="1.5" stroke-miterlimit="10" stroke-dasharray="1.8 1.8"/>
<path d="M64.9057 84L62.75 84C62.3358 84 62 84.3358 62 84.75L62 111.25C62 111.664 62.3358 112 62.75 112L89.25 112C89.6642 112 90 111.664 90 111.25L90 84.75C90 84.3358 89.6642 84 89.25 84L66.5652 84" stroke="black" stroke-width="1.5" stroke-miterlimit="10" stroke-dasharray="1.8 1.8"/>
<path d="M80.8359 95.6633C81.5678 94.8591 83.6187 93.8432 82.8564 91.8963C82.4148 90.7683 82.1581 90.5916 81.3036 90.8205C80.449 91.0495 78.59 93.8023 79.2103 95.3864C79.7751 96.8289 80.104 96.4675 80.8359 95.6633Z" fill="url(#paint7_linear)"/>
<path d="M80.8359 105.663C81.5678 104.859 83.6187 103.843 82.8564 101.896C82.4148 100.768 82.1581 100.592 81.3036 100.821C80.449 101.05 78.59 103.802 79.2103 105.386C79.7751 106.829 80.104 106.468 80.8359 105.663Z" fill="url(#paint8_linear)"/>
<path d="M70.1366 105.663C70.8685 104.859 72.9195 103.843 72.1572 101.896C71.7156 100.768 71.4589 100.592 70.6044 100.821C69.7498 101.05 67.8908 103.802 68.511 105.386C69.0758 106.829 69.4048 106.468 70.1366 105.663Z" fill="url(#paint9_linear)"/>
<path d="M70.1366 95.6633C70.8685 94.8591 72.9195 93.8432 72.1572 91.8963C71.7156 90.7683 71.4589 90.5916 70.6044 90.8205C69.7498 91.0495 67.8908 93.8023 68.511 95.3864C69.0758 96.8289 69.4048 96.4675 70.1366 95.6633Z" fill="url(#paint10_linear)"/>
<path d="M66.5 98V107.5H76M66.5 98V88.5H76M66.5 98H85.5M85.5 98V88.5H76M85.5 98V107.5H76M76 88.5V107.5" stroke="#1C2329" stroke-width="1.25" stroke-linejoin="round"/>
<path d="M72.4142 92.0858C73.1953 92.8668 73.1953 94.1332 72.4142 94.9142C71.6332 95.6953 70.3668 95.6953 69.5858 94.9142C68.8047 94.1332 68.8047 92.8668 69.5858 92.0858C70.3668 91.3047 71.6332 91.3047 72.4142 92.0858Z" stroke="#1C2329" stroke-width="1.25"/>
<path d="M82.4142 92.0858C83.1953 92.8668 83.1953 94.1332 82.4142 94.9142C81.6332 95.6953 80.3668 95.6953 79.5858 94.9142C78.8047 94.1332 78.8047 92.8668 79.5858 92.0858C80.3668 91.3047 81.6332 91.3047 82.4142 92.0858Z" stroke="#1C2329" stroke-width="1.25"/>
<path d="M82.4142 101.586C83.1953 102.367 83.1953 103.633 82.4142 104.414C81.6332 105.195 80.3668 105.195 79.5858 104.414C78.8047 103.633 78.8047 102.367 79.5858 101.586C80.3668 100.805 81.6332 100.805 82.4142 101.586Z" stroke="#1C2329" stroke-width="1.25"/>
<path d="M72.4142 101.586C73.1953 102.367 73.1953 103.633 72.4142 104.414C71.6332 105.195 70.3668 105.195 69.5858 104.414C68.8047 103.633 68.8047 102.367 69.5858 101.586C70.3668 100.805 71.6332 100.805 72.4142 101.586Z" stroke="#1C2329" stroke-width="1.25"/>
<path d="M179.132 19.3362C179.518 18.4077 179.394 17.0854 178.219 15.1013C177.365 13.6584 176.524 12.2386 175.563 11.2425C174.304 9.93859 172.892 11.4205 173.278 13.17L174.2 17.3466C174.678 19.5152 178.283 21.3779 179.132 19.3362Z" fill="url(#paint11_linear)"/>
<path d="M163 19.0039C165.797 21.0191 169.256 22.2105 173 22.2105C176.744 22.2105 180.203 21.0191 183 19.0039L173 5.78943L163 19.0039Z" stroke="#1C2329" stroke-width="1.25" stroke-linejoin="round"/>
<path d="M171.586 10.9664C172.48 11.1359 173.359 10.9091 174.033 10.4114L178.574 17.8372C176.065 19.2974 173.016 19.8966 169.922 19.3102L171.586 10.9664Z" stroke="#1C2329" stroke-width="1.25" stroke-linejoin="round"/>
<path d="M83.9057 50L81.75 50C81.3358 50 81 50.3358 81 50.75L81 77.25C81 77.6642 81.3358 78 81.75 78L108.25 78C108.664 78 109 77.6642 109 77.25L109 50.75C109 50.3358 108.664 50 108.25 50L85.5652 50" stroke="black" stroke-width="1.5" stroke-miterlimit="10" stroke-dasharray="1.8 1.8"/>
<path d="M103.747 63.9074C102.674 63.0083 100.36 62.3851 95.572 62.49C92.3328 62.5611 89.1461 62.631 86.575 63.0212C84.2373 63.3759 84.62 65.4629 86.9434 65.8099L99.6381 67.7061C101.823 68.0325 105.428 65.3164 103.747 63.9074Z" fill="url(#paint12_linear)"/>
<path d="M85 68.1785C87.2857 68.1785 89.5714 66.5071 89.5714 66.5071L91.8571 68.1785C91.8571 68.1785 93 60.3785 93 56.4785C93.381 60.7499 93.5714 71.5214 93.5714 71.5214C93.5714 71.5214 94.1429 68.1785 95.2857 68.1785C97.5714 68.1785 98.1429 67.6214 98.7143 67.0642C99.2857 66.5071 99.8571 65.3928 101 65.3928C102.143 65.3928 102.714 68.1785 105 68.1785" stroke="#1C2329" stroke-width="1.25" stroke-linecap="round" stroke-linejoin="round"/>
<circle cx="305.5" cy="21.5" r="3.5" fill="url(#paint13_linear)"/>
<path d="M293.5 11C293.5 10.1716 294.172 9.5 295 9.5H309C309.828 9.5 310.5 10.1716 310.5 11V15.1875V25C310.5 25.8284 309.828 26.5 309 26.5H295C294.172 26.5 293.5 25.8284 293.5 25V15.1875V11Z" stroke="black"/>
<circle cx="306.5" cy="22.5" r="0.625" fill="#6C7987" stroke="black"/>
<path d="M298.826 112.66C300.985 110.5 306.947 106.359 304.9 104.312C303.714 103.126 302.99 103.176 300.52 104.601C298.051 106.027 292.514 112.608 294.18 114.273C295.696 115.789 296.667 114.819 298.826 112.66Z" fill="url(#paint14_linear)"/>
<path d="M290.406 116.241C288.727 114.562 288.727 111.839 290.406 110.16L294.606 105.96L298.807 101.759C300.486 100.08 303.208 100.08 304.887 101.759C306.566 103.438 306.566 106.161 304.887 107.84L300.687 112.04L296.486 116.241C294.807 117.92 292.085 117.92 290.406 116.241Z" stroke="black"/>
<path d="M264.792 66.4464C264.675 69.9888 263.079 78.3248 266.052 78.2139C267.775 78.1496 268.286 77.4969 269.15 74.2734C270.013 71.0498 269.584 61.1396 267.164 61.2299C264.961 61.3121 264.909 62.904 264.792 66.4464Z" fill="url(#paint15_linear)"/>
<mask id="path-74-outside-3" maskUnits="userSpaceOnUse" x="263.939" y="60.1121" width="12" height="19" fill="black">
<rect fill="white" x="263.939" y="60.1121" width="12" height="19"/>
<path d="M265.108 61.1121H265.55C265.683 63.5596 265.948 68.5276 265.948 68.8197C265.948 69.1118 266.802 70.1584 267.229 70.6452H272.797H274.078L273.857 77.7849H273.018L272.828 71.6593H267.203C267.139 74.1268 267.008 77.7849 267.008 77.7849H266.169L265.948 70.6452C265.668 70.253 265.082 69.3389 264.976 68.8197C264.87 68.3004 265.02 63.4649 265.108 61.1121Z"/>
</mask>
<path d="M273.328 71.6439L273.297 70.6297L272.297 70.6606L272.328 71.6748L273.328 71.6439ZM267.703 71.6723C267.713 71.3045 267.722 70.9613 267.729 70.6578L266.73 70.6326C266.722 70.9358 266.713 71.2788 266.704 71.6463L267.703 71.6723ZM265.55 61.1121L266.549 61.058L266.498 60.1121H265.55V61.1121ZM265.108 61.1121V60.1121C264.571 60.1121 264.129 60.5372 264.109 61.0745L265.108 61.1121ZM264.976 68.8197L263.996 69.0198H263.996L264.976 68.8197ZM265.948 70.6452L266.947 70.6142L266.938 70.3111L266.762 70.0643L265.948 70.6452ZM266.169 77.7849L265.169 77.8158C265.186 78.3558 265.629 78.7849 266.169 78.7849V77.7849ZM267.008 77.7849V78.7849C267.547 78.7849 267.989 78.3586 268.008 77.8206L267.008 77.7849ZM267.229 70.6452L266.478 71.3047L266.776 71.6452H267.229V70.6452ZM274.078 70.6452L275.078 70.6761L275.11 69.6452H274.078V70.6452ZM273.857 77.7849V78.7849C274.398 78.7849 274.84 78.3558 274.857 77.8158L273.857 77.7849ZM273.018 77.7849L272.018 77.8158C272.035 78.3558 272.478 78.7849 273.018 78.7849V77.7849ZM272.828 71.6593L273.828 71.6284L273.798 70.6593H272.828V71.6593ZM267.203 71.6593V70.6593H266.229L266.204 71.6333L267.203 71.6593ZM265.55 60.1121H265.108V62.1121H265.55V60.1121ZM264.109 61.0745C264.065 62.254 264.005 64.0564 263.97 65.6309C263.952 66.4175 263.94 67.1524 263.939 67.7262C263.939 68.0124 263.942 68.2653 263.948 68.4674C263.953 68.6372 263.963 68.8567 263.996 69.0198L265.956 68.6196C265.962 68.6528 265.953 68.6077 265.947 68.4045C265.942 68.2335 265.939 68.0051 265.939 67.7282C265.94 67.1757 265.951 66.4574 265.969 65.676C266.004 64.1147 266.064 62.3229 266.108 61.1496L264.109 61.0745ZM263.996 69.0198C264.084 69.4502 264.332 69.9303 264.528 70.2745C264.742 70.651 264.977 71.0064 265.134 71.226L266.762 70.0643C266.639 69.8918 266.441 69.5941 266.266 69.2857C266.072 68.945 265.974 68.7084 265.956 68.6196L263.996 69.0198ZM264.948 70.6761L265.169 77.8158L267.168 77.7539L266.947 70.6142L264.948 70.6761ZM266.169 78.7849H267.008V76.7849H266.169V78.7849ZM267.981 69.9856C267.779 69.7556 267.477 69.3938 267.231 69.0627C267.106 68.8953 267.01 68.7539 266.949 68.6509C266.935 68.6266 266.924 68.6074 266.917 68.5931C266.909 68.5784 266.907 68.5725 266.907 68.5743C266.908 68.5749 266.915 68.593 266.924 68.625C266.931 68.6534 266.948 68.723 266.948 68.8197H264.948C264.948 69.0605 265.025 69.2588 265.064 69.3497C265.112 69.4644 265.171 69.5739 265.227 69.6685C265.34 69.859 265.484 70.0645 265.626 70.2561C265.914 70.643 266.252 71.048 266.478 71.3047L267.981 69.9856ZM266.948 68.8197C266.948 68.4916 266.68 63.4744 266.549 61.058L264.552 61.1661C264.618 62.3895 264.717 64.2427 264.8 65.8264C264.842 66.6183 264.879 67.342 264.906 67.8857C264.919 68.1576 264.93 68.3833 264.937 68.5495C264.941 68.6327 264.944 68.6995 264.946 68.7491C264.948 68.8054 264.948 68.8232 264.948 68.8197H266.948ZM273.079 70.6142L272.858 77.7539L274.857 77.8158L275.078 70.6761L273.079 70.6142ZM273.857 76.7849H273.018V78.7849H273.857V76.7849ZM267.229 71.6452H272.797V69.6452H267.229V71.6452ZM272.797 71.6452H274.078V69.6452H272.797V71.6452ZM274.017 77.7539L273.828 71.6284L271.829 71.6903L272.018 77.8158L274.017 77.7539ZM267.008 77.7849C268.008 77.8206 268.008 77.8206 268.008 77.8205C268.008 77.8205 268.008 77.8204 268.008 77.8204C268.008 77.8203 268.008 77.8201 268.008 77.8199C268.008 77.8194 268.008 77.8187 268.008 77.8179C268.008 77.8161 268.008 77.8134 268.008 77.8099C268.008 77.8029 268.009 77.7924 268.009 77.7787C268.01 77.7512 268.012 77.7106 268.014 77.6581C268.017 77.5531 268.023 77.4004 268.029 77.2095C268.043 76.8276 268.061 76.2927 268.081 75.6807C268.122 74.4572 268.171 72.9229 268.203 71.6854L266.204 71.6333C266.172 72.8633 266.123 74.3918 266.082 75.6141C266.062 76.225 266.044 76.7589 266.03 77.14C266.024 77.3306 266.019 77.4829 266.015 77.5876C266.013 77.6399 266.012 77.6804 266.011 77.7077C266.01 77.7213 266.01 77.7317 266.009 77.7387C266.009 77.7422 266.009 77.7448 266.009 77.7465C266.009 77.7474 266.009 77.7481 266.009 77.7485C266.009 77.7487 266.009 77.7489 266.009 77.749C266.009 77.7491 266.009 77.7491 266.009 77.7491C266.009 77.7491 266.009 77.7492 267.008 77.7849ZM272.828 70.6593H267.203V72.6593H272.828V70.6593Z" fill="black" mask="url(#path-74-outside-3)"/>
<rect width="2.05086" height="8.30791" rx="1.02543" transform="matrix(0.999431 -0.0337414 0.0443012 0.999018 265.768 59.8542)" fill="white" stroke="black"/>
<path d="M275.015 69.0886C275.416 69.0886 275.74 69.4132 275.74 69.8135C275.74 70.2139 275.416 70.5384 275.015 70.5384L267.326 70.5384C266.926 70.5384 266.601 70.2139 266.601 69.8135C266.601 69.4132 266.926 69.0886 267.326 69.0886L275.015 69.0886Z" fill="white" stroke="black"/>
<path d="M235.078 60.7446C236.883 58.6627 242.069 54.8715 239.904 52.4441C238.649 51.0378 237.969 51.0106 235.789 52.2696C233.608 53.5285 229.095 59.9885 230.857 61.9636C232.461 63.7622 233.273 62.8265 235.078 60.7446Z" fill="url(#paint16_linear)"/>
<path d="M232.314 52.9128L231.282 51.7326C229.75 49.9795 227.055 49.8854 225.403 51.5273C224.159 52.7643 223.843 54.6751 224.796 56.1478C225.354 57.0097 226.01 57.914 226.654 58.5498C228.515 60.3878 232.314 63.4957 232.314 63.4957C232.314 63.4957 236.114 60.3878 237.975 58.5498C238.619 57.914 239.275 57.0097 239.833 56.1479C240.786 54.6751 240.47 52.7643 239.226 51.5272C237.574 49.8853 234.879 49.9794 233.346 51.7325L232.314 52.9128Z" stroke="black"/>
</g>
<defs>
<linearGradient id="paint0_linear" x1="251.783" y1="107.494" x2="257.436" y2="109.4" gradientUnits="userSpaceOnUse">
<stop stop-color="#14DDE0"/>
<stop offset="1" stop-color="#C9CDFF"/>
<stop offset="1" stop-color="#5967FA"/>
</linearGradient>
<linearGradient id="paint1_linear" x1="303.601" y1="50.7744" x2="295.384" y2="54.8403" gradientUnits="userSpaceOnUse">
<stop stop-color="#14DDE0"/>
<stop offset="1" stop-color="#C9CDFF"/>
<stop offset="1" stop-color="#5967FA"/>
</linearGradient>
<linearGradient id="paint2_linear" x1="259.523" y1="30.2257" x2="268.61" y2="22.8643" gradientUnits="userSpaceOnUse">
<stop stop-color="#14DDE0"/>
<stop offset="1" stop-color="#C9CDFF"/>
<stop offset="1" stop-color="#5967FA"/>
</linearGradient>
<linearGradient id="paint3_linear" x1="129.902" y1="93.9999" x2="119.427" y2="99.3881" gradientUnits="userSpaceOnUse">
<stop stop-color="#14DDE0"/>
<stop offset="1" stop-color="#C9CDFF"/>
<stop offset="1" stop-color="#5967FA"/>
</linearGradient>
<linearGradient id="paint4_linear" x1="102.902" y1="10" x2="92.4272" y2="15.3882" gradientUnits="userSpaceOnUse">
<stop stop-color="#14DDE0"/>
<stop offset="1" stop-color="#C9CDFF"/>
<stop offset="1" stop-color="#5967FA"/>
</linearGradient>
<linearGradient id="paint5_linear" x1="141.55" y1="50" x2="137.517" y2="56.65" gradientUnits="userSpaceOnUse">
<stop stop-color="#14DDE0"/>
<stop offset="1" stop-color="#C9CDFF"/>
<stop offset="1" stop-color="#5967FA"/>
</linearGradient>
<linearGradient id="paint6_linear" x1="169.578" y1="88.2431" x2="174.536" y2="80.0969" gradientUnits="userSpaceOnUse">
<stop stop-color="#14DDE0"/>
<stop offset="1" stop-color="#C9CDFF"/>
<stop offset="1" stop-color="#5967FA"/>
</linearGradient>
<linearGradient id="paint7_linear" x1="79.4006" y1="96.1361" x2="83.7275" y2="92.061" gradientUnits="userSpaceOnUse">
<stop stop-color="#14DDE0"/>
<stop offset="1" stop-color="#C9CDFF"/>
<stop offset="1" stop-color="#5967FA"/>
</linearGradient>
<linearGradient id="paint8_linear" x1="79.4006" y1="106.136" x2="83.7275" y2="102.061" gradientUnits="userSpaceOnUse">
<stop stop-color="#14DDE0"/>
<stop offset="1" stop-color="#C9CDFF"/>
<stop offset="1" stop-color="#5967FA"/>
</linearGradient>
<linearGradient id="paint9_linear" x1="68.7014" y1="106.136" x2="73.0283" y2="102.061" gradientUnits="userSpaceOnUse">
<stop stop-color="#14DDE0"/>
<stop offset="1" stop-color="#C9CDFF"/>
<stop offset="1" stop-color="#5967FA"/>
</linearGradient>
<linearGradient id="paint10_linear" x1="68.7014" y1="96.1361" x2="73.0283" y2="92.061" gradientUnits="userSpaceOnUse">
<stop stop-color="#14DDE0"/>
<stop offset="1" stop-color="#C9CDFF"/>
<stop offset="1" stop-color="#5967FA"/>
</linearGradient>
<linearGradient id="paint11_linear" x1="174.082" y1="9.01443" x2="170.107" y2="19.92" gradientUnits="userSpaceOnUse">
<stop stop-color="#14DDE0"/>
<stop offset="1" stop-color="#C9CDFF"/>
<stop offset="1" stop-color="#5967FA"/>
</linearGradient>
<linearGradient id="paint12_linear" x1="102.742" y1="62.4785" x2="101.453" y2="70.2307" gradientUnits="userSpaceOnUse">
<stop stop-color="#14DDE0"/>
<stop offset="1" stop-color="#C9CDFF"/>
<stop offset="1" stop-color="#5967FA"/>
</linearGradient>
<linearGradient id="paint13_linear" x1="308.475" y1="18" x2="303.769" y2="25.7583" gradientUnits="userSpaceOnUse">
<stop stop-color="#14DDE0"/>
<stop offset="1" stop-color="#C9CDFF"/>
<stop offset="1" stop-color="#5967FA"/>
</linearGradient>
<linearGradient id="paint14_linear" x1="294.672" y1="115.191" x2="296.483" y2="101.978" gradientUnits="userSpaceOnUse">
<stop stop-color="#14DDE0"/>
<stop offset="1" stop-color="#C9CDFF"/>
<stop offset="1" stop-color="#5967FA"/>
</linearGradient>
<linearGradient id="paint15_linear" x1="269.162" y1="61.2292" x2="258.687" y2="66.6175" gradientUnits="userSpaceOnUse">
<stop stop-color="#14DDE0"/>
<stop offset="1" stop-color="#C9CDFF"/>
<stop offset="1" stop-color="#5967FA"/>
</linearGradient>
<linearGradient id="paint16_linear" x1="231.425" y1="63.0047" x2="234.947" y2="49.8799" gradientUnits="userSpaceOnUse">
<stop stop-color="#14DDE0"/>
<stop offset="1" stop-color="#C9CDFF"/>
<stop offset="1" stop-color="#5967FA"/>
</linearGradient>
<clipPath id="clip0">
<rect width="375" height="310" fill="white"/>
</clipPath>
</defs>
</svg>
