<svg width="30" height="24" viewBox="0 0 30 24" fill="none" xmlns="http://www.w3.org/2000/svg">
<g clip-path="url(#clip0_34639_2274)">
<path d="M0.810547 23.1689H29.8105V0.168945H0.810547V23.1689Z" fill="#0F75BF"/>
<path d="M3.19814 14.0139C4.16356 13.9929 4.44885 13.8433 4.44885 13.4706V6.91837H4.2844C3.43916 6.91837 2.80265 7.77065 1.96874 9.30488L1.79297 9.28357L1.85888 6.73706H8.88276L8.93736 9.28357L8.76192 9.30488C7.928 7.77065 7.29116 6.91837 6.44626 6.91837H6.29279V13.4706C6.29279 13.8433 6.56677 13.9929 7.54383 14.0139V14.1633H3.19814V14.0139Z" fill="white"/>
<path d="M9.16797 14.0139C10.0568 13.9823 10.2652 13.8543 10.2652 13.4706V7.42968C10.2652 7.04604 10.0568 6.90739 9.16797 6.87539V6.73706H13.1295V6.87539C12.4384 6.90739 12.1092 7.02471 12.1092 7.42968V10.1998H14.9621V7.42968C14.9621 7.02471 14.6222 6.90739 13.9414 6.87539V6.73706H17.9033V6.87539C17.0031 6.90739 16.8057 7.04604 16.8057 7.42968V13.4706C16.8057 13.8543 17.0031 13.9823 17.9033 14.0139V14.1633H13.9414V14.0139C14.6222 13.9823 14.9621 13.8756 14.9621 13.4706V10.4128H12.1092V13.4706C12.1092 13.8756 12.4384 13.9823 13.1295 14.0139V14.1633H9.16797V14.0139Z" fill="white"/>
<path d="M18.2109 14.0139C19.0998 13.9823 19.3078 13.8433 19.3078 13.4706V7.42968C19.3078 7.05671 19.0998 6.90739 18.2109 6.87539V6.73706H24.9162L24.9488 9.36889L24.7734 9.39021C23.9062 7.62133 23.5443 6.91836 22.1618 6.91836H21.1521V10.2212H21.514C22.3808 10.2212 22.9075 9.82686 23.2041 8.78292H23.3469V11.8621H23.2041C22.9075 10.8071 22.3808 10.4022 21.514 10.4022H21.1521V13.9713H22.0849C23.7198 13.9713 24.1699 13.332 25.0587 11.3611L25.2345 11.3827L25.1799 14.1632H18.2109V14.0139Z" fill="white"/>
<path d="M1.78125 22.3392C2.67043 22.3079 2.87849 22.1799 2.87849 21.7962V15.755C2.87849 15.371 2.67043 15.233 1.78125 15.2007V15.062H5.74311V15.2007C5.05134 15.233 4.72243 15.35 4.72243 15.755V18.5251H7.57573V15.755C7.57573 15.35 7.2355 15.233 6.55505 15.2007V15.062H10.5169V15.2007C9.61707 15.233 9.41967 15.371 9.41967 15.755V21.7962C9.41967 22.1799 9.61707 22.3079 10.5169 22.3392V22.4885H6.55505V22.3392C7.2355 22.3079 7.57573 22.2009 7.57573 21.7962V18.7381H4.72243V21.7962C4.72243 22.2009 5.05134 22.3079 5.74311 22.3392V22.4885H1.78125V22.3392Z" fill="white"/>
<path d="M10.7461 22.3392C11.6569 22.3079 11.8763 22.1689 11.8763 21.7962V15.755C11.8763 15.382 11.6569 15.233 10.7461 15.2007V15.062H14.8394V15.2007C13.9286 15.233 13.7093 15.382 13.7093 15.755V21.7962C13.7093 22.1689 13.9286 22.3079 14.8394 22.3392V22.4885H10.7461V22.3392Z" fill="white"/>
<path d="M15.125 22.3392C16.0138 22.3079 16.2226 22.1689 16.2226 21.7962V15.755C16.2226 15.382 16.0138 15.233 15.125 15.2007V15.062H19.1528V15.2007C18.2416 15.233 18.0662 15.371 18.0662 15.755V22.2969H18.5599C20.2061 22.2969 20.7217 21.6999 21.7314 19.5904L21.9075 19.6011L21.8083 22.4885H15.125V22.3392Z" fill="white"/>
<path d="M22.0723 22.3392C22.9611 22.3079 23.1698 22.1689 23.1698 21.7962V15.755C23.1698 15.382 22.9611 15.233 22.0723 15.2007V15.062H26.0997V15.2007C25.1892 15.233 25.0134 15.371 25.0134 15.755V22.2969H25.5071C27.1537 22.2969 27.6693 21.6999 28.679 19.5904L28.8545 19.6011L28.7559 22.4885H22.0723V22.3392Z" fill="white"/>
</g>
<defs>
<clipPath id="clip0_34639_2274">
<rect width="29" height="23" fill="white" transform="translate(0.810547 0.168945)"/>
</clipPath>
</defs>
</svg>
