<svg width="170" height="20" viewBox="0 0 170 20" fill="none" xmlns="http://www.w3.org/2000/svg">
<g clip-path="url(#clip0_34639_3052)">
<path d="M22.6293 10.5218V17.5186C22.6293 18.4158 23.0523 19.1089 23.5384 19.6124H19.0137C19.4867 19.1089 19.8987 18.4158 19.8987 17.5186V3.6281C19.8987 2.73029 19.5121 1.9874 19.0137 1.45386H23.5384C23.027 1.9874 22.6293 2.7974 22.6293 3.6281V9.36421H31.9406V3.6281C31.9406 2.70058 31.6085 1.9874 31.0805 1.45386H35.5347C35.0055 1.9874 34.6724 2.74899 34.6724 3.6281V17.5186C34.6724 18.365 35.0405 19.1089 35.5474 19.6124H31.0545C31.5832 19.1089 31.9409 18.3654 31.9409 17.4679V10.5218H22.6293Z" fill="#231F20"/>
<path d="M51.4509 19.6121H39.7188C40.2259 19.1086 40.6035 18.3981 40.6035 17.5183V3.6281C40.6035 2.79774 40.2328 1.9874 39.7532 1.45386H51.8613L51.154 3.3403C50.5652 2.78739 49.9801 2.60943 49.0349 2.60943H43.3337V9.35686C44.9852 9.35686 46.7365 9.35419 48.6567 9.35419C49.3111 9.35419 49.9794 9.26237 50.714 9.00996L49.882 11.0717C49.3442 10.5689 48.7912 10.5088 47.8227 10.5088H43.3337V18.4218C44.4663 18.4218 44.879 18.4315 46.0327 18.4315C46.5786 18.4315 50.7621 18.4174 52.4738 17.1604L51.4509 19.6121Z" fill="#231F20"/>
<path d="M149.52 19.6121H137.787C138.292 19.1086 138.672 18.3981 138.672 17.5183V3.6281C138.672 2.79774 138.305 1.9874 137.823 1.45386H149.929L149.221 3.3403C148.636 2.78739 148.051 2.60943 147.103 2.60943H141.403V9.35686C143.053 9.35686 144.805 9.35419 146.724 9.35419C147.378 9.35419 148.049 9.26237 148.781 9.00996L147.95 11.0717C147.412 10.5689 146.86 10.5088 145.891 10.5088H141.403V18.4218C142.536 18.4218 142.948 18.4315 144.103 18.4315C144.645 18.4315 148.831 18.4174 150.542 17.1604L149.52 19.6121Z" fill="#231F20"/>
<path d="M66.5218 3.60673V9.3572V10.5091V18.4221C67.6837 18.4221 68.3787 18.4318 69.5331 18.4318C70.0783 18.4318 74.0568 18.3684 75.8659 17.0091L74.7895 19.6121H62.9043C63.4112 19.1086 63.7897 18.3804 63.7897 17.5019V3.6281C63.7897 2.79774 63.4216 1.9874 62.942 1.45386C63.1087 1.45386 67.3416 1.45386 67.4443 1.45386C66.9455 2.00844 66.5218 2.81309 66.5218 3.60673Z" fill="#231F20"/>
<path d="M82.6162 13.5114C82.3091 14.2689 81.1326 17.546 81.1326 17.546C80.8477 18.3043 80.8522 18.8709 81.1401 19.6121H78.084C78.7952 18.8545 79.345 18.0725 79.6013 17.4675L85.1856 3.51926C85.6255 2.47788 85.0618 1.63015 84.6888 1.45386H88.346L94.9602 17.5183C95.2126 18.1159 95.61 18.8705 96.4262 19.6121H92.1412C92.4447 18.8886 92.473 18.3023 92.1572 17.546C92.1572 17.546 90.6603 13.9998 90.4706 13.5114H82.6162ZM90.0335 12.3505L86.4381 3.68253L83.0655 12.3505H90.0335Z" fill="#231F20"/>
<path d="M114.729 3.6281V19.6121H113.947L101.315 4.50822V17.5186C101.315 18.365 101.694 19.1089 102.225 19.6124H99.1729C99.6817 19.1089 100.035 18.3654 100.035 17.5186V3.74162C100.035 2.956 99.8626 2.65316 99.3681 2.0869C99.118 1.80143 98.8301 1.5834 98.6562 1.45386H102.204L113.461 15.0095V3.6281C113.461 2.73029 113.115 1.9874 112.622 1.45386H115.579C115.062 1.93732 114.743 2.73029 114.729 3.6281Z" fill="#231F20"/>
<path d="M131.163 19.7217C130.137 19.8686 129.777 19.936 128.496 19.936C122.579 19.936 118.674 15.7418 118.674 10.6341C118.674 4.94903 122.923 1.16113 128.537 1.16113C129.405 1.16113 130.098 1.20621 130.711 1.27599C131.512 1.36881 132.151 1.48633 132.907 1.6496L133.701 4.01216C132.814 3.14039 131.054 2.20485 128.533 2.20485C123.927 2.20485 121.751 6.15535 121.751 10.6197C121.751 15.2296 124.091 18.8803 128.708 18.8803C130.538 18.8803 132.695 18.2139 133.972 16.7935C133.424 18.2189 133.167 18.9434 133.03 19.3294C132.508 19.4719 132.054 19.5945 131.163 19.7217Z" fill="#231F20"/>
<path d="M15.0158 2.60941L9.1798 2.60206L9.19215 17.9543C9.19215 18.7586 9.74384 19.3443 10.1019 19.6121H5.59279C6.01939 19.2962 6.45347 18.785 6.45347 17.9543L6.44958 2.60741H2.30242C1.56454 2.60741 0.711653 2.81308 0.0527344 3.16499L0.797755 1.45384H13.4816C14.4602 1.45384 15.1543 1.33899 15.7726 1.02881L15.0158 2.60941Z" fill="#231F20"/>
<path d="M168.295 2.60941L162.459 2.60206L162.471 17.9543C162.471 18.7586 163.041 19.3443 163.396 19.6121H158.903C159.332 19.2962 159.733 18.785 159.733 17.9543L159.728 2.60707H155.58C154.843 2.60707 153.989 2.81274 153.33 3.16499L154.078 1.45384H166.759C167.737 1.45384 168.43 1.33899 169.053 1.02881L168.295 2.60941Z" fill="#231F20"/>
</g>
<defs>
<clipPath id="clip0_34639_3052">
<rect width="169" height="19" fill="white" transform="translate(0.0527344 0.982422)"/>
</clipPath>
</defs>
</svg>
