<svg width="77" height="26" viewBox="0 0 77 26" fill="none" xmlns="http://www.w3.org/2000/svg">
<g clip-path="url(#clip0_34639_2395)">
<path d="M17.5735 13.9652C17.8311 13.8363 18.1145 13.6817 18.3722 13.5528C18.4752 13.5013 18.8359 13.3724 18.8874 13.2693C18.9132 13.2178 18.8874 13.0631 18.8874 12.9858V12.3673V7.96003V3.65591V3.0889C18.8874 3.06313 18.9132 2.88271 18.8874 2.85694C18.8617 2.83117 18.6556 2.85694 18.6298 2.85694H18.063C17.8569 2.85694 17.8827 2.88271 17.7539 3.03735C17.2644 3.68168 16.7749 4.32601 16.2854 4.99612C16.0535 5.3054 15.8217 5.5889 15.6155 5.89818C15.461 6.10436 15.461 6.13014 15.1776 6.13014L15.2549 4.42911C15.2806 4.01674 15.2806 3.60436 15.3064 3.19199C15.3064 3.03735 15.3322 2.88271 15.3322 2.72808C15.3322 2.67653 15.3064 2.52189 15.3322 2.49612C15.3837 2.4188 15.8474 2.47034 15.9762 2.47034H25.6115C25.663 2.47034 25.8949 2.44457 25.9464 2.47034C25.9979 2.49612 25.9722 2.65076 25.9722 2.72808C25.9979 3.06313 25.9979 3.42395 26.0237 3.759C26.0494 4.50643 26.0752 5.22808 26.1267 5.9755V6.13014C25.9979 6.13014 25.8949 6.15591 25.7918 6.07859C25.6888 6.00127 25.6115 5.84663 25.5342 5.74354C25.225 5.33117 24.9159 4.89302 24.581 4.48065L23.6535 3.24354C23.602 3.16622 23.5247 2.98581 23.4216 2.93426C23.3444 2.88271 23.1898 2.90849 23.0867 2.90849H22.6745C22.623 2.90849 22.4169 2.88271 22.3654 2.90849C22.3396 2.93426 22.3654 2.93426 22.3396 2.98581C22.2881 3.19199 22.3396 3.44973 22.3396 3.65591V12.625C22.3396 12.8054 22.2881 13.0631 22.3396 13.2435C22.3911 13.424 22.8033 13.5528 22.9837 13.6301C23.164 13.7332 23.4732 13.8106 23.6278 13.9652C23.6793 14.0167 23.7308 14.2745 23.6793 14.3518C23.6535 14.3776 23.5247 14.3518 23.4989 14.3518H17.8311C17.7796 14.3518 17.5993 14.3776 17.5735 14.3518C17.5478 14.2487 17.5735 14.0425 17.5735 13.9652ZM27.1315 13.5013V9.73839V3.57859V2.57344C27.1315 2.4188 27.183 2.18684 27.1315 2.0322C27.08 1.85179 26.7708 1.82601 26.5905 1.74869C26.4874 1.72292 26.1525 1.6456 26.101 1.54251V1.33632H26.1783C26.2813 1.28478 26.4874 1.28478 26.6162 1.259C26.8481 1.20746 27.08 1.18168 27.2861 1.13014C27.8013 1.02704 28.3423 0.923952 28.8576 0.846632C29.1667 0.795086 29.4759 0.717766 29.785 0.66622C29.8623 0.66622 30.1715 0.614674 30.1972 0.66622C30.223 0.691993 30.1972 0.795086 30.1972 0.820859V6.15591C31.1762 5.17653 32.8766 4.63529 34.242 4.97034C35.4271 5.25385 35.8135 6.3621 35.8135 7.49612C35.8393 8.93942 35.8135 10.3569 35.8135 11.8002V12.96C35.8135 13.0889 35.762 13.3982 35.8135 13.527C35.8393 13.5786 35.9423 13.6044 35.9939 13.6559C36.1742 13.759 36.3803 13.8621 36.5606 13.9652C36.5864 13.991 36.6637 14.0167 36.6637 14.0425C36.6894 14.0683 36.6894 14.3002 36.6637 14.326C36.6379 14.3776 36.6379 14.3518 36.5606 14.3518C36.2772 14.4033 35.9681 14.3518 35.7105 14.3518H32.0006C31.9749 14.3518 31.8461 14.3776 31.8203 14.3518C31.7945 14.326 31.7945 14.0425 31.8203 14.0167C31.8976 13.9136 32.2067 13.8106 32.3098 13.7332C32.3871 13.6817 32.6189 13.6044 32.6705 13.527C32.722 13.4497 32.6705 13.1662 32.6705 13.0889V12.0322C32.6705 10.5374 32.6962 9.01674 32.6705 7.52189C32.6705 7.08375 32.5932 6.56828 32.1552 6.33632C31.9233 6.20746 31.6142 6.18168 31.3566 6.18168C31.1505 6.18168 30.9444 6.23323 30.764 6.28478C30.6094 6.33632 30.3261 6.43942 30.223 6.56828C30.1457 6.67138 30.1972 6.82601 30.1972 6.95488V13.0374C30.1972 13.1662 30.1457 13.424 30.1972 13.527C30.223 13.5786 30.3261 13.6301 30.4033 13.6559C30.5837 13.759 30.8155 13.8621 30.9959 13.9652C31.0217 13.991 31.0732 13.991 31.0732 14.0167C31.0989 14.0425 31.0989 14.2745 31.0732 14.3002C31.0474 14.326 31.0217 14.326 30.9701 14.326C30.6867 14.3518 30.3776 14.326 30.0942 14.326H26.3844C26.3586 14.326 26.2298 14.3518 26.204 14.326C26.1783 14.3002 26.204 14.0425 26.2298 13.991C26.3071 13.8879 26.5905 13.7848 26.6935 13.7332C26.8739 13.6559 27.0027 13.5786 27.1315 13.5013ZM39.3688 9.94457C39.4203 11.0786 39.781 12.3415 40.8115 12.96C41.3525 13.2693 42.0223 13.3724 42.6406 13.3209C43.3878 13.2435 44.0061 12.8827 44.6501 12.5477C44.6501 12.6508 44.6759 12.8312 44.6501 12.9343C44.5986 13.0374 44.4698 13.1662 44.3925 13.2435C44.2894 13.3466 44.1606 13.4755 44.0318 13.5786C43.5939 13.9394 43.1044 14.1971 42.5891 14.3776C41.6101 14.7126 40.4766 14.6868 39.4718 14.4291C38.6732 14.2229 37.9518 13.8363 37.4108 13.2178C36.8698 12.5992 36.5606 11.8002 36.4318 10.9755C36.1484 9.19715 36.4833 7.16107 37.9518 5.9755C39.24 4.94457 41.301 4.73839 42.821 5.35694C44.6759 6.10436 44.985 8.21777 44.985 9.97034H40.0644C39.8325 9.94457 39.6006 9.94457 39.3688 9.94457ZM39.3172 9.50643C39.8325 9.48065 40.3478 9.45488 40.8888 9.40333C41.1979 9.37756 41.5328 9.37756 41.842 9.35179C41.8935 9.35179 42.0223 9.35179 42.0739 9.32601C42.1511 9.27447 42.0996 8.759 42.0996 8.65591C42.0739 7.72808 42.0481 6.59406 41.5071 5.79509C41.1206 5.22808 40.5281 5.33117 40.1674 5.84663C39.4203 6.85179 39.3172 8.34663 39.3172 9.50643ZM0.3125 18.9136C0.3125 17.4703 0.59589 15.9755 1.39453 14.7642C2.16742 13.5786 3.40403 12.8054 4.74369 12.4188C6.36674 11.9549 8.17013 12.0064 9.8447 12.3157C10.2054 12.393 10.5661 12.4703 10.901 12.5734C10.9525 12.5992 11.1844 12.6508 11.2101 12.7023V12.7796C11.2874 13.0889 11.2359 13.4755 11.2359 13.7848C11.2617 14.5837 11.2617 15.4085 11.2874 16.2075C11.1844 16.2075 11.004 16.2332 10.9267 16.2075C10.8752 16.1817 10.8237 16.0528 10.7979 16.0013C10.5918 15.692 10.3857 15.3827 10.2054 15.0477C9.76741 14.3518 9.30369 13.6559 8.86572 12.96C8.63385 12.5734 7.98979 12.5734 7.57758 12.5734C7.11386 12.5734 6.65013 12.6508 6.26369 12.8827C5.38775 13.424 4.97555 14.4807 4.74369 15.4343C4.38301 16.9549 4.40877 18.5528 4.48606 20.0992C4.56335 21.2848 4.6664 22.5477 5.13013 23.6301C5.41352 24.3002 5.90301 24.893 6.65013 25.0477C6.88199 25.0992 7.11386 25.0992 7.37148 25.0734C7.52606 25.0477 8.06708 25.0219 8.14436 24.8673C8.17013 24.8157 8.14436 24.6868 8.14436 24.6353V24.1972V21.4652V20.4085C8.14436 20.2281 8.19589 20.1508 8.04131 20.0477C7.86097 19.9446 7.65487 19.8415 7.47453 19.7126C7.34572 19.6353 7.08809 19.558 7.0108 19.4549C6.95928 19.4033 6.93352 19.1198 6.98504 19.0683C7.0108 19.0167 7.0108 19.0425 7.08809 19.0425C7.31996 18.991 7.62911 19.0425 7.86097 19.0425H11.8542C12.1118 19.0425 12.3952 19.0167 12.6528 19.0425H12.7559C12.7817 19.0683 12.7817 19.4291 12.7559 19.4807C12.7044 19.558 12.4467 19.6611 12.3437 19.7126C12.1633 19.8157 11.9572 19.9188 11.7769 20.0477C11.5708 20.1508 11.5966 20.1508 11.5966 20.3827V24.5837C11.5966 24.6353 11.6223 24.7642 11.5966 24.8157C11.545 24.9446 11.004 25.0219 10.8494 25.0734C10.4115 25.2023 9.94775 25.3054 9.48402 25.3827C8.58233 25.5374 7.68063 25.5889 6.77894 25.5631C5.33623 25.5116 3.81623 25.2023 2.63114 24.326C1.60064 23.5786 0.930805 22.4446 0.621653 21.2075C0.389788 20.4858 0.3125 19.6868 0.3125 18.9136ZM12.1891 16.5683C12.1891 16.5167 12.1633 16.3106 12.1891 16.2848C12.2149 16.259 12.2406 16.2848 12.2664 16.259C12.421 16.1817 12.6271 16.1817 12.8074 16.1559C13.4 16.0528 13.9925 15.9497 14.6108 15.8466C15.0745 15.7693 15.5383 15.6662 15.9762 15.6147C16.105 15.5889 16.2596 15.5889 16.3884 15.6404C16.5172 15.6662 16.4657 15.6404 16.4915 15.7435C16.543 16.0528 16.4915 16.4136 16.4915 16.7229V22.1095C16.4915 22.7539 16.3111 23.9394 16.9294 24.326C17.2386 24.5322 17.6766 24.5322 18.0372 24.4549C18.3206 24.4033 18.8617 24.1971 18.9647 23.8879C18.9905 23.8106 18.9647 23.7075 18.9647 23.6301V23.0889V19.5064V17.8569V17.3157C18.9647 17.2642 18.9905 17.1095 18.9647 17.058C18.8874 16.9807 18.6298 16.9033 18.5525 16.8776C18.3979 16.826 18.2691 16.7487 18.1145 16.6971C18.063 16.6714 17.8827 16.6456 17.8569 16.5941C17.8311 16.5683 17.8311 16.3363 17.8569 16.3106C17.8827 16.2848 17.8827 16.3106 17.9084 16.2848C18.0372 16.2075 18.2691 16.2332 18.3979 16.2075C19.4542 16.027 20.5362 15.7951 21.6183 15.6404C21.7471 15.6147 21.8759 15.6147 22.0047 15.6404C22.1335 15.6662 22.082 15.6147 22.1078 15.7435C22.1593 16.0013 22.1078 16.3621 22.1078 16.6456V24.0683C22.1078 24.1456 22.082 24.2745 22.1078 24.3776C22.1335 24.4549 22.1078 24.4291 22.2366 24.4807C22.4942 24.5837 22.7776 24.7126 23.0352 24.8157C23.1125 24.8415 23.1383 24.8415 23.164 24.893C23.1898 24.9446 23.1898 25.125 23.164 25.125C23.1125 25.1765 22.8549 25.1508 22.8033 25.1765C22.2366 25.2539 21.6698 25.3054 21.0772 25.3827C20.562 25.4343 20.0467 25.5116 19.5572 25.5631C19.4542 25.5889 19.3511 25.5889 19.2481 25.5631C19.1966 25.5631 19.042 25.5631 19.0162 25.5374C18.9905 25.4858 19.0162 25.2796 19.0162 25.2281V24.7899C19.0162 24.7126 19.0678 24.5064 19.0162 24.4291C18.9647 24.3518 18.8617 24.4549 18.7844 24.5064C18.5783 24.6868 18.3464 24.8673 18.1145 24.9961C17.2644 25.5116 16.2081 25.7435 15.2291 25.5374C14.5078 25.3827 13.8894 24.9703 13.5803 24.2745C13.3484 23.7848 13.2969 23.2435 13.2969 22.7281V19.6611V17.9085V17.3157C13.2969 17.2642 13.3227 17.1095 13.2969 17.058C13.2454 16.9807 12.9362 16.9033 12.8589 16.8518C12.6013 16.7487 12.3952 16.6714 12.1891 16.5683ZM36.4833 15.5889C36.5349 15.5889 36.7667 15.5889 36.7925 15.6404C36.8183 15.6662 36.7925 15.8466 36.7925 15.8724V18.1404C36.7925 18.2178 36.7667 18.3466 36.7925 18.424V18.4755C36.8955 18.5786 36.9213 18.2435 36.9471 18.2178C37.1789 17.2642 37.6169 16.1559 38.5959 15.7693C38.7762 15.692 38.9566 15.6662 39.1369 15.6404C39.2915 15.6404 39.7294 15.5889 39.8067 15.7178C39.8325 15.7693 39.8067 15.8982 39.8067 15.9497V18.5786C39.1884 18.4497 38.4928 18.4755 37.9003 18.6044C37.6169 18.6559 37.3593 18.7332 37.1017 18.8621C36.9728 18.9136 36.9471 18.8879 36.9213 18.991C36.8955 19.0941 36.9213 19.2745 36.9213 19.3776V24.3518C36.9213 24.4033 36.8955 24.4807 36.9213 24.5322C36.9728 24.6095 37.1532 24.6611 37.2305 24.6868C37.3593 24.7642 37.5139 24.8415 37.6427 24.9188C37.6942 24.9446 37.7715 24.9703 37.7972 25.0219C37.823 25.0477 37.823 25.3569 37.7972 25.3827C37.7715 25.4085 37.6169 25.3827 37.5654 25.3827H33.2888C33.16 25.3827 32.9281 25.4343 32.825 25.3827H32.7478C32.722 25.3569 32.7478 25.0734 32.7478 25.0477C32.7993 24.893 33.1342 24.7899 33.2888 24.7126C33.3918 24.6611 33.5979 24.5837 33.6494 24.4807C33.6752 24.4291 33.6494 24.2745 33.6494 24.2229V23.6817V17.058C33.6494 17.0322 33.6752 16.9033 33.6494 16.8776C33.6237 16.8518 33.4949 16.826 33.4433 16.826C33.2888 16.7745 33.1342 16.7229 32.9796 16.6971C32.825 16.6456 32.4386 16.6198 32.5674 16.3621C32.5932 16.2848 32.6962 16.3106 32.7993 16.2848C33.9328 16.0786 35.0406 15.8724 36.1742 15.6662C36.2772 15.6147 36.3803 15.6147 36.4833 15.5889ZM46.1959 15.8209V13.759V13.1662C46.1959 13.0889 46.2216 12.9343 46.1959 12.8569C46.1701 12.8054 46.0671 12.7796 45.9898 12.7538C45.7837 12.6765 45.5776 12.5992 45.3457 12.5219C45.1911 12.4703 45.1139 12.4961 45.1139 12.3157C45.1139 12.1611 45.0881 12.2126 45.2169 12.1868C45.5003 12.0837 45.8352 12.0837 46.1186 12.0322C46.9688 11.8776 47.7932 11.7229 48.6433 11.5683C48.8237 11.5425 49.004 11.491 49.1844 11.5167C49.3905 11.5425 49.4162 11.491 49.4162 11.6714C49.442 12.0837 49.4162 12.5219 49.4162 12.9343V24.2229C49.4162 24.326 49.3905 24.326 49.4678 24.3776C49.6223 24.4807 49.88 24.5322 50.0345 24.5837C50.1376 24.6095 50.421 24.6611 50.4725 24.7384C50.4983 24.7642 50.4983 25.0477 50.4725 25.0734C50.4467 25.0992 50.2922 25.0992 50.2664 25.0992C49.9057 25.1508 49.5708 25.2023 49.2101 25.2281C48.4115 25.3312 47.6128 25.4343 46.7884 25.5374C46.6596 25.5631 46.3505 25.6147 46.2989 25.5116C46.2474 25.4085 46.2989 25.0734 46.2989 24.9703C46.2989 24.893 46.3505 24.558 46.2989 24.5064C46.2474 24.4549 45.6806 24.9703 45.6033 25.0219C45.2942 25.2281 44.9593 25.3827 44.5986 25.4858C44.0318 25.6404 43.3878 25.6404 42.821 25.5116C40.3478 24.9446 39.8325 22.0064 40.0386 19.8673C40.1417 18.7332 40.5023 17.5992 41.2752 16.7745C41.9966 16.027 42.9755 15.6404 43.9803 15.5631C44.7532 15.4858 45.5003 15.5374 46.1959 15.8209ZM46.1959 24.0425V17.7023V16.5167C46.1959 16.3621 46.1701 16.3363 45.9898 16.2332C45.6291 16.027 45.1654 15.9497 44.7789 16.1044C44.1864 16.3363 43.903 17.0322 43.7484 17.5992C43.4393 18.6301 43.4135 19.7384 43.4393 20.8209C43.465 21.7487 43.4908 22.8827 44.0061 23.7075C44.4698 24.4291 45.5261 24.6095 46.1959 24.0425ZM54.7233 15.5889C54.8522 15.6147 55.0067 15.5631 55.0583 15.692C55.084 15.7693 55.0583 15.9497 55.0583 16.027V24.0941C55.0583 24.1971 55.0325 24.3518 55.0583 24.4549C55.084 24.558 55.1871 24.5837 55.2901 24.6353C55.4447 24.7126 55.5735 24.7899 55.7281 24.8673C55.7796 24.893 55.9342 24.9446 55.96 25.0219C55.96 25.0477 55.9857 25.3569 55.96 25.3827H55.8827C55.7281 25.4085 55.522 25.3827 55.3417 25.3827H51.4257C51.3227 25.3827 51.0393 25.4343 50.962 25.3827C50.9105 25.3569 50.8847 25.0477 50.9362 24.9961C50.9878 24.9188 51.1681 24.8673 51.2454 24.8415C51.4 24.7642 51.5545 24.6611 51.7091 24.5837C51.8379 24.5064 51.8122 24.5322 51.8122 24.4291C51.8637 24.0425 51.8122 23.6044 51.8122 23.2178V21.1817V17.4703C51.8122 17.3673 51.8379 17.1868 51.8122 17.0837C51.7864 16.9807 51.6576 16.9807 51.5545 16.9291C51.3742 16.8518 51.2196 16.8002 51.0393 16.7229C50.9878 16.6971 50.7817 16.6714 50.7301 16.5941C50.7044 16.5683 50.7044 16.3106 50.7301 16.2848C50.7559 16.259 50.8074 16.2848 50.8332 16.259C51.0393 16.1817 51.2711 16.1817 51.503 16.1301C51.8379 16.0786 52.1471 16.0013 52.482 15.9497C53.1261 15.8466 53.7444 15.7178 54.3884 15.6147C54.5172 15.6404 54.6203 15.6147 54.7233 15.5889ZM55.084 13.192C55.0325 14.7384 52.9457 15.4085 51.9925 14.1971C51.5545 13.6301 51.5288 12.8569 51.9152 12.2642C52.3017 11.6714 53.0488 11.4136 53.7444 11.5683C54.5172 11.7229 55.084 12.393 55.084 13.192ZM66.3681 24.5064V18.2951V17.1095C66.3681 17.0837 66.3939 16.9549 66.3681 16.9291C66.3423 16.8776 66.1878 16.8518 66.1362 16.8518L65.6725 16.6971C65.5952 16.6714 65.3891 16.6456 65.3376 16.5683C65.2861 16.5167 65.3118 16.3879 65.3118 16.3106C65.3118 16.1559 65.3633 16.1817 65.5179 16.1559L67.2183 15.8466L68.9186 15.5374C69.0217 15.5116 69.0989 15.4858 69.202 15.4858C69.2535 15.4858 69.5111 15.4858 69.5627 15.5116C69.5884 15.5374 69.5627 15.692 69.5627 15.7435V16.2332C69.5627 16.3106 69.5111 16.5425 69.5627 16.6198C69.6142 16.7229 69.7172 16.6198 69.7945 16.5425C70.0264 16.3621 70.2583 16.2075 70.5159 16.0786C71.4433 15.5631 72.5511 15.3312 73.6074 15.4858C74.3288 15.5889 74.9213 15.9755 75.1789 16.6714C75.3593 17.1611 75.385 17.6765 75.385 18.192V24.0683C75.385 24.1714 75.3593 24.3518 75.385 24.4549C75.4108 24.558 75.4881 24.5837 75.6169 24.6353C75.7457 24.7126 75.9003 24.7899 76.0291 24.8673C76.0806 24.893 76.261 24.9446 76.2867 25.0219C76.3125 25.0734 76.3125 25.3312 76.2867 25.3569C76.261 25.4085 76.3125 25.3569 76.2352 25.3827C76.1322 25.4343 75.9003 25.3827 75.7715 25.3827H72.0874C71.9328 25.3827 71.3403 25.46 71.263 25.3569C71.2372 25.3312 71.2372 25.0477 71.263 24.9961C71.2888 24.9446 71.4433 24.893 71.4949 24.8673C71.6495 24.7899 71.7783 24.7126 71.9328 24.6353C71.9844 24.6095 72.1389 24.558 72.1647 24.5064C72.1905 24.4549 72.1647 24.3518 72.1647 24.3002V23.7332V21.9291V18.4497C72.1647 18.0374 72.1905 17.5734 71.9328 17.2126C71.7267 16.9033 71.3661 16.826 71.0054 16.8002C70.722 16.8002 70.4644 16.826 70.2067 16.9033C70.0779 16.9549 69.6915 17.058 69.6142 17.2126C69.5884 17.2642 69.6142 17.3673 69.6142 17.4188V24.0941C69.6142 24.1714 69.5884 24.3518 69.6142 24.4291C69.64 24.5322 69.7945 24.558 69.8718 24.6095C70.0006 24.6868 70.1552 24.7642 70.284 24.8415C70.3355 24.8673 70.4386 24.9188 70.4644 24.9446C70.4901 24.9703 70.4901 25.2796 70.4644 25.3054C70.4644 25.3312 70.4386 25.3054 70.4128 25.3054C70.3098 25.3569 70.0522 25.3054 69.9491 25.3054H65.621C65.4922 25.3054 65.4664 25.3312 65.4406 25.2539C65.4149 25.2023 65.4149 24.9703 65.4406 24.9188C65.4664 24.8673 65.621 24.8157 65.6725 24.7899C65.9301 24.7642 66.1362 24.6353 66.3681 24.5064ZM60.9064 19.7642C60.9064 19.0941 60.9322 18.3982 60.8806 17.7023C60.8033 16.9549 60.5972 16.1301 59.7471 15.9755C59.4894 15.924 59.0257 15.8466 58.8454 16.0528C58.665 16.2332 58.5362 16.491 58.3816 16.6971L57.0677 18.4755C56.9905 18.5786 56.9132 18.7848 56.8101 18.8363C56.7844 18.8621 56.5267 18.8621 56.5267 18.8363C56.501 18.8106 56.5267 18.6301 56.5267 18.5786V16.491C56.5267 16.4136 56.501 16.2848 56.5267 16.2075C56.5783 16.0786 57.145 16.0013 57.2739 15.9497C57.9952 15.7693 58.7423 15.6404 59.4894 15.5889C60.5457 15.5116 61.7308 15.5374 62.7098 16.0013C63.4827 16.3621 63.9722 17.0064 64.101 17.8312C64.1783 18.2435 64.1525 18.7075 64.1525 19.1198V24.2745C64.1525 24.3518 64.101 24.558 64.1525 24.6095C64.1783 24.6353 64.3071 24.6611 64.3328 24.6611C64.5389 24.7126 64.7193 24.7642 64.9254 24.8157C65.0542 24.8415 65.08 24.8415 65.08 24.9703C65.08 25.0992 65.1057 25.0992 64.9511 25.1508C64.7708 25.2281 64.5905 25.3054 64.4101 25.3569C63.4569 25.6404 61.9627 25.7178 61.2671 24.8415C61.2155 24.7642 61.061 24.4291 60.9837 24.4033C60.8806 24.3776 60.5715 24.7899 60.4684 24.8673C60.0562 25.2281 59.5152 25.4343 58.9742 25.5116C57.9694 25.6404 56.8874 25.4343 56.2691 24.558C55.7539 23.8106 55.6508 22.6508 56.0372 21.826C56.7328 20.2539 58.7939 20.0992 60.2881 19.8415C60.4684 19.8415 60.6745 19.7899 60.9064 19.7642ZM60.9064 24.0425V20.2281C60.1335 20.2796 59.3349 20.3312 59.0515 21.1817C58.8454 21.7487 58.8454 22.4188 58.9227 23.0116C58.9742 23.424 59.0772 23.9394 59.4637 24.1972C59.8759 24.4807 60.5715 24.4291 60.9064 24.0425ZM28.2908 19.7642C28.2908 19.0941 28.3166 18.3982 28.265 17.7023C28.1878 16.9549 27.9816 16.1301 27.1315 15.9755C26.8739 15.924 26.4101 15.8466 26.2298 16.0528C26.0494 16.2332 25.9206 16.491 25.7661 16.6971L24.4522 18.4755C24.3749 18.5786 24.2976 18.7848 24.1945 18.8363C24.1688 18.8621 23.9111 18.8621 23.9111 18.8363C23.8854 18.8106 23.9111 18.6301 23.9111 18.5786V16.5167C23.9111 16.4394 23.8854 16.3106 23.9111 16.2332C23.9627 16.1044 24.5037 16.027 24.6583 15.9755C25.3796 15.7951 26.1267 15.6662 26.8481 15.6147C27.9044 15.5374 29.0894 15.5631 30.0684 16.027C30.8413 16.3879 31.3308 17.0322 31.4596 17.8569C31.5369 18.2693 31.5111 18.7332 31.5111 19.1456V24.3002C31.5111 24.3776 31.4596 24.5837 31.5111 24.6353C31.5369 24.6611 31.6657 24.6868 31.6915 24.6868C31.8976 24.7384 32.0779 24.7899 32.284 24.8415C32.4128 24.8673 32.4386 24.8673 32.4386 24.9961C32.4386 25.125 32.4644 25.125 32.3098 25.1765C32.1294 25.2539 31.9491 25.3312 31.7688 25.3827C30.8155 25.6662 29.3213 25.7435 28.6257 24.8673C28.5742 24.7899 28.4196 24.4549 28.3423 24.4291C28.2393 24.4033 27.9301 24.8157 27.8528 24.893C27.4406 25.2539 26.8996 25.46 26.3586 25.5374C25.3539 25.6662 24.2718 25.46 23.6535 24.5837C23.1383 23.8363 23.0352 22.6765 23.4216 21.8518C24.1172 20.2796 26.1783 20.125 27.6467 19.8673C27.8528 19.8415 28.0589 19.7899 28.2908 19.7642ZM28.2908 24.0425V20.2281C27.5179 20.2796 26.7193 20.3312 26.4359 21.1817C26.2298 21.7487 26.2298 22.4188 26.3071 23.0116C26.3586 23.424 26.4617 23.9394 26.8481 24.1972C27.2603 24.4807 27.9559 24.4291 28.2908 24.0425Z" fill="#121212"/>
</g>
<defs>
<clipPath id="clip0_34639_2395">
<rect width="76" height="25" fill="white" transform="translate(0.337891 0.640381)"/>
</clipPath>
</defs>
</svg>
