<svg width="148" height="11" viewBox="0 0 148 11" fill="none" xmlns="http://www.w3.org/2000/svg">
<g clip-path="url(#clip0_31179:1587)">
<path d="M5.75709 9.17338C5.75709 10.1226 7.16012 9.66924 7.16012 10.0234C7.16012 10.1934 7.01847 10.2222 6.79175 10.2222C6.1259 10.2222 5.75709 10.1934 4.90704 10.1934C4.05698 10.1934 3.68865 10.2222 3.02232 10.2222C2.79564 10.2222 2.65396 10.1934 2.65396 10.0234C2.65396 9.66924 4.05654 10.1226 4.05654 9.17338L4.04285 0.92656C2.61192 0.92656 1.3789 2.18746 0.825908 3.33548C0.670066 3.66133 0.59923 3.84549 0.514225 3.84549C0.415054 3.84549 0.386719 3.78885 0.386719 3.73218C0.386719 3.56216 0.471724 3.22214 0.528394 2.95296L0.981749 0.629043C0.995919 0.543581 1.01008 0.359863 1.13759 0.359863C1.2226 0.359863 1.25093 0.416535 1.32177 0.473201C1.40723 0.529872 1.53474 0.586542 1.83225 0.586542H7.96767C8.26519 0.586542 8.39316 0.529872 8.47769 0.473201C8.54854 0.416535 8.57688 0.359863 8.66186 0.359863C8.78938 0.359863 8.80355 0.544041 8.81772 0.629043L9.27107 2.95296C9.32775 3.22214 9.41321 3.56216 9.41321 3.73218C9.41321 3.78885 9.38442 3.84549 9.28568 3.84549C9.2007 3.84549 9.12986 3.66133 8.97403 3.33548C8.4215 2.18746 7.18846 0.92656 5.75709 0.92656V9.17338Z" fill="black"/>
<path d="M13.0815 5.29096V9.17375C13.0815 10.123 14.2574 9.66961 14.2574 10.0238C14.2574 10.1938 14.1724 10.2226 13.9457 10.2226C13.4499 10.2226 13.0815 10.1938 12.2315 10.1938C11.3814 10.1938 11.0126 10.2226 10.5168 10.2226C10.2901 10.2226 10.2051 10.1938 10.2051 10.0238C10.2051 9.66961 11.3814 10.123 11.3814 9.17375V1.6065C11.3814 0.65682 10.2051 1.11064 10.2051 0.756451C10.2051 0.586441 10.2901 0.558105 10.5168 0.558105C11.0126 0.558105 11.3814 0.586441 12.2315 0.586441C13.0815 0.586441 13.4499 0.558105 13.9457 0.558105C14.1724 0.558105 14.2574 0.586441 14.2574 0.756451C14.2574 1.11064 13.0815 0.65728 13.0815 1.6065V4.95049H17.1764V1.6065C17.1764 0.65682 16 1.11064 16 0.756451C16 0.586441 16.0855 0.558105 16.3122 0.558105C16.808 0.558105 17.1764 0.586441 18.0264 0.586441C18.8765 0.586441 19.2453 0.558105 19.7407 0.558105C19.9674 0.558105 20.0528 0.586441 20.0528 0.756451C20.0528 1.11064 18.8765 0.65728 18.8765 1.6065V9.17327C18.8765 10.1225 20.0528 9.66913 20.0528 10.0233C20.0528 10.1933 19.9674 10.2221 19.7407 10.2221C19.2448 10.2221 18.8765 10.1933 18.0264 10.1933C17.1764 10.1933 16.8076 10.2221 16.3122 10.2221C16.0855 10.2221 16 10.1933 16 10.0233C16 9.66913 17.1764 10.1225 17.1764 9.17327V5.29048H13.0815V5.29096Z" fill="black"/>
<path d="M22.1749 1.6065C22.1749 0.65682 20.9985 1.11064 20.9985 0.756451C20.9985 0.586441 21.084 0.558105 21.3106 0.558105C21.8065 0.558105 22.1749 0.586441 23.0249 0.586441C26.1563 0.586441 27.2052 0.558105 28.2253 0.558105L28.9053 3.20787C28.9478 3.39205 28.9903 3.50539 28.9903 3.57669C28.9903 3.67586 28.962 3.71838 28.877 3.71838C28.707 3.71838 28.7495 3.36417 28.0552 2.37245C27.1906 1.13989 25.9864 0.898583 24.3 0.898583H23.875V5.06473H24.1866C25.4055 5.06473 26.3264 4.58305 26.3264 3.15166C26.3264 2.93915 26.3972 2.88248 26.4964 2.88248C26.6097 2.88248 26.6664 2.93915 26.6664 3.15166V7.38863C26.6664 7.60113 26.6097 7.64364 26.4964 7.64364C26.3972 7.64364 26.3264 7.60113 26.3264 7.38863C26.3264 5.90062 25.4055 5.40472 24.1866 5.40472H23.875V9.08918C23.875 9.62755 24.215 9.88256 25.065 9.88256C27.6864 9.88256 28.8061 8.15367 29.2165 6.75063C29.2873 6.53768 29.3299 6.46728 29.429 6.46728C29.5282 6.46728 29.5565 6.53768 29.5565 6.60898C29.5565 6.69444 29.5565 6.82193 29.5141 7.01982L28.919 10.2226C27.7427 10.2226 26.5384 10.1938 23.0244 10.1938C22.1744 10.1938 21.8056 10.2226 21.3102 10.2226C21.0835 10.2226 20.998 10.1938 20.998 10.0238C20.998 9.66961 22.1744 10.123 22.1744 9.17375V1.6065H22.1749Z" fill="black"/>
<path d="M39.7297 9.17314C39.7297 10.1223 41.133 9.66899 41.133 10.0232C41.133 10.1932 40.9913 10.222 40.7643 10.222C40.0984 10.222 39.7297 10.1932 38.8796 10.1932C38.0298 10.1932 37.6614 10.222 36.995 10.222C36.7683 10.222 36.6266 10.1932 36.6266 10.0232C36.6266 9.66899 38.029 10.1223 38.029 9.17314L38.0153 0.926316C36.5846 0.926316 35.3516 2.18722 34.7986 3.33524C34.6427 3.66109 34.5719 3.84525 34.4869 3.84525C34.3877 3.84525 34.3594 3.78861 34.3594 3.73193C34.3594 3.56192 34.4444 3.2219 34.5011 2.95272L34.9544 0.628799C34.9686 0.543337 34.9828 0.359619 35.1102 0.359619C35.1953 0.359619 35.2236 0.416291 35.2944 0.472957C35.3794 0.529627 35.507 0.586298 35.8045 0.586298H41.9397C42.2376 0.586298 42.3652 0.529627 42.4497 0.472957C42.5206 0.416291 42.5492 0.359619 42.6341 0.359619C42.7617 0.359619 42.7758 0.543797 42.7899 0.628799L43.2432 2.95272C43.2999 3.2219 43.3852 3.56192 43.3852 3.73193C43.3852 3.78861 43.3567 3.84525 43.258 3.84525C43.1731 3.84525 43.1022 3.66109 42.946 3.33524C42.3937 2.18722 41.1608 0.926316 39.7294 0.926316V9.17314H39.7297Z" fill="black"/>
<path d="M45.4946 1.6065C45.4946 0.65682 44.3184 1.11064 44.3184 0.756451C44.3184 0.586441 44.4037 0.558105 44.6303 0.558105C45.1259 0.558105 45.4946 0.586441 46.3444 0.586441C47.1945 0.586441 47.5632 0.558105 48.0592 0.558105C48.2858 0.558105 48.3707 0.586441 48.3707 0.756451C48.3707 1.11064 47.1945 0.65728 47.1945 1.6065V9.17327C47.1945 10.1225 48.3707 9.66913 48.3707 10.0233C48.3707 10.1933 48.2858 10.2221 48.0592 10.2221C47.5632 10.2221 47.1945 10.1933 46.3444 10.1933C45.4946 10.1933 45.1259 10.2221 44.6303 10.2221C44.4037 10.2221 44.3184 10.1933 44.3184 10.0233C44.3184 9.66913 45.4946 10.1225 45.4946 9.17327V1.6065Z" fill="black"/>
<path d="M55.1726 7.82736L58.219 0.586441H58.8711C59.7213 0.586441 60.0896 0.558105 60.5856 0.558105C60.8122 0.558105 60.8971 0.586441 60.8971 0.756451C60.8971 1.11064 59.7213 0.65728 59.7213 1.6065V9.17327C59.7213 10.1225 60.8971 9.66913 60.8971 10.0233C60.8971 10.1933 60.8122 10.2221 60.5856 10.2221C60.0896 10.2221 59.7213 10.1933 58.8711 10.1933C58.021 10.1933 57.6523 10.2221 57.1563 10.2221C56.9297 10.2221 56.8448 10.1933 56.8448 10.0233C56.8448 9.66913 58.021 10.1225 58.021 9.17327V1.80484H57.9924L54.6908 9.89584C54.634 10.0233 54.5776 10.1933 54.4782 10.1933C54.4074 10.1933 54.351 10.0512 54.2943 9.89584L51.0635 1.91818H51.0353V7.85526C51.0353 9.05995 51.4459 9.64079 51.9845 9.81082C52.3532 9.92414 52.5231 9.8675 52.5231 10.0658C52.5231 10.1933 52.4378 10.2221 52.2111 10.2221C51.8146 10.2221 51.4318 10.1933 50.865 10.1933C49.9867 10.1933 49.618 10.2221 49.3632 10.2221C49.1647 10.2221 49.0371 10.208 49.0371 10.08C49.0371 9.85333 49.1929 9.92414 49.5612 9.81082C50.5672 9.52747 50.6948 8.42196 50.6948 6.70768V1.91818C50.6948 0.65682 49.2356 1.11018 49.2356 0.756451C49.2356 0.586441 49.3205 0.558105 49.5471 0.558105C50.0431 0.558105 50.4118 0.586441 51.2619 0.586441H52.1685L55.1726 7.82736Z" fill="black"/>
<path d="M62.9621 1.6065C62.9621 0.65682 61.7855 1.11064 61.7855 0.756451C61.7855 0.586441 61.8712 0.558105 62.0978 0.558105C62.5938 0.558105 62.9621 0.586441 63.8123 0.586441C66.9436 0.586441 67.9923 0.558105 69.0123 0.558105L69.6926 3.20787C69.7349 3.39205 69.7775 3.50539 69.7775 3.57669C69.7775 3.67586 69.7493 3.71838 69.664 3.71838C69.4941 3.71838 69.5368 3.36417 68.8424 2.37245C67.9778 1.13989 66.7734 0.898583 65.0871 0.898583H64.6621V5.06473H64.9736C66.1925 5.06473 67.1135 4.58305 67.1135 3.15166C67.1135 2.93915 67.1844 2.88248 67.2834 2.88248C67.3969 2.88248 67.4537 2.93915 67.4537 3.15166V7.38863C67.4537 7.60113 67.3969 7.64364 67.2834 7.64364C67.1844 7.64364 67.1135 7.60113 67.1135 7.38863C67.1135 5.90062 66.1925 5.40472 64.9736 5.40472H64.6621V9.08918C64.6621 9.62755 65.0022 9.88256 65.8524 9.88256C68.4737 9.88256 69.5932 8.15367 70.0038 6.75063C70.0746 6.53768 70.1169 6.46728 70.2163 6.46728C70.3154 6.46728 70.3436 6.53768 70.3436 6.60898C70.3436 6.69444 70.3436 6.82193 70.3013 7.01982L69.7063 10.2226C68.5297 10.2226 67.3257 10.1938 63.8115 10.1938C62.9617 10.1938 62.5927 10.2226 62.0975 10.2226C61.8708 10.2226 61.7852 10.1938 61.7852 10.0238C61.7852 9.66961 62.9617 10.123 62.9617 9.17375V1.6065H62.9621Z" fill="black"/>
<path d="M71.5898 6.29667C71.5898 6.16918 71.6607 6.12668 71.7315 6.12668C71.8591 6.12668 71.8873 6.24003 71.9296 6.55172C72.1707 8.29474 72.9215 10.0803 74.7921 10.0803C76.2097 10.0803 76.8466 9.23026 76.8466 8.26641C76.8466 5.40415 71.5898 6.56585 71.5898 3.08022C71.5898 1.60635 72.9504 0.359619 74.5654 0.359619C75.8266 0.359619 76.3084 0.926315 76.8611 0.926315C77.2717 0.926315 77.0877 0.472957 77.357 0.472957C77.4564 0.472957 77.4843 0.529627 77.4991 0.685469C77.6831 2.66937 77.7395 3.64692 77.7395 3.83108C77.7395 3.97322 77.669 4.0299 77.5837 4.0299C77.4702 4.0299 77.442 3.84573 77.3993 3.68988C76.9175 2.07434 76.1523 0.700094 74.5517 0.700094C73.4749 0.700094 72.8369 1.33763 72.8369 2.23063C72.8369 4.83789 78.0941 3.95953 78.0941 7.40266C78.0941 8.90488 77.0173 10.4208 74.7075 10.4208C73.673 10.4208 72.7238 9.88243 72.3554 9.88243C71.7746 9.88243 71.9867 10.3641 71.7178 10.3641C71.6611 10.3641 71.5902 10.3358 71.5902 10.1941V6.29667H71.5898Z" fill="black"/>
<path d="M93.4105 5.38998C93.4105 8.56393 90.7183 10.4203 88.3236 10.4203C85.9289 10.4203 83.2363 8.56393 83.2363 5.38998C83.2363 2.21601 85.9289 0.359619 88.3236 0.359619C90.7183 0.359619 93.4105 2.21601 93.4105 5.38998ZM88.3236 0.699638C86.4671 0.699638 85.1069 2.18722 85.1069 5.38998C85.1069 8.59227 86.4675 10.0803 88.3236 10.0803C90.1793 10.0803 91.5399 8.59227 91.5399 5.38998C91.5399 2.18722 90.1797 0.699638 88.3236 0.699638Z" fill="black"/>
<path d="M95.6336 1.6065C95.6336 0.65682 94.4578 1.11064 94.4578 0.756451C94.4578 0.586441 94.5431 0.558105 94.7697 0.558105C95.2657 0.558105 95.634 0.586441 96.4845 0.586441C99.6159 0.586441 100.665 0.558105 101.571 0.558105L102.252 3.20787C102.294 3.39205 102.337 3.50539 102.337 3.57669C102.337 3.67586 102.308 3.71838 102.223 3.71838C102.053 3.71838 102.096 3.36417 101.402 2.37245C100.537 1.13989 99.3325 0.898583 97.6463 0.898583H97.3339V5.06473H97.6463C98.8651 5.06473 99.7858 4.58305 99.7858 3.15166C99.7858 2.93915 99.8566 2.88248 99.956 2.88248C100.069 2.88248 100.126 2.93915 100.126 3.15166V7.38863C100.126 7.60117 100.069 7.64364 99.956 7.64364C99.8566 7.64364 99.7858 7.60117 99.7858 7.38863C99.7858 5.90062 98.8651 5.40472 97.6463 5.40472H97.3339V9.1742C97.3339 10.1234 98.5105 9.67005 98.5105 10.0243C98.5105 10.1942 98.4248 10.223 98.1982 10.223C97.7023 10.223 97.3336 10.1942 96.4842 10.1942C95.6336 10.1942 95.2653 10.223 94.7694 10.223C94.5427 10.223 94.457 10.1942 94.457 10.0243C94.457 9.67005 95.6329 10.1234 95.6329 9.1742V1.6065H95.6336Z" fill="black"/>
<path d="M108.453 1.6065C108.453 0.65682 107.277 1.11064 107.277 0.756451C107.277 0.586441 107.362 0.558105 107.589 0.558105C108.085 0.558105 108.454 0.586441 109.304 0.586441C110.154 0.586441 110.522 0.558105 111.019 0.558105C111.245 0.558105 111.33 0.586441 111.33 0.756451C111.33 1.11064 110.154 0.65728 110.154 1.6065V9.17327C110.154 10.1225 111.33 9.66913 111.33 10.0233C111.33 10.1933 111.245 10.2221 111.019 10.2221C110.522 10.2221 110.154 10.1933 109.304 10.1933C108.454 10.1933 108.085 10.2221 107.589 10.2221C107.362 10.2221 107.277 10.1933 107.277 10.0233C107.277 9.66913 108.453 10.1225 108.453 9.17327V1.6065Z" fill="black"/>
<path d="M119.959 2.92403C119.959 1.7198 119.435 1.13894 118.897 0.968927C118.528 0.85559 118.358 0.912261 118.358 0.713459C118.358 0.585952 118.443 0.557617 118.67 0.557617C119.18 0.557617 119.562 0.585952 120.158 0.585952C120.753 0.585952 121.136 0.557617 121.646 0.557617C121.873 0.557617 121.958 0.585952 121.958 0.713459C121.958 0.912261 121.788 0.85559 121.419 0.968927C120.88 1.13894 120.356 1.7198 120.356 2.92403V10.2221C120.356 10.3213 120.299 10.4205 120.186 10.4205C120.087 10.4205 119.974 10.3779 119.903 10.2783L113.894 2.2865H113.866V7.85523C113.866 9.0599 114.39 9.64077 114.928 9.81076C115.297 9.92412 115.467 9.86744 115.467 10.0658C115.467 10.1933 115.382 10.2221 115.155 10.2221C114.645 10.2221 114.262 10.1933 113.667 10.1933C113.072 10.1933 112.689 10.2221 112.179 10.2221C111.952 10.2221 111.867 10.1933 111.867 10.0658C111.867 9.86744 112.037 9.92412 112.405 9.81076C112.944 9.64077 113.468 9.05945 113.468 7.85523V1.79064C112.647 0.614744 111.881 1.0256 111.881 0.756416C111.881 0.600574 111.98 0.558073 112.193 0.558073C112.533 0.558073 112.816 0.586409 113.27 0.586409H114.588L119.93 7.75649H119.958V2.92403H119.959Z" fill="black"/>
<path d="M123.571 1.6065C123.571 0.65682 122.395 1.11064 122.395 0.756451C122.395 0.586441 122.48 0.558105 122.706 0.558105C123.202 0.558105 123.571 0.586441 124.421 0.586441C125.002 0.586441 125.654 0.558105 126.433 0.558105C129.792 0.558105 131.846 2.52784 131.846 5.43262C131.846 8.08237 130.217 10.2221 127.028 10.2221C126.079 10.2221 125.257 10.1933 124.421 10.1933C123.571 10.1933 123.202 10.2221 122.706 10.2221C122.48 10.2221 122.395 10.1933 122.395 10.0233C122.395 9.66913 123.571 10.1225 123.571 9.17327V1.6065ZM125.271 8.60657C125.271 9.5133 125.795 9.88211 126.816 9.88211C128.431 9.88211 129.976 9.14493 129.976 5.53132C129.976 2.8249 128.899 0.897667 126.731 0.897667H125.271V8.60657Z" fill="black"/>
<path d="M134.168 1.6065C134.168 0.65682 132.992 1.11064 132.992 0.756451C132.992 0.586441 133.078 0.558105 133.305 0.558105C133.8 0.558105 134.169 0.586441 135.019 0.586441C135.869 0.586441 136.237 0.558105 136.733 0.558105C136.96 0.558105 137.045 0.586441 137.045 0.756451C137.045 1.11064 135.869 0.65728 135.869 1.6065V9.17327C135.869 10.1225 137.045 9.66913 137.045 10.0233C137.045 10.1933 136.96 10.2221 136.733 10.2221C136.237 10.2221 135.869 10.1933 135.019 10.1933C134.169 10.1933 133.8 10.2221 133.305 10.2221C133.078 10.2221 132.992 10.1933 132.992 10.0233C132.992 9.66913 134.168 10.1225 134.168 9.17327V1.6065Z" fill="black"/>
<path d="M140.246 6.73595C139.864 7.8273 139.679 8.23769 139.679 8.64901C139.679 10.0662 140.855 9.72574 140.855 10.0662C140.855 10.2225 140.785 10.2225 140.628 10.2225C140.331 10.2225 139.99 10.1937 139.028 10.1937C138.56 10.1937 138.106 10.2225 137.596 10.2225C137.454 10.2225 137.412 10.1654 137.412 10.052C137.412 9.79703 137.965 9.93869 138.361 9.59866C138.73 9.28701 139.197 8.5361 139.58 7.57228C141.281 3.32113 141.522 2.79694 141.522 2.6836C141.522 2.58443 141.181 2.31524 141.181 2.14523C141.181 1.93272 141.422 1.96106 141.819 1.12518C142.117 0.501809 142.046 0.303467 142.23 0.303467C142.414 0.303467 142.4 0.770991 143.25 2.64155L146.268 9.31579C146.651 10.1517 147.317 9.7408 147.317 10.052C147.317 10.2083 147.217 10.2225 147.076 10.2225C146.509 10.2225 145.943 10.1937 145.376 10.1937C144.808 10.1937 144.256 10.2225 143.675 10.2225C143.533 10.2225 143.448 10.1795 143.448 10.052C143.448 9.69829 144.44 10.1092 144.44 9.34365C144.44 9.21616 144.298 8.79115 144.199 8.57817L143.391 6.7364H140.246V6.73595ZM141.72 2.91027L140.388 6.39593H143.251L141.72 2.91027Z" fill="black"/>
</g>
<defs>
<clipPath id="clip0_31179:1587">
<rect width="148" height="10.386" fill="white"/>
</clipPath>
</defs>
</svg>
