<svg width="306" height="22" viewBox="0 0 306 22" fill="none" xmlns="http://www.w3.org/2000/svg">
<g clip-path="url(#clip0_34639_3063)">
<path d="M11.9169 19.531C11.9169 21.4503 14.8083 20.5336 14.8083 21.2498C14.8083 21.5935 14.5164 21.6517 14.0492 21.6517C12.677 21.6517 11.9169 21.5935 10.1651 21.5935C8.41333 21.5935 7.65426 21.6517 6.28108 21.6517C5.81394 21.6517 5.52197 21.5935 5.52197 21.2498C5.52197 20.5336 8.41241 21.4503 8.41241 19.531L8.3842 2.85629C5.43533 2.85629 2.8943 5.40578 1.75469 7.72703C1.43354 8.38589 1.28756 8.75825 1.11238 8.75825C0.908003 8.75825 0.849609 8.64373 0.849609 8.52913C0.849609 8.18537 1.02479 7.49786 1.14158 6.95359L2.07585 2.25472C2.10505 2.08192 2.13425 1.71045 2.39701 1.71045C2.57219 1.71045 2.63059 1.82504 2.77657 1.93961C2.95269 2.0542 3.21546 2.16878 3.82858 2.16878H16.4725C17.0856 2.16878 17.3494 2.0542 17.5236 1.93961C17.6696 1.82504 17.728 1.71045 17.9031 1.71045C18.1659 1.71045 18.1951 2.08285 18.2243 2.25472L19.1586 6.95359C19.2754 7.49786 19.4515 8.18537 19.4515 8.52913C19.4515 8.64373 19.3922 8.75825 19.1887 8.75825C19.0136 8.75825 18.8676 8.38589 18.5464 7.72703C17.4078 5.40578 14.8667 2.85629 11.9169 2.85629V19.531Z" fill="black"/>
<path d="M27.0118 11.6805V19.5313C27.0118 21.4506 29.4351 20.5339 29.4351 21.25C29.4351 21.5938 29.26 21.652 28.7928 21.652C27.7709 21.652 27.0118 21.5938 25.26 21.5938C23.5082 21.5938 22.7482 21.652 21.7263 21.652C21.2592 21.652 21.084 21.5938 21.084 21.25C21.084 20.5339 23.5082 21.4506 23.5082 19.5313V4.23065C23.5082 2.31044 21.084 3.22803 21.084 2.51189C21.084 2.16813 21.2592 2.11084 21.7263 2.11084C22.7482 2.11084 23.5082 2.16813 25.26 2.16813C27.0118 2.16813 27.7709 2.11084 28.7928 2.11084C29.26 2.11084 29.4351 2.16813 29.4351 2.51189C29.4351 3.22803 27.0118 2.31137 27.0118 4.23065V10.9921H35.4505V4.23065C35.4505 2.31044 33.0263 3.22803 33.0263 2.51189C33.0263 2.16813 33.2024 2.11084 33.6696 2.11084C34.6914 2.11084 35.4505 2.16813 37.2023 2.16813C38.9541 2.16813 39.7141 2.11084 40.7351 2.11084C41.2022 2.11084 41.3783 2.16813 41.3783 2.51189C41.3783 3.22803 38.9541 2.31137 38.9541 4.23065V19.5304C38.9541 21.4497 41.3783 20.533 41.3783 21.2491C41.3783 21.5929 41.2022 21.6511 40.7351 21.6511C39.7132 21.6511 38.9541 21.5929 37.2023 21.5929C35.4505 21.5929 34.6905 21.6511 33.6696 21.6511C33.2024 21.6511 33.0263 21.5929 33.0263 21.2491C33.0263 20.533 35.4505 21.4497 35.4505 19.5304V11.6795H27.0118V11.6805Z" fill="black"/>
<path d="M45.7513 4.23065C45.7513 2.31044 43.3271 3.22803 43.3271 2.51189C43.3271 2.16813 43.5032 2.11084 43.9703 2.11084C44.9922 2.11084 45.7513 2.16813 47.5031 2.16813C53.9565 2.16813 56.118 2.11084 58.2201 2.11084L59.6215 7.46856C59.7091 7.84096 59.7967 8.07013 59.7967 8.21429C59.7967 8.41481 59.7383 8.50078 59.5631 8.50078C59.2128 8.50078 59.3004 7.7846 57.8697 5.77937C56.0878 3.28718 53.6061 2.79927 50.1308 2.79927H49.2549V11.2231H49.8972C52.4091 11.2231 54.3069 10.2491 54.3069 7.35491C54.3069 6.92522 54.4528 6.81063 54.6572 6.81063C54.8908 6.81063 55.0075 6.92522 55.0075 7.35491V15.9219C55.0075 16.3516 54.8908 16.4375 54.6572 16.4375C54.4528 16.4375 54.3069 16.3516 54.3069 15.9219C54.3069 12.9132 52.4091 11.9105 49.8972 11.9105H49.2549V19.3603C49.2549 20.4489 49.9556 20.9645 51.7074 20.9645C57.1097 20.9645 59.4172 17.4688 60.2629 14.6319C60.4088 14.2013 60.4965 14.059 60.7009 14.059C60.9053 14.059 60.9636 14.2013 60.9636 14.3455C60.9636 14.5183 60.9636 14.776 60.8761 15.1762L59.6498 21.652C57.2255 21.652 54.7439 21.5938 47.5022 21.5938C45.7504 21.5938 44.9904 21.652 43.9694 21.652C43.5023 21.652 43.3262 21.5938 43.3262 21.25C43.3262 20.5339 45.7504 21.4506 45.7504 19.5313V4.23065H45.7513Z" fill="black"/>
<path d="M81.9286 19.5303C81.9286 21.4495 84.8204 20.5329 84.8204 21.2491C84.8204 21.5928 84.5284 21.651 84.0606 21.651C82.6885 21.651 81.9286 21.5928 80.1766 21.5928C78.4253 21.5928 77.6663 21.651 76.2929 21.651C75.8256 21.651 75.5337 21.5928 75.5337 21.2491C75.5337 20.5329 78.4238 21.4495 78.4238 19.5303L78.3955 2.85555C75.447 2.85555 72.9061 5.40505 71.7665 7.72629C71.4453 8.38515 71.2993 8.75752 71.1241 8.75752C70.9197 8.75752 70.8613 8.643 70.8613 8.5284C70.8613 8.18463 71.0365 7.49713 71.1533 6.95286L72.0876 2.25399C72.1168 2.08119 72.146 1.70972 72.4087 1.70972C72.5839 1.70972 72.6423 1.8243 72.7883 1.93888C72.9635 2.05347 73.2263 2.16805 73.8394 2.16805H86.483C87.0968 2.16805 87.3598 2.05347 87.5341 1.93888C87.6801 1.8243 87.7389 1.70972 87.914 1.70972C88.1769 1.70972 88.206 2.08212 88.235 2.25399L89.1691 6.95286C89.2861 7.49713 89.4619 8.18463 89.4619 8.5284C89.4619 8.643 89.403 8.75752 89.1997 8.75752C89.0247 8.75752 88.8787 8.38515 88.5568 7.72629C87.4186 5.40505 84.8777 2.85555 81.9279 2.85555V19.5303H81.9286Z" fill="black"/>
<path d="M93.8087 4.23065C93.8087 2.31044 91.3848 3.22803 91.3848 2.51189C91.3848 2.16813 91.5606 2.11084 92.0276 2.11084C93.0489 2.11084 93.8087 2.16813 95.56 2.16813C97.312 2.16813 98.0718 2.11084 99.0938 2.11084C99.5609 2.11084 99.7359 2.16813 99.7359 2.51189C99.7359 3.22803 97.312 2.31137 97.312 4.23065V19.5304C97.312 21.4497 99.7359 20.533 99.7359 21.2491C99.7359 21.5929 99.5609 21.6511 99.0938 21.6511C98.0718 21.6511 97.312 21.5929 95.56 21.5929C93.8087 21.5929 93.0489 21.6511 92.0276 21.6511C91.5606 21.6511 91.3848 21.5929 91.3848 21.2491C91.3848 20.533 93.8087 21.4497 93.8087 19.5304V4.23065Z" fill="black"/>
<path d="M113.753 16.8092L120.032 2.16838H121.375C123.127 2.16838 123.887 2.11108 124.909 2.11108C125.376 2.11108 125.551 2.16838 125.551 2.51213C125.551 3.22828 123.127 2.31161 123.127 4.23089V19.5306C123.127 21.4499 125.551 20.5332 125.551 21.2494C125.551 21.5931 125.376 21.6514 124.909 21.6514C123.887 21.6514 123.127 21.5931 121.375 21.5931C119.623 21.5931 118.864 21.6514 117.842 21.6514C117.375 21.6514 117.199 21.5931 117.199 21.2494C117.199 20.5332 119.623 21.4499 119.623 19.5306V4.63193H119.565L112.761 20.9916C112.644 21.2494 112.527 21.5931 112.323 21.5931C112.177 21.5931 112.06 21.3058 111.943 20.9916L105.285 4.8611H105.227V16.8656C105.227 19.3015 106.073 20.4759 107.183 20.8197C107.943 21.0488 108.293 20.9343 108.293 21.3353C108.293 21.5931 108.117 21.6514 107.65 21.6514C106.833 21.6514 106.044 21.5931 104.876 21.5931C103.066 21.5931 102.306 21.6514 101.781 21.6514C101.372 21.6514 101.109 21.6227 101.109 21.364C101.109 20.9056 101.43 21.0488 102.189 20.8197C104.263 20.2468 104.526 18.0115 104.526 14.5453V4.8611C104.526 2.31068 101.518 3.22735 101.518 2.51213C101.518 2.16838 101.693 2.11108 102.16 2.11108C103.182 2.11108 103.942 2.16838 105.694 2.16838H107.563L113.753 16.8092Z" fill="black"/>
<path d="M129.806 4.23065C129.806 2.31044 127.382 3.22803 127.382 2.51189C127.382 2.16813 127.558 2.11084 128.025 2.11084C129.047 2.11084 129.806 2.16813 131.558 2.16813C138.012 2.16813 140.173 2.11084 142.275 2.11084L143.677 7.46856C143.764 7.84096 143.852 8.07013 143.852 8.21429C143.852 8.41481 143.794 8.50078 143.618 8.50078C143.268 8.50078 143.356 7.7846 141.925 5.77937C140.143 3.28718 137.661 2.79927 134.186 2.79927H133.31V11.2231H133.952C136.464 11.2231 138.362 10.2491 138.362 7.35491C138.362 6.92522 138.508 6.81063 138.712 6.81063C138.946 6.81063 139.063 6.92522 139.063 7.35491V15.9219C139.063 16.3516 138.946 16.4375 138.712 16.4375C138.508 16.4375 138.362 16.3516 138.362 15.9219C138.362 12.9132 136.464 11.9105 133.952 11.9105H133.31V19.3603C133.31 20.4489 134.011 20.9645 135.763 20.9645C141.165 20.9645 143.472 17.4688 144.318 14.6319C144.464 14.2013 144.551 14.059 144.756 14.059C144.96 14.059 145.018 14.2013 145.018 14.3455C145.018 14.5183 145.018 14.776 144.931 15.1762L143.705 21.652C141.28 21.652 138.799 21.5938 131.557 21.5938C129.806 21.5938 129.045 21.652 128.024 21.652C127.557 21.652 127.381 21.5938 127.381 21.25C127.381 20.5339 129.806 21.4506 129.806 19.5313V4.23065H129.806Z" fill="black"/>
<path d="M147.586 13.7142C147.586 13.4564 147.732 13.3705 147.878 13.3705C148.141 13.3705 148.199 13.5997 148.286 14.2299C148.783 17.7542 150.33 21.3646 154.185 21.3646C157.107 21.3646 158.419 19.6458 158.419 17.6969C158.419 11.9095 147.586 14.2585 147.586 7.21067C147.586 4.23056 150.39 1.70972 153.718 1.70972C156.317 1.70972 157.31 2.85555 158.449 2.85555C159.295 2.85555 158.916 1.93888 159.471 1.93888C159.676 1.93888 159.733 2.05347 159.764 2.36857C160.143 6.37994 160.259 8.35651 160.259 8.72887C160.259 9.01627 160.114 9.13087 159.938 9.13087C159.704 9.13087 159.646 8.7585 159.558 8.44337C158.565 5.1768 156.988 2.39814 153.69 2.39814C151.471 2.39814 150.156 3.68721 150.156 5.49283C150.156 10.7646 160.99 8.9886 160.99 15.9505C160.99 18.9879 158.771 22.053 154.011 22.053C151.879 22.053 149.923 20.9644 149.164 20.9644C147.967 20.9644 148.404 21.9384 147.85 21.9384C147.733 21.9384 147.587 21.8811 147.587 21.5947V13.7142H147.586Z" fill="black"/>
<path d="M192.555 11.8809C192.555 18.2985 187.007 22.0521 182.072 22.0521C177.137 22.0521 171.588 18.2985 171.588 11.8809C171.588 5.46327 177.137 1.70972 182.072 1.70972C187.007 1.70972 192.555 5.46327 192.555 11.8809ZM182.072 2.39722C178.246 2.39722 175.443 5.40505 175.443 11.8809C175.443 18.3558 178.247 21.3646 182.072 21.3646C185.896 21.3646 188.7 18.3558 188.7 11.8809C188.7 5.40505 185.897 2.39722 182.072 2.39722Z" fill="black"/>
<path d="M197.136 4.23089C197.136 2.31068 194.712 3.22828 194.712 2.51213C194.712 2.16838 194.888 2.11108 195.355 2.11108C196.377 2.11108 197.136 2.16838 198.889 2.16838C205.342 2.16838 207.503 2.11108 209.372 2.11108L210.774 7.46881C210.861 7.84121 210.949 8.07037 210.949 8.21453C210.949 8.41505 210.89 8.50103 210.715 8.50103C210.365 8.50103 210.452 7.78484 209.022 5.77962C207.24 3.28742 204.758 2.79952 201.283 2.79952H200.64V11.2233H201.283C203.795 11.2233 205.692 10.2494 205.692 7.35515C205.692 6.92546 205.838 6.81088 206.043 6.81088C206.276 6.81088 206.393 6.92546 206.393 7.35515V15.9221C206.393 16.3519 206.276 16.4377 206.043 16.4377C205.838 16.4377 205.692 16.3519 205.692 15.9221C205.692 12.9134 203.795 11.9108 201.283 11.9108H200.64V19.5325C200.64 21.4517 203.064 20.5351 203.064 21.2513C203.064 21.595 202.888 21.6532 202.421 21.6532C201.399 21.6532 200.639 21.595 198.888 21.595C197.136 21.595 196.377 21.6532 195.355 21.6532C194.888 21.6532 194.711 21.595 194.711 21.2513C194.711 20.5351 197.134 21.4517 197.134 19.5325V4.23089H197.136Z" fill="black"/>
<path d="M223.554 4.23065C223.554 2.31044 221.131 3.22803 221.131 2.51189C221.131 2.16813 221.306 2.11084 221.773 2.11084C222.795 2.11084 223.555 2.16813 225.307 2.16813C227.058 2.16813 227.818 2.11084 228.841 2.11084C229.308 2.11084 229.483 2.16813 229.483 2.51189C229.483 3.22803 227.06 2.31137 227.06 4.23065V19.5304C227.06 21.4497 229.483 20.533 229.483 21.2491C229.483 21.5929 229.308 21.6511 228.841 21.6511C227.818 21.6511 227.058 21.5929 225.307 21.5929C223.555 21.5929 222.795 21.6511 221.773 21.6511C221.306 21.6511 221.131 21.5929 221.131 21.2491C221.131 20.533 223.554 21.4497 223.554 19.5304V4.23065Z" fill="black"/>
<path d="M247.265 6.89491C247.265 4.46 246.185 3.28552 245.076 2.94176C244.316 2.7126 243.966 2.82718 243.966 2.42521C243.966 2.1674 244.141 2.11011 244.608 2.11011C245.659 2.11011 246.448 2.1674 247.675 2.1674C248.901 2.1674 249.69 2.11011 250.742 2.11011C251.209 2.11011 251.384 2.1674 251.384 2.42521C251.384 2.82718 251.034 2.7126 250.275 2.94176C249.164 3.28552 248.084 4.46 248.084 6.89491V21.6513C248.084 21.8518 247.967 22.0524 247.733 22.0524C247.529 22.0524 247.296 21.9664 247.15 21.765L234.767 5.60584H234.708V16.8656C234.708 19.3014 235.789 20.4759 236.898 20.8196C237.658 21.0488 238.008 20.9342 238.008 21.3353C238.008 21.5931 237.833 21.6513 237.365 21.6513C236.314 21.6513 235.526 21.5931 234.299 21.5931C233.073 21.5931 232.284 21.6513 231.232 21.6513C230.765 21.6513 230.59 21.5931 230.59 21.3353C230.59 20.9342 230.94 21.0488 231.699 20.8196C232.81 20.4759 233.89 19.3005 233.89 16.8656V4.60323C232.196 2.22561 230.619 3.05635 230.619 2.51207C230.619 2.19696 230.823 2.11103 231.261 2.11103C231.962 2.11103 232.546 2.16832 233.48 2.16832H236.196L247.205 16.6659H247.264V6.89491H247.265Z" fill="black"/>
<path d="M254.709 4.23065C254.709 2.31044 252.285 3.22803 252.285 2.51189C252.285 2.16813 252.461 2.11084 252.928 2.11084C253.95 2.11084 254.71 2.16813 256.461 2.16813C257.658 2.16813 259.002 2.11084 260.608 2.11084C267.529 2.11084 271.764 6.09356 271.764 11.9669C271.764 17.3246 268.405 21.6511 261.834 21.6511C259.878 21.6511 258.184 21.5929 256.461 21.5929C254.71 21.5929 253.95 21.6511 252.928 21.6511C252.461 21.6511 252.285 21.5929 252.285 21.2491C252.285 20.533 254.709 21.4497 254.709 19.5304V4.23065ZM258.214 18.3845C258.214 20.2179 259.293 20.9636 261.396 20.9636C264.725 20.9636 267.908 19.4731 267.908 12.1665C267.908 6.6942 265.69 2.79742 261.221 2.79742H258.214V18.3845Z" fill="black"/>
<path d="M276.549 4.23065C276.549 2.31044 274.125 3.22803 274.125 2.51189C274.125 2.16813 274.301 2.11084 274.769 2.11084C275.79 2.11084 276.55 2.16813 278.302 2.16813C280.054 2.16813 280.813 2.11084 281.835 2.11084C282.302 2.11084 282.478 2.16813 282.478 2.51189C282.478 3.22803 280.055 2.31137 280.055 4.23065V19.5304C280.055 21.4497 282.478 20.533 282.478 21.2491C282.478 21.5929 282.302 21.6511 281.835 21.6511C280.813 21.6511 280.054 21.5929 278.302 21.5929C276.55 21.5929 275.79 21.6511 274.769 21.6511C274.301 21.6511 274.125 21.5929 274.125 21.2491C274.125 20.533 276.549 21.4497 276.549 19.5304V4.23065Z" fill="black"/>
<path d="M289.073 14.6024C288.284 16.8091 287.905 17.6389 287.905 18.4705C287.905 21.3361 290.328 20.6476 290.328 21.3361C290.328 21.652 290.182 21.652 289.861 21.652C289.248 21.652 288.546 21.5938 286.561 21.5938C285.598 21.5938 284.663 21.652 283.612 21.652C283.319 21.652 283.232 21.5365 283.232 21.3074C283.232 20.7918 284.371 21.0782 285.189 20.3907C285.948 19.7605 286.912 18.2422 287.7 16.2934C291.205 7.69779 291.701 6.63789 291.701 6.40872C291.701 6.2082 291 5.66392 291 5.32017C291 4.89048 291.496 4.94777 292.314 3.25766C292.927 1.99723 292.781 1.59619 293.161 1.59619C293.541 1.59619 293.511 2.54151 295.264 6.3237L301.483 19.8187C302.272 21.5089 303.644 20.6781 303.644 21.3074C303.644 21.6234 303.439 21.652 303.148 21.652C301.98 21.652 300.812 21.5938 299.644 21.5938C298.475 21.5938 297.337 21.652 296.14 21.652C295.846 21.652 295.672 21.5652 295.672 21.3074C295.672 20.5921 297.716 21.4229 297.716 19.8751C297.716 19.6173 297.423 18.7579 297.22 18.3273L295.554 14.6033H289.073V14.6024ZM292.11 6.86705L289.365 13.9149H295.264L292.11 6.86705Z" fill="black"/>
</g>
<defs>
<clipPath id="clip0_34639_3063">
<rect width="305" height="21" fill="white" transform="translate(0.0527344 0.982422)"/>
</clipPath>
</defs>
</svg>
