<svg width="34" height="25" viewBox="0 0 34 25" fill="none" xmlns="http://www.w3.org/2000/svg">
<g clip-path="url(#clip0_34639_2427)">
<path d="M1.41992 0.140381H32.4655V24.1404H1.41992V0.140381Z" fill="white"/>
<path d="M1.92188 0.674561H31.9416V19.1394H1.92188V0.674561Z" fill="#0033A1"/>
<path d="M31.8589 0.674561L14.002 19.1394H14.2532L31.9426 0.845531V0.674561L31.8589 0.674561ZM2.92773 19.1394H3.11614L4.3094 0.674561H4.12099L2.92773 19.1394ZM3.86978 19.1394H4.05819L6.65404 0.674561H6.46563L3.86978 19.1394ZM4.89556 19.1394H5.08397L9.12428 0.674561H8.93587L4.89556 19.1394ZM6.00507 19.1394H6.21442L11.9713 0.674561H11.7829L6.00507 19.1394ZM7.07272 19.1394H7.26113L14.6719 0.674561H14.4835L7.07272 19.1394ZM8.28691 19.1394H8.49625L17.7492 0.674561H17.5399L8.28691 19.1394ZM10.3803 19.1394L22.3757 0.674561H22.1663L10.171 19.1394H10.3803ZM12.076 19.1394L26.6672 0.674561H26.416L11.8457 19.1394H12.076ZM17.7911 19.1394L31.9426 7.66299V7.40653L17.4771 19.1394H17.7911ZM21.9151 19.1394L31.9426 12.7494V12.5143L21.5592 19.1394H21.9151ZM28.5722 19.1394L31.9426 17.5365V17.3228L28.1326 19.1394H28.5722Z" fill="white"/>
<path d="M8.64373 13.5188C5.52452 13.5188 3.41016 11.5526 3.41016 8.36832C3.41016 5.26947 5.67106 3.0896 8.6856 3.0896C9.4811 3.0896 10.3603 3.2392 11.0302 3.55977V5.07713C10.6953 4.62834 10.0254 3.8376 8.70653 3.8376C6.82244 3.8376 5.7548 5.59005 5.7548 8.13323C5.7548 10.8046 6.75964 12.7067 8.89494 12.7067C9.64857 12.7067 10.5906 12.322 11.0093 11.916L11.3652 12.7067C10.9674 13.0486 10.2138 13.5188 8.64373 13.5188ZM18.8597 8.3042C18.8597 12.2365 16.4731 12.5144 14.6519 12.5144V4.02994C16.536 4.02994 18.8597 4.26502 18.8597 8.3042ZM16.3894 13.3265C18.2735 13.3265 21.1834 12.1297 21.1834 8.26146C21.1834 4.17954 18.3154 3.26057 16.1591 3.26057H12.5794V13.3265H16.3894ZM27.5683 13.5188C24.4491 13.5188 22.3347 11.5526 22.3347 8.36832C22.3347 5.26947 24.5956 3.0896 27.6102 3.0896C28.4057 3.0896 29.2849 3.2392 29.9548 3.55977V5.07713C29.6199 4.62834 28.95 3.8376 27.6311 3.8376C25.747 3.8376 24.6794 5.59005 24.6794 8.13323C24.6794 10.8046 25.6842 12.7067 27.8195 12.7067C28.5732 12.7067 29.5152 12.322 29.9339 11.916L30.2898 12.7067C29.8711 13.0486 29.1175 13.5188 27.5683 13.5188Z" fill="white" stroke="white" stroke-width="0.159706"/>
<path d="M32.5484 20.144H32.9043V20.2082H32.7578V20.6142H32.695V20.2082H32.5484V20.144ZM33.323 20.5928V20.2295L33.1974 20.6142H33.1346L33.009 20.2295V20.5928H32.9462V20.144H33.0299L33.1555 20.5287L33.2811 20.144H33.3649V20.5928H33.323ZM3.07296 20.6356L3.05202 20.6142V20.5928C3.05202 20.5501 2.88455 20.486 2.71707 20.486C2.5496 20.486 2.31932 20.5715 2.31932 20.7852C2.31932 20.9989 2.5496 21.0844 2.71707 21.0844C2.80081 21.0844 3.07296 21.0203 3.07296 20.9562C3.07296 20.9348 3.07296 20.9348 3.05202 20.9134L3.07296 20.892L3.2823 21.234L3.26137 21.2554C3.26137 21.234 3.24043 21.234 3.24043 21.234C3.19856 21.234 3.01015 21.3408 2.69614 21.3408C2.36119 21.3408 2.00531 21.1485 2.00531 20.7638C2.00531 20.3791 2.36119 20.1868 2.69614 20.1868C2.86361 20.1868 2.98922 20.2082 3.07296 20.2295C3.15669 20.2509 3.19856 20.2723 3.2195 20.2723C3.24043 20.2723 3.24043 20.2723 3.26137 20.2509H3.2823L3.07296 20.6356ZM4.76864 21.1485C4.78957 21.1485 4.8105 21.1271 4.83144 21.0844H4.85237V21.3622H4.83144C4.8105 21.3195 4.8105 21.3195 4.76864 21.3195H3.82659V21.2981C3.84753 21.2981 3.88939 21.2981 3.88939 21.2554V20.4432C3.88939 20.4219 3.86846 20.4005 3.82659 20.4005V20.3791H4.78957C4.8105 20.3791 4.83144 20.3791 4.83144 20.3364H4.85237V20.6142H4.83144C4.83144 20.5715 4.8105 20.5715 4.78957 20.5715H4.18247V20.7424H4.58023C4.60116 20.7424 4.62209 20.7424 4.62209 20.6997H4.64303V20.9775H4.62209C4.62209 20.9348 4.60116 20.9348 4.58023 20.9348H4.18247V21.1485H4.76864ZM6.52711 21.2767C6.52711 21.2981 6.54805 21.3195 6.58992 21.3195V21.3408H6.19217V21.3195C6.2131 21.3195 6.25497 21.3195 6.25497 21.2981C6.25497 21.2554 5.98282 20.9989 5.75255 20.7211V21.2767C5.75255 21.2981 5.77348 21.3195 5.81535 21.3195V21.3408H5.45947V21.3195C5.4804 21.3195 5.52227 21.3195 5.52227 21.2767V20.4646C5.52227 20.4432 5.50133 20.4219 5.45947 20.4219V20.4005H5.96189V20.4219C5.94095 20.4219 5.92002 20.4219 5.92002 20.4646C5.92002 20.486 6.12936 20.6997 6.29684 20.892V20.4646C6.29684 20.4432 6.2759 20.4219 6.23404 20.4219V20.4005H6.61085V20.4219C6.56898 20.4219 6.54805 20.4219 6.54805 20.4646V21.2767H6.52711ZM8.05532 20.4005C8.07625 20.4005 8.09719 20.4005 8.09719 20.3578H8.11812V20.6783H8.09719C8.09719 20.6356 8.07625 20.6356 8.05532 20.6356H7.76224V21.2981C7.76224 21.3195 7.78317 21.3408 7.80411 21.3408V21.3622H7.42729V21.3408C7.44822 21.3408 7.46916 21.3408 7.46916 21.2981V20.6356H7.17608C7.15514 20.6356 7.13421 20.6356 7.13421 20.6783H7.11328V20.3578H7.13421C7.13421 20.4005 7.15514 20.4005 7.17608 20.4005H8.05532ZM9.56259 21.1485C9.58352 21.1485 9.60445 21.1271 9.62539 21.0844H9.64632V21.3622H9.62539C9.60445 21.3195 9.60445 21.3195 9.56259 21.3195H8.62054V21.2981C8.64148 21.2981 8.68335 21.2981 8.68335 21.2554V20.4432C8.68335 20.4219 8.66241 20.4005 8.62054 20.4005V20.3791H9.58352C9.60445 20.3791 9.62539 20.3791 9.62539 20.3364H9.64632V20.6142H9.62539C9.62539 20.5715 9.60445 20.5715 9.58352 20.5715H8.97643V20.7424H9.37418C9.39511 20.7424 9.41605 20.7424 9.41605 20.6997H9.43698V20.9775H9.41605C9.41605 20.9348 9.39511 20.9348 9.37418 20.9348H8.97643V21.1485H9.56259ZM10.5674 20.5715H10.8605C10.9861 20.5715 11.028 20.6142 11.028 20.6783C11.028 20.7638 10.9652 20.7852 10.8814 20.7852H10.5884V20.5715H10.5674ZM10.2953 21.2767C10.2953 21.2981 10.2744 21.3195 10.2534 21.3195V21.3408H10.6093V21.3195C10.5884 21.3195 10.5465 21.3195 10.5465 21.2767V20.9989H10.7558C10.7768 21.0416 10.9233 21.2767 10.9233 21.2981C10.9233 21.3195 10.8814 21.3195 10.8814 21.3195V21.3408H11.3001V21.3195C11.2792 21.3195 11.2373 21.2981 11.2164 21.2767L11.028 20.9989C11.1536 20.9562 11.2583 20.8707 11.2583 20.6997C11.2583 20.5074 11.1117 20.4005 10.9233 20.4005H10.2534V20.4219C10.2744 20.4219 10.2953 20.4219 10.2953 20.4646V21.2767ZM11.8654 21.0203L11.8863 21.0416V21.063C11.8863 21.1271 12.1375 21.1699 12.305 21.1699C12.3468 21.1699 12.4934 21.1699 12.4934 21.0844C12.4934 20.9134 11.8026 21.0844 11.8026 20.7211C11.8026 20.5928 11.9282 20.4005 12.2631 20.4005C12.4725 20.4005 12.6399 20.4646 12.6818 20.4646C12.7027 20.4646 12.7237 20.4432 12.7237 20.4432H12.7446L12.619 20.7211L12.5981 20.6997V20.6783C12.5981 20.657 12.4515 20.5928 12.305 20.5928C12.2422 20.5928 12.0747 20.5928 12.0747 20.6783C12.0747 20.8279 12.7655 20.6783 12.7655 21.0416C12.7655 21.2126 12.619 21.3622 12.305 21.3622C12.0956 21.3622 11.8654 21.2767 11.8444 21.2767C11.8235 21.2767 11.8026 21.2981 11.8026 21.2981H11.7816L11.8654 21.0203ZM15.2776 20.4646C15.2776 20.4432 15.2567 20.4219 15.2148 20.4219V20.4005H16.136C16.1569 20.4005 16.1778 20.4005 16.1778 20.3578H16.1988V20.657H16.1778C16.1778 20.6142 16.1569 20.6142 16.136 20.6142H15.5707V20.8066H15.9475C15.9685 20.8066 15.9894 20.8066 15.9894 20.7638H16.0103V21.0416H15.9894C15.9894 20.9989 15.9685 20.9989 15.9475 20.9989H15.5707V21.2981C15.5707 21.3195 15.5917 21.3408 15.6335 21.3408V21.3622H15.2148V21.3408C15.2567 21.3408 15.2776 21.3408 15.2776 21.2981V20.4646ZM17.2036 20.6142C17.3711 20.6142 17.4967 20.7211 17.4967 20.8707C17.4967 21.0203 17.3711 21.1271 17.2036 21.1271C17.0361 21.1271 16.9105 21.0203 16.9105 20.8707C16.9315 20.7211 17.0571 20.6142 17.2036 20.6142ZM17.2036 20.3791C16.9315 20.3791 16.6384 20.5287 16.6384 20.8707C16.6384 21.2126 16.9315 21.3622 17.2036 21.3622C17.4757 21.3622 17.7688 21.2126 17.7688 20.8707C17.7688 20.5287 17.4757 20.3791 17.2036 20.3791ZM18.6271 20.5715H18.9202C19.0458 20.5715 19.0877 20.6142 19.0877 20.6783C19.0877 20.7638 19.0249 20.7852 18.9411 20.7852H18.6481V20.5715H18.6271ZM18.355 21.2767C18.355 21.2981 18.3341 21.3195 18.3131 21.3195V21.3408H18.669V21.3195C18.6481 21.3195 18.6062 21.3195 18.6062 21.2767V20.9989H18.8155C18.8365 21.0416 18.983 21.2767 18.983 21.2981C18.983 21.3195 18.9411 21.3195 18.9411 21.3195V21.3408H19.3598V21.3195C19.3389 21.3195 19.297 21.2981 19.2761 21.2767L19.0877 20.9989C19.2133 20.9562 19.318 20.8707 19.318 20.6997C19.318 20.5074 19.1714 20.4005 18.9621 20.4005H18.2922V20.4219C18.3131 20.4219 18.3341 20.4219 18.3341 20.4646V21.2767H18.355ZM22.2278 20.4646H22.5C22.7303 20.4646 22.814 20.5928 22.814 20.7852C22.814 20.9775 22.7303 21.1058 22.5 21.1058H22.2278V20.4646ZM21.9138 21.2767C21.9138 21.2981 21.9138 21.3195 21.851 21.3195V21.3408H22.5209C22.9187 21.3408 23.1071 21.063 23.1071 20.7852C23.1071 20.4646 22.9187 20.2295 22.5418 20.2295H21.851V20.2509C21.9138 20.2509 21.9138 20.2723 21.9138 20.2936V21.2767ZM24.07 20.4005V20.4219C24.0282 20.4219 24.0072 20.4219 24.0072 20.4646V21.2767C24.0072 21.2981 24.0282 21.3195 24.07 21.3195V21.3408H23.6514V21.3195C23.6932 21.3195 23.7142 21.3195 23.7142 21.2767V20.4646C23.7142 20.4432 23.6932 20.4219 23.6514 20.4219V20.4005H24.07ZM24.6771 21.0203L24.6981 21.0416V21.063C24.6981 21.1271 24.9493 21.1699 25.1168 21.1699C25.1796 21.1699 25.3052 21.1699 25.3052 21.0844C25.3052 20.9134 24.6143 21.0844 24.6143 20.7211C24.6143 20.5928 24.7399 20.4005 25.0749 20.4005C25.2842 20.4005 25.4517 20.4646 25.4936 20.4646C25.5145 20.4646 25.5354 20.4432 25.5354 20.4432H25.5564L25.4308 20.7211L25.4098 20.6997V20.6783C25.4098 20.657 25.2633 20.5928 25.1168 20.5928C25.054 20.5928 24.8865 20.5928 24.8865 20.6783C24.8865 20.8279 25.5773 20.6783 25.5773 21.0416C25.5773 21.2126 25.4308 21.3622 25.1168 21.3622C24.9074 21.3622 24.6771 21.2767 24.6562 21.2767C24.6353 21.2767 24.6143 21.2981 24.6143 21.2981H24.5934L24.6771 21.0203ZM27.0636 21.1485C27.0846 21.1485 27.1055 21.1271 27.1265 21.0844H27.1474V21.3622H27.1265C27.1055 21.3195 27.1055 21.3195 27.0636 21.3195H26.1216V21.2981C26.1425 21.2981 26.1844 21.2981 26.1844 21.2554V20.4432C26.1844 20.4219 26.1635 20.4005 26.1216 20.4005V20.3791H27.0846C27.1055 20.3791 27.1265 20.3791 27.1265 20.3364H27.1474V20.6142H27.1265C27.1265 20.5715 27.1055 20.5715 27.0846 20.5715H26.4775V20.7424H26.8752C26.8962 20.7424 26.9171 20.7424 26.9171 20.6997H26.938V20.9775H26.9171C26.9171 20.9348 26.8962 20.9348 26.8752 20.9348H26.4775V21.1485H27.0636ZM28.1104 20.9989L28.2778 20.6142L28.4453 20.9989H28.1104ZM28.9059 21.3408V21.3195C28.8849 21.3195 28.864 21.3195 28.864 21.2981C28.7803 21.0844 28.4662 20.4646 28.4662 20.4432C28.4662 20.4219 28.4662 20.4219 28.4872 20.4219V20.4005H28.0476V20.4219C28.0685 20.4219 28.0685 20.4219 28.0685 20.4432C28.0685 20.4646 27.8801 20.892 27.7126 21.2981C27.7126 21.3195 27.6917 21.3195 27.6707 21.3195V21.3408H27.9848V21.3195C27.9848 21.3195 27.9638 21.3195 27.9638 21.2981C27.9638 21.2767 28.0057 21.1912 28.0266 21.1485H28.5081C28.529 21.1912 28.5709 21.2767 28.5709 21.2981C28.5709 21.3195 28.55 21.3195 28.55 21.3195V21.3408H28.9059ZM29.492 21.0203L29.513 21.0416V21.063C29.513 21.1271 29.7642 21.1699 29.9316 21.1699C29.9944 21.1699 30.1201 21.1699 30.1201 21.0844C30.1201 20.9134 29.4292 21.0844 29.4292 20.7211C29.4292 20.5928 29.5548 20.4005 29.8898 20.4005C30.0991 20.4005 30.2666 20.4646 30.3085 20.4646C30.3294 20.4646 30.3503 20.4432 30.3503 20.4432H30.3713L30.2457 20.7211L30.2247 20.6997V20.6783C30.2247 20.657 30.0782 20.5928 29.9316 20.5928C29.8688 20.5928 29.7014 20.5928 29.7014 20.6783C29.7014 20.8279 30.3922 20.6783 30.3922 21.0416C30.3922 21.2126 30.2457 21.3622 29.9316 21.3622C29.7223 21.3622 29.492 21.2767 29.4711 21.2767C29.4502 21.2767 29.4292 21.2981 29.4292 21.2981H29.4083L29.492 21.0203ZM31.8576 21.1485C31.8785 21.1485 31.8995 21.1271 31.9204 21.0844H31.9413V21.3622H31.9204C31.8995 21.3195 31.8995 21.3195 31.8576 21.3195H30.9156V21.2981C30.9365 21.2981 30.9784 21.2981 30.9784 21.2554V20.4432C30.9784 20.4219 30.9574 20.4005 30.9156 20.4005V20.3791H31.8785C31.8995 20.3791 31.9204 20.3791 31.9204 20.3364H31.9413V20.6142H31.9204C31.9204 20.5715 31.8995 20.5715 31.8785 20.5715H31.2714V20.7424H31.6692C31.6901 20.7424 31.7111 20.7424 31.7111 20.6997H31.732V20.9775H31.7111C31.7111 20.9348 31.6901 20.9348 31.6692 20.9348H31.2714V21.1485H31.8576ZM3.05202 22.7727L3.03109 22.7513V22.7086C3.03109 22.6659 2.86361 22.6017 2.69614 22.6017C2.52867 22.6017 2.29839 22.6872 2.29839 22.9009C2.29839 23.1147 2.52867 23.2001 2.69614 23.2001C2.77988 23.2001 3.05202 23.136 3.05202 23.0719C3.05202 23.0505 3.05202 23.0505 3.03109 23.0292L3.05202 23.0078L3.26137 23.3497L3.24043 23.3711C3.24043 23.3497 3.2195 23.3497 3.2195 23.3497C3.17763 23.3497 2.98922 23.4566 2.67521 23.4566C2.34026 23.4566 1.98438 23.2643 1.98438 22.8796C1.98438 22.4949 2.34026 22.3025 2.67521 22.3025C2.84268 22.3025 2.96829 22.3239 3.05202 22.3453C3.13576 22.3667 3.17763 22.388 3.19856 22.388C3.2195 22.388 3.2195 22.388 3.24043 22.3667H3.26137L3.05202 22.7727ZM4.16154 22.7727C4.32901 22.7727 4.45462 22.8796 4.45462 23.0292C4.45462 23.1788 4.32901 23.2856 4.16154 23.2856C3.99407 23.2856 3.86846 23.1788 3.86846 23.0292C3.86846 22.8582 4.015 22.7727 4.16154 22.7727ZM4.16154 22.5376C3.88939 22.5376 3.59631 22.6872 3.59631 23.0292C3.59631 23.3711 3.88939 23.5207 4.16154 23.5207C4.43369 23.5207 4.72677 23.3711 4.72677 23.0292C4.72677 22.6872 4.43369 22.5376 4.16154 22.5376ZM6.19217 23.4352C6.19217 23.4566 6.2131 23.478 6.25497 23.478V23.4993H5.85722V23.478C5.87815 23.478 5.92002 23.478 5.92002 23.4566C5.92002 23.4139 5.64788 23.1574 5.4176 22.8796V23.4352C5.4176 23.4566 5.43853 23.478 5.4804 23.478V23.4993H5.12452V23.478C5.14545 23.478 5.18732 23.478 5.18732 23.4352V22.6231C5.18732 22.6017 5.16639 22.5804 5.12452 22.5804V22.559H5.62694V22.5804C5.60601 22.5804 5.58507 22.5804 5.58507 22.6231C5.58507 22.6445 5.79441 22.8582 5.96189 23.0505V22.6231C5.96189 22.6017 5.94096 22.5804 5.89909 22.5804V22.559H6.2759V22.5804C6.23404 22.5804 6.2131 22.5804 6.2131 22.6231V23.4352H6.19217ZM7.5529 22.5376C7.57383 22.5376 7.59476 22.5376 7.59476 22.4949H7.6157V22.8155H7.59476C7.59476 22.7727 7.57383 22.7727 7.5529 22.7727H7.25982V23.4352C7.25982 23.4566 7.28075 23.478 7.30168 23.478V23.4993H6.92487V23.478C6.9458 23.478 6.96673 23.478 6.96673 23.4352V22.7727H6.67366C6.65272 22.7727 6.63179 22.7727 6.63179 22.8155H6.61085V22.4949H6.63179C6.63179 22.5376 6.65272 22.5376 6.67366 22.5376H7.5529ZM8.32746 22.73H8.62054C8.74615 22.73 8.78802 22.7727 8.78802 22.8368C8.78802 22.9223 8.72521 22.9437 8.64148 22.9437H8.3484V22.73H8.32746ZM8.05532 23.4352C8.05532 23.4566 8.03438 23.478 8.01345 23.478V23.4993H8.36933V23.478C8.3484 23.478 8.30653 23.478 8.30653 23.4352V23.1574H8.51587C8.53681 23.2001 8.68335 23.4352 8.68335 23.4566C8.68335 23.478 8.64148 23.478 8.64148 23.478V23.4993H9.06016V23.478C9.03923 23.478 8.99736 23.4566 8.97643 23.4352L8.78802 23.1574C8.91362 23.1147 9.0183 23.0292 9.0183 22.8582C9.0183 22.6659 8.87175 22.559 8.68335 22.559H8.01345V22.5804C8.03438 22.5804 8.05532 22.5804 8.05532 22.6231V23.4352ZM9.96034 22.7727C10.1278 22.7727 10.2534 22.8796 10.2534 23.0292C10.2534 23.1788 10.1278 23.2856 9.96034 23.2856C9.79286 23.2856 9.66726 23.1788 9.66726 23.0292C9.66726 22.8582 9.79286 22.7727 9.96034 22.7727ZM9.96034 22.5376C9.68819 22.5376 9.39511 22.6872 9.39511 23.0292C9.39511 23.3711 9.68819 23.5207 9.96034 23.5207C10.2325 23.5207 10.5256 23.3711 10.5256 23.0292C10.5256 22.6872 10.2115 22.5376 9.96034 22.5376ZM10.9442 22.6231C10.9442 22.6017 10.9233 22.5804 10.8814 22.5804V22.559H11.2792V22.5804C11.2583 22.5804 11.2164 22.5804 11.2164 22.6231V23.2856H11.8026C11.8235 23.2856 11.8444 23.2856 11.8444 23.2215H11.8654V23.5421H11.8444C11.8444 23.4993 11.8235 23.4993 11.8026 23.4993H10.8814V23.478C10.9233 23.478 10.9442 23.478 10.9442 23.4352V22.6231ZM13.3936 23.1574L13.561 22.7727L13.7285 23.1574H13.3936ZM14.1891 23.4993V23.478C14.1681 23.478 14.1472 23.478 14.1472 23.4566C14.0635 23.2429 13.7494 22.6231 13.7494 22.6017C13.7494 22.5804 13.7494 22.5804 13.7704 22.5804V22.559H13.3308V22.5804C13.3517 22.5804 13.3517 22.5804 13.3517 22.6017C13.3517 22.6231 13.1633 23.0505 12.9958 23.4566C12.9958 23.478 12.9749 23.478 12.9539 23.478V23.4993H13.268V23.478C13.268 23.478 13.247 23.478 13.247 23.4566C13.247 23.4352 13.2889 23.3497 13.3098 23.307H13.7913C13.8122 23.3497 13.8541 23.4352 13.8541 23.4566C13.8541 23.478 13.8332 23.478 13.8332 23.478V23.4993H14.1891ZM15.6754 23.4352C15.6754 23.4566 15.6963 23.478 15.7382 23.478V23.4993H15.3404V23.478C15.3614 23.478 15.4033 23.478 15.4033 23.4566C15.4033 23.4139 15.1311 23.1574 14.9008 22.8796V23.4352C14.9008 23.4566 14.9218 23.478 14.9636 23.478V23.4993H14.5868V23.478C14.6077 23.478 14.6496 23.478 14.6496 23.4352V22.6231C14.6496 22.6017 14.6287 22.5804 14.5868 22.5804V22.559H15.0892V22.5804C15.0683 22.5804 15.0474 22.5804 15.0474 22.6231C15.0474 22.6445 15.2567 22.8582 15.4242 23.0505V22.6231C15.4242 22.6017 15.4033 22.5804 15.3614 22.5804V22.559H15.7382V22.5804C15.6963 22.5804 15.6754 22.5804 15.6754 22.6231V23.4352ZM16.4918 22.7513H16.6384C16.8477 22.7513 16.9524 22.8155 16.9524 23.0078C16.9524 23.2001 16.8687 23.2643 16.6384 23.2643H16.4918V22.7513ZM16.1988 23.4352C16.1988 23.4566 16.1778 23.478 16.136 23.478V23.4993H16.764C17.078 23.4993 17.2036 23.2856 17.2036 23.0292C17.2036 22.7727 17.078 22.559 16.764 22.559H16.136V22.5804C16.1569 22.5804 16.1988 22.5804 16.1988 22.6231V23.4352ZM18.8155 22.6017H19.1296C19.2342 22.6017 19.297 22.6445 19.297 22.73C19.297 22.8155 19.2342 22.8582 19.1296 22.8582H18.8155V22.6017ZM18.8155 23.0719H19.1924C19.4645 23.0719 19.5901 22.9009 19.5901 22.7086C19.5901 22.5163 19.4436 22.3453 19.1924 22.3453H18.4387V22.3667C18.5015 22.3667 18.5015 22.388 18.5015 22.4094V23.4139C18.5015 23.4352 18.5015 23.4566 18.4387 23.4566V23.478H18.8783V23.4566C18.8155 23.4566 18.8155 23.4352 18.8155 23.4139V23.0719ZM20.3019 22.73H20.595C20.7206 22.73 20.7624 22.7727 20.7624 22.8368C20.7624 22.9223 20.6996 22.9437 20.6159 22.9437H20.3228V22.73H20.3019ZM20.0297 23.4352C20.0297 23.4566 20.0088 23.478 19.9879 23.478V23.4993H20.3437V23.478C20.3228 23.478 20.2809 23.478 20.2809 23.4352V23.1574H20.4903C20.5112 23.2001 20.6578 23.4352 20.6578 23.4566C20.6578 23.478 20.6159 23.478 20.6159 23.478V23.4993H21.0346V23.478C21.0136 23.478 20.9718 23.4566 20.9508 23.4352L20.7624 23.1574C20.888 23.1147 20.9927 23.0292 20.9927 22.8582C20.9927 22.6659 20.8462 22.559 20.6578 22.559H19.9879V22.5804C20.0088 22.5804 20.0297 22.5804 20.0297 22.6231V23.4352ZM22.3534 23.307C22.3744 23.307 22.3953 23.2856 22.4162 23.2643H22.4372V23.5421H22.4162C22.3953 23.4993 22.3953 23.4993 22.3534 23.4993H21.4114V23.478C21.4323 23.478 21.4742 23.478 21.4742 23.4352V22.6231C21.4742 22.6017 21.4533 22.5804 21.4114 22.5804V22.559H22.3744C22.3953 22.559 22.4162 22.559 22.4162 22.5163H22.4372V22.7941H22.4162C22.4162 22.7513 22.3953 22.7513 22.3744 22.7513H21.7673V22.9223H22.165C22.186 22.9223 22.2069 22.9223 22.2069 22.8796H22.2278V23.1574H22.2069C22.2069 23.1147 22.186 23.1147 22.165 23.1147H21.7673V23.3284H22.3534V23.307ZM22.7721 22.5376H23.1699V22.559C23.1489 22.559 23.1071 22.559 23.1071 22.5804C23.1071 22.6017 23.2745 23.0719 23.2955 23.136C23.3792 22.9437 23.5048 22.6017 23.5048 22.5804C23.5048 22.559 23.463 22.559 23.463 22.559V22.5376H23.8188V22.559C23.7979 22.559 23.777 22.559 23.777 22.5804C23.756 22.6659 23.442 23.3925 23.442 23.4139C23.442 23.4352 23.463 23.4566 23.4839 23.4566V23.478H23.0443V23.4566C23.0652 23.4566 23.0861 23.4352 23.0861 23.4139C23.0861 23.4139 22.814 22.5804 22.7931 22.559H22.7512V22.5376H22.7721ZM25.1168 23.307C25.1377 23.307 25.1586 23.2856 25.1796 23.2643H25.2005V23.5421H25.1796C25.1586 23.4993 25.1586 23.4993 25.1168 23.4993H24.1747V23.478C24.1957 23.478 24.2375 23.478 24.2375 23.4352V22.6231C24.2375 22.6017 24.2166 22.5804 24.1747 22.5804V22.559H25.1377C25.1586 22.559 25.1796 22.559 25.1796 22.5163H25.2005V22.7941H25.1796C25.1796 22.7513 25.1586 22.7513 25.1377 22.7513H24.5306V22.9223H24.9284C24.9493 22.9223 24.9702 22.9223 24.9702 22.8796H24.9912V23.1574H24.9702C24.9702 23.1147 24.9493 23.1147 24.9284 23.1147H24.5306V23.3284H25.1168V23.307ZM26.7287 23.4352C26.7287 23.4566 26.7496 23.478 26.7915 23.478V23.4993H26.3938V23.478C26.4147 23.478 26.4566 23.478 26.4566 23.4566C26.4566 23.4139 26.1844 23.1574 25.9541 22.8796V23.4352C25.9541 23.4566 25.9751 23.478 26.0169 23.478V23.4993H25.6611V23.478C25.682 23.478 25.7239 23.478 25.7239 23.4352V22.6231C25.7239 22.6017 25.7029 22.5804 25.6611 22.5804V22.559H26.1635V22.5804C26.1425 22.5804 26.1216 22.5804 26.1216 22.6231C26.1216 22.6445 26.3309 22.8582 26.4984 23.0505V22.6231C26.4984 22.6017 26.4775 22.5804 26.4356 22.5804V22.559H26.8124V22.5804C26.7706 22.5804 26.7496 22.5804 26.7496 22.6231V23.4352H26.7287ZM28.0894 22.5376C28.1104 22.5376 28.1313 22.5376 28.1313 22.4949H28.1522V22.8155H28.1313C28.1313 22.7727 28.1104 22.7727 28.0894 22.7727H27.7963V23.4352C27.7963 23.4566 27.8173 23.478 27.8382 23.478V23.4993H27.4614V23.478C27.4823 23.478 27.5033 23.478 27.5033 23.4352V22.7727H27.2102C27.1893 22.7727 27.1683 22.7727 27.1683 22.8155H27.1474V22.4949H27.1683C27.1683 22.5376 27.1893 22.5376 27.2102 22.5376H28.0894ZM28.9687 22.5376V22.559C28.9268 22.559 28.9059 22.559 28.9059 22.6017V23.4139C28.9059 23.4352 28.9268 23.4566 28.9687 23.4566V23.478H28.55V23.4566C28.5919 23.4566 28.6128 23.4566 28.6128 23.4139V22.6017C28.6128 22.5804 28.5919 22.559 28.55 22.559V22.5376H28.9687ZM29.9107 22.7727C30.0782 22.7727 30.2038 22.8796 30.2038 23.0292C30.2038 23.1788 30.0782 23.2856 29.9107 23.2856C29.7432 23.2856 29.6176 23.1788 29.6176 23.0292C29.6176 22.8582 29.7432 22.7727 29.9107 22.7727ZM29.9107 22.5376C29.6386 22.5376 29.3455 22.6872 29.3455 23.0292C29.3455 23.3711 29.6386 23.5207 29.9107 23.5207C30.1829 23.5207 30.4759 23.3711 30.4759 23.0292C30.4759 22.6872 30.1619 22.5376 29.9107 22.5376ZM31.9204 23.4352C31.9204 23.4566 31.9413 23.478 31.9832 23.478V23.4993H31.5855V23.478C31.6064 23.478 31.6483 23.478 31.6483 23.4566C31.6483 23.4139 31.3761 23.1574 31.1458 22.8796V23.4352C31.1458 23.4566 31.1668 23.478 31.2086 23.478V23.4993H30.8528V23.478C30.8737 23.478 30.9156 23.478 30.9156 23.4352V22.6231C30.9156 22.6017 30.8946 22.5804 30.8528 22.5804V22.559H31.3552V22.5804C31.3342 22.5804 31.3133 22.5804 31.3133 22.6231C31.3133 22.6445 31.5226 22.8582 31.6901 23.0505V22.6231C31.6901 22.6017 31.6692 22.5804 31.6273 22.5804V22.559H32.0041V22.5804C31.9623 22.5804 31.9413 22.5804 31.9413 22.6231V23.4352H31.9204Z" fill="#0033A1"/>
</g>
<defs>
<clipPath id="clip0_34639_2427">
<rect width="33" height="24" fill="white" transform="translate(0.892578 0.140381)"/>
</clipPath>
</defs>
</svg>
