<svg width="39" height="28" viewBox="0 0 39 28" fill="none" xmlns="http://www.w3.org/2000/svg">
<g clip-path="url(#clip0_34639_2434)">
<path d="M19.9637 2.28875C10.3678 2.28875 2.56075 7.60887 2.56075 14.1475C2.56075 20.7002 10.3678 26.0325 19.9637 26.0325C29.5596 26.0325 37.3667 20.7002 37.3667 14.1475C37.3667 7.60887 29.5596 2.28875 19.9637 2.28875ZM19.9637 27.1946C9.73856 27.1946 1.41992 21.3417 1.41992 14.1475C1.41992 6.96787 9.73856 1.1261 19.9637 1.1261C30.1877 1.1261 38.5064 6.96787 38.5064 14.1475C38.5064 21.3417 30.1877 27.1946 19.9637 27.1946Z" fill="white"/>
<path d="M1.99219 14.1482C1.99219 7.34235 10.0396 1.70842 19.965 1.70842C29.8904 1.70842 37.9378 7.34235 37.9378 14.1482C37.9378 20.9541 29.8904 26.6143 19.965 26.6143C10.0396 26.6143 1.99219 20.9541 1.99219 14.1482Z" fill="#B8B6D0"/>
<g opacity="0.5">
<g opacity="0.5">
<g opacity="0.5">
<g opacity="0.5">
<g opacity="0.5">
<g opacity="0.5">
<g opacity="0.5">
<path opacity="0.5" d="M19.8036 1.70931C9.95364 1.77102 1.99414 7.38166 1.99414 14.1491C1.99414 20.9556 10.0421 26.6157 19.9669 26.6157C29.8923 26.6157 37.9398 20.9556 37.9398 14.1491C37.9398 7.38166 29.9808 1.77102 20.1308 1.70931H19.8036Z" fill="url(#paint0_radial_34639_2434)"/>
</g>
</g>
</g>
</g>
</g>
</g>
</g>
<path d="M2.67773 14.1513C2.67773 20.7086 10.4008 25.9944 19.9648 25.9944C29.5282 25.9944 37.2513 20.7086 37.2513 14.1513C37.2513 7.59518 29.5282 2.31 19.9648 2.31C10.4008 2.31 2.67773 7.59518 2.67773 14.1513Z" fill="url(#paint1_radial_34639_2434)"/>
<path d="M2.67773 14.1516C2.67773 20.7088 10.4008 25.9946 19.9648 25.9946C29.5282 25.9946 37.2518 20.7088 37.2518 14.1516C37.2518 7.59543 29.5282 2.31024 19.9648 2.31024C10.4008 2.31024 2.67773 7.59543 2.67773 14.1516Z" fill="url(#paint2_radial_34639_2434)"/>
<g opacity="0.60001">
<g opacity="0.60001">
<g opacity="0.60001">
<g opacity="0.60001">
<g opacity="0.60001">
<g opacity="0.60001">
<g opacity="0.60001">
<path opacity="0.60001" d="M2.67773 14.1516C2.67773 20.7088 10.4008 25.9946 19.9648 25.9946C29.5282 25.9946 37.2518 20.7088 37.2518 14.1516C37.2518 7.59543 29.5282 2.31024 19.9648 2.31024C10.4008 2.31024 2.67773 7.59543 2.67773 14.1516Z" fill="url(#paint3_radial_34639_2434)"/>
</g>
</g>
</g>
</g>
</g>
</g>
</g>
<path d="M24.8739 9.7876V8.96554H15.0935V9.88773L6.10742 9.7876L6.2513 9.91277V17.6152L14.9485 17.6409L33.5717 17.6152V9.91277L33.6802 9.7876H24.8739Z" fill="#B8B6D0"/>
<path d="M14.9491 17.6414V9.78809H6.10742L6.25132 9.91267V17.6163L14.9491 17.6414Z" fill="white"/>
<path d="M8.10375 11.9592H7.09367V13.3798H6.94922V13.7786H8.21222V13.3798H8.10375V11.9592Z" fill="#656894"/>
<path d="M8.16625 11.9068H7.15617V13.353H7.01172V13.7273H8.27473V13.353H8.16625V11.9068Z" fill="white"/>
<path d="M7.32812 12.1046H7.97733V13.4011H7.32812V12.1046Z" fill="#656894"/>
<path d="M10.2112 11.9592H9.20109V13.3798H9.05664V13.7786H10.3196V13.3798H10.2112V11.9592Z" fill="#656894"/>
<path d="M10.2678 11.9068H9.25775V13.353H9.11328V13.7273H10.3757V13.353H10.2678V11.9068Z" fill="white"/>
<path d="M9.42773 12.1046H10.077V13.4011H9.42773V12.1046Z" fill="#656894"/>
<path d="M12.392 11.9592H11.3819V13.3798H11.2363V13.7786H12.5005V13.3798H12.392V11.9592Z" fill="#656894"/>
<path d="M12.4553 11.9068H11.4452V13.353H11.3008V13.7273H12.5638V13.353H12.4553V11.9068Z" fill="white"/>
<path d="M11.6152 12.1046H12.2644V13.4011H11.6152V12.1046Z" fill="#656894"/>
<path d="M14.4534 11.9592H13.4433V13.3798H13.2988V13.7786H14.5613V13.3798H14.4534V11.9592Z" fill="#656894"/>
<path d="M14.51 11.9068H13.4988V13.353H13.3555V13.7273H14.6179V13.353H14.51V11.9068Z" fill="white"/>
<path d="M13.6719 12.1046H14.3211V13.4011H13.6719V12.1046Z" fill="#656894"/>
<path d="M12.7852 9.04823H13.6879V9.8208H12.7852V9.04823Z" fill="white"/>
<path d="M12.7852 9.04823H13.6879V9.8208H12.7852V9.04823Z" stroke="white" stroke-width="0.0920681" stroke-miterlimit="3.864"/>
<path d="M6.95117 9.81653H8.28671V10.4651H6.95117V9.81653Z" fill="#9998BA"/>
<path d="M6.95117 9.81653H8.28671V10.4651H6.95117V9.81653Z" stroke="white" stroke-width="0.0920681" stroke-miterlimit="3.864"/>
<path d="M9.125 9.81653H10.4605V10.4651H9.125V9.81653Z" fill="#9998BA"/>
<path d="M9.125 9.81653H10.4605V10.4651H9.125V9.81653Z" stroke="white" stroke-width="0.0920681" stroke-miterlimit="3.864"/>
<path d="M11.2949 9.81653H12.6304V10.4651H11.2949V9.81653Z" fill="#9998BA"/>
<path d="M11.2949 9.81653H12.6304V10.4651H11.2949V9.81653Z" stroke="white" stroke-width="0.0920681" stroke-miterlimit="3.864"/>
<path d="M13.4707 9.81653H14.8062V10.4651H13.4707V9.81653Z" fill="#9998BA"/>
<path d="M13.4707 9.81653H14.8062V10.4651H13.4707V9.81653Z" stroke="white" stroke-width="0.0920681" stroke-miterlimit="3.864"/>
<path d="M6.83008 14.7011H8.23697V17.1685H6.83008V14.7011Z" fill="#656894"/>
<path d="M6.83008 14.7011H8.23697V17.1685H6.83008V14.7011Z" stroke="white" stroke-width="0.0920681" stroke-miterlimit="3.864"/>
<path d="M6.95117 14.5731H8.35808V17.041H6.95117V14.5731Z" fill="white"/>
<path d="M6.95117 14.5731H8.35808V17.041H6.95117V14.5731Z" stroke="white" stroke-width="0.0920681" stroke-miterlimit="3.864"/>
<path d="M7.27539 14.8991H8.03308V16.7202H7.27539V14.8991Z" fill="#656894"/>
<path d="M6.80469 14.5762H8.50108C8.50108 14.5762 8.17619 14.0516 7.6349 14.0516C7.05707 14.0516 6.80469 14.5762 6.80469 14.5762Z" fill="url(#paint4_linear_34639_2434)"/>
<path d="M11.0723 14.7011H12.4803V17.1685H11.0723V14.7011Z" fill="#656894"/>
<path d="M11.0723 14.7011H12.4803V17.1685H11.0723V14.7011Z" stroke="white" stroke-width="0.0920681" stroke-miterlimit="3.864"/>
<path d="M11.1992 14.5731H12.6061V17.041H11.1992V14.5731Z" fill="white"/>
<path d="M11.1992 14.5731H12.6061V17.041H11.1992V14.5731Z" stroke="white" stroke-width="0.0920681" stroke-miterlimit="3.864"/>
<path d="M11.5195 14.8991H12.2772V16.7202H11.5195V14.8991Z" fill="#656894"/>
<path d="M11.0527 14.5762H12.748C12.748 14.5762 12.4237 14.0516 11.8829 14.0516C11.3051 14.0516 11.0527 14.5762 11.0527 14.5762Z" fill="url(#paint5_linear_34639_2434)"/>
<path d="M8.94336 14.7011H10.3514V17.1685H8.94336V14.7011Z" fill="#656894"/>
<path d="M8.94336 14.7011H10.3514V17.1685H8.94336V14.7011Z" stroke="white" stroke-width="0.0920681" stroke-miterlimit="3.864"/>
<path d="M9.06836 14.5731H10.4753V17.041H9.06836V14.5731Z" fill="white"/>
<path d="M9.06836 14.5731H10.4753V17.041H9.06836V14.5731Z" stroke="white" stroke-width="0.0920681" stroke-miterlimit="3.864"/>
<path d="M9.38867 14.8991H10.1464V16.7202H9.38867V14.8991Z" fill="#656894"/>
<path d="M8.92188 14.5764H10.6177L9.75266 14.0519L8.92188 14.5764Z" fill="url(#paint6_linear_34639_2434)"/>
<path d="M13.1289 14.7011H14.537V17.1685H13.1289V14.7011Z" fill="#656894"/>
<path d="M13.1289 14.7011H14.537V17.1685H13.1289V14.7011Z" stroke="white" stroke-width="0.0920681" stroke-miterlimit="3.864"/>
<path d="M13.2539 14.5731H14.662V17.041H13.2539V14.5731Z" fill="white"/>
<path d="M13.2539 14.5731H14.662V17.041H13.2539V14.5731Z" stroke="white" stroke-width="0.0920681" stroke-miterlimit="3.864"/>
<path d="M13.5801 14.8991H14.3378V16.7202H13.5801V14.8991Z" fill="#656894"/>
<path d="M13.1094 14.5762H14.8057L13.939 14.0516L13.1094 14.5762Z" fill="url(#paint7_linear_34639_2434)"/>
<path d="M6.07227 18.1509H14.5394V17.6281H6.07227V18.1509Z" fill="url(#paint8_linear_34639_2434)"/>
<path d="M14.538 18.1538H6.07031V17.631H14.538V18.1538Z" stroke="white" stroke-width="0.0920681" stroke-miterlimit="3.864"/>
<path d="M7.33203 18.2119H7.72887V17.5645H7.33203V18.2119Z" fill="#9998BA"/>
<path d="M7.33203 17.5656H7.72887V18.2136H7.33203V17.5656Z" stroke="white" stroke-width="0.0920681" stroke-miterlimit="3.864"/>
<path d="M9.35547 18.2119H9.75288V17.5645H9.35547V18.2119Z" fill="#9998BA"/>
<path d="M9.35547 17.5656H9.7523V18.2136H9.35547V17.5656Z" stroke="white" stroke-width="0.0920681" stroke-miterlimit="3.864"/>
<path d="M11.375 18.2119H11.7718V17.5645H11.375V18.2119Z" fill="#9998BA"/>
<path d="M11.375 17.5656H11.7718V18.2136H11.375V17.5656Z" stroke="white" stroke-width="0.0920681" stroke-miterlimit="3.864"/>
<path d="M13.4316 18.2119H13.8291V17.5645H13.4316V18.2119Z" fill="#9998BA"/>
<path d="M13.4316 17.5656H13.8285V18.2136H13.4316V17.5656Z" stroke="white" stroke-width="0.0920681" stroke-miterlimit="3.864"/>
<path d="M5.99805 10.9376L6.24986 11.2107V11.4604H14.9476V10.9376H5.99805Z" fill="url(#paint9_linear_34639_2434)"/>
<path d="M24.8555 17.6414V9.78808H33.6977L33.5532 9.91267V17.6163L24.8555 17.6414Z" fill="white"/>
<path d="M26.4662 11.9592H25.455V13.3798H25.3105V13.7786H26.5741V13.3798H26.4662V11.9592Z" fill="#656894"/>
<path d="M26.5287 11.9068H25.5175V13.353H25.373V13.7273H26.6366V13.353H26.5287V11.9068Z" fill="white"/>
<path d="M25.6895 12.1046H26.3387V13.4011H25.6895V12.1046Z" fill="#656894"/>
<path d="M28.5725 11.9592H27.5624V13.3798H27.418V13.7786H28.6804V13.3798H28.5725V11.9592Z" fill="#656894"/>
<path d="M28.6303 11.9068H27.6202V13.353H27.4746V13.7273H28.7382V13.353H28.6303V11.9068Z" fill="white"/>
<path d="M27.791 12.1046H28.4402V13.4011H27.791V12.1046Z" fill="#656894"/>
<path d="M30.7541 11.9592H29.7441V13.3798H29.5996V13.7786H30.8626V13.3798H30.7541V11.9592Z" fill="#656894"/>
<path d="M30.81 11.9068H29.7988V13.353H29.6543V13.7273H30.9179V13.353H30.81V11.9068Z" fill="white"/>
<path d="M29.9766 12.1046H30.6252V13.4011H29.9766V12.1046Z" fill="#656894"/>
<path d="M32.8139 11.9592H31.8027V13.3798H31.6582V13.7786H32.9218V13.3798H32.8139V11.9592Z" fill="#656894"/>
<path d="M32.8713 11.9068H31.8612V13.353H31.7168V13.7273H32.9798V13.353H32.8713V11.9068Z" fill="white"/>
<path d="M32.0332 12.1046H32.6836V13.4011H32.0332V12.1046Z" fill="#656894"/>
<path d="M25.1934 14.7011H26.6014V17.1685H25.1934V14.7011Z" fill="#656894"/>
<path d="M25.1934 14.7011H26.6014V17.1685H25.1934V14.7011Z" stroke="white" stroke-width="0.0920681" stroke-miterlimit="3.864"/>
<path d="M25.3125 14.5731H26.7205V17.041H25.3125V14.5731Z" fill="white"/>
<path d="M25.3125 14.5731H26.7205V17.041H25.3125V14.5731Z" stroke="white" stroke-width="0.0920681" stroke-miterlimit="3.864"/>
<path d="M25.6387 14.8991H26.3964V16.7202H25.6387V14.8991Z" fill="#656894"/>
<path d="M25.166 14.5764H26.8624C26.8624 14.5764 26.5381 14.0519 25.9962 14.0519C25.4184 14.0519 25.166 14.5764 25.166 14.5764Z" fill="url(#paint10_linear_34639_2434)"/>
<path d="M29.4355 14.7011H30.8424V17.1685H29.4355V14.7011Z" fill="#656894"/>
<path d="M29.4355 14.7011H30.8424V17.1685H29.4355V14.7011Z" stroke="white" stroke-width="0.0920681" stroke-miterlimit="3.864"/>
<path d="M29.5547 14.5731H30.9616V17.041H29.5547V14.5731Z" fill="white"/>
<path d="M29.5547 14.5731H30.9616V17.041H29.5547V14.5731Z" stroke="white" stroke-width="0.0920681" stroke-miterlimit="3.864"/>
<path d="M29.8809 14.8991H30.6386V16.7202H29.8809V14.8991Z" fill="#656894"/>
<path d="M29.416 14.5764H31.1113C31.1113 14.5764 30.7869 14.0519 30.2451 14.0519C29.6684 14.0519 29.416 14.5764 29.416 14.5764Z" fill="url(#paint11_linear_34639_2434)"/>
<path d="M27.3066 14.7011H28.7147V17.1685H27.3066V14.7011Z" fill="#656894"/>
<path d="M27.3066 14.7011H28.7147V17.1685H27.3066V14.7011Z" stroke="white" stroke-width="0.0920681" stroke-miterlimit="3.864"/>
<path d="M27.4258 14.5731H28.8338V17.041H27.4258V14.5731Z" fill="white"/>
<path d="M27.4258 14.5731H28.8338V17.041H27.4258V14.5731Z" stroke="white" stroke-width="0.0920681" stroke-miterlimit="3.864"/>
<path d="M27.752 14.8991H28.5097V16.7202H27.752V14.8991Z" fill="#656894"/>
<path d="M27.2852 14.5764H28.981L28.1154 14.0519L27.2852 14.5764Z" fill="url(#paint12_linear_34639_2434)"/>
<path d="M31.4922 14.7011H32.8991V17.1685H31.4922V14.7011Z" fill="#656894"/>
<path d="M31.4922 14.7011H32.8991V17.1685H31.4922V14.7011Z" stroke="white" stroke-width="0.0920681" stroke-miterlimit="3.864"/>
<path d="M31.6172 14.5731H33.0241V17.041H31.6172V14.5731Z" fill="white"/>
<path d="M31.6172 14.5731H33.0241V17.041H31.6172V14.5731Z" stroke="white" stroke-width="0.0920681" stroke-miterlimit="3.864"/>
<path d="M31.9414 14.8991H32.6991V16.7202H31.9414V14.8991Z" fill="#656894"/>
<path d="M31.4707 14.5764H33.1659L32.3003 14.0519L31.4707 14.5764Z" fill="url(#paint13_linear_34639_2434)"/>
<path d="M27.0207 9.04798H26.1191V9.82056H27.0207V9.04798Z" fill="white"/>
<path d="M27.0207 9.04798H26.1191V9.82056H27.0207V9.04798Z" stroke="white" stroke-width="0.0920681" stroke-miterlimit="3.864"/>
<path d="M32.857 9.81653H31.5215V10.4651H32.857V9.81653Z" fill="#9998BA"/>
<path d="M32.857 9.81653H31.5215V10.4651H32.857V9.81653Z" stroke="white" stroke-width="0.0920681" stroke-miterlimit="3.864"/>
<path d="M30.6812 9.81653H29.3457V10.4651H30.6812V9.81653Z" fill="#9998BA"/>
<path d="M30.6812 9.81653H29.3457V10.4651H30.6812V9.81653Z" stroke="white" stroke-width="0.0920681" stroke-miterlimit="3.864"/>
<path d="M28.5113 9.81653H27.1758V10.4651H28.5113V9.81653Z" fill="#9998BA"/>
<path d="M28.5113 9.81653H27.1758V10.4651H28.5113V9.81653Z" stroke="white" stroke-width="0.0920681" stroke-miterlimit="3.864"/>
<path d="M26.3355 9.81653H25V10.4651H26.3355V9.81653Z" fill="#9998BA"/>
<path d="M26.3355 9.81653H25V10.4651H26.3355V9.81653Z" stroke="white" stroke-width="0.0920681" stroke-miterlimit="3.864"/>
<path d="M25.2617 18.1509H33.73V17.6281H25.2617V18.1509Z" fill="url(#paint14_linear_34639_2434)"/>
<path d="M25.2676 18.1538H33.7358V17.631H25.2676V18.1538Z" stroke="white" stroke-width="0.0920681" stroke-miterlimit="3.864"/>
<path d="M32.0742 18.2119H32.4716V17.5645H32.0742V18.2119Z" fill="#9998BA"/>
<path d="M32.473 17.5656H32.0762V18.2136H32.473V17.5656Z" stroke="white" stroke-width="0.0920681" stroke-miterlimit="3.864"/>
<path d="M30.0527 18.2119H30.4501V17.5645H30.0527V18.2119Z" fill="#9998BA"/>
<path d="M30.4535 17.5656H30.0566V18.2136H30.4535V17.5656Z" stroke="white" stroke-width="0.0920681" stroke-miterlimit="3.864"/>
<path d="M28.0312 18.2119H28.4281V17.5645H28.0312V18.2119Z" fill="#9998BA"/>
<path d="M28.432 17.5656H28.0352V18.2136H28.432V17.5656Z" stroke="white" stroke-width="0.0920681" stroke-miterlimit="3.864"/>
<path d="M25.9746 18.2119H26.372V17.5645H25.9746V18.2119Z" fill="#9998BA"/>
<path d="M26.3695 17.5656H25.9727V18.2136H26.3695V17.5656Z" stroke="white" stroke-width="0.0920681" stroke-miterlimit="3.864"/>
<path d="M24.8555 10.9376V11.4604H33.5538V11.2107L33.8062 10.9376H24.8555Z" fill="url(#paint15_linear_34639_2434)"/>
<path d="M15.5273 9.23742V10.435L16.3941 11.7793H23.5399L24.4056 10.435V9.23742H15.5273Z" fill="url(#paint16_linear_34639_2434)"/>
<path d="M16.8965 11.9825H17.9077V13.803H16.8965V11.9825Z" fill="#B8B6D0"/>
<path d="M16.8965 11.9825H17.9077V13.803H16.8965V11.9825Z" stroke="white" stroke-width="0.0920681" stroke-miterlimit="3.864"/>
<path d="M17.0684 12.1803H17.7176V13.4768H17.0684V12.1803Z" fill="#656894"/>
<path d="M17.0684 12.1803H17.7176V13.4768H17.0684V12.1803Z" stroke="white" stroke-width="0.0920681" stroke-miterlimit="3.864"/>
<path d="M22.168 11.9825H23.178V13.803H22.168V11.9825Z" fill="#B8B6D0"/>
<path d="M22.168 11.9825H23.178V13.803H22.168V11.9825Z" stroke="white" stroke-width="0.0920681" stroke-miterlimit="3.864"/>
<path d="M22.3379 12.1803H22.9871V13.4768H22.3379V12.1803Z" fill="#656894"/>
<path d="M22.3379 12.1803H22.9871V13.4768H22.3379V12.1803Z" stroke="white" stroke-width="0.0920681" stroke-miterlimit="3.864"/>
<path d="M19.5352 11.9825H20.5452V13.803H19.5352V11.9825Z" fill="#B8B6D0"/>
<path d="M19.5352 11.9825H20.5452V13.803H19.5352V11.9825Z" stroke="white" stroke-width="0.0920681" stroke-miterlimit="3.864"/>
<path d="M19.707 12.1803H20.3562V13.4768H19.707V12.1803Z" fill="#656894"/>
<path d="M19.707 12.1803H20.3562V13.4768H19.707V12.1803Z" stroke="white" stroke-width="0.0920681" stroke-miterlimit="3.864"/>
<path d="M25.0184 9.58667H14.8047V8.31514H25.0184V9.58667Z" fill="url(#paint17_linear_34639_2434)"/>
<path d="M14.8047 8.56226H14.9486V8.41497H14.8047V8.56226Z" fill="url(#paint18_linear_34639_2434)"/>
<path d="M15.2832 8.56201H15.4271V8.41472H15.2832V8.56201Z" fill="url(#paint19_linear_34639_2434)"/>
<path d="M15.7617 8.56787H15.9056V8.41941H15.7617V8.56787Z" fill="url(#paint20_linear_34639_2434)"/>
<path d="M16.2441 8.56226H16.388V8.41497H16.2441V8.56226Z" fill="url(#paint21_linear_34639_2434)"/>
<path d="M16.7168 8.56226H16.8607V8.41497H16.7168V8.56226Z" fill="url(#paint22_linear_34639_2434)"/>
<path d="M17.1973 8.56226H17.3406V8.41497H17.1973V8.56226Z" fill="url(#paint23_linear_34639_2434)"/>
<path d="M17.6758 8.56787H17.8202V8.41941H17.6758V8.56787Z" fill="url(#paint24_linear_34639_2434)"/>
<path d="M18.1543 8.56201H18.2993V8.41531H18.1543V8.56201Z" fill="url(#paint25_linear_34639_2434)"/>
<path d="M18.6348 8.56201H18.7786V8.41472H18.6348V8.56201Z" fill="url(#paint26_linear_34639_2434)"/>
<path d="M19.1133 8.56201H19.2572V8.41472H19.1133V8.56201Z" fill="url(#paint27_linear_34639_2434)"/>
<path d="M19.5898 8.56787H19.7337V8.41941H19.5898V8.56787Z" fill="url(#paint28_linear_34639_2434)"/>
<path d="M20.0684 8.56787H20.2117V8.41941H20.0684V8.56787Z" fill="url(#paint29_linear_34639_2434)"/>
<path d="M20.5488 8.56226H20.6927V8.41497H20.5488V8.56226Z" fill="url(#paint30_linear_34639_2434)"/>
<path d="M21.0273 8.56226H21.1707V8.41497H21.0273V8.56226Z" fill="url(#paint31_linear_34639_2434)"/>
<path d="M21.5098 8.56201H21.6536V8.41531H21.5098V8.56201Z" fill="url(#paint32_linear_34639_2434)"/>
<path d="M21.9883 8.56787H22.1322V8.41941H21.9883V8.56787Z" fill="url(#paint33_linear_34639_2434)"/>
<path d="M22.4629 8.56226H22.6062V8.41497H22.4629V8.56226Z" fill="url(#paint34_linear_34639_2434)"/>
<path d="M22.9414 8.56201H23.0853V8.41472H22.9414V8.56201Z" fill="url(#paint35_linear_34639_2434)"/>
<path d="M23.4199 8.56226H23.5632V8.41497H23.4199V8.56226Z" fill="url(#paint36_linear_34639_2434)"/>
<path d="M23.9004 8.56787H24.0448V8.41941H23.9004V8.56787Z" fill="url(#paint37_linear_34639_2434)"/>
<path d="M24.3789 8.56226H24.5234V8.41497H24.3789V8.56226Z" fill="url(#paint38_linear_34639_2434)"/>
<path d="M24.8555 8.56226H25.0005V8.41497H24.8555V8.56226Z" fill="url(#paint39_linear_34639_2434)"/>
<path d="M19.8947 5.89829L14.6074 8.09317V8.25562H25.1272V8.02564L19.8947 5.89829Z" fill="#CDCBDE"/>
<path d="M19.8945 3.95398C19.8945 3.95398 19.9665 4.20374 20.3993 4.20374C20.8681 4.20374 20.6522 4.15367 21.0491 4.27885L21.121 4.97632C21.121 4.97632 20.7961 4.80166 20.5437 4.80166C20.2914 4.80166 20.2188 4.97632 19.8945 4.85173V3.95398V3.95398Z" fill="white"/>
<path d="M14.9511 8.09329L19.8963 6.09868L24.8764 8.09329H14.9511ZM24.7314 7.71719V7.19671H23.4838L19.8963 5.69929L16.3294 7.19671H15.0955V7.71428L14.1934 8.09329H14.2076L14.5 8.41699H25.295L25.6233 8.09329H25.6341L24.7314 7.71719Z" fill="white"/>
<path d="M20.8306 15.7956H19.2422V17.4409H20.8306V15.7956ZM20.7747 17.3845H19.2964V15.8515H20.7747V17.3845Z" fill="white"/>
<path d="M19.5859 15.9938H20.4887V17.4155H19.5859V15.9938Z" fill="#656894"/>
<path d="M19.5859 15.9936H20.4887V17.4153H19.5859V15.9936Z" stroke="white" stroke-width="0.0920681" stroke-miterlimit="3.864"/>
<path d="M19.2461 15.5454C19.2461 15.5454 19.2821 14.7734 20.0398 14.7734C20.798 14.7734 20.8346 15.5454 20.8346 15.5454H19.2461Z" fill="white"/>
<path d="M19.2441 15.5454H20.8326V15.7952H19.2441V15.5454Z" fill="white"/>
<path d="M20.0372 14.1248L19.7129 14.4985H20.3621L20.0372 14.1248Z" fill="white"/>
<path d="M20.0372 14.1248L19.7129 14.4985H20.3621L20.0372 14.1248V14.1248Z" stroke="white" stroke-width="0.0920681" stroke-miterlimit="3.864"/>
<path d="M19.7129 15.3706L19.7409 14.5002L20.0372 14.5287L20.0109 15.3706H19.7129V15.3706Z" fill="#B8B6D0"/>
<path d="M20.0372 14.4974H19.7129V15.3958H20.0372V14.4974ZM19.9824 15.3404H19.7666V14.5533H19.9824V15.3404Z" fill="white"/>
<path d="M20.0371 15.3708L20.0651 14.5005L20.362 14.529L20.3357 15.3708H20.0371V15.3708Z" fill="#656894"/>
<path d="M20.362 14.4974H20.0371V15.3958H20.362V14.4974ZM20.3072 15.3404H20.0908V14.5533H20.3072V15.3404Z" fill="white"/>
<path d="M23.9199 16.8903H24.4972V17.4143H23.9199V16.8903Z" fill="white"/>
<path d="M23.4844 17.0416H23.9172V17.4404H23.4844V17.0416Z" fill="white"/>
<path d="M16.1026 16.9194H15.5254V17.4434H16.1026V16.9194Z" fill="white"/>
<path d="M16.5363 17.0416H16.1035V17.4404H16.5363V17.0416Z" fill="white"/>
<path d="M18.634 9.83991C18.8144 9.91501 18.9583 9.83991 18.9583 9.71474C18.9583 9.59073 18.8144 9.59073 18.8144 9.59073H17.8763C17.8763 9.59073 17.7324 9.59073 17.7324 9.71474C17.7324 9.83991 17.8763 9.91501 18.0567 9.83991H18.634Z" fill="white"/>
<path d="M18.634 9.83991C18.8144 9.91501 18.9583 9.83991 18.9583 9.71474C18.9583 9.59073 18.8144 9.59073 18.8144 9.59073H17.8763C17.8763 9.59073 17.7324 9.59073 17.7324 9.71474C17.7324 9.83991 17.8763 9.91501 18.0567 9.83991H18.634V9.83991Z" stroke="white" stroke-width="0.0920681" stroke-miterlimit="3.864"/>
<path d="M18.6324 9.83986H18.0552L17.9473 16.7214H18.7044L18.6324 9.83986Z" fill="white"/>
<path d="M17.873 16.7215H18.7758V17.4446H17.873V16.7215Z" fill="white"/>
<path d="M17.873 16.7156H18.7758V17.4387H17.873V16.7156Z" stroke="white" stroke-width="0.0920681" stroke-miterlimit="3.864"/>
<path d="M21.297 9.83991C21.1165 9.91501 20.9727 9.83991 20.9727 9.71474C20.9727 9.59073 21.1165 9.59073 21.1165 9.59073H22.0547C22.0547 9.59073 22.1986 9.59073 22.1986 9.71474C22.1986 9.83991 22.0547 9.91501 21.8754 9.83991H21.297Z" fill="white"/>
<path d="M21.297 9.83991C21.1165 9.91501 20.9727 9.83991 20.9727 9.71474C20.9727 9.59073 21.1165 9.59073 21.1165 9.59073H22.0547C22.0547 9.59073 22.1986 9.59073 22.1986 9.71474C22.1986 9.83991 22.0547 9.91501 21.8754 9.83991H21.297Z" stroke="white" stroke-width="0.0920681" stroke-miterlimit="3.864"/>
<path d="M21.3005 9.83986H21.8789L21.9856 16.7214H21.2285L21.3005 9.83986Z" fill="white"/>
<path d="M21.1562 16.7215H22.059V17.4446H21.1562V16.7215Z" fill="white"/>
<path d="M21.1562 16.7156H22.059V17.4387H21.1562V16.7156Z" stroke="white" stroke-width="0.0920681" stroke-miterlimit="3.864"/>
<path d="M24.405 9.83991C24.2245 9.91501 24.0801 9.83991 24.0801 9.71474C24.0801 9.59073 24.2245 9.59073 24.2245 9.59073H25.1627C25.1627 9.59073 25.3066 9.59073 25.3066 9.71474C25.3066 9.83991 25.1627 9.91501 24.9822 9.83991H24.405Z" fill="white"/>
<path d="M24.405 9.83991C24.2245 9.91501 24.0801 9.83991 24.0801 9.71474C24.0801 9.59073 24.2245 9.59073 24.2245 9.59073H25.1627C25.1627 9.59073 25.3066 9.59073 25.3066 9.71474C25.3066 9.83991 25.1627 9.91501 24.9822 9.83991H24.405V9.83991Z" stroke="white" stroke-width="0.0920681" stroke-miterlimit="3.864"/>
<path d="M24.4043 9.83986H25.0312L25.3059 16.7214H24.4825L24.4043 9.83986V9.83986Z" fill="white"/>
<path d="M24.4062 16.7215H25.3078V17.4446H24.4062V16.7215Z" fill="white"/>
<path d="M24.4043 16.7156H25.3059V17.4387H24.4043V16.7156Z" stroke="white" stroke-width="0.0920681" stroke-miterlimit="3.864"/>
<path d="M15.5277 9.83991C15.7082 9.91501 15.8526 9.83991 15.8526 9.71474C15.8526 9.59073 15.7082 9.59073 15.7082 9.59073H14.77C14.77 9.59073 14.625 9.59073 14.625 9.71474C14.625 9.83991 14.77 9.91501 14.9493 9.83991H15.5277Z" fill="white"/>
<path d="M15.5269 9.83986H14.9485L14.6973 16.7214H15.455L15.5269 9.83986Z" fill="white"/>
<path d="M14.625 16.7215H15.5277V17.4446H14.625V16.7215Z" fill="white"/>
<path d="M14.625 16.7156H15.5277V17.4387H14.625V16.7156Z" stroke="white" stroke-width="0.0920681" stroke-miterlimit="3.864"/>
<path d="M25.4186 18.2905H14.3027V17.4178H25.4186V18.2905Z" fill="url(#paint40_linear_34639_2434)"/>
<path d="M25.4167 18.2876H14.3008V17.4149H25.4167V18.2876Z" stroke="white" stroke-width="0.0920681" stroke-miterlimit="3.864"/>
<path d="M16.6797 14.7011H18.0866V17.1685H16.6797V14.7011Z" stroke="white" stroke-width="0.0920681" stroke-miterlimit="3.864"/>
<path d="M17.0059 15.0213H17.7635V16.8418H17.0059V15.0213Z" fill="#656894"/>
<path d="M18.2335 14.7012H16.5371C16.5371 14.7012 16.7895 14.1772 17.3667 14.1772C17.9092 14.1772 18.2335 14.7012 18.2335 14.7012Z" stroke="white" stroke-width="0.0920681" stroke-miterlimit="3.864" stroke-linecap="round" stroke-linejoin="round"/>
<path d="M21.9844 14.7011H23.3924V17.1685H21.9844V14.7011Z" stroke="white" stroke-width="0.0920681" stroke-miterlimit="3.864"/>
<path d="M22.3105 15.0213H23.0683V16.8418H22.3105V15.0213Z" fill="#656894"/>
<path d="M23.0675 15.4697H22.3098H23.0675ZM23.0675 15.9186H22.3098H23.0675ZM23.0675 16.3675H22.3098H23.0675ZM22.8147 15.0213V16.8418V15.0213ZM22.5623 15.0213V16.8418V15.0213ZM22.3092 15.0215H23.0669V16.842H22.3092V15.0215ZM17.7634 15.4697H17.0058H17.7634ZM17.7634 15.9186H17.0058H17.7634ZM17.7634 16.3675H17.0058H17.7634ZM17.5106 15.0213V16.8418V15.0213ZM17.2577 15.0213V16.8418V15.0213ZM17.0056 15.0215H17.7633V16.842H17.0056V15.0215ZM24.0778 16.9859L24.1486 10.8286H24.465L24.0778 16.9859ZM23.8497 17.0773L23.8252 11.3316H24.1329L23.8497 17.0773ZM23.5366 11.7793L23.5726 17.0773L23.5366 11.7793ZM15.91 16.9155L15.7713 10.828H15.4618L15.91 16.9155ZM16.2075 17.0401L16.1019 11.331H15.813L16.2075 17.0401ZM16.3905 11.779L16.463 17.077L16.3905 11.779ZM16.3538 10.1838C16.3538 10.1838 17.1846 12.926 20.0355 14.1469L16.3538 10.1838ZM23.5727 10.1838C23.5727 10.1838 22.8864 12.926 20.0355 14.1469L23.5727 10.1838ZM20.0353 14.147V10.184V14.147ZM20.0353 15.9926V17.4143V15.9926ZM19.5843 16.7033H20.4865H19.5843ZM19.8914 3.95088C19.8914 3.95088 19.9633 4.20063 20.3961 4.20063C20.8649 4.20063 20.6491 4.15056 21.0459 4.27574L21.1179 4.97321C21.1179 4.97321 20.793 4.79856 20.5406 4.79856C20.2882 4.79856 20.2157 4.97321 19.8914 4.84862V3.95088V3.95088ZM19.8914 5.69602V3.82658V5.69602ZM20.0445 12.1782V13.4748V12.1782ZM19.7196 12.5019H20.3334H19.7196ZM19.7196 12.8262H20.3334H19.7196ZM19.7196 13.1499H20.3334H19.7196ZM22.6784 12.1782V13.4748V12.1782ZM22.3535 12.5019H22.9673H22.3535ZM22.3535 12.8262H22.9673H22.3535ZM22.3535 13.1499H22.9673H22.3535ZM17.4118 12.1782V13.4748V12.1782ZM17.0858 12.5019H17.7001H17.0858ZM17.0858 12.8262H17.7001H17.0858ZM17.0858 13.1499H17.7001H17.0858ZM25.1965 10.4644V9.81582V10.4644ZM25.377 10.4644V9.81582V10.4644ZM25.5568 10.4644V9.81582V10.4644ZM25.7732 10.4644V9.81582V10.4644ZM25.9537 10.4644V9.81582V10.4644ZM26.1347 10.4644V9.81582V10.4644ZM27.3694 10.4644V9.81582V10.4644ZM27.5498 10.4644V9.81582V10.4644ZM27.7297 10.4644V9.81582V10.4644ZM27.9467 10.4644V9.81582V10.4644ZM28.1271 10.4644V9.81582V10.4644ZM28.307 10.4644V9.81582V10.4644ZM29.542 10.4644V9.81582V10.4644ZM29.7235 10.4644V9.81582V10.4644ZM29.904 10.4644V9.81582V10.4644ZM30.1204 10.4644V9.81582V10.4644ZM30.2996 10.4644V9.81582V10.4644ZM30.4812 10.4644V9.81582V10.4644ZM31.7156 10.4644V9.81582V10.4644ZM31.8961 10.4644V9.81582V10.4644ZM32.0765 10.4644V9.81582V10.4644ZM32.2929 10.4644V9.81582V10.4644ZM32.4733 10.4644V9.81582V10.4644ZM32.6537 10.4644V9.81582V10.4644ZM32.695 15.3445H31.9373H32.695ZM32.695 15.7934H31.9373H32.695ZM32.695 16.2411H31.9373H32.695ZM32.443 14.8952V16.7163V14.8952ZM32.19 14.8952V16.7163V14.8952ZM31.9375 14.8949H32.6951V16.716H31.9375V14.8949ZM28.5091 15.3445H27.7514H28.5091ZM28.5091 15.7934H27.7514H28.5091ZM28.5091 16.2411H27.7514H28.5091ZM28.2563 14.8952V16.7163V14.8952ZM28.0033 14.8952V16.7163V14.8952ZM27.7511 14.8949H28.5088V16.716H27.7511V14.8949ZM30.6381 15.3445H29.8804H30.6381ZM30.6381 15.7934H29.8804H30.6381ZM30.6381 16.2411H29.8804H30.6381ZM30.3857 14.8952V16.7163V14.8952ZM30.1328 14.8952V16.7163V14.8952ZM29.8802 14.8949H30.6379V16.716H29.8802V14.8949ZM26.3928 15.3445H25.6351H26.3928ZM26.3928 15.7934H25.6351H26.3928ZM26.3928 16.2411H25.6351H26.3928ZM26.1408 14.8952V16.7163V14.8952ZM25.8878 14.8952V16.7163V14.8952ZM25.6351 14.8949H26.3928V16.716H25.6351V14.8949ZM32.3733 12.1034V13.4V12.1034ZM32.6616 12.4271H32.0484H32.6616ZM32.6616 12.752H32.0484H32.6616ZM32.6616 13.0751H32.0484H32.6616ZM32.0388 12.1036H32.6891V13.4002H32.0388V12.1036ZM30.3156 12.1034V13.4V12.1034ZM30.6045 12.4271H29.9907H30.6045ZM30.6045 12.752H29.9907H30.6045ZM30.6045 13.0751H29.9907H30.6045ZM29.9815 12.1036H30.6308V13.4002H29.9815V12.1036ZM28.1315 12.1034V13.4V12.1034ZM28.4199 12.4271H27.8066H28.4199ZM28.4199 12.752H27.8066H28.4199ZM28.4199 13.0751H27.8066H28.4199ZM27.7977 12.1036H28.4469V13.4002H27.7977V12.1036ZM26.028 12.1034V13.4V12.1034ZM26.3163 12.4271H25.7031H26.3163ZM26.3163 12.752H25.7031H26.3163ZM26.3163 13.0751H25.7031H26.3163ZM25.6939 12.1036H26.3431V13.4002H25.6939V12.1036ZM14.3331 15.3445H13.5754H14.3331ZM14.3331 15.7934H13.5754H14.3331ZM14.3331 16.2411H13.5754H14.3331ZM14.0807 14.8952V16.7163V14.8952ZM13.8277 14.8952V16.7163V14.8952ZM13.5751 14.8949H14.3328V16.716H13.5751V14.8949ZM10.1468 15.3445H9.38908H10.1468ZM10.1468 15.7934H9.38908H10.1468ZM10.1468 16.2411H9.38908H10.1468ZM9.89393 14.8952V16.7163V14.8952ZM9.64099 14.8952V16.7163V14.8952ZM9.38873 14.8949H10.1464V16.716H9.38873V14.8949ZM12.2762 15.3445H11.5185H12.2762ZM12.2762 15.7934H11.5185H12.2762ZM12.2762 16.2411H11.5185H12.2762ZM12.023 14.8952V16.7163V14.8952ZM11.7706 14.8952V16.7163V14.8952ZM11.5178 14.8949H12.2755V16.716H11.5178V14.8949ZM8.03049 15.3445H7.2728H8.03049ZM8.03049 15.7934H7.2728H8.03049ZM8.03049 16.2411H7.2728H8.03049ZM7.77845 14.8952V16.7163V14.8952ZM7.52551 14.8952V16.7163V14.8952ZM7.27273 14.8949H8.03042V16.716H7.27273V14.8949ZM14.6041 9.81548V10.464V9.81548ZM14.4237 9.81548V10.464V9.81548ZM14.2433 9.81548V10.464V9.81548ZM14.0257 9.81548V10.464V9.81548ZM13.8464 9.81548V10.464V9.81548ZM13.666 9.81548V10.464V9.81548ZM12.4309 9.81548V10.464V9.81548ZM12.2504 9.81548V10.464V9.81548ZM12.0706 9.81548V10.464V9.81548ZM11.8536 9.81548V10.464V9.81548ZM11.6732 9.81548V10.464V9.81548ZM11.4927 9.81548V10.464V9.81548ZM10.2575 9.81548V10.464V9.81548ZM10.0771 9.81548V10.464V9.81548ZM9.89669 9.81548V10.464V9.81548ZM9.68029 9.81548V10.464V9.81548ZM9.49985 9.81548V10.464V9.81548ZM9.31942 9.81548V10.464V9.81548ZM8.08461 9.81548V10.464V9.81548ZM7.90418 9.81548V10.464V9.81548ZM7.72376 9.81548V10.464V9.81548ZM7.50736 9.81548V10.464V9.81548ZM7.32692 9.81548V10.464V9.81548ZM7.14648 9.81548V10.464V9.81548ZM14.0108 12.1034V13.4V12.1034ZM14.2998 12.4271H13.6859H14.2998ZM14.2998 12.752H13.6859H14.2998ZM14.2998 13.0751H13.6859H14.2998ZM13.6767 12.1036H14.3259V13.4002H13.6767V12.1036ZM11.9535 12.1034V13.4V12.1034ZM12.2424 12.4271H11.6292H12.2424ZM12.2424 12.752H11.6292H12.2424ZM12.2424 13.0751H11.6292H12.2424ZM11.6202 12.1036H12.2694V13.4002H11.6202V12.1036ZM9.76867 12.1034V13.4V12.1034ZM10.0576 12.4271H9.44549H10.0576ZM10.0576 12.752H9.44549H10.0576ZM10.0576 13.0751H9.44549H10.0576ZM9.43562 12.1036H10.086V13.4002H9.43562V12.1036ZM7.66557 12.1034V13.4V12.1034ZM7.95448 12.4271H7.34124H7.95448ZM7.95448 12.752H7.34124H7.95448ZM7.95448 13.0751H7.34124H7.95448ZM7.33183 12.1036H7.98219V13.4002H7.33183V12.1036Z" stroke="white" stroke-width="0.0997404" stroke-miterlimit="3.864"/>
<path d="M23.5382 14.7012H21.8418C21.8418 14.7012 22.0942 14.1772 22.6714 14.1772C23.2133 14.1772 23.5382 14.7012 23.5382 14.7012" stroke="white" stroke-width="0.0920681" stroke-miterlimit="3.864" stroke-linecap="round" stroke-linejoin="round"/>
<path d="M16.1892 22.7239H15.9317L16.0659 22.3565L16.1892 22.7239ZM16.6677 23.1786C16.5478 23.1646 16.5056 23.1075 16.4764 23.026L16.1493 22.1021C16.1458 22.0904 16.1321 22.08 16.1167 22.08C16.1013 22.08 16.0887 22.0875 16.0836 22.1009L15.7153 23.0243C15.6765 23.1145 15.6479 23.1704 15.54 23.1791C15.5292 23.1821 15.5138 23.1937 15.5138 23.21C15.5132 23.2217 15.5155 23.2327 15.5212 23.2385C15.5252 23.2443 15.5303 23.2461 15.5366 23.2461H15.9146C15.9277 23.2461 15.9374 23.2304 15.9374 23.2129C15.9374 23.182 15.9232 23.1786 15.918 23.1786C15.8152 23.1733 15.8004 23.1419 15.8004 23.1134C15.8004 23.0912 15.8101 23.0627 15.8175 23.0394L15.9049 22.7972H16.2138L16.3028 23.058C16.3103 23.0819 16.3166 23.1052 16.3166 23.1227C16.3166 23.1477 16.3074 23.1733 16.1949 23.1786C16.1898 23.1786 16.1755 23.182 16.1755 23.2129C16.1755 23.2304 16.1852 23.2461 16.1984 23.2461H16.6689C16.6826 23.2461 16.6934 23.2304 16.6934 23.2129C16.6934 23.1954 16.6814 23.1821 16.6677 23.1786Z" fill="white"/>
<path d="M17.2044 22.5784C17.0868 22.5091 16.9755 22.4416 16.9755 22.3403C16.9755 22.2267 17.0463 22.1563 17.157 22.1563C17.2764 22.1563 17.3392 22.2186 17.3729 22.3734C17.374 22.3833 17.3814 22.3944 17.4071 22.3944C17.4185 22.3944 17.4288 22.3909 17.4345 22.3833C17.4379 22.3793 17.4385 22.3735 17.438 22.3694C17.426 22.2786 17.4191 22.2104 17.4128 22.1202V22.1114H17.4031C17.3546 22.1114 17.3226 22.1039 17.2895 22.0969C17.2524 22.0893 17.2158 22.0812 17.1587 22.0812C16.9343 22.0812 16.8122 22.2488 16.8122 22.4049C16.8122 22.5749 16.956 22.6593 17.0948 22.7414C17.2153 22.8124 17.3295 22.88 17.3295 22.9964C17.3295 23.1274 17.2627 23.1996 17.1399 23.1996C16.9857 23.1996 16.9121 23.1297 16.8567 22.9347C16.8493 22.9137 16.831 22.9137 16.8247 22.9137C16.8053 22.9137 16.791 22.9248 16.791 22.9399C16.7996 23.0214 16.8064 23.1315 16.8093 23.2112L16.811 23.2223H16.8207C16.8761 23.2223 16.9183 23.2339 16.9635 23.2456C17.0114 23.259 17.0634 23.2729 17.1342 23.2729C17.3506 23.2729 17.4905 23.1321 17.4905 22.9131C17.4905 22.7501 17.3392 22.6593 17.2044 22.5784Z" fill="white"/>
<path d="M18.8732 22.1763C18.8869 22.1763 18.8967 22.1612 18.8967 22.142C18.8967 22.1257 18.8869 22.1088 18.8732 22.1088H18.3988C18.3856 22.1088 18.3759 22.1228 18.3759 22.142C18.3759 22.1624 18.385 22.1763 18.3982 22.1763C18.5375 22.1938 18.5375 22.2194 18.5375 22.2968V22.6374H17.9568V22.2968C17.9568 22.2194 17.9568 22.1938 18.0967 22.1763C18.1104 22.1763 18.1201 22.1624 18.1201 22.142C18.1201 22.1228 18.1098 22.1088 18.0967 22.1088H17.6222C17.6079 22.1088 17.5977 22.1257 17.5977 22.142C17.5977 22.1612 17.6091 22.1763 17.6205 22.1763C17.7672 22.1938 17.7747 22.2223 17.7747 22.3015V23.059C17.7747 23.1346 17.769 23.1655 17.6188 23.183C17.6074 23.1859 17.5977 23.1998 17.5977 23.2161C17.5977 23.2348 17.6091 23.2505 17.6222 23.2505H18.0967C18.1081 23.2505 18.1201 23.24 18.1201 23.2161C18.1201 23.1975 18.1121 23.1859 18.0973 23.1824C17.9568 23.1655 17.9568 23.1405 17.9568 23.0642V22.7108H18.5375V23.0642C18.5375 23.1405 18.5375 23.1655 18.397 23.1824C18.3839 23.1859 18.3759 23.1975 18.3759 23.2161C18.3759 23.24 18.3873 23.2505 18.3988 23.2505H18.8732C18.8869 23.2505 18.8967 23.2348 18.8967 23.2161C18.8967 23.1998 18.8886 23.1859 18.8749 23.1824C18.7265 23.1655 18.7208 23.1346 18.7208 23.059V22.3015C18.7208 22.2223 18.7276 22.1938 18.8732 22.1763Z" fill="white"/>
<path d="M19.5573 22.1763C19.571 22.1763 19.5802 22.1624 19.5802 22.142C19.5802 22.1228 19.5705 22.1088 19.5573 22.1088H19.0697C19.056 22.1088 19.0469 22.1257 19.0469 22.142C19.0469 22.1612 19.0566 22.1763 19.068 22.1763C19.2159 22.1938 19.2233 22.2223 19.2233 22.3015V23.059C19.2233 23.1346 19.217 23.1655 19.0663 23.183C19.0543 23.1859 19.0469 23.1998 19.0469 23.2161C19.0469 23.2348 19.0566 23.2505 19.0697 23.2505H19.5573C19.5688 23.2505 19.5802 23.24 19.5802 23.2161C19.5802 23.1975 19.5728 23.1859 19.5573 23.1824C19.4055 23.1655 19.4054 23.1288 19.4054 23.059V22.3015C19.4054 22.2299 19.4055 22.1955 19.5573 22.1763Z" fill="white"/>
<path d="M21.06 22.1416C21.06 22.1165 21.0486 22.1072 21.036 22.1072H20.6146C20.6009 22.1072 20.5912 22.1224 20.5912 22.1416C20.5912 22.159 20.5987 22.1719 20.6135 22.1759C20.766 22.1934 20.7831 22.2272 20.7831 22.2982V22.9543L20.0425 22.109L20.0391 22.1061H19.7565C19.7428 22.1061 19.7331 22.12 19.7331 22.1398C19.7331 22.159 19.7428 22.173 19.7542 22.173C19.9061 22.1934 19.9209 22.2248 19.9198 22.2982L19.8912 23.055C19.8895 23.1267 19.8821 23.1628 19.7279 23.1802C19.7142 23.1825 19.7051 23.1965 19.7051 23.2134C19.7051 23.2355 19.7165 23.2472 19.7291 23.2472H20.1504C20.1641 23.2472 20.175 23.2315 20.175 23.2134C20.175 23.1942 20.1676 23.1825 20.1516 23.1802C20.0009 23.1628 19.9854 23.1267 19.9883 23.0556L19.9991 22.3395L20.7939 23.2559L20.7979 23.2588C20.8042 23.2652 20.8133 23.2722 20.8265 23.2722C20.8453 23.2722 20.8567 23.2617 20.8567 23.2449L20.8739 22.2982C20.8756 22.2272 20.883 22.1934 21.0395 22.1742C21.0486 22.1719 21.06 22.1596 21.06 22.1416Z" fill="white"/>
<path d="M22.2477 22.7121H21.6818C21.6687 22.7121 21.6578 22.7278 21.6578 22.7465C21.6578 22.7628 21.667 22.782 21.6807 22.782C21.8468 22.7971 21.9136 22.807 21.9136 22.8687V23.0801C21.9136 23.1616 21.8285 23.2035 21.6595 23.2035C21.4294 23.2035 21.2421 22.9718 21.2421 22.6865C21.2421 22.3907 21.4294 22.1602 21.6675 22.1602C21.8628 22.1602 21.9804 22.2452 22.0272 22.4204C22.029 22.4315 22.0352 22.4431 22.0564 22.4431C22.0775 22.4431 22.0935 22.4321 22.0923 22.4175C22.0764 22.311 22.0632 22.219 22.0564 22.1445L22.0558 22.1352H22.0461C21.9913 22.1352 21.9405 22.1235 21.8856 22.1119C21.8263 22.0991 21.7652 22.0851 21.6932 22.0851C21.2684 22.0851 21.0469 22.389 21.0469 22.6865C21.0469 22.9805 21.2364 23.2769 21.6595 23.2769C21.8023 23.2769 21.9861 23.2274 22.1049 23.179L22.1146 23.175L22.1112 23.1645C22.0992 23.1307 22.0952 23.0911 22.0952 22.9992V22.9037C22.0952 22.828 22.0998 22.7971 22.2499 22.7797C22.2614 22.7773 22.2705 22.7628 22.2705 22.7465C22.2705 22.7278 22.2614 22.7121 22.2477 22.7121Z" fill="white"/>
<path d="M23.3996 22.3628C23.3802 22.2626 23.3677 22.2027 23.3574 22.1049L23.3562 22.0956H22.3462L22.3445 22.102C22.3193 22.2004 22.2976 22.276 22.2611 22.3762C22.2588 22.382 22.2594 22.3896 22.2634 22.3954C22.2702 22.4035 22.2822 22.4076 22.2976 22.4076C22.3119 22.4076 22.3211 22.4018 22.3256 22.3896C22.365 22.2597 22.5118 22.1899 22.6351 22.1899H22.6962C22.7436 22.1899 22.7539 22.2004 22.7539 22.2405V23.0521C22.7539 23.1278 22.7482 23.1598 22.5986 23.1761C22.5854 23.179 22.5774 23.193 22.5774 23.2099C22.5774 23.2297 22.5877 23.2437 22.6003 23.2437H23.0879C23.1022 23.2437 23.1113 23.2297 23.1113 23.2099C23.1113 23.1913 23.1039 23.179 23.089 23.1761C22.9406 23.1598 22.9349 23.1278 22.9349 23.0521V22.2405C22.9349 22.2004 22.9457 22.1899 22.992 22.1899H23.0656C23.2232 22.1899 23.2951 22.2429 23.3385 22.3878C23.3425 22.4012 23.3523 22.4076 23.3642 22.4076C23.3819 22.4076 23.3939 22.4047 23.3996 22.396C23.4036 22.3902 23.4048 22.382 23.4019 22.3785L23.3996 22.3628Z" fill="white"/>
<path d="M24.0804 23.2011C23.8434 23.2011 23.6835 22.9926 23.6835 22.6841C23.6835 22.4215 23.8057 22.1578 24.0804 22.1578C24.3173 22.1578 24.4772 22.3691 24.4772 22.6841C24.4772 22.9926 24.3173 23.2011 24.0804 23.2011ZM24.0804 22.0827C23.7384 22.0827 23.4883 22.3359 23.4883 22.6841C23.4883 23.0322 23.7327 23.2744 24.0804 23.2744C24.4281 23.2744 24.6725 23.0322 24.6725 22.6841C24.6725 22.3307 24.4281 22.0827 24.0804 22.0827Z" fill="white"/>
<path d="M25.9989 22.1065H25.5758C25.5639 22.1065 25.5536 22.1217 25.5536 22.1409C25.5536 22.1583 25.5604 22.17 25.5753 22.1746C25.7289 22.1915 25.7449 22.2264 25.7449 22.2975V22.9524L25.0049 22.1071L25.002 22.1048H24.7194C24.7051 22.1048 24.6954 22.1187 24.6954 22.138C24.6954 22.1583 24.7045 22.1723 24.7159 22.1723C24.8684 22.1915 24.8827 22.2229 24.8815 22.2975L24.8541 23.0543C24.8524 23.1248 24.8444 23.1614 24.6897 23.1783C24.676 23.1818 24.668 23.1946 24.668 23.2121C24.668 23.2342 24.6794 23.2459 24.6908 23.2459H25.1139C25.1265 23.2459 25.1368 23.2302 25.1368 23.2121C25.1368 23.1935 25.1282 23.1818 25.1145 23.1783C24.9632 23.1614 24.9478 23.1248 24.9512 23.0543L24.962 22.3388L25.7563 23.2546L25.7603 23.2581C25.7671 23.2639 25.7763 23.2715 25.79 23.2715C25.8077 23.2715 25.8185 23.2604 25.8185 23.2441L25.8362 22.2975C25.8379 22.2264 25.8453 22.1915 26.0012 22.1723C26.0144 22.17 26.0223 22.1554 26.0223 22.1409C26.0223 22.1158 26.0098 22.1065 25.9989 22.1065Z" fill="white"/>
<path d="M15.7556 22.1067H15.4484C15.433 22.1067 15.4233 22.1242 15.4233 22.1411C15.4233 22.1719 15.4387 22.1742 15.4427 22.1742C15.4866 22.1766 15.5066 22.1894 15.5066 22.2459C15.5066 22.2674 15.5009 22.2901 15.4912 22.314L15.1989 23.0109L15.0059 22.6121L15.1543 22.3309C15.2108 22.2284 15.2297 22.1847 15.3279 22.1742C15.345 22.1742 15.3553 22.155 15.3553 22.1376C15.3553 22.1149 15.3456 22.1067 15.3348 22.1067H15.0213C15.0076 22.1067 14.9962 22.1248 14.9962 22.1411C14.9962 22.1719 15.0121 22.1742 15.0167 22.1742C15.1012 22.1742 15.0938 22.2226 15.0881 22.2418C15.0852 22.2505 15.0761 22.2843 15.0613 22.3134L14.9579 22.5108L14.8523 22.2948C14.8386 22.2639 14.83 22.2331 14.8294 22.2232C14.8289 22.2057 14.8231 22.1742 14.9048 22.1742C14.9236 22.1742 14.9237 22.1492 14.9237 22.1411C14.9237 22.1242 14.9145 22.1067 14.9002 22.1067H14.5331C14.5182 22.1067 14.5108 22.1242 14.5108 22.1411C14.5108 22.1591 14.5251 22.1742 14.5365 22.1742C14.6262 22.1836 14.6342 22.2202 14.6798 22.3157L14.8574 22.6947L14.6838 23.026L14.3664 22.2959C14.3589 22.2767 14.3555 22.2622 14.3555 22.2505C14.3555 22.1894 14.3915 22.1766 14.4218 22.1742C14.4406 22.1742 14.4406 22.1492 14.4406 22.1411C14.4406 22.1242 14.4309 22.1067 14.4172 22.1067H14.0078C13.9941 22.1067 13.9844 22.1207 13.9844 22.1411C13.9844 22.1574 13.9964 22.1742 14.0101 22.1742C14.1049 22.1847 14.146 22.2191 14.1939 22.3297L14.5902 23.2542C14.5942 23.2659 14.6067 23.2734 14.6222 23.2734C14.6399 23.2734 14.6479 23.2653 14.6536 23.2542L14.9037 22.7937L15.1201 23.2548C15.1275 23.2682 15.1372 23.2734 15.1515 23.2734C15.1635 23.2734 15.1772 23.2711 15.1829 23.2542L15.5854 22.3297C15.6242 22.2418 15.6551 22.1836 15.7476 22.1742C15.7653 22.1742 15.7767 22.155 15.7767 22.1376C15.7767 22.1178 15.7653 22.1067 15.7556 22.1067Z" fill="white"/>
<path d="M8.97189 19.7895L8.96675 19.7667C8.93592 19.6113 8.91708 19.5152 8.9011 19.365L8.89937 19.3481H7.32403L7.32119 19.3621C7.28236 19.5123 7.2481 19.6311 7.19043 19.7871C7.18815 19.797 7.18986 19.8087 7.19557 19.8168C7.20471 19.8296 7.22526 19.8378 7.24924 19.8378C7.27094 19.8378 7.28406 19.8285 7.29205 19.8087C7.35543 19.5944 7.58783 19.4978 7.77569 19.4978H7.87103C7.94355 19.4978 7.95896 19.5123 7.95896 19.5764V20.8438C7.95896 20.9608 7.95098 21.0092 7.71745 21.0359C7.70089 21.0412 7.6849 21.0586 7.6849 21.0877C7.6849 21.1174 7.70031 21.1401 7.72087 21.1401H8.48028C8.49798 21.1401 8.51795 21.1244 8.51795 21.0877C8.51795 21.0592 8.50483 21.0412 8.48256 21.0359C8.25132 21.0092 8.24161 20.9608 8.24161 20.8438V19.5764C8.24161 19.5123 8.25816 19.4978 8.33067 19.4978H8.44658C8.69153 19.4978 8.80345 19.5799 8.87254 19.8069C8.87653 19.825 8.89367 19.8378 8.91308 19.8378C8.93935 19.8378 8.95705 19.8314 8.96675 19.818C8.97361 19.8087 8.97532 19.7976 8.97189 19.7895Z" fill="white"/>
<path d="M11.034 21.0353C10.8027 21.008 10.7936 20.9597 10.7936 20.8432V19.6614C10.7936 19.5374 10.8056 19.4949 11.0334 19.4658C11.0528 19.4658 11.0688 19.4413 11.0688 19.4133C11.0688 19.3871 11.0534 19.3609 11.0334 19.3609H10.2923C10.2712 19.3609 10.2557 19.3825 10.2557 19.4133C10.2557 19.4442 10.2706 19.4658 10.29 19.4658C10.5087 19.4925 10.5087 19.5339 10.5087 19.6532V20.1853H9.60425V19.6532C9.60425 19.5339 9.60424 19.4925 9.82065 19.4658C9.84234 19.4658 9.8572 19.4442 9.8572 19.4133C9.8572 19.3825 9.84177 19.3609 9.82065 19.3609H9.07953C9.0584 19.3609 9.04297 19.3871 9.04297 19.4133C9.04297 19.4413 9.0601 19.4658 9.0778 19.4658C9.30677 19.4949 9.31875 19.5374 9.31875 19.6614V20.8432C9.31875 20.9597 9.3102 21.008 9.07667 21.0353C9.05668 21.0406 9.04297 21.061 9.04297 21.0872C9.04297 21.1168 9.06011 21.1401 9.07953 21.1401H9.82065C9.83835 21.1401 9.8572 21.1238 9.8572 21.0872C9.8572 21.0586 9.84463 21.0406 9.82293 21.0353C9.60424 21.0103 9.60425 20.9701 9.60425 20.849V20.3H10.5087V20.849C10.5087 20.9701 10.5087 21.0103 10.2883 21.0353C10.2677 21.0406 10.2557 21.0586 10.2557 21.0872C10.2557 21.1238 10.2746 21.1401 10.2923 21.1401H11.0334C11.0528 21.1401 11.0688 21.1168 11.0688 21.0872C11.0688 21.061 11.0551 21.0406 11.034 21.0353Z" fill="white"/>
<path d="M12.7404 20.6862C12.7295 20.6693 12.7067 20.6588 12.685 20.6588C12.6781 20.6588 12.6593 20.6588 12.6473 20.6786C12.5599 20.8678 12.3509 21.0093 12.1602 21.0093H11.8924C11.8102 21.0093 11.7668 20.9662 11.7668 20.8783V20.2798H12.0603C12.1717 20.2798 12.2425 20.2973 12.2716 20.5377C12.2716 20.5599 12.2944 20.5762 12.323 20.5762C12.3481 20.5762 12.3744 20.5599 12.3744 20.5377V19.9183C12.3744 19.8979 12.3532 19.881 12.323 19.881C12.2927 19.881 12.2716 19.8962 12.2716 19.916C12.243 20.1523 12.1762 20.164 12.0603 20.164H11.7668V19.6237C11.7668 19.5131 11.8353 19.4904 11.8924 19.4904H12.142C12.331 19.4904 12.456 19.5847 12.5131 19.7745C12.5182 19.7879 12.5354 19.8024 12.5565 19.8024C12.5805 19.8024 12.5993 19.796 12.6096 19.7826C12.6153 19.7733 12.6176 19.7628 12.6153 19.7512C12.5759 19.6202 12.5542 19.5137 12.5337 19.3745L12.5319 19.3606H11.2461C11.2255 19.3606 11.209 19.3815 11.209 19.4124C11.209 19.4432 11.2244 19.4653 11.2444 19.4653C11.4825 19.4945 11.4825 19.5468 11.4825 19.661V20.8416C11.4825 20.9517 11.4825 21.007 11.2432 21.0349C11.2221 21.039 11.209 21.0582 11.209 21.0862C11.209 21.1229 11.2278 21.1392 11.2461 21.1392H12.5793L12.5828 21.1275C12.6279 20.986 12.6736 20.8661 12.7444 20.7153C12.7483 20.706 12.7466 20.6955 12.7404 20.6862Z" fill="white"/>
<path d="M16.5481 19.3586H16.0697C16.0451 19.3586 16.0303 19.3854 16.0303 19.411C16.0303 19.4593 16.0548 19.4634 16.0617 19.4634C16.129 19.4669 16.1593 19.4896 16.1593 19.5769C16.1593 19.6084 16.1519 19.6445 16.1365 19.6817L15.6791 20.7675L15.3793 20.1458L15.6112 19.7073C15.6997 19.5496 15.7288 19.4791 15.8801 19.4634C15.9069 19.4634 15.9241 19.4326 15.9241 19.4052C15.9241 19.3738 15.9086 19.3586 15.8921 19.3586H15.4039C15.3822 19.3586 15.3645 19.3871 15.3645 19.411C15.3645 19.4593 15.389 19.4634 15.3959 19.4634C15.5289 19.4634 15.5175 19.5403 15.5078 19.5682C15.5027 19.5828 15.489 19.6357 15.4661 19.6812L15.3045 19.9897L15.1395 19.6509C15.1184 19.6049 15.1058 19.5542 15.1041 19.5409C15.1018 19.5129 15.0938 19.4634 15.2212 19.4634C15.2503 19.4634 15.2503 19.4244 15.2503 19.411C15.2503 19.3854 15.2366 19.3586 15.2143 19.3586H14.6411C14.6182 19.3586 14.6068 19.3854 14.6068 19.411C14.6068 19.4395 14.6291 19.4634 14.6462 19.4634C14.7872 19.4786 14.7998 19.5344 14.87 19.6852L15.147 20.2756L14.8774 20.7926L14.3824 19.6515C14.3698 19.6241 14.3641 19.6026 14.3641 19.5834C14.3641 19.4867 14.4212 19.4669 14.4686 19.4634C14.4972 19.4634 14.4972 19.4244 14.4972 19.411C14.4972 19.3854 14.4829 19.3586 14.4606 19.3586H13.8211C13.8 19.3586 13.7852 19.3796 13.7852 19.411C13.7852 19.4384 13.8051 19.4634 13.8263 19.4634H13.8268C13.9742 19.4791 14.0387 19.5344 14.1129 19.705L14.7301 21.1465C14.7376 21.1663 14.7564 21.178 14.7798 21.178C14.8084 21.178 14.8198 21.1628 14.83 21.1489L15.2183 20.4287L15.5569 21.1489C15.5683 21.1681 15.5843 21.178 15.6066 21.178C15.6254 21.178 15.6471 21.1739 15.6563 21.1465L16.2826 19.7068C16.3432 19.5682 16.3928 19.478 16.535 19.4634C16.5636 19.4634 16.5824 19.4326 16.5824 19.4052C16.5824 19.3761 16.5647 19.3586 16.5481 19.3586Z" fill="white"/>
<path d="M18.6668 21.0353C18.435 21.008 18.4258 20.9597 18.4258 20.8432V19.6614C18.4258 19.5374 18.4372 19.4949 18.6645 19.4658C18.6845 19.4658 18.7011 19.4413 18.7011 19.4133C18.7011 19.3871 18.6862 19.3609 18.6645 19.3609H17.9234C17.9034 19.3609 17.8874 19.3825 17.8874 19.4133C17.8874 19.4442 17.9022 19.4658 17.9222 19.4658H17.9228C18.1409 19.4925 18.1409 19.5339 18.1409 19.6532V20.1853H17.2359V19.6532C17.2359 19.5339 17.2359 19.4925 17.4523 19.4658C17.4746 19.4658 17.4888 19.4442 17.4888 19.4133C17.4888 19.3825 17.4734 19.3609 17.4523 19.3609H16.7123C16.6906 19.3609 16.6758 19.3871 16.6758 19.4133C16.6758 19.4413 16.6923 19.4658 16.71 19.4658C16.9396 19.4949 16.951 19.5374 16.951 19.6614V20.8432C16.951 20.9597 16.9418 21.008 16.7083 21.0353C16.6889 21.0406 16.6758 21.061 16.6758 21.0872C16.6758 21.1168 16.6923 21.1401 16.7123 21.1401H17.4523C17.4706 21.1401 17.4888 21.1238 17.4888 21.0872C17.4888 21.0586 17.4763 21.0406 17.454 21.0353C17.2359 21.0103 17.2359 20.9701 17.2359 20.849V20.3H18.1409V20.849C18.1409 20.9701 18.1409 21.0103 17.9211 21.0353C17.9 21.0406 17.8874 21.0586 17.8874 21.0872C17.8874 21.1238 17.9057 21.1401 17.9234 21.1401H18.6645C18.6845 21.1401 18.7011 21.1168 18.7011 21.0872C18.7011 21.061 18.6879 21.0406 18.6668 21.0353Z" fill="white"/>
<path d="M19.6386 21.0353C19.4 21.0068 19.4 20.9527 19.4 20.8432V19.6614C19.4 19.5478 19.4 19.4949 19.6369 19.4658C19.6592 19.4658 19.6729 19.4442 19.6729 19.4133C19.6729 19.3825 19.6581 19.3609 19.6369 19.3609H18.8775C18.8552 19.3609 18.8398 19.3871 18.8398 19.4133C18.8398 19.4413 18.8564 19.4658 18.8741 19.4658C19.1048 19.4949 19.1162 19.5374 19.1162 19.6614V20.8432C19.1162 20.9597 19.1059 21.008 18.8724 21.0353C18.8536 21.0406 18.8398 21.061 18.8398 21.0872C18.8398 21.1168 18.8564 21.1401 18.8775 21.1401H19.6369C19.6552 21.1401 19.6729 21.1238 19.6729 21.0872C19.6729 21.0586 19.6609 21.0406 19.6386 21.0353Z" fill="white"/>
<path d="M21.4524 19.7837L21.4484 19.7622C21.4164 19.6056 21.3976 19.5113 21.3816 19.3593L21.3799 19.3448H19.8051L19.8011 19.3564C19.7617 19.5089 19.7292 19.6254 19.6721 19.7837C19.6681 19.7919 19.6698 19.803 19.6761 19.8123C19.6852 19.8257 19.7058 19.8338 19.7292 19.8338C19.7514 19.8338 19.7651 19.8227 19.7726 19.8029C19.8348 19.5998 20.0615 19.495 20.2562 19.495H20.3515C20.4235 19.495 20.4395 19.5089 20.4395 19.5712V20.8381C20.4395 20.9563 20.4309 21.0046 20.1974 21.0325C20.1785 21.036 20.1654 21.0576 20.1654 21.0838C20.1654 21.1129 20.1808 21.135 20.2014 21.135H20.9608C20.9785 21.135 20.9973 21.1205 20.9973 21.0838C20.9973 21.0553 20.9842 21.0355 20.9625 21.0302C20.7312 21.0046 20.7221 20.9563 20.7221 20.8381V19.5712C20.7221 19.5089 20.7387 19.495 20.8112 19.495H20.9265C21.172 19.495 21.2839 19.5747 21.3519 19.8029C21.3576 19.8204 21.3742 19.8338 21.3936 19.8338C21.4198 19.8338 21.4375 19.8262 21.4484 19.8123C21.453 19.8035 21.4547 19.7936 21.4524 19.7837Z" fill="white"/>
<path d="M23.0567 20.6862C23.0379 20.6577 22.9842 20.6443 22.9637 20.6786C22.8763 20.8678 22.6673 21.0093 22.4766 21.0093H22.2089C22.1266 21.0093 22.0838 20.9662 22.0838 20.8783V20.2798H22.3767C22.4881 20.2798 22.5589 20.2973 22.588 20.5377C22.588 20.5599 22.6108 20.5762 22.6394 20.5762C22.6645 20.5762 22.6908 20.5599 22.6908 20.5377V19.9183C22.6908 19.8979 22.6691 19.881 22.6394 19.881C22.6091 19.881 22.588 19.8962 22.588 19.916C22.5594 20.1523 22.4926 20.164 22.3767 20.164H22.0838V19.6237C22.0838 19.5131 22.1518 19.4904 22.2089 19.4904H22.4572C22.6468 19.4904 22.7724 19.5847 22.8295 19.7745C22.8346 19.7879 22.8501 19.8024 22.8723 19.8024C22.8957 19.8024 22.9157 19.796 22.9254 19.7826C22.9317 19.7733 22.934 19.7628 22.9311 19.7512C22.8923 19.6202 22.8695 19.5137 22.8501 19.3745L22.8483 19.3606H21.5625C21.5408 19.3606 21.5254 19.3815 21.5254 19.4124C21.5254 19.4432 21.5402 19.4653 21.5596 19.4653H21.5608C21.7983 19.4945 21.7983 19.5468 21.7983 19.661V20.8416C21.7983 20.9517 21.7983 21.007 21.5596 21.0349C21.5385 21.039 21.5254 21.0582 21.5254 21.0862C21.5254 21.1229 21.5442 21.1392 21.5625 21.1392H22.8952L22.8992 21.1275C22.9443 20.986 22.99 20.8661 23.0608 20.7153C23.0648 20.706 23.0625 20.6955 23.0567 20.6862Z" fill="white"/>
<path d="M26.0903 19.4636C26.1109 19.4636 26.1268 19.4397 26.1268 19.4111C26.1268 19.3855 26.1114 19.3587 26.0903 19.3587H25.3497C25.3292 19.3587 25.3137 19.3797 25.3137 19.4111C25.3137 19.442 25.3275 19.4636 25.348 19.4636C25.5667 19.4903 25.5667 19.5317 25.5667 19.651V20.182H24.6611V19.651C24.6611 19.5317 24.6611 19.4903 24.8781 19.4636C24.8964 19.4636 24.9152 19.4467 24.9152 19.4111C24.9152 19.3797 24.8998 19.3587 24.8781 19.3587H24.1375C24.1164 19.3587 24.1016 19.3855 24.1016 19.4111C24.1016 19.4397 24.117 19.4636 24.1352 19.4636H24.1358C24.3654 19.4927 24.3768 19.5352 24.3768 19.6592V20.8399C24.3768 20.9575 24.3671 21.0058 24.1335 21.0331C24.1147 21.0384 24.1016 21.0588 24.1016 21.085C24.1016 21.1146 24.117 21.1379 24.1375 21.1379H24.8781C24.8964 21.1379 24.9152 21.1216 24.9152 21.085C24.9152 21.0564 24.9021 21.0384 24.8798 21.0331C24.6611 21.0075 24.6611 20.9685 24.6611 20.8468V20.2978H25.5667V20.8468C25.5667 20.9685 25.5667 21.0075 25.3469 21.0331C25.3257 21.0384 25.3137 21.0564 25.3137 21.085C25.3137 21.1216 25.3314 21.1379 25.3497 21.1379H26.0903C26.1109 21.1379 26.1268 21.1146 26.1268 21.085C26.1268 21.0588 26.1131 21.0384 26.0909 21.0331C25.8607 21.0058 25.8516 20.9575 25.8516 20.8399V19.6592C25.8516 19.5352 25.863 19.4927 26.0903 19.4636Z" fill="white"/>
<path d="M27.0772 21.0646C26.7078 21.0646 26.4606 20.7397 26.4606 20.2594C26.4606 19.8495 26.6519 19.4368 27.0772 19.4368C27.4478 19.4368 27.6979 19.7675 27.6979 20.2594C27.6979 20.7397 27.4478 21.0646 27.0772 21.0646ZM27.0772 19.3209C26.5434 19.3209 26.1562 19.7162 26.1562 20.2594C26.1562 20.8014 26.5348 21.1787 27.0772 21.1787C27.622 21.1787 28.0017 20.8014 28.0017 20.2594C28.0017 19.7081 27.622 19.3209 27.0772 19.3209Z" fill="white"/>
<path d="M29.8582 19.3586H29.2564C29.2336 19.3586 29.2187 19.3854 29.2187 19.411C29.2187 19.4395 29.2358 19.4634 29.253 19.4634H29.2541C29.4905 19.4925 29.4996 19.5409 29.4996 19.659V20.4211C29.4996 20.824 29.3415 21.0307 29.0303 21.0307C28.7973 21.0307 28.5604 20.9626 28.5604 20.4514V19.659C28.5604 19.535 28.5712 19.4925 28.799 19.4634C28.8196 19.4634 28.835 19.4395 28.835 19.411C28.835 19.3854 28.8202 19.3586 28.799 19.3586H28.0385C28.0179 19.3586 28.002 19.3796 28.002 19.411C28.002 19.4471 28.0208 19.4634 28.0368 19.4634C28.2754 19.4925 28.2754 19.5461 28.2754 19.659V20.4852C28.2754 20.9201 28.5427 21.178 28.9903 21.178C29.3814 21.178 29.6155 20.9032 29.6155 20.4462V19.659C29.6155 19.5409 29.6241 19.4925 29.8582 19.4634C29.8788 19.4634 29.8959 19.4395 29.8959 19.411C29.8959 19.3854 29.8805 19.3586 29.8582 19.3586Z" fill="white"/>
<path d="M30.6335 20.0981C30.4508 19.9898 30.2772 19.8856 30.2772 19.7267C30.2772 19.5485 30.3868 19.4385 30.561 19.4385C30.746 19.4385 30.8425 19.5369 30.8956 19.7773C30.8979 19.7925 30.9093 19.8117 30.9498 19.8117C30.967 19.8117 30.9847 19.8035 30.9921 19.7925C30.9978 19.7866 30.9995 19.7773 30.9978 19.7715C30.9772 19.6283 30.9692 19.5212 30.9595 19.3843L30.9578 19.3686H30.9413C30.8676 19.3686 30.8179 19.357 30.7648 19.3471C30.7094 19.3343 30.6512 19.3226 30.5633 19.3226C30.2121 19.3226 30.0225 19.5829 30.0225 19.8256C30.0225 20.0917 30.2464 20.2239 30.4628 20.3514C30.6512 20.462 30.8288 20.5668 30.8288 20.7502C30.8288 20.9534 30.7243 21.0663 30.5341 21.0663C30.2932 21.0663 30.1761 20.9574 30.0894 20.6535C30.0808 20.6221 30.0511 20.6221 30.0414 20.6221C30.0106 20.6221 29.9877 20.6367 29.9883 20.6617C30.0014 20.7874 30.0128 20.9592 30.018 21.0867L30.0186 21.1042H30.0351C30.1225 21.1042 30.1876 21.1205 30.2578 21.1397C30.3337 21.1601 30.4131 21.1804 30.5239 21.1804C30.8613 21.1804 31.0794 20.9598 31.0794 20.6192C31.0794 20.3636 30.8425 20.2221 30.6335 20.0981Z" fill="white"/>
<path d="M32.7365 20.6862C32.725 20.6693 32.7028 20.6588 32.6799 20.6588C32.6742 20.6588 32.6548 20.6588 32.6428 20.6786C32.556 20.8678 32.3471 21.0093 32.1563 21.0093H31.888C31.8046 21.0093 31.7629 20.9662 31.7629 20.8783V20.2798H32.0564C32.1678 20.2798 32.2374 20.2973 32.2677 20.5377C32.2677 20.5599 32.2905 20.5762 32.3185 20.5762C32.3436 20.5762 32.3705 20.5599 32.3705 20.5377V19.9183C32.3705 19.8979 32.3476 19.881 32.3185 19.881C32.2831 19.881 32.2677 19.9008 32.2677 19.916C32.2391 20.1523 32.1712 20.164 32.0564 20.164H31.7629V19.6237C31.7629 19.5131 31.8309 19.4904 31.888 19.4904H32.1369C32.3265 19.4904 32.4515 19.5847 32.5092 19.7745C32.5143 19.7879 32.5298 19.8024 32.5526 19.8024C32.5754 19.8024 32.5954 19.796 32.6051 19.7826C32.6114 19.7733 32.6137 19.7628 32.6108 19.7512C32.5714 19.6202 32.5492 19.5137 32.5298 19.3745L32.5275 19.3606H31.2422C31.2205 19.3606 31.2051 19.3815 31.2051 19.4124C31.2051 19.4432 31.2199 19.4653 31.2393 19.4653C31.478 19.4945 31.478 19.5468 31.478 19.661V20.8416C31.478 20.9517 31.478 21.007 31.2388 21.0349C31.2177 21.039 31.2051 21.0582 31.2051 21.0862C31.2051 21.1229 31.2234 21.1392 31.2422 21.1392H32.5737L32.5789 21.1275C32.6228 20.986 32.6697 20.8661 32.7399 20.7153C32.7439 20.706 32.7422 20.6955 32.7365 20.6862Z" fill="white"/>
</g>
<defs>
<radialGradient id="paint0_radial_34639_2434" cx="0" cy="0" r="1" gradientUnits="userSpaceOnUse" gradientTransform="translate(19.9692 1.71513) scale(36.8426 26.5639)">
<stop stop-color="white"/>
<stop offset="1" stop-color="white"/>
</radialGradient>
<radialGradient id="paint1_radial_34639_2434" cx="0" cy="0" r="1" gradientUnits="userSpaceOnUse" gradientTransform="translate(20.2811 12.4047) scale(19.9336 13.1804)">
<stop stop-color="#245093"/>
<stop offset="1" stop-color="#11234A"/>
</radialGradient>
<radialGradient id="paint2_radial_34639_2434" cx="0" cy="0" r="1" gradientUnits="userSpaceOnUse" gradientTransform="translate(20.2183 6.98471) scale(19.9336 12.4701)">
<stop stop-color="#245093"/>
<stop offset="1" stop-color="#11234A"/>
</radialGradient>
<radialGradient id="paint3_radial_34639_2434" cx="0" cy="0" r="1" gradientUnits="userSpaceOnUse" gradientTransform="translate(20.2811 12.405) scale(31.5702 21.7038)">
<stop stop-color="#245093"/>
<stop offset="0.63136" stop-color="#245093"/>
<stop offset="1" stop-color="#11234A"/>
</radialGradient>
<linearGradient id="paint4_linear_34639_2434" x1="7.2158" y1="14.9895" x2="8.09667" y2="14.1256" gradientUnits="userSpaceOnUse">
<stop stop-color="#656894"/>
<stop offset="1" stop-color="white"/>
</linearGradient>
<linearGradient id="paint5_linear_34639_2434" x1="11.4581" y1="14.9895" x2="12.3392" y2="14.1255" gradientUnits="userSpaceOnUse">
<stop stop-color="#656894"/>
<stop offset="1" stop-color="white"/>
</linearGradient>
<linearGradient id="paint6_linear_34639_2434" x1="9.3444" y1="15.0072" x2="10.2091" y2="14.1592" gradientUnits="userSpaceOnUse">
<stop stop-color="#656894"/>
<stop offset="1" stop-color="white"/>
</linearGradient>
<linearGradient id="paint7_linear_34639_2434" x1="13.5319" y1="15.007" x2="14.3966" y2="14.159" gradientUnits="userSpaceOnUse">
<stop stop-color="#656894"/>
<stop offset="1" stop-color="white"/>
</linearGradient>
<linearGradient id="paint8_linear_34639_2434" x1="10.3032" y1="17.6269" x2="10.3032" y2="18.1502" gradientUnits="userSpaceOnUse">
<stop stop-color="#9998BA"/>
<stop offset="1" stop-color="white"/>
</linearGradient>
<linearGradient id="paint9_linear_34639_2434" x1="10.4746" y1="10.9318" x2="10.4746" y2="11.4547" gradientUnits="userSpaceOnUse">
<stop stop-color="#656894"/>
<stop offset="1" stop-color="white"/>
</linearGradient>
<linearGradient id="paint10_linear_34639_2434" x1="25.5771" y1="14.9898" x2="26.4586" y2="14.1253" gradientUnits="userSpaceOnUse">
<stop stop-color="#656894"/>
<stop offset="1" stop-color="white"/>
</linearGradient>
<linearGradient id="paint11_linear_34639_2434" x1="29.8214" y1="14.9898" x2="30.7025" y2="14.1256" gradientUnits="userSpaceOnUse">
<stop stop-color="#656894"/>
<stop offset="1" stop-color="white"/>
</linearGradient>
<linearGradient id="paint12_linear_34639_2434" x1="27.7077" y1="15.0072" x2="28.5724" y2="14.1592" gradientUnits="userSpaceOnUse">
<stop stop-color="#656894"/>
<stop offset="1" stop-color="white"/>
</linearGradient>
<linearGradient id="paint13_linear_34639_2434" x1="31.8932" y1="15.0072" x2="32.7579" y2="14.1592" gradientUnits="userSpaceOnUse">
<stop stop-color="#656894"/>
<stop offset="1" stop-color="white"/>
</linearGradient>
<linearGradient id="paint14_linear_34639_2434" x1="29.4984" y1="17.6269" x2="29.4984" y2="18.1502" gradientUnits="userSpaceOnUse">
<stop stop-color="#9998BA"/>
<stop offset="1" stop-color="white"/>
</linearGradient>
<linearGradient id="paint15_linear_34639_2434" x1="29.332" y1="10.9376" x2="29.332" y2="11.4605" gradientUnits="userSpaceOnUse">
<stop stop-color="#656894"/>
<stop offset="1" stop-color="white"/>
</linearGradient>
<linearGradient id="paint16_linear_34639_2434" x1="19.9639" y1="11.7816" x2="19.9639" y2="9.2387" gradientUnits="userSpaceOnUse">
<stop stop-color="#656894"/>
<stop offset="1" stop-color="white"/>
</linearGradient>
<linearGradient id="paint17_linear_34639_2434" x1="19.9138" y1="8.31747" x2="19.9138" y2="9.58894" gradientUnits="userSpaceOnUse">
<stop stop-color="#B8B6CF"/>
<stop offset="1" stop-color="white"/>
</linearGradient>
<linearGradient id="paint18_linear_34639_2434" x1="14.8789" y1="8.41671" x2="14.8789" y2="8.56431" gradientUnits="userSpaceOnUse">
<stop stop-color="#B8B6CF"/>
<stop offset="1" stop-color="white"/>
</linearGradient>
<linearGradient id="paint19_linear_34639_2434" x1="15.3574" y1="8.41647" x2="15.3574" y2="8.56406" gradientUnits="userSpaceOnUse">
<stop stop-color="#B8B6CF"/>
<stop offset="1" stop-color="white"/>
</linearGradient>
<linearGradient id="paint20_linear_34639_2434" x1="15.8302" y1="8.4165" x2="15.8302" y2="8.5645" gradientUnits="userSpaceOnUse">
<stop stop-color="#B8B6CF"/>
<stop offset="1" stop-color="white"/>
</linearGradient>
<linearGradient id="paint21_linear_34639_2434" x1="16.3127" y1="8.41671" x2="16.3127" y2="8.56431" gradientUnits="userSpaceOnUse">
<stop stop-color="#B8B6CF"/>
<stop offset="1" stop-color="white"/>
</linearGradient>
<linearGradient id="paint22_linear_34639_2434" x1="16.791" y1="8.41671" x2="16.791" y2="8.56431" gradientUnits="userSpaceOnUse">
<stop stop-color="#B8B6CF"/>
<stop offset="1" stop-color="white"/>
</linearGradient>
<linearGradient id="paint23_linear_34639_2434" x1="17.2715" y1="8.41671" x2="17.2715" y2="8.56431" gradientUnits="userSpaceOnUse">
<stop stop-color="#B8B6CF"/>
<stop offset="1" stop-color="white"/>
</linearGradient>
<linearGradient id="paint24_linear_34639_2434" x1="17.75" y1="8.4165" x2="17.75" y2="8.5645" gradientUnits="userSpaceOnUse">
<stop stop-color="#B8B6CF"/>
<stop offset="1" stop-color="white"/>
</linearGradient>
<linearGradient id="paint25_linear_34639_2434" x1="18.2285" y1="8.41647" x2="18.2285" y2="8.56365" gradientUnits="userSpaceOnUse">
<stop stop-color="#B8B6CF"/>
<stop offset="1" stop-color="white"/>
</linearGradient>
<linearGradient id="paint26_linear_34639_2434" x1="18.7033" y1="8.41647" x2="18.7033" y2="8.56406" gradientUnits="userSpaceOnUse">
<stop stop-color="#B8B6CF"/>
<stop offset="1" stop-color="white"/>
</linearGradient>
<linearGradient id="paint27_linear_34639_2434" x1="19.1818" y1="8.41647" x2="19.1818" y2="8.56406" gradientUnits="userSpaceOnUse">
<stop stop-color="#B8B6CF"/>
<stop offset="1" stop-color="white"/>
</linearGradient>
<linearGradient id="paint28_linear_34639_2434" x1="19.6641" y1="8.4165" x2="19.6641" y2="8.5645" gradientUnits="userSpaceOnUse">
<stop stop-color="#B8B6CF"/>
<stop offset="1" stop-color="white"/>
</linearGradient>
<linearGradient id="paint29_linear_34639_2434" x1="20.1426" y1="8.4165" x2="20.1426" y2="8.5645" gradientUnits="userSpaceOnUse">
<stop stop-color="#B8B6CF"/>
<stop offset="1" stop-color="white"/>
</linearGradient>
<linearGradient id="paint30_linear_34639_2434" x1="20.623" y1="8.41671" x2="20.623" y2="8.56431" gradientUnits="userSpaceOnUse">
<stop stop-color="#B8B6CF"/>
<stop offset="1" stop-color="white"/>
</linearGradient>
<linearGradient id="paint31_linear_34639_2434" x1="21.1016" y1="8.41671" x2="21.1016" y2="8.56431" gradientUnits="userSpaceOnUse">
<stop stop-color="#B8B6CF"/>
<stop offset="1" stop-color="white"/>
</linearGradient>
<linearGradient id="paint32_linear_34639_2434" x1="21.5783" y1="8.41647" x2="21.5783" y2="8.56365" gradientUnits="userSpaceOnUse">
<stop stop-color="#B8B6CF"/>
<stop offset="1" stop-color="white"/>
</linearGradient>
<linearGradient id="paint33_linear_34639_2434" x1="22.0568" y1="8.4165" x2="22.0568" y2="8.5645" gradientUnits="userSpaceOnUse">
<stop stop-color="#B8B6CF"/>
<stop offset="1" stop-color="white"/>
</linearGradient>
<linearGradient id="paint34_linear_34639_2434" x1="22.5371" y1="8.41671" x2="22.5371" y2="8.56431" gradientUnits="userSpaceOnUse">
<stop stop-color="#B8B6CF"/>
<stop offset="1" stop-color="white"/>
</linearGradient>
<linearGradient id="paint35_linear_34639_2434" x1="23.0156" y1="8.41647" x2="23.0156" y2="8.56406" gradientUnits="userSpaceOnUse">
<stop stop-color="#B8B6CF"/>
<stop offset="1" stop-color="white"/>
</linearGradient>
<linearGradient id="paint36_linear_34639_2434" x1="23.4942" y1="8.41671" x2="23.4942" y2="8.56431" gradientUnits="userSpaceOnUse">
<stop stop-color="#B8B6CF"/>
<stop offset="1" stop-color="white"/>
</linearGradient>
<linearGradient id="paint37_linear_34639_2434" x1="23.9689" y1="8.4165" x2="23.9689" y2="8.5645" gradientUnits="userSpaceOnUse">
<stop stop-color="#B8B6CF"/>
<stop offset="1" stop-color="white"/>
</linearGradient>
<linearGradient id="paint38_linear_34639_2434" x1="24.4474" y1="8.41671" x2="24.4474" y2="8.56431" gradientUnits="userSpaceOnUse">
<stop stop-color="#B8B6CF"/>
<stop offset="1" stop-color="white"/>
</linearGradient>
<linearGradient id="paint39_linear_34639_2434" x1="24.9297" y1="8.41671" x2="24.9297" y2="8.56431" gradientUnits="userSpaceOnUse">
<stop stop-color="#B8B6CF"/>
<stop offset="1" stop-color="white"/>
</linearGradient>
<linearGradient id="paint40_linear_34639_2434" x1="19.8573" y1="17.4172" x2="19.8573" y2="18.2898" gradientUnits="userSpaceOnUse">
<stop stop-color="#9998BA"/>
<stop offset="1" stop-color="white"/>
</linearGradient>
<clipPath id="clip0_34639_2434">
<rect width="38" height="27" fill="white" transform="translate(0.892578 0.640381)"/>
</clipPath>
</defs>
</svg>
