<svg width="122" height="23" viewBox="0 0 122 23" fill="none" xmlns="http://www.w3.org/2000/svg">
<g clip-path="url(#clip0_31179:1571)">
<path d="M11.0453 22.8806C17.1454 22.8806 22.0905 17.9355 22.0905 11.8353C22.0905 5.73516 17.1454 0.790039 11.0453 0.790039C4.94514 0.790039 0 5.73516 0 11.8353C0 17.9355 4.94514 22.8806 11.0453 22.8806Z" fill="#4195EF"/>
<path d="M26.9727 13.5265V5.67334H30.4744V12.4863C30.4744 13.8362 30.6332 15.1464 32.404 15.1464C34.1747 15.1464 34.3255 13.8362 34.3255 12.4863V5.67334H37.8273V13.4868C37.8273 16.528 35.9057 18.1876 32.404 18.1876C28.9022 18.1876 26.9727 16.528 26.9727 13.5265Z" fill="#221F20"/>
<path d="M38.7559 16.417L40.4472 14.0348C40.7948 14.4678 41.233 14.8194 41.7309 15.0649C42.2288 15.3105 42.7745 15.444 43.3296 15.4562C44.2587 15.4562 44.7986 15.0751 44.7986 14.3445C44.7986 13.614 44.0046 13.2249 42.6785 12.8438C40.9077 12.3038 39.3276 11.3827 39.3276 9.26258C39.3276 6.95191 41.2571 5.37967 43.9489 5.37967C45.4765 5.30283 46.9757 5.81114 48.1416 6.80104L46.5535 9.1832C46.2505 8.83829 45.8764 8.56316 45.457 8.37675C45.0376 8.19029 44.5826 8.097 44.1237 8.10328C43.2025 8.10328 42.8135 8.48444 42.8135 8.94498C42.8135 9.73903 43.7425 9.9137 44.743 10.2551C46.744 10.8745 48.2845 11.7956 48.2845 14.0666C48.2845 16.3376 46.5852 18.1877 43.5202 18.1877C42.6479 18.2276 41.7764 18.0913 40.9579 17.7871C40.1393 17.4829 39.3904 17.0169 38.7559 16.417Z" fill="#221F20"/>
<path d="M53.0016 5.67334H56.8528L61.4346 17.9573H57.7661L57.1862 16.1866H52.5728L51.9934 17.9573H48.4121L53.0016 5.67334ZM56.3131 13.4153L55.3838 10.4535C55.189 9.85001 55.0454 9.23107 54.9551 8.60335H54.8441C54.7522 9.23017 54.6117 9.8488 54.4229 10.4535L53.4148 13.4233L56.3131 13.4153Z" fill="#221F20"/>
<path d="M66.5024 8.52397H63.4609V5.67334H73.0452V8.52397H70.0123V17.9573H66.5024V8.52397Z" fill="#221F20"/>
<path d="M73.2852 11.8352C73.2852 8.794 75.437 5.44312 80.0188 5.44312C84.6005 5.44312 86.7524 8.83371 86.7524 11.8352C86.7524 14.8368 84.6005 18.1876 80.0188 18.1876C75.437 18.1876 73.2852 14.8764 73.2852 11.8352ZM83.1787 11.8352C83.2515 11.3815 83.2244 10.9175 83.1004 10.4752C82.9759 10.0329 82.757 9.6228 82.4588 9.27326C82.1605 8.92373 81.79 8.64303 81.3728 8.45054C80.9556 8.25805 80.5017 8.15839 80.0423 8.15839C79.583 8.15839 79.1291 8.25805 78.7119 8.45054C78.2947 8.64303 77.9242 8.92373 77.626 9.27326C77.3277 9.6228 77.1088 10.0329 76.9848 10.4752C76.8603 10.9175 76.8337 11.3815 76.906 11.8352C76.8337 12.2889 76.8603 12.7529 76.9848 13.1952C77.1088 13.6375 77.3277 14.0476 77.626 14.3972C77.9242 14.7467 78.2947 15.0274 78.7119 15.2199C79.1291 15.4124 79.583 15.5121 80.0423 15.5121C80.5017 15.5121 80.9556 15.4124 81.3728 15.2199C81.79 15.0274 82.1605 14.7467 82.4588 14.3972C82.757 14.0476 82.9759 13.6375 83.1004 13.1952C83.2244 12.7529 83.2515 12.2889 83.1787 11.8352Z" fill="#221F20"/>
<path d="M88.0195 5.67334H92.5616C96.913 5.67334 99.3746 7.98401 99.3746 11.8351C99.3746 15.6863 96.8337 17.997 92.5616 17.997H88.0195V5.67334ZM91.561 15.1464H92.3553C94.6261 15.1464 95.8175 14.0664 95.8175 11.8351C95.8175 9.60385 94.6261 8.52397 92.3553 8.52397H91.561V15.1464Z" fill="#221F20"/>
<path d="M103.457 5.67334H107.3L111.882 17.9573H108.229L107.649 16.1866H103.028L102.456 17.9573H98.875L103.457 5.67334ZM106.768 13.4153L105.799 10.4535C105.611 9.8488 105.47 9.23017 105.379 8.60335H105.267C105.173 9.23032 105.03 9.84895 104.838 10.4535L103.878 13.4233L106.768 13.4153Z" fill="#221F20"/>
<path d="M113.582 13.6063L109 5.71338H112.843L114.503 8.75464C114.915 9.46942 115.238 10.2321 115.464 11.0256H115.543C115.745 10.2238 116.069 9.45777 116.504 8.75464L118.156 5.71338H121.896L117.322 13.6063V17.9974H113.621V13.6063H113.582Z" fill="#221F20"/>
</g>
<defs>
<clipPath id="clip0_31179:1571">
<rect width="122" height="22.5926" fill="white" transform="translate(0 0.407227)"/>
</clipPath>
</defs>
</svg>
