<svg width="112" height="24" viewBox="0 0 112 24" fill="none" xmlns="http://www.w3.org/2000/svg">
<path d="M8.00562 3.6568H12.9806V1.09504H0.246094V3.6568H5.2211V16.7997H8.00562V3.6568ZM15.8394 10.1169C15.8394 8.2791 16.9346 7.18386 18.5125 7.18386C20.1276 7.18386 21.0372 8.24198 21.0372 10.0798V16.7997H23.7474V9.26297C23.7474 6.49701 22.2067 4.71492 19.5335 4.71492C17.6957 4.71492 16.6005 5.68022 15.8394 6.79402V0.426758H13.1291V16.7812H15.8394V10.1169ZM32.825 10.0612H26.7547C26.996 8.22341 28.1655 6.94253 29.8177 6.94253C31.6183 6.94253 32.6579 8.29767 32.825 10.0612ZM35.5167 11.1007C35.5167 7.66651 33.6046 4.71492 29.8363 4.71492C26.4577 4.71492 24.063 7.49944 24.063 10.8965C24.063 14.5721 26.7176 17.0596 30.1333 17.0596C32.3052 17.0596 33.846 16.1871 34.9783 14.832L33.3819 13.4212C32.4351 14.3308 31.507 14.832 30.1704 14.832C28.4254 14.832 27.0703 13.7553 26.7547 11.8247H35.461C35.4981 11.5834 35.5167 11.3606 35.5167 11.1007ZM38.9695 5.21613C38.9695 4.15801 39.9162 3.34122 41.5312 3.34122C42.9606 3.34122 44.3714 3.89812 45.7823 4.95624L47.2673 2.87713C45.6709 1.59626 43.8517 0.909406 41.5684 0.909406C38.4497 0.909406 36.2035 2.74719 36.2035 5.47602C36.2035 8.39048 38.0784 9.37435 41.4199 10.1911C44.3343 10.8594 44.9655 11.472 44.9655 12.6044C44.9655 13.811 43.8888 14.5907 42.181 14.5907C40.2318 14.5907 38.7282 13.8481 37.2245 12.5487L35.5724 14.5164C37.4473 16.2057 39.712 17.0225 42.1253 17.0225C45.4296 17.0225 47.7314 15.2775 47.7314 12.3074C47.7314 9.68993 46.005 8.50186 42.6822 7.68507C39.6935 6.97966 38.9695 6.44132 38.9695 5.21613ZM58.7024 14.8506L57.0689 13.2355C56.2149 14.108 55.2682 14.7206 54.0059 14.7206C51.9268 14.7206 50.4603 13.0128 50.4603 10.8965C50.4603 8.81744 51.8896 7.1096 53.8759 7.1096C55.2496 7.1096 56.1221 7.7222 56.9389 8.59468L58.6282 6.77546C57.5329 5.56884 56.1407 4.73348 53.8945 4.73348C50.3489 4.73348 47.75 7.55513 47.75 10.9337C47.75 14.3122 50.3489 17.0782 53.8759 17.0782C56.1778 17.0782 57.5329 16.15 58.7024 14.8506ZM58.7024 3.15559H61.6169V0.575263H58.7024V3.15559ZM58.8138 16.7997H61.5241V4.95624H58.8138V16.7997ZM70.7316 10.0612H64.6613C64.9026 8.22341 66.0721 6.94253 67.7243 6.94253C69.5249 6.94253 70.5459 8.29767 70.7316 10.0612ZM73.4233 11.1007C73.4233 7.66651 71.5112 4.71492 67.7428 4.71492C64.3643 4.71492 61.951 7.49944 61.951 10.8965C61.951 14.5721 64.6056 17.0596 68.0213 17.0596C70.1932 17.0596 71.734 16.1871 72.8664 14.832L71.2699 13.4212C70.3232 14.3308 69.395 14.832 68.0584 14.832C66.3135 14.832 64.9583 13.7553 64.6427 11.8247H73.349C73.4047 11.5834 73.4233 11.3606 73.4233 11.1007ZM76.6347 10.1169C76.6347 8.2791 77.73 7.18386 79.3079 7.18386C80.9229 7.18386 81.8325 8.24198 81.8325 10.0798V16.7997H84.5428V9.26297C84.5428 6.49701 83.002 4.71492 80.3289 4.71492C78.4911 4.71492 77.3958 5.68022 76.6347 6.79402V4.95624H73.9245V16.7997H76.6347V10.1169ZM88.6824 7.29524H91.8753V4.95624H88.6824V1.70764H85.9722V4.95624H84.4685V7.29524H85.9722V13.5326C85.9722 16.1314 87.383 17.0039 89.3878 17.0039C90.3903 17.0039 91.1514 16.7812 91.8382 16.3913V14.1637C91.2999 14.4236 90.7615 14.5721 90.1489 14.5721C89.2208 14.5721 88.6824 14.1452 88.6824 13.087V7.29524ZM92.2095 3.15559H95.1239V0.575263H92.2095V3.15559ZM92.3209 16.7997H95.0311V4.95624H92.3209V16.7997ZM104.703 13.3098V13.2727C104.703 11.1379 102.754 10.3582 101.027 9.81987C99.6349 9.37435 98.354 9.02164 98.354 8.16772V8.11203C98.354 7.42518 98.9666 6.92397 100.006 6.92397C100.99 6.92397 101.937 7.20242 103.069 7.90783L104.146 5.97723C102.883 5.14188 101.547 4.77061 100.062 4.77061C97.7043 4.77061 95.8479 6.1443 95.8479 8.37192V8.40905C95.8479 10.6738 97.7971 11.3978 99.5421 11.8804C100.934 12.3074 102.197 12.623 102.197 13.5326V13.5697C102.197 14.3494 101.528 14.8506 100.359 14.8506C99.1522 14.8506 97.76 14.3494 96.4791 13.4026L95.2725 15.2404C96.7575 16.4099 98.6139 17.0039 100.303 17.0039C102.772 17.0225 104.703 15.7973 104.703 13.3098ZM108.453 7.29524H111.627V4.95624H108.453V1.70764H105.742V4.95624H104.239V7.29524H105.742V13.5326C105.742 16.1314 107.153 17.0039 109.158 17.0039C110.16 17.0039 110.921 16.7812 111.608 16.3913V14.1637C111.07 14.4236 110.532 14.5721 109.919 14.5721C108.991 14.5721 108.471 14.1452 108.471 13.087V7.29524H108.453ZM5.20254 23.0927H7.74573V22.443H5.92651V21.7376H7.50441V21.0879H5.92651V20.401H7.72717V19.7513H5.20254V23.0927ZM8.24695 23.0927H9.0823L9.8434 21.9418L10.5859 23.0927H11.4399L10.2704 21.3849L11.3842 19.7513H10.5488L9.8434 20.828L9.13799 19.7513H8.28407L9.39788 21.4035L8.24695 23.0927ZM12.0896 23.0927H12.8321V22.0903H13.389C14.1316 22.0903 14.7442 21.6819 14.7442 20.9208V20.9023C14.7442 20.2154 14.2615 19.7513 13.4633 19.7513H12.0896V23.0927ZM12.8321 21.422V20.401H13.4076C13.7789 20.401 14.0016 20.5867 14.0016 20.9023V20.9208C14.0016 21.1993 13.7789 21.422 13.4262 21.422H12.8321ZM15.3939 23.0927H17.8071V22.4245H16.1364V19.7513H15.3939V23.0927ZM19.8862 23.1484C20.9258 23.1484 21.6683 22.3688 21.6683 21.422V21.4035C21.6683 20.4567 20.9258 19.6771 19.8862 19.6771C18.8467 19.6771 18.1041 20.4567 18.1041 21.4035C18.1041 22.3688 18.8467 23.1484 19.8862 23.1484ZM19.8862 22.4616C19.2922 22.4616 18.8652 21.9789 18.8652 21.4035V21.3849C18.8652 20.8094 19.2736 20.3454 19.8677 20.3454C20.4617 20.3454 20.8887 20.828 20.8887 21.4035C20.8887 21.9975 20.4803 22.4616 19.8862 22.4616ZM22.4109 23.0927H23.1534V22.0161H23.7289L24.4528 23.0927H25.3068L24.49 21.9047C24.9169 21.7376 25.2139 21.4035 25.2139 20.8651V20.8466C25.2139 20.531 25.1211 20.2711 24.9355 20.0855C24.7127 19.8627 24.3786 19.7513 23.9516 19.7513H22.4294V23.0927H22.4109ZM23.1534 21.3663V20.401H23.8774C24.2301 20.401 24.4528 20.5681 24.4528 20.8837V20.9023C24.4528 21.1807 24.2486 21.3849 23.8959 21.3849H23.1534V21.3663ZM26.0122 23.0927H26.7547V19.7513H26.0122V23.0927ZM27.6829 23.0927H28.4069V20.9579L30.0219 23.0927H30.653V19.7513H29.9291V21.8119L28.3512 19.7513H27.6643V23.0927H27.6829ZM33.1591 23.1484C33.7717 23.1484 34.2544 22.9071 34.5885 22.6101V21.1621H33.1405V21.7933H33.8831V22.2759C33.6975 22.4059 33.4561 22.4802 33.1962 22.4802C32.6022 22.4802 32.1752 22.0346 32.1752 21.422V21.4035C32.1752 20.828 32.6022 20.3639 33.1405 20.3639C33.5304 20.3639 33.7531 20.4939 34.013 20.6981L34.4771 20.1412C34.1244 19.8441 33.7717 19.6771 33.1591 19.6771C32.1381 19.6771 31.3956 20.4567 31.3956 21.4035C31.4141 22.4059 32.1196 23.1484 33.1591 23.1484ZM36.9275 23.0927H39.3407V22.4245H37.67V19.7513H36.9275V23.0927ZM40.0276 23.0927H40.7701V19.7513H40.0276V23.0927ZM41.6983 23.0927H42.4408V21.7933H44.0373V21.125H42.4408V20.4196H44.2601V19.7513H41.6983V23.0927ZM44.9283 23.0927H47.4715V22.443H45.6523V21.7376H47.2302V21.0879H45.6523V20.401H47.453V19.7513H44.9283V23.0927ZM48.0099 23.8538C48.5853 23.8353 48.9009 23.594 48.9009 22.9628V22.3131H48.1213V23.0742H48.4183C48.4368 23.3526 48.2883 23.5197 47.9542 23.5568L48.0099 23.8538ZM51.2585 23.0927H52.001V19.7513H51.2585V23.0927ZM52.9292 23.0927H53.6532V20.9579L55.2682 23.0927H55.8993V19.7513H55.1754V21.8119L53.5975 19.7513H52.9106V23.0927H52.9292ZM57.997 23.1299C58.721 23.1299 59.2222 22.7586 59.2222 22.0903V22.0718C59.2222 21.4963 58.8324 21.2364 58.1641 21.0693C57.5886 20.9208 57.4401 20.8466 57.4401 20.6238V20.6052C57.4401 20.4382 57.5886 20.3082 57.8671 20.3082C58.1455 20.3082 58.4425 20.4382 58.7396 20.6424L59.1294 20.0855C58.7953 19.807 58.3683 19.6585 57.8856 19.6585C57.1988 19.6585 56.7161 20.0669 56.7161 20.6609V20.6795C56.7161 21.3478 57.1431 21.5334 57.83 21.7005C58.3869 21.849 58.4982 21.9418 58.4982 22.1274V22.146C58.4982 22.3502 58.3126 22.4616 58.0156 22.4616C57.6258 22.4616 57.3102 22.2945 57.0132 22.0532L56.5862 22.573C56.976 22.9628 57.4958 23.1299 57.997 23.1299ZM59.9648 23.0927H60.7073V22.0903H61.2642C62.0067 22.0903 62.6193 21.6819 62.6193 20.9208V20.9023C62.6193 20.2154 62.1367 19.7513 61.3384 19.7513H59.9648V23.0927ZM60.7073 21.422V20.401H61.2828C61.654 20.401 61.8768 20.5867 61.8768 20.9023V20.9208C61.8768 21.1993 61.654 21.422 61.3013 21.422H60.7073ZM63.2876 23.0927H64.0301V19.7513H63.2876V23.0927ZM64.9583 23.0927H65.7009V22.0161H66.2763L67.0003 23.0927H67.8542L67.0374 21.9047C67.4644 21.7376 67.7614 21.4035 67.7614 20.8651V20.8466C67.7614 20.531 67.6686 20.2711 67.483 20.0855C67.2602 19.8627 66.926 19.7513 66.4991 19.7513H64.9769V23.0927H64.9583ZM65.7009 21.3663V20.401H66.4248C66.7775 20.401 67.0003 20.5681 67.0003 20.8837V20.9023C67.0003 21.1807 66.7961 21.3849 66.4434 21.3849H65.7009V21.3663ZM68.5411 23.0927H69.2836V19.7513H68.5411V23.0927ZM70.2118 23.0927H70.9358V20.9579L72.5508 23.0927H73.1819V19.7513H72.458V21.8119L70.8801 19.7513H70.1932V23.0927H70.2118ZM75.7066 23.1484C76.3192 23.1484 76.8018 22.9071 77.136 22.6101V21.1621H75.688V21.7933H76.4305V22.2759C76.2449 22.4059 76.0036 22.4802 75.7437 22.4802C75.1497 22.4802 74.7227 22.0346 74.7227 21.422V21.4035C74.7227 20.828 75.1497 20.3639 75.688 20.3639C76.0778 20.3639 76.3006 20.4939 76.5605 20.6981L77.0246 20.1412C76.6719 19.8441 76.3192 19.6771 75.7066 19.6771C74.6856 19.6771 73.943 20.4567 73.943 21.4035C73.943 22.4059 74.667 23.1484 75.7066 23.1484ZM79.5121 23.0927H80.2546V19.7513H79.5121V23.0927ZM81.1828 23.0927H81.9068V20.9579L83.5218 23.0927H84.1529V19.7513H83.429V21.8119L81.8511 19.7513H81.1642V23.0927H81.1828ZM85.0626 23.0927H85.7865V20.9579L87.4015 23.0927H88.0327V19.7513H87.3087V21.8119L85.7308 19.7513H85.044V23.0927H85.0626ZM90.5573 23.1484C91.5969 23.1484 92.3394 22.3688 92.3394 21.422V21.4035C92.3394 20.4567 91.5969 19.6771 90.5573 19.6771C89.5178 19.6771 88.7752 20.4567 88.7752 21.4035C88.7752 22.3688 89.5178 23.1484 90.5573 23.1484ZM90.5759 22.4616C89.9819 22.4616 89.5549 21.9789 89.5549 21.4035V21.3849C89.5549 20.8094 89.9633 20.3454 90.5573 20.3454C91.1514 20.3454 91.5783 20.828 91.5783 21.4035C91.5783 21.9975 91.1699 22.4616 90.5759 22.4616ZM93.9544 23.1113H94.6042L95.9593 19.7328H95.1611L94.2886 22.0903L93.4161 19.7328H92.5993L93.9544 23.1113ZM95.7922 23.0927H96.5348L96.8318 22.3502H98.2426L98.5396 23.0927H99.3193L97.8899 19.7142H97.203L95.7922 23.0927ZM97.1102 21.6819L97.5558 20.6052L98.0013 21.6819H97.1102ZM100.303 23.0927H101.046V20.4196H102.067V19.7328H99.3007V20.4196H100.322V23.0927H100.303ZM102.754 23.0927H103.496V19.7513H102.754V23.0927ZM106.058 23.1484C107.097 23.1484 107.84 22.3688 107.84 21.422V21.4035C107.84 20.4567 107.097 19.6771 106.058 19.6771C105.018 19.6771 104.276 20.4567 104.276 21.4035C104.276 22.3688 105.018 23.1484 106.058 23.1484ZM106.076 22.4616C105.482 22.4616 105.055 21.9789 105.055 21.4035V21.3849C105.055 20.8094 105.464 20.3454 106.058 20.3454C106.652 20.3454 107.079 20.828 107.079 21.4035C107.079 21.9975 106.652 22.4616 106.076 22.4616ZM108.601 23.0927H109.325V20.9579L110.94 23.0927H111.571V19.7513H110.847V21.8119L109.269 19.7513H108.582V23.0927H108.601Z" fill="black"/>
</svg>
