<svg width="249" height="21" viewBox="0 0 249 21" fill="none" xmlns="http://www.w3.org/2000/svg">
<path fill-rule="evenodd" clip-rule="evenodd" d="M6.67583 17.5309C6.67583 18.9294 7.07551 19.249 9.63252 19.249V20.1279H0.722656V19.249C2.48056 19.249 3.08019 19.0891 3.08019 17.5709V3.30702C3.08019 1.78864 2.48056 1.62872 0.722656 1.62872V0.749773H15.6658L15.7459 6.06376H15.0266C14.6269 2.06844 13.6281 1.70904 9.91232 1.70904H6.63603V9.62007H9.27289C11.7901 9.62007 11.95 9.2204 12.1497 7.22274H12.869V13.0162H12.1497C11.95 11.0186 11.7901 10.6587 9.27289 10.6587H6.63603V17.5311H6.67607L6.67583 17.5309ZM17.5836 20.1279V19.249C19.3417 19.249 19.9411 19.0891 19.9411 17.5709V3.30702C19.9411 1.78864 19.3417 1.62872 17.5836 1.62872V0.749773H25.8943V1.62896C24.1362 1.62896 23.5368 1.78888 23.5368 3.30726V17.5711C23.5368 19.0893 24.1362 19.2492 25.8943 19.2492V20.1282H17.5834L17.5836 20.1279ZM44.7529 20.4475L31.4878 4.02606V17.4911C31.4878 19.0495 32.5665 19.289 34.4047 19.289V20.1682H27.3726V19.289C29.2104 19.289 30.2095 19.0495 30.2095 17.4911V2.54771C29.3703 1.66876 28.7709 1.62872 27.3726 1.62872V0.749773H33.6056L43.7541 13.8151V3.38686C43.7541 1.82868 42.6754 1.58892 40.8374 1.58892V0.749773H47.9093V1.62896C46.0716 1.62896 45.0725 1.86872 45.0725 3.42714V20.448H44.7529V20.4475ZM54.2224 20.1279H47.2301V19.249C49.0681 19.249 49.9072 19.0092 50.5064 17.411L56.8194 0.550054H58.5773L65.3696 17.5309C65.969 19.0493 66.2486 19.2089 67.6471 19.2089V20.0879H59.5363V19.2089C62.0135 19.2089 62.2533 19.0092 61.6536 17.5309L59.6562 12.3768H53.5829L51.7852 17.371C51.2259 18.8893 52.1048 19.2089 54.2624 19.2089V20.1279H54.2224ZM53.9426 11.3777H59.2165L56.4598 4.42573L53.9426 11.3777ZM85.8665 20.4475L72.6415 4.02606V17.4911C72.6415 19.0495 73.7201 19.289 75.5581 19.289V20.1682H68.6857V19.289C70.364 19.289 71.3629 19.0495 71.3629 17.4911V2.58775C70.4041 1.7088 69.6848 1.62872 68.0868 1.62872V0.749773H74.719L84.8674 13.8151V3.38686C84.8674 1.82868 83.7888 1.58892 81.951 1.58892V0.749773H88.9831V1.62896C87.1451 1.62896 86.1463 1.86872 86.1463 3.42714V20.448H85.8665V20.4475ZM105.484 0.709971H105.964L106.243 6.50323L105.524 6.54327C105.045 3.22718 103.287 1.46904 100.051 1.46904C96.4547 1.46904 93.7377 4.54561 93.7377 9.2602C93.7377 15.2935 97.5333 18.7294 101.529 18.7294C103.247 18.7294 104.805 18.2501 106.323 16.6121L106.883 17.1712C105.644 18.9294 103.207 20.4077 99.9304 20.4077C95.0562 20.4077 90.1018 16.7318 90.1018 10.5786C90.1016 4.62545 94.6164 0.430176 100.091 0.430176C102.688 0.430176 104.046 1.54888 104.765 1.54888C105.085 1.54888 105.324 1.26932 105.484 0.709971ZM108.481 20.1279V19.249C110.239 19.249 110.838 19.0891 110.838 17.5709V3.30702C110.838 1.78864 110.239 1.62872 108.481 1.62872V0.749773H116.792V1.62896C115.034 1.62896 114.434 1.78888 114.434 3.30726V17.5711C114.434 19.0893 115.034 19.2492 116.792 19.2492V20.1282H108.481V20.1279ZM124.623 20.1279H118.11V19.249C119.549 19.249 120.308 19.0092 120.907 17.411L127.22 0.550054H128.978L135.77 17.5309C136.369 19.0493 136.649 19.2089 138.048 19.2089V20.0879H129.937V19.2089C132.414 19.2089 132.654 19.0092 132.055 17.5309L130.057 12.3768H123.984L122.186 17.371C121.626 18.8893 122.505 19.2089 124.663 19.2089V20.1279H124.623H124.623ZM124.343 11.3777H129.617L126.9 4.42573L124.343 11.3777ZM139.406 20.1279V19.249C141.164 19.249 141.764 19.0891 141.764 17.5709V3.30702C141.764 1.78864 141.164 1.62872 139.406 1.62872V0.749773H147.677V1.62896C145.919 1.62896 145.359 1.78888 145.359 3.30726V17.691C145.359 18.9694 145.999 19.1293 147.037 19.1293H148.036C151.792 19.1293 152.991 18.57 154.03 14.2949L154.749 14.3747L154.149 20.0884H139.406V20.1284V20.1279ZM179.681 0.749773L179.761 6.38335H179.041C178.642 2.22812 177.643 1.70904 173.927 1.70904H172.728V17.5311C172.728 19.0495 173.288 19.2492 175.685 19.2492V20.1282H166.176V19.2492C168.573 19.2492 169.172 19.0095 169.172 17.5311V1.7088H167.974C164.258 1.7088 163.259 2.22812 162.86 6.38335H162.141L162.22 0.749773H179.681ZM181.558 20.1282V19.249C183.317 19.249 183.916 19.0891 183.916 17.5709V3.30702C183.916 1.78864 183.317 1.62872 181.558 1.62872V0.749773H189.869V1.62896C188.111 1.62896 187.512 1.78888 187.512 3.30726V17.5711C187.512 19.0893 188.111 19.2492 189.869 19.2492V20.1282H181.558ZM214.881 0.749538V1.62896C213.123 1.62896 212.364 1.70904 212.524 3.26722L214.042 17.651C214.202 19.1293 214.761 19.289 216.519 19.289V20.1682H208.248V19.289C209.967 19.289 210.566 19.1293 210.446 17.651L208.888 2.54748L202.775 20.4873H202.535L196.541 2.50791L195.103 17.6107C194.943 19.1291 195.982 19.2888 197.74 19.2888V20.168H191.267V19.2888C193.025 19.2888 193.625 19.0092 193.744 17.6107L195.263 3.22695C195.423 1.7088 194.663 1.58892 192.905 1.58892V0.749773H199.698L203.773 13.9748L208.168 0.749773H214.88L214.881 0.749538ZM230.344 13.0158H229.625C229.425 11.0181 229.265 10.6582 226.748 10.6582H223.791V17.6906C223.791 18.9689 224.43 19.1289 225.469 19.1289H227.067C230.823 19.1289 232.021 18.5695 233.06 14.2944L233.78 14.3742L233.1 20.0879H217.838V19.2087C219.595 19.2087 220.195 19.049 220.195 17.5306V3.30702C220.195 1.78864 219.595 1.62872 217.837 1.62872V0.749773H232.501L232.581 5.58424H231.862C231.422 2.14804 230.543 1.7486 226.707 1.7486H223.831V9.6196H226.787C229.304 9.6196 229.464 9.22016 229.664 7.2225H230.383V13.016H230.343L230.344 13.0158ZM245.766 16.1321C245.766 14.3742 244.647 13.4953 242.73 12.4164L239.653 10.8181C237.336 9.57956 235.977 8.2211 235.977 5.78396C235.977 2.74767 238.574 0.430176 241.97 0.430176C244.288 0.430176 245.486 1.54888 246.166 1.54888C246.605 1.54888 246.805 1.26932 247.005 0.709971H247.564L247.844 6.14383L247.124 6.18387C246.725 3.54654 244.847 1.50885 242.21 1.50885C240.212 1.50885 238.894 2.70763 238.894 4.38569C238.894 6.22367 240.292 6.98275 241.85 7.8219L244.487 9.22016C246.965 10.5786 248.723 11.9371 248.723 14.5341C248.723 17.9703 245.766 20.4077 242.09 20.4077C239.493 20.4077 238.215 19.1689 237.535 19.1689C237.096 19.1689 236.856 19.5686 236.656 20.168H236.097L235.697 14.4143L236.417 14.3344C236.976 17.9303 239.453 19.4087 241.93 19.4087C244.008 19.3686 245.766 18.4499 245.766 16.1326L245.766 16.1321Z" fill="#231F20"/>
</svg>
