<svg width="85" height="22" viewBox="0 0 85 22" fill="none" xmlns="http://www.w3.org/2000/svg">
<path d="M5.49964 4.56182L5.55152 8.14122H5.65527C6.38152 6.11808 8.19716 4.45807 10.8428 4.45807C14.2666 4.45807 15.3041 6.16995 15.3041 9.4381V15.8706C15.3041 17.8419 15.4078 19.865 15.8747 21.3694H10.324C10.7909 19.9169 10.8428 18.1532 10.8428 16.0263V9.90498C10.8428 8.40059 10.2722 7.72621 8.61216 7.72621C7.36715 7.72621 6.4334 8.08934 5.70714 8.71184V16.0781C5.70714 18.205 5.75902 19.9688 6.2259 21.4213H0.727113C1.24587 19.9169 1.29774 17.8419 1.29774 15.9225V9.90498C1.29774 8.29684 0.727113 6.84433 0.0527344 6.11808L5.49964 4.56182ZM25.4198 18.205V12.1875C25.0566 12.7062 24.6416 13.0175 23.4485 13.5362C21.8922 14.3144 21.3216 15.1444 21.3216 16.8563C21.3216 18.3088 22.1516 19.2425 23.3966 19.2425C24.6416 19.2944 25.0566 18.8275 25.4198 18.205ZM23.9673 4.50994C28.221 4.50994 29.8292 6.22183 29.8292 9.69747V16.96C29.8292 18.2569 30.3479 18.6719 31.3854 18.6719C31.5411 18.6719 32.1117 18.5682 32.2673 18.4125C32.1636 18.9313 32.1117 19.1907 32.0079 19.45C31.4892 20.9025 30.6073 21.7325 28.8435 21.7325C26.7166 21.7325 25.6791 20.2282 25.6273 18.7238H25.5754C24.8491 20.8507 23.5004 21.7325 21.3216 21.7325C18.676 21.7325 16.9641 20.1244 16.9641 17.6344C16.9641 14.9888 19.3504 13.8475 21.8404 12.9137C24.2266 11.98 25.4716 11.3056 25.4716 9.59372V9.2306C25.4716 7.36309 24.901 6.42933 23.1373 6.42933C22.0479 6.42933 21.6329 6.94808 21.4254 7.98559C21.0622 9.59372 20.4397 10.1644 19.4022 10.1644C18.4685 10.1644 17.5866 9.54185 17.5866 8.34872C17.4828 6.0662 20.6991 4.50994 23.9673 4.50994ZM41.9161 19.5538C41.3455 20.8507 39.9449 21.7325 37.9736 21.7325C34.6017 21.7325 33.2529 20.0207 33.2529 16.9081V7.15558H31.6448V7.05183L37.5067 0.982422L37.6105 1.0343V4.87307H41.8642L41.4492 7.20746H37.6623V16.2338C37.6623 17.9457 38.3886 18.6719 39.9449 18.6719C41.138 18.6719 41.7605 18.5163 42.3311 18.205C42.1755 18.7757 42.1236 19.0869 41.9161 19.5538ZM47.9855 4.76932V16.1819C47.9855 17.8938 48.6599 18.8275 50.3199 18.8275C51.7206 18.8275 52.7581 18.3607 53.3806 17.5825V9.8531C53.3806 8.14122 53.2249 6.74058 52.6543 5.28807L57.7381 4.76932V16.4413C57.7381 19.035 57.9975 20.1763 58.4125 21.4213H53.4324V18.1013H53.3806C52.6543 20.2282 51.3055 21.7325 48.4524 21.7325C44.873 21.7325 43.5243 19.5538 43.5243 16.3375V9.8531C43.5243 8.14122 43.3686 6.74058 42.798 5.28807L47.9855 4.76932ZM64.6894 8.71184C65.4156 5.6512 66.8163 4.45807 68.6838 4.45807C70.3957 4.45807 71.2775 5.33995 71.2775 6.74058C71.2775 7.98559 70.5513 9.0231 69.2544 9.0231C68.4763 9.0231 68.0094 8.65997 67.6981 8.34872C67.335 7.98559 67.0756 7.62246 66.6606 7.62246C65.7788 7.62246 64.7931 9.12685 64.7931 11.6169V15.7669C64.7931 17.79 64.9488 19.8132 65.3638 21.3694H59.865C60.3837 19.865 60.4356 17.79 60.4356 15.8706V9.90498C60.4356 8.29684 59.865 6.84433 59.1906 6.11808L64.5856 4.56182L64.6375 4.61369V8.76372L64.6894 8.71184ZM75.1163 11.15L80.667 10.6312C80.6151 7.98559 80.2001 6.42933 78.3845 6.42933C76.517 6.48121 75.4276 7.98559 75.1163 11.15ZM78.4363 21.7325C74.1826 21.7325 70.7069 18.9313 70.7069 13.5362C70.7069 8.08934 74.0269 4.40619 78.5401 4.40619C82.7939 4.40619 84.817 7.10371 84.817 12.2394H75.1163V12.7581C75.1163 16.8563 77.2432 18.5163 80.1482 18.5163C82.7939 18.5163 83.9351 17.4788 84.7132 16.7006L84.817 16.96C84.0907 19.45 82.1195 21.7325 78.4363 21.7325Z" fill="black"/>
</svg>
