<svg width="91" height="24" viewBox="0 0 91 24" fill="none" xmlns="http://www.w3.org/2000/svg">
<path d="M9.66375 2.56846H11.6327C12.8317 2.39182 14.0563 2.54712 15.1733 3.01752C16.5747 3.86063 17.5911 5.21795 18.0058 6.79994C18.2994 7.62897 18.2994 7.62897 19.0075 7.33535H19.5602V0.772241H1.02807V1.92942H1.78801C2.11825 1.92713 2.4448 1.99886 2.74368 2.13934C3.04256 2.27981 3.30617 2.48546 3.51515 2.74117C4.22327 3.88108 4.34417 5.15916 4.34417 11.8086C4.34417 18.8726 4.18873 20.5997 3.51515 21.4806C3.34886 21.707 3.13356 21.893 2.88534 22.0246C2.63712 22.1562 2.36237 22.23 2.08162 22.2405C1.02807 22.4305 1.02807 22.4132 1.02807 22.8796C0.969809 23.0355 0.969809 23.2072 1.02807 23.3632H12.7208C12.7982 23.2106 12.8385 23.042 12.8385 22.8709C12.8385 22.6999 12.7982 22.5312 12.7208 22.3787C12.4376 22.2999 12.1489 22.2422 11.8572 22.206C11.5416 22.1685 11.2297 22.1049 10.9246 22.016C10.4876 21.697 10.1415 21.2695 9.92036 20.7758C9.69924 20.2821 9.61079 19.7392 9.66375 19.2008C9.49103 18.0609 9.40468 15.971 9.40468 14.2439V12.8795H10.0955C10.9563 12.8531 11.8165 12.9461 12.6517 13.1558C13.0518 13.4031 13.3924 13.7356 13.6492 14.1297C13.9059 14.5238 14.0725 14.9697 14.137 15.4356L14.2925 15.971H15.346V8.31982H14.3788L14.2234 9.06249C14.158 9.53895 13.9817 9.99342 13.7087 10.3894C13.4358 10.7853 13.0737 11.1117 12.6517 11.3423C12.243 11.4639 11.8124 11.4934 11.3909 11.4287H9.40468V9.56336C9.40468 7.62897 9.5083 3.55293 9.57739 2.91389L9.66375 2.56846ZM90.4937 16.2646C89.6773 14.9507 88.4039 13.9849 86.9185 13.553C85.7797 13.1971 84.7271 12.609 83.8269 11.8259C83.6244 11.63 83.4728 11.3875 83.3855 11.1196C83.2982 10.8516 83.2778 10.5664 83.326 10.2888C83.3274 9.74417 83.5448 9.22237 83.9305 8.83796C84.192 8.56414 84.5229 8.36648 84.8879 8.26609C85.253 8.16571 85.6384 8.16637 86.0031 8.26801C86.7581 8.48319 87.4409 8.8986 87.9791 9.47022C88.5173 10.0418 88.8908 10.7484 89.0601 11.515C89.3365 12.2922 89.371 12.2922 89.8719 12.085L90.1828 11.9641V7.66351L89.9582 7.55988C88.2579 6.96269 86.4542 6.71593 84.6559 6.83448C83.1073 6.87372 81.6291 7.48964 80.5108 8.56162C80.0036 9.03639 79.6064 9.61629 79.3468 10.2607C79.0872 10.9051 78.9717 11.5985 79.0082 12.2922C79.0179 13.3529 79.439 14.3684 80.1827 15.1247C81.0045 15.933 82.013 16.5262 83.1188 16.8519C85.7958 17.9054 86.5731 18.579 86.5731 19.8053C86.5845 20.3224 86.4198 20.828 86.106 21.2392C85.7921 21.6503 85.3478 21.9425 84.8459 22.0678C84.2429 22.2003 83.6182 22.2003 83.0152 22.0678C82.2256 21.7614 81.5206 21.2708 80.9588 20.6369C80.3971 20.0031 79.9948 19.2442 79.7854 18.4236L79.5609 17.8709H79.25C79.1014 17.8819 78.9556 17.9169 78.8182 17.9745H78.6455V22.8796H78.9391C80.106 23.2677 81.3099 23.534 82.5316 23.674H84.2587C85.0077 23.729 85.7607 23.659 86.4867 23.4668C87.4084 23.2967 88.2696 22.8884 88.9847 22.2824C89.6997 21.6764 90.2438 20.8939 90.5627 20.0125C90.7688 19.5203 90.8745 18.9918 90.8736 18.4581C90.9417 17.7063 90.8106 16.9498 90.4937 16.2646ZM74.224 7.33535C73.1891 6.90082 72.0739 6.69004 70.9518 6.71683C69.8296 6.74362 68.7258 7.00738 67.7127 7.4908C66.7605 7.95658 65.9165 8.61685 65.2353 9.429C64.554 10.2412 64.0506 11.1871 63.7576 12.2059C63.384 13.3172 63.2258 14.4895 63.2913 15.6601C63.2789 16.297 63.331 16.9336 63.4467 17.56C63.7256 19.1003 64.4692 20.5183 65.5776 21.6236C66.686 22.7289 68.1061 23.4685 69.6471 23.7431C70.6507 23.8696 71.6661 23.8696 72.6696 23.7431C73.711 23.5596 74.7076 23.1785 75.6058 22.6205C76.3487 22.204 76.9775 21.6108 77.4365 20.8934C77.4071 20.7808 77.3552 20.6753 77.2839 20.5833C77.2127 20.4913 77.1236 20.4147 77.022 20.358C76.8249 20.4293 76.6388 20.5282 76.4693 20.6516C75.6103 21.2177 74.5959 21.5015 73.5677 21.4633C72.8853 21.5094 72.2012 21.4032 71.5649 21.1523C70.9287 20.9014 70.3562 20.512 69.8889 20.0125C69.5275 19.6768 69.2292 19.279 69.0081 18.8381C68.4714 17.7644 68.1822 16.584 68.1618 15.3838V14.7102H77.7301V14.3648C77.7513 14.0197 77.7513 13.6736 77.7301 13.3285C77.7267 12.109 77.4005 10.9121 76.7847 9.85947C76.1689 8.80684 75.2854 7.93597 74.224 7.33535ZM69.4053 13.3112H68.1963V12.2922C68.5936 9.68426 69.578 8.12984 70.787 8.12984C71.996 8.12984 72.5142 9.66699 72.7387 12.4822V13.2767H71.7024L69.4053 13.3112ZM44.5691 6.7654C43.9723 6.74225 43.3791 6.86684 42.842 7.1281C41.6747 7.69499 40.7318 8.63784 40.1649 9.80516L39.9404 10.2197V6.7654H39.8541C39.6468 6.7654 33.2564 8.04348 33.0492 8.12984C32.8419 8.21619 32.911 8.23346 32.911 8.54435C32.911 8.85523 32.911 8.90705 33.0492 8.92432L33.7227 9.06249C33.9114 9.06712 34.0965 9.11462 34.2641 9.2014C34.4317 9.28818 34.5773 9.41196 34.6899 9.56336C35.1217 10.1333 35.2081 11.1351 35.2081 15.4011C35.2934 17.3216 35.2125 19.2459 34.9663 21.1524C34.9083 21.4399 34.7625 21.7023 34.5491 21.9034C34.3356 22.1045 34.065 22.2344 33.7745 22.2751L33.1873 22.396H32.9628V22.8796C32.9001 23.0406 32.9001 23.2194 32.9628 23.3804H42.6175V22.8796C42.651 22.7143 42.651 22.544 42.6175 22.3787C42.0362 22.356 41.4581 22.2809 40.8903 22.1542C40.5812 21.9924 40.3282 21.7409 40.1648 21.4326C40.0014 21.1243 39.9352 20.7737 39.975 20.427C39.8368 19.4253 39.7677 16.4892 39.8022 14.2439C39.8368 11.9986 39.8022 11.8604 39.9922 11.705C40.5702 11.2619 41.2853 11.0357 42.013 11.066C42.6989 11.0809 43.3723 11.2522 43.9819 11.5668C44.1933 11.6842 44.42 11.7714 44.6555 11.8259C44.6555 11.8259 46.3826 7.64624 46.3826 7.45625C46.1616 7.19942 45.88 7.00175 45.5634 6.88112C45.2467 6.76049 44.905 6.72072 44.5691 6.7654ZM32.9283 14.0194C32.868 12.7852 32.5136 11.5832 31.8948 10.5137C31.2759 9.44419 30.4104 8.53804 29.3704 7.87077C28.1344 7.204 26.7593 6.83636 25.3556 6.79737C23.9518 6.75837 22.5584 7.04911 21.2874 7.64624C19.4903 8.59388 18.1334 10.2048 17.5049 12.1368C16.8558 14.2999 16.8558 16.6059 17.5049 18.769C17.8452 19.9512 18.4813 21.0271 19.353 21.8951C20.4386 22.9544 21.8385 23.6332 23.3427 23.8295C24.3082 23.9102 25.2787 23.9102 26.2442 23.8295C26.5995 23.7754 26.9513 23.7005 27.2978 23.605C28.7036 23.2117 29.9684 22.4262 30.9441 21.3404C31.9198 20.2546 32.5661 18.9134 32.8074 17.4736C32.9798 16.3306 33.0203 15.1716 32.9283 14.0194ZM25.7434 22.655C24.0162 23.1732 22.7209 21.4979 22.2891 17.9745C22.1305 16.1299 22.1305 14.275 22.2891 12.4304C22.6345 9.5979 23.5154 8.16438 24.8798 8.16438C25.1551 8.14732 25.4304 8.19643 25.6828 8.30761C25.9353 8.41879 26.1574 8.5888 26.3306 8.80342C27.4878 9.9606 28.0577 12.2577 28.0577 15.712C28.2014 17.6669 27.8942 19.6287 27.1596 21.446C26.8353 21.9761 26.3334 22.3739 25.7434 22.5687V22.655ZM56.8318 7.11083C56.3445 7.04811 55.8511 7.04811 55.3637 7.11083C54.4282 7.11003 53.5035 7.31029 52.6521 7.69805L52.1167 7.92258V4.1747C52.2103 2.90986 52.2103 1.63984 52.1167 0.375C51.9095 0.375 45.3118 1.63581 45.2082 1.68762C45.1572 1.81514 45.1572 1.95735 45.2082 2.08486C45.2082 2.44756 45.2082 2.43029 45.9854 2.603C46.2036 2.65194 46.4132 2.73345 46.6072 2.8448C46.9443 3.16183 47.1687 3.58028 47.2462 4.03653C47.4429 5.35091 47.5065 6.68178 47.4362 8.00894V23.1732L47.9025 23.2768C48.5934 23.4323 50.545 23.7604 51.1841 23.8295C52.4601 23.931 53.7422 23.931 55.0183 23.8295C56.4347 23.6848 57.7847 23.1564 58.923 22.3012C60.0612 21.446 60.9446 20.2964 61.4778 18.9762C61.7957 18.129 62.0159 17.2482 62.1341 16.351C62.2369 15.1357 62.1963 13.9125 62.0132 12.7067C61.8279 11.3551 61.2314 10.0932 60.3045 9.09215C59.3776 8.0911 58.1652 7.39939 56.8318 7.11083ZM52.3067 22.3614C52.3067 22.1369 52.134 14.5721 52.1685 11.5496V9.18339L52.6694 9.06249C53.0073 9.01407 53.3505 9.01407 53.6884 9.06249C54.0622 9.02449 54.4381 9.10938 54.7592 9.30429C55.4042 9.74944 55.9398 10.3351 56.3258 11.0172C56.7117 11.6993 56.9379 12.46 56.9872 13.2422C57.1131 14.4998 57.1131 15.7669 56.9872 17.0246C56.8839 18.8525 56.1796 20.5951 54.9838 21.9815C54.6444 22.3038 54.2181 22.52 53.7575 22.6032C53.4089 22.6638 53.0525 22.6638 52.7039 22.6032C52.3758 22.6032 52.3758 22.4996 52.3758 22.3614H52.3067Z" fill="#33629A"/>
</svg>
