<svg width="56" height="24" viewBox="0 0 56 24" fill="none" xmlns="http://www.w3.org/2000/svg">
<g clip-path="url(#clip0_34639_2294)">
<path d="M55.3196 23.1413L47.0088 0.168945H38.4088L36.9629 4.35293C38.5304 6.35828 39.4654 8.88614 39.4654 11.6341C39.4654 17.1919 35.6365 21.8521 30.4813 23.1031L30.4688 23.1413H39.1792C39.1792 23.1413 42.8626 9.28534 42.8803 9.23105C42.8803 9.22936 42.8803 9.22884 42.8803 9.22884L42.8822 9.2301L42.8803 9.23105C42.9395 9.44432 46.6091 23.1413 46.6091 23.1413H55.3196Z" fill="#1330BF"/>
<path d="M24.8089 0.196533H16.4645C16.4645 0.196533 12.7888 13.9028 12.734 14.1076V14.1089H12.733C12.733 14.1089 12.733 14.1089 12.734 14.1076C12.7209 14.0748 9.03093 0.196533 9.03093 0.196533H0.320312L8.26217 23.1691H16.8628L18.4217 18.8609C16.8784 16.864 15.9588 14.3567 15.9588 11.6341C15.9588 6.12261 19.7217 1.49398 24.8089 0.196533Z" fill="#1330BF"/>
<path d="M27.7129 6.19922C24.7262 6.19922 22.3027 8.63323 22.3027 11.634C22.3027 14.6332 24.7262 17.0642 27.7129 17.0642C30.7021 17.0642 33.1265 14.6332 33.1265 11.634C33.1266 8.63323 30.7021 6.19922 27.7129 6.19922Z" fill="#1330BF"/>
</g>
<defs>
<clipPath id="clip0_34639_2294">
<rect width="55" height="23" fill="white" transform="translate(0.320312 0.168945)"/>
</clipPath>
</defs>
</svg>
