<svg width="24" height="24" viewBox="0 0 24 24" fill="none" xmlns="http://www.w3.org/2000/svg">
<path d="M5.89589 17.0173C6.52977 16.578 7.29012 15.9145 8.2104 14.9529C8.9726 14.1565 9.72766 13.3676 10.4041 12.6048C11.9546 10.8563 10.5687 9.80501 8.69291 11.1807L5.85133 13.2647C4.07258 14.5692 4.08395 18.2732 5.89589 17.0173Z" fill="white"/>
<path d="M18.922 5.78193C18.2881 6.22129 17.5278 6.88478 16.6075 7.84634C15.8453 8.64271 15.0902 9.43162 14.4138 10.1945C12.8633 11.9429 14.2492 12.9942 16.125 11.6185L18.9666 9.53457C20.7453 8.23005 20.734 4.52603 18.922 5.78193Z" fill="white"/>
<path d="M18.4399 10.7376L15.408 8.51891M18.4399 10.7376C19.1723 9.92197 19.5538 8.89175 19.732 7.85988M18.4399 10.7376C17.7075 11.5532 16.8121 11.945 15.9265 12.0978M19.732 7.85988C20.1256 5.58016 19.5269 3.29233 19.5269 3.29233M19.732 7.85988L17.531 6.39587M15.9265 12.0978C13.9699 12.4355 12.0606 11.607 12.0606 11.607C12.0606 11.607 10.0371 10.729 8.02161 11.1492M15.9265 12.0978L13.7096 10.6419M5.6814 12.4764L7.91309 14.4985M5.6814 12.4764C4.99671 13.2389 4.61868 14.189 4.42675 15.1526M5.6814 12.4764C6.36608 11.7139 7.19317 11.3219 8.02161 11.1492M4.42675 15.1526L6.49122 16.5865M4.42675 15.1526C4.30129 15.7825 4.25535 16.4182 4.25525 17.0111M8.02161 11.1492L9.91309 12.4985" stroke="#1A2530" stroke-width="1.25" stroke-linecap="round"/>
<path d="M12.3078 17.6621L9.46299 15.3131M12.3078 17.6621C11.5875 18.4872 10.5789 19.027 9.53161 19.3792M12.3078 17.6621C13.0281 16.8371 13.2753 15.9384 13.2743 15.0921M9.53161 19.3792C7.21792 20.1572 4.71541 20.0195 4.71541 20.0195M9.53161 19.3792L7.76456 17.8607M13.2743 15.0921C13.2721 13.2224 12.0584 11.6084 12.0584 11.6084C12.0584 11.6084 10.7721 9.89778 10.8455 7.95865M13.2743 15.0921L11.1614 13.6146M11.809 5.55465L14.381 7.56398M11.809 5.55465C12.4824 4.78331 13.4077 4.26133 14.381 3.90886M11.809 5.55465C11.1356 6.32598 10.8757 7.16162 10.8455 7.95865M14.381 3.90886L15.9131 5.44092M14.381 3.90886C15.2925 3.5788 16.2461 3.3974 17.0744 3.29913M10.8455 7.95865L12.8599 9.36857" stroke="#1A2530" stroke-width="1.25" stroke-linecap="round"/>
</svg>
