<svg width="354" height="313" viewBox="0 0 354 313" fill="none" xmlns="http://www.w3.org/2000/svg">
<mask id="mask0" style="mask-type:alpha" maskUnits="userSpaceOnUse" x="0" y="15" width="354" height="296">
<rect x="0.366511" y="15.3665" width="353.267" height="295.267" rx="6.9637" fill="white" stroke="#E4EBF2" stroke-width="0.733021"/>
</mask>
<g mask="url(#mask0)">
<rect x="118.337" y="293.941" width="99.6909" height="68.171" fill="white"/>
<path d="M150.59 31.7862V42.7446C150.59 43.0227 150.364 43.2482 150.086 43.2482H139.365C139.087 43.2482 138.861 43.0227 138.861 42.7446V28.3583C138.861 28.0802 139.087 27.8547 139.365 27.8547H150.086C150.364 27.8547 150.59 28.0802 150.59 28.3583V31.1971" fill="white"/>
<path d="M150.59 31.7862V42.7446C150.59 43.0227 150.364 43.2482 150.086 43.2482H139.365C139.087 43.2482 138.861 43.0227 138.861 42.7446V28.3583C138.861 28.0802 139.087 27.8547 139.365 27.8547H150.086C150.364 27.8547 150.59 28.0802 150.59 28.3583V31.1971" stroke="#1C2329" stroke-width="0.698228" stroke-miterlimit="10"/>
<path d="M199.702 31.7862V42.7446C199.702 43.0227 199.476 43.2482 199.198 43.2482H188.477C188.199 43.2482 187.974 43.0227 187.974 42.7446V28.3583C187.974 28.0802 188.199 27.8547 188.477 27.8547H199.198C199.476 27.8547 199.702 28.0802 199.702 28.3583V31.1971" fill="white"/>
<path d="M199.702 31.7862V42.7446C199.702 43.0227 199.476 43.2482 199.198 43.2482H188.477C188.199 43.2482 187.974 43.0227 187.974 42.7446V28.3583C187.974 28.0802 188.199 27.8547 188.477 27.8547H199.198C199.476 27.8547 199.702 28.0802 199.702 28.3583V31.1971" stroke="#1C2329" stroke-width="0.698228" stroke-miterlimit="10"/>
<path d="M174.047 173.586V179.086C174.047 179.365 173.821 179.59 173.543 179.59H162.822C162.544 179.59 162.318 179.365 162.318 179.086V172.03C162.318 171.752 162.544 171.527 162.822 171.527H173.543C173.821 171.527 174.047 171.752 174.047 172.03V173.278" fill="white"/>
<path d="M174.047 173.586V179.086C174.047 179.365 173.821 179.59 173.543 179.59H162.822C162.544 179.59 162.318 179.365 162.318 179.086V172.03C162.318 171.752 162.544 171.527 162.822 171.527H173.543C173.821 171.527 174.047 171.752 174.047 172.03V173.278" stroke="#1C2329" stroke-width="0.698228" stroke-miterlimit="10"/>
<path d="M174.047 247.031V272.18C174.047 272.458 173.821 272.684 173.543 272.684H162.822C162.544 272.684 162.318 272.458 162.318 272.18V238.735C162.318 238.457 162.544 238.232 162.822 238.232H173.543C173.821 238.232 174.047 238.457 174.047 238.735V245.712" fill="white"/>
<path d="M174.047 247.031V272.18C174.047 272.458 173.821 272.684 173.543 272.684H162.822C162.544 272.684 162.318 272.458 162.318 272.18V238.735C162.318 238.457 162.544 238.232 162.822 238.232H173.543C173.821 238.232 174.047 238.457 174.047 238.735V245.712" stroke="#1C2329" stroke-width="0.698228" stroke-miterlimit="10"/>
<path d="M174.047 278.113V293.438C174.047 293.716 173.821 293.941 173.543 293.941H162.822C162.544 293.941 162.318 293.716 162.318 293.438V273.187C162.318 272.909 162.544 272.684 162.822 272.684H173.543C173.821 272.684 174.047 272.909 174.047 273.187V277.299" fill="white"/>
<path d="M174.047 278.113V293.438C174.047 293.716 173.821 293.941 173.543 293.941H162.822C162.544 293.941 162.318 293.716 162.318 293.438V273.187C162.318 272.909 162.544 272.684 162.822 272.684H173.543C173.821 272.684 174.047 272.909 174.047 273.187V277.299" stroke="#1C2329" stroke-width="0.698228" stroke-miterlimit="10"/>
<circle cx="168.235" cy="267.5" r="22.4281" fill="white" stroke="#1C2329" stroke-width="0.69637"/>
<circle opacity="0.5" cx="168.368" cy="267.696" r="7.78258" transform="rotate(-30 168.368 267.696)" fill="url(#paint0_linear)"/>
<circle cx="168.368" cy="267.696" r="7.78258" transform="rotate(-30 168.368 267.696)" fill="white"/>
<path d="M128.682 179.59L119.803 179.59C118.993 179.59 118.336 180.246 118.336 181.056L118.336 229.436C118.336 230.245 118.993 230.902 119.803 230.902L216.561 230.902C217.371 230.902 218.027 230.245 218.027 229.436L218.027 181.056C218.027 180.246 217.371 179.59 216.561 179.59L131.503 179.59" stroke="#1C2329" stroke-width="0.698228" stroke-miterlimit="10"/>
<path d="M128.682 293.941L120.351 293.941C119.238 293.941 118.336 294.843 118.336 295.956L118.336 360.098C118.336 361.21 119.238 362.112 120.351 362.112L216.013 362.112C217.125 362.112 218.027 361.21 218.027 360.098L218.027 295.956C218.027 294.843 217.125 293.941 216.013 293.941L131.503 293.941" stroke="#1C2329" stroke-width="0.698228" stroke-miterlimit="10"/>
<g style="mix-blend-mode:multiply">
<mask id="path-18-inside-1" fill="white">
<rect x="132.044" y="182.522" width="8.95728" height="8.95728" rx="0.503611"/>
</mask>
<rect x="132.044" y="182.522" width="8.95728" height="8.95728" rx="0.503611" stroke="#1C2329" stroke-width="1.39646" stroke-dasharray="0.91 0.91" mask="url(#path-18-inside-1)"/>
</g>
<g style="mix-blend-mode:multiply">
<mask id="path-19-inside-2" fill="white">
<rect x="172.58" y="185.675" width="8.95728" height="8.95728" rx="0.503611"/>
</mask>
<rect x="172.58" y="185.675" width="8.95728" height="8.95728" rx="0.503611" stroke="#1C2329" stroke-width="1.39646" stroke-dasharray="0.91 0.91" mask="url(#path-19-inside-2)"/>
</g>
<g style="mix-blend-mode:multiply">
<mask id="path-20-inside-3" fill="white">
<rect x="193.601" y="191.983" width="8.95728" height="8.95728" rx="0.503611"/>
</mask>
<rect x="193.601" y="191.983" width="8.95728" height="8.95728" rx="0.503611" stroke="#1C2329" stroke-width="1.39646" stroke-dasharray="0.91 0.91" mask="url(#path-20-inside-3)"/>
</g>
<g style="mix-blend-mode:multiply">
<mask id="path-21-inside-4" fill="white">
<rect x="153.072" y="190.932" width="8.95728" height="8.95728" rx="0.503611"/>
</mask>
<rect x="153.072" y="190.932" width="8.95728" height="8.95728" rx="0.503611" stroke="#1C2329" stroke-width="1.39646" stroke-dasharray="0.91 0.91" mask="url(#path-21-inside-4)"/>
</g>
<g style="mix-blend-mode:multiply">
<mask id="path-22-inside-5" fill="white">
<rect x="124.683" y="217.003" width="8.95728" height="8.95728" rx="0.503611"/>
</mask>
<rect x="124.683" y="217.003" width="8.95728" height="8.95728" rx="0.503611" stroke="#1C2329" stroke-width="1.39274" stroke-dasharray="0.91 0.91" mask="url(#path-22-inside-5)"/>
</g>
<g style="mix-blend-mode:multiply">
<mask id="path-23-inside-6" fill="white">
<rect x="135.88" y="217.003" width="8.95728" height="8.95728" rx="0.503611"/>
</mask>
<rect x="135.88" y="217.003" width="8.95728" height="8.95728" rx="0.503611" stroke="#1C2329" stroke-width="1.39274" stroke-dasharray="0.91 0.91" mask="url(#path-23-inside-6)"/>
</g>
<g style="mix-blend-mode:multiply">
<mask id="path-24-inside-7" fill="white">
<rect x="147.075" y="217.003" width="8.95728" height="8.95728" rx="0.503611"/>
</mask>
<rect x="147.075" y="217.003" width="8.95728" height="8.95728" rx="0.503611" stroke="#1C2329" stroke-width="1.39274" stroke-dasharray="0.91 0.91" mask="url(#path-24-inside-7)"/>
</g>
<g style="mix-blend-mode:multiply">
<mask id="path-25-inside-8" fill="white">
<rect x="158.27" y="217.003" width="8.95728" height="8.95728" rx="0.503611"/>
</mask>
<rect x="158.27" y="217.003" width="8.95728" height="8.95728" rx="0.503611" stroke="#1C2329" stroke-width="1.39274" stroke-dasharray="0.91 0.91" mask="url(#path-25-inside-8)"/>
</g>
<g style="mix-blend-mode:multiply">
<mask id="path-26-inside-9" fill="white">
<rect x="169.468" y="217.003" width="8.95728" height="8.95728" rx="0.503611"/>
</mask>
<rect x="169.468" y="217.003" width="8.95728" height="8.95728" rx="0.503611" stroke="#1C2329" stroke-width="1.39274" stroke-dasharray="0.91 0.91" mask="url(#path-26-inside-9)"/>
</g>
<g style="mix-blend-mode:multiply">
<mask id="path-27-inside-10" fill="white">
<rect x="180.669" y="217.003" width="8.95728" height="8.95728" rx="0.503611"/>
</mask>
<rect x="180.669" y="217.003" width="8.95728" height="8.95728" rx="0.503611" stroke="#1C2329" stroke-width="1.39274" stroke-dasharray="0.91 0.91" mask="url(#path-27-inside-10)"/>
</g>
<g style="mix-blend-mode:multiply">
<mask id="path-28-inside-11" fill="white">
<rect x="191.866" y="217.003" width="8.95728" height="8.95728" rx="0.503611"/>
</mask>
<rect x="191.866" y="217.003" width="8.95728" height="8.95728" rx="0.503611" stroke="#1C2329" stroke-width="1.39274" stroke-dasharray="0.91 0.91" mask="url(#path-28-inside-11)"/>
</g>
<g style="mix-blend-mode:multiply">
<mask id="path-29-inside-12" fill="white">
<rect x="203.058" y="217.003" width="8.95728" height="8.95728" rx="0.503611"/>
</mask>
<rect x="203.058" y="217.003" width="8.95728" height="8.95728" rx="0.503611" stroke="#1C2329" stroke-width="1.39274" stroke-dasharray="0.91 0.91" mask="url(#path-29-inside-12)"/>
</g>
<g style="mix-blend-mode:multiply">
<mask id="path-30-inside-13" fill="white">
<rect x="124.683" y="205.246" width="8.95728" height="8.95728" rx="0.503611"/>
</mask>
<rect x="124.683" y="205.246" width="8.95728" height="8.95728" rx="0.503611" stroke="#1C2329" stroke-width="1.39274" stroke-dasharray="0.91 0.91" mask="url(#path-30-inside-13)"/>
</g>
<path d="M127.734 213.047C129.073 212.987 132.18 213.498 132.238 212.03C132.271 211.18 132.04 210.949 130.847 210.629C129.654 210.309 125.883 210.853 125.836 212.047C125.794 213.135 126.395 213.108 127.734 213.047Z" fill="url(#paint1_linear)"/>
<path d="M127.734 224.948C129.073 224.888 132.18 225.399 132.238 223.931C132.271 223.081 132.04 222.85 130.847 222.53C129.654 222.211 125.883 222.754 125.836 223.949C125.794 225.036 126.395 225.009 127.734 224.948Z" fill="url(#paint2_linear)"/>
<path d="M139.12 213.047C140.459 212.987 143.566 213.498 143.623 212.03C143.657 211.18 143.426 210.949 142.233 210.629C141.04 210.309 137.268 210.853 137.222 212.047C137.179 213.135 137.781 213.108 139.12 213.047Z" fill="url(#paint3_linear)"/>
<path d="M139.12 224.948C140.459 224.888 143.566 225.399 143.623 223.931C143.657 223.081 143.426 222.85 142.233 222.53C141.04 222.211 137.268 222.754 137.222 223.949C137.179 225.036 137.781 225.009 139.12 224.948Z" fill="url(#paint4_linear)"/>
<path d="M149.987 213.047C151.326 212.987 154.433 213.498 154.491 212.03C154.524 211.18 154.293 210.949 153.1 210.629C151.907 210.309 148.136 210.853 148.089 212.047C148.047 213.135 148.648 213.108 149.987 213.047Z" fill="url(#paint5_linear)"/>
<path d="M161.372 213.047C162.711 212.987 165.818 213.498 165.875 212.03C165.908 211.18 165.678 210.949 164.485 210.629C163.292 210.309 159.52 210.853 159.474 212.047C159.431 213.135 160.033 213.108 161.372 213.047Z" fill="url(#paint6_linear)"/>
<path d="M161.372 224.948C162.711 224.888 165.818 225.399 165.875 223.931C165.908 223.081 165.678 222.85 164.485 222.53C163.292 222.211 159.52 222.754 159.474 223.949C159.431 225.036 160.033 225.009 161.372 224.948Z" fill="url(#paint7_linear)"/>
<path d="M172.752 213.047C174.091 212.987 177.198 213.498 177.255 212.03C177.288 211.18 177.058 210.949 175.865 210.629C174.672 210.309 170.9 210.853 170.854 212.047C170.811 213.135 171.413 213.108 172.752 213.047Z" fill="url(#paint8_linear)"/>
<path d="M172.752 224.948C174.091 224.888 177.198 225.399 177.255 223.931C177.288 223.081 177.058 222.85 175.865 222.53C174.672 222.211 170.9 222.754 170.854 223.949C170.811 225.036 171.413 225.009 172.752 224.948Z" fill="url(#paint9_linear)"/>
<path d="M184.141 213.047C185.48 212.987 188.587 213.498 188.644 212.03C188.677 211.18 188.447 210.949 187.253 210.629C186.06 210.309 182.289 210.853 182.242 212.047C182.2 213.135 182.802 213.108 184.141 213.047Z" fill="url(#paint10_linear)"/>
<path d="M195.004 213.047C196.343 212.987 199.45 213.498 199.507 212.03C199.54 211.18 199.31 210.949 198.117 210.629C196.924 210.309 193.152 210.853 193.106 212.047C193.063 213.135 193.665 213.108 195.004 213.047Z" fill="url(#paint11_linear)"/>
<path d="M195.004 224.948C196.343 224.888 199.45 225.399 199.507 223.931C199.54 223.081 199.31 222.85 198.117 222.53C196.924 222.211 193.152 222.754 193.106 223.949C193.063 225.036 193.665 225.009 195.004 224.948Z" fill="url(#paint12_linear)"/>
<path d="M206.39 213.047C207.729 212.987 210.836 213.498 210.893 212.03C210.926 211.18 210.696 210.949 209.503 210.629C208.309 210.309 204.538 210.853 204.491 212.047C204.449 213.135 205.051 213.108 206.39 213.047Z" fill="url(#paint13_linear)"/>
<path d="M206.39 224.948C207.729 224.888 210.836 225.399 210.893 223.931C210.926 223.081 210.696 222.85 209.503 222.53C208.309 222.211 204.538 222.754 204.491 223.949C204.449 225.036 205.051 225.009 206.39 224.948Z" fill="url(#paint14_linear)"/>
<path d="M127.734 213.047C129.073 212.987 132.18 213.498 132.238 212.03C132.271 211.18 132.04 210.949 130.847 210.629C129.654 210.309 125.883 210.853 125.836 212.047C125.794 213.135 126.395 213.108 127.734 213.047Z" fill="white"/>
<path d="M127.734 224.949C129.073 224.888 132.18 225.399 132.238 223.932C132.271 223.081 132.04 222.85 130.847 222.531C129.654 222.211 125.883 222.755 125.836 223.949C125.794 225.036 126.395 225.009 127.734 224.949Z" fill="white"/>
<path d="M139.119 213.047C140.458 212.987 143.565 213.498 143.622 212.03C143.656 211.18 143.425 210.949 142.232 210.629C141.039 210.309 137.268 210.853 137.221 212.047C137.178 213.135 137.78 213.108 139.119 213.047Z" fill="white"/>
<path d="M139.119 224.949C140.458 224.888 143.565 225.399 143.622 223.932C143.656 223.081 143.425 222.85 142.232 222.531C141.039 222.211 137.268 222.755 137.221 223.949C137.178 225.036 137.78 225.009 139.119 224.949Z" fill="white"/>
<path d="M149.988 213.047C151.327 212.987 154.434 213.498 154.491 212.03C154.525 211.18 154.294 210.949 153.101 210.629C151.908 210.309 148.137 210.853 148.09 212.047C148.048 213.135 148.649 213.108 149.988 213.047Z" fill="white"/>
<path d="M161.373 213.047C162.712 212.987 165.819 213.498 165.876 212.03C165.909 211.18 165.679 210.949 164.486 210.629C163.293 210.309 159.521 210.853 159.475 212.047C159.432 213.135 160.034 213.108 161.373 213.047Z" fill="white"/>
<path d="M172.752 213.047C174.091 212.987 177.198 213.498 177.255 212.03C177.288 211.18 177.058 210.949 175.865 210.629C174.672 210.309 170.9 210.853 170.854 212.047C170.811 213.135 171.413 213.108 172.752 213.047Z" fill="white"/>
<path d="M184.14 213.047C185.479 212.987 188.586 213.498 188.643 212.03C188.676 211.18 188.446 210.949 187.253 210.629C186.059 210.309 182.288 210.853 182.241 212.047C182.199 213.135 182.801 213.108 184.14 213.047Z" fill="white"/>
<path d="M195.003 213.047C196.342 212.987 199.449 213.498 199.506 212.03C199.539 211.18 199.309 210.949 198.116 210.629C196.923 210.309 193.151 210.853 193.105 212.047C193.062 213.135 193.664 213.108 195.003 213.047Z" fill="white"/>
<path d="M195.003 224.949C196.342 224.888 199.449 225.399 199.506 223.932C199.539 223.081 199.309 222.85 198.116 222.531C196.923 222.211 193.151 222.755 193.105 223.949C193.062 225.036 193.664 225.009 195.003 224.949Z" fill="white"/>
<path d="M206.391 213.047C207.73 212.987 210.837 213.498 210.894 212.03C210.927 211.18 210.697 210.949 209.503 210.629C208.31 210.309 204.539 210.853 204.492 212.047C204.45 213.135 205.052 213.108 206.391 213.047Z" fill="white"/>
<path d="M206.391 224.949C207.73 224.888 210.837 225.399 210.894 223.932C210.927 223.081 210.697 222.85 209.503 222.531C208.31 222.211 204.539 222.755 204.492 223.949C204.45 225.036 205.052 225.009 206.391 224.949Z" fill="white"/>
<g style="mix-blend-mode:multiply">
<mask id="path-57-inside-14" fill="white">
<rect x="135.88" y="205.246" width="8.95728" height="8.95728" rx="0.503611"/>
</mask>
<rect x="135.88" y="205.246" width="8.95728" height="8.95728" rx="0.503611" stroke="#1C2329" stroke-width="1.39274" stroke-dasharray="0.91 0.91" mask="url(#path-57-inside-14)"/>
</g>
<g style="mix-blend-mode:multiply">
<mask id="path-58-inside-15" fill="white">
<rect x="147.075" y="205.246" width="8.95728" height="8.95728" rx="0.503611"/>
</mask>
<rect x="147.075" y="205.246" width="8.95728" height="8.95728" rx="0.503611" stroke="#1C2329" stroke-width="1.39274" stroke-dasharray="0.91 0.91" mask="url(#path-58-inside-15)"/>
</g>
<g style="mix-blend-mode:multiply">
<mask id="path-59-inside-16" fill="white">
<rect x="158.27" y="205.246" width="8.95728" height="8.95728" rx="0.503611"/>
</mask>
<rect x="158.27" y="205.246" width="8.95728" height="8.95728" rx="0.503611" stroke="#1C2329" stroke-width="1.39274" stroke-dasharray="0.91 0.91" mask="url(#path-59-inside-16)"/>
</g>
<g style="mix-blend-mode:multiply">
<mask id="path-60-inside-17" fill="white">
<rect x="169.468" y="205.246" width="8.95728" height="8.95728" rx="0.503611"/>
</mask>
<rect x="169.468" y="205.246" width="8.95728" height="8.95728" rx="0.503611" stroke="#1C2329" stroke-width="1.39274" stroke-dasharray="0.91 0.91" mask="url(#path-60-inside-17)"/>
</g>
<g style="mix-blend-mode:multiply">
<mask id="path-61-inside-18" fill="white">
<rect x="180.669" y="205.246" width="8.95728" height="8.95728" rx="0.503611"/>
</mask>
<rect x="180.669" y="205.246" width="8.95728" height="8.95728" rx="0.503611" stroke="#1C2329" stroke-width="1.39274" stroke-dasharray="0.91 0.91" mask="url(#path-61-inside-18)"/>
</g>
<g style="mix-blend-mode:multiply">
<mask id="path-62-inside-19" fill="white">
<rect x="191.866" y="205.246" width="8.95728" height="8.95728" rx="0.503611"/>
</mask>
<rect x="191.866" y="205.246" width="8.95728" height="8.95728" rx="0.503611" stroke="#1C2329" stroke-width="1.39274" stroke-dasharray="0.91 0.91" mask="url(#path-62-inside-19)"/>
</g>
<g style="mix-blend-mode:multiply">
<mask id="path-63-inside-20" fill="white">
<rect x="203.058" y="205.246" width="8.95728" height="8.95728" rx="0.503611"/>
</mask>
<rect x="203.058" y="205.246" width="8.95728" height="8.95728" rx="0.503611" stroke="#1C2329" stroke-width="1.39274" stroke-dasharray="0.91 0.91" mask="url(#path-63-inside-20)"/>
</g>
<path d="M174.698 257.499C173.592 257.499 172.696 256.603 172.696 255.497C172.696 254.392 173.592 253.495 174.698 253.495C175.803 253.495 176.7 254.392 176.7 255.497C176.7 256.603 175.803 257.499 174.698 257.499Z" fill="white"/>
<path d="M174.698 257.499C173.592 257.499 172.696 256.603 172.696 255.497C172.696 254.392 173.592 253.495 174.698 253.495C175.803 253.495 176.7 254.392 176.7 255.497C176.7 256.603 175.803 257.499 174.698 257.499ZM174.698 257.499L177.45 262.503M174.698 257.499L171.445 262.503M174.698 257.499L165.19 262.503M174.698 257.499L158.934 262.503" stroke="#1C2329" stroke-width="0.465485"/>
<path d="M168.444 257.499C167.338 257.499 166.442 256.603 166.442 255.497C166.442 254.392 167.338 253.495 168.444 253.495C169.549 253.495 170.445 254.392 170.445 255.497C170.445 256.603 169.549 257.499 168.444 257.499Z" fill="white"/>
<path d="M168.444 257.499C167.338 257.499 166.442 256.603 166.442 255.497C166.442 254.392 167.338 253.495 168.444 253.495C169.549 253.495 170.445 254.392 170.445 255.497C170.445 256.603 169.549 257.499 168.444 257.499ZM168.444 257.499L177.326 262.378M168.444 257.499L171.446 262.378M168.444 257.499L165.316 262.378M168.444 257.499L158.935 262.378" stroke="#1C2329" stroke-width="0.465485"/>
<path d="M162.179 257.499C161.074 257.499 160.178 256.603 160.178 255.497C160.178 254.392 161.074 253.495 162.179 253.495C163.285 253.495 164.181 254.392 164.181 255.497C164.181 256.603 163.285 257.499 162.179 257.499Z" fill="white"/>
<path d="M162.179 257.499C161.074 257.499 160.178 256.603 160.178 255.497C160.178 254.392 161.074 253.495 162.179 253.495C163.285 253.495 164.181 254.392 164.181 255.497C164.181 256.603 163.285 257.499 162.179 257.499ZM162.179 257.499L177.567 262.503M162.179 257.499L171.437 262.503M162.179 257.499L165.432 262.503M162.179 257.499L158.926 262.503" stroke="#1C2329" stroke-width="0.465485"/>
<path d="M168.439 280.518C167.333 280.518 166.437 281.414 166.437 282.52C166.437 283.625 167.333 284.521 168.439 284.521C169.544 284.521 170.44 283.625 170.44 282.52C170.44 281.414 169.544 280.518 168.439 280.518Z" fill="white" stroke="#1C2329" stroke-width="0.465485"/>
<path d="M177.823 266.506C176.718 266.506 175.822 265.61 175.822 264.504C175.822 263.399 176.718 262.503 177.823 262.503C178.929 262.503 179.825 263.399 179.825 264.504C179.825 265.61 178.929 266.506 177.823 266.506Z" fill="white"/>
<path d="M177.823 266.506C176.718 266.506 175.822 265.61 175.822 264.504C175.822 263.399 176.718 262.503 177.823 262.503C178.929 262.503 179.825 263.399 179.825 264.504C179.825 265.61 178.929 266.506 177.823 266.506ZM177.823 266.506L177.823 271.51M177.823 266.506L171.443 271.51M177.823 266.506L165.063 271.51M177.823 266.506L158.682 271.51" stroke="#1C2329" stroke-width="0.465485"/>
<path d="M171.562 266.506C170.457 266.506 169.56 265.61 169.56 264.504C169.56 263.399 170.457 262.503 171.562 262.503C172.668 262.503 173.564 263.399 173.564 264.504C173.564 265.61 172.668 266.506 171.562 266.506Z" fill="white"/>
<path d="M171.562 266.506C170.457 266.506 169.56 265.61 169.56 264.504C169.56 263.399 170.457 262.503 171.562 262.503C172.668 262.503 173.564 263.399 173.564 264.504C173.564 265.61 172.668 266.506 171.562 266.506ZM171.562 266.506L177.817 271.385M171.562 266.506L171.562 271.385M171.562 266.506L165.182 271.385M171.562 266.506L158.676 271.635" stroke="#1C2329" stroke-width="0.465485"/>
<path d="M165.307 266.506C164.201 266.506 163.305 265.61 163.305 264.504C163.305 263.399 164.201 262.503 165.307 262.503C166.412 262.503 167.308 263.399 167.308 264.504C167.308 265.61 166.412 266.506 165.307 266.506Z" fill="white"/>
<path d="M165.307 266.506C164.201 266.506 163.305 265.61 163.305 264.504C163.305 263.399 164.201 262.503 165.307 262.503C166.412 262.503 167.308 263.399 167.308 264.504C167.308 265.61 166.412 266.506 165.307 266.506ZM165.307 266.506L177.817 271.51M165.307 266.506L171.562 271.51M165.307 266.506L165.307 271.51M165.307 266.506L158.926 271.51" stroke="#1C2329" stroke-width="0.465485"/>
<path d="M159.057 266.506C157.952 266.506 157.056 265.61 157.056 264.504C157.056 263.399 157.952 262.503 159.057 262.503C160.163 262.503 161.059 263.399 161.059 264.504C161.059 265.61 160.163 266.506 159.057 266.506Z" fill="white"/>
<path d="M159.057 266.506C157.952 266.506 157.056 265.61 157.056 264.504C157.056 263.399 157.952 262.503 159.057 262.503C160.163 262.503 161.059 263.399 161.059 264.504C161.059 265.61 160.163 266.506 159.057 266.506ZM159.057 266.506L177.698 271.51M159.057 266.506L171.568 271.51M159.057 266.506L165.313 271.51M159.057 266.506L159.057 271.51" stroke="#1C2329" stroke-width="0.465485"/>
<path d="M177.823 271.511C176.718 271.511 175.822 272.407 175.822 273.512C175.822 274.618 176.718 275.514 177.823 275.514C178.929 275.514 179.825 274.618 179.825 273.512C179.825 272.407 178.929 271.511 177.823 271.511Z" fill="white"/>
<path d="M177.823 275.514C176.718 275.514 175.822 274.618 175.822 273.512C175.822 272.407 176.718 271.511 177.823 271.511C178.929 271.511 179.825 272.407 179.825 273.512C179.825 274.618 178.929 275.514 177.823 275.514ZM177.823 275.514L168.315 280.518" stroke="#1C2329" stroke-width="0.465485"/>
<path d="M171.567 271.511C170.461 271.511 169.565 272.407 169.565 273.512C169.565 274.618 170.461 275.514 171.567 275.514C172.672 275.514 173.568 274.618 173.568 273.512C173.568 272.407 172.672 271.511 171.567 271.511Z" fill="white"/>
<path d="M171.567 275.514C170.461 275.514 169.565 274.618 169.565 273.512C169.565 272.407 170.461 271.511 171.567 271.511C172.672 271.511 173.568 272.407 173.568 273.512C173.568 274.618 172.672 275.514 171.567 275.514ZM171.567 275.514L168.314 280.518" stroke="#1C2329" stroke-width="0.465485"/>
<path d="M165.314 271.51C164.208 271.51 163.312 272.407 163.312 273.512C163.312 274.618 164.208 275.514 165.314 275.514C166.419 275.514 167.316 274.618 167.316 273.512C167.316 272.407 166.419 271.51 165.314 271.51Z" fill="white"/>
<path d="M165.314 275.514C164.208 275.514 163.312 274.618 163.312 273.512C163.312 272.407 164.208 271.51 165.314 271.51C166.419 271.51 167.316 272.407 167.316 273.512C167.316 274.618 166.419 275.514 165.314 275.514ZM165.314 275.514L168.316 280.393" stroke="#1C2329" stroke-width="0.465485"/>
<path d="M159.058 271.51C157.953 271.51 157.057 272.407 157.057 273.512C157.057 274.618 157.953 275.514 159.058 275.514C160.164 275.514 161.06 274.618 161.06 273.512C161.06 272.407 160.164 271.51 159.058 271.51Z" fill="white"/>
<path d="M159.058 275.514C157.953 275.514 157.057 274.618 157.057 273.512C157.057 272.407 157.953 271.51 159.058 271.51C160.164 271.51 161.06 272.407 161.06 273.512C161.06 274.618 160.164 275.514 159.058 275.514ZM159.058 275.514L168.441 280.393" stroke="#1C2329" stroke-width="0.465485"/>
<rect x="153.871" y="212.192" width="28.6226" height="28.6226" rx="1.11693" fill="white" stroke="#1C2329" stroke-width="0.698228"/>
<rect x="156.663" y="214.984" width="23.0377" height="23.0377" rx="1.11693" fill="white" stroke="#1C2329" stroke-width="0.698228" stroke-dasharray="1.24 1.24"/>
<rect x="189" y="310.883" width="17.6464" height="34.7432" rx="1.67927" stroke="#1C2329" stroke-width="0.698228"/>
<path d="M130.343 306.447C130.343 306.037 130.675 305.705 131.085 305.705H184.64C185.05 305.705 185.382 306.037 185.382 306.447V337.822V345.109C185.382 345.519 185.05 345.851 184.64 345.851H131.085C130.675 345.851 130.343 345.519 130.343 345.109V337.822V306.447Z" stroke="#1C2329" stroke-width="0.698228"/>
<path d="M134.581 309.917C134.581 309.507 134.913 309.175 135.323 309.175H180.411C180.821 309.175 181.153 309.507 181.153 309.917V335.707V341.598C181.153 342.008 180.821 342.34 180.411 342.34H135.323C134.913 342.34 134.581 342.008 134.581 341.598V335.707V309.917Z" stroke="#1C2329" stroke-width="0.698228"/>
<path d="M177.497 -0.733156L173.817 -0.733156C173.539 -0.733156 173.314 -0.507682 173.314 -0.229545L173.314 27.3511C173.314 27.6292 173.539 27.8547 173.817 27.8547L213.126 27.8547C213.404 27.8547 213.63 27.6292 213.63 27.3511L213.63 -0.229543C213.63 -0.50768 213.404 -0.733154 213.126 -0.733154L179.887 -0.733154" stroke="#1C2329" stroke-width="0.698228" stroke-miterlimit="10"/>
<path d="M174.047 109.067V138.037C174.047 138.315 173.821 138.541 173.543 138.541H162.822C162.544 138.541 162.318 138.315 162.318 138.037V99.4614C162.318 99.1832 162.544 98.9578 162.822 98.9578H173.543C173.821 98.9578 174.047 99.1832 174.047 99.4614V107.552" fill="white"/>
<path d="M174.047 109.067V138.037C174.047 138.315 173.821 138.541 173.543 138.541H162.822C162.544 138.541 162.318 138.315 162.318 138.037V99.4614C162.318 99.1832 162.544 98.9578 162.822 98.9578H173.543C173.821 98.9578 174.047 99.1832 174.047 99.4614V107.552" stroke="#1C2329" stroke-width="0.698228" stroke-miterlimit="10"/>
<path d="M118.337 35.9179C118.337 35.1083 118.993 34.4519 119.803 34.4519H216.562C217.371 34.4519 218.028 35.1083 218.028 35.9179V90.8013C218.028 91.0362 217.971 91.2676 217.863 91.4761L212.115 102.565C211.862 103.051 211.361 103.356 210.813 103.356H125.545C124.998 103.356 124.496 103.05 124.244 102.564L118.501 91.4759C118.393 91.2675 118.337 91.0363 118.337 90.8017V35.9179Z" fill="white" stroke="#1C2329" stroke-width="0.698228" stroke-miterlimit="10"/>
<path d="M123.084 40.0866C123.084 40.0013 123.154 39.9321 123.239 39.9321H176.979H213.126C213.212 39.9321 213.281 40.0013 213.281 40.0866V85.9927C213.281 86.0781 213.212 86.1472 213.126 86.1472H176.979H123.239C123.154 86.1472 123.084 86.0781 123.084 85.9927V40.0866Z" stroke="#1C2329" stroke-width="0.698228"/>
<path d="M128.385 -0.733156L124.705 -0.733156C124.427 -0.733156 124.201 -0.507682 124.201 -0.229545L124.201 27.3511C124.201 27.6292 124.427 27.8547 124.705 27.8547L144.359 27.8547L164.014 27.8547C164.292 27.8547 164.518 27.6292 164.518 27.3511L164.518 -0.229543C164.518 -0.50768 164.292 -0.733154 164.014 -0.733154L130.775 -0.733154" stroke="#1C2329" stroke-width="0.698228" stroke-miterlimit="10"/>
<g style="mix-blend-mode:multiply">
<mask id="path-98-inside-21" fill="white">
<rect x="132.001" y="90.3376" width="8.95728" height="8.95728" rx="0.503611"/>
</mask>
<rect x="132.001" y="90.3376" width="8.95728" height="8.95728" rx="0.503611" stroke="#1C2329" stroke-width="1.39646" stroke-dasharray="0.91 0.91" mask="url(#path-98-inside-21)"/>
</g>
<g style="mix-blend-mode:multiply">
<mask id="path-99-inside-22" fill="white">
<rect x="174.052" y="90.5596" width="8.95728" height="8.95728" rx="0.503611"/>
</mask>
<rect x="174.052" y="90.5596" width="8.95728" height="8.95728" rx="0.503611" stroke="#1C2329" stroke-width="1.39646" stroke-dasharray="0.91 0.91" mask="url(#path-99-inside-22)"/>
</g>
<path d="M179.993 170.794L119.803 170.794C118.993 170.794 118.336 170.137 118.336 169.328L118.336 113.618C118.336 112.808 118.993 112.152 119.803 112.152L216.561 112.152C217.371 112.152 218.027 112.808 218.027 113.618L218.027 169.328C218.027 170.137 217.371 170.794 216.561 170.794L185.693 170.794" fill="white"/>
<path d="M179.993 170.794L119.803 170.794C118.993 170.794 118.336 170.137 118.336 169.328L118.336 113.618C118.336 112.808 118.993 112.152 119.803 112.152L216.561 112.152C217.371 112.152 218.027 112.808 218.027 113.618L218.027 169.328C218.027 170.137 217.371 170.794 216.561 170.794L185.693 170.794" stroke="#1C2329" stroke-width="0.698228" stroke-miterlimit="10"/>
<path d="M126.4 121.681H190.173" stroke="#1C2329" stroke-width="0.698228" stroke-miterlimit="10" stroke-linecap="round"/>
<path d="M126.4 129.011H195.304" stroke="#1C2329" stroke-width="0.698228" stroke-miterlimit="10" stroke-linecap="round"/>
<path d="M126.06 137.496L209.107 137.496" stroke="#1C2329" stroke-width="0.698228" stroke-miterlimit="10" stroke-linecap="round"/>
<path d="M126.06 145.906L209.107 145.906" stroke="#1C2329" stroke-width="0.698228" stroke-miterlimit="10" stroke-linecap="round"/>
<path d="M126.06 154.316L209.107 154.316" stroke="#1C2329" stroke-width="0.698228" stroke-miterlimit="10" stroke-linecap="round"/>
<path d="M126.06 162.726L209.107 162.726" stroke="#1C2329" stroke-width="0.698228" stroke-miterlimit="10" stroke-linecap="round"/>
<path d="M208.049 120.358H182.82C182.239 120.358 181.769 120.828 181.769 121.409C181.769 121.989 182.239 122.46 182.82 122.46H208.049C208.63 122.46 209.101 121.989 209.101 121.409C209.101 120.828 208.63 120.358 208.049 120.358Z" stroke="#1C2329" stroke-width="0.698228" stroke-miterlimit="10"/>
<path d="M208.048 128.034H194.382C193.802 128.034 193.331 128.505 193.331 129.086C193.331 129.666 193.802 130.137 194.382 130.137H208.048C208.629 130.137 209.1 129.666 209.1 129.086C209.1 128.505 208.629 128.034 208.048 128.034Z" stroke="#1C2329" stroke-width="0.698228" stroke-miterlimit="10"/>
<path d="M200.699 135.394H184.93C184.35 135.394 183.879 135.865 183.879 136.445C183.879 137.026 184.35 137.497 184.93 137.497H200.699C201.279 137.497 201.75 137.026 201.75 136.445C201.75 135.865 201.279 135.394 200.699 135.394Z" fill="white" stroke="#1C2329" stroke-width="0.698228" stroke-miterlimit="10"/>
<path d="M205.951 144.854H196.49C195.909 144.854 195.438 145.325 195.438 145.906C195.438 146.486 195.909 146.957 196.49 146.957H205.951C206.531 146.957 207.002 146.486 207.002 145.906C207.002 145.325 206.531 144.854 205.951 144.854Z" fill="white" stroke="#1C2329" stroke-width="0.698228" stroke-miterlimit="10"/>
<path d="M208.049 161.675H182.82C182.239 161.675 181.769 162.145 181.769 162.726C181.769 163.307 182.239 163.777 182.82 163.777H208.049C208.63 163.777 209.101 163.307 209.101 162.726C209.101 162.145 208.63 161.675 208.049 161.675Z" fill="white" stroke="#1C2329" stroke-width="0.698228" stroke-miterlimit="10"/>
<circle cx="168.188" cy="141.479" r="25.3124" fill="white" stroke="#1C2329" stroke-width="0.698228"/>
<circle cx="168.005" cy="141.29" r="22.0012" fill="white" stroke="#1C2329" stroke-width="0.698228" stroke-dasharray="0.91 0.91"/>
<circle cx="168.366" cy="136.848" r="2.72591" fill="white" stroke="#1C2329" stroke-width="0.698228"/>
<mask id="path-116-inside-23" fill="white">
<path d="M168.366 141.692C165.309 141.692 162.831 144.762 162.831 148.549H173.901C173.901 144.762 171.423 141.692 168.366 141.692Z"/>
</mask>
<path d="M162.831 148.549H162.133V149.247H162.831V148.549ZM173.901 148.549V149.247H174.599V148.549H173.901ZM163.529 148.549C163.529 145 165.827 142.39 168.366 142.39V140.994C164.791 140.994 162.133 144.523 162.133 148.549H163.529ZM168.366 142.39C170.905 142.39 173.203 145 173.203 148.549H174.599C174.599 144.523 171.941 140.994 168.366 140.994V142.39ZM173.901 147.851H162.831V149.247H173.901V147.851Z" fill="#1C2329" mask="url(#path-116-inside-23)"/>
<path d="M192.545 15.717C191.921 16.1772 190.268 16.845 190.704 17.7647C190.957 18.2976 191.14 18.3667 191.814 18.1861C192.488 18.0055 194.127 16.4798 193.772 15.7314C193.449 15.0499 193.169 15.2567 192.545 15.717Z" fill="url(#paint15_linear)"/>
<path d="M192.545 15.717C191.921 16.1772 190.268 16.845 190.704 17.7647C190.957 18.2976 191.14 18.3667 191.814 18.1861C192.488 18.0055 194.127 16.4798 193.772 15.7314C193.449 15.0499 193.169 15.2567 192.545 15.717Z" fill="white"/>
<path d="M185.629 2.93188L184.006 2.93188C183.768 2.93188 183.576 3.12452 183.576 3.36214L183.576 22.2932C183.576 22.5308 183.768 22.7235 184.006 22.7235L202.937 22.7235C203.175 22.7235 203.367 22.5308 203.367 22.2932L203.367 3.36214C203.367 3.12451 203.175 2.93188 202.937 2.93188L186.803 2.93188" stroke="#1C2329" stroke-width="0.498454" stroke-miterlimit="10" stroke-dasharray="0.6 0.6"/>
<path d="M187.974 18.5531C187.974 18.5531 187.368 16.9035 187.644 15.3135M199.198 7.32815C199.198 7.32815 199.77 8.8846 199.549 10.431M188.535 13.5019L190.365 15.3324M188.535 13.5019C188.02 14.0166 187.758 14.66 187.644 15.3135M188.535 13.5019C189.049 12.9872 189.693 12.7247 190.346 12.6112M198.637 12.3794L196.807 10.5488M198.637 12.3794C199.188 11.8288 199.45 11.1309 199.549 10.431M198.637 12.3794C198.087 12.9299 197.389 13.1919 196.689 13.2916M199.549 10.431L198.411 9.29252M196.689 13.2916C195.142 13.512 193.586 12.9406 193.586 12.9406C193.586 12.9406 191.936 12.3351 190.346 12.6112M196.689 13.2916L195.55 12.1532M187.644 15.3135L188.709 16.3782M190.346 12.6112L191.411 13.6759" stroke="#1C2329" stroke-width="0.437316" stroke-linecap="round"/>
<path d="M193.024 17.9916L191.193 16.1611M193.024 17.9916C192.509 18.5063 191.866 18.7688 191.212 18.8823L190.27 17.9397M193.024 17.9916C193.539 17.4769 193.801 16.8335 193.915 16.18M194.146 7.88917L195.977 9.7197M194.146 7.88917C194.697 7.33862 195.395 7.07667 196.095 6.97693L197.148 8.02957M194.146 7.88917C193.596 8.43973 193.334 9.13762 193.234 9.83757M193.234 9.83757C193.014 11.384 193.585 12.9404 193.585 12.9404C193.585 12.9404 194.191 14.59 193.915 16.18M193.234 9.83757L194.287 10.8902M193.915 16.18L192.972 15.2374" stroke="#1C2329" stroke-width="0.437316" stroke-linecap="round"/>
<path d="M136.517 2.93188L134.878 2.93188C134.649 2.93188 134.463 3.11738 134.463 3.3462L134.463 22.3091C134.463 22.538 134.649 22.7235 134.878 22.7235L153.841 22.7235C154.069 22.7235 154.255 22.538 154.255 22.3091L154.255 3.3462C154.255 3.11738 154.069 2.93188 153.841 2.93188L137.905 2.93188" stroke="#1C2329" stroke-width="0.498454" stroke-miterlimit="10" stroke-dasharray="0.6 0.6"/>
<rect x="137.907" y="16.1213" width="13.7848" height="5.07768" transform="rotate(-45 137.907 16.1213)" stroke="#1C2329" stroke-width="0.421119" stroke-linejoin="round"/>
<path d="M145.184 15.2462C146.258 14.1723 149.222 12.1126 148.204 11.0946C147.615 10.5049 147.255 10.5295 146.026 11.2386C144.798 11.9477 142.045 15.2203 142.873 16.0485C143.627 16.8028 144.11 16.3201 145.184 15.2462Z" fill="url(#paint16_linear)"/>
<path d="M145.184 15.2462C146.258 14.1723 149.222 12.1126 148.204 11.0946C147.615 10.5049 147.255 10.5295 146.026 11.2386C144.798 11.9477 142.045 15.2203 142.873 16.0485C143.627 16.8028 144.11 16.3201 145.184 15.2462Z" fill="white"/>
<circle cx="144.604" cy="13.0159" r="1.63211" transform="rotate(-45 144.604 13.0159)" stroke="#1C2329" stroke-width="0.421119"/>
<g clip-path="url(#clip0)">
<path d="M129.504 49.8511C129.461 50.8006 129.023 53.0401 129.78 52.9989C130.219 52.9751 130.352 52.7983 130.584 51.9314C130.816 51.0644 130.745 48.4109 130.128 48.4444C129.567 48.4749 129.548 48.9016 129.504 49.8511Z" fill="white"/>
<path d="M129.027 49.9824V49.5697V49.157V48.5717C129.027 48.4391 129.135 48.3315 129.267 48.3315H132.629C132.762 48.3315 132.869 48.4391 132.869 48.5717V49.157V49.5697V49.9824M129.027 49.9824V50.7704M129.027 49.9824H130.948M132.869 49.9824V50.7704M132.869 49.9824H131.909M129.027 51.5583H132.869M129.027 51.5583V50.7704M129.027 51.5583V52.3462M132.869 51.5583V50.7704M132.869 51.5583V52.3462M129.027 50.7704H132.869M129.027 52.3462V52.894C129.027 53.0266 129.135 53.1341 129.267 53.1341H132.629C132.762 53.1341 132.869 53.0266 132.869 52.894V52.3462M129.027 52.3462H130.948M132.869 52.3462H132.229H131.909M130.948 52.3462H131.589H131.909M130.948 52.3462V49.9824M130.948 49.9824H131.909M131.909 52.3462V49.9824" stroke="#1C2329" stroke-width="0.334093"/>
<path d="M129.506 48.9321H130.947M129.506 49.5325H130.947" stroke="#1C2329" stroke-width="0.334093" stroke-linecap="round"/>
</g>
<path d="M127.371 46.1804L126.651 46.1804C126.512 46.1804 126.4 46.2926 126.4 46.431L126.4 55.2844C126.4 55.4228 126.512 55.535 126.651 55.535L135.504 55.535C135.643 55.535 135.755 55.4228 135.755 55.2844L135.755 46.431C135.755 46.2926 135.643 46.1804 135.504 46.1804L127.925 46.1804" stroke="#1C2329" stroke-width="0.501139" stroke-miterlimit="10" stroke-dasharray="0.6 0.6"/>
<path d="M192.83 76.7185C193.132 76.9597 193.667 77.6702 194.054 77.3412C194.278 77.1507 194.288 77.0533 194.114 76.7518C193.94 76.4504 192.993 75.8575 192.678 76.1252C192.391 76.3689 192.527 76.4773 192.83 76.7185Z" fill="white"/>
<path d="M189.466 73.8233L190.696 72.5929L194.505 76.4021C194.845 76.7419 194.845 77.2927 194.505 77.6325C194.166 77.9723 193.615 77.9723 193.275 77.6325L190.617 74.9746L189.466 73.8233Z" stroke="#1C2329" stroke-width="0.334093"/>
<path d="M189.132 73.9794C189.063 73.9097 189.063 73.7966 189.132 73.7268L190.599 72.2601C190.669 72.1904 190.782 72.1904 190.852 72.2601L191.585 72.9935C191.655 73.0632 191.655 73.1763 191.585 73.2461L190.118 74.7128C190.049 74.7825 189.936 74.7825 189.866 74.7128L189.132 73.9794Z" fill="white" stroke="#1C2329" stroke-width="0.334093" stroke-linejoin="round"/>
<path d="M188.212 70.3699L187.492 70.3699C187.353 70.3699 187.241 70.4821 187.241 70.6204L187.241 79.4739C187.241 79.6123 187.353 79.7245 187.492 79.7245L196.345 79.7245C196.484 79.7245 196.596 79.6123 196.596 79.4739L196.596 70.6204C196.596 70.4821 196.484 70.3699 196.345 70.3699L188.766 70.3699" stroke="#1C2329" stroke-width="0.501139" stroke-miterlimit="10" stroke-dasharray="0.6 0.6"/>
<path d="M199.207 47.6462L198.487 47.6462C198.348 47.6462 198.236 47.7584 198.236 47.8968L198.236 56.7503C198.236 56.8886 198.348 57.0008 198.487 57.0008L207.34 57.0008C207.479 57.0008 207.591 56.8886 207.591 56.7503L207.591 47.8968C207.591 47.7584 207.479 47.6462 207.34 47.6462L199.761 47.6462" stroke="#1C2329" stroke-width="0.501139" stroke-miterlimit="10" stroke-dasharray="0.6 0.6"/>
<g clip-path="url(#clip1)">
<path d="M201.859 53.7545C202.789 53.7694 204.969 54.1741 204.955 53.3422C204.946 52.8602 204.778 52.7205 203.936 52.4949C203.094 52.2694 200.491 52.4397 200.502 53.1166C200.513 53.733 200.93 53.7396 201.859 53.7545Z" fill="white"/>
<path d="M200.602 53.0614C200.602 52.5078 201.05 52.0591 201.604 52.0591V52.0591C202.157 52.0591 202.606 52.5078 202.606 53.0614V53.7703C202.606 53.7939 202.587 53.8131 202.563 53.8131H200.644C200.621 53.8131 200.602 53.7939 200.602 53.7703V53.0614Z" stroke="#1C2329" stroke-width="0.334093"/>
<path d="M203.104 53.0614C203.104 52.5078 203.553 52.0591 204.107 52.0591V52.0591C204.66 52.0591 205.109 52.5078 205.109 53.0614V53.7703C205.109 53.7939 205.09 53.8131 205.066 53.8131H203.147C203.124 53.8131 203.104 53.7939 203.104 53.7703V53.0614Z" stroke="#1C2329" stroke-width="0.334093"/>
<circle cx="201.602" cy="51.0566" r="0.584662" stroke="#1C2329" stroke-width="0.334093"/>
<circle cx="204.111" cy="51.0566" r="0.584662" stroke="#1C2329" stroke-width="0.334093"/>
</g>
<path d="M164.437 76.651C164.398 77.8345 163.865 80.6195 164.859 80.5824C165.434 80.5609 165.605 80.3429 165.893 79.2659C166.182 78.1889 166.038 74.878 165.23 74.9082C164.494 74.9356 164.477 75.4675 164.437 76.651Z" fill="white"/>
<path d="M164.643 76.0519C164.505 76.0519 164.393 76.1641 164.393 76.3025C164.393 76.4408 164.505 76.553 164.643 76.553V76.0519ZM167.738 76.553C167.877 76.553 167.989 76.4408 167.989 76.3025C167.989 76.1641 167.877 76.0519 167.738 76.0519V76.553ZM164.643 77.3047C164.505 77.3047 164.393 77.4169 164.393 77.5553C164.393 77.6937 164.505 77.8059 164.643 77.8059V77.3047ZM167.738 77.8059C167.877 77.8059 167.989 77.6937 167.989 77.5553C167.989 77.4169 167.877 77.3047 167.738 77.3047V77.8059ZM164.643 78.5576C164.505 78.5576 164.393 78.6698 164.393 78.8081C164.393 78.9465 164.505 79.0587 164.643 79.0587V78.5576ZM167.738 79.0587C167.877 79.0587 167.989 78.9465 167.989 78.8081C167.989 78.6698 167.877 78.5576 167.738 78.5576V79.0587ZM164.24 74.9422H168.289V74.4411H164.24V74.9422ZM168.372 75.0257V80.2533H168.873V75.0257H168.372ZM168.289 80.3368H164.24V80.838H168.289V80.3368ZM164.157 80.2533V75.0257H163.656V80.2533H164.157ZM164.643 76.553H167.738V76.0519H164.643V76.553ZM164.643 77.8059H167.738V77.3047H164.643V77.8059ZM164.643 79.0587H167.738V78.5576H164.643V79.0587ZM164.24 80.3368C164.194 80.3368 164.157 80.2994 164.157 80.2533H163.656C163.656 80.5762 163.917 80.838 164.24 80.838V80.3368ZM168.372 80.2533C168.372 80.2994 168.335 80.3368 168.289 80.3368V80.838C168.612 80.838 168.873 80.5762 168.873 80.2533H168.372ZM168.289 74.9422C168.335 74.9422 168.372 74.9796 168.372 75.0257H168.873C168.873 74.7028 168.612 74.4411 168.289 74.4411V74.9422ZM164.24 74.4411C163.917 74.4411 163.656 74.7028 163.656 75.0257H164.157C164.157 74.9796 164.194 74.9422 164.24 74.9422V74.4411Z" fill="#1C2329"/>
<mask id="path-142-outside-24" maskUnits="userSpaceOnUse" x="164.087" y="72.9055" width="4" height="3" fill="black">
<rect fill="white" x="164.087" y="72.9055" width="4" height="3"/>
<path fill-rule="evenodd" clip-rule="evenodd" d="M166.656 74.3425C166.657 74.3281 166.658 74.3134 166.658 74.2986C166.658 74.0815 166.482 73.9055 166.265 73.9055C166.048 73.9055 165.872 74.0815 165.872 74.2986C165.872 74.3135 165.873 74.3283 165.875 74.3429C165.416 74.4505 165.087 74.7419 165.087 75.0846H167.445C167.445 74.7415 167.116 74.4498 166.656 74.3425Z"/>
</mask>
<path fill-rule="evenodd" clip-rule="evenodd" d="M166.656 74.3425C166.657 74.3281 166.658 74.3134 166.658 74.2986C166.658 74.0815 166.482 73.9055 166.265 73.9055C166.048 73.9055 165.872 74.0815 165.872 74.2986C165.872 74.3135 165.873 74.3283 165.875 74.3429C165.416 74.4505 165.087 74.7419 165.087 75.0846H167.445C167.445 74.7415 167.116 74.4498 166.656 74.3425Z" fill="white"/>
<path d="M166.656 74.3425L166.158 74.2871C166.13 74.5394 166.295 74.7728 166.542 74.8305L166.656 74.3425ZM165.875 74.3429L165.989 74.8308C166.236 74.7728 166.401 74.5392 166.373 74.287L165.875 74.3429ZM165.087 75.0846H164.586C164.586 75.3614 164.81 75.5858 165.087 75.5858V75.0846ZM167.445 75.0846V75.5858C167.722 75.5858 167.946 75.3614 167.946 75.0846H167.445ZM166.157 74.2986C166.157 74.2949 166.157 74.291 166.158 74.2871L167.154 74.3979C167.158 74.3651 167.159 74.3319 167.159 74.2986H166.157ZM166.265 74.4067C166.206 74.4067 166.157 74.3583 166.157 74.2986H167.159C167.159 73.8047 166.759 73.4044 166.265 73.4044V74.4067ZM166.373 74.2986C166.373 74.3583 166.325 74.4067 166.265 74.4067V73.4044C165.771 73.4044 165.371 73.8047 165.371 74.2986H166.373ZM166.373 74.287C166.373 74.291 166.373 74.2948 166.373 74.2986H165.371C165.371 74.3322 165.373 74.3657 165.377 74.3987L166.373 74.287ZM165.76 73.855C165.215 73.9829 164.586 74.3912 164.586 75.0846H165.588C165.588 75.0843 165.586 75.0514 165.649 74.9934C165.714 74.9338 165.827 74.8687 165.989 74.8308L165.76 73.855ZM165.087 75.5858H167.445V74.5835H165.087V75.5858ZM167.946 75.0846C167.946 74.3904 167.316 73.982 166.77 73.8545L166.542 74.8305C166.704 74.8683 166.818 74.9335 166.883 74.9932C166.946 75.0513 166.944 75.0843 166.944 75.0846H167.946Z" fill="#1C2329" mask="url(#path-142-outside-24)"/>
<path d="M162.556 72.5691L161.835 72.5691C161.697 72.5691 161.585 72.6813 161.585 72.8197L161.585 81.6731C161.585 81.8115 161.697 81.9237 161.835 81.9237L170.689 81.9237C170.827 81.9237 170.939 81.8115 170.939 81.6731L170.939 72.8197C170.939 72.6813 170.827 72.5691 170.689 72.5691L163.11 72.5691" stroke="#1C2329" stroke-width="0.501139" stroke-miterlimit="10" stroke-dasharray="0.6 0.6"/>
<path d="M139.912 50.2611C139.873 51.4446 139.34 54.2296 140.333 54.1925C140.909 54.171 141.079 53.953 141.368 52.876C141.657 51.7991 141.513 48.4881 140.705 48.5183C139.969 48.5457 139.951 49.0776 139.912 50.2611Z" fill="white"/>
<path d="M140.454 59.1923C140.315 59.1923 140.203 59.3044 140.203 59.4428C140.203 59.5812 140.315 59.6934 140.454 59.6934V59.1923ZM143.549 59.6934C143.687 59.6934 143.8 59.5812 143.8 59.4428C143.8 59.3044 143.687 59.1923 143.549 59.1923V59.6934ZM140.454 60.4451C140.315 60.4451 140.203 60.5573 140.203 60.6957C140.203 60.8341 140.315 60.9463 140.454 60.9463V60.4451ZM143.549 60.9463C143.687 60.9463 143.8 60.8341 143.8 60.6957C143.8 60.5573 143.687 60.4451 143.549 60.4451V60.9463ZM140.454 61.698C140.315 61.698 140.203 61.8101 140.203 61.9485C140.203 62.0869 140.315 62.1991 140.454 62.1991V61.698ZM143.549 62.1991C143.687 62.1991 143.8 62.0869 143.8 61.9485C143.8 61.8101 143.687 61.698 143.549 61.698V62.1991ZM140.051 58.0826H144.099V57.5815H140.051V58.0826ZM144.183 58.1661V63.3937H144.684V58.1661H144.183ZM144.099 63.4772H140.051V63.9784H144.099V63.4772ZM139.967 63.3937V58.1661H139.466V63.3937H139.967ZM140.454 59.6934H143.549V59.1923H140.454V59.6934ZM140.454 60.9463H143.549V60.4451H140.454V60.9463ZM140.454 62.1991H143.549V61.698H140.454V62.1991ZM140.051 63.4772C140.005 63.4772 139.967 63.4398 139.967 63.3937H139.466C139.466 63.7166 139.728 63.9784 140.051 63.9784V63.4772ZM144.183 63.3937C144.183 63.4398 144.145 63.4772 144.099 63.4772V63.9784C144.422 63.9784 144.684 63.7166 144.684 63.3937H144.183ZM144.099 58.0826C144.145 58.0826 144.183 58.12 144.183 58.1661H144.684C144.684 57.8432 144.422 57.5815 144.099 57.5815V58.0826ZM140.051 57.5815C139.728 57.5815 139.466 57.8432 139.466 58.1661H139.967C139.967 58.12 140.005 58.0826 140.051 58.0826V57.5815Z" fill="#1C2329"/>
<mask id="path-147-outside-25" maskUnits="userSpaceOnUse" x="139.897" y="56.0461" width="4" height="3" fill="black">
<rect fill="white" x="139.897" y="56.0461" width="4" height="3"/>
<path fill-rule="evenodd" clip-rule="evenodd" d="M142.466 57.4831C142.468 57.4687 142.469 57.454 142.469 57.4392C142.469 57.2221 142.293 57.0461 142.076 57.0461C141.859 57.0461 141.683 57.2221 141.683 57.4392C141.683 57.4542 141.684 57.4689 141.685 57.4835C141.226 57.5911 140.897 57.8826 140.897 58.2252H143.256C143.256 57.8822 142.926 57.5904 142.466 57.4831Z"/>
</mask>
<path fill-rule="evenodd" clip-rule="evenodd" d="M142.466 57.4831C142.468 57.4687 142.469 57.454 142.469 57.4392C142.469 57.2221 142.293 57.0461 142.076 57.0461C141.859 57.0461 141.683 57.2221 141.683 57.4392C141.683 57.4542 141.684 57.4689 141.685 57.4835C141.226 57.5911 140.897 57.8826 140.897 58.2252H143.256C143.256 57.8822 142.926 57.5904 142.466 57.4831Z" fill="white"/>
<path d="M142.466 57.4831L141.968 57.4277C141.94 57.68 142.105 57.9134 142.352 57.9711L142.466 57.4831ZM141.685 57.4835L141.8 57.9714C142.047 57.9134 142.212 57.6799 142.183 57.4276L141.685 57.4835ZM140.897 58.2252H140.396C140.396 58.502 140.621 58.7264 140.897 58.7264V58.2252ZM143.256 58.2252V58.7264C143.533 58.7264 143.757 58.502 143.757 58.2252H143.256ZM141.968 57.4392C141.968 57.4355 141.968 57.4317 141.968 57.4277L142.964 57.5385C142.968 57.5057 142.97 57.4726 142.97 57.4392H141.968ZM142.076 57.5473C142.016 57.5473 141.968 57.4989 141.968 57.4392H142.97C142.97 56.9453 142.57 56.545 142.076 56.545V57.5473ZM142.184 57.4392C142.184 57.4989 142.135 57.5473 142.076 57.5473V56.545C141.582 56.545 141.182 56.9453 141.182 57.4392H142.184ZM142.183 57.4276C142.184 57.4316 142.184 57.4355 142.184 57.4392H141.182C141.182 57.4729 141.183 57.5063 141.187 57.5393L142.183 57.4276ZM141.571 56.9956C141.025 57.1236 140.396 57.5318 140.396 58.2252H141.399C141.399 58.2249 141.397 58.192 141.46 58.134C141.524 58.0744 141.638 58.0093 141.8 57.9714L141.571 56.9956ZM140.897 58.7264H143.256V57.7241H140.897V58.7264ZM143.757 58.2252C143.757 57.531 143.127 57.1227 142.58 56.9951L142.352 57.9711C142.515 58.0089 142.629 58.0741 142.693 58.1338C142.756 58.1919 142.755 58.2249 142.755 58.2252H143.757Z" fill="#1C2329" mask="url(#path-147-outside-25)"/>
<path d="M138.366 55.7097L137.646 55.7097C137.508 55.7097 137.395 55.8219 137.395 55.9603L137.395 64.8137C137.395 64.9521 137.508 65.0643 137.646 65.0643L146.499 65.0643C146.638 65.0643 146.75 64.9521 146.75 64.8137L146.75 55.9603C146.75 55.8219 146.638 55.7097 146.499 55.7097L138.921 55.7097" stroke="#1C2329" stroke-width="0.501139" stroke-miterlimit="10" stroke-dasharray="0.6 0.6"/>
<path d="M150.095 66.7046L149.374 66.7046C149.236 66.7046 149.124 66.8168 149.124 66.9552L149.124 75.8086C149.124 75.947 149.236 76.0592 149.374 76.0592L158.228 76.0592C158.366 76.0592 158.479 75.947 158.479 75.8086L158.479 66.9552C158.479 66.8168 158.366 66.7046 158.228 66.7046L150.649 66.7046" stroke="#1C2329" stroke-width="0.501139" stroke-miterlimit="10" stroke-dasharray="0.6 0.6"/>
<circle cx="154.472" cy="71.3819" r="1.00228" fill="white"/>
<circle cx="153.804" cy="71.3818" r="3.00683" stroke="#1C2329" stroke-width="0.417616"/>
<circle cx="153.805" cy="71.3819" r="1.00228" stroke="#1C2329" stroke-width="0.417616"/>
<path d="M155.642 71.382C155.642 69.912 153.526 68.9876 152.468 68.7092M155.642 71.382C155.642 73.5536 152.802 73.7206 151.8 73.7206M155.642 71.382C155.92 71.4933 156.477 71.9165 156.477 72.7183M155.642 71.382C156.31 70.9811 156.254 69.9899 156.143 69.5445" stroke="#1C2329" stroke-width="0.417616"/>
<path d="M127.371 65.2388L126.651 65.2388C126.512 65.2388 126.4 65.351 126.4 65.4893L126.4 74.3428C126.4 74.4812 126.512 74.5934 126.651 74.5934L135.504 74.5934C135.643 74.5934 135.755 74.4812 135.755 74.3428L135.755 65.4893C135.755 65.351 135.643 65.2388 135.504 65.2388L127.925 65.2388" stroke="#1C2329" stroke-width="0.501139" stroke-miterlimit="10" stroke-dasharray="0.6 0.6"/>
<path d="M130.08 68.2745C129.536 68.2857 129.352 69.124 129.111 69.5407C129.103 69.7812 129.354 70.5788 130.215 70.6875C130.405 70.7116 130.626 70.7019 130.859 70.6724C131.644 70.5732 132.017 69.1951 131.358 68.7576C130.925 68.4704 130.389 68.3315 130.208 68.2904C130.166 68.2809 130.123 68.2736 130.08 68.2745Z" fill="white"/>
<circle cx="131.08" cy="69.916" r="3.00683" stroke="#1C2329" stroke-width="0.417616"/>
<path d="M128.073 69.9998C128.224 69.6581 128.449 69.248 128.825 69.248C129.201 69.248 129.365 69.6128 129.577 69.9998C129.776 70.3639 129.953 70.7515 130.328 70.7515C130.704 70.7515 130.93 70.3414 131.08 69.9998C131.23 69.6581 131.456 69.248 131.832 69.248C132.208 69.248 132.372 69.6128 132.583 69.9998C132.783 70.3639 132.959 70.7515 133.335 70.7515C133.711 70.7515 133.937 70.3414 134.087 69.9998" stroke="#1C2329" stroke-width="0.417616"/>
<path d="M138.366 71.8362L137.646 71.8362C137.508 71.8362 137.395 71.9484 137.395 72.0868L137.395 80.9402C137.395 81.0786 137.508 81.1908 137.646 81.1908L146.499 81.1908C146.638 81.1908 146.75 81.0786 146.75 80.9402L146.75 72.0868C146.75 71.9484 146.638 71.8362 146.499 71.8362L138.921 71.8362" stroke="#1C2329" stroke-width="0.501139" stroke-miterlimit="10" stroke-dasharray="0.6 0.6"/>
<path d="M143.69 75.7329C143.935 75.4642 144.62 75.1248 144.366 74.4743C144.218 74.0975 144.132 74.0384 143.847 74.1149C143.561 74.1914 142.94 75.1111 143.147 75.6403C143.336 76.1223 143.446 76.0015 143.69 75.7329Z" fill="white"/>
<path d="M143.69 79.0734C143.935 78.8047 144.62 78.4654 144.366 77.8149C144.218 77.4381 144.132 77.379 143.847 77.4555C143.561 77.532 142.94 78.4517 143.147 78.9809C143.336 79.4629 143.446 79.3421 143.69 79.0734Z" fill="white"/>
<path d="M140.115 79.0734C140.36 78.8047 141.045 78.4654 140.79 77.8149C140.643 77.4381 140.557 77.379 140.272 77.4555C139.986 77.532 139.365 78.4517 139.572 78.9809C139.761 79.4629 139.871 79.3421 140.115 79.0734Z" fill="white"/>
<path d="M140.115 75.7329C140.36 75.4642 141.045 75.1248 140.79 74.4743C140.643 74.0975 140.557 74.0384 140.272 74.1149C139.986 74.1914 139.365 75.1111 139.572 75.6403C139.761 76.1223 139.871 76.0015 140.115 75.7329Z" fill="white"/>
<path d="M138.901 76.5135V79.6874H142.075M138.901 76.5135V73.3396H142.075M138.901 76.5135H145.249M145.249 76.5135V73.3396H142.075M145.249 76.5135V79.6874H142.075M142.075 73.3396V79.6874" stroke="#1C2329" stroke-width="0.417616" stroke-linejoin="round"/>
<path d="M140.879 74.5373C141.14 74.7982 141.14 75.2213 140.879 75.4822C140.618 75.7432 140.195 75.7432 139.934 75.4822C139.673 75.2213 139.673 74.7982 139.934 74.5373C140.195 74.2763 140.618 74.2763 140.879 74.5373Z" stroke="#1C2329" stroke-width="0.417616"/>
<path d="M144.219 74.5373C144.48 74.7982 144.48 75.2213 144.219 75.4822C143.958 75.7432 143.535 75.7432 143.274 75.4822C143.013 75.2213 143.013 74.7982 143.274 74.5373C143.535 74.2763 143.958 74.2763 144.219 74.5373Z" stroke="#1C2329" stroke-width="0.417616"/>
<path d="M144.219 77.7113C144.48 77.9723 144.48 78.3953 144.219 78.6563C143.958 78.9172 143.535 78.9172 143.274 78.6563C143.013 78.3953 143.013 77.9723 143.274 77.7113C143.535 77.4504 143.958 77.4504 144.219 77.7113Z" stroke="#1C2329" stroke-width="0.417616"/>
<path d="M140.879 77.7113C141.14 77.9723 141.14 78.3953 140.879 78.6563C140.618 78.9172 140.195 78.9172 139.934 78.6563C139.673 78.3953 139.673 77.9723 139.934 77.7113C140.195 77.4504 140.618 77.4504 140.879 77.7113Z" stroke="#1C2329" stroke-width="0.417616"/>
<path d="M161.823 56.4426L161.103 56.4426C160.965 56.4426 160.852 56.5548 160.852 56.6932L160.852 65.5467C160.852 65.685 160.965 65.7972 161.103 65.7972L169.956 65.7972C170.095 65.7972 170.207 65.685 170.207 65.5467L170.207 56.6932C170.207 56.5548 170.095 56.4426 169.956 56.4426L162.378 56.4426" stroke="#1C2329" stroke-width="0.501139" stroke-miterlimit="10" stroke-dasharray="0.6 0.6"/>
<g clip-path="url(#clip2)">
<path d="M167.578 62.9034C167.707 62.5932 167.666 62.1514 167.273 61.4886C166.988 61.0065 166.707 60.5321 166.386 60.1993C165.965 59.7637 165.493 60.2588 165.622 60.8433L165.93 62.2387C166.09 62.9632 167.294 63.5855 167.578 62.9034Z" fill="white"/>
<path d="M162.188 62.7923C163.122 63.4656 164.277 63.8636 165.528 63.8636C166.779 63.8636 167.935 63.4656 168.869 62.7923L165.528 58.3774L162.188 62.7923Z" stroke="#1C2329" stroke-width="0.417616" stroke-linejoin="round"/>
<path d="M165.055 60.1073C165.354 60.1639 165.647 60.0881 165.872 59.9218L167.39 62.4028C166.551 62.8906 165.533 63.0908 164.499 62.8949L165.055 60.1073Z" stroke="#1C2329" stroke-width="0.417616" stroke-linejoin="round"/>
</g>
<path d="M150.095 49.1123L149.374 49.1123C149.236 49.1123 149.124 49.2245 149.124 49.3629L149.124 58.2163C149.124 58.3547 149.236 58.4669 149.374 58.4669L158.228 58.4669C158.366 58.4669 158.479 58.3547 158.479 58.2163L158.479 49.3629C158.479 49.2245 158.366 49.1123 158.228 49.1123L150.649 49.1123" stroke="#1C2329" stroke-width="0.501139" stroke-miterlimit="10" stroke-dasharray="0.6 0.6"/>
<path d="M156.728 53.7589C156.37 53.4585 155.596 53.2503 153.997 53.2853C152.915 53.3091 151.85 53.3324 150.991 53.4628C150.21 53.5813 150.338 54.2785 151.114 54.3945L155.355 55.028C156.085 55.137 157.29 54.2296 156.728 53.7589Z" fill="white"/>
<path d="M150.463 55.1857C151.227 55.1857 151.99 54.6273 151.99 54.6273L152.754 55.1857C152.754 55.1857 153.136 52.5798 153.136 51.2769C153.263 52.7039 153.327 56.3026 153.327 56.3026C153.327 56.3026 153.517 55.1857 153.899 55.1857C154.663 55.1857 154.854 54.9996 155.045 54.8135C155.236 54.6273 155.427 54.2551 155.808 54.2551C156.19 54.2551 156.381 55.1857 157.145 55.1857" stroke="#1C2329" stroke-width="0.417616" stroke-linecap="round" stroke-linejoin="round"/>
<path d="M183.08 42.5151L182.276 42.5151C182.184 42.5151 182.109 42.5899 182.109 42.6822L182.109 51.7027C182.109 51.7949 182.184 51.8697 182.276 51.8697L191.297 51.8697C191.389 51.8697 191.464 51.7949 191.464 51.7027L191.464 42.6822C191.464 42.5899 191.389 42.5151 191.297 42.5151L183.634 42.5151" stroke="#1C2329" stroke-width="0.501139" stroke-miterlimit="10" stroke-dasharray="0.6 0.6"/>
<circle cx="187.955" cy="48.3622" r="1.16932" fill="white"/>
<path d="M183.945 44.8542C183.945 44.5774 184.17 44.3531 184.447 44.3531H189.124C189.401 44.3531 189.625 44.5774 189.625 44.8542V46.2532V49.5315C189.625 49.8083 189.401 50.0327 189.124 50.0327H184.447C184.17 50.0327 183.945 49.8083 183.945 49.5315V46.2532V44.8542Z" stroke="#1C2329" stroke-width="0.334093"/>
<circle cx="188.287" cy="48.6962" r="0.208808" fill="#1C2329" stroke="#1C2329" stroke-width="0.334093"/>
<path d="M201.406 63.7727L200.602 63.7727C200.51 63.7727 200.435 63.8475 200.435 63.9398L200.435 72.9603C200.435 73.0525 200.51 73.1273 200.602 73.1273L209.623 73.1273C209.715 73.1273 209.79 73.0525 209.79 72.9603L209.79 63.9398C209.79 63.8475 209.715 63.7727 209.623 63.7727L201.961 63.7727" stroke="#1C2329" stroke-width="0.501139" stroke-miterlimit="10" stroke-dasharray="0.6 0.6"/>
<g clip-path="url(#clip3)">
<path d="M205.387 69.6728C206.109 68.9514 208.1 67.5678 207.417 66.8839C207.02 66.4878 206.778 66.5043 205.953 66.9807C205.128 67.457 203.279 69.6554 203.835 70.2118C204.342 70.7185 204.666 70.3943 205.387 69.6728Z" fill="white"/>
<path d="M202.574 70.8693C202.013 70.3083 202.013 69.3988 202.574 68.8379L203.977 67.4345L205.381 66.0311C205.942 65.4702 206.851 65.4702 207.412 66.0311C207.973 66.5921 207.973 67.5016 207.412 68.0625L206.009 69.4659L204.605 70.8693C204.045 71.4302 203.135 71.4302 202.574 70.8693Z" stroke="#1C2329" stroke-width="0.334093"/>
</g>
<path d="M183.08 56.4426L182.276 56.4426C182.184 56.4426 182.109 56.5174 182.109 56.6097L182.109 65.6302C182.109 65.7224 182.184 65.7972 182.276 65.7972L191.297 65.7972C191.389 65.7972 191.464 65.7224 191.464 65.6302L191.464 56.6097C191.464 56.5174 191.389 56.4426 191.297 56.4426L183.634 56.4426" stroke="#1C2329" stroke-width="0.501139" stroke-miterlimit="10" stroke-dasharray="0.6 0.6"/>
<path d="M187.478 62.7051C188.082 62.0096 189.814 60.743 189.091 59.932C188.672 59.4621 188.444 59.4531 187.716 59.8737C186.987 60.2943 185.48 62.4525 186.068 63.1124C186.604 63.7132 186.875 63.4007 187.478 62.7051Z" fill="white"/>
<path d="M186.557 60.0883L186.212 59.694C185.7 59.1083 184.799 59.0768 184.248 59.6254C183.832 60.0387 183.726 60.677 184.045 61.1691C184.231 61.457 184.45 61.7591 184.665 61.9716C185.287 62.5856 186.557 63.6239 186.557 63.6239C186.557 63.6239 187.826 62.5856 188.448 61.9716C188.663 61.7591 188.882 61.457 189.068 61.1691C189.387 60.677 189.281 60.0387 188.866 59.6254C188.314 59.0768 187.414 59.1082 186.901 59.6939L186.557 60.0883Z" stroke="#1C2329" stroke-width="0.334093"/>
</g>
<circle cx="54.2631" cy="172.691" r="31.4392" transform="rotate(-60 54.2631 172.691)" fill="url(#paint17_radial)"/>
<circle cx="54.2631" cy="172.691" r="31.4392" transform="rotate(-60 54.2631 172.691)" fill="url(#paint18_radial)"/>
<circle cx="54.2631" cy="172.691" r="31.4392" transform="rotate(-60 54.2631 172.691)" fill="url(#paint19_radial)"/>
<mask id="path-187-inside-26" fill="white">
<path fill-rule="evenodd" clip-rule="evenodd" d="M50.7329 167.059C49.5586 165.128 47.4346 163.838 45.0093 163.838C42.2292 163.838 39.845 165.533 38.8334 167.946C38.2463 167.777 37.6262 167.687 36.985 167.687C33.7669 167.687 31.0791 169.958 30.437 172.985C28.6321 174.184 27.4424 176.235 27.4424 178.565C27.4424 182.262 30.4393 185.259 34.1362 185.259C34.1682 185.259 34.2002 185.258 34.2321 185.258H59.1522C59.2894 185.258 59.425 185.251 59.5589 185.239C59.7301 185.252 59.9031 185.259 60.0777 185.259C63.7746 185.259 66.7715 182.262 66.7715 178.565C66.7715 174.868 63.7746 171.871 60.0777 171.871C60.032 171.871 59.9865 171.871 59.941 171.872C59.3217 168.816 56.6199 166.515 53.3807 166.515C52.4401 166.515 51.5449 166.709 50.7329 167.059Z"/>
</mask>
<path fill-rule="evenodd" clip-rule="evenodd" d="M50.7329 167.059C49.5586 165.128 47.4346 163.838 45.0093 163.838C42.2292 163.838 39.845 165.533 38.8334 167.946C38.2463 167.777 37.6262 167.687 36.985 167.687C33.7669 167.687 31.0791 169.958 30.437 172.985C28.6321 174.184 27.4424 176.235 27.4424 178.565C27.4424 182.262 30.4393 185.259 34.1362 185.259C34.1682 185.259 34.2002 185.258 34.2321 185.258H59.1522C59.2894 185.258 59.425 185.251 59.5589 185.239C59.7301 185.252 59.9031 185.259 60.0777 185.259C63.7746 185.259 66.7715 182.262 66.7715 178.565C66.7715 174.868 63.7746 171.871 60.0777 171.871C60.032 171.871 59.9865 171.871 59.941 171.872C59.3217 168.816 56.6199 166.515 53.3807 166.515C52.4401 166.515 51.5449 166.709 50.7329 167.059Z" fill="white"/>
<path d="M50.7329 167.059L50.1378 167.421L50.4525 167.938L51.0086 167.699L50.7329 167.059ZM38.8334 167.946L38.6415 168.615L39.2363 168.786L39.4756 168.215L38.8334 167.946ZM30.437 172.985L30.8223 173.565L31.0592 173.408L31.1182 173.13L30.437 172.985ZM34.2321 185.258V184.561L34.2223 184.562L34.2321 185.258ZM59.5589 185.239L59.6121 184.544L59.5527 184.54L59.4934 184.545L59.5589 185.239ZM59.941 171.872L59.2585 172.011L59.3739 172.58L59.955 172.569L59.941 171.872ZM45.0093 164.535C47.1814 164.535 49.0847 165.689 50.1378 167.421L51.3279 166.697C50.0326 164.567 47.6877 163.142 45.0093 163.142V164.535ZM39.4756 168.215C40.3825 166.052 42.5195 164.535 45.0093 164.535V163.142C41.9389 163.142 39.3074 165.014 38.1912 167.676L39.4756 168.215ZM36.985 168.384C37.5606 168.384 38.1162 168.464 38.6415 168.615L39.0253 167.276C38.3765 167.09 37.6918 166.991 36.985 166.991V168.384ZM31.1182 173.13C31.6935 170.418 34.1025 168.384 36.985 168.384V166.991C33.4312 166.991 30.4648 169.499 29.7558 172.841L31.1182 173.13ZM28.1388 178.565C28.1388 176.478 29.2034 174.641 30.8223 173.565L30.0517 172.405C28.0608 173.728 26.746 175.992 26.746 178.565H28.1388ZM34.1362 184.562C30.8239 184.562 28.1388 181.877 28.1388 178.565H26.746C26.746 182.646 30.0547 185.955 34.1362 185.955V184.562ZM34.2223 184.562C34.1937 184.562 34.1649 184.562 34.1362 184.562V185.955C34.1715 185.955 34.2067 185.955 34.2419 185.954L34.2223 184.562ZM59.1522 184.561H34.2321V185.954H59.1522V184.561ZM59.4934 184.545C59.3812 184.556 59.2674 184.561 59.1522 184.561V185.954C59.3113 185.954 59.4688 185.947 59.6245 185.932L59.4934 184.545ZM60.0777 184.562C59.9209 184.562 59.7657 184.556 59.6121 184.544L59.5057 185.933C59.6946 185.948 59.8854 185.955 60.0777 185.955V184.562ZM66.0751 178.565C66.0751 181.877 63.39 184.562 60.0777 184.562V185.955C64.1592 185.955 67.4679 182.646 67.4679 178.565H66.0751ZM60.0777 172.567C63.39 172.567 66.0751 175.252 66.0751 178.565H67.4679C67.4679 174.483 64.1592 171.175 60.0777 171.175V172.567ZM59.955 172.569C59.9958 172.568 60.0367 172.567 60.0777 172.567V171.175C60.0274 171.175 59.9772 171.175 59.9271 171.176L59.955 172.569ZM53.3807 167.211C56.2821 167.211 58.7037 169.272 59.2585 172.011L60.6235 171.734C59.9397 168.359 56.9577 165.819 53.3807 165.819V167.211ZM51.0086 167.699C51.7352 167.385 52.5367 167.211 53.3807 167.211V165.819C52.3436 165.819 51.3547 166.033 50.4572 166.42L51.0086 167.699Z" fill="#1A2530" mask="url(#path-187-inside-26)"/>
<g style="mix-blend-mode:multiply">
<path d="M54.0547 179.965C50.0955 180.584 40.4119 180.917 41.3608 183.425C41.9105 184.878 42.7759 185.181 46.589 185.262C50.4022 185.343 61.2247 186.287 60.4527 184.247C59.7496 182.388 58.0139 179.345 54.0547 179.965Z" fill="url(#paint20_linear)"/>
</g>
<circle cx="279.969" cy="249.594" r="63.4063" fill="url(#paint21_radial)"/>
<circle cx="279.969" cy="249.594" r="63.4063" fill="url(#paint22_radial)"/>
<circle cx="279.969" cy="249.594" r="63.4063" fill="url(#paint23_radial)"/>
<mask id="path-191-inside-27" fill="white">
<path fill-rule="evenodd" clip-rule="evenodd" d="M287.631 236.519C286.457 234.588 284.333 233.298 281.908 233.298C279.128 233.298 276.743 234.993 275.732 237.405C275.145 237.237 274.525 237.147 273.883 237.147C270.665 237.147 267.978 239.418 267.336 242.444C265.531 243.643 264.341 245.695 264.341 248.024C264.341 251.721 267.338 254.718 271.035 254.718C271.057 254.718 271.08 254.718 271.102 254.718C271.107 254.718 271.112 254.718 271.116 254.718H296.051C296.189 254.718 296.325 254.711 296.459 254.698C296.63 254.711 296.802 254.718 296.976 254.718C300.673 254.718 303.67 251.721 303.67 248.024C303.67 244.327 300.673 241.33 296.976 241.33C296.93 241.33 296.885 241.331 296.839 241.332C296.22 238.276 293.518 235.975 290.279 235.975C289.339 235.975 288.444 236.169 287.631 236.519Z"/>
</mask>
<path fill-rule="evenodd" clip-rule="evenodd" d="M287.631 236.519C286.457 234.588 284.333 233.298 281.908 233.298C279.128 233.298 276.743 234.993 275.732 237.405C275.145 237.237 274.525 237.147 273.883 237.147C270.665 237.147 267.978 239.418 267.336 242.444C265.531 243.643 264.341 245.695 264.341 248.024C264.341 251.721 267.338 254.718 271.035 254.718C271.057 254.718 271.08 254.718 271.102 254.718C271.107 254.718 271.112 254.718 271.116 254.718H296.051C296.189 254.718 296.325 254.711 296.459 254.698C296.63 254.711 296.802 254.718 296.976 254.718C300.673 254.718 303.67 251.721 303.67 248.024C303.67 244.327 300.673 241.33 296.976 241.33C296.93 241.33 296.885 241.331 296.839 241.332C296.22 238.276 293.518 235.975 290.279 235.975C289.339 235.975 288.444 236.169 287.631 236.519Z" fill="white"/>
<path d="M287.631 236.519L287.036 236.881L287.351 237.398L287.907 237.159L287.631 236.519ZM275.732 237.405L275.54 238.075L276.135 238.245L276.374 237.675L275.732 237.405ZM267.336 242.444L267.721 243.024L267.958 242.867L268.017 242.589L267.336 242.444ZM271.102 254.718L271.105 254.021L271.095 254.021L271.102 254.718ZM296.459 254.698L296.512 254.004L296.453 253.999L296.394 254.005L296.459 254.698ZM296.839 241.332L296.157 241.47L296.272 242.04L296.853 242.028L296.839 241.332ZM281.908 233.994C284.08 233.994 285.983 235.149 287.036 236.881L288.226 236.157C286.931 234.027 284.586 232.601 281.908 232.601V233.994ZM276.374 237.675C277.281 235.512 279.418 233.994 281.908 233.994V232.601C278.837 232.601 276.206 234.474 275.09 237.136L276.374 237.675ZM273.883 237.843C274.459 237.843 275.015 237.924 275.54 238.075L275.924 236.736C275.275 236.55 274.59 236.451 273.883 236.451V237.843ZM268.017 242.589C268.592 239.877 271.001 237.843 273.883 237.843V236.451C270.33 236.451 267.363 238.958 266.654 242.3L268.017 242.589ZM265.037 248.024C265.037 245.938 266.102 244.1 267.721 243.024L266.95 241.864C264.959 243.187 263.644 245.452 263.644 248.024H265.037ZM271.035 254.022C267.722 254.022 265.037 251.336 265.037 248.024H263.644C263.644 252.106 266.953 255.414 271.035 255.414V254.022ZM271.095 254.021C271.075 254.021 271.055 254.022 271.035 254.022V255.414C271.06 255.414 271.084 255.414 271.109 255.414L271.095 254.021ZM271.116 254.021C271.112 254.021 271.108 254.021 271.105 254.021L271.1 255.414C271.105 255.414 271.111 255.414 271.116 255.414V254.021ZM296.051 254.021H271.116V255.414H296.051V254.021ZM296.394 254.005C296.281 254.016 296.166 254.021 296.051 254.021V255.414C296.211 255.414 296.369 255.406 296.525 255.391L296.394 254.005ZM296.976 254.022C296.82 254.022 296.665 254.016 296.512 254.004L296.406 255.393C296.595 255.407 296.785 255.414 296.976 255.414V254.022ZM302.974 248.024C302.974 251.336 300.288 254.022 296.976 254.022V255.414C301.058 255.414 304.366 252.106 304.366 248.024H302.974ZM296.976 242.027C300.288 242.027 302.974 244.712 302.974 248.024H304.366C304.366 243.943 301.058 240.634 296.976 240.634V242.027ZM296.853 242.028C296.894 242.027 296.935 242.027 296.976 242.027V240.634C296.926 240.634 296.875 240.634 296.825 240.635L296.853 242.028ZM290.279 236.671C293.18 236.671 295.602 238.732 296.157 241.47L297.522 241.193C296.838 237.819 293.856 235.279 290.279 235.279V236.671ZM287.907 237.159C288.634 236.845 289.435 236.671 290.279 236.671V235.279C289.242 235.279 288.253 235.493 287.356 235.88L287.907 237.159Z" fill="#1A2530" mask="url(#path-191-inside-27)"/>
<g style="mix-blend-mode:multiply">
<path d="M293.113 250.171C289.157 250.626 279.476 250.833 280.438 252.76C280.994 253.877 281.861 254.113 285.674 254.194C289.488 254.275 300.314 255.053 299.532 253.485C298.819 252.057 297.069 249.716 293.113 250.171Z" fill="url(#paint24_linear)"/>
</g>
<circle cx="290.231" cy="63.4063" r="63.4063" fill="url(#paint25_radial)"/>
<circle cx="290.231" cy="63.4063" r="63.4063" fill="url(#paint26_radial)"/>
<circle cx="290.231" cy="63.4063" r="63.4063" fill="url(#paint27_radial)"/>
<mask id="path-195-inside-28" fill="white">
<path fill-rule="evenodd" clip-rule="evenodd" d="M286.766 61.8626C285.592 59.9314 283.468 58.6416 281.042 58.6416C278.262 58.6416 275.878 60.3364 274.867 62.7491C274.28 62.5808 273.659 62.4907 273.018 62.4907C269.8 62.4907 267.112 64.7617 266.47 67.7885C264.665 68.9875 263.476 71.0389 263.476 73.3682C263.476 77.0651 266.472 80.062 270.169 80.062C270.201 80.062 270.233 80.0618 270.265 80.0613H295.185C295.323 80.0613 295.458 80.0548 295.592 80.0422C295.763 80.0553 295.936 80.062 296.111 80.062C299.808 80.062 302.805 77.0651 302.805 73.3682C302.805 69.6713 299.808 66.6744 296.111 66.6744C296.065 66.6744 296.02 66.6749 295.974 66.6758C295.355 63.6193 292.653 61.3185 289.414 61.3185C288.473 61.3185 287.578 61.5125 286.766 61.8626Z"/>
</mask>
<path fill-rule="evenodd" clip-rule="evenodd" d="M286.766 61.8626C285.592 59.9314 283.468 58.6416 281.042 58.6416C278.262 58.6416 275.878 60.3364 274.867 62.7491C274.28 62.5808 273.659 62.4907 273.018 62.4907C269.8 62.4907 267.112 64.7617 266.47 67.7885C264.665 68.9875 263.476 71.0389 263.476 73.3682C263.476 77.0651 266.472 80.062 270.169 80.062C270.201 80.062 270.233 80.0618 270.265 80.0613H295.185C295.323 80.0613 295.458 80.0548 295.592 80.0422C295.763 80.0553 295.936 80.062 296.111 80.062C299.808 80.062 302.805 77.0651 302.805 73.3682C302.805 69.6713 299.808 66.6744 296.111 66.6744C296.065 66.6744 296.02 66.6749 295.974 66.6758C295.355 63.6193 292.653 61.3185 289.414 61.3185C288.473 61.3185 287.578 61.5125 286.766 61.8626Z" fill="white"/>
<path d="M286.766 61.8626L286.171 62.2244L286.486 62.7418L287.042 62.502L286.766 61.8626ZM274.867 62.7491L274.675 63.4185L275.27 63.5891L275.509 63.0184L274.867 62.7491ZM266.47 67.7885L266.856 68.3686L267.092 68.2112L267.151 67.933L266.47 67.7885ZM270.265 80.0613V79.3649L270.255 79.365L270.265 80.0613ZM295.592 80.0422L295.645 79.3479L295.586 79.3433L295.527 79.3489L295.592 80.0422ZM295.974 66.6758L295.292 66.8141L295.407 67.3837L295.988 67.372L295.974 66.6758ZM281.042 59.338C283.215 59.338 285.118 60.4923 286.171 62.2244L287.361 61.5008C286.066 59.3706 283.721 57.9452 281.042 57.9452V59.338ZM275.509 63.0184C276.416 60.8553 278.553 59.338 281.042 59.338V57.9452C277.972 57.9452 275.341 59.8175 274.224 62.4799L275.509 63.0184ZM273.018 63.187C273.594 63.187 274.149 63.2679 274.675 63.4185L275.059 62.0797C274.41 61.8937 273.725 61.7943 273.018 61.7943V63.187ZM267.151 67.933C267.727 65.2213 270.136 63.187 273.018 63.187V61.7943C269.464 61.7943 266.498 64.3021 265.789 67.644L267.151 67.933ZM264.172 73.3682C264.172 71.2819 265.237 69.444 266.856 68.3686L266.085 67.2085C264.094 68.531 262.779 70.7959 262.779 73.3682H264.172ZM270.169 79.3656C266.857 79.3656 264.172 76.6805 264.172 73.3682H262.779C262.779 77.4497 266.088 80.7584 270.169 80.7584V79.3656ZM270.255 79.365C270.227 79.3654 270.198 79.3656 270.169 79.3656V80.7584C270.205 80.7584 270.24 80.7581 270.275 80.7576L270.255 79.365ZM295.185 79.365H270.265V80.7577H295.185V79.365ZM295.527 79.3489C295.414 79.3595 295.301 79.365 295.185 79.365V80.7577C295.345 80.7577 295.502 80.7502 295.658 80.7355L295.527 79.3489ZM296.111 79.3656C295.954 79.3656 295.799 79.3596 295.645 79.3479L295.539 80.7365C295.728 80.751 295.919 80.7584 296.111 80.7584V79.3656ZM302.108 73.3682C302.108 76.6805 299.423 79.3656 296.111 79.3656V80.7584C300.192 80.7584 303.501 77.4497 303.501 73.3682H302.108ZM296.111 67.3708C299.423 67.3708 302.108 70.0559 302.108 73.3682H303.501C303.501 69.2867 300.192 65.978 296.111 65.978V67.3708ZM295.988 67.372C296.029 67.3712 296.07 67.3708 296.111 67.3708V65.978C296.061 65.978 296.01 65.9785 295.96 65.9796L295.988 67.372ZM289.414 62.0149C292.315 62.0149 294.737 64.0759 295.292 66.8141L296.657 66.5375C295.973 63.1627 292.991 60.6221 289.414 60.6221V62.0149ZM287.042 62.502C287.768 62.1888 288.57 62.0149 289.414 62.0149V60.6221C288.377 60.6221 287.388 60.8361 286.49 61.2231L287.042 62.502Z" fill="#1A2530" mask="url(#path-195-inside-28)"/>
<g style="mix-blend-mode:multiply">
<path d="M293.112 75.8511C289.156 76.3059 279.475 76.5133 280.437 78.4404C280.993 79.5569 281.86 79.793 285.673 79.8741C289.487 79.9552 300.313 80.7328 299.531 79.1648C298.818 77.7369 297.068 75.3962 293.112 75.8511Z" fill="url(#paint28_linear)"/>
</g>
<defs>
<linearGradient id="paint0_linear" x1="160.585" y1="259.913" x2="176.15" y2="259.913" gradientUnits="userSpaceOnUse">
<stop stop-color="#0057FF"/>
<stop offset="0.588542" stop-color="#5AEEFF"/>
<stop offset="1" stop-color="#DEFFDE"/>
</linearGradient>
<linearGradient id="paint1_linear" x1="122.938" y1="212.148" x2="133.924" y2="212.157" gradientUnits="userSpaceOnUse">
<stop offset="0.159308" stop-color="#248AE5"/>
<stop offset="0.536455" stop-color="#5AEEFF"/>
<stop offset="1" stop-color="#38E8A9"/>
</linearGradient>
<linearGradient id="paint2_linear" x1="122.938" y1="224.049" x2="133.924" y2="224.059" gradientUnits="userSpaceOnUse">
<stop offset="0.159308" stop-color="#248AE5"/>
<stop offset="0.536455" stop-color="#5AEEFF"/>
<stop offset="1" stop-color="#38E8A9"/>
</linearGradient>
<linearGradient id="paint3_linear" x1="134.324" y1="212.148" x2="145.31" y2="212.157" gradientUnits="userSpaceOnUse">
<stop offset="0.159308" stop-color="#248AE5"/>
<stop offset="0.536455" stop-color="#5AEEFF"/>
<stop offset="1" stop-color="#38E8A9"/>
</linearGradient>
<linearGradient id="paint4_linear" x1="134.324" y1="224.049" x2="145.31" y2="224.059" gradientUnits="userSpaceOnUse">
<stop offset="0.159308" stop-color="#248AE5"/>
<stop offset="0.536455" stop-color="#5AEEFF"/>
<stop offset="1" stop-color="#38E8A9"/>
</linearGradient>
<linearGradient id="paint5_linear" x1="145.191" y1="212.148" x2="156.177" y2="212.157" gradientUnits="userSpaceOnUse">
<stop offset="0.159308" stop-color="#248AE5"/>
<stop offset="0.536455" stop-color="#5AEEFF"/>
<stop offset="1" stop-color="#38E8A9"/>
</linearGradient>
<linearGradient id="paint6_linear" x1="156.576" y1="212.148" x2="167.561" y2="212.157" gradientUnits="userSpaceOnUse">
<stop offset="0.159308" stop-color="#248AE5"/>
<stop offset="0.536455" stop-color="#5AEEFF"/>
<stop offset="1" stop-color="#38E8A9"/>
</linearGradient>
<linearGradient id="paint7_linear" x1="156.576" y1="224.049" x2="167.561" y2="224.059" gradientUnits="userSpaceOnUse">
<stop offset="0.159308" stop-color="#248AE5"/>
<stop offset="0.536455" stop-color="#5AEEFF"/>
<stop offset="1" stop-color="#38E8A9"/>
</linearGradient>
<linearGradient id="paint8_linear" x1="167.956" y1="212.148" x2="178.941" y2="212.157" gradientUnits="userSpaceOnUse">
<stop offset="0.159308" stop-color="#248AE5"/>
<stop offset="0.536455" stop-color="#5AEEFF"/>
<stop offset="1" stop-color="#38E8A9"/>
</linearGradient>
<linearGradient id="paint9_linear" x1="167.956" y1="224.049" x2="178.941" y2="224.059" gradientUnits="userSpaceOnUse">
<stop offset="0.159308" stop-color="#248AE5"/>
<stop offset="0.536455" stop-color="#5AEEFF"/>
<stop offset="1" stop-color="#38E8A9"/>
</linearGradient>
<linearGradient id="paint10_linear" x1="179.344" y1="212.148" x2="190.33" y2="212.157" gradientUnits="userSpaceOnUse">
<stop offset="0.159308" stop-color="#248AE5"/>
<stop offset="0.536455" stop-color="#5AEEFF"/>
<stop offset="1" stop-color="#38E8A9"/>
</linearGradient>
<linearGradient id="paint11_linear" x1="190.208" y1="212.148" x2="201.193" y2="212.157" gradientUnits="userSpaceOnUse">
<stop offset="0.159308" stop-color="#248AE5"/>
<stop offset="0.536455" stop-color="#5AEEFF"/>
<stop offset="1" stop-color="#38E8A9"/>
</linearGradient>
<linearGradient id="paint12_linear" x1="190.208" y1="224.049" x2="201.193" y2="224.059" gradientUnits="userSpaceOnUse">
<stop offset="0.159308" stop-color="#248AE5"/>
<stop offset="0.536455" stop-color="#5AEEFF"/>
<stop offset="1" stop-color="#38E8A9"/>
</linearGradient>
<linearGradient id="paint13_linear" x1="201.593" y1="212.148" x2="212.579" y2="212.157" gradientUnits="userSpaceOnUse">
<stop offset="0.159308" stop-color="#248AE5"/>
<stop offset="0.536455" stop-color="#5AEEFF"/>
<stop offset="1" stop-color="#38E8A9"/>
</linearGradient>
<linearGradient id="paint14_linear" x1="201.593" y1="224.049" x2="212.579" y2="224.059" gradientUnits="userSpaceOnUse">
<stop offset="0.159308" stop-color="#248AE5"/>
<stop offset="0.536455" stop-color="#5AEEFF"/>
<stop offset="1" stop-color="#38E8A9"/>
</linearGradient>
<linearGradient id="paint15_linear" x1="193.684" y1="15.3693" x2="191.471" y2="18.6959" gradientUnits="userSpaceOnUse">
<stop stop-color="#14DDE0"/>
<stop offset="1" stop-color="#C9CDFF"/>
<stop offset="1" stop-color="#5967FA"/>
</linearGradient>
<linearGradient id="paint16_linear" x1="143.118" y1="16.5049" x2="144.018" y2="9.93386" gradientUnits="userSpaceOnUse">
<stop stop-color="#14DDE0"/>
<stop offset="1" stop-color="#C9CDFF"/>
<stop offset="1" stop-color="#5967FA"/>
</linearGradient>
<radialGradient id="paint17_radial" cx="0" cy="0" r="1" gradientUnits="userSpaceOnUse" gradientTransform="translate(60.2135 176.066) rotate(7.66681) scale(18.6394 13.1823)">
<stop stop-color="#5AEEFF" stop-opacity="0.3"/>
<stop offset="1" stop-color="#5AEEFF" stop-opacity="0"/>
</radialGradient>
<radialGradient id="paint18_radial" cx="0" cy="0" r="1" gradientUnits="userSpaceOnUse" gradientTransform="translate(46.7142 184.237) rotate(159.169) scale(29.7471 32.1345)">
<stop offset="0.210643" stop-color="#0057FF" stop-opacity="0.1"/>
<stop offset="1" stop-color="white" stop-opacity="0"/>
</radialGradient>
<radialGradient id="paint19_radial" cx="0" cy="0" r="1" gradientUnits="userSpaceOnUse" gradientTransform="translate(54.2631 172.691) rotate(-146.545) scale(28.3036)">
<stop offset="0.606926" stop-color="#5AEEFF" stop-opacity="0.1"/>
<stop offset="1" stop-color="white" stop-opacity="0"/>
</radialGradient>
<linearGradient id="paint20_linear" x1="69.0854" y1="179.63" x2="40.1532" y2="192.62" gradientUnits="userSpaceOnUse">
<stop offset="0.159308" stop-color="#248AE5"/>
<stop offset="0.536455" stop-color="#5AEEFF"/>
<stop offset="1" stop-color="#38E8A9"/>
</linearGradient>
<radialGradient id="paint21_radial" cx="0" cy="0" r="1" gradientUnits="userSpaceOnUse" gradientTransform="translate(291.969 256.4) rotate(7.66681) scale(37.5917 26.5859)">
<stop stop-color="#5AEEFF" stop-opacity="0.3"/>
<stop offset="1" stop-color="#5AEEFF" stop-opacity="0"/>
</radialGradient>
<radialGradient id="paint22_radial" cx="0" cy="0" r="1" gradientUnits="userSpaceOnUse" gradientTransform="translate(264.744 272.879) rotate(159.169) scale(59.9938 64.8085)">
<stop offset="0.210643" stop-color="#0057FF" stop-opacity="0.1"/>
<stop offset="1" stop-color="white" stop-opacity="0"/>
</radialGradient>
<radialGradient id="paint23_radial" cx="0" cy="0" r="1" gradientUnits="userSpaceOnUse" gradientTransform="translate(279.969 249.594) rotate(-146.545) scale(57.0825)">
<stop offset="0.606926" stop-color="#5AEEFF" stop-opacity="0.1"/>
<stop offset="1" stop-color="white" stop-opacity="0"/>
</radialGradient>
<linearGradient id="paint24_linear" x1="308.14" y1="249.989" x2="282.442" y2="265.164" gradientUnits="userSpaceOnUse">
<stop offset="0.159308" stop-color="#248AE5"/>
<stop offset="0.536455" stop-color="#5AEEFF"/>
<stop offset="1" stop-color="#38E8A9"/>
</linearGradient>
<radialGradient id="paint25_radial" cx="0" cy="0" r="1" gradientUnits="userSpaceOnUse" gradientTransform="translate(302.231 70.2127) rotate(7.66681) scale(37.5917 26.5859)">
<stop stop-color="#5AEEFF" stop-opacity="0.3"/>
<stop offset="1" stop-color="#5AEEFF" stop-opacity="0"/>
</radialGradient>
<radialGradient id="paint26_radial" cx="0" cy="0" r="1" gradientUnits="userSpaceOnUse" gradientTransform="translate(275.006 86.6911) rotate(159.169) scale(59.9938 64.8085)">
<stop offset="0.210643" stop-color="#0057FF" stop-opacity="0.1"/>
<stop offset="1" stop-color="white" stop-opacity="0"/>
</radialGradient>
<radialGradient id="paint27_radial" cx="0" cy="0" r="1" gradientUnits="userSpaceOnUse" gradientTransform="translate(290.231 63.4063) rotate(-146.545) scale(57.0825)">
<stop offset="0.606926" stop-color="#5AEEFF" stop-opacity="0.1"/>
<stop offset="1" stop-color="white" stop-opacity="0"/>
</radialGradient>
<linearGradient id="paint28_linear" x1="308.139" y1="75.669" x2="282.441" y2="90.8444" gradientUnits="userSpaceOnUse">
<stop offset="0.159308" stop-color="#248AE5"/>
<stop offset="0.536455" stop-color="#5AEEFF"/>
<stop offset="1" stop-color="#38E8A9"/>
</linearGradient>
<clipPath id="clip0">
<rect width="5.7631" height="5.7631" fill="white" transform="translate(128.066 47.8511)"/>
</clipPath>
<clipPath id="clip1">
<rect width="7.01594" height="7.01594" fill="white" transform="translate(199.238 48.9827)"/>
</clipPath>
<clipPath id="clip2">
<rect width="8.01822" height="8.01822" fill="white" transform="translate(161.52 57.1113)"/>
</clipPath>
<clipPath id="clip3">
<rect width="8.01822" height="8.01822" fill="white" transform="translate(201.103 64.4409)"/>
</clipPath>
</defs>
</svg>
