<svg width="340" height="248" viewBox="0 0 340 248" fill="none" xmlns="http://www.w3.org/2000/svg">
<rect x="0.322827" y="0.322827" width="339.354" height="247.354" rx="6.1337" fill="white" stroke="#E4EBF2" stroke-width="0.645653"/>
<circle cx="168.584" cy="121.753" r="100.803" fill="white" stroke="black" stroke-width="1.3864"/>
<path d="M140.089 118.876H146.032V117.656H141.506V114.781H145.669V113.566H141.506V110.704H145.977V109.485H140.089V118.876ZM147.869 109.485V118.876H149.217V112.076H149.305L152.074 118.862H153.193L155.963 112.08H156.05V118.876H157.398V109.485H155.678L152.689 116.785H152.579L149.589 109.485H147.869ZM159.458 118.876H160.875V115.322H162.801C162.833 115.322 162.861 115.322 162.893 115.322L164.8 118.876H166.415L164.333 115.075C165.484 114.648 166.057 113.69 166.057 112.429C166.057 110.7 164.984 109.485 162.806 109.485H159.458V118.876ZM160.875 114.102V110.7H162.654C164.053 110.7 164.631 111.365 164.631 112.429C164.631 113.488 164.053 114.102 162.673 114.102H160.875ZM174.239 118.876C177.1 118.876 178.756 117.101 178.756 114.167C178.756 111.246 177.1 109.485 174.335 109.485H171.198V118.876H174.239ZM172.615 117.638V110.723H174.248C176.302 110.723 177.362 111.952 177.362 114.167C177.362 116.391 176.302 117.638 174.161 117.638H172.615ZM182.457 119.032C183.622 119.032 184.278 118.44 184.539 117.913H184.594V118.876H185.933V114.199C185.933 112.149 184.319 111.741 183.2 111.741C181.925 111.741 180.751 112.254 180.293 113.538L181.581 113.832C181.783 113.332 182.297 112.85 183.218 112.85C184.104 112.85 184.557 113.314 184.557 114.112V114.144C184.557 114.643 184.044 114.634 182.778 114.781C181.444 114.937 180.077 115.285 180.077 116.886C180.077 118.271 181.118 119.032 182.457 119.032ZM182.755 117.931C181.98 117.931 181.421 117.583 181.421 116.904C181.421 116.17 182.072 115.909 182.865 115.804C183.31 115.744 184.365 115.625 184.562 115.428V116.336C184.562 117.17 183.897 117.931 182.755 117.931ZM191.047 111.832H189.603V110.145H188.232V111.832H187.2V112.933H188.232V117.092C188.227 118.372 189.204 118.991 190.286 118.968C190.722 118.963 191.015 118.881 191.176 118.821L190.928 117.688C190.836 117.707 190.667 117.748 190.447 117.748C190.002 117.748 189.603 117.601 189.603 116.808V112.933H191.047V111.832ZM194.614 119.032C195.778 119.032 196.434 118.44 196.696 117.913H196.751V118.876H198.09V114.199C198.09 112.149 196.475 111.741 195.357 111.741C194.082 111.741 192.908 112.254 192.449 113.538L193.738 113.832C193.94 113.332 194.453 112.85 195.375 112.85C196.26 112.85 196.714 113.314 196.714 114.112V114.144C196.714 114.643 196.2 114.634 194.935 114.781C193.6 114.937 192.234 115.285 192.234 116.886C192.234 118.271 193.275 119.032 194.614 119.032ZM194.912 117.931C194.137 117.931 193.577 117.583 193.577 116.904C193.577 116.17 194.229 115.909 195.022 115.804C195.467 115.744 196.521 115.625 196.719 115.428V116.336C196.719 117.17 196.054 117.931 194.912 117.931ZM150.893 129.704H153.818V137.876H155.231V129.704H158.161V128.485H150.893V129.704ZM159.717 140.517C160.849 140.517 161.565 139.926 161.973 138.816L164.885 130.846L163.404 130.832L161.62 136.299H161.546L159.763 130.832H158.295L160.872 137.968L160.703 138.435C160.354 139.371 159.863 139.449 159.111 139.242L158.781 140.366C158.946 140.439 159.304 140.517 159.717 140.517ZM166.177 140.517H167.548V136.78H167.63C167.878 137.229 168.382 138.014 169.666 138.014C171.372 138.014 172.61 136.647 172.61 134.368C172.61 132.084 171.354 130.741 169.653 130.741C168.346 130.741 167.873 131.539 167.63 131.974H167.516V130.832H166.177V140.517ZM167.52 134.354C167.52 132.882 168.162 131.906 169.359 131.906C170.602 131.906 171.225 132.956 171.225 134.354C171.225 135.767 170.583 136.844 169.359 136.844C168.181 136.844 167.52 135.835 167.52 134.354ZM177.182 138.018C178.718 138.018 179.805 137.262 180.117 136.115L178.819 135.881C178.572 136.546 177.975 136.885 177.196 136.885C176.022 136.885 175.233 136.124 175.197 134.767H180.204V134.281C180.204 131.736 178.682 130.741 177.086 130.741C175.123 130.741 173.83 132.236 173.83 134.4C173.83 136.587 175.105 138.018 177.182 138.018ZM175.201 133.74C175.256 132.74 175.981 131.873 177.095 131.873C178.159 131.873 178.856 132.662 178.86 133.74H175.201ZM187.003 132.552C186.719 131.456 185.862 130.741 184.339 130.741C182.748 130.741 181.62 131.58 181.62 132.827C181.62 133.827 182.225 134.492 183.546 134.785L184.738 135.047C185.417 135.198 185.733 135.501 185.733 135.941C185.733 136.487 185.151 136.913 184.252 136.913C183.431 136.913 182.904 136.56 182.739 135.867L181.413 136.069C181.643 137.317 182.679 138.018 184.261 138.018C185.962 138.018 187.141 137.115 187.141 135.84C187.141 134.845 186.508 134.23 185.215 133.932L184.096 133.676C183.321 133.492 182.986 133.231 182.991 132.754C182.986 132.213 183.573 131.828 184.353 131.828C185.206 131.828 185.6 132.3 185.761 132.772L187.003 132.552Z" fill="black"/>
<path d="M142.966 189.963C144.13 189.963 144.786 189.371 145.047 188.844H145.103V189.807H146.442V185.129C146.442 183.08 144.827 182.671 143.708 182.671C142.434 182.671 141.26 183.185 140.801 184.469L142.09 184.762C142.292 184.263 142.805 183.781 143.727 183.781C144.612 183.781 145.066 184.244 145.066 185.042V185.074C145.066 185.574 144.552 185.565 143.287 185.712C141.952 185.868 140.586 186.216 140.586 187.816C140.586 189.201 141.627 189.963 142.966 189.963ZM143.264 188.862C142.489 188.862 141.929 188.514 141.929 187.835C141.929 187.101 142.58 186.84 143.374 186.734C143.819 186.675 144.873 186.555 145.07 186.358V187.266C145.07 188.101 144.405 188.862 143.264 188.862ZM149.639 185.625C149.639 184.501 150.327 183.859 151.28 183.859C152.211 183.859 152.775 184.469 152.775 185.492V189.807H154.146V185.327C154.146 183.584 153.188 182.671 151.748 182.671C150.689 182.671 149.996 183.162 149.671 183.91H149.584V182.763H148.268V189.807H149.639V185.625ZM158.622 189.944C159.906 189.944 160.41 189.16 160.658 188.711H160.773V189.807H162.112V180.415H160.741V183.905H160.658C160.41 183.469 159.943 182.671 158.631 182.671C156.93 182.671 155.678 184.015 155.678 186.299C155.678 188.578 156.912 189.944 158.622 189.944ZM158.925 188.775C157.7 188.775 157.063 187.697 157.063 186.285C157.063 184.886 157.687 183.836 158.925 183.836C160.122 183.836 160.763 184.813 160.763 186.285C160.763 187.766 160.108 188.775 158.925 188.775ZM167.486 189.807H168.857V185.464C168.857 184.515 169.522 183.855 170.302 183.855C171.063 183.855 171.59 184.359 171.59 185.125V189.807H172.957V185.317C172.957 184.469 173.475 183.855 174.369 183.855C175.094 183.855 175.69 184.258 175.69 185.212V189.807H177.061V185.083C177.061 183.474 176.162 182.671 174.887 182.671C173.874 182.671 173.113 183.158 172.773 183.91H172.7C172.393 183.139 171.746 182.671 170.806 182.671C169.875 182.671 169.183 183.135 168.889 183.91H168.802V182.763H167.486V189.807ZM180.948 189.963C182.113 189.963 182.769 189.371 183.03 188.844H183.085V189.807H184.424V185.129C184.424 183.08 182.81 182.671 181.691 182.671C180.416 182.671 179.242 183.185 178.784 184.469L180.072 184.762C180.274 184.263 180.788 183.781 181.709 183.781C182.594 183.781 183.048 184.244 183.048 185.042V185.074C183.048 185.574 182.535 185.565 181.269 185.712C179.935 185.868 178.568 186.216 178.568 187.816C178.568 189.201 179.609 189.963 180.948 189.963ZM181.246 188.862C180.471 188.862 179.912 188.514 179.912 187.835C179.912 187.101 180.563 186.84 181.356 186.734C181.801 186.675 182.856 186.555 183.053 186.358V187.266C183.053 188.101 182.388 188.862 181.246 188.862ZM187.621 185.625C187.621 184.501 188.309 183.859 189.263 183.859C190.194 183.859 190.758 184.469 190.758 185.492V189.807H192.129V185.327C192.129 183.584 191.171 182.671 189.731 182.671C188.671 182.671 187.979 183.162 187.653 183.91H187.566V182.763H186.25V189.807H187.621V185.625ZM194.582 192.448C195.715 192.448 196.43 191.856 196.838 190.747L199.75 182.777L198.269 182.763L196.485 188.229H196.412L194.628 182.763H193.161L195.738 189.898L195.568 190.366C195.22 191.302 194.729 191.38 193.977 191.173L193.647 192.297C193.812 192.37 194.17 192.448 194.582 192.448ZM155.241 208.807H156.612V204.464C156.612 203.515 157.277 202.855 158.057 202.855C158.818 202.855 159.345 203.359 159.345 204.125V208.807H160.712V204.317C160.712 203.469 161.23 202.855 162.124 202.855C162.849 202.855 163.445 203.258 163.445 204.212V208.807H164.816V204.083C164.816 202.474 163.917 201.671 162.642 201.671C161.629 201.671 160.868 202.158 160.528 202.91H160.455C160.148 202.139 159.501 201.671 158.561 201.671C157.63 201.671 156.938 202.135 156.644 202.91H156.557V201.763H155.241V208.807ZM169.621 208.949C171.606 208.949 172.904 207.495 172.904 205.317C172.904 203.125 171.606 201.671 169.621 201.671C167.635 201.671 166.337 203.125 166.337 205.317C166.337 207.495 167.635 208.949 169.621 208.949ZM169.625 207.798C168.327 207.798 167.722 206.665 167.722 205.312C167.722 203.964 168.327 202.818 169.625 202.818C170.914 202.818 171.519 203.964 171.519 205.312C171.519 206.665 170.914 207.798 169.625 207.798ZM174.434 208.807H175.805V204.505C175.805 203.584 176.516 202.919 177.488 202.919C177.773 202.919 178.094 202.969 178.204 203.001V201.69C178.066 201.671 177.796 201.658 177.621 201.658C176.796 201.658 176.09 202.125 175.833 202.882H175.76V201.763H174.434V208.807ZM182.174 208.949C183.71 208.949 184.797 208.192 185.108 207.046L183.811 206.812C183.563 207.477 182.967 207.816 182.187 207.816C181.014 207.816 180.225 207.055 180.188 205.698H185.196V205.212C185.196 202.667 183.673 201.671 182.077 201.671C180.115 201.671 178.822 203.166 178.822 205.331C178.822 207.518 180.096 208.949 182.174 208.949ZM180.193 204.67C180.248 203.671 180.972 202.804 182.087 202.804C183.15 202.804 183.847 203.593 183.852 204.67H180.193Z" fill="black"/>
<path d="M226.059 77.6077C227.829 77.4412 229.482 76.3483 229.482 71.7963C229.482 69.1137 229.482 66.4869 228.686 64.6815C228.135 63.4322 226.61 63.9721 226.218 65.2797L223.564 74.1159C223.098 75.6679 224.445 77.7593 226.059 77.6077Z" fill="url(#paint0_linear)"/>
<rect x="0.513015" y="0.00948883" width="2.04324" height="5.2048" rx="1.02162" transform="matrix(0.716369 -0.697722 0.690077 0.723736 221.741 69.0242)" stroke="#1A2530" stroke-width="0.72952"/>
<line x1="223.573" y1="70.1878" x2="224.853" y2="68.9084" stroke="#1A2530" stroke-width="0.72952"/>
<path d="M219.718 63.1333H229.224V76.0228C229.224 76.6271 228.734 77.1171 228.13 77.1171H220.813C220.208 77.1171 219.718 76.6271 219.718 76.0228V63.1333Z" stroke="#1A2530" stroke-width="0.72952"/>
<rect x="219.078" y="59.2954" width="10.7852" height="3.74844" rx="1.09428" stroke="#1A2530" stroke-width="0.72952"/>
<rect x="219.718" y="66.3319" width="9.50581" height="6.94698" stroke="#1A2530" stroke-width="0.72952"/>
<path d="M247.371 92.335C247.689 93.6953 247.813 97.0221 249.206 96.6967C250.013 96.5082 250.186 96.211 250.254 94.9011C250.323 93.5912 249.077 89.8577 247.943 90.1224C246.911 90.3634 247.054 90.9747 247.371 92.335Z" fill="url(#paint1_linear)"/>
<path d="M245.651 93.8693C246.915 94.5884 250.215 95.7633 249.443 96.9051C248.996 97.5665 248.642 97.6259 247.305 97.2683C245.968 96.9107 242.619 94.6019 243.247 93.6729C243.819 92.8269 244.387 93.1501 245.651 93.8693Z" fill="url(#paint2_linear)"/>
<path d="M250.644 100.72C249.957 99.4949 247.786 96.9171 249.053 96.2691C249.788 95.8937 250.12 96.0063 251.063 96.9462C252.006 97.886 253.611 101.488 252.579 102.016C251.64 102.496 251.331 101.945 250.644 100.72Z" fill="url(#paint3_linear)"/>
<path d="M250.391 101.023C250.073 99.6631 249.949 96.3363 248.556 96.6617C247.749 96.8501 247.576 97.1473 247.507 98.4573C247.439 99.7672 248.685 103.501 249.819 103.236C250.851 102.995 250.708 102.384 250.391 101.023Z" fill="url(#paint4_linear)"/>
<line x1="238.261" y1="88.8849" x2="243.279" y2="88.8849" stroke="#1A2530" stroke-width="0.72952" stroke-linecap="round" stroke-linejoin="round"/>
<line x1="245.924" y1="88.8849" x2="250.942" y2="88.8849" stroke="#1A2530" stroke-width="0.72952" stroke-linecap="round" stroke-linejoin="round"/>
<line x1="230.599" y1="91.4392" x2="235.616" y2="91.4392" stroke="#1A2530" stroke-width="0.72952" stroke-linecap="round" stroke-linejoin="round"/>
<line x1="230.599" y1="90.1618" x2="235.616" y2="90.1618" stroke="#1A2530" stroke-width="0.72952" stroke-linecap="round" stroke-linejoin="round"/>
<line x1="230.599" y1="92.7164" x2="235.616" y2="92.7164" stroke="#1A2530" stroke-width="0.72952" stroke-linecap="round" stroke-linejoin="round"/>
<line x1="238.261" y1="91.4392" x2="243.279" y2="91.4392" stroke="#1A2530" stroke-width="0.72952" stroke-linecap="round" stroke-linejoin="round"/>
<line x1="245.924" y1="91.4392" x2="250.942" y2="91.4392" stroke="#1A2530" stroke-width="0.72952" stroke-linecap="round" stroke-linejoin="round"/>
<line x1="245.924" y1="90.1618" x2="250.942" y2="90.1618" stroke="#1A2530" stroke-width="0.72952" stroke-linecap="round" stroke-linejoin="round"/>
<line x1="230.599" y1="93.9931" x2="235.616" y2="93.9931" stroke="#1A2530" stroke-width="0.72952" stroke-linecap="round" stroke-linejoin="round"/>
<line x1="238.261" y1="93.9931" x2="243.279" y2="93.9931" stroke="#1A2530" stroke-width="0.72952" stroke-linecap="round" stroke-linejoin="round"/>
<line x1="245.924" y1="93.9931" x2="250.942" y2="93.9931" stroke="#1A2530" stroke-width="0.72952" stroke-linecap="round" stroke-linejoin="round"/>
<line x1="230.599" y1="96.5474" x2="235.616" y2="96.5474" stroke="#1A2530" stroke-width="0.72952" stroke-linecap="round" stroke-linejoin="round"/>
<line x1="230.599" y1="97.8248" x2="235.616" y2="97.8248" stroke="#1A2530" stroke-width="0.72952" stroke-linecap="round" stroke-linejoin="round"/>
<line x1="238.261" y1="96.5474" x2="243.279" y2="96.5474" stroke="#1A2530" stroke-width="0.72952" stroke-linecap="round" stroke-linejoin="round"/>
<line x1="238.261" y1="97.8248" x2="243.279" y2="97.8248" stroke="#1A2530" stroke-width="0.72952" stroke-linecap="round" stroke-linejoin="round"/>
<line x1="238.261" y1="99.1014" x2="243.279" y2="99.1014" stroke="#1A2530" stroke-width="0.72952" stroke-linecap="round" stroke-linejoin="round"/>
<line x1="245.924" y1="99.1014" x2="250.942" y2="99.1014" stroke="#1A2530" stroke-width="0.72952" stroke-linecap="round" stroke-linejoin="round"/>
<line x1="230.599" y1="100.379" x2="235.616" y2="100.379" stroke="#1A2530" stroke-width="0.72952" stroke-linecap="round" stroke-linejoin="round"/>
<line x1="238.261" y1="101.656" x2="243.279" y2="101.656" stroke="#1A2530" stroke-width="0.72952" stroke-linecap="round" stroke-linejoin="round"/>
<path d="M238.326 124.848C237.674 123.972 236.894 123.794 235.274 124.553C233.645 125.316 231.386 128.083 230.49 130.405C229.992 131.694 231.302 132.235 232.413 131.415L237.743 127.483C238.582 126.864 238.949 125.684 238.326 124.848Z" fill="url(#paint5_linear)"/>
<path d="M255.993 136.347C255.36 139.075 252.715 140.228 249.229 140.292C246.07 140.35 241.319 135.313 239.332 131.286C238.648 129.9 239.976 128.814 241.423 129.356L254.745 134.347C255.585 134.662 256.196 135.473 255.993 136.347Z" fill="url(#paint6_linear)"/>
<path d="M231.047 131.711C231.047 131.711 232.11 128.65 234.009 126.867M253.899 131.711C253.899 131.711 252.896 134.599 251.098 136.398M236.76 125.617L236.76 130.586M236.76 125.617C235.712 125.617 234.79 126.134 234.009 126.867M236.76 125.617C237.808 125.617 238.73 126.134 239.511 126.867M248.186 137.805V132.836M248.186 137.805C249.307 137.805 250.284 137.213 251.098 136.398M248.186 137.805C247.065 137.805 246.088 137.213 245.274 136.398M251.098 136.398V132.836M245.274 136.398C243.476 134.599 242.473 131.711 242.473 131.711C242.473 131.711 241.41 128.65 239.511 126.867M245.274 136.398V132.836M234.009 126.867L234.009 130.586M239.511 126.867V130.586" stroke="#1A2530" stroke-width="0.72952" stroke-linecap="round"/>
<path d="M165.741 42.1709C165.59 45.462 164.072 53.2243 166.697 53.0818C168.219 52.9992 168.678 52.3864 169.483 49.3814C170.289 46.3765 170.041 37.1792 167.904 37.2952C165.959 37.4008 165.891 38.8798 165.741 42.1709Z" fill="url(#paint7_linear)"/>
<path d="M164.079 42.6255V41.195V39.7644V37.3897C164.079 37.1211 164.297 36.9033 164.565 36.9033H176.91C177.178 36.9033 177.396 37.1211 177.396 37.3897V39.7644V41.195V42.6255M164.079 42.6255V45.3566M164.079 42.6255H170.738M177.396 42.6255V45.3566M177.396 42.6255H174.067M164.079 48.0876H177.396M164.079 48.0876V45.3566M164.079 48.0876V50.8186M177.396 48.0876V45.3566M177.396 48.0876V50.8186M164.079 45.3566H177.396M164.079 50.8186V53.0633C164.079 53.3319 164.297 53.5497 164.565 53.5497H176.91C177.178 53.5497 177.396 53.3319 177.396 53.0633V50.8186M164.079 50.8186H170.738M177.396 50.8186H175.177H174.067M170.738 50.8186H172.957H174.067M170.738 50.8186V42.6255M170.738 42.6255H174.067M174.067 50.8186V42.6255" stroke="#1C2329" stroke-width="0.72952"/>
<path d="M165.744 38.9844H170.738M165.744 41.0652H170.738" stroke="#1C2329" stroke-width="0.72952" stroke-linecap="round"/>
<path d="M124.243 62.4898C124.218 64.7735 123.233 70.1264 125.314 70.1023C126.52 70.0883 126.867 69.6753 127.421 67.6093C127.974 65.5433 127.515 59.1424 125.822 59.162C124.28 59.1799 124.268 60.2062 124.243 62.4898Z" fill="url(#paint8_linear)"/>
<path d="M121.177 60.6575C120.976 60.6575 120.812 60.8208 120.812 61.0223C120.812 61.2237 120.976 61.3871 121.177 61.3871V60.6575ZM130.419 61.3871C130.62 61.3871 130.784 61.2237 130.784 61.0223C130.784 60.8208 130.62 60.6575 130.419 60.6575V61.3871ZM121.177 64.3982C120.976 64.3982 120.812 64.5615 120.812 64.763C120.812 64.9645 120.976 65.1278 121.177 65.1278V64.3982ZM130.419 65.1278C130.62 65.1278 130.784 64.9645 130.784 64.763C130.784 64.5615 130.62 64.3982 130.419 64.3982V65.1278ZM121.177 68.1389C120.976 68.1389 120.812 68.3023 120.812 68.5037C120.812 68.7052 120.976 68.8685 121.177 68.8685V68.1389ZM130.419 68.8685C130.62 68.8685 130.784 68.7052 130.784 68.5037C130.784 68.3023 130.62 68.1389 130.419 68.1389V68.8685ZM120.429 56.5776H131.607V55.848H120.429V56.5776ZM132.695 57.6655V72.3635H133.424V57.6655H132.695ZM131.607 73.4514H120.429V74.181H131.607V73.4514ZM119.341 72.3635V57.6655H118.612V72.3635H119.341ZM121.177 61.3871H130.419V60.6575H121.177V61.3871ZM121.177 65.1278H130.419V64.3982H121.177V65.1278ZM121.177 68.8685H130.419V68.1389H121.177V68.8685ZM120.429 73.4514C119.828 73.4514 119.341 72.9643 119.341 72.3635H118.612C118.612 73.3673 119.425 74.181 120.429 74.181V73.4514ZM132.695 72.3635C132.695 72.9643 132.207 73.4514 131.607 73.4514V74.181C132.61 74.181 133.424 73.3673 133.424 72.3635H132.695ZM131.607 56.5776C132.207 56.5776 132.695 57.0646 132.695 57.6655H133.424C133.424 56.6617 132.61 55.848 131.607 55.848V56.5776ZM120.429 55.848C119.425 55.848 118.612 56.6617 118.612 57.6655H119.341C119.341 57.0646 119.828 56.5776 120.429 56.5776V55.848Z" fill="#1C2329"/>
<mask id="path-42-outside-1" maskUnits="userSpaceOnUse" x="121.503" y="52.8662" width="9" height="6" fill="black">
<rect fill="white" x="121.503" y="52.8662" width="9" height="6"/>
<path fill-rule="evenodd" clip-rule="evenodd" d="M127.189 55.1708C127.194 55.1278 127.196 55.0841 127.196 55.0398C127.196 54.3916 126.671 53.8662 126.023 53.8662C125.375 53.8662 124.849 54.3916 124.849 55.0398C124.849 55.0842 124.852 55.128 124.856 55.1712C123.486 55.4922 122.503 56.3627 122.503 57.3862H129.544C129.544 56.3623 128.561 55.4915 127.189 55.1708Z"/>
</mask>
<path fill-rule="evenodd" clip-rule="evenodd" d="M127.189 55.1708C127.194 55.1278 127.196 55.0841 127.196 55.0398C127.196 54.3916 126.671 53.8662 126.023 53.8662C125.375 53.8662 124.849 54.3916 124.849 55.0398C124.849 55.0842 124.852 55.128 124.856 55.1712C123.486 55.4922 122.503 56.3627 122.503 57.3862H129.544C129.544 56.3623 128.561 55.4915 127.189 55.1708Z" fill="white"/>
<path d="M127.189 55.1708L126.464 55.0902C126.423 55.4574 126.663 55.7971 127.023 55.8812L127.189 55.1708ZM124.856 55.1712L125.023 55.8815C125.383 55.7973 125.622 55.4575 125.582 55.0904L124.856 55.1712ZM122.503 57.3862H121.773C121.773 57.7892 122.1 58.1158 122.503 58.1158V57.3862ZM129.544 57.3862V58.1158C129.947 58.1158 130.274 57.7892 130.274 57.3862H129.544ZM126.467 55.0398C126.467 55.0571 126.466 55.0739 126.464 55.0902L127.914 55.2513C127.922 55.1816 127.926 55.111 127.926 55.0398H126.467ZM126.023 54.5958C126.268 54.5958 126.467 54.7946 126.467 55.0398H127.926C127.926 53.9887 127.074 53.1366 126.023 53.1366V54.5958ZM125.579 55.0398C125.579 54.7946 125.778 54.5958 126.023 54.5958V53.1366C124.972 53.1366 124.12 53.9887 124.12 55.0398H125.579ZM125.582 55.0904C125.58 55.074 125.579 55.0571 125.579 55.0398H124.12C124.12 55.1112 124.124 55.182 124.131 55.2519L125.582 55.0904ZM124.69 54.4608C123.193 54.8114 121.773 55.8519 121.773 57.3862H123.233C123.233 56.8735 123.778 56.1729 125.023 55.8815L124.69 54.4608ZM122.503 58.1158H129.544V56.6566H122.503V58.1158ZM130.274 57.3862C130.274 55.8513 128.853 54.8106 127.355 54.4603L127.023 55.8812C128.268 56.1723 128.815 56.8733 128.815 57.3862H130.274Z" fill="#1C2329" mask="url(#path-42-outside-1)"/>
<path d="M120.175 170.779C120.016 170.308 119.769 169.78 119.417 169.186C118.959 168.412 118.504 167.645 118.029 166.963C116.621 164.941 114.796 166.605 115.323 168.992C115.976 171.95 121.151 173.654 120.175 170.779Z" fill="url(#paint9_linear)"/>
<path d="M105.764 172.688C108.273 174.496 111.376 175.565 114.735 175.565C118.095 175.565 121.198 174.496 123.707 172.688L114.735 160.832L105.764 172.688Z" stroke="#1C2329" stroke-width="0.729588" stroke-linejoin="round"/>
<path d="M113.466 165.476C114.269 165.629 115.057 165.425 115.661 164.979L119.736 171.641C117.485 172.951 114.75 173.489 111.974 172.962L113.466 165.476Z" stroke="#1C2329" stroke-width="0.729588" stroke-linejoin="round"/>
<path d="M233.152 168.014C232.115 167.145 229.877 166.543 225.249 166.644C222.117 166.713 219.036 166.78 216.55 167.158C214.29 167.501 214.66 169.518 216.906 169.854L229.18 171.687C231.292 172.003 234.777 169.377 233.152 168.014Z" fill="url(#paint10_linear)"/>
<path d="M215.027 172.144C217.237 172.144 219.447 170.528 219.447 170.528L221.657 172.144C221.657 172.144 222.762 164.603 222.762 160.832C223.13 164.962 223.314 175.376 223.314 175.376C223.314 175.376 223.867 172.144 224.972 172.144C227.182 172.144 227.734 171.605 228.287 171.066C228.839 170.528 229.391 169.451 230.496 169.451C231.601 169.451 232.154 172.144 234.364 172.144" stroke="#1C2329" stroke-width="0.729588" stroke-linecap="round" stroke-linejoin="round"/>
<circle cx="100.297" cy="97.9877" r="3.1972" fill="url(#paint11_linear)"/>
<circle cx="98.1648" cy="97.9881" r="9.59158" stroke="#1C2329" stroke-width="0.729588"/>
<circle cx="98.165" cy="97.9877" r="3.1972" stroke="#1C2329" stroke-width="0.729588"/>
<path d="M104.026 97.9875C104.026 93.2983 97.2768 90.3498 93.902 89.4617M104.026 97.9875C104.026 104.915 94.9677 105.448 91.7705 105.448M104.026 97.9875C104.915 98.3428 106.691 99.6927 106.691 102.25M104.026 97.9875C106.158 96.7087 105.98 93.547 105.625 92.126" stroke="#1C2329" stroke-width="0.729588"/>
<path d="M101.207 142.052C102.14 142.797 103.793 144.991 104.988 143.975C105.68 143.387 105.709 143.086 105.172 142.155C104.635 141.224 101.711 139.393 100.739 140.22C99.854 140.972 100.273 141.307 101.207 142.052Z" fill="url(#paint12_linear)"/>
<path d="M90.6018 133.111L94.6148 129.098L106.484 140.967C107.592 142.075 107.592 143.872 106.484 144.98C105.376 146.088 103.579 146.088 102.471 144.98L94.2635 136.772L90.6018 133.111Z" stroke="#1C2329" stroke-width="0.729588"/>
<path d="M89.68 133.7C89.4056 133.425 89.4056 132.98 89.68 132.706L94.2089 128.177C94.4833 127.903 94.9282 127.903 95.2026 128.177L97.467 130.441C97.7414 130.716 97.7414 131.161 97.467 131.435L92.9381 135.964C92.6637 136.239 92.2188 136.239 91.9444 135.964L89.68 133.7Z" fill="white" stroke="#1C2329" stroke-width="0.729588" stroke-linejoin="round"/>
<defs>
<linearGradient id="paint0_linear" x1="222.554" y1="62.7685" x2="229.482" y2="62.7685" gradientUnits="userSpaceOnUse">
<stop stop-color="#DEFFDE"/>
<stop offset="1" stop-color="#38E8A9"/>
</linearGradient>
<linearGradient id="paint1_linear" x1="250.504" y1="90.1424" x2="247.19" y2="89.9685" gradientUnits="userSpaceOnUse">
<stop stop-color="#DEFFDE"/>
<stop offset="1" stop-color="#38E8A9"/>
</linearGradient>
<linearGradient id="paint2_linear" x1="242.448" y1="95.9694" x2="243.261" y2="92.9304" gradientUnits="userSpaceOnUse">
<stop stop-color="#DEFFDE"/>
<stop offset="1" stop-color="#38E8A9"/>
</linearGradient>
<linearGradient id="paint3_linear" x1="254.489" y1="100.36" x2="252.181" y2="102.676" gradientUnits="userSpaceOnUse">
<stop stop-color="#DEFFDE"/>
<stop offset="1" stop-color="#38E8A9"/>
</linearGradient>
<linearGradient id="paint4_linear" x1="247.258" y1="103.216" x2="250.572" y2="103.39" gradientUnits="userSpaceOnUse">
<stop stop-color="#DEFFDE"/>
<stop offset="1" stop-color="#38E8A9"/>
</linearGradient>
<linearGradient id="paint5_linear" x1="230.265" y1="133" x2="227.921" y2="127.996" gradientUnits="userSpaceOnUse">
<stop stop-color="#DEFFDE"/>
<stop offset="1" stop-color="#38E8A9"/>
</linearGradient>
<linearGradient id="paint6_linear" x1="238.407" y1="128.226" x2="238.633" y2="140.487" gradientUnits="userSpaceOnUse">
<stop stop-color="#DEFFDE"/>
<stop offset="1" stop-color="#38E8A9"/>
</linearGradient>
<linearGradient id="paint7_linear" x1="165.168" y1="37.2941" x2="169.907" y2="37.2941" gradientUnits="userSpaceOnUse">
<stop stop-color="#DEFFDE"/>
<stop offset="1" stop-color="#38E8A9"/>
</linearGradient>
<linearGradient id="paint8_linear" x1="129.432" y1="60.1039" x2="124.757" y2="58.8514" gradientUnits="userSpaceOnUse">
<stop stop-color="#DEFFDE"/>
<stop offset="1" stop-color="#38E8A9"/>
</linearGradient>
<linearGradient id="paint9_linear" x1="111.282" y1="166.215" x2="116.002" y2="163.42" gradientUnits="userSpaceOnUse">
<stop stop-color="#DEFFDE"/>
<stop offset="1" stop-color="#38E8A9"/>
</linearGradient>
<linearGradient id="paint10_linear" x1="215.027" y1="166.633" x2="233.571" y2="166.633" gradientUnits="userSpaceOnUse">
<stop stop-color="#DEFFDE"/>
<stop offset="1" stop-color="#38E8A9"/>
</linearGradient>
<linearGradient id="paint11_linear" x1="97.0996" y1="94.7905" x2="103.494" y2="94.7905" gradientUnits="userSpaceOnUse">
<stop stop-color="#DEFFDE"/>
<stop offset="1" stop-color="#38E8A9"/>
</linearGradient>
<linearGradient id="paint12_linear" x1="103.22" y1="138.773" x2="99.9937" y2="140.636" gradientUnits="userSpaceOnUse">
<stop stop-color="#DEFFDE"/>
<stop offset="1" stop-color="#38E8A9"/>
</linearGradient>
</defs>
</svg>
