<svg width="117" height="102" viewBox="0 0 117 102" fill="none" xmlns="http://www.w3.org/2000/svg">
<path d="M65.407 88.3796V100.342C65.407 100.705 65.1124 101 64.7491 101H52.5056C52.1422 101 51.8477 100.705 51.8477 100.342V84.7087C51.8477 84.3453 52.1422 84.0508 52.5056 84.0508H64.7491C65.1124 84.0508 65.407 84.3453 65.407 84.7087V87.7309" fill="white"/>
<path d="M65.407 88.3796V100.342C65.407 100.705 65.1124 101 64.7491 101H52.5056C52.1422 101 51.8477 100.705 51.8477 100.342V84.7087C51.8477 84.3453 52.1422 84.0508 52.5056 84.0508H64.7491C65.1124 84.0508 65.407 84.3453 65.407 84.7087V87.7309" stroke="black" stroke-width="0.912173" stroke-miterlimit="10"/>
<path d="M65.407 4.46304V13.9014C65.407 14.2648 65.1124 14.5593 64.7491 14.5593H52.5056C52.1422 14.5593 51.8477 14.2648 51.8477 13.9014V1.65792C51.8477 1.29456 52.1422 1 52.5056 1H64.7491C65.1124 1 65.407 1.29456 65.407 1.65792V3.9441" fill="white"/>
<path d="M65.407 4.46304V13.9014C65.407 14.2648 65.1124 14.5593 64.7491 14.5593H52.5056C52.1422 14.5593 51.8477 14.2648 51.8477 13.9014V1.65792C51.8477 1.29456 52.1422 1 52.5056 1H64.7491C65.1124 1 65.407 1.29456 65.407 1.65792V3.9441" stroke="black" stroke-width="0.912173" stroke-miterlimit="10"/>
<path d="M72.2818 83.2165L2.91491 83.2165C1.85714 83.2165 0.999661 82.359 0.999661 81.3013L0.999664 17.3352C0.999664 16.2774 1.85715 15.4199 2.91492 15.4199L114.339 15.4199C115.396 15.4199 116.254 16.2774 116.254 17.3352L116.254 81.3013C116.254 82.359 115.396 83.2165 114.339 83.2165L78.8711 83.2165" fill="white"/>
<path d="M72.2818 83.2165L2.91491 83.2165C1.85714 83.2165 0.999658 82.359 0.999658 81.3013L0.999661 17.3352C0.999661 16.2774 1.85715 15.4199 2.91492 15.4199L114.339 15.4199C115.396 15.4199 116.254 16.2774 116.254 17.3352L116.254 81.3013C116.254 82.359 115.396 83.2165 114.339 83.2165L78.8711 83.2165" stroke="#1A2530" stroke-width="0.912173" stroke-miterlimit="10"/>
<path d="M10.3223 25.5894H84.0511" stroke="#1A2530" stroke-width="0.912173" stroke-miterlimit="10" stroke-linecap="round"/>
<path d="M10.3223 34.9114H89.9833" stroke="#1A2530" stroke-width="0.912173" stroke-miterlimit="10" stroke-linecap="round"/>
<path d="M9.92773 44.7209L105.94 44.721" stroke="#1A2530" stroke-width="0.912173" stroke-miterlimit="10" stroke-linecap="round"/>
<path d="M9.92773 54.4429L105.94 54.4429" stroke="#1A2530" stroke-width="0.912173" stroke-miterlimit="10" stroke-linecap="round"/>
<path d="M9.92773 64.1663L105.94 64.1663" stroke="#1A2530" stroke-width="0.912173" stroke-miterlimit="10" stroke-linecap="round"/>
<path d="M9.92773 73.8889L105.94 73.8889" stroke="#1A2530" stroke-width="0.912173" stroke-miterlimit="10" stroke-linecap="round"/>
<path d="M104.72 24.0588H75.5513C74.8801 24.0588 74.3359 24.603 74.3359 25.2742C74.3359 25.9454 74.8801 26.4895 75.5513 26.4895H104.72C105.391 26.4895 105.935 25.9454 105.935 25.2742C105.935 24.603 105.391 24.0588 104.72 24.0588Z" stroke="#1A2530" stroke-width="0.912173" stroke-miterlimit="10"/>
<path d="M104.717 33.782H88.9175C88.2463 33.782 87.7021 34.3261 87.7021 34.9973C87.7021 35.6686 88.2463 36.2127 88.9175 36.2127H104.717C105.388 36.2127 105.932 35.6686 105.932 34.9973C105.932 34.3261 105.388 33.782 104.717 33.782Z" stroke="#1A2530" stroke-width="0.912173" stroke-miterlimit="10"/>
<path d="M96.221 42.2898H77.9907C77.3195 42.2898 76.7754 42.8339 76.7754 43.5051C76.7754 44.1764 77.3195 44.7205 77.9907 44.7205H96.221C96.8922 44.7205 97.4364 44.1764 97.4364 43.5051C97.4364 42.8339 96.8922 42.2898 96.221 42.2898Z" fill="white" stroke="#1A2530" stroke-width="0.912173" stroke-miterlimit="10"/>
<path d="M102.293 53.2278H91.355C90.6838 53.2278 90.1396 53.7719 90.1396 54.4431C90.1396 55.1144 90.6838 55.6585 91.355 55.6585H102.293C102.964 55.6585 103.509 55.1144 103.509 54.4431C103.509 53.7719 102.964 53.2278 102.293 53.2278Z" fill="white" stroke="#1A2530" stroke-width="0.912173" stroke-miterlimit="10"/>
<path d="M104.72 72.6736H75.5513C74.8801 72.6736 74.3359 73.2177 74.3359 73.8889C74.3359 74.5602 74.8801 75.1043 75.5513 75.1043H104.72C105.391 75.1043 105.935 74.5602 105.935 73.8889C105.935 73.2177 105.391 72.6736 104.72 72.6736Z" fill="white" stroke="#1A2530" stroke-width="0.912173" stroke-miterlimit="10"/>
<path d="M92.2138 25.9319C96.1409 25.8581 105.756 26.0641 104.793 25.2124C104.235 24.719 103.373 24.5919 99.5853 24.4413C95.7976 24.2907 85.0251 24.7149 85.8085 25.4079C86.5219 26.0389 88.2867 26.0057 92.2138 25.9319Z" fill="url(#paint0_linear)"/>
<path d="M92.2164 36.0634C96.1455 35.9411 105.762 36.1098 104.806 35.0866C104.252 34.4937 103.391 34.347 99.6029 34.1965C95.8151 34.0459 85.0355 34.6499 85.8134 35.4825C86.5217 36.2407 88.2874 36.1857 92.2164 36.0634Z" fill="url(#paint1_linear)"/>
<path d="M91.8705 55.1202C95.0742 55.0273 102.916 55.1702 102.135 54.36C101.683 53.8906 100.98 53.7737 97.8917 53.6509C94.8029 53.5281 86.0136 53.9953 86.6487 54.6545C87.227 55.2548 88.6668 55.2131 91.8705 55.1202Z" fill="url(#paint2_linear)"/>
<path d="M91.8705 74.9623C95.0742 74.8694 102.916 75.0122 102.135 74.202C101.683 73.7326 100.98 73.6158 97.8917 73.493C94.8029 73.3702 86.0136 73.8374 86.6487 74.4966C87.227 75.0969 88.6668 75.0551 91.8705 74.9623Z" fill="url(#paint3_linear)"/>
<circle cx="58.3888" cy="49.423" r="39.4923" fill="white" stroke="#1A2530" stroke-width="0.912173"/>
<circle cx="58.1033" cy="49.1299" r="34.3377" fill="white" stroke="#1A2530" stroke-width="0.912173" stroke-dasharray="1.18 1.18"/>
<circle cx="58.6679" cy="42.2145" r="4.33094" fill="white" stroke="#1A2530" stroke-width="0.912173"/>
<mask id="path-25-inside-1" fill="white">
<path d="M58.6674 49.7556C53.9086 49.7556 50.0508 54.535 50.0508 60.4306H67.2841C67.2841 54.535 63.4263 49.7556 58.6674 49.7556Z"/>
</mask>
<path d="M50.0508 60.4306H49.1386V61.3428H50.0508V60.4306ZM67.2841 60.4306V61.3428H68.1963V60.4306H67.2841ZM50.963 60.4306C50.963 54.8466 54.5851 50.6678 58.6674 50.6678V48.8434C53.232 48.8434 49.1386 54.2234 49.1386 60.4306H50.963ZM58.6674 50.6678C62.7497 50.6678 66.3719 54.8466 66.3719 60.4306H68.1963C68.1963 54.2234 64.1028 48.8434 58.6674 48.8434V50.6678ZM67.2841 59.5184H50.0508V61.3428H67.2841V59.5184Z" fill="#1A2530" mask="url(#path-25-inside-1)"/>
<path d="M57.5374 59.4186C60.0676 59.0939 66.1045 59.444 65.8391 56.9473C65.6853 55.5008 65.1885 55.1476 62.8385 54.8039C60.4886 54.4602 53.4575 56.008 53.6735 58.0395C53.8701 59.8893 55.0072 59.7434 57.5374 59.4186Z" fill="url(#paint4_linear)"/>
<defs>
<linearGradient id="paint0_linear" x1="85.8252" y1="23.8943" x2="85.7472" y2="25.8555" gradientUnits="userSpaceOnUse">
<stop stop-color="#DEFFDE"/>
<stop offset="1" stop-color="#38E8A9"/>
</linearGradient>
<linearGradient id="paint1_linear" x1="85.8428" y1="33.6494" x2="85.7483" y2="36.0251" gradientUnits="userSpaceOnUse">
<stop stop-color="#DEFFDE"/>
<stop offset="1" stop-color="#38E8A9"/>
</linearGradient>
<linearGradient id="paint2_linear" x1="86.6709" y1="53.2048" x2="86.5962" y2="55.0836" gradientUnits="userSpaceOnUse">
<stop stop-color="#DEFFDE"/>
<stop offset="1" stop-color="#38E8A9"/>
</linearGradient>
<linearGradient id="paint3_linear" x1="86.6709" y1="73.0469" x2="86.5962" y2="74.9257" gradientUnits="userSpaceOnUse">
<stop stop-color="#DEFFDE"/>
<stop offset="1" stop-color="#38E8A9"/>
</linearGradient>
<linearGradient id="paint4_linear" x1="54.3018" y1="53.5554" x2="53.4518" y2="59.3672" gradientUnits="userSpaceOnUse">
<stop stop-color="#DEFFDE"/>
<stop offset="1" stop-color="#38E8A9"/>
</linearGradient>
</defs>
</svg>
