<svg width="174" height="102" viewBox="0 0 174 102" fill="none" xmlns="http://www.w3.org/2000/svg">
<path d="M103.405 0.999998L96.0533 0.999997C95.6739 0.999997 95.3663 1.30759 95.3663 1.68703L95.3663 55.2425C95.3663 55.622 95.6739 55.9296 96.0533 55.9296L172.144 55.9296C172.523 55.9296 172.831 55.622 172.831 55.2425L172.831 1.68704C172.831 1.3076 172.523 1 172.144 1L107.996 1" stroke="black" stroke-width="0.952534" stroke-miterlimit="10"/>
<path d="M9.03886 0.999998L1.6871 0.999997C1.30766 0.999997 1.00006 1.30759 1.00006 1.68703L1.00006 55.2425C1.00006 55.622 1.30765 55.9296 1.68709 55.9296L39.7324 55.9296L77.7778 55.9296C78.1572 55.9296 78.4648 55.622 78.4648 55.2425L78.4648 1.68704C78.4648 1.3076 78.1572 1 77.7778 1L13.6302 1" stroke="black" stroke-width="0.952534" stroke-miterlimit="10"/>
<path d="M136.577 20.7127C137.776 19.8284 140.953 18.5453 140.115 16.778C139.629 15.7542 139.276 15.6214 137.981 15.9684C136.686 16.3154 133.536 19.247 134.218 20.6849C134.839 21.9944 135.378 21.597 136.577 20.7127Z" fill="url(#paint0_linear)"/>
<path d="M136.577 20.7127C137.776 19.8284 140.953 18.5453 140.115 16.778C139.629 15.7542 139.276 15.6214 137.981 15.9684C136.686 16.3154 133.536 19.247 134.218 20.6849C134.839 21.9944 135.378 21.597 136.577 20.7127Z" fill="white"/>
<path d="M132.32 32.6079C131.121 33.4922 127.944 34.7752 128.782 36.5425C129.267 37.5664 129.62 37.6992 130.915 37.3522C132.21 37.0052 135.36 34.0735 134.678 32.6356C134.057 31.3262 133.518 31.7236 132.32 32.6079Z" fill="url(#paint1_linear)"/>
<path d="M132.32 32.6079C131.121 33.4922 127.944 34.7752 128.782 36.5425C129.267 37.5664 129.62 37.6992 130.915 37.3522C132.21 37.0052 135.36 34.0735 134.678 32.6356C134.057 31.3262 133.518 31.7236 132.32 32.6079Z" fill="white"/>
<path d="M119.031 8.04223L115.672 8.04223C115.348 8.04223 115.085 8.30502 115.085 8.62919L115.085 45.4834C115.085 45.8076 115.348 46.0704 115.672 46.0704L152.526 46.0704C152.85 46.0704 153.113 45.8076 153.113 45.4835L153.113 8.62919C153.113 8.30503 152.85 8.04224 152.526 8.04224L121.285 8.04224" stroke="black" stroke-width="0.68" stroke-miterlimit="10" stroke-dasharray="0.82 0.82"/>
<path d="M123.536 38.0575C123.536 38.0575 122.373 34.8879 122.903 31.8329M145.104 16.4895C145.104 16.4895 146.202 19.4801 145.779 22.4514M124.615 28.3519L128.132 31.8691M124.615 28.3519C123.626 29.3408 123.121 30.5772 122.903 31.8329M124.615 28.3519C125.604 27.363 126.84 26.8587 128.096 26.6406M144.026 26.1951L140.509 22.6779M144.026 26.1951C145.084 25.1373 145.587 23.7963 145.779 22.4514M144.026 26.1951C142.968 27.253 141.627 27.7563 140.282 27.9479M145.779 22.4514L143.591 20.2639M140.282 27.9479C137.311 28.3713 134.32 27.2735 134.32 27.2735C134.32 27.2735 131.151 26.11 128.096 26.6406M140.282 27.9479L138.095 25.7604M122.903 31.8329L124.949 33.8787M128.096 26.6406L130.141 28.6864" stroke="black" stroke-width="0.596594" stroke-linecap="round"/>
<path d="M133.24 36.9786L129.722 33.4613M133.24 36.9786C132.251 37.9675 131.014 38.4718 129.759 38.6899L127.948 36.8787M133.24 36.9786C134.229 35.9896 134.733 34.7533 134.951 33.4976M135.396 17.5674L138.914 21.0846M135.396 17.5674C136.454 16.5095 137.795 16.0062 139.14 15.8146L141.163 17.8371M135.396 17.5674C134.339 18.6252 133.835 19.9662 133.644 21.3111M133.644 21.3111C133.22 24.2824 134.318 27.273 134.318 27.273C134.318 27.273 135.482 30.4426 134.951 33.4976M133.644 21.3111L135.666 23.3337M134.951 33.4976L133.14 31.6864" stroke="black" stroke-width="0.596594" stroke-linecap="round"/>
<path d="M24.6643 8.04223L21.2832 8.04223C20.971 8.04223 20.7179 8.29529 20.7179 8.60745L20.7179 45.5052C20.7179 45.8173 20.971 46.0704 21.2831 46.0704L58.1809 46.0704C58.493 46.0704 58.7461 45.8173 58.7461 45.5052L58.7461 8.60745C58.7461 8.29529 58.493 8.04224 58.1809 8.04224L27.3315 8.04224" stroke="black" stroke-width="0.68" stroke-miterlimit="10" stroke-dasharray="0.82 0.82"/>
<rect x="27.334" y="33.3848" width="26.4866" height="9.75642" transform="rotate(-45 27.334 33.3848)" stroke="black" stroke-width="0.574497" stroke-linejoin="round"/>
<path d="M41.3164 31.7035C43.3799 29.64 49.0764 25.6824 47.1205 23.7265C45.9873 22.5933 45.2955 22.6406 42.9356 24.0031C40.5756 25.3656 35.285 31.6537 36.8765 33.2451C38.3256 34.6942 39.253 33.7669 41.3164 31.7035Z" fill="url(#paint2_linear)"/>
<path d="M41.3164 31.7035C43.3799 29.64 49.0764 25.6824 47.1205 23.7265C45.9873 22.5933 45.2955 22.6406 42.9356 24.0031C40.5756 25.3656 35.285 31.6537 36.8765 33.2451C38.3256 34.6942 39.253 33.7669 41.3164 31.7035Z" fill="white"/>
<circle cx="40.2035" cy="27.4182" r="3.13599" transform="rotate(-45 40.2035 27.4182)" stroke="black" stroke-width="0.574497"/>
<rect x="95.3662" y="1" width="77.4648" height="54.9296" rx="0.69" fill="white"/>
<rect x="1" y="1" width="77.4648" height="54.9296" rx="0.69" fill="white"/>
<rect x="1" y="85.5071" width="171.831" height="15.493" rx="0.69" fill="white"/>
<path d="M51.7042 63.4837V84.8201C51.7042 85.1996 51.3966 85.5071 51.0171 85.5071H29.856C29.4765 85.5071 29.1689 85.1996 29.1689 84.8201V56.6167C29.1689 56.2373 29.4765 55.9297 29.856 55.9297H51.0171C51.3966 55.9297 51.7042 56.2373 51.7042 56.6167V62.3518" fill="white"/>
<path d="M51.7042 63.4837V84.8201C51.7042 85.1996 51.3966 85.5071 51.0171 85.5071H29.856C29.4765 85.5071 29.1689 85.1996 29.1689 84.8201V56.6167C29.1689 56.2373 29.4765 55.9297 29.856 55.9297H51.0171C51.3966 55.9297 51.7042 56.2373 51.7042 56.6167V62.3518" stroke="black" stroke-width="0.952534" stroke-miterlimit="10"/>
<path d="M146.07 63.4837V84.8201C146.07 85.1996 145.763 85.5071 145.383 85.5071H124.222C123.843 85.5071 123.535 85.1996 123.535 84.8201V56.6167C123.535 56.2373 123.843 55.9297 124.222 55.9297H145.383C145.763 55.9297 146.07 56.2373 146.07 56.6167V62.3518" fill="white"/>
<path d="M146.07 63.4837V84.8201C146.07 85.1996 145.763 85.5071 145.383 85.5071H124.222C123.843 85.5071 123.535 85.1996 123.535 84.8201V56.6167C123.535 56.2373 123.843 55.9297 124.222 55.9297H145.383C145.763 55.9297 146.07 56.2373 146.07 56.6167V62.3518" stroke="black" stroke-width="0.952534" stroke-miterlimit="10"/>
<path d="M103.405 0.999998L96.0533 0.999997C95.6739 0.999997 95.3663 1.30759 95.3663 1.68703L95.3663 55.2425C95.3663 55.622 95.6739 55.9296 96.0533 55.9296L172.144 55.9296C172.523 55.9296 172.831 55.622 172.831 55.2425L172.831 1.68704C172.831 1.3076 172.523 1 172.144 1L107.996 1" stroke="#CCD8E3" stroke-width="0.952534" stroke-miterlimit="10"/>
<path d="M9.03886 0.999998L1.6871 0.999997C1.30766 0.999997 1.00006 1.30759 1.00006 1.68703L1.00006 55.2425C1.00006 55.622 1.30765 55.9296 1.68709 55.9296L39.7324 55.9296L77.7778 55.9296C78.1572 55.9296 78.4648 55.622 78.4648 55.2425L78.4648 1.68704C78.4648 1.3076 78.1572 1 77.7778 1L13.6302 1" stroke="#CCD8E3" stroke-width="0.952534" stroke-miterlimit="10"/>
<path d="M136.577 20.7127C137.776 19.8284 140.953 18.5453 140.115 16.778C139.629 15.7542 139.276 15.6214 137.981 15.9684C136.686 16.3154 133.536 19.247 134.218 20.6849C134.839 21.9944 135.378 21.597 136.577 20.7127Z" fill="url(#paint3_linear)"/>
<path d="M136.577 20.7127C137.776 19.8284 140.953 18.5453 140.115 16.778C139.629 15.7542 139.276 15.6214 137.981 15.9684C136.686 16.3154 133.536 19.247 134.218 20.6849C134.839 21.9944 135.378 21.597 136.577 20.7127Z" fill="white"/>
<path d="M132.32 32.6079C131.121 33.4922 127.944 34.7752 128.782 36.5425C129.267 37.5664 129.62 37.6992 130.915 37.3522C132.21 37.0052 135.36 34.0735 134.678 32.6356C134.057 31.3262 133.518 31.7236 132.32 32.6079Z" fill="url(#paint4_linear)"/>
<path d="M132.32 32.6079C131.121 33.4922 127.944 34.7752 128.782 36.5425C129.267 37.5664 129.62 37.6992 130.915 37.3522C132.21 37.0052 135.36 34.0735 134.678 32.6356C134.057 31.3262 133.518 31.7236 132.32 32.6079Z" fill="white"/>
<path d="M119.031 8.04223L115.672 8.04223C115.348 8.04223 115.085 8.30502 115.085 8.62919L115.085 45.4834C115.085 45.8076 115.348 46.0704 115.672 46.0704L152.526 46.0704C152.85 46.0704 153.113 45.8076 153.113 45.4835L153.113 8.62919C153.113 8.30503 152.85 8.04224 152.526 8.04224L121.285 8.04224" stroke="#CCD8E3" stroke-width="0.68" stroke-miterlimit="10" stroke-dasharray="0.82 0.82"/>
<path d="M123.536 38.0575C123.536 38.0575 122.373 34.8879 122.903 31.8329M145.104 16.4895C145.104 16.4895 146.202 19.4801 145.779 22.4514M124.615 28.3519L128.132 31.8691M124.615 28.3519C123.626 29.3408 123.121 30.5772 122.903 31.8329M124.615 28.3519C125.604 27.363 126.84 26.8587 128.096 26.6406M144.026 26.1951L140.509 22.6779M144.026 26.1951C145.084 25.1373 145.587 23.7963 145.779 22.4514M144.026 26.1951C142.968 27.253 141.627 27.7563 140.282 27.9479M145.779 22.4514L143.591 20.2639M140.282 27.9479C137.311 28.3713 134.32 27.2735 134.32 27.2735C134.32 27.2735 131.151 26.11 128.096 26.6406M140.282 27.9479L138.095 25.7604M122.903 31.8329L124.949 33.8787M128.096 26.6406L130.141 28.6864" stroke="#CCD8E3" stroke-width="0.596594" stroke-linecap="round"/>
<path d="M133.24 36.9786L129.722 33.4613M133.24 36.9786C132.251 37.9675 131.014 38.4718 129.759 38.6899L127.948 36.8787M133.24 36.9786C134.229 35.9896 134.733 34.7533 134.951 33.4976M135.396 17.5674L138.914 21.0846M135.396 17.5674C136.454 16.5095 137.795 16.0062 139.14 15.8146L141.163 17.8371M135.396 17.5674C134.339 18.6252 133.835 19.9662 133.644 21.3111M133.644 21.3111C133.22 24.2824 134.318 27.273 134.318 27.273C134.318 27.273 135.482 30.4426 134.951 33.4976M133.644 21.3111L135.666 23.3337M134.951 33.4976L133.14 31.6864" stroke="#CCD8E3" stroke-width="0.596594" stroke-linecap="round"/>
<path d="M24.6643 8.04223L21.2832 8.04223C20.971 8.04223 20.7179 8.29529 20.7179 8.60745L20.7179 45.5052C20.7179 45.8173 20.971 46.0704 21.2831 46.0704L58.1809 46.0704C58.493 46.0704 58.7461 45.8173 58.7461 45.5052L58.7461 8.60745C58.7461 8.29529 58.493 8.04224 58.1809 8.04224L27.3315 8.04224" stroke="#CCD8E3" stroke-width="0.68" stroke-miterlimit="10" stroke-dasharray="0.82 0.82"/>
<rect x="27.334" y="33.3848" width="26.4866" height="9.75642" transform="rotate(-45 27.334 33.3848)" stroke="#CCD8E3" stroke-width="0.574497" stroke-linejoin="round"/>
<path d="M41.3164 31.7035C43.3799 29.64 49.0764 25.6824 47.1205 23.7265C45.9873 22.5933 45.2955 22.6406 42.9356 24.0031C40.5756 25.3656 35.285 31.6537 36.8765 33.2451C38.3256 34.6942 39.253 33.7669 41.3164 31.7035Z" fill="url(#paint5_linear)"/>
<path d="M41.3164 31.7035C43.3799 29.64 49.0764 25.6824 47.1205 23.7265C45.9873 22.5933 45.2955 22.6406 42.9356 24.0031C40.5756 25.3656 35.285 31.6537 36.8765 33.2451C38.3256 34.6942 39.253 33.7669 41.3164 31.7035Z" fill="white"/>
<circle cx="40.2035" cy="27.4182" r="3.13599" transform="rotate(-45 40.2035 27.4182)" stroke="#CCD8E3" stroke-width="0.574497"/>
<path d="M103.405 0.999998L96.0533 0.999997C95.6739 0.999997 95.3663 1.30759 95.3663 1.68703L95.3663 55.2425C95.3663 55.622 95.6739 55.9296 96.0533 55.9296L172.144 55.9296C172.523 55.9296 172.831 55.622 172.831 55.2425L172.831 1.68704C172.831 1.3076 172.523 1 172.144 1L107.996 1" stroke="black" stroke-width="0.952534" stroke-miterlimit="10"/>
<path d="M9.03886 0.999998L1.6871 0.999997C1.30766 0.999997 1.00006 1.30759 1.00006 1.68703L1.00006 55.2425C1.00006 55.622 1.30765 55.9296 1.68709 55.9296L39.7324 55.9296L77.7778 55.9296C78.1572 55.9296 78.4648 55.622 78.4648 55.2425L78.4648 1.68704C78.4648 1.3076 78.1572 1 77.7778 1L13.6302 1" stroke="black" stroke-width="0.952534" stroke-miterlimit="10"/>
<path d="M18.8316 85.5071L1.68712 85.5071C1.30768 85.5071 1.00009 85.8147 1.00009 86.1941L1.00009 100.313C1.00009 100.692 1.30768 101 1.68712 101L86.9156 101L172.144 101C172.523 101 172.831 100.692 172.831 100.313L172.831 86.1941C172.831 85.8147 172.523 85.5071 172.144 85.5071L29.016 85.5071" stroke="black" stroke-width="0.952534" stroke-miterlimit="10"/>
<path d="M136.577 20.7127C137.776 19.8284 140.953 18.5453 140.115 16.778C139.629 15.7542 139.276 15.6214 137.981 15.9684C136.686 16.3154 133.536 19.247 134.218 20.6849C134.839 21.9944 135.378 21.597 136.577 20.7127Z" fill="url(#paint6_linear)"/>
<path d="M132.32 32.6079C131.121 33.4922 127.944 34.7752 128.782 36.5425C129.267 37.5664 129.62 37.6992 130.915 37.3522C132.21 37.0052 135.36 34.0735 134.678 32.6356C134.057 31.3262 133.518 31.7236 132.32 32.6079Z" fill="url(#paint7_linear)"/>
<path d="M119.031 8.04223L115.672 8.04223C115.348 8.04223 115.085 8.30502 115.085 8.62919L115.085 45.4834C115.085 45.8076 115.348 46.0704 115.672 46.0704L152.526 46.0704C152.85 46.0704 153.113 45.8076 153.113 45.4835L153.113 8.62919C153.113 8.30503 152.85 8.04224 152.526 8.04224L121.285 8.04224" stroke="black" stroke-width="0.68" stroke-miterlimit="10" stroke-dasharray="0.82 0.82"/>
<path d="M123.536 38.0575C123.536 38.0575 122.373 34.8879 122.903 31.8329M145.104 16.4895C145.104 16.4895 146.202 19.4801 145.779 22.4514M124.615 28.3519L128.132 31.8691M124.615 28.3519C123.626 29.3408 123.121 30.5772 122.903 31.8329M124.615 28.3519C125.604 27.363 126.84 26.8587 128.096 26.6406M144.026 26.1951L140.509 22.6779M144.026 26.1951C145.084 25.1373 145.587 23.7963 145.779 22.4514M144.026 26.1951C142.968 27.253 141.627 27.7563 140.282 27.9479M145.779 22.4514L143.591 20.2639M140.282 27.9479C137.311 28.3713 134.32 27.2735 134.32 27.2735C134.32 27.2735 131.151 26.11 128.096 26.6406M140.282 27.9479L138.095 25.7604M122.903 31.8329L124.949 33.8787M128.096 26.6406L130.141 28.6864" stroke="black" stroke-width="0.596594" stroke-linecap="round"/>
<path d="M133.24 36.9786L129.722 33.4613M133.24 36.9786C132.251 37.9675 131.014 38.4718 129.759 38.6899L127.948 36.8787M133.24 36.9786C134.229 35.9896 134.733 34.7533 134.951 33.4976M135.396 17.5674L138.914 21.0846M135.396 17.5674C136.454 16.5095 137.795 16.0062 139.14 15.8146L141.163 17.8371M135.396 17.5674C134.339 18.6252 133.835 19.9662 133.644 21.3111M133.644 21.3111C133.22 24.2824 134.318 27.273 134.318 27.273C134.318 27.273 135.482 30.4426 134.951 33.4976M133.644 21.3111L135.666 23.3337M134.951 33.4976L133.14 31.6864" stroke="black" stroke-width="0.596594" stroke-linecap="round"/>
<path d="M24.6643 8.04223L21.2832 8.04223C20.971 8.04223 20.7179 8.29529 20.7179 8.60745L20.7179 45.5052C20.7179 45.8173 20.971 46.0704 21.2831 46.0704L58.1809 46.0704C58.493 46.0704 58.7461 45.8173 58.7461 45.5052L58.7461 8.60745C58.7461 8.29529 58.493 8.04224 58.1809 8.04224L27.3315 8.04224" stroke="black" stroke-width="0.68" stroke-miterlimit="10" stroke-dasharray="0.82 0.82"/>
<rect x="27.334" y="33.3848" width="26.4866" height="9.75642" transform="rotate(-45 27.334 33.3848)" stroke="black" stroke-width="0.574497" stroke-linejoin="round"/>
<path d="M41.3164 31.7035C43.3799 29.64 49.0764 25.6824 47.1205 23.7265C45.9873 22.5933 45.2955 22.6406 42.9356 24.0031C40.5756 25.3656 35.285 31.6537 36.8765 33.2451C38.3256 34.6942 39.253 33.7669 41.3164 31.7035Z" fill="url(#paint8_linear)"/>
<circle cx="40.2035" cy="27.4182" r="3.13599" transform="rotate(-45 40.2035 27.4182)" stroke="black" stroke-width="0.574497"/>
<defs>
<linearGradient id="paint0_linear" x1="134.389" y1="21.3807" x2="138.64" y2="14.9889" gradientUnits="userSpaceOnUse">
<stop stop-color="#14DDE0"/>
<stop offset="1" stop-color="#C9CDFF"/>
<stop offset="1" stop-color="#5967FA"/>
</linearGradient>
<linearGradient id="paint1_linear" x1="134.508" y1="31.9399" x2="130.256" y2="38.3317" gradientUnits="userSpaceOnUse">
<stop stop-color="#14DDE0"/>
<stop offset="1" stop-color="#C9CDFF"/>
<stop offset="1" stop-color="#5967FA"/>
</linearGradient>
<linearGradient id="paint2_linear" x1="37.3467" y1="34.122" x2="39.0771" y2="21.4961" gradientUnits="userSpaceOnUse">
<stop stop-color="#14DDE0"/>
<stop offset="1" stop-color="#C9CDFF"/>
<stop offset="1" stop-color="#5967FA"/>
</linearGradient>
<linearGradient id="paint3_linear" x1="134.389" y1="21.3807" x2="138.64" y2="14.9889" gradientUnits="userSpaceOnUse">
<stop stop-color="#14DDE0"/>
<stop offset="1" stop-color="#C9CDFF"/>
<stop offset="1" stop-color="#5967FA"/>
</linearGradient>
<linearGradient id="paint4_linear" x1="134.508" y1="31.9399" x2="130.256" y2="38.3317" gradientUnits="userSpaceOnUse">
<stop stop-color="#14DDE0"/>
<stop offset="1" stop-color="#C9CDFF"/>
<stop offset="1" stop-color="#5967FA"/>
</linearGradient>
<linearGradient id="paint5_linear" x1="37.3467" y1="34.122" x2="39.0771" y2="21.4961" gradientUnits="userSpaceOnUse">
<stop stop-color="#14DDE0"/>
<stop offset="1" stop-color="#C9CDFF"/>
<stop offset="1" stop-color="#5967FA"/>
</linearGradient>
<linearGradient id="paint6_linear" x1="134.389" y1="21.3807" x2="138.64" y2="14.9889" gradientUnits="userSpaceOnUse">
<stop stop-color="#14DDE0"/>
<stop offset="1" stop-color="#C9CDFF"/>
<stop offset="1" stop-color="#5967FA"/>
</linearGradient>
<linearGradient id="paint7_linear" x1="134.508" y1="31.9399" x2="130.256" y2="38.3317" gradientUnits="userSpaceOnUse">
<stop stop-color="#14DDE0"/>
<stop offset="1" stop-color="#C9CDFF"/>
<stop offset="1" stop-color="#5967FA"/>
</linearGradient>
<linearGradient id="paint8_linear" x1="37.3467" y1="34.122" x2="39.0771" y2="21.4961" gradientUnits="userSpaceOnUse">
<stop stop-color="#14DDE0"/>
<stop offset="1" stop-color="#C9CDFF"/>
<stop offset="1" stop-color="#5967FA"/>
</linearGradient>
</defs>
</svg>
