<svg width="480" height="380" viewBox="0 0 480 380" fill="none" xmlns="http://www.w3.org/2000/svg">
<rect x="0.446009" y="13.8263" width="479.014" height="359.484" rx="8.47418" fill="white" stroke="#E4EBF2" stroke-width="0.892019"/>
<mask id="path-2-inside-1" fill="white">
<path fill-rule="evenodd" clip-rule="evenodd" d="M113.976 254.14C112.547 251.79 109.962 250.221 107.011 250.221C103.628 250.221 100.727 252.283 99.4957 255.219C98.7812 255.014 98.0265 254.905 97.2462 254.905C93.3299 254.905 90.0592 257.668 89.2778 261.352C87.0815 262.811 85.6338 265.307 85.6338 268.142C85.6338 272.64 89.2808 276.287 93.7795 276.287C93.8136 276.287 93.8476 276.287 93.8815 276.287H124.222C124.389 276.287 124.554 276.279 124.718 276.263C124.926 276.279 125.136 276.287 125.348 276.287C129.847 276.287 133.494 272.64 133.494 268.142C133.494 263.643 129.847 259.996 125.348 259.996C125.292 259.996 125.237 259.996 125.182 259.997C124.428 256.278 121.14 253.478 117.198 253.478C116.054 253.478 114.964 253.714 113.976 254.14Z"/>
</mask>
<path fill-rule="evenodd" clip-rule="evenodd" d="M113.976 254.14C112.547 251.79 109.962 250.221 107.011 250.221C103.628 250.221 100.727 252.283 99.4957 255.219C98.7812 255.014 98.0265 254.905 97.2462 254.905C93.3299 254.905 90.0592 257.668 89.2778 261.352C87.0815 262.811 85.6338 265.307 85.6338 268.142C85.6338 272.64 89.2808 276.287 93.7795 276.287C93.8136 276.287 93.8476 276.287 93.8815 276.287H124.222C124.389 276.287 124.554 276.279 124.718 276.263C124.926 276.279 125.136 276.287 125.348 276.287C129.847 276.287 133.494 272.64 133.494 268.142C133.494 263.643 129.847 259.996 125.348 259.996C125.292 259.996 125.237 259.996 125.182 259.997C124.428 256.278 121.14 253.478 117.198 253.478C116.054 253.478 114.964 253.714 113.976 254.14Z" fill="white"/>
<path d="M113.976 254.14L113.252 254.581L113.635 255.21L114.312 254.919L113.976 254.14ZM99.4957 255.219L99.2621 256.034L99.986 256.241L100.277 255.547L99.4957 255.219ZM89.2778 261.352L89.7467 262.058L90.035 261.866L90.1068 261.528L89.2778 261.352ZM93.8815 276.287V275.439L93.8711 275.439L93.8815 276.287ZM124.718 276.263L124.782 275.418L124.71 275.413L124.638 275.42L124.718 276.263ZM125.182 259.997L124.351 260.166L124.492 260.859L125.199 260.845L125.182 259.997ZM107.011 251.068C109.654 251.068 111.97 252.473 113.252 254.581L114.7 253.7C113.124 251.108 110.27 249.373 107.011 249.373V251.068ZM100.277 255.547C101.381 252.915 103.981 251.068 107.011 251.068V249.373C103.275 249.373 100.073 251.652 98.7142 254.892L100.277 255.547ZM97.2462 255.752C97.9467 255.752 98.6228 255.851 99.2621 256.034L99.7292 254.405C98.9396 254.178 98.1063 254.057 97.2462 254.057V255.752ZM90.1068 261.528C90.8068 258.228 93.7384 255.752 97.2462 255.752V254.057C92.9215 254.057 89.3115 257.109 88.4488 261.176L90.1068 261.528ZM86.4812 268.142C86.4812 265.603 87.7768 263.366 89.7467 262.058L88.8089 260.646C86.3862 262.255 84.7864 265.011 84.7864 268.142H86.4812ZM93.7795 275.44C89.7488 275.44 86.4812 272.172 86.4812 268.142H84.7864C84.7864 273.108 88.8127 277.135 93.7795 277.135V275.44ZM93.8711 275.439C93.8406 275.44 93.8101 275.44 93.7795 275.44V277.135C93.817 277.135 93.8545 277.134 93.8919 277.134L93.8711 275.439ZM124.222 275.439H93.8815V277.134H124.222V275.439ZM124.638 275.42C124.501 275.433 124.362 275.439 124.222 275.439V277.134C124.416 277.134 124.608 277.125 124.798 277.107L124.638 275.42ZM125.348 275.44C125.157 275.44 124.969 275.433 124.782 275.418L124.653 277.108C124.883 277.126 125.114 277.135 125.348 277.135V275.44ZM132.646 268.142C132.646 272.172 129.379 275.44 125.348 275.44V277.135C130.315 277.135 134.341 273.108 134.341 268.142H132.646ZM125.348 260.843C129.379 260.843 132.646 264.111 132.646 268.142H134.341C134.341 263.175 130.315 259.148 125.348 259.148V260.843ZM125.199 260.845C125.248 260.844 125.298 260.843 125.348 260.843V259.148C125.287 259.148 125.226 259.149 125.165 259.15L125.199 260.845ZM117.198 254.326C120.729 254.326 123.676 256.834 124.351 260.166L126.012 259.829C125.18 255.722 121.551 252.631 117.198 252.631V254.326ZM114.312 254.919C115.196 254.537 116.171 254.326 117.198 254.326V252.631C115.936 252.631 114.733 252.891 113.641 253.362L114.312 254.919Z" fill="#CCD8E3" mask="url(#path-2-inside-1)"/>
<circle cx="118.272" cy="260.995" r="38.2586" transform="rotate(-60 118.272 260.995)" fill="url(#paint0_radial)"/>
<circle cx="118.272" cy="260.995" r="38.2586" transform="rotate(-60 118.272 260.995)" fill="url(#paint1_radial)"/>
<circle cx="118.272" cy="260.995" r="38.2586" transform="rotate(-60 118.272 260.995)" fill="url(#paint2_radial)"/>
<mask id="path-5-inside-2" fill="white">
<path fill-rule="evenodd" clip-rule="evenodd" d="M113.976 254.141C112.547 251.791 109.962 250.221 107.011 250.221C103.628 250.221 100.727 252.284 99.4957 255.22C98.7812 255.015 98.0265 254.905 97.2462 254.905C93.3299 254.905 90.0592 257.669 89.2778 261.352C87.0815 262.811 85.6338 265.308 85.6338 268.142C85.6338 272.641 89.2808 276.288 93.7795 276.288C93.8136 276.288 93.8476 276.288 93.8815 276.287H124.222C124.389 276.287 124.554 276.279 124.718 276.264C124.926 276.28 125.136 276.288 125.348 276.288C129.847 276.288 133.494 272.641 133.494 268.142C133.494 263.643 129.847 259.996 125.348 259.996C125.292 259.996 125.237 259.997 125.182 259.998C124.428 256.279 121.14 253.479 117.198 253.479C116.054 253.479 114.964 253.715 113.976 254.141Z"/>
</mask>
<path fill-rule="evenodd" clip-rule="evenodd" d="M113.976 254.141C112.547 251.791 109.962 250.221 107.011 250.221C103.628 250.221 100.727 252.284 99.4957 255.22C98.7812 255.015 98.0265 254.905 97.2462 254.905C93.3299 254.905 90.0592 257.669 89.2778 261.352C87.0815 262.811 85.6338 265.308 85.6338 268.142C85.6338 272.641 89.2808 276.288 93.7795 276.288C93.8136 276.288 93.8476 276.288 93.8815 276.287H124.222C124.389 276.287 124.554 276.279 124.718 276.264C124.926 276.28 125.136 276.288 125.348 276.288C129.847 276.288 133.494 272.641 133.494 268.142C133.494 263.643 129.847 259.996 125.348 259.996C125.292 259.996 125.237 259.997 125.182 259.998C124.428 256.279 121.14 253.479 117.198 253.479C116.054 253.479 114.964 253.715 113.976 254.141Z" fill="white"/>
<path d="M113.976 254.141L113.252 254.581L113.635 255.211L114.312 254.919L113.976 254.141ZM99.4957 255.22L99.2621 256.034L99.986 256.242L100.277 255.547L99.4957 255.22ZM89.2778 261.352L89.7467 262.058L90.035 261.867L90.1068 261.528L89.2778 261.352ZM93.8815 276.287V275.44L93.8711 275.44L93.8815 276.287ZM124.718 276.264L124.782 275.419L124.71 275.413L124.638 275.42L124.718 276.264ZM125.182 259.998L124.351 260.166L124.492 260.859L125.199 260.845L125.182 259.998ZM107.011 251.069C109.654 251.069 111.97 252.474 113.252 254.581L114.7 253.701C113.124 251.108 110.27 249.374 107.011 249.374V251.069ZM100.277 255.547C101.381 252.915 103.981 251.069 107.011 251.069V249.374C103.275 249.374 100.073 251.652 98.7142 254.892L100.277 255.547ZM97.2462 255.753C97.9467 255.753 98.6228 255.851 99.2621 256.034L99.7292 254.405C98.9396 254.179 98.1063 254.058 97.2462 254.058V255.753ZM90.1068 261.528C90.8068 258.228 93.7384 255.753 97.2462 255.753V254.058C92.9215 254.058 89.3115 257.109 88.4488 261.176L90.1068 261.528ZM86.4812 268.142C86.4812 265.603 87.7768 263.367 89.7467 262.058L88.8089 260.646C86.3862 262.256 84.7864 265.012 84.7864 268.142H86.4812ZM93.7795 275.44C89.7488 275.44 86.4812 272.173 86.4812 268.142H84.7864C84.7864 273.109 88.8127 277.135 93.7795 277.135V275.44ZM93.8711 275.44C93.8406 275.44 93.8101 275.44 93.7795 275.44V277.135C93.817 277.135 93.8545 277.135 93.8919 277.134L93.8711 275.44ZM124.222 275.44H93.8815V277.135H124.222V275.44ZM124.638 275.42C124.501 275.433 124.362 275.44 124.222 275.44V277.135C124.416 277.135 124.608 277.125 124.798 277.107L124.638 275.42ZM125.348 275.44C125.157 275.44 124.969 275.433 124.782 275.419L124.653 277.109C124.883 277.126 125.114 277.135 125.348 277.135V275.44ZM132.646 268.142C132.646 272.173 129.379 275.44 125.348 275.44V277.135C130.315 277.135 134.341 273.109 134.341 268.142H132.646ZM125.348 260.844C129.379 260.844 132.646 264.111 132.646 268.142H134.341C134.341 263.175 130.315 259.149 125.348 259.149V260.844ZM125.199 260.845C125.248 260.844 125.298 260.844 125.348 260.844V259.149C125.287 259.149 125.226 259.149 125.165 259.151L125.199 260.845ZM117.198 254.326C120.729 254.326 123.676 256.834 124.351 260.166L126.012 259.83C125.18 255.723 121.551 252.631 117.198 252.631V254.326ZM114.312 254.919C115.196 254.538 116.171 254.326 117.198 254.326V252.631C115.936 252.631 114.733 252.892 113.641 253.363L114.312 254.919Z" fill="#1A2530" mask="url(#path-5-inside-2)"/>
<g style="mix-blend-mode:multiply">
<path d="M118.019 269.846C113.201 270.599 101.417 271.005 102.571 274.057C103.24 275.825 104.293 276.193 108.934 276.292C113.574 276.391 126.744 277.54 125.804 275.056C124.949 272.795 122.837 269.092 118.019 269.846Z" fill="url(#paint3_linear)"/>
</g>
<circle cx="380.446" cy="302.84" r="77.1596" fill="url(#paint4_radial)"/>
<circle cx="380.446" cy="302.84" r="77.1596" fill="url(#paint5_radial)"/>
<circle cx="380.446" cy="302.84" r="77.1596" fill="url(#paint6_radial)"/>
<mask id="path-9-inside-3" fill="white">
<path fill-rule="evenodd" clip-rule="evenodd" d="M389.771 286.93C388.342 284.579 385.757 283.01 382.805 283.01C379.422 283.01 376.521 285.072 375.29 288.008C374.575 287.803 373.821 287.694 373.04 287.694C369.124 287.694 365.854 290.457 365.072 294.14C362.876 295.599 361.428 298.095 361.428 300.93C361.428 305.429 365.075 309.076 369.573 309.076C369.595 309.076 369.616 309.075 369.638 309.075C369.65 309.075 369.661 309.075 369.673 309.075H400.016C400.184 309.075 400.351 309.067 400.515 309.052C400.722 309.067 400.931 309.076 401.142 309.076C405.641 309.076 409.288 305.429 409.288 300.93C409.288 296.431 405.641 292.784 401.142 292.784C401.086 292.784 401.031 292.785 400.975 292.786C400.221 289.067 396.934 286.268 392.992 286.268C391.848 286.268 390.759 286.504 389.771 286.93Z"/>
</mask>
<path fill-rule="evenodd" clip-rule="evenodd" d="M389.771 286.93C388.342 284.579 385.757 283.01 382.805 283.01C379.422 283.01 376.521 285.072 375.29 288.008C374.575 287.803 373.821 287.694 373.04 287.694C369.124 287.694 365.854 290.457 365.072 294.14C362.876 295.599 361.428 298.095 361.428 300.93C361.428 305.429 365.075 309.076 369.573 309.076C369.595 309.076 369.616 309.075 369.638 309.075C369.65 309.075 369.661 309.075 369.673 309.075H400.016C400.184 309.075 400.351 309.067 400.515 309.052C400.722 309.067 400.931 309.076 401.142 309.076C405.641 309.076 409.288 305.429 409.288 300.93C409.288 296.431 405.641 292.784 401.142 292.784C401.086 292.784 401.031 292.785 400.975 292.786C400.221 289.067 396.934 286.268 392.992 286.268C391.848 286.268 390.759 286.504 389.771 286.93Z" fill="white"/>
<path d="M389.771 286.93L389.046 287.37L389.429 287.999L390.106 287.708L389.771 286.93ZM375.29 288.008L375.056 288.823L375.78 289.03L376.071 288.336L375.29 288.008ZM365.072 294.14L365.541 294.846L365.829 294.654L365.901 294.316L365.072 294.14ZM369.638 309.075L369.643 308.228L369.631 308.228L369.638 309.075ZM400.515 309.052L400.579 308.207L400.507 308.201L400.434 308.208L400.515 309.052ZM400.975 292.786L400.145 292.954L400.285 293.647L400.992 293.633L400.975 292.786ZM382.805 283.857C385.449 283.857 387.765 285.262 389.046 287.37L390.495 286.489C388.918 283.897 386.065 282.162 382.805 282.162V283.857ZM376.071 288.336C377.175 285.703 379.775 283.857 382.805 283.857V282.162C379.069 282.162 375.867 284.441 374.508 287.68L376.071 288.336ZM373.04 288.541C373.741 288.541 374.417 288.639 375.056 288.823L375.523 287.193C374.734 286.967 373.9 286.846 373.04 286.846V288.541ZM365.901 294.316C366.601 291.016 369.533 288.541 373.04 288.541V286.846C368.716 286.846 365.106 289.897 364.243 293.964L365.901 294.316ZM362.275 300.93C362.275 298.391 363.571 296.154 365.541 294.846L364.603 293.434C362.18 295.043 360.58 297.8 360.58 300.93H362.275ZM369.573 308.228C365.543 308.228 362.275 304.961 362.275 300.93H360.58C360.58 305.897 364.607 309.923 369.573 309.923V308.228ZM369.631 308.228C369.612 308.228 369.593 308.228 369.573 308.228V309.923C369.597 309.923 369.621 309.923 369.644 309.923L369.631 308.228ZM369.673 308.228C369.663 308.228 369.653 308.228 369.643 308.228L369.632 309.923C369.646 309.923 369.659 309.923 369.673 309.923V308.228ZM400.016 308.228H369.673V309.923H400.016V308.228ZM400.434 308.208C400.297 308.221 400.157 308.228 400.016 308.228V309.923C400.211 309.923 400.404 309.914 400.595 309.895L400.434 308.208ZM401.142 308.228C400.952 308.228 400.765 308.221 400.579 308.207L400.45 309.897C400.679 309.914 400.909 309.923 401.142 309.923V308.228ZM408.44 300.93C408.44 304.961 405.173 308.228 401.142 308.228V309.923C406.109 309.923 410.135 305.897 410.135 300.93H408.44ZM401.142 293.631C405.173 293.631 408.44 296.899 408.44 300.93H410.135C410.135 295.963 406.109 291.937 401.142 291.937V293.631ZM400.992 293.633C401.042 293.632 401.092 293.631 401.142 293.631V291.937C401.081 291.937 401.019 291.937 400.958 291.938L400.992 293.633ZM392.992 287.115C396.523 287.115 399.469 289.622 400.145 292.954L401.806 292.617C400.973 288.511 397.345 285.42 392.992 285.42V287.115ZM390.106 287.708C390.99 287.327 391.965 287.115 392.992 287.115V285.42C391.73 285.42 390.527 285.681 389.435 286.151L390.106 287.708Z" fill="#1A2530" mask="url(#path-9-inside-3)"/>
<g style="mix-blend-mode:multiply">
<path d="M396.44 303.543C391.626 304.097 379.845 304.349 381.015 306.694C381.693 308.053 382.748 308.34 387.388 308.439C392.028 308.537 405.202 309.484 404.251 307.576C403.384 305.838 401.254 302.99 396.44 303.543Z" fill="url(#paint7_linear)"/>
</g>
<circle cx="400.071" cy="77.1596" r="77.1596" fill="url(#paint8_radial)"/>
<circle cx="400.071" cy="77.1596" r="77.1596" fill="url(#paint9_radial)"/>
<circle cx="400.071" cy="77.1596" r="77.1596" fill="url(#paint10_radial)"/>
<mask id="path-13-inside-4" fill="white">
<path fill-rule="evenodd" clip-rule="evenodd" d="M395.854 75.2811C394.425 72.9311 391.84 71.3615 388.889 71.3615C385.506 71.3615 382.605 73.4239 381.374 76.36C380.659 76.1552 379.904 76.0455 379.124 76.0455C375.208 76.0455 371.937 78.8091 371.156 82.4924C368.959 83.9515 367.512 86.4478 367.512 89.2823C367.512 93.781 371.159 97.428 375.657 97.428C375.691 97.428 375.726 97.4278 375.759 97.4274H406.1C406.267 97.4274 406.432 97.4195 406.596 97.404C406.804 97.4199 407.014 97.428 407.226 97.428C411.724 97.428 415.371 93.781 415.371 89.2823C415.371 84.7835 411.724 81.1366 407.226 81.1366C407.17 81.1366 407.115 81.1371 407.059 81.1382C406.306 77.4188 403.018 74.619 399.076 74.619C397.932 74.619 396.842 74.8551 395.854 75.2811Z"/>
</mask>
<path fill-rule="evenodd" clip-rule="evenodd" d="M395.854 75.2811C394.425 72.9311 391.84 71.3615 388.889 71.3615C385.506 71.3615 382.605 73.4239 381.374 76.36C380.659 76.1552 379.904 76.0455 379.124 76.0455C375.208 76.0455 371.937 78.8091 371.156 82.4924C368.959 83.9515 367.512 86.4478 367.512 89.2823C367.512 93.781 371.159 97.428 375.657 97.428C375.691 97.428 375.726 97.4278 375.759 97.4274H406.1C406.267 97.4274 406.432 97.4195 406.596 97.404C406.804 97.4199 407.014 97.428 407.226 97.428C411.724 97.428 415.371 93.781 415.371 89.2823C415.371 84.7835 411.724 81.1366 407.226 81.1366C407.17 81.1366 407.115 81.1371 407.059 81.1382C406.306 77.4188 403.018 74.619 399.076 74.619C397.932 74.619 396.842 74.8551 395.854 75.2811Z" fill="white"/>
<path d="M395.854 75.2811L395.13 75.7214L395.513 76.351L396.19 76.0593L395.854 75.2811ZM381.374 76.36L381.14 77.1746L381.864 77.3822L382.155 76.6877L381.374 76.36ZM371.156 82.4924L371.625 83.1983L371.913 83.0068L371.985 82.6683L371.156 82.4924ZM375.759 97.4274V96.5799L375.749 96.58L375.759 97.4274ZM406.596 97.404L406.66 96.5591L406.588 96.5535L406.516 96.5604L406.596 97.404ZM407.059 81.1382L406.229 81.3065L406.369 81.9996L407.076 81.9855L407.059 81.1382ZM388.889 72.209C391.532 72.209 393.848 73.6137 395.13 75.7214L396.578 74.8408C395.002 72.2486 392.148 70.5141 388.889 70.5141V72.209ZM382.155 76.6877C383.259 74.0554 385.859 72.209 388.889 72.209V70.5141C385.153 70.5141 381.95 72.7925 380.592 76.0324L382.155 76.6877ZM379.124 76.8929C379.825 76.8929 380.501 76.9913 381.14 77.1746L381.607 75.5454C380.817 75.319 379.984 75.198 379.124 75.198V76.8929ZM371.985 82.6683C372.685 79.3684 375.616 76.8929 379.124 76.8929V75.198C374.799 75.198 371.19 78.2498 370.327 82.3166L371.985 82.6683ZM368.359 89.2823C368.359 86.7435 369.655 84.507 371.625 83.1983L370.687 81.7866C368.264 83.3961 366.664 86.1522 366.664 89.2823H368.359ZM375.657 96.5806C371.627 96.5806 368.359 93.313 368.359 89.2823H366.664C366.664 94.2491 370.691 98.2754 375.657 98.2754V96.5806ZM375.749 96.58C375.719 96.5804 375.688 96.5806 375.657 96.5806V98.2754C375.695 98.2754 375.732 98.2752 375.77 98.2747L375.749 96.58ZM406.1 96.58H375.759V98.2748H406.1V96.58ZM406.516 96.5604C406.379 96.5733 406.24 96.58 406.1 96.58V98.2748C406.294 98.2748 406.486 98.2656 406.676 98.2476L406.516 96.5604ZM407.226 96.5806C407.035 96.5806 406.847 96.5733 406.66 96.5591L406.531 98.249C406.76 98.2665 406.992 98.2754 407.226 98.2754V96.5806ZM414.524 89.2823C414.524 93.313 411.256 96.5806 407.226 96.5806V98.2754C412.192 98.2754 416.219 94.2491 416.219 89.2823H414.524ZM407.226 81.984C411.256 81.984 414.524 85.2515 414.524 89.2823H416.219C416.219 84.3155 412.192 80.2891 407.226 80.2891V81.984ZM407.076 81.9855C407.126 81.9845 407.176 81.984 407.226 81.984V80.2891C407.164 80.2891 407.103 80.2898 407.042 80.291L407.076 81.9855ZM399.076 75.4665C402.607 75.4665 405.554 77.9744 406.229 81.3065L407.89 80.9699C407.058 76.8632 403.429 73.7716 399.076 73.7716V75.4665ZM396.19 76.0593C397.074 75.6781 398.049 75.4665 399.076 75.4665V73.7716C397.814 73.7716 396.611 74.0321 395.519 74.5029L396.19 76.0593Z" fill="#1A2530" mask="url(#path-13-inside-4)"/>
<g style="mix-blend-mode:multiply">
<path d="M403.578 92.3037C398.764 92.8572 386.983 93.1096 388.153 95.4547C388.831 96.8134 389.885 97.1006 394.526 97.1993C399.166 97.2981 412.34 98.2443 411.388 96.3362C410.522 94.5986 408.391 91.7502 403.578 92.3037Z" fill="url(#paint11_linear)"/>
</g>
<mask id="mask0" style="mask-type:alpha" maskUnits="userSpaceOnUse" x="0" y="13" width="480" height="361">
<rect x="0.446009" y="13.8263" width="479.014" height="359.484" rx="8.47418" fill="white" stroke="#E4EBF2" stroke-width="0.892019"/>
</mask>
<g mask="url(#mask0)">
<rect x="179.296" y="353.239" width="121.315" height="82.9578" fill="white"/>
<path d="M218.545 34.2209V47.5562C218.545 47.8947 218.27 48.1691 217.932 48.1691H204.885C204.547 48.1691 204.272 47.8947 204.272 47.5562V30.0495C204.272 29.711 204.547 29.4367 204.885 29.4367H217.932C218.27 29.4367 218.545 29.711 218.545 30.0495V33.504" fill="white"/>
<path d="M218.545 34.2209V47.5562C218.545 47.8947 218.27 48.1691 217.932 48.1691H204.885C204.547 48.1691 204.272 47.8947 204.272 47.5562V30.0495C204.272 29.711 204.547 29.4367 204.885 29.4367H217.932C218.27 29.4367 218.545 29.711 218.545 30.0495V33.504" stroke="#1C2329" stroke-width="0.849679" stroke-miterlimit="10"/>
<path d="M278.31 34.2209V47.5562C278.31 47.8947 278.036 48.1691 277.698 48.1691H264.651C264.312 48.1691 264.038 47.8947 264.038 47.5562V30.0495C264.038 29.711 264.312 29.4367 264.651 29.4367H277.698C278.036 29.4367 278.31 29.711 278.31 30.0495V33.504" fill="white"/>
<path d="M278.31 34.2209V47.5562C278.31 47.8947 278.036 48.1691 277.698 48.1691H264.651C264.312 48.1691 264.038 47.8947 264.038 47.5562V30.0495C264.038 29.711 264.312 29.4367 264.651 29.4367H277.698C278.036 29.4367 278.31 29.711 278.31 30.0495V33.504" stroke="#1C2329" stroke-width="0.849679" stroke-miterlimit="10"/>
<path d="M247.09 206.778V213.472C247.09 213.81 246.815 214.085 246.477 214.085H233.43C233.092 214.085 232.817 213.81 232.817 213.472V204.885C232.817 204.547 233.092 204.272 233.43 204.272H246.477C246.815 204.272 247.09 204.547 247.09 204.885V206.403" fill="white"/>
<path d="M247.09 206.778V213.472C247.09 213.81 246.815 214.085 246.477 214.085H233.43C233.092 214.085 232.817 213.81 232.817 213.472V204.885C232.817 204.547 233.092 204.272 233.43 204.272H246.477C246.815 204.272 247.09 204.547 247.09 204.885V206.403" stroke="#1C2329" stroke-width="0.849679" stroke-miterlimit="10"/>
<path d="M247.09 296.154V326.758C247.09 327.097 246.815 327.371 246.477 327.371H233.43C233.092 327.371 232.817 327.097 232.817 326.758V286.059C232.817 285.72 233.092 285.446 233.43 285.446H246.477C246.815 285.446 247.09 285.72 247.09 286.059V294.549" fill="white"/>
<path d="M247.09 296.154V326.758C247.09 327.097 246.815 327.371 246.477 327.371H233.43C233.092 327.371 232.817 327.097 232.817 326.758V286.059C232.817 285.72 233.092 285.446 233.43 285.446H246.477C246.815 285.446 247.09 285.72 247.09 286.059V294.549" stroke="#1C2329" stroke-width="0.849679" stroke-miterlimit="10"/>
<path d="M247.09 333.978V352.627C247.09 352.965 246.815 353.24 246.477 353.24H233.43C233.092 353.24 232.817 352.965 232.817 352.627V327.984C232.817 327.645 233.092 327.371 233.43 327.371H246.477C246.815 327.371 247.09 327.645 247.09 327.984V332.988" fill="white"/>
<path d="M247.09 333.978V352.627C247.09 352.965 246.815 353.24 246.477 353.24H233.43C233.092 353.24 232.817 352.965 232.817 352.627V327.984C232.817 327.645 233.092 327.371 233.43 327.371H246.477C246.815 327.371 247.09 327.645 247.09 327.984V332.988" stroke="#1C2329" stroke-width="0.849679" stroke-miterlimit="10"/>
<circle cx="240.017" cy="321.063" r="27.2929" fill="white" stroke="#1C2329" stroke-width="0.847418"/>
<circle opacity="0.5" cx="240.178" cy="321.301" r="9.47068" transform="rotate(-30 240.178 321.301)" fill="url(#paint12_linear)"/>
<circle cx="240.178" cy="321.301" r="9.47068" transform="rotate(-30 240.178 321.301)" fill="white"/>
<path d="M191.885 214.085L181.08 214.085C180.095 214.085 179.296 214.883 179.296 215.869L179.296 274.742C179.296 275.727 180.095 276.526 181.08 276.526L298.826 276.526C299.812 276.526 300.61 275.727 300.61 274.742L300.61 215.869C300.61 214.883 299.812 214.085 298.826 214.085L195.318 214.085" stroke="#1C2329" stroke-width="0.849679" stroke-miterlimit="10"/>
<path d="M191.885 353.239L181.747 353.239C180.393 353.239 179.296 354.337 179.296 355.691L179.296 433.746C179.296 435.1 180.393 436.197 181.747 436.197L298.159 436.197C299.513 436.197 300.61 435.1 300.61 433.746L300.61 355.691C300.61 354.337 299.513 353.239 298.159 353.239L195.318 353.239" stroke="#1C2329" stroke-width="0.849679" stroke-miterlimit="10"/>
<g style="mix-blend-mode:multiply">
<mask id="path-33-inside-5" fill="white">
<rect x="195.976" y="217.653" width="10.9002" height="10.9002" rx="0.612848"/>
</mask>
<rect x="195.976" y="217.653" width="10.9002" height="10.9002" rx="0.612848" stroke="#1C2329" stroke-width="1.69936" stroke-dasharray="1.1 1.1" mask="url(#path-33-inside-5)"/>
</g>
<g style="mix-blend-mode:multiply">
<mask id="path-34-inside-6" fill="white">
<rect x="245.306" y="221.49" width="10.9002" height="10.9002" rx="0.612848"/>
</mask>
<rect x="245.306" y="221.49" width="10.9002" height="10.9002" rx="0.612848" stroke="#1C2329" stroke-width="1.69936" stroke-dasharray="1.1 1.1" mask="url(#path-34-inside-6)"/>
</g>
<g style="mix-blend-mode:multiply">
<mask id="path-35-inside-7" fill="white">
<rect x="270.885" y="229.165" width="10.9002" height="10.9002" rx="0.612848"/>
</mask>
<rect x="270.885" y="229.165" width="10.9002" height="10.9002" rx="0.612848" stroke="#1C2329" stroke-width="1.69936" stroke-dasharray="1.1 1.1" mask="url(#path-35-inside-7)"/>
</g>
<g style="mix-blend-mode:multiply">
<mask id="path-36-inside-8" fill="white">
<rect x="221.565" y="227.886" width="10.9002" height="10.9002" rx="0.612848"/>
</mask>
<rect x="221.565" y="227.886" width="10.9002" height="10.9002" rx="0.612848" stroke="#1C2329" stroke-width="1.69936" stroke-dasharray="1.1 1.1" mask="url(#path-36-inside-8)"/>
</g>
<g style="mix-blend-mode:multiply">
<mask id="path-37-inside-9" fill="white">
<rect x="187.018" y="259.612" width="10.9002" height="10.9002" rx="0.612848"/>
</mask>
<rect x="187.018" y="259.612" width="10.9002" height="10.9002" rx="0.612848" stroke="#1C2329" stroke-width="1.69484" stroke-dasharray="1.1 1.1" mask="url(#path-37-inside-9)"/>
</g>
<g style="mix-blend-mode:multiply">
<mask id="path-38-inside-10" fill="white">
<rect x="200.645" y="259.612" width="10.9002" height="10.9002" rx="0.612848"/>
</mask>
<rect x="200.645" y="259.612" width="10.9002" height="10.9002" rx="0.612848" stroke="#1C2329" stroke-width="1.69484" stroke-dasharray="1.1 1.1" mask="url(#path-38-inside-10)"/>
</g>
<g style="mix-blend-mode:multiply">
<mask id="path-39-inside-11" fill="white">
<rect x="214.267" y="259.612" width="10.9002" height="10.9002" rx="0.612848"/>
</mask>
<rect x="214.267" y="259.612" width="10.9002" height="10.9002" rx="0.612848" stroke="#1C2329" stroke-width="1.69484" stroke-dasharray="1.1 1.1" mask="url(#path-39-inside-11)"/>
</g>
<g style="mix-blend-mode:multiply">
<mask id="path-40-inside-12" fill="white">
<rect x="227.89" y="259.612" width="10.9002" height="10.9002" rx="0.612848"/>
</mask>
<rect x="227.89" y="259.612" width="10.9002" height="10.9002" rx="0.612848" stroke="#1C2329" stroke-width="1.69484" stroke-dasharray="1.1 1.1" mask="url(#path-40-inside-12)"/>
</g>
<g style="mix-blend-mode:multiply">
<mask id="path-41-inside-13" fill="white">
<rect x="241.517" y="259.612" width="10.9002" height="10.9002" rx="0.612848"/>
</mask>
<rect x="241.517" y="259.612" width="10.9002" height="10.9002" rx="0.612848" stroke="#1C2329" stroke-width="1.69484" stroke-dasharray="1.1 1.1" mask="url(#path-41-inside-13)"/>
</g>
<g style="mix-blend-mode:multiply">
<mask id="path-42-inside-14" fill="white">
<rect x="255.147" y="259.612" width="10.9002" height="10.9002" rx="0.612848"/>
</mask>
<rect x="255.147" y="259.612" width="10.9002" height="10.9002" rx="0.612848" stroke="#1C2329" stroke-width="1.69484" stroke-dasharray="1.1 1.1" mask="url(#path-42-inside-14)"/>
</g>
<g style="mix-blend-mode:multiply">
<mask id="path-43-inside-15" fill="white">
<rect x="268.773" y="259.612" width="10.9002" height="10.9002" rx="0.612848"/>
</mask>
<rect x="268.773" y="259.612" width="10.9002" height="10.9002" rx="0.612848" stroke="#1C2329" stroke-width="1.69484" stroke-dasharray="1.1 1.1" mask="url(#path-43-inside-15)"/>
</g>
<g style="mix-blend-mode:multiply">
<mask id="path-44-inside-16" fill="white">
<rect x="282.393" y="259.612" width="10.9002" height="10.9002" rx="0.612848"/>
</mask>
<rect x="282.393" y="259.612" width="10.9002" height="10.9002" rx="0.612848" stroke="#1C2329" stroke-width="1.69484" stroke-dasharray="1.1 1.1" mask="url(#path-44-inside-16)"/>
</g>
<g style="mix-blend-mode:multiply">
<mask id="path-45-inside-17" fill="white">
<rect x="187.018" y="245.305" width="10.9002" height="10.9002" rx="0.612848"/>
</mask>
<rect x="187.018" y="245.305" width="10.9002" height="10.9002" rx="0.612848" stroke="#1C2329" stroke-width="1.69484" stroke-dasharray="1.1 1.1" mask="url(#path-45-inside-17)"/>
</g>
<path d="M190.731 254.799C192.36 254.725 196.141 255.347 196.211 253.561C196.251 252.526 195.971 252.245 194.519 251.856C193.067 251.467 188.478 252.129 188.421 253.582C188.369 254.905 189.101 254.872 190.731 254.799Z" fill="url(#paint13_linear)"/>
<path d="M190.731 269.282C192.36 269.208 196.141 269.83 196.211 268.044C196.251 267.009 195.971 266.728 194.519 266.339C193.067 265.95 188.478 266.612 188.421 268.065C188.369 269.388 189.101 269.355 190.731 269.282Z" fill="url(#paint14_linear)"/>
<path d="M204.586 254.799C206.216 254.725 209.997 255.347 210.066 253.561C210.107 252.526 209.826 252.245 208.374 251.856C206.922 251.467 202.333 252.129 202.276 253.582C202.225 254.905 202.957 254.872 204.586 254.799Z" fill="url(#paint15_linear)"/>
<path d="M204.586 269.282C206.216 269.208 209.997 269.83 210.066 268.044C210.107 267.009 209.826 266.728 208.374 266.339C206.922 265.95 202.333 266.612 202.276 268.065C202.225 269.388 202.957 269.355 204.586 269.282Z" fill="url(#paint16_linear)"/>
<path d="M217.81 254.799C219.439 254.725 223.22 255.347 223.29 253.561C223.33 252.526 223.05 252.245 221.598 251.856C220.146 251.467 215.557 252.129 215.5 253.582C215.448 254.905 216.181 254.872 217.81 254.799Z" fill="url(#paint17_linear)"/>
<path d="M231.665 254.799C233.295 254.725 237.076 255.347 237.145 253.561C237.186 252.526 236.905 252.245 235.453 251.856C234.001 251.467 229.412 252.129 229.355 253.582C229.304 254.905 230.036 254.872 231.665 254.799Z" fill="url(#paint18_linear)"/>
<path d="M231.665 269.282C233.295 269.208 237.076 269.83 237.145 268.044C237.186 267.009 236.905 266.728 235.453 266.339C234.001 265.95 229.412 266.612 229.355 268.065C229.304 269.388 230.036 269.355 231.665 269.282Z" fill="url(#paint19_linear)"/>
<path d="M245.513 254.799C247.143 254.725 250.923 255.347 250.993 253.561C251.033 252.526 250.753 252.245 249.301 251.856C247.849 251.467 243.26 252.129 243.203 253.582C243.151 254.905 243.884 254.872 245.513 254.799Z" fill="url(#paint20_linear)"/>
<path d="M245.513 269.282C247.143 269.208 250.923 269.83 250.993 268.044C251.033 267.009 250.753 266.728 249.301 266.339C247.849 265.95 243.26 266.612 243.203 268.065C243.151 269.388 243.884 269.355 245.513 269.282Z" fill="url(#paint21_linear)"/>
<path d="M259.372 254.799C261.002 254.725 264.783 255.347 264.852 253.561C264.893 252.526 264.612 252.245 263.16 251.856C261.709 251.467 257.119 252.129 257.062 253.582C257.011 254.905 257.743 254.872 259.372 254.799Z" fill="url(#paint22_linear)"/>
<path d="M272.592 254.799C274.222 254.725 278.002 255.347 278.072 253.561C278.113 252.526 277.832 252.245 276.38 251.856C274.928 251.467 270.339 252.129 270.282 253.582C270.23 254.905 270.963 254.872 272.592 254.799Z" fill="url(#paint23_linear)"/>
<path d="M272.592 269.282C274.222 269.208 278.002 269.83 278.072 268.044C278.113 267.009 277.832 266.728 276.38 266.339C274.928 265.95 270.339 266.612 270.282 268.065C270.23 269.388 270.963 269.355 272.592 269.282Z" fill="url(#paint24_linear)"/>
<path d="M286.448 254.799C288.077 254.725 291.858 255.347 291.928 253.561C291.968 252.526 291.688 252.245 290.236 251.856C288.784 251.467 284.194 252.129 284.138 253.582C284.086 254.905 284.818 254.872 286.448 254.799Z" fill="url(#paint25_linear)"/>
<path d="M286.448 269.282C288.077 269.208 291.858 269.83 291.928 268.044C291.968 267.009 291.688 266.728 290.236 266.339C288.784 265.95 284.194 266.612 284.138 268.065C284.086 269.388 284.818 269.355 286.448 269.282Z" fill="url(#paint26_linear)"/>
<path d="M190.731 254.799C192.36 254.725 196.141 255.347 196.211 253.561C196.251 252.526 195.971 252.245 194.519 251.856C193.067 251.467 188.478 252.129 188.421 253.582C188.369 254.905 189.101 254.872 190.731 254.799Z" fill="white"/>
<path d="M190.731 269.282C192.36 269.208 196.141 269.83 196.211 268.044C196.251 267.009 195.971 266.728 194.519 266.339C193.067 265.95 188.478 266.612 188.421 268.065C188.369 269.388 189.101 269.355 190.731 269.282Z" fill="white"/>
<path d="M204.585 254.799C206.215 254.725 209.996 255.347 210.065 253.561C210.106 252.526 209.825 252.245 208.373 251.856C206.921 251.467 202.332 252.129 202.275 253.582C202.224 254.905 202.956 254.872 204.585 254.799Z" fill="white"/>
<path d="M204.585 269.282C206.215 269.208 209.996 269.83 210.065 268.044C210.106 267.009 209.825 266.728 208.373 266.339C206.921 265.95 202.332 266.612 202.275 268.065C202.224 269.388 202.956 269.355 204.585 269.282Z" fill="white"/>
<path d="M217.812 254.799C219.441 254.725 223.222 255.347 223.292 253.561C223.332 252.526 223.052 252.245 221.6 251.856C220.148 251.467 215.559 252.129 215.502 253.582C215.45 254.905 216.182 254.872 217.812 254.799Z" fill="white"/>
<path d="M231.666 254.799C233.296 254.725 237.077 255.347 237.146 253.561C237.187 252.526 236.906 252.245 235.454 251.856C234.002 251.467 229.413 252.129 229.356 253.582C229.305 254.905 230.037 254.872 231.666 254.799Z" fill="white"/>
<path d="M245.513 254.799C247.143 254.725 250.923 255.347 250.993 253.561C251.033 252.526 250.753 252.245 249.301 251.856C247.849 251.467 243.26 252.129 243.203 253.582C243.151 254.905 243.884 254.872 245.513 254.799Z" fill="white"/>
<path d="M259.371 254.799C261.001 254.725 264.782 255.347 264.851 253.561C264.892 252.526 264.611 252.245 263.16 251.856C261.708 251.467 257.118 252.129 257.061 253.582C257.01 254.905 257.742 254.872 259.371 254.799Z" fill="white"/>
<path d="M272.591 254.799C274.221 254.725 278.001 255.347 278.071 253.561C278.112 252.526 277.831 252.245 276.379 251.856C274.927 251.467 270.338 252.129 270.281 253.582C270.23 254.905 270.962 254.872 272.591 254.799Z" fill="white"/>
<path d="M272.591 269.282C274.221 269.208 278.001 269.83 278.071 268.044C278.112 267.009 277.831 266.728 276.379 266.339C274.927 265.95 270.338 266.612 270.281 268.065C270.23 269.388 270.962 269.355 272.591 269.282Z" fill="white"/>
<path d="M286.449 254.799C288.078 254.725 291.859 255.347 291.929 253.561C291.969 252.526 291.689 252.245 290.237 251.856C288.785 251.467 284.195 252.129 284.139 253.582C284.087 254.905 284.819 254.872 286.449 254.799Z" fill="white"/>
<path d="M286.449 269.282C288.078 269.208 291.859 269.83 291.929 268.044C291.969 267.009 291.689 266.728 290.237 266.339C288.785 265.95 284.195 266.612 284.139 268.065C284.087 269.388 284.819 269.355 286.449 269.282Z" fill="white"/>
<g style="mix-blend-mode:multiply">
<mask id="path-72-inside-18" fill="white">
<rect x="200.645" y="245.305" width="10.9002" height="10.9002" rx="0.612848"/>
</mask>
<rect x="200.645" y="245.305" width="10.9002" height="10.9002" rx="0.612848" stroke="#1C2329" stroke-width="1.69484" stroke-dasharray="1.1 1.1" mask="url(#path-72-inside-18)"/>
</g>
<g style="mix-blend-mode:multiply">
<mask id="path-73-inside-19" fill="white">
<rect x="214.267" y="245.305" width="10.9002" height="10.9002" rx="0.612848"/>
</mask>
<rect x="214.267" y="245.305" width="10.9002" height="10.9002" rx="0.612848" stroke="#1C2329" stroke-width="1.69484" stroke-dasharray="1.1 1.1" mask="url(#path-73-inside-19)"/>
</g>
<g style="mix-blend-mode:multiply">
<mask id="path-74-inside-20" fill="white">
<rect x="227.89" y="245.305" width="10.9002" height="10.9002" rx="0.612848"/>
</mask>
<rect x="227.89" y="245.305" width="10.9002" height="10.9002" rx="0.612848" stroke="#1C2329" stroke-width="1.69484" stroke-dasharray="1.1 1.1" mask="url(#path-74-inside-20)"/>
</g>
<g style="mix-blend-mode:multiply">
<mask id="path-75-inside-21" fill="white">
<rect x="241.517" y="245.305" width="10.9002" height="10.9002" rx="0.612848"/>
</mask>
<rect x="241.517" y="245.305" width="10.9002" height="10.9002" rx="0.612848" stroke="#1C2329" stroke-width="1.69484" stroke-dasharray="1.1 1.1" mask="url(#path-75-inside-21)"/>
</g>
<g style="mix-blend-mode:multiply">
<mask id="path-76-inside-22" fill="white">
<rect x="255.147" y="245.305" width="10.9002" height="10.9002" rx="0.612848"/>
</mask>
<rect x="255.147" y="245.305" width="10.9002" height="10.9002" rx="0.612848" stroke="#1C2329" stroke-width="1.69484" stroke-dasharray="1.1 1.1" mask="url(#path-76-inside-22)"/>
</g>
<g style="mix-blend-mode:multiply">
<mask id="path-77-inside-23" fill="white">
<rect x="268.773" y="245.305" width="10.9002" height="10.9002" rx="0.612848"/>
</mask>
<rect x="268.773" y="245.305" width="10.9002" height="10.9002" rx="0.612848" stroke="#1C2329" stroke-width="1.69484" stroke-dasharray="1.1 1.1" mask="url(#path-77-inside-23)"/>
</g>
<g style="mix-blend-mode:multiply">
<mask id="path-78-inside-24" fill="white">
<rect x="282.393" y="245.305" width="10.9002" height="10.9002" rx="0.612848"/>
</mask>
<rect x="282.393" y="245.305" width="10.9002" height="10.9002" rx="0.612848" stroke="#1C2329" stroke-width="1.69484" stroke-dasharray="1.1 1.1" mask="url(#path-78-inside-24)"/>
</g>
<path d="M247.881 308.892C246.536 308.892 245.445 307.802 245.445 306.456C245.445 305.111 246.536 304.02 247.881 304.02C249.226 304.02 250.317 305.111 250.317 306.456C250.317 307.802 249.226 308.892 247.881 308.892Z" fill="white"/>
<path d="M247.881 308.892C246.536 308.892 245.445 307.802 245.445 306.456C245.445 305.111 246.536 304.02 247.881 304.02C249.226 304.02 250.317 305.111 250.317 306.456C250.317 307.802 249.226 308.892 247.881 308.892ZM247.881 308.892L251.23 314.982M247.881 308.892L243.923 314.982M247.881 308.892L236.311 314.982M247.881 308.892L228.698 314.982" stroke="#1C2329" stroke-width="0.566452"/>
<path d="M240.271 308.892C238.925 308.892 237.835 307.802 237.835 306.456C237.835 305.111 238.925 304.02 240.271 304.02C241.616 304.02 242.707 305.111 242.707 306.456C242.707 307.802 241.616 308.892 240.271 308.892Z" fill="white"/>
<path d="M240.271 308.892C238.925 308.892 237.835 307.802 237.835 306.456C237.835 305.111 238.925 304.02 240.271 304.02C241.616 304.02 242.707 305.111 242.707 306.456C242.707 307.802 241.616 308.892 240.271 308.892ZM240.271 308.892L251.08 314.83M240.271 308.892L243.925 314.83M240.271 308.892L236.465 314.83M240.271 308.892L228.7 314.83" stroke="#1C2329" stroke-width="0.566452"/>
<path d="M232.648 308.892C231.303 308.892 230.212 307.802 230.212 306.456C230.212 305.111 231.303 304.02 232.648 304.02C233.993 304.02 235.084 305.111 235.084 306.456C235.084 307.802 233.993 308.892 232.648 308.892Z" fill="white"/>
<path d="M232.648 308.892C231.303 308.892 230.212 307.802 230.212 306.456C230.212 305.111 231.303 304.02 232.648 304.02C233.993 304.02 235.084 305.111 235.084 306.456C235.084 307.802 233.993 308.892 232.648 308.892ZM232.648 308.892L251.374 314.982M232.648 308.892L243.914 314.982M232.648 308.892L236.606 314.982M232.648 308.892L228.69 314.982" stroke="#1C2329" stroke-width="0.566452"/>
<path d="M240.264 336.904C238.919 336.904 237.828 337.995 237.828 339.34C237.828 340.685 238.919 341.776 240.264 341.776C241.61 341.776 242.7 340.685 242.7 339.34C242.7 337.995 241.61 336.904 240.264 336.904Z" fill="white" stroke="#1C2329" stroke-width="0.566452"/>
<path d="M251.685 319.853C250.34 319.853 249.249 318.763 249.249 317.417C249.249 316.072 250.34 314.981 251.685 314.981C253.031 314.981 254.121 316.072 254.121 317.417C254.121 318.763 253.031 319.853 251.685 319.853Z" fill="white"/>
<path d="M251.685 319.853C250.34 319.853 249.249 318.763 249.249 317.417C249.249 316.072 250.34 314.981 251.685 314.981C253.031 314.981 254.121 316.072 254.121 317.417C254.121 318.763 253.031 319.853 251.685 319.853ZM251.685 319.853L251.685 325.943M251.685 319.853L243.921 325.943M251.685 319.853L236.156 325.943M251.685 319.853L228.392 325.943" stroke="#1C2329" stroke-width="0.566452"/>
<path d="M244.065 319.853C242.719 319.853 241.629 318.763 241.629 317.417C241.629 316.072 242.719 314.981 244.065 314.981C245.41 314.981 246.5 316.072 246.5 317.417C246.5 318.763 245.41 319.853 244.065 319.853Z" fill="white"/>
<path d="M244.065 319.853C242.719 319.853 241.629 318.763 241.629 317.417C241.629 316.072 242.719 314.981 244.065 314.981C245.41 314.981 246.5 316.072 246.5 317.417C246.5 318.763 245.41 319.853 244.065 319.853ZM244.065 319.853L251.677 325.791M244.065 319.853L244.065 325.791M244.065 319.853L236.3 325.791M244.065 319.853L228.384 326.095" stroke="#1C2329" stroke-width="0.566452"/>
<path d="M236.452 319.853C235.107 319.853 234.017 318.763 234.017 317.417C234.017 316.072 235.107 314.981 236.452 314.981C237.798 314.981 238.888 316.072 238.888 317.417C238.888 318.763 237.798 319.853 236.452 319.853Z" fill="white"/>
<path d="M236.452 319.853C235.107 319.853 234.017 318.763 234.017 317.417C234.017 316.072 235.107 314.981 236.452 314.981C237.798 314.981 238.888 316.072 238.888 317.417C238.888 318.763 237.798 319.853 236.452 319.853ZM236.452 319.853L251.677 325.943M236.452 319.853L244.065 325.943M236.452 319.853L236.452 325.943M236.452 319.853L228.688 325.943" stroke="#1C2329" stroke-width="0.566452"/>
<path d="M228.848 319.853C227.503 319.853 226.412 318.763 226.412 317.417C226.412 316.072 227.503 314.981 228.848 314.981C230.193 314.981 231.284 316.072 231.284 317.417C231.284 318.763 230.193 319.853 228.848 319.853Z" fill="white"/>
<path d="M228.848 319.853C227.503 319.853 226.412 318.763 226.412 317.417C226.412 316.072 227.503 314.981 228.848 314.981C230.193 314.981 231.284 316.072 231.284 317.417C231.284 318.763 230.193 319.853 228.848 319.853ZM228.848 319.853L251.532 325.943M228.848 319.853L244.072 325.943M228.848 319.853L236.46 325.943M228.848 319.853L228.848 325.943" stroke="#1C2329" stroke-width="0.566452"/>
<path d="M251.685 325.943C250.34 325.943 249.249 327.034 249.249 328.379C249.249 329.724 250.34 330.815 251.685 330.815C253.031 330.815 254.121 329.724 254.121 328.379C254.121 327.034 253.031 325.943 251.685 325.943Z" fill="white"/>
<path d="M251.685 330.815C250.34 330.815 249.249 329.724 249.249 328.379C249.249 327.034 250.34 325.943 251.685 325.943C253.031 325.943 254.121 327.034 254.121 328.379C254.121 329.724 253.031 330.815 251.685 330.815ZM251.685 330.815L240.115 336.905" stroke="#1C2329" stroke-width="0.566452"/>
<path d="M244.071 325.943C242.726 325.943 241.635 327.034 241.635 328.379C241.635 329.724 242.726 330.815 244.071 330.815C245.416 330.815 246.507 329.724 246.507 328.379C246.507 327.034 245.416 325.943 244.071 325.943Z" fill="white"/>
<path d="M244.071 330.815C242.726 330.815 241.635 329.724 241.635 328.379C241.635 327.034 242.726 325.943 244.071 325.943C245.416 325.943 246.507 327.034 246.507 328.379C246.507 329.724 245.416 330.815 244.071 330.815ZM244.071 330.815L240.113 336.905" stroke="#1C2329" stroke-width="0.566452"/>
<path d="M236.462 325.943C235.117 325.943 234.026 327.034 234.026 328.379C234.026 329.724 235.117 330.815 236.462 330.815C237.808 330.815 238.898 329.724 238.898 328.379C238.898 327.034 237.808 325.943 236.462 325.943Z" fill="white"/>
<path d="M236.462 330.815C235.117 330.815 234.026 329.724 234.026 328.379C234.026 327.034 235.117 325.943 236.462 325.943C237.808 325.943 238.898 327.034 238.898 328.379C238.898 329.724 237.808 330.815 236.462 330.815ZM236.462 330.815L240.116 336.752" stroke="#1C2329" stroke-width="0.566452"/>
<path d="M228.849 325.943C227.504 325.943 226.413 327.034 226.413 328.379C226.413 329.724 227.504 330.815 228.849 330.815C230.195 330.815 231.285 329.724 231.285 328.379C231.285 327.034 230.195 325.943 228.849 325.943Z" fill="white"/>
<path d="M228.849 330.815C227.504 330.815 226.413 329.724 226.413 328.379C226.413 327.034 227.504 325.943 228.849 325.943C230.195 325.943 231.285 327.034 231.285 328.379C231.285 329.724 230.195 330.815 228.849 330.815ZM228.849 330.815L240.268 336.752" stroke="#1C2329" stroke-width="0.566452"/>
<rect x="222.538" y="253.758" width="34.8311" height="34.8311" rx="1.3592" fill="white" stroke="#1C2329" stroke-width="0.849679"/>
<rect x="225.936" y="257.156" width="28.0347" height="28.0347" rx="1.3592" fill="white" stroke="#1C2329" stroke-width="0.849679" stroke-dasharray="1.51 1.51"/>
<rect x="265.287" y="373.856" width="21.474" height="42.2793" rx="2.04352" stroke="#1C2329" stroke-width="0.849679"/>
<path d="M193.906 368.457C193.906 367.959 194.31 367.555 194.809 367.555H259.981C260.48 367.555 260.884 367.959 260.884 368.457V406.638V415.506C260.884 416.005 260.48 416.409 259.981 416.409H194.809C194.31 416.409 193.906 416.005 193.906 415.506V406.638V368.457Z" stroke="#1C2329" stroke-width="0.849679"/>
<path d="M199.064 372.68C199.064 372.182 199.469 371.778 199.967 371.778H254.835C255.334 371.778 255.738 372.182 255.738 372.68V404.065V411.234C255.738 411.732 255.334 412.136 254.835 412.136H199.967C199.469 412.136 199.064 411.732 199.064 411.234V404.065V372.68Z" stroke="#1C2329" stroke-width="0.849679"/>
<path d="M251.289 -5.35205L246.811 -5.35205C246.472 -5.35205 246.198 -5.07767 246.198 -4.7392L246.198 28.8238C246.198 29.1623 246.472 29.4367 246.811 29.4367L294.646 29.4367C294.984 29.4367 295.259 29.1623 295.259 28.8238L295.259 -4.7392C295.259 -5.07767 294.984 -5.35205 294.646 -5.35205L254.197 -5.35205" stroke="#1C2329" stroke-width="0.849679" stroke-miterlimit="10"/>
<path d="M247.09 128.265V163.519C247.09 163.857 246.815 164.131 246.477 164.131H233.43C233.092 164.131 232.817 163.857 232.817 163.519V116.575C232.817 116.237 233.092 115.962 233.43 115.962H246.477C246.815 115.962 247.09 116.237 247.09 116.575V126.421" fill="white"/>
<path d="M247.09 128.265V163.519C247.09 163.857 246.815 164.131 246.477 164.131H233.43C233.092 164.131 232.817 163.857 232.817 163.519V116.575C232.817 116.237 233.092 115.962 233.43 115.962H246.477C246.815 115.962 247.09 116.237 247.09 116.575V126.421" stroke="#1C2329" stroke-width="0.849679" stroke-miterlimit="10"/>
<path d="M179.296 39.2489C179.296 38.2636 180.095 37.4649 181.08 37.4649H298.826C299.812 37.4649 300.61 38.2636 300.61 39.2489V106.037C300.61 106.323 300.542 106.604 300.41 106.858L293.415 120.352C293.108 120.943 292.497 121.315 291.831 121.315H188.068C187.401 121.315 186.79 120.943 186.484 120.351L179.496 106.858C179.364 106.604 179.296 106.323 179.296 106.037V39.2489Z" fill="white" stroke="#1C2329" stroke-width="0.849679" stroke-miterlimit="10"/>
<path d="M185.073 44.3218C185.073 44.218 185.157 44.1338 185.261 44.1338H250.658H294.646C294.75 44.1338 294.834 44.218 294.834 44.3218V100.185C294.834 100.289 294.75 100.373 294.646 100.373H250.658H185.261C185.157 100.373 185.073 100.289 185.073 100.185V44.3218Z" stroke="#1C2329" stroke-width="0.849679"/>
<path d="M191.523 -5.35205L187.045 -5.35205C186.707 -5.35205 186.432 -5.07767 186.432 -4.7392L186.432 28.8238C186.432 29.1623 186.707 29.4367 187.045 29.4367L210.963 29.4367L234.88 29.4367C235.219 29.4367 235.493 29.1623 235.493 28.8238L235.493 -4.7392C235.493 -5.07767 235.219 -5.35205 234.88 -5.35205L194.431 -5.35205" stroke="#1C2329" stroke-width="0.849679" stroke-miterlimit="10"/>
<g style="mix-blend-mode:multiply">
<mask id="path-113-inside-25" fill="white">
<rect x="195.924" y="105.473" width="10.9002" height="10.9002" rx="0.612848"/>
</mask>
<rect x="195.924" y="105.473" width="10.9002" height="10.9002" rx="0.612848" stroke="#1C2329" stroke-width="1.69936" stroke-dasharray="1.1 1.1" mask="url(#path-113-inside-25)"/>
</g>
<g style="mix-blend-mode:multiply">
<mask id="path-114-inside-26" fill="white">
<rect x="247.097" y="105.743" width="10.9002" height="10.9002" rx="0.612848"/>
</mask>
<rect x="247.097" y="105.743" width="10.9002" height="10.9002" rx="0.612848" stroke="#1C2329" stroke-width="1.69936" stroke-dasharray="1.1 1.1" mask="url(#path-114-inside-26)"/>
</g>
<path d="M254.326 203.38L181.08 203.38C180.095 203.38 179.296 202.582 179.296 201.596L179.296 133.803C179.296 132.818 180.095 132.019 181.08 132.019L298.826 132.019C299.812 132.019 300.61 132.818 300.61 133.803L300.61 201.596C300.61 202.582 299.812 203.38 298.826 203.38L261.262 203.38" fill="white"/>
<path d="M254.326 203.38L181.08 203.38C180.095 203.38 179.296 202.582 179.296 201.596L179.296 133.803C179.296 132.818 180.095 132.019 181.08 132.019L298.826 132.019C299.812 132.019 300.61 132.818 300.61 133.803L300.61 201.596C300.61 202.582 299.812 203.38 298.826 203.38L261.262 203.38" stroke="#1C2329" stroke-width="0.849679" stroke-miterlimit="10"/>
<path d="M189.108 143.615H266.714" stroke="#1C2329" stroke-width="0.849679" stroke-miterlimit="10" stroke-linecap="round"/>
<path d="M189.108 152.535H272.958" stroke="#1C2329" stroke-width="0.849679" stroke-miterlimit="10" stroke-linecap="round"/>
<path d="M188.693 162.861L289.755 162.861" stroke="#1C2329" stroke-width="0.849679" stroke-miterlimit="10" stroke-linecap="round"/>
<path d="M188.693 173.093L289.755 173.093" stroke="#1C2329" stroke-width="0.849679" stroke-miterlimit="10" stroke-linecap="round"/>
<path d="M188.693 183.328L289.755 183.328" stroke="#1C2329" stroke-width="0.849679" stroke-miterlimit="10" stroke-linecap="round"/>
<path d="M188.693 193.562L289.755 193.562" stroke="#1C2329" stroke-width="0.849679" stroke-miterlimit="10" stroke-linecap="round"/>
<path d="M288.469 142.004H257.767C257.06 142.004 256.487 142.577 256.487 143.284C256.487 143.99 257.06 144.563 257.767 144.563H288.469C289.175 144.563 289.748 143.99 289.748 143.284C289.748 142.577 289.175 142.004 288.469 142.004Z" stroke="#1C2329" stroke-width="0.849679" stroke-miterlimit="10"/>
<path d="M288.467 151.346H271.837C271.13 151.346 270.558 151.919 270.558 152.625C270.558 153.332 271.13 153.905 271.837 153.905H288.467C289.174 153.905 289.746 153.332 289.746 152.625C289.746 151.919 289.174 151.346 288.467 151.346Z" stroke="#1C2329" stroke-width="0.849679" stroke-miterlimit="10"/>
<path d="M279.523 160.302H260.334C259.627 160.302 259.055 160.875 259.055 161.581C259.055 162.288 259.627 162.861 260.334 162.861H279.523C280.229 162.861 280.802 162.288 280.802 161.581C280.802 160.875 280.229 160.302 279.523 160.302Z" fill="white" stroke="#1C2329" stroke-width="0.849679" stroke-miterlimit="10"/>
<path d="M285.915 171.815H274.401C273.695 171.815 273.122 172.387 273.122 173.094C273.122 173.8 273.695 174.373 274.401 174.373H285.915C286.621 174.373 287.194 173.8 287.194 173.094C287.194 172.387 286.621 171.815 285.915 171.815Z" fill="white" stroke="#1C2329" stroke-width="0.849679" stroke-miterlimit="10"/>
<path d="M288.469 192.283H257.767C257.06 192.283 256.487 192.856 256.487 193.562C256.487 194.269 257.06 194.842 257.767 194.842H288.469C289.175 194.842 289.748 194.269 289.748 193.562C289.748 192.856 289.175 192.283 288.469 192.283Z" fill="white" stroke="#1C2329" stroke-width="0.849679" stroke-miterlimit="10"/>
<circle cx="239.96" cy="167.707" r="30.8028" fill="white" stroke="#1C2329" stroke-width="0.849679"/>
<circle cx="239.737" cy="167.477" r="26.7734" fill="white" stroke="#1C2329" stroke-width="0.849679" stroke-dasharray="1.1 1.1"/>
<circle cx="240.178" cy="162.072" r="3.31718" fill="white" stroke="#1C2329" stroke-width="0.849679"/>
<mask id="path-131-inside-27" fill="white">
<path d="M240.177 167.966C236.457 167.966 233.441 171.702 233.441 176.311H246.913C246.913 171.702 243.897 167.966 240.177 167.966Z"/>
</mask>
<path d="M233.441 176.311H232.592V177.161H233.441V176.311ZM246.913 176.311V177.161H247.762V176.311H246.913ZM234.291 176.311C234.291 171.993 237.087 168.816 240.177 168.816V167.117C235.827 167.117 232.592 171.412 232.592 176.311H234.291ZM240.177 168.816C243.267 168.816 246.063 171.993 246.063 176.311H247.762C247.762 171.412 244.527 167.117 240.177 167.117V168.816ZM246.913 175.461H233.441V177.161H246.913V175.461Z" fill="#1C2329" mask="url(#path-131-inside-27)"/>
<path d="M269.601 14.6663C268.842 15.2263 266.83 16.0389 267.361 17.1582C267.668 17.8066 267.892 17.8908 268.712 17.671C269.532 17.4512 271.527 15.5945 271.095 14.6838C270.702 13.8545 270.36 14.1062 269.601 14.6663Z" fill="url(#paint27_linear)"/>
<path d="M269.601 14.6663C268.842 15.2263 266.83 16.0389 267.361 17.1582C267.668 17.8066 267.892 17.8908 268.712 17.671C269.532 17.4512 271.527 15.5945 271.095 14.6838C270.702 13.8545 270.36 14.1062 269.601 14.6663Z" fill="white"/>
<path d="M261.185 -0.891984L259.21 -0.891984C258.92 -0.891984 258.686 -0.657571 258.686 -0.368408L258.686 22.6689C258.686 22.9581 258.92 23.1925 259.21 23.1925L282.247 23.1925C282.536 23.1925 282.771 22.9581 282.771 22.669L282.771 -0.368407C282.771 -0.65757 282.536 -0.891983 282.247 -0.891983L262.613 -0.891983" stroke="#1C2329" stroke-width="0.606573" stroke-miterlimit="10" stroke-dasharray="0.73 0.73"/>
<path d="M264.038 18.1177C264.038 18.1177 263.301 16.1103 263.637 14.1754M277.697 4.45797C277.697 4.45797 278.393 6.35202 278.124 8.23383M264.721 11.9708L266.948 14.1984M264.721 11.9708C264.094 12.5971 263.775 13.3802 263.637 14.1754M264.721 11.9708C265.347 11.3445 266.13 11.0251 266.925 10.887M277.014 10.6048L274.787 8.37726M277.014 10.6048C277.684 9.93487 278.003 9.0856 278.124 8.23383M277.014 10.6048C276.344 11.2748 275.495 11.5936 274.643 11.715M278.124 8.23383L276.739 6.84842M274.643 11.715C272.762 11.9831 270.867 11.2878 270.867 11.2878C270.867 11.2878 268.86 10.5509 266.925 10.887M274.643 11.715L273.258 10.3295M263.637 14.1754L264.932 15.4711M266.925 10.887L268.221 12.1826" stroke="#1C2329" stroke-width="0.532173" stroke-linecap="round"/>
<path d="M270.184 17.4344L267.957 15.2068M270.184 17.4344C269.558 18.0607 268.775 18.3801 267.98 18.5182L266.833 17.3712M270.184 17.4344C270.811 16.8081 271.13 16.0251 271.268 15.2298M271.55 5.14066L273.778 7.36824M271.55 5.14066C272.22 4.47068 273.069 4.15192 273.921 4.03054L275.202 5.31151M271.55 5.14066C270.88 5.81063 270.561 6.6599 270.44 7.51167M270.44 7.51167C270.172 9.39348 270.867 11.2875 270.867 11.2875C270.867 11.2875 271.604 13.2949 271.268 15.2298M270.44 7.51167L271.721 8.79264M271.268 15.2298L270.121 14.0827" stroke="#1C2329" stroke-width="0.532173" stroke-linecap="round"/>
<path d="M201.421 -0.891984L199.426 -0.891984C199.147 -0.891984 198.921 -0.666253 198.921 -0.387799L198.921 22.6883C198.921 22.9668 199.147 23.1925 199.426 23.1925L222.502 23.1925C222.78 23.1925 223.006 22.9668 223.006 22.6883L223.006 -0.387799C223.006 -0.666252 222.78 -0.891983 222.502 -0.891983L203.11 -0.891983" stroke="#1C2329" stroke-width="0.606573" stroke-miterlimit="10" stroke-dasharray="0.73 0.73"/>
<rect x="203.111" y="15.1583" width="16.7748" height="6.17907" transform="rotate(-45 203.111 15.1583)" stroke="#1C2329" stroke-width="0.512463" stroke-linejoin="round"/>
<path d="M211.967 14.0936C213.274 12.7867 216.881 10.2802 215.643 9.04146C214.925 8.32379 214.487 8.35373 212.992 9.21666C211.498 10.0796 208.147 14.062 209.155 15.0699C210.073 15.9877 210.66 15.4004 211.967 14.0936Z" fill="url(#paint28_linear)"/>
<path d="M211.967 14.0936C213.274 12.7867 216.881 10.2802 215.643 9.04146C214.925 8.32379 214.487 8.35373 212.992 9.21666C211.498 10.0796 208.147 14.062 209.155 15.0699C210.073 15.9877 210.66 15.4004 211.967 14.0936Z" fill="white"/>
<circle cx="211.261" cy="11.3795" r="1.98613" transform="rotate(-45 211.261 11.3795)" stroke="#1C2329" stroke-width="0.512463"/>
<g clip-path="url(#clip0)">
<path d="M192.887 56.2044C192.834 57.3598 192.301 60.0851 193.222 60.035C193.757 60.006 193.918 59.7909 194.201 58.7359C194.483 57.6809 194.396 54.4519 193.646 54.4926C192.963 54.5296 192.939 55.0489 192.887 56.2044Z" fill="white"/>
<path d="M192.306 56.3637V55.8615V55.3592V54.6469C192.306 54.4856 192.436 54.3547 192.598 54.3547H196.689C196.85 54.3547 196.981 54.4856 196.981 54.6469V55.3592V55.8615V56.3637M192.306 56.3637V57.3225M192.306 56.3637H194.643M196.981 56.3637V57.3225M196.981 56.3637H195.812M192.306 58.2814H196.981M192.306 58.2814V57.3225M192.306 58.2814V59.2402M196.981 58.2814V57.3225M196.981 58.2814V59.2402M192.306 57.3225H196.981M192.306 59.2402V59.9068C192.306 60.0682 192.436 60.199 192.598 60.199H196.689C196.85 60.199 196.981 60.0682 196.981 59.9068V59.2402M192.306 59.2402H194.643M196.981 59.2402H196.202H195.812M194.643 59.2402H195.423H195.812M194.643 59.2402V56.3637M194.643 56.3637H195.812M195.812 59.2402V56.3637" stroke="#1C2329" stroke-width="0.40656"/>
<path d="M192.889 55.0854H194.642M192.889 55.8159H194.642" stroke="#1C2329" stroke-width="0.40656" stroke-linecap="round"/>
</g>
<path d="M190.29 51.7372L189.413 51.7372C189.245 51.7372 189.109 51.8737 189.109 52.0421L189.109 62.8159C189.109 62.9843 189.245 63.1209 189.413 63.1209L200.187 63.1209C200.356 63.1209 200.492 62.9843 200.492 62.8159L200.492 52.0421C200.492 51.8737 200.356 51.7372 200.187 51.7372L190.965 51.7372" stroke="#1C2329" stroke-width="0.60984" stroke-miterlimit="10" stroke-dasharray="0.73 0.73"/>
<path d="M269.947 88.8994C270.315 89.1929 270.966 90.0575 271.437 89.6572C271.71 89.4253 271.721 89.3068 271.51 88.94C271.298 88.5731 270.146 87.8517 269.763 88.1774C269.414 88.4739 269.579 88.6059 269.947 88.8994Z" fill="white"/>
<path d="M265.853 85.376L267.35 83.8787L271.986 88.5141C272.399 88.9276 272.399 89.598 271.986 90.0114C271.572 90.4249 270.902 90.4249 270.488 90.0114L267.254 86.777L265.853 85.376Z" stroke="#1C2329" stroke-width="0.40656"/>
<path d="M265.448 85.566C265.363 85.4811 265.363 85.3434 265.448 85.2585L267.232 83.4738C267.317 83.3889 267.455 83.3889 267.54 83.4738L268.432 84.3661C268.517 84.451 268.517 84.5887 268.432 84.6736L266.647 86.4584C266.563 86.5433 266.425 86.5433 266.34 86.4584L265.448 85.566Z" fill="white" stroke="#1C2329" stroke-width="0.40656" stroke-linejoin="round"/>
<path d="M264.327 81.1738L263.451 81.1738C263.282 81.1738 263.146 81.3103 263.146 81.4787L263.146 92.2525C263.146 92.4209 263.282 92.5574 263.451 92.5574L274.224 92.5574C274.393 92.5574 274.529 92.4209 274.529 92.2525L274.529 81.4787C274.529 81.3103 274.393 81.1738 274.224 81.1738L265.002 81.1738" stroke="#1C2329" stroke-width="0.60984" stroke-miterlimit="10" stroke-dasharray="0.73 0.73"/>
<path d="M277.708 53.5212L276.831 53.5212C276.663 53.5212 276.526 53.6577 276.526 53.8261L276.526 64.5999C276.526 64.7683 276.663 64.9048 276.831 64.9048L287.605 64.9048C287.774 64.9048 287.91 64.7683 287.91 64.5999L287.91 53.8261C287.91 53.6577 287.774 53.5212 287.605 53.5212L278.383 53.5212" stroke="#1C2329" stroke-width="0.60984" stroke-miterlimit="10" stroke-dasharray="0.73 0.73"/>
<g clip-path="url(#clip1)">
<path d="M280.936 60.9542C282.066 60.9724 284.719 61.4648 284.702 60.4524C284.692 59.8659 284.487 59.6959 283.463 59.4214C282.438 59.1469 279.27 59.3542 279.284 60.1779C279.297 60.928 279.805 60.9361 280.936 60.9542Z" fill="white"/>
<path d="M279.405 60.1108C279.405 59.4372 279.951 58.8912 280.625 58.8912V58.8912C281.299 58.8912 281.845 59.4372 281.845 60.1108V60.9735C281.845 61.0023 281.821 61.0256 281.793 61.0256H279.457C279.429 61.0256 279.405 61.0023 279.405 60.9735V60.1108Z" stroke="#1C2329" stroke-width="0.40656"/>
<path d="M282.451 60.1108C282.451 59.4372 282.997 58.8912 283.671 58.8912V58.8912C284.344 58.8912 284.891 59.4372 284.891 60.1108V60.9735C284.891 61.0023 284.867 61.0256 284.838 61.0256H282.503C282.474 61.0256 282.451 61.0023 282.451 60.9735V60.1108Z" stroke="#1C2329" stroke-width="0.40656"/>
<circle cx="280.624" cy="57.6713" r="0.71148" stroke="#1C2329" stroke-width="0.40656"/>
<circle cx="283.676" cy="57.6713" r="0.71148" stroke="#1C2329" stroke-width="0.40656"/>
</g>
<path d="M235.396 88.8169C235.348 90.2571 234.7 93.6461 235.908 93.601C236.609 93.5749 236.817 93.3096 237.168 91.999C237.519 90.6884 237.344 86.6593 236.361 86.696C235.465 86.7294 235.444 87.3767 235.396 88.8169Z" fill="white"/>
<path d="M235.646 88.0879C235.477 88.0879 235.341 88.2244 235.341 88.3928C235.341 88.5612 235.477 88.6977 235.646 88.6977V88.0879ZM239.413 88.6977C239.581 88.6977 239.717 88.5612 239.717 88.3928C239.717 88.2244 239.581 88.0879 239.413 88.0879V88.6977ZM235.646 89.6125C235.477 89.6125 235.341 89.749 235.341 89.9174C235.341 90.0858 235.477 90.2223 235.646 90.2223V89.6125ZM239.413 90.2223C239.581 90.2223 239.717 90.0858 239.717 89.9174C239.717 89.749 239.581 89.6125 239.413 89.6125V90.2223ZM235.646 91.1371C235.477 91.1371 235.341 91.2736 235.341 91.442C235.341 91.6104 235.477 91.7469 235.646 91.7469V91.1371ZM239.413 91.7469C239.581 91.7469 239.717 91.6104 239.717 91.442C239.717 91.2736 239.581 91.1371 239.413 91.1371V91.7469ZM235.156 86.7375H240.082V86.1277H235.156V86.7375ZM240.184 86.8392V93.2007H240.794V86.8392H240.184ZM240.082 93.3023H235.156V93.9121H240.082V93.3023ZM235.054 93.2007V86.8392H234.444V93.2007H235.054ZM235.646 88.6977H239.413V88.0879H235.646V88.6977ZM235.646 90.2223H239.413V89.6125H235.646V90.2223ZM235.646 91.7469H239.413V91.1371H235.646V91.7469ZM235.156 93.3023C235.099 93.3023 235.054 93.2568 235.054 93.2007H234.444C234.444 93.5936 234.763 93.9121 235.156 93.9121V93.3023ZM240.184 93.2007C240.184 93.2568 240.138 93.3023 240.082 93.3023V93.9121C240.475 93.9121 240.794 93.5936 240.794 93.2007H240.184ZM240.082 86.7375C240.138 86.7375 240.184 86.7831 240.184 86.8392H240.794C240.794 86.4463 240.475 86.1277 240.082 86.1277V86.7375ZM235.156 86.1277C234.763 86.1277 234.444 86.4462 234.444 86.8392H235.054C235.054 86.7831 235.099 86.7375 235.156 86.7375V86.1277Z" fill="#1C2329"/>
<mask id="path-157-outside-28" maskUnits="userSpaceOnUse" x="235.186" y="84.4762" width="5" height="4" fill="black">
<rect fill="white" x="235.186" y="84.4762" width="5" height="4"/>
<path fill-rule="evenodd" clip-rule="evenodd" d="M238.095 86.0078C238.097 85.9903 238.098 85.9725 238.098 85.9545C238.098 85.6904 237.884 85.4762 237.62 85.4762C237.355 85.4762 237.141 85.6904 237.141 85.9545C237.141 85.9727 237.142 85.9906 237.144 86.0082C236.586 86.1391 236.186 86.4938 236.186 86.9108H239.055C239.055 86.4934 238.654 86.1384 238.095 86.0078Z"/>
</mask>
<path fill-rule="evenodd" clip-rule="evenodd" d="M238.095 86.0078C238.097 85.9903 238.098 85.9725 238.098 85.9545C238.098 85.6904 237.884 85.4762 237.62 85.4762C237.355 85.4762 237.141 85.6904 237.141 85.9545C237.141 85.9727 237.142 85.9906 237.144 86.0082C236.586 86.1391 236.186 86.4938 236.186 86.9108H239.055C239.055 86.4934 238.654 86.1384 238.095 86.0078Z" fill="white"/>
<path d="M238.095 86.0078L237.489 85.9406C237.455 86.2475 237.656 86.5314 237.956 86.6016L238.095 86.0078ZM237.144 86.0082L237.283 86.6019C237.584 86.5314 237.785 86.2474 237.75 85.9405L237.144 86.0082ZM236.186 86.9108H235.576C235.576 87.2477 235.849 87.5207 236.186 87.5207V86.9108ZM239.055 86.9108V87.5207C239.392 87.5207 239.665 87.2477 239.665 86.9108H239.055ZM237.488 85.9545C237.488 85.95 237.488 85.9454 237.489 85.9406L238.701 86.0749C238.705 86.0352 238.708 85.995 238.708 85.9545H237.488ZM237.62 86.086C237.547 86.086 237.488 86.0272 237.488 85.9545H238.708C238.708 85.3535 238.22 84.8664 237.62 84.8664V86.086ZM237.751 85.9545C237.751 86.0272 237.692 86.086 237.62 86.086V84.8664C237.019 84.8664 236.531 85.3535 236.531 85.9545H237.751ZM237.75 85.9405C237.751 85.9453 237.751 85.95 237.751 85.9545H236.531C236.531 85.9953 236.534 86.0358 236.538 86.0759L237.75 85.9405ZM237.005 85.4145C236.341 85.5702 235.576 86.067 235.576 86.9108H236.795C236.795 86.9105 236.793 86.8704 236.87 86.7999C236.948 86.7273 237.087 86.6481 237.283 86.6019L237.005 85.4145ZM236.186 87.5207H239.055V86.301H236.186V87.5207ZM239.665 86.9108C239.665 86.0661 238.899 85.5691 238.234 85.4139L237.956 86.6016C238.153 86.6477 238.292 86.727 238.371 86.7996C238.447 86.8703 238.446 86.9105 238.446 86.9108H239.665Z" fill="#1C2329" mask="url(#path-157-outside-28)"/>
<path d="M233.106 83.8498L232.23 83.8498C232.061 83.8498 231.925 83.9863 231.925 84.1547L231.925 94.9286C231.925 95.097 232.061 95.2335 232.23 95.2335L243.004 95.2335C243.172 95.2335 243.309 95.097 243.309 94.9286L243.309 84.1547C243.309 83.9863 243.172 83.8498 243.004 83.8498L233.781 83.8498" stroke="#1C2329" stroke-width="0.60984" stroke-miterlimit="10" stroke-dasharray="0.73 0.73"/>
<path d="M205.551 56.7033C205.504 58.1435 204.855 61.5326 206.064 61.4874C206.764 61.4613 206.972 61.196 207.323 59.8854C207.674 58.5748 207.499 54.5457 206.516 54.5824C205.62 54.6159 205.599 55.2631 205.551 56.7033Z" fill="white"/>
<path d="M206.209 67.5713C206.041 67.5713 205.904 67.7079 205.904 67.8763C205.904 68.0447 206.041 68.1812 206.209 68.1812V67.5713ZM209.976 68.1812C210.144 68.1812 210.281 68.0447 210.281 67.8763C210.281 67.7079 210.144 67.5713 209.976 67.5713V68.1812ZM206.209 69.0959C206.041 69.0959 205.904 69.2325 205.904 69.4009C205.904 69.5693 206.041 69.7058 206.209 69.7058V69.0959ZM209.976 69.7058C210.144 69.7058 210.281 69.5693 210.281 69.4009C210.281 69.2325 210.144 69.0959 209.976 69.0959V69.7058ZM206.209 70.6205C206.041 70.6205 205.904 70.7571 205.904 70.9255C205.904 71.0939 206.041 71.2304 206.209 71.2304V70.6205ZM209.976 71.2304C210.144 71.2304 210.281 71.0939 210.281 70.9255C210.281 70.7571 210.144 70.6205 209.976 70.6205V71.2304ZM205.719 66.221H210.646V65.6111H205.719V66.221ZM210.747 66.3226V72.6841H211.357V66.3226H210.747ZM210.646 72.7857H205.719V73.3956H210.646V72.7857ZM205.617 72.6841V66.3226H205.008V72.6841H205.617ZM206.209 68.1812H209.976V67.5713H206.209V68.1812ZM206.209 69.7058H209.976V69.0959H206.209V69.7058ZM206.209 71.2304H209.976V70.6205H206.209V71.2304ZM205.719 72.7857C205.663 72.7857 205.617 72.7402 205.617 72.6841H205.008C205.008 73.077 205.326 73.3956 205.719 73.3956V72.7857ZM210.747 72.6841C210.747 72.7402 210.702 72.7857 210.646 72.7857V73.3956C211.039 73.3956 211.357 73.077 211.357 72.6841H210.747ZM210.646 66.221C210.702 66.221 210.747 66.2665 210.747 66.3226H211.357C211.357 65.9297 211.039 65.6111 210.646 65.6111V66.221ZM205.719 65.6111C205.326 65.6111 205.008 65.9297 205.008 66.3226H205.617C205.617 66.2665 205.663 66.221 205.719 66.221V65.6111Z" fill="#1C2329"/>
<mask id="path-162-outside-29" maskUnits="userSpaceOnUse" x="205.749" y="63.9598" width="5" height="4" fill="black">
<rect fill="white" x="205.749" y="63.9598" width="5" height="4"/>
<path fill-rule="evenodd" clip-rule="evenodd" d="M208.659 65.4914C208.66 65.4739 208.661 65.4561 208.661 65.4381C208.661 65.174 208.447 64.9598 208.183 64.9598C207.919 64.9598 207.705 65.174 207.705 65.4381C207.705 65.4563 207.706 65.4742 207.708 65.4918C207.149 65.6227 206.749 65.9774 206.749 66.3945H209.619C209.619 65.977 209.218 65.622 208.659 65.4914Z"/>
</mask>
<path fill-rule="evenodd" clip-rule="evenodd" d="M208.659 65.4914C208.66 65.4739 208.661 65.4561 208.661 65.4381C208.661 65.174 208.447 64.9598 208.183 64.9598C207.919 64.9598 207.705 65.174 207.705 65.4381C207.705 65.4563 207.706 65.4742 207.708 65.4918C207.149 65.6227 206.749 65.9774 206.749 66.3945H209.619C209.619 65.977 209.218 65.622 208.659 65.4914Z" fill="white"/>
<path d="M208.659 65.4914L208.052 65.4242C208.018 65.7311 208.219 66.015 208.52 66.0853L208.659 65.4914ZM207.708 65.4918L207.847 66.0855C208.148 66.015 208.348 65.731 208.314 65.4241L207.708 65.4918ZM206.749 66.3945H206.139C206.139 66.7313 206.412 67.0043 206.749 67.0043V66.3945ZM209.619 66.3945V67.0043C209.956 67.0043 210.229 66.7313 210.229 66.3945H209.619ZM208.052 65.4381C208.052 65.4336 208.052 65.429 208.052 65.4242L209.265 65.5586C209.269 65.5188 209.271 65.4786 209.271 65.4381H208.052ZM208.183 65.5697C208.11 65.5697 208.052 65.5108 208.052 65.4381H209.271C209.271 64.8372 208.784 64.35 208.183 64.35V65.5697ZM208.315 65.4381C208.315 65.5108 208.256 65.5697 208.183 65.5697V64.35C207.582 64.35 207.095 64.8372 207.095 65.4381H208.315ZM208.314 65.4241C208.314 65.4289 208.315 65.4336 208.315 65.4381H207.095C207.095 65.4789 207.097 65.5194 207.102 65.5594L208.314 65.4241ZM207.569 64.898C206.904 65.0537 206.139 65.5506 206.139 66.3945H207.359C207.359 66.3941 207.357 66.354 207.433 66.2835C207.512 66.2109 207.65 66.1316 207.847 66.0855L207.569 64.898ZM206.749 67.0043H209.619V65.7846H206.749V67.0043ZM210.229 66.3945C210.229 65.5498 209.462 65.0528 208.797 64.8975L208.52 66.0853C208.717 66.1313 208.856 66.2106 208.935 66.2833C209.011 66.3539 209.009 66.3941 209.009 66.3945H210.229Z" fill="#1C2329" mask="url(#path-162-outside-29)"/>
<path d="M203.67 63.3334L202.793 63.3334C202.625 63.3334 202.488 63.4699 202.488 63.6383L202.488 74.4121C202.488 74.5805 202.625 74.717 202.793 74.717L213.567 74.717C213.736 74.717 213.872 74.5805 213.872 74.4121L213.872 63.6383C213.872 63.4699 213.736 63.3334 213.567 63.3334L204.344 63.3334" stroke="#1C2329" stroke-width="0.60984" stroke-miterlimit="10" stroke-dasharray="0.73 0.73"/>
<path d="M217.942 76.7137L217.066 76.7137C216.897 76.7137 216.761 76.8502 216.761 77.0186L216.761 87.7924C216.761 87.9608 216.897 88.0973 217.066 88.0973L227.84 88.0973C228.008 88.0973 228.145 87.9608 228.145 87.7924L228.145 77.0186C228.145 76.8502 228.008 76.7137 227.84 76.7137L218.617 76.7137" stroke="#1C2329" stroke-width="0.60984" stroke-miterlimit="10" stroke-dasharray="0.73 0.73"/>
<circle cx="223.269" cy="82.4058" r="1.21968" fill="white"/>
<circle cx="222.456" cy="82.4056" r="3.65904" stroke="#1C2329" stroke-width="0.5082"/>
<circle cx="222.458" cy="82.4057" r="1.21968" stroke="#1C2329" stroke-width="0.5082"/>
<path d="M224.692 82.4056C224.692 80.6167 222.117 79.4919 220.83 79.1531M224.692 82.4056C224.692 85.0482 221.236 85.2515 220.017 85.2515M224.692 82.4056C225.031 82.5411 225.708 83.0561 225.708 84.0318M224.692 82.4056C225.505 81.9177 225.437 80.7116 225.302 80.1695" stroke="#1C2329" stroke-width="0.5082"/>
<path d="M190.29 74.9296L189.413 74.9296C189.245 74.9296 189.109 75.0661 189.109 75.2345L189.109 86.0084C189.109 86.1768 189.245 86.3133 189.413 86.3133L200.187 86.3133C200.356 86.3133 200.492 86.1768 200.492 86.0084L200.492 75.2345C200.492 75.0661 200.356 74.9296 200.187 74.9296L190.965 74.9296" stroke="#1C2329" stroke-width="0.60984" stroke-miterlimit="10" stroke-dasharray="0.73 0.73"/>
<path d="M193.587 78.6238C192.925 78.6375 192.701 79.6576 192.408 80.1647C192.398 80.4574 192.704 81.428 193.751 81.5603C193.983 81.5896 194.251 81.5778 194.536 81.5419C195.491 81.4212 195.944 79.7442 195.142 79.2118C194.616 78.8623 193.963 78.6933 193.743 78.6433C193.692 78.6316 193.64 78.6228 193.587 78.6238Z" fill="white"/>
<circle cx="194.804" cy="80.6215" r="3.65904" stroke="#1C2329" stroke-width="0.5082"/>
<path d="M191.145 80.7232C191.327 80.3074 191.602 79.8084 192.059 79.8084C192.517 79.8084 192.716 80.2524 192.974 80.7232C193.217 81.1663 193.431 81.638 193.889 81.638C194.346 81.638 194.621 81.139 194.804 80.7232C194.987 80.3074 195.261 79.8084 195.718 79.8084C196.176 79.8084 196.375 80.2524 196.633 80.7232C196.876 81.1663 197.09 81.638 197.548 81.638C198.005 81.638 198.28 81.139 198.463 80.7232" stroke="#1C2329" stroke-width="0.5082"/>
<path d="M203.67 82.9578L202.793 82.9578C202.625 82.9578 202.488 83.0943 202.488 83.2627L202.488 94.0365C202.488 94.2049 202.625 94.3415 202.793 94.3415L213.567 94.3415C213.736 94.3415 213.872 94.2049 213.872 94.0365L213.872 83.2627C213.872 83.0943 213.736 82.9578 213.567 82.9578L204.344 82.9578" stroke="#1C2329" stroke-width="0.60984" stroke-miterlimit="10" stroke-dasharray="0.73 0.73"/>
<path d="M210.148 87.6997C210.446 87.3728 211.28 86.9598 210.97 86.1682C210.79 85.7096 210.686 85.6378 210.338 85.7309C209.991 85.824 209.235 86.9431 209.487 87.5872C209.717 88.1736 209.851 88.0267 210.148 87.6997Z" fill="white"/>
<path d="M210.148 91.7652C210.446 91.4383 211.28 91.0253 210.97 90.2337C210.79 89.7751 210.686 89.7033 210.338 89.7964C209.991 89.8895 209.235 91.0086 209.487 91.6527C209.717 92.2391 209.851 92.0922 210.148 91.7652Z" fill="white"/>
<path d="M205.798 91.7652C206.095 91.4383 206.929 91.0253 206.619 90.2337C206.439 89.7751 206.335 89.7033 205.988 89.7964C205.64 89.8895 204.884 91.0086 205.137 91.6527C205.366 92.2391 205.5 92.0922 205.798 91.7652Z" fill="white"/>
<path d="M205.798 87.6997C206.095 87.3728 206.929 86.9598 206.619 86.1682C206.439 85.7096 206.335 85.6378 205.988 85.7309C205.64 85.824 204.884 86.9431 205.137 87.5872C205.366 88.1736 205.5 88.0267 205.798 87.6997Z" fill="white"/>
<path d="M204.32 88.6497V92.512H208.183M204.32 88.6497V84.7874H208.183M204.32 88.6497H212.045M212.045 88.6497V84.7874H208.183M212.045 88.6497V92.512H208.183M208.183 84.7874V92.512" stroke="#1C2329" stroke-width="0.5082" stroke-linejoin="round"/>
<path d="M206.727 86.2452C207.044 86.5627 207.044 87.0776 206.727 87.3951C206.409 87.7126 205.895 87.7126 205.577 87.3951C205.259 87.0776 205.259 86.5627 205.577 86.2452C205.895 85.9276 206.409 85.9276 206.727 86.2452Z" stroke="#1C2329" stroke-width="0.5082"/>
<path d="M210.79 86.2452C211.108 86.5627 211.108 87.0776 210.79 87.3951C210.473 87.7126 209.958 87.7126 209.641 87.3951C209.323 87.0776 209.323 86.5627 209.641 86.2452C209.958 85.9276 210.473 85.9276 210.79 86.2452Z" stroke="#1C2329" stroke-width="0.5082"/>
<path d="M210.79 90.1075C211.108 90.425 211.108 90.9398 210.79 91.2574C210.473 91.5749 209.958 91.5749 209.641 91.2574C209.323 90.9398 209.323 90.425 209.641 90.1075C209.958 89.7899 210.473 89.7899 210.79 90.1075Z" stroke="#1C2329" stroke-width="0.5082"/>
<path d="M206.727 90.1075C207.044 90.425 207.044 90.9398 206.727 91.2574C206.409 91.5749 205.895 91.5749 205.577 91.2574C205.259 90.9398 205.259 90.425 205.577 90.1075C205.895 89.7899 206.409 89.7899 206.727 90.1075Z" stroke="#1C2329" stroke-width="0.5082"/>
<path d="M232.215 64.2254L231.338 64.2254C231.17 64.2254 231.033 64.3619 231.033 64.5303L231.033 75.3041C231.033 75.4725 231.17 75.6091 231.338 75.6091L242.112 75.6091C242.28 75.6091 242.417 75.4725 242.417 75.3041L242.417 64.5303C242.417 64.3619 242.28 64.2254 242.112 64.2254L232.889 64.2254" stroke="#1C2329" stroke-width="0.60984" stroke-miterlimit="10" stroke-dasharray="0.73 0.73"/>
<g clip-path="url(#clip2)">
<path d="M239.218 72.087C239.375 71.7095 239.324 71.1719 238.846 70.3653C238.499 69.7786 238.157 69.2014 237.766 68.7964C237.255 68.2663 236.68 68.8688 236.837 69.5801L237.212 71.2781C237.407 72.1598 238.872 72.9171 239.218 72.087Z" fill="white"/>
<path d="M232.658 71.952C233.795 72.7713 235.201 73.2556 236.724 73.2556C238.246 73.2556 239.652 72.7713 240.789 71.952L236.724 66.5795L232.658 71.952Z" stroke="#1C2329" stroke-width="0.5082" stroke-linejoin="round"/>
<path d="M236.148 68.6842C236.512 68.7531 236.869 68.6609 237.143 68.4586L238.989 71.4776C237.969 72.0712 236.73 72.3149 235.472 72.0764L236.148 68.6842Z" stroke="#1C2329" stroke-width="0.5082" stroke-linejoin="round"/>
</g>
<path d="M217.942 55.3052L217.066 55.3052C216.897 55.3052 216.761 55.4417 216.761 55.6101L216.761 66.384C216.761 66.5524 216.897 66.6889 217.066 66.6889L227.84 66.6889C228.008 66.6889 228.145 66.5524 228.145 66.384L228.145 55.6101C228.145 55.4417 228.008 55.3052 227.84 55.3052L218.617 55.3052" stroke="#1C2329" stroke-width="0.60984" stroke-miterlimit="10" stroke-dasharray="0.73 0.73"/>
<path d="M226.015 60.9595C225.579 60.594 224.638 60.3406 222.692 60.3833C221.375 60.4122 220.079 60.4406 219.034 60.5992C218.083 60.7434 218.239 61.5919 219.184 61.733L224.345 62.5039C225.233 62.6366 226.699 61.5324 226.015 60.9595Z" fill="white"/>
<path d="M218.391 62.696C219.32 62.696 220.249 62.0164 220.249 62.0164L221.178 62.696C221.178 62.696 221.643 59.5248 221.643 57.9392C221.798 59.6758 221.875 64.0551 221.875 64.0551C221.875 64.0551 222.108 62.696 222.572 62.696C223.502 62.696 223.734 62.4695 223.966 62.243C224.199 62.0164 224.431 61.5634 224.896 61.5634C225.36 61.5634 225.593 62.696 226.522 62.696" stroke="#1C2329" stroke-width="0.5082" stroke-linecap="round" stroke-linejoin="round"/>
<path d="M258.083 47.277L257.105 47.277C256.992 47.277 256.901 47.368 256.901 47.4803L256.901 58.4574C256.901 58.5697 256.992 58.6607 257.105 58.6607L268.082 58.6607C268.194 58.6607 268.285 58.5697 268.285 58.4574L268.285 47.4803C268.285 47.368 268.194 47.277 268.082 47.277L258.758 47.277" stroke="#1C2329" stroke-width="0.60984" stroke-miterlimit="10" stroke-dasharray="0.73 0.73"/>
<circle cx="264.016" cy="54.3919" r="1.42296" fill="white"/>
<path d="M259.136 50.1233C259.136 49.7865 259.409 49.5135 259.746 49.5135H265.438C265.774 49.5135 266.047 49.7865 266.047 50.1233V51.8258V55.8151C266.047 56.1519 265.774 56.425 265.438 56.425H259.746C259.409 56.425 259.136 56.1519 259.136 55.8151V51.8258V50.1233Z" stroke="#1C2329" stroke-width="0.40656"/>
<circle cx="264.419" cy="54.7985" r="0.2541" fill="#1C2329" stroke="#1C2329" stroke-width="0.40656"/>
<path d="M280.384 73.1456L279.406 73.1456C279.293 73.1456 279.202 73.2366 279.202 73.3489L279.202 84.326C279.202 84.4382 279.293 84.5293 279.406 84.5293L290.383 84.5293C290.495 84.5293 290.586 84.4382 290.586 84.326L290.586 73.3489C290.586 73.2366 290.495 73.1456 290.383 73.1456L281.058 73.1456" stroke="#1C2329" stroke-width="0.60984" stroke-miterlimit="10" stroke-dasharray="0.73 0.73"/>
<path d="M285.228 80.3251C286.106 79.4472 288.53 77.7634 287.698 76.9313C287.215 76.4492 286.921 76.4693 285.917 77.049C284.913 77.6287 282.662 80.3039 283.339 80.981C283.956 81.5975 284.35 81.203 285.228 80.3251Z" fill="white"/>
<path d="M281.805 81.781C281.122 81.0984 281.122 79.9916 281.805 79.309L283.513 77.6012L285.221 75.8934C285.903 75.2108 287.01 75.2108 287.693 75.8934C288.375 76.5761 288.375 77.6828 287.693 78.3654L285.985 80.0732L284.277 81.781C283.594 82.4636 282.488 82.4636 281.805 81.781Z" stroke="#1C2329" stroke-width="0.40656"/>
<path d="M258.083 64.2254L257.105 64.2254C256.992 64.2254 256.901 64.3164 256.901 64.4287L256.901 75.4058C256.901 75.5181 256.992 75.6091 257.105 75.6091L268.082 75.6091C268.194 75.6091 268.285 75.5181 268.285 75.4058L268.285 64.4287C268.285 64.3164 268.194 64.2254 268.082 64.2254L258.758 64.2254" stroke="#1C2329" stroke-width="0.60984" stroke-miterlimit="10" stroke-dasharray="0.73 0.73"/>
<path d="M263.435 71.8457C264.169 70.9993 266.278 69.4579 265.397 68.4711C264.887 67.8993 264.611 67.8883 263.724 68.4001C262.838 68.9119 261.003 71.5383 261.719 72.3413C262.372 73.0725 262.702 72.6921 263.435 71.8457Z" fill="white"/>
<path d="M262.313 68.6615L261.894 68.1817C261.271 67.4689 260.175 67.4307 259.503 68.0982C258.998 68.6012 258.869 69.378 259.257 69.9768C259.484 70.3271 259.75 70.6948 260.012 70.9533C260.769 71.7006 262.313 72.9641 262.313 72.9641C262.313 72.9641 263.858 71.7006 264.615 70.9533C264.876 70.6948 265.143 70.3272 265.37 69.9768C265.758 69.378 265.629 68.6012 265.123 68.0982C264.452 67.4307 263.356 67.4689 262.733 68.1816L262.313 68.6615Z" stroke="#1C2329" stroke-width="0.40656"/>
</g>
<defs>
<radialGradient id="paint0_radial" cx="0" cy="0" r="1" gradientUnits="userSpaceOnUse" gradientTransform="translate(125.513 265.101) rotate(7.66681) scale(22.6824 16.0416)">
<stop stop-color="#5AEEFF" stop-opacity="0.3"/>
<stop offset="1" stop-color="#5AEEFF" stop-opacity="0"/>
</radialGradient>
<radialGradient id="paint1_radial" cx="0" cy="0" r="1" gradientUnits="userSpaceOnUse" gradientTransform="translate(109.086 275.044) rotate(159.169) scale(36.1995 39.1047)">
<stop offset="0.210643" stop-color="#0057FF" stop-opacity="0.1"/>
<stop offset="1" stop-color="white" stop-opacity="0"/>
</radialGradient>
<radialGradient id="paint2_radial" cx="0" cy="0" r="1" gradientUnits="userSpaceOnUse" gradientTransform="translate(118.272 260.995) rotate(-146.545) scale(34.4429)">
<stop offset="0.606926" stop-color="#5AEEFF" stop-opacity="0.1"/>
<stop offset="1" stop-color="white" stop-opacity="0"/>
</radialGradient>
<linearGradient id="paint3_linear" x1="136.31" y1="269.438" x2="101.102" y2="285.246" gradientUnits="userSpaceOnUse">
<stop offset="0.159308" stop-color="#248AE5"/>
<stop offset="0.536455" stop-color="#5AEEFF"/>
<stop offset="1" stop-color="#38E8A9"/>
</linearGradient>
<radialGradient id="paint4_radial" cx="0" cy="0" r="1" gradientUnits="userSpaceOnUse" gradientTransform="translate(395.049 311.123) rotate(7.66681) scale(45.7457 32.3526)">
<stop stop-color="#5AEEFF" stop-opacity="0.3"/>
<stop offset="1" stop-color="#5AEEFF" stop-opacity="0"/>
</radialGradient>
<radialGradient id="paint5_radial" cx="0" cy="0" r="1" gradientUnits="userSpaceOnUse" gradientTransform="translate(361.919 331.176) rotate(159.169) scale(73.0069 78.866)">
<stop offset="0.210643" stop-color="#0057FF" stop-opacity="0.1"/>
<stop offset="1" stop-color="white" stop-opacity="0"/>
</radialGradient>
<radialGradient id="paint6_radial" cx="0" cy="0" r="1" gradientUnits="userSpaceOnUse" gradientTransform="translate(380.446 302.84) rotate(-146.545) scale(69.4641)">
<stop offset="0.606926" stop-color="#5AEEFF" stop-opacity="0.1"/>
<stop offset="1" stop-color="white" stop-opacity="0"/>
</radialGradient>
<linearGradient id="paint7_linear" x1="414.727" y1="303.322" x2="383.455" y2="321.789" gradientUnits="userSpaceOnUse">
<stop offset="0.159308" stop-color="#248AE5"/>
<stop offset="0.536455" stop-color="#5AEEFF"/>
<stop offset="1" stop-color="#38E8A9"/>
</linearGradient>
<radialGradient id="paint8_radial" cx="0" cy="0" r="1" gradientUnits="userSpaceOnUse" gradientTransform="translate(414.674 85.4423) rotate(7.66681) scale(45.7457 32.3526)">
<stop stop-color="#5AEEFF" stop-opacity="0.3"/>
<stop offset="1" stop-color="#5AEEFF" stop-opacity="0"/>
</radialGradient>
<radialGradient id="paint9_radial" cx="0" cy="0" r="1" gradientUnits="userSpaceOnUse" gradientTransform="translate(381.544 105.495) rotate(159.169) scale(73.0069 78.866)">
<stop offset="0.210643" stop-color="#0057FF" stop-opacity="0.1"/>
<stop offset="1" stop-color="white" stop-opacity="0"/>
</radialGradient>
<radialGradient id="paint10_radial" cx="0" cy="0" r="1" gradientUnits="userSpaceOnUse" gradientTransform="translate(400.071 77.1596) rotate(-146.545) scale(69.4641)">
<stop offset="0.606926" stop-color="#5AEEFF" stop-opacity="0.1"/>
<stop offset="1" stop-color="white" stop-opacity="0"/>
</radialGradient>
<linearGradient id="paint11_linear" x1="421.865" y1="92.0822" x2="390.593" y2="110.549" gradientUnits="userSpaceOnUse">
<stop offset="0.159308" stop-color="#248AE5"/>
<stop offset="0.536455" stop-color="#5AEEFF"/>
<stop offset="1" stop-color="#38E8A9"/>
</linearGradient>
<linearGradient id="paint12_linear" x1="230.708" y1="311.831" x2="249.649" y2="311.831" gradientUnits="userSpaceOnUse">
<stop stop-color="#0057FF"/>
<stop offset="0.588542" stop-color="#5AEEFF"/>
<stop offset="1" stop-color="#DEFFDE"/>
</linearGradient>
<linearGradient id="paint13_linear" x1="184.894" y1="253.704" x2="198.263" y2="253.716" gradientUnits="userSpaceOnUse">
<stop offset="0.159308" stop-color="#248AE5"/>
<stop offset="0.536455" stop-color="#5AEEFF"/>
<stop offset="1" stop-color="#38E8A9"/>
</linearGradient>
<linearGradient id="paint14_linear" x1="184.894" y1="268.187" x2="198.263" y2="268.199" gradientUnits="userSpaceOnUse">
<stop offset="0.159308" stop-color="#248AE5"/>
<stop offset="0.536455" stop-color="#5AEEFF"/>
<stop offset="1" stop-color="#38E8A9"/>
</linearGradient>
<linearGradient id="paint15_linear" x1="198.75" y1="253.704" x2="212.118" y2="253.716" gradientUnits="userSpaceOnUse">
<stop offset="0.159308" stop-color="#248AE5"/>
<stop offset="0.536455" stop-color="#5AEEFF"/>
<stop offset="1" stop-color="#38E8A9"/>
</linearGradient>
<linearGradient id="paint16_linear" x1="198.75" y1="268.187" x2="212.118" y2="268.199" gradientUnits="userSpaceOnUse">
<stop offset="0.159308" stop-color="#248AE5"/>
<stop offset="0.536455" stop-color="#5AEEFF"/>
<stop offset="1" stop-color="#38E8A9"/>
</linearGradient>
<linearGradient id="paint17_linear" x1="211.973" y1="253.704" x2="225.342" y2="253.716" gradientUnits="userSpaceOnUse">
<stop offset="0.159308" stop-color="#248AE5"/>
<stop offset="0.536455" stop-color="#5AEEFF"/>
<stop offset="1" stop-color="#38E8A9"/>
</linearGradient>
<linearGradient id="paint18_linear" x1="225.829" y1="253.704" x2="239.197" y2="253.716" gradientUnits="userSpaceOnUse">
<stop offset="0.159308" stop-color="#248AE5"/>
<stop offset="0.536455" stop-color="#5AEEFF"/>
<stop offset="1" stop-color="#38E8A9"/>
</linearGradient>
<linearGradient id="paint19_linear" x1="225.829" y1="268.187" x2="239.197" y2="268.199" gradientUnits="userSpaceOnUse">
<stop offset="0.159308" stop-color="#248AE5"/>
<stop offset="0.536455" stop-color="#5AEEFF"/>
<stop offset="1" stop-color="#38E8A9"/>
</linearGradient>
<linearGradient id="paint20_linear" x1="239.676" y1="253.704" x2="253.045" y2="253.716" gradientUnits="userSpaceOnUse">
<stop offset="0.159308" stop-color="#248AE5"/>
<stop offset="0.536455" stop-color="#5AEEFF"/>
<stop offset="1" stop-color="#38E8A9"/>
</linearGradient>
<linearGradient id="paint21_linear" x1="239.676" y1="268.187" x2="253.045" y2="268.199" gradientUnits="userSpaceOnUse">
<stop offset="0.159308" stop-color="#248AE5"/>
<stop offset="0.536455" stop-color="#5AEEFF"/>
<stop offset="1" stop-color="#38E8A9"/>
</linearGradient>
<linearGradient id="paint22_linear" x1="253.536" y1="253.704" x2="266.904" y2="253.716" gradientUnits="userSpaceOnUse">
<stop offset="0.159308" stop-color="#248AE5"/>
<stop offset="0.536455" stop-color="#5AEEFF"/>
<stop offset="1" stop-color="#38E8A9"/>
</linearGradient>
<linearGradient id="paint23_linear" x1="266.755" y1="253.704" x2="280.124" y2="253.716" gradientUnits="userSpaceOnUse">
<stop offset="0.159308" stop-color="#248AE5"/>
<stop offset="0.536455" stop-color="#5AEEFF"/>
<stop offset="1" stop-color="#38E8A9"/>
</linearGradient>
<linearGradient id="paint24_linear" x1="266.755" y1="268.187" x2="280.124" y2="268.199" gradientUnits="userSpaceOnUse">
<stop offset="0.159308" stop-color="#248AE5"/>
<stop offset="0.536455" stop-color="#5AEEFF"/>
<stop offset="1" stop-color="#38E8A9"/>
</linearGradient>
<linearGradient id="paint25_linear" x1="280.611" y1="253.704" x2="293.98" y2="253.716" gradientUnits="userSpaceOnUse">
<stop offset="0.159308" stop-color="#248AE5"/>
<stop offset="0.536455" stop-color="#5AEEFF"/>
<stop offset="1" stop-color="#38E8A9"/>
</linearGradient>
<linearGradient id="paint26_linear" x1="280.611" y1="268.187" x2="293.98" y2="268.199" gradientUnits="userSpaceOnUse">
<stop offset="0.159308" stop-color="#248AE5"/>
<stop offset="0.536455" stop-color="#5AEEFF"/>
<stop offset="1" stop-color="#38E8A9"/>
</linearGradient>
<linearGradient id="paint27_linear" x1="270.987" y1="14.2432" x2="268.294" y2="18.2913" gradientUnits="userSpaceOnUse">
<stop stop-color="#14DDE0"/>
<stop offset="1" stop-color="#C9CDFF"/>
<stop offset="1" stop-color="#5967FA"/>
</linearGradient>
<linearGradient id="paint28_linear" x1="209.453" y1="15.6253" x2="210.549" y2="7.62889" gradientUnits="userSpaceOnUse">
<stop stop-color="#14DDE0"/>
<stop offset="1" stop-color="#C9CDFF"/>
<stop offset="1" stop-color="#5967FA"/>
</linearGradient>
<clipPath id="clip0">
<rect width="7.01316" height="7.01316" fill="white" transform="translate(191.137 53.7704)"/>
</clipPath>
<clipPath id="clip1">
<rect width="8.53775" height="8.53775" fill="white" transform="translate(277.746 55.1475)"/>
</clipPath>
<clipPath id="clip2">
<rect width="9.75744" height="9.75744" fill="white" transform="translate(231.845 65.0388)"/>
</clipPath>
</defs>
</svg>
