<svg width="101" height="102" viewBox="0 0 101 102" fill="none" xmlns="http://www.w3.org/2000/svg">
<path d="M58 26.5399V100.342C58 100.705 57.7054 101 57.3421 101H44.6579C44.2946 101 44 100.705 44 100.342V1.65792C44 1.29456 44.2946 1 44.6579 1H57.3421C57.7054 1 58 1.29456 58 1.65792V22.7127" fill="white"/>
<path d="M58 26.5399V100.342C58 100.705 57.7054 101 57.3421 101H44.6579C44.2946 101 44 100.705 44 100.342V1.65792C44 1.29456 44.2946 1 44.6579 1H57.3421C57.7054 1 58 1.29456 58 1.65792V22.7127" stroke="black" stroke-width="0.912173" stroke-miterlimit="10"/>
<rect x="1" y="6" width="99.4616" height="69.4769" fill="white"/>
<path d="M11.3218 6.73132L3.0003 6.73132C1.89573 6.73132 1.0003 7.62675 1.0003 8.73132L1.00029 73.4769C1.00029 74.5814 1.89572 75.4769 3.00029 75.4769L98.4619 75.4769C99.5665 75.4769 100.462 74.5814 100.462 73.4769L100.462 8.73132C100.462 7.62675 99.5665 6.73132 98.4619 6.73132L14.1367 6.73132" stroke="#1A2530" stroke-width="0.952534" stroke-miterlimit="10"/>
<g style="mix-blend-mode:multiply">
<mask id="path-5-inside-1" fill="white">
<rect x="14.6758" y="15.485" width="8.93668" height="8.93668" rx="0.687035"/>
</mask>
<rect x="14.6758" y="15.485" width="8.93668" height="8.93668" rx="0.687035" stroke="#1A2530" stroke-width="1.90507" stroke-dasharray="1.24 1.24" mask="url(#path-5-inside-1)"/>
</g>
<g style="mix-blend-mode:multiply">
<mask id="path-6-inside-2" fill="white">
<rect x="56.6299" y="18.6311" width="8.93668" height="8.93668" rx="0.687035"/>
</mask>
<rect x="56.6299" y="18.6311" width="8.93668" height="8.93668" rx="0.687035" stroke="#1A2530" stroke-width="1.90507" stroke-dasharray="1.24 1.24" mask="url(#path-6-inside-2)"/>
</g>
<g style="mix-blend-mode:multiply">
<mask id="path-7-inside-3" fill="white">
<rect x="77.6016" y="24.9241" width="8.93668" height="8.93668" rx="0.687035"/>
</mask>
<rect x="77.6016" y="24.9241" width="8.93668" height="8.93668" rx="0.687035" stroke="#1A2530" stroke-width="1.90507" stroke-dasharray="1.24 1.24" mask="url(#path-7-inside-3)"/>
</g>
<g style="mix-blend-mode:multiply">
<mask id="path-8-inside-4" fill="white">
<rect x="35.6553" y="23.8757" width="8.93668" height="8.93668" rx="0.687035"/>
</mask>
<rect x="35.6553" y="23.8757" width="8.93668" height="8.93668" rx="0.687035" stroke="#1A2530" stroke-width="1.90507" stroke-dasharray="1.24 1.24" mask="url(#path-8-inside-4)"/>
</g>
<g style="mix-blend-mode:multiply">
<mask id="path-9-inside-5" fill="white">
<rect x="7.33008" y="52.386" width="8.93668" height="8.93668" rx="0.687035"/>
</mask>
<rect x="7.33008" y="52.386" width="8.93668" height="8.93668" rx="0.687035" stroke="#1A2530" stroke-width="1.9" stroke-dasharray="1.24 1.24" mask="url(#path-9-inside-5)"/>
</g>
<g style="mix-blend-mode:multiply">
<mask id="path-10-inside-6" fill="white">
<rect x="18.5029" y="52.386" width="8.93668" height="8.93668" rx="0.687035"/>
</mask>
<rect x="18.5029" y="52.386" width="8.93668" height="8.93668" rx="0.687035" stroke="#1A2530" stroke-width="1.9" stroke-dasharray="1.24 1.24" mask="url(#path-10-inside-6)"/>
</g>
<g style="mix-blend-mode:multiply">
<mask id="path-11-inside-7" fill="white">
<rect x="29.6719" y="52.386" width="8.93668" height="8.93668" rx="0.687035"/>
</mask>
<rect x="29.6719" y="52.386" width="8.93668" height="8.93668" rx="0.687035" stroke="#1A2530" stroke-width="1.9" stroke-dasharray="1.24 1.24" mask="url(#path-11-inside-7)"/>
</g>
<g style="mix-blend-mode:multiply">
<mask id="path-12-inside-8" fill="white">
<rect x="40.8408" y="52.386" width="8.93668" height="8.93668" rx="0.687035"/>
</mask>
<rect x="40.8408" y="52.386" width="8.93668" height="8.93668" rx="0.687035" stroke="#1A2530" stroke-width="1.9" stroke-dasharray="1.24 1.24" mask="url(#path-12-inside-8)"/>
</g>
<g style="mix-blend-mode:multiply">
<mask id="path-13-inside-9" fill="white">
<rect x="52.0117" y="52.386" width="8.93668" height="8.93668" rx="0.687035"/>
</mask>
<rect x="52.0117" y="52.386" width="8.93668" height="8.93668" rx="0.687035" stroke="#1A2530" stroke-width="1.9" stroke-dasharray="1.24 1.24" mask="url(#path-13-inside-9)"/>
</g>
<g style="mix-blend-mode:multiply">
<mask id="path-14-inside-10" fill="white">
<rect x="63.1885" y="52.386" width="8.93668" height="8.93668" rx="0.687035"/>
</mask>
<rect x="63.1885" y="52.386" width="8.93668" height="8.93668" rx="0.687035" stroke="#1A2530" stroke-width="1.9" stroke-dasharray="1.24 1.24" mask="url(#path-14-inside-10)"/>
</g>
<g style="mix-blend-mode:multiply">
<mask id="path-15-inside-11" fill="white">
<rect x="74.3594" y="52.386" width="8.93668" height="8.93668" rx="0.687035"/>
</mask>
<rect x="74.3594" y="52.386" width="8.93668" height="8.93668" rx="0.687035" stroke="#1A2530" stroke-width="1.9" stroke-dasharray="1.24 1.24" mask="url(#path-15-inside-11)"/>
</g>
<g style="mix-blend-mode:multiply">
<mask id="path-16-inside-12" fill="white">
<rect x="85.5244" y="52.386" width="8.93668" height="8.93668" rx="0.687035"/>
</mask>
<rect x="85.5244" y="52.386" width="8.93668" height="8.93668" rx="0.687035" stroke="#1A2530" stroke-width="1.9" stroke-dasharray="1.24 1.24" mask="url(#path-16-inside-12)"/>
</g>
<g style="mix-blend-mode:multiply">
<mask id="path-17-inside-13" fill="white">
<rect x="7.33008" y="40.6565" width="8.93668" height="8.93668" rx="0.687035"/>
</mask>
<rect x="7.33008" y="40.6565" width="8.93668" height="8.93668" rx="0.687035" stroke="#1A2530" stroke-width="1.9" stroke-dasharray="1.24 1.24" mask="url(#path-17-inside-13)"/>
</g>
<path d="M10.3752 48.4397C11.7111 48.3794 14.8108 48.8892 14.868 47.425C14.9011 46.5766 14.6713 46.3462 13.4808 46.0272C12.2904 45.7082 8.52774 46.2508 8.48123 47.4422C8.43888 48.5271 9.03925 48.5 10.3752 48.4397Z" fill="url(#paint0_linear)"/>
<path d="M10.3752 60.3137C11.7111 60.2534 14.8108 60.7633 14.868 59.299C14.9011 58.4506 14.6713 58.2202 13.4808 57.9012C12.2904 57.5822 8.52774 58.1248 8.48123 59.3162C8.43888 60.4011 9.03925 60.374 10.3752 60.3137Z" fill="url(#paint1_linear)"/>
<path d="M21.7345 48.4397C23.0705 48.3794 26.1702 48.8892 26.2273 47.425C26.2605 46.5766 26.0306 46.3462 24.8402 46.0272C23.6498 45.7082 19.8871 46.2508 19.8406 47.4422C19.7983 48.5271 20.3986 48.5 21.7345 48.4397Z" fill="url(#paint2_linear)"/>
<path d="M21.7345 60.3137C23.0705 60.2534 26.1702 60.7633 26.2273 59.299C26.2605 58.4506 26.0306 58.2202 24.8402 57.9012C23.6498 57.5822 19.8871 58.1248 19.8406 59.3162C19.7983 60.4011 20.3986 60.374 21.7345 60.3137Z" fill="url(#paint3_linear)"/>
<path d="M32.5763 48.4397C33.9123 48.3794 37.012 48.8892 37.0691 47.425C37.1023 46.5766 36.8724 46.3462 35.682 46.0272C34.4916 45.7082 30.7289 46.2508 30.6824 47.4422C30.6401 48.5271 31.2404 48.5 32.5763 48.4397Z" fill="url(#paint4_linear)"/>
<path d="M32.5763 60.3137C33.9123 60.2534 37.012 60.7633 37.0691 59.299C37.1023 58.4506 36.8724 58.2202 35.682 57.9012C34.4916 57.5822 30.7289 58.1248 30.6824 59.3162C30.6401 60.4011 31.2404 60.374 32.5763 60.3137Z" fill="url(#paint5_linear)"/>
<path d="M43.9377 48.4397C45.2736 48.3794 48.3733 48.8892 48.4305 47.425C48.4636 46.5766 48.2338 46.3462 47.0433 46.0272C45.8529 45.7082 42.0902 46.2508 42.0437 47.4422C42.0014 48.5271 42.6017 48.5 43.9377 48.4397Z" fill="url(#paint6_linear)"/>
<path d="M43.9377 60.3137C45.2736 60.2534 48.3733 60.7633 48.4305 59.299C48.4636 58.4506 48.2338 58.2202 47.0433 57.9012C45.8529 57.5822 42.0902 58.1248 42.0437 59.3162C42.0014 60.4011 42.6017 60.374 43.9377 60.3137Z" fill="url(#paint7_linear)"/>
<path d="M55.2892 48.4397C56.6252 48.3794 59.7249 48.8892 59.782 47.425C59.8151 46.5766 59.5853 46.3462 58.3949 46.0272C57.2045 45.7082 53.4418 46.2508 53.3953 47.4422C53.3529 48.5271 53.9533 48.5 55.2892 48.4397Z" fill="url(#paint8_linear)"/>
<path d="M55.2892 60.3137C56.6252 60.2534 59.7249 60.7633 59.782 59.299C59.8151 58.4506 59.5853 58.2202 58.3949 57.9012C57.2045 57.5822 53.4418 58.1248 53.3953 59.3162C53.3529 60.4011 53.9533 60.374 55.2892 60.3137Z" fill="url(#paint9_linear)"/>
<path d="M66.6515 48.4397C67.9875 48.3794 71.0872 48.8892 71.1443 47.425C71.1775 46.5766 70.9476 46.3462 69.7572 46.0272C68.5668 45.7082 64.8041 46.2508 64.7576 47.4422C64.7153 48.5271 65.3156 48.5 66.6515 48.4397Z" fill="url(#paint10_linear)"/>
<path d="M66.6515 60.3137C67.9875 60.2534 71.0872 60.7633 71.1443 59.299C71.1775 58.4506 70.9476 58.2202 69.7572 57.9012C68.5668 57.5822 64.8041 58.1248 64.7576 59.3162C64.7153 60.4011 65.3156 60.374 66.6515 60.3137Z" fill="url(#paint11_linear)"/>
<path d="M77.4904 48.4397C78.8263 48.3794 81.926 48.8892 81.9832 47.425C82.0163 46.5766 81.7865 46.3462 80.5961 46.0272C79.4056 45.7082 75.643 46.2508 75.5965 47.4422C75.5541 48.5271 76.1545 48.5 77.4904 48.4397Z" fill="url(#paint12_linear)"/>
<path d="M77.4904 60.3137C78.8263 60.2534 81.926 60.7633 81.9832 59.299C82.0163 58.4506 81.7865 58.2202 80.5961 57.9012C79.4056 57.5822 75.643 58.1248 75.5965 59.3162C75.5541 60.4011 76.1545 60.374 77.4904 60.3137Z" fill="url(#paint13_linear)"/>
<path d="M88.8498 48.4397C90.1857 48.3794 93.2854 48.8892 93.3426 47.425C93.3757 46.5766 93.1459 46.3462 91.9554 46.0272C90.765 45.7082 87.0023 46.2508 86.9558 47.4422C86.9135 48.5271 87.5139 48.5 88.8498 48.4397Z" fill="url(#paint14_linear)"/>
<path d="M88.8498 60.3137C90.1857 60.2534 93.2854 60.7633 93.3426 59.299C93.3757 58.4506 93.1459 58.2202 91.9554 57.9012C90.765 57.5822 87.0023 58.1248 86.9558 59.3162C86.9135 60.4011 87.5139 60.374 88.8498 60.3137Z" fill="url(#paint15_linear)"/>
<path d="M10.3752 48.4397C11.7111 48.3794 14.8108 48.8892 14.868 47.425C14.9011 46.5766 14.6713 46.3462 13.4808 46.0272C12.2904 45.7082 8.52774 46.2508 8.48123 47.4422C8.43888 48.5271 9.03925 48.5 10.3752 48.4397Z" fill="url(#paint16_linear)"/>
<path d="M10.3752 60.3139C11.7111 60.2536 14.8108 60.7634 14.868 59.2991C14.9011 58.4508 14.6713 58.2203 13.4808 57.9013C12.2904 57.5823 8.52774 58.1249 8.48123 59.3163C8.43888 60.4013 9.03925 60.3742 10.3752 60.3139Z" fill="url(#paint17_linear)"/>
<path d="M21.7345 48.4397C23.0705 48.3794 26.1702 48.8892 26.2273 47.425C26.2605 46.5766 26.0306 46.3462 24.8402 46.0272C23.6498 45.7082 19.8871 46.2508 19.8406 47.4422C19.7983 48.5271 20.3986 48.5 21.7345 48.4397Z" fill="url(#paint18_linear)"/>
<path d="M21.7345 60.3139C23.0705 60.2536 26.1702 60.7634 26.2273 59.2991C26.2605 58.4508 26.0306 58.2203 24.8402 57.9013C23.6498 57.5823 19.8871 58.1249 19.8406 59.3163C19.7983 60.4013 20.3986 60.3742 21.7345 60.3139Z" fill="url(#paint19_linear)"/>
<path d="M32.5783 48.4397C33.9142 48.3794 37.0139 48.8892 37.0711 47.425C37.1042 46.5766 36.8744 46.3462 35.684 46.0272C34.4935 45.7082 30.7309 46.2508 30.6844 47.4422C30.642 48.5271 31.2424 48.5 32.5783 48.4397Z" fill="url(#paint20_linear)"/>
<path d="M43.9377 48.4397C45.2736 48.3794 48.3733 48.8892 48.4305 47.425C48.4636 46.5766 48.2338 46.3462 47.0433 46.0272C45.8529 45.7082 42.0902 46.2508 42.0437 47.4422C42.0014 48.5271 42.6017 48.5 43.9377 48.4397Z" fill="url(#paint21_linear)"/>
<path d="M55.2892 48.4397C56.6252 48.3794 59.7249 48.8892 59.782 47.425C59.8151 46.5766 59.5853 46.3462 58.3949 46.0272C57.2045 45.7082 53.4418 46.2508 53.3953 47.4422C53.3529 48.5271 53.9533 48.5 55.2892 48.4397Z" fill="url(#paint22_linear)"/>
<path d="M66.6515 48.4397C67.9875 48.3794 71.0872 48.8892 71.1443 47.425C71.1775 46.5766 70.9476 46.3462 69.7572 46.0272C68.5668 45.7082 64.8041 46.2508 64.7576 47.4422C64.7153 48.5271 65.3156 48.5 66.6515 48.4397Z" fill="url(#paint23_linear)"/>
<path d="M77.4904 48.4397C78.8263 48.3794 81.926 48.8892 81.9832 47.425C82.0163 46.5766 81.7865 46.3462 80.5961 46.0272C79.4056 45.7082 75.643 46.2508 75.5965 47.4422C75.5541 48.5271 76.1545 48.5 77.4904 48.4397Z" fill="url(#paint24_linear)"/>
<path d="M77.4904 60.3139C78.8263 60.2536 81.926 60.7634 81.9832 59.2991C82.0163 58.4508 81.7865 58.2203 80.5961 57.9013C79.4056 57.5823 75.643 58.1249 75.5965 59.3163C75.5541 60.4013 76.1545 60.3742 77.4904 60.3139Z" fill="url(#paint25_linear)"/>
<path d="M88.8508 48.4397C90.1867 48.3794 93.2864 48.8892 93.3436 47.425C93.3767 46.5766 93.1469 46.3462 91.9564 46.0272C90.766 45.7082 87.0033 46.2508 86.9568 47.4422C86.9145 48.5271 87.5148 48.5 88.8508 48.4397Z" fill="url(#paint26_linear)"/>
<path d="M88.8508 60.3139C90.1867 60.2536 93.2864 60.7634 93.3436 59.2991C93.3767 58.4508 93.1469 58.2203 91.9564 57.9013C90.766 57.5823 87.0033 58.1249 86.9568 59.3163C86.9145 60.4013 87.5148 60.3742 88.8508 60.3139Z" fill="url(#paint27_linear)"/>
<g style="mix-blend-mode:multiply">
<mask id="path-46-inside-14" fill="white">
<rect x="18.5029" y="40.6562" width="8.93668" height="8.93668" rx="0.687035"/>
</mask>
<rect x="18.5029" y="40.6562" width="8.93668" height="8.93668" rx="0.687035" stroke="#1A2530" stroke-width="1.9" stroke-dasharray="1.24 1.24" mask="url(#path-46-inside-14)"/>
</g>
<g style="mix-blend-mode:multiply">
<mask id="path-47-inside-15" fill="white">
<rect x="29.6719" y="40.6562" width="8.93668" height="8.93668" rx="0.687035"/>
</mask>
<rect x="29.6719" y="40.6562" width="8.93668" height="8.93668" rx="0.687035" stroke="#1A2530" stroke-width="1.9" stroke-dasharray="1.24 1.24" mask="url(#path-47-inside-15)"/>
</g>
<g style="mix-blend-mode:multiply">
<mask id="path-48-inside-16" fill="white">
<rect x="40.8408" y="40.6562" width="8.93668" height="8.93668" rx="0.687035"/>
</mask>
<rect x="40.8408" y="40.6562" width="8.93668" height="8.93668" rx="0.687035" stroke="#1A2530" stroke-width="1.9" stroke-dasharray="1.24 1.24" mask="url(#path-48-inside-16)"/>
</g>
<g style="mix-blend-mode:multiply">
<mask id="path-49-inside-17" fill="white">
<rect x="52.0117" y="40.6562" width="8.93668" height="8.93668" rx="0.687035"/>
</mask>
<rect x="52.0117" y="40.6562" width="8.93668" height="8.93668" rx="0.687035" stroke="#1A2530" stroke-width="1.9" stroke-dasharray="1.24 1.24" mask="url(#path-49-inside-17)"/>
</g>
<g style="mix-blend-mode:multiply">
<mask id="path-50-inside-18" fill="white">
<rect x="63.1885" y="40.6562" width="8.93668" height="8.93668" rx="0.687035"/>
</mask>
<rect x="63.1885" y="40.6562" width="8.93668" height="8.93668" rx="0.687035" stroke="#1A2530" stroke-width="1.9" stroke-dasharray="1.24 1.24" mask="url(#path-50-inside-18)"/>
</g>
<g style="mix-blend-mode:multiply">
<mask id="path-51-inside-19" fill="white">
<rect x="74.3594" y="40.6562" width="8.93668" height="8.93668" rx="0.687035"/>
</mask>
<rect x="74.3594" y="40.6562" width="8.93668" height="8.93668" rx="0.687035" stroke="#1A2530" stroke-width="1.9" stroke-dasharray="1.24 1.24" mask="url(#path-51-inside-19)"/>
</g>
<g style="mix-blend-mode:multiply">
<mask id="path-52-inside-20" fill="white">
<rect x="85.5244" y="40.6562" width="8.93668" height="8.93668" rx="0.687035"/>
</mask>
<rect x="85.5244" y="40.6562" width="8.93668" height="8.93668" rx="0.687035" stroke="#1A2530" stroke-width="1.9" stroke-dasharray="1.24 1.24" mask="url(#path-52-inside-20)"/>
</g>
<rect x="29.2673" y="52.5504" width="42.9733" height="42.9733" rx="1.52373" fill="white" stroke="#1A2530" stroke-width="0.952534"/>
<rect x="33.4489" y="56.7335" width="34.6065" height="34.6065" rx="1.52373" fill="white" stroke="#1A2530" stroke-width="0.952534" stroke-dasharray="1.69 1.69"/>
<defs>
<linearGradient id="paint0_linear" x1="5.58977" y1="47.5425" x2="16.5503" y2="47.5519" gradientUnits="userSpaceOnUse">
<stop offset="0.159308" stop-color="#248AE5"/>
<stop offset="0.536455" stop-color="#5AEEFF"/>
<stop offset="1" stop-color="#38E8A9"/>
</linearGradient>
<linearGradient id="paint1_linear" x1="5.58977" y1="59.4165" x2="16.5503" y2="59.4259" gradientUnits="userSpaceOnUse">
<stop offset="0.159308" stop-color="#248AE5"/>
<stop offset="0.536455" stop-color="#5AEEFF"/>
<stop offset="1" stop-color="#38E8A9"/>
</linearGradient>
<linearGradient id="paint2_linear" x1="16.9491" y1="47.5425" x2="27.9097" y2="47.5519" gradientUnits="userSpaceOnUse">
<stop offset="0.159308" stop-color="#248AE5"/>
<stop offset="0.536455" stop-color="#5AEEFF"/>
<stop offset="1" stop-color="#38E8A9"/>
</linearGradient>
<linearGradient id="paint3_linear" x1="16.9491" y1="59.4165" x2="27.9097" y2="59.4259" gradientUnits="userSpaceOnUse">
<stop offset="0.159308" stop-color="#248AE5"/>
<stop offset="0.536455" stop-color="#5AEEFF"/>
<stop offset="1" stop-color="#38E8A9"/>
</linearGradient>
<linearGradient id="paint4_linear" x1="27.7909" y1="47.5425" x2="38.7515" y2="47.5519" gradientUnits="userSpaceOnUse">
<stop offset="0.159308" stop-color="#248AE5"/>
<stop offset="0.536455" stop-color="#5AEEFF"/>
<stop offset="1" stop-color="#38E8A9"/>
</linearGradient>
<linearGradient id="paint5_linear" x1="27.7909" y1="59.4165" x2="38.7515" y2="59.4259" gradientUnits="userSpaceOnUse">
<stop offset="0.159308" stop-color="#248AE5"/>
<stop offset="0.536455" stop-color="#5AEEFF"/>
<stop offset="1" stop-color="#38E8A9"/>
</linearGradient>
<linearGradient id="paint6_linear" x1="39.1523" y1="47.5425" x2="50.1128" y2="47.5519" gradientUnits="userSpaceOnUse">
<stop offset="0.159308" stop-color="#248AE5"/>
<stop offset="0.536455" stop-color="#5AEEFF"/>
<stop offset="1" stop-color="#38E8A9"/>
</linearGradient>
<linearGradient id="paint7_linear" x1="39.1523" y1="59.4165" x2="50.1128" y2="59.4259" gradientUnits="userSpaceOnUse">
<stop offset="0.159308" stop-color="#248AE5"/>
<stop offset="0.536455" stop-color="#5AEEFF"/>
<stop offset="1" stop-color="#38E8A9"/>
</linearGradient>
<linearGradient id="paint8_linear" x1="50.5038" y1="47.5425" x2="61.4644" y2="47.5519" gradientUnits="userSpaceOnUse">
<stop offset="0.159308" stop-color="#248AE5"/>
<stop offset="0.536455" stop-color="#5AEEFF"/>
<stop offset="1" stop-color="#38E8A9"/>
</linearGradient>
<linearGradient id="paint9_linear" x1="50.5038" y1="59.4165" x2="61.4644" y2="59.4259" gradientUnits="userSpaceOnUse">
<stop offset="0.159308" stop-color="#248AE5"/>
<stop offset="0.536455" stop-color="#5AEEFF"/>
<stop offset="1" stop-color="#38E8A9"/>
</linearGradient>
<linearGradient id="paint10_linear" x1="61.8661" y1="47.5425" x2="72.8267" y2="47.5519" gradientUnits="userSpaceOnUse">
<stop offset="0.159308" stop-color="#248AE5"/>
<stop offset="0.536455" stop-color="#5AEEFF"/>
<stop offset="1" stop-color="#38E8A9"/>
</linearGradient>
<linearGradient id="paint11_linear" x1="61.8661" y1="59.4165" x2="72.8267" y2="59.4259" gradientUnits="userSpaceOnUse">
<stop offset="0.159308" stop-color="#248AE5"/>
<stop offset="0.536455" stop-color="#5AEEFF"/>
<stop offset="1" stop-color="#38E8A9"/>
</linearGradient>
<linearGradient id="paint12_linear" x1="72.705" y1="47.5425" x2="83.6655" y2="47.5519" gradientUnits="userSpaceOnUse">
<stop offset="0.159308" stop-color="#248AE5"/>
<stop offset="0.536455" stop-color="#5AEEFF"/>
<stop offset="1" stop-color="#38E8A9"/>
</linearGradient>
<linearGradient id="paint13_linear" x1="72.705" y1="59.4165" x2="83.6655" y2="59.4259" gradientUnits="userSpaceOnUse">
<stop offset="0.159308" stop-color="#248AE5"/>
<stop offset="0.536455" stop-color="#5AEEFF"/>
<stop offset="1" stop-color="#38E8A9"/>
</linearGradient>
<linearGradient id="paint14_linear" x1="84.0644" y1="47.5425" x2="95.0249" y2="47.5519" gradientUnits="userSpaceOnUse">
<stop offset="0.159308" stop-color="#248AE5"/>
<stop offset="0.536455" stop-color="#5AEEFF"/>
<stop offset="1" stop-color="#38E8A9"/>
</linearGradient>
<linearGradient id="paint15_linear" x1="84.0644" y1="59.4165" x2="95.0249" y2="59.4259" gradientUnits="userSpaceOnUse">
<stop offset="0.159308" stop-color="#248AE5"/>
<stop offset="0.536455" stop-color="#5AEEFF"/>
<stop offset="1" stop-color="#38E8A9"/>
</linearGradient>
<linearGradient id="paint16_linear" x1="5.58977" y1="47.5425" x2="16.5503" y2="47.5519" gradientUnits="userSpaceOnUse">
<stop offset="0.159308" stop-color="#248AE5"/>
<stop offset="0.536455" stop-color="#5AEEFF"/>
<stop offset="1" stop-color="#38E8A9"/>
</linearGradient>
<linearGradient id="paint17_linear" x1="5.58977" y1="59.4166" x2="16.5503" y2="59.426" gradientUnits="userSpaceOnUse">
<stop offset="0.159308" stop-color="#248AE5"/>
<stop offset="0.536455" stop-color="#5AEEFF"/>
<stop offset="1" stop-color="#38E8A9"/>
</linearGradient>
<linearGradient id="paint18_linear" x1="16.9491" y1="47.5425" x2="27.9097" y2="47.5519" gradientUnits="userSpaceOnUse">
<stop offset="0.159308" stop-color="#248AE5"/>
<stop offset="0.536455" stop-color="#5AEEFF"/>
<stop offset="1" stop-color="#38E8A9"/>
</linearGradient>
<linearGradient id="paint19_linear" x1="16.9491" y1="59.4166" x2="27.9097" y2="59.426" gradientUnits="userSpaceOnUse">
<stop offset="0.159308" stop-color="#248AE5"/>
<stop offset="0.536455" stop-color="#5AEEFF"/>
<stop offset="1" stop-color="#38E8A9"/>
</linearGradient>
<linearGradient id="paint20_linear" x1="27.7929" y1="47.5425" x2="38.7534" y2="47.5519" gradientUnits="userSpaceOnUse">
<stop offset="0.159308" stop-color="#248AE5"/>
<stop offset="0.536455" stop-color="#5AEEFF"/>
<stop offset="1" stop-color="#38E8A9"/>
</linearGradient>
<linearGradient id="paint21_linear" x1="39.1523" y1="47.5425" x2="50.1128" y2="47.5519" gradientUnits="userSpaceOnUse">
<stop offset="0.159308" stop-color="#248AE5"/>
<stop offset="0.536455" stop-color="#5AEEFF"/>
<stop offset="1" stop-color="#38E8A9"/>
</linearGradient>
<linearGradient id="paint22_linear" x1="50.5038" y1="47.5425" x2="61.4644" y2="47.5519" gradientUnits="userSpaceOnUse">
<stop offset="0.159308" stop-color="#248AE5"/>
<stop offset="0.536455" stop-color="#5AEEFF"/>
<stop offset="1" stop-color="#38E8A9"/>
</linearGradient>
<linearGradient id="paint23_linear" x1="61.8661" y1="47.5425" x2="72.8267" y2="47.5519" gradientUnits="userSpaceOnUse">
<stop offset="0.159308" stop-color="#248AE5"/>
<stop offset="0.536455" stop-color="#5AEEFF"/>
<stop offset="1" stop-color="#38E8A9"/>
</linearGradient>
<linearGradient id="paint24_linear" x1="72.705" y1="47.5425" x2="83.6655" y2="47.5519" gradientUnits="userSpaceOnUse">
<stop offset="0.159308" stop-color="#248AE5"/>
<stop offset="0.536455" stop-color="#5AEEFF"/>
<stop offset="1" stop-color="#38E8A9"/>
</linearGradient>
<linearGradient id="paint25_linear" x1="72.705" y1="59.4166" x2="83.6655" y2="59.426" gradientUnits="userSpaceOnUse">
<stop offset="0.159308" stop-color="#248AE5"/>
<stop offset="0.536455" stop-color="#5AEEFF"/>
<stop offset="1" stop-color="#38E8A9"/>
</linearGradient>
<linearGradient id="paint26_linear" x1="84.0654" y1="47.5425" x2="95.0259" y2="47.5519" gradientUnits="userSpaceOnUse">
<stop offset="0.159308" stop-color="#248AE5"/>
<stop offset="0.536455" stop-color="#5AEEFF"/>
<stop offset="1" stop-color="#38E8A9"/>
</linearGradient>
<linearGradient id="paint27_linear" x1="84.0654" y1="59.4166" x2="95.0259" y2="59.426" gradientUnits="userSpaceOnUse">
<stop offset="0.159308" stop-color="#248AE5"/>
<stop offset="0.536455" stop-color="#5AEEFF"/>
<stop offset="1" stop-color="#38E8A9"/>
</linearGradient>
</defs>
</svg>
