<svg width="109" height="25" viewBox="0 0 109 25" fill="none" xmlns="http://www.w3.org/2000/svg">
<path d="M29.5651 8.63717C30.4465 8.63717 31.2436 8.864 31.9565 9.31765C32.6694 9.75835 33.2267 10.3805 33.6285 11.1841C34.0433 11.9878 34.2507 12.8951 34.2507 13.9061C34.2507 14.9171 34.0433 15.8244 33.6285 16.628C33.2267 17.4187 32.6694 18.0408 31.9565 18.4945C31.2436 18.9482 30.4594 19.175 29.604 19.175C28.93 19.175 28.3013 19.0259 27.718 18.7278C27.1348 18.4297 26.6617 18.0668 26.2987 17.639V21.9553C26.2987 22.2145 26.208 22.4348 26.0265 22.6163C25.858 22.7978 25.6377 22.8885 25.3655 22.8885C25.1063 22.8885 24.8859 22.7978 24.7045 22.6163C24.536 22.4478 24.4517 22.2274 24.4517 21.9553V9.72595C24.4517 9.45375 24.536 9.22692 24.7045 9.04546C24.873 8.864 25.0933 8.77327 25.3655 8.77327C25.6377 8.77327 25.858 8.864 26.0265 9.04546C26.208 9.22692 26.2987 9.45375 26.2987 9.72595V10.2898C26.6098 9.83612 27.0635 9.44727 27.6597 9.12323C28.2559 8.79919 28.8911 8.63717 29.5651 8.63717ZM29.3512 17.464C29.9474 17.464 30.4853 17.3085 30.9649 16.9974C31.4445 16.6863 31.8139 16.2651 32.0731 15.7337C32.3453 15.1893 32.4814 14.5801 32.4814 13.9061C32.4814 13.2321 32.3453 12.6294 32.0731 12.0979C31.8139 11.5535 31.4445 11.1258 30.9649 10.8147C30.4853 10.5036 29.9474 10.3481 29.3512 10.3481C28.742 10.3481 28.1976 10.5036 27.718 10.8147C27.2385 11.1128 26.8626 11.5341 26.5904 12.0785C26.3311 12.6229 26.2015 13.2321 26.2015 13.9061C26.2015 14.5801 26.3311 15.1893 26.5904 15.7337C26.8626 16.2781 27.2385 16.7058 27.718 17.0169C28.1976 17.315 28.742 17.464 29.3512 17.464ZM41.4689 8.57884C41.8059 8.57884 42.0975 8.66957 42.3438 8.85104C42.5901 9.01954 42.7132 9.2334 42.7132 9.49264C42.7132 9.80372 42.6289 10.0435 42.4604 10.212C42.3049 10.3675 42.1105 10.4453 41.8772 10.4453C41.7605 10.4453 41.5855 10.4064 41.3522 10.3287C41.08 10.2379 40.8662 10.1926 40.7106 10.1926C40.3088 10.1926 39.9135 10.3351 39.5246 10.6203C39.1487 10.8925 38.8377 11.2749 38.5914 11.7674C38.3581 12.247 38.2414 12.7849 38.2414 13.3811V18.0668C38.2414 18.326 38.1507 18.5463 37.9692 18.7278C37.8007 18.9093 37.5804 19 37.3082 19C37.036 19 36.8156 18.9157 36.6471 18.7472C36.4786 18.5658 36.3944 18.339 36.3944 18.0668V9.74539C36.3944 9.48616 36.4786 9.26581 36.6471 9.08434C36.8286 8.90288 37.0489 8.81215 37.3082 8.81215C37.5804 8.81215 37.8007 8.90288 37.9692 9.08434C38.1507 9.26581 38.2414 9.48616 38.2414 9.74539V10.737C38.5266 10.1018 38.9543 9.58985 39.5246 9.201C40.0949 8.79919 40.743 8.5918 41.4689 8.57884ZM52.461 8.67605C52.7332 8.67605 52.9535 8.76678 53.122 8.94825C53.3035 9.11675 53.3942 9.34358 53.3942 9.62873V18.0668C53.3942 18.326 53.3035 18.5463 53.122 18.7278C52.9535 18.9093 52.7332 19 52.461 19C52.1888 19 51.9685 18.9157 51.8 18.7472C51.6315 18.5658 51.5472 18.339 51.5472 18.0668V17.5613C51.2102 18.0149 50.7501 18.4038 50.1668 18.7278C49.5835 19.0389 48.9549 19.1944 48.2809 19.1944C47.3995 19.1944 46.5959 18.9676 45.87 18.5139C45.1571 18.0603 44.5933 17.4316 44.1785 16.628C43.7767 15.8114 43.5758 14.8976 43.5758 13.8866C43.5758 12.8756 43.7767 11.9683 44.1785 11.1647C44.5933 10.3481 45.1571 9.71298 45.87 9.25933C46.5829 8.80567 47.3671 8.57884 48.2225 8.57884C48.9095 8.57884 49.5446 8.72142 50.1279 9.00658C50.7241 9.29173 51.1972 9.65466 51.5472 10.0954V9.62873C51.5472 9.35654 51.6315 9.12971 51.8 8.94825C51.9685 8.76678 52.1888 8.67605 52.461 8.67605ZM48.4947 17.4835C49.1039 17.4835 49.6418 17.3279 50.1085 17.0169C50.588 16.7058 50.9575 16.2781 51.2167 15.7337C51.4889 15.1893 51.625 14.5736 51.625 13.8866C51.625 13.2126 51.4889 12.6034 51.2167 12.059C50.9575 11.5147 50.588 11.0869 50.1085 10.7758C49.6418 10.4518 49.1039 10.2898 48.4947 10.2898C47.8855 10.2898 47.3412 10.4453 46.8616 10.7564C46.395 11.0675 46.0255 11.4952 45.7534 12.0396C45.4941 12.584 45.3645 13.1997 45.3645 13.8866C45.3645 14.5736 45.4941 15.1893 45.7534 15.7337C46.0255 16.2781 46.395 16.7058 46.8616 17.0169C47.3412 17.3279 47.8855 17.4835 48.4947 17.4835ZM67.8256 8.63717C70.0938 8.63717 71.228 10.05 71.228 12.8756V18.0668C71.228 18.339 71.1437 18.5658 70.9752 18.7472C70.8067 18.9157 70.5864 19 70.3142 19C70.042 19 69.8152 18.9093 69.6337 18.7278C69.4652 18.5463 69.381 18.326 69.381 18.0668V12.8951C69.381 11.1971 68.6681 10.3481 67.2423 10.3481C66.7368 10.3481 66.2766 10.4648 65.8619 10.6981C65.4601 10.9184 65.1425 11.223 64.9092 11.6119C64.6888 12.0007 64.5787 12.4284 64.5787 12.8951V18.0668C64.5787 18.326 64.4879 18.5463 64.3065 18.7278C64.138 18.9093 63.9176 19 63.6454 19C63.3732 19 63.1529 18.9157 62.9844 18.7472C62.8159 18.5658 62.7316 18.339 62.7316 18.0668V12.8756C62.7316 12.1109 62.5696 11.5017 62.2456 11.048C61.9215 10.5814 61.3836 10.3481 60.6318 10.3481C59.8671 10.3481 59.232 10.5944 58.7265 11.0869C58.2339 11.5665 57.9877 12.1627 57.9877 12.8756V18.0668C57.9877 18.326 57.8969 18.5463 57.7155 18.7278C57.547 18.9093 57.3266 19 57.0544 19C56.7822 19 56.5619 18.9157 56.3934 18.7472C56.2249 18.5658 56.1406 18.339 56.1406 18.0668V9.74539C56.1406 9.48616 56.2249 9.26581 56.3934 9.08434C56.5749 8.90288 56.7952 8.81215 57.0544 8.81215C57.3266 8.81215 57.547 8.90288 57.7155 9.08434C57.8969 9.26581 57.9877 9.48616 57.9877 9.74539V10.4259C58.3247 9.92037 58.7718 9.49912 59.3292 9.16211C59.8995 8.81215 60.5152 8.63717 61.1762 8.63717C62.7835 8.63717 63.8269 9.35006 64.3065 10.7758C64.5916 10.2314 65.0647 9.73891 65.7258 9.29821C66.3868 8.85752 67.0867 8.63717 67.8256 8.63717ZM82.2513 8.67605C82.5235 8.67605 82.7438 8.76678 82.9123 8.94825C83.0938 9.11675 83.1845 9.34358 83.1845 9.62873V18.0668C83.1845 18.326 83.0938 18.5463 82.9123 18.7278C82.7438 18.9093 82.5235 19 82.2513 19C81.9791 19 81.7587 18.9157 81.5902 18.7472C81.4217 18.5658 81.3375 18.339 81.3375 18.0668V17.5613C81.0005 18.0149 80.5403 18.4038 79.957 18.7278C79.3738 19.0389 78.7451 19.1944 78.0711 19.1944C77.1897 19.1944 76.3861 18.9676 75.6603 18.5139C74.9474 18.0603 74.3835 17.4316 73.9688 16.628C73.567 15.8114 73.3661 14.8976 73.3661 13.8866C73.3661 12.8756 73.567 11.9683 73.9688 11.1647C74.3835 10.3481 74.9474 9.71298 75.6603 9.25933C76.3732 8.80567 77.1573 8.57884 78.0128 8.57884C78.6998 8.57884 79.3349 8.72142 79.9182 9.00658C80.5144 9.29173 80.9875 9.65466 81.3375 10.0954V9.62873C81.3375 9.35654 81.4217 9.12971 81.5902 8.94825C81.7587 8.76678 81.9791 8.67605 82.2513 8.67605ZM78.285 17.4835C78.8942 17.4835 79.4321 17.3279 79.8987 17.0169C80.3783 16.7058 80.7477 16.2781 81.0069 15.7337C81.2791 15.1893 81.4152 14.5736 81.4152 13.8866C81.4152 13.2126 81.2791 12.6034 81.0069 12.059C80.7477 11.5147 80.3783 11.0869 79.8987 10.7758C79.4321 10.4518 78.8942 10.2898 78.285 10.2898C77.6758 10.2898 77.1314 10.4453 76.6518 10.7564C76.1852 11.0675 75.8158 11.4952 75.5436 12.0396C75.2844 12.584 75.1548 13.1997 75.1548 13.8866C75.1548 14.5736 75.2844 15.1893 75.5436 15.7337C75.8158 16.2781 76.1852 16.7058 76.6518 17.0169C77.1314 17.3279 77.6758 17.4835 78.285 17.4835ZM91.122 8.57884C93.4551 8.57884 94.6217 9.9787 94.6217 12.7784V18.0668C94.6217 18.326 94.5309 18.5463 94.3495 18.7278C94.181 18.9093 93.9606 19 93.6884 19C93.4292 19 93.2089 18.9093 93.0274 18.7278C92.8589 18.5463 92.7746 18.326 92.7746 18.0668V12.7979C92.7746 12.0331 92.5997 11.4239 92.2497 10.9703C91.8997 10.5166 91.3294 10.2898 90.5388 10.2898C90.0203 10.2898 89.5472 10.4064 89.1195 10.6397C88.7047 10.8601 88.3742 11.1647 88.1279 11.5535C87.8946 11.9294 87.7779 12.3442 87.7779 12.7979V18.0668C87.7779 18.326 87.6872 18.5463 87.5057 18.7278C87.3372 18.9093 87.1169 19 86.8447 19C86.5725 19 86.3521 18.9157 86.1836 18.7472C86.0151 18.5658 85.9309 18.339 85.9309 18.0668V9.74539C85.9309 9.48616 86.0151 9.26581 86.1836 9.08434C86.3651 8.90288 86.5855 8.81215 86.8447 8.81215C87.1169 8.81215 87.3372 8.90288 87.5057 9.08434C87.6872 9.26581 87.7779 9.48616 87.7779 9.74539V10.4259C88.1149 9.90741 88.5815 9.47319 89.1778 9.12323C89.787 8.7603 90.4351 8.57884 91.122 8.57884ZM105.643 8.67605C105.915 8.67605 106.136 8.76678 106.304 8.94825C106.485 9.11675 106.576 9.34358 106.576 9.62873V18.0668C106.576 18.326 106.485 18.5463 106.304 18.7278C106.136 18.9093 105.915 19 105.643 19C105.371 19 105.15 18.9157 104.982 18.7472C104.813 18.5658 104.729 18.339 104.729 18.0668V17.5613C104.392 18.0149 103.932 18.4038 103.349 18.7278C102.765 19.0389 102.137 19.1944 101.463 19.1944C100.581 19.1944 99.7778 18.9676 99.052 18.5139C98.3391 18.0603 97.7752 17.4316 97.3605 16.628C96.9587 15.8114 96.7578 14.8976 96.7578 13.8866C96.7578 12.8756 96.9587 11.9683 97.3605 11.1647C97.7752 10.3481 98.3391 9.71298 99.052 9.25933C99.7649 8.80567 100.549 8.57884 101.405 8.57884C102.091 8.57884 102.727 8.72142 103.31 9.00658C103.906 9.29173 104.379 9.65466 104.729 10.0954V9.62873C104.729 9.35654 104.813 9.12971 104.982 8.94825C105.15 8.76678 105.371 8.67605 105.643 8.67605ZM101.677 17.4835C102.286 17.4835 102.824 17.3279 103.29 17.0169C103.77 16.7058 104.139 16.2781 104.399 15.7337C104.671 15.1893 104.807 14.5736 104.807 13.8866C104.807 13.2126 104.671 12.6034 104.399 12.059C104.139 11.5147 103.77 11.0869 103.29 10.7758C102.824 10.4518 102.286 10.2898 101.677 10.2898C101.068 10.2898 100.523 10.4453 100.044 10.7564C99.5769 11.0675 99.2075 11.4952 98.9353 12.0396C98.6761 12.584 98.5465 13.1997 98.5465 13.8866C98.5465 14.5736 98.6761 15.1893 98.9353 15.7337C99.2075 16.2781 99.5769 16.7058 100.044 17.0169C100.523 17.3279 101.068 17.4835 101.677 17.4835Z" fill="black"/>
<path d="M7.97174 18.8169C11.4416 15.0998 21.026 7.57954 17.7251 4.93642C15.8127 3.40512 14.6475 3.63527 10.676 6.31408C6.70449 8.99289 -2.18894 20.0954 0.496795 22.2459C2.94251 24.2043 4.50187 22.5339 7.97174 18.8169Z" fill="url(#paint0_linear_31179_1377)"/>
<path d="M4.70117 23.4554V3.65552H11.9945V23.4554H4.70117Z" stroke="black" stroke-width="1.39037" stroke-linejoin="round"/>
<defs>
<linearGradient id="paint0_linear_31179_1377" x1="-0.0932749" y1="22.4851" x2="18.3339" y2="3.5922" gradientUnits="userSpaceOnUse">
<stop stop-color="#BB1EEC"/>
<stop offset="0.21875" stop-color="#E443FE"/>
<stop offset="0.604167" stop-color="#FD4CDF"/>
<stop offset="1" stop-color="#FC7E8B"/>
</linearGradient>
</defs>
</svg>
