<svg width="92" height="102" viewBox="0 0 92 102" fill="none" xmlns="http://www.w3.org/2000/svg">
<path d="M53.3982 26.5399V100.313C53.3982 100.692 53.0906 101 52.7112 101H38.5513C38.1719 101 37.8643 100.692 37.8643 100.313V1.68703C37.8643 1.30759 38.1719 1 38.5513 1H52.7112C53.0906 1 53.3982 1.3076 53.3982 1.68704V22.7127" fill="white"/>
<path d="M53.3982 26.5399V100.313C53.3982 100.692 53.0906 101 52.7112 101H38.5513C38.1719 101 37.8643 100.692 37.8643 100.313V1.68703C37.8643 1.30759 38.1719 1 38.5513 1H52.7112C53.0906 1 53.3982 1.3076 53.3982 1.68704V22.7127" stroke="black" stroke-width="0.952534" stroke-miterlimit="10"/>
<circle cx="45.7661" cy="50.6496" r="45.2911" fill="white" stroke="#1A2530" stroke-width="0.95"/>
<circle opacity="0.5" cx="45.5568" cy="50.8149" r="24.9935" transform="rotate(-30 45.5568 50.8149)" fill="url(#paint0_linear)"/>
<path d="M58.7507 30.5529C56.5293 30.5529 54.7286 28.7521 54.7286 26.5307C54.7286 24.3093 56.5293 22.5085 58.7507 22.5085C60.9721 22.5085 62.7729 24.3093 62.7729 26.5307C62.7729 28.7521 60.9721 30.5529 58.7507 30.5529Z" fill="white"/>
<path d="M58.7507 30.5529C56.5293 30.5529 54.7286 28.7521 54.7286 26.5307C54.7286 24.3093 56.5293 22.5085 58.7507 22.5085C60.9721 22.5085 62.7729 24.3093 62.7729 26.5307C62.7729 28.7521 60.9721 30.5529 58.7507 30.5529ZM58.7507 30.5529L64.2812 40.6084M58.7507 30.5529L52.2147 40.6084M58.7507 30.5529L39.6453 40.6084M58.7507 30.5529L27.076 40.6084" stroke="#1A2530" stroke-width="0.635023"/>
<path d="M46.1838 30.5529C43.9624 30.5529 42.1616 28.7521 42.1616 26.5307C42.1616 24.3093 43.9624 22.5085 46.1838 22.5085C48.4052 22.5085 50.2059 24.3093 50.2059 26.5307C50.2059 28.7521 48.4052 30.5529 46.1838 30.5529Z" fill="white"/>
<path d="M46.1838 30.5529C43.9624 30.5529 42.1616 28.7521 42.1616 26.5307C42.1616 24.3093 43.9624 22.5085 46.1838 22.5085C48.4052 22.5085 50.2059 24.3093 50.2059 26.5307C50.2059 28.7521 48.4052 30.5529 46.1838 30.5529ZM46.1838 30.5529L64.0322 40.357M46.1838 30.5529L52.217 40.357M46.1838 30.5529L39.8991 40.357M46.1838 30.5529L27.0784 40.357" stroke="#1A2530" stroke-width="0.635023"/>
<path d="M33.597 30.5529C31.3756 30.5529 29.5748 28.7521 29.5748 26.5307C29.5748 24.3093 31.3756 22.5085 33.597 22.5085C35.8184 22.5085 37.6192 24.3093 37.6192 26.5307C37.6192 28.7521 35.8184 30.5529 33.597 30.5529Z" fill="white"/>
<path d="M33.597 30.5529C31.3756 30.5529 29.5748 28.7521 29.5748 26.5307C29.5748 24.3093 31.3756 22.5085 33.597 22.5085C35.8184 22.5085 37.6192 24.3093 37.6192 26.5307C37.6192 28.7521 35.8184 30.5529 33.597 30.5529ZM33.597 30.5529L64.5176 40.6084M33.597 30.5529L52.1996 40.6084M33.597 30.5529L40.1331 40.6084M33.597 30.5529L27.0609 40.6084" stroke="#1A2530" stroke-width="0.635023"/>
<path d="M46.1731 76.8069C43.9517 76.8069 42.1509 78.6077 42.1509 80.8291C42.1509 83.0505 43.9517 84.8513 46.1731 84.8513C48.3945 84.8513 50.1953 83.0505 50.1953 80.8291C50.1953 78.6077 48.3945 76.8069 46.1731 76.8069Z" fill="white" stroke="#1A2530" stroke-width="0.635023"/>
<path d="M65.0315 48.652C62.8101 48.652 61.0093 46.8512 61.0093 44.6299C61.0093 42.4085 62.8101 40.6077 65.0315 40.6077C67.2529 40.6077 69.0537 42.4085 69.0537 44.6299C69.0537 46.8512 67.2529 48.652 65.0315 48.652Z" fill="white"/>
<path d="M65.0315 48.652C62.8101 48.652 61.0093 46.8512 61.0093 44.6299C61.0093 42.4085 62.8101 40.6077 65.0315 40.6077C67.2529 40.6077 69.0537 42.4085 69.0537 44.6299C69.0537 46.8512 67.2529 48.652 65.0315 48.652ZM65.0315 48.652L65.0315 58.7075M65.0315 48.652L52.2108 58.7075M65.0315 48.652L39.3901 58.7075M65.0315 48.652L26.5693 58.7075" stroke="#1A2530" stroke-width="0.635023"/>
<path d="M52.4492 48.652C50.2278 48.652 48.427 46.8512 48.427 44.6299C48.427 42.4085 50.2278 40.6077 52.4492 40.6077C54.6706 40.6077 56.4714 42.4085 56.4714 44.6299C56.4714 46.8513 54.6706 48.652 52.4492 48.652Z" fill="white"/>
<path d="M52.4492 48.652C50.2278 48.652 48.427 46.8512 48.427 44.6299C48.427 42.4085 50.2278 40.6077 52.4492 40.6077C54.6706 40.6077 56.4714 42.4085 56.4714 44.6299C56.4714 46.8513 54.6706 48.652 52.4492 48.652ZM52.4492 48.652L65.0186 58.4561M52.4492 48.652L52.4492 58.4561M52.4492 48.652L39.6285 58.4561M52.4492 48.652L26.5564 58.9589" stroke="#1A2530" stroke-width="0.635023"/>
<path d="M39.8799 48.652C37.6585 48.652 35.8577 46.8512 35.8577 44.6299C35.8577 42.4085 37.6585 40.6077 39.8799 40.6077C42.1013 40.6077 43.9021 42.4085 43.9021 44.6299C43.9021 46.8512 42.1013 48.652 39.8799 48.652Z" fill="white"/>
<path d="M39.8799 48.652C37.6585 48.652 35.8577 46.8512 35.8577 44.6299C35.8577 42.4085 37.6585 40.6077 39.8799 40.6077C42.1013 40.6077 43.9021 42.4085 43.9021 44.6299C43.9021 46.8512 42.1013 48.652 39.8799 48.652ZM39.8799 48.652L65.0186 58.7075M39.8799 48.652L52.4492 58.7075M39.8799 48.652L39.8799 58.7075M39.8799 48.652L27.0591 58.7075" stroke="#1A2530" stroke-width="0.635023"/>
<path d="M27.3227 48.652C25.1013 48.652 23.3005 46.8512 23.3005 44.6299C23.3005 42.4085 25.1013 40.6077 27.3227 40.6077C29.5441 40.6077 31.3448 42.4085 31.3448 44.6299C31.3448 46.8512 29.5441 48.652 27.3227 48.652Z" fill="white"/>
<path d="M27.3227 48.652C25.1013 48.652 23.3005 46.8512 23.3005 44.6299C23.3005 42.4085 25.1013 40.6077 27.3227 40.6077C29.5441 40.6077 31.3448 42.4085 31.3448 44.6299C31.3448 46.8512 29.5441 48.652 27.3227 48.652ZM27.3227 48.652L64.7793 58.7075M27.3227 48.652L52.4613 58.7075M27.3227 48.652L39.892 58.7075M27.3227 48.652L27.3227 58.7075" stroke="#1A2530" stroke-width="0.635023"/>
<path d="M65.0315 58.7081C62.8101 58.7081 61.0093 60.5089 61.0093 62.7303C61.0093 64.9517 62.8101 66.7525 65.0315 66.7525C67.2529 66.7525 69.0537 64.9517 69.0537 62.7303C69.0537 60.5089 67.2529 58.7081 65.0315 58.7081Z" fill="white"/>
<path d="M65.0315 66.7525C62.8101 66.7525 61.0093 64.9517 61.0093 62.7303C61.0093 60.5089 62.8101 58.7081 65.0315 58.7081C67.2529 58.7081 69.0537 60.5089 69.0537 62.7303C69.0537 64.9517 67.2529 66.7525 65.0315 66.7525ZM65.0315 66.7525L45.9261 76.808" stroke="#1A2530" stroke-width="0.635023"/>
<path d="M52.4593 58.7081C50.2379 58.7081 48.4371 60.5089 48.4371 62.7303C48.4371 64.9517 50.2379 66.7525 52.4593 66.7525C54.6807 66.7525 56.4814 64.9517 56.4814 62.7303C56.4814 60.5089 54.6807 58.7081 52.4593 58.7081Z" fill="white"/>
<path d="M52.4593 66.7525C50.2379 66.7525 48.4371 64.9517 48.4371 62.7303C48.4371 60.5089 50.2379 58.7081 52.4593 58.7081C54.6807 58.7081 56.4814 60.5089 56.4814 62.7303C56.4814 64.9517 54.6807 66.7525 52.4593 66.7525ZM52.4593 66.7525L45.9232 76.808" stroke="#1A2530" stroke-width="0.635023"/>
<path d="M39.8954 58.7076C37.674 58.7076 35.8732 60.5084 35.8732 62.7298C35.8732 64.9512 37.674 66.752 39.8954 66.752C42.1168 66.752 43.9176 64.9512 43.9176 62.7298C43.9176 60.5084 42.1168 58.7076 39.8954 58.7076Z" fill="white"/>
<path d="M39.8954 66.752C37.674 66.752 35.8732 64.9512 35.8732 62.7298C35.8732 60.5084 37.674 58.7076 39.8954 58.7076C42.1168 58.7076 43.9176 60.5084 43.9176 62.7298C43.9176 64.9512 42.1168 66.752 39.8954 66.752ZM39.8954 66.752L45.9287 76.5561" stroke="#1A2530" stroke-width="0.635023"/>
<path d="M27.3257 58.7076C25.1043 58.7076 23.3035 60.5084 23.3035 62.7298C23.3035 64.9512 25.1043 66.752 27.3257 66.752C29.5471 66.752 31.3479 64.9512 31.3479 62.7298C31.3479 60.5084 29.5471 58.7076 27.3257 58.7076Z" fill="white"/>
<path d="M27.3257 66.752C25.1043 66.752 23.3035 64.9512 23.3035 62.7298C23.3035 60.5084 25.1043 58.7076 27.3257 58.7076C29.5471 58.7076 31.3479 60.5084 31.3479 62.7298C31.3479 64.9512 29.5471 66.752 27.3257 66.752ZM27.3257 66.752L46.1797 76.5561" stroke="#1A2530" stroke-width="0.635023"/>
<defs>
<linearGradient id="paint0_linear" x1="20.5633" y1="25.8214" x2="70.5504" y2="25.8214" gradientUnits="userSpaceOnUse">
<stop stop-color="#0057FF"/>
<stop offset="0.588542" stop-color="#5AEEFF"/>
<stop offset="1" stop-color="#DEFFDE"/>
</linearGradient>
</defs>
</svg>
