<svg width="538" height="427" viewBox="0 0 538 427" fill="none" xmlns="http://www.w3.org/2000/svg">
<circle cx="113.589" cy="235.589" r="42.8899" transform="rotate(-60 113.589 235.589)" fill="url(#paint0_radial)"/>
<circle cx="113.589" cy="235.589" r="42.8899" transform="rotate(-60 113.589 235.589)" fill="url(#paint1_radial)"/>
<circle cx="113.589" cy="235.589" r="42.8899" transform="rotate(-60 113.589 235.589)" fill="url(#paint2_radial)"/>
<mask id="path-2-inside-1" fill="white">
<path fill-rule="evenodd" clip-rule="evenodd" d="M108.773 227.905C107.171 225.271 104.274 223.511 100.965 223.511C97.1725 223.511 93.9199 225.823 92.5399 229.115C91.7389 228.885 90.8929 228.762 90.0182 228.762C85.6279 228.762 81.9612 231.86 81.0852 235.989C78.623 237.625 77 240.424 77 243.601C77 248.644 81.0884 252.733 86.1318 252.733C86.1699 252.733 86.2079 252.733 86.2459 252.732H120.259C120.447 252.732 120.632 252.723 120.815 252.706C121.048 252.724 121.284 252.733 121.522 252.733C126.565 252.733 130.653 248.644 130.653 243.601C130.653 238.558 126.565 234.469 121.522 234.469C121.459 234.469 121.397 234.47 121.335 234.471C120.49 230.302 116.804 227.163 112.385 227.163C111.102 227.163 109.881 227.427 108.773 227.905Z"/>
</mask>
<path fill-rule="evenodd" clip-rule="evenodd" d="M108.773 227.905C107.171 225.271 104.274 223.511 100.965 223.511C97.1725 223.511 93.9199 225.823 92.5399 229.115C91.7389 228.885 90.8929 228.762 90.0182 228.762C85.6279 228.762 81.9612 231.86 81.0852 235.989C78.623 237.625 77 240.424 77 243.601C77 248.644 81.0884 252.733 86.1318 252.733C86.1699 252.733 86.2079 252.733 86.2459 252.732H120.259C120.447 252.732 120.632 252.723 120.815 252.706C121.048 252.724 121.284 252.733 121.522 252.733C126.565 252.733 130.653 248.644 130.653 243.601C130.653 238.558 126.565 234.469 121.522 234.469C121.459 234.469 121.397 234.47 121.335 234.471C120.49 230.302 116.804 227.163 112.385 227.163C111.102 227.163 109.881 227.427 108.773 227.905Z" fill="white"/>
<path d="M108.773 227.905L107.962 228.399L108.391 229.105L109.149 228.777L108.773 227.905ZM92.5399 229.115L92.278 230.028L93.0896 230.26L93.416 229.482L92.5399 229.115ZM81.0852 235.989L81.6109 236.781L81.934 236.566L82.0146 236.186L81.0852 235.989ZM86.2459 252.732V251.782L86.2342 251.782L86.2459 252.732ZM120.815 252.706L120.888 251.759L120.807 251.753L120.726 251.76L120.815 252.706ZM121.335 234.471L120.404 234.66L120.561 235.437L121.354 235.421L121.335 234.471ZM100.965 224.461C103.928 224.461 106.525 226.036 107.962 228.399L109.585 227.412C107.818 224.505 104.619 222.561 100.965 222.561V224.461ZM93.416 229.482C94.6532 226.531 97.5685 224.461 100.965 224.461V222.561C96.7765 222.561 93.1866 225.115 91.6638 228.747L93.416 229.482ZM90.0182 229.712C90.8035 229.712 91.5614 229.822 92.278 230.028L92.8017 228.201C91.9165 227.948 90.9824 227.812 90.0182 227.812V229.712ZM82.0146 236.186C82.7994 232.487 86.0858 229.712 90.0182 229.712V227.812C85.17 227.812 81.1231 231.233 80.1559 235.792L82.0146 236.186ZM77.95 243.601C77.95 240.755 79.4024 238.248 81.6109 236.781L80.5596 235.198C77.8436 237.002 76.05 240.092 76.05 243.601H77.95ZM86.1318 251.783C81.6131 251.783 77.95 248.12 77.95 243.601H76.05C76.05 249.169 80.5638 253.683 86.1318 253.683V251.783ZM86.2342 251.782C86.2002 251.783 86.166 251.783 86.1318 251.783V253.683C86.1737 253.683 86.2157 253.683 86.2575 253.682L86.2342 251.782ZM120.259 251.782H86.2459V253.682H120.259V251.782ZM120.726 251.76C120.572 251.775 120.417 251.782 120.259 251.782V253.682C120.477 253.682 120.692 253.672 120.905 253.652L120.726 251.76ZM121.522 251.783C121.308 251.783 121.097 251.775 120.888 251.759L120.743 253.653C121 253.673 121.26 253.683 121.522 253.683V251.783ZM129.703 243.601C129.703 248.12 126.04 251.783 121.522 251.783V253.683C127.09 253.683 131.603 249.169 131.603 243.601H129.703ZM121.522 235.419C126.04 235.419 129.703 239.082 129.703 243.601H131.603C131.603 238.033 127.09 233.519 121.522 233.519V235.419ZM121.354 235.421C121.41 235.42 121.466 235.419 121.522 235.419V233.519C121.453 233.519 121.384 233.52 121.316 233.521L121.354 235.421ZM112.385 228.113C116.343 228.113 119.647 230.924 120.404 234.66L122.266 234.283C121.333 229.679 117.265 226.213 112.385 226.213V228.113ZM109.149 228.777C110.141 228.35 111.234 228.113 112.385 228.113V226.213C110.971 226.213 109.622 226.505 108.397 227.033L109.149 228.777Z" fill="#1A2530" mask="url(#path-2-inside-1)"/>
<g style="mix-blend-mode:multiply">
<path d="M113.305 245.511C107.903 246.355 94.6929 246.81 95.9874 250.232C96.7373 252.214 97.9179 252.627 103.12 252.737C108.322 252.848 123.086 254.136 122.033 251.352C121.074 248.817 118.706 244.666 113.305 245.511Z" fill="url(#paint3_linear)"/>
</g>
<circle cx="421.5" cy="340.5" r="86.5" fill="url(#paint4_radial)"/>
<circle cx="421.5" cy="340.5" r="86.5" fill="url(#paint5_radial)"/>
<circle cx="421.5" cy="340.5" r="86.5" fill="url(#paint6_radial)"/>
<mask id="path-6-inside-2" fill="white">
<path fill-rule="evenodd" clip-rule="evenodd" d="M431.953 322.663C430.351 320.028 427.454 318.269 424.145 318.269C420.352 318.269 417.1 320.581 415.72 323.872C414.919 323.642 414.073 323.519 413.198 323.519C408.808 323.519 405.141 326.617 404.265 330.746C401.803 332.382 400.18 335.181 400.18 338.358C400.18 343.402 404.268 347.49 409.311 347.49C409.336 347.49 409.36 347.49 409.384 347.49C409.397 347.49 409.41 347.49 409.423 347.49H443.439C443.628 347.49 443.814 347.481 443.998 347.463C444.23 347.481 444.465 347.49 444.701 347.49C449.745 347.49 453.833 343.402 453.833 338.358C453.833 333.315 449.745 329.226 444.701 329.226C444.639 329.226 444.577 329.227 444.515 329.228C443.669 325.059 439.984 321.921 435.565 321.921C434.282 321.921 433.061 322.186 431.953 322.663Z"/>
</mask>
<path fill-rule="evenodd" clip-rule="evenodd" d="M431.953 322.663C430.351 320.028 427.454 318.269 424.145 318.269C420.352 318.269 417.1 320.581 415.72 323.872C414.919 323.642 414.073 323.519 413.198 323.519C408.808 323.519 405.141 326.617 404.265 330.746C401.803 332.382 400.18 335.181 400.18 338.358C400.18 343.402 404.268 347.49 409.311 347.49C409.336 347.49 409.36 347.49 409.384 347.49C409.397 347.49 409.41 347.49 409.423 347.49H443.439C443.628 347.49 443.814 347.481 443.998 347.463C444.23 347.481 444.465 347.49 444.701 347.49C449.745 347.49 453.833 343.402 453.833 338.358C453.833 333.315 449.745 329.226 444.701 329.226C444.639 329.226 444.577 329.227 444.515 329.228C443.669 325.059 439.984 321.921 435.565 321.921C434.282 321.921 433.061 322.186 431.953 322.663Z" fill="white"/>
<path d="M431.953 322.663L431.142 323.157L431.571 323.863L432.329 323.535L431.953 322.663ZM415.72 323.872L415.458 324.785L416.269 325.018L416.596 324.239L415.72 323.872ZM404.265 330.746L404.791 331.538L405.114 331.323L405.194 330.943L404.265 330.746ZM409.384 347.49L409.39 346.54L409.377 346.54L409.384 347.49ZM443.998 347.463L444.07 346.516L443.989 346.51L443.908 346.518L443.998 347.463ZM444.515 329.228L443.584 329.417L443.741 330.194L444.534 330.178L444.515 329.228ZM424.145 319.219C427.108 319.219 429.705 320.794 431.142 323.157L432.765 322.17C430.998 319.263 427.799 317.319 424.145 317.319V319.219ZM416.596 324.239C417.833 321.288 420.748 319.219 424.145 319.219V317.319C419.956 317.319 416.366 319.873 414.843 323.505L416.596 324.239ZM413.198 324.469C413.983 324.469 414.741 324.58 415.458 324.785L415.981 322.959C415.096 322.705 414.162 322.569 413.198 322.569V324.469ZM405.194 330.943C405.979 327.244 409.266 324.469 413.198 324.469V322.569C408.35 322.569 404.303 325.99 403.336 330.549L405.194 330.943ZM401.13 338.358C401.13 335.512 402.582 333.005 404.791 331.538L403.739 329.955C401.023 331.759 399.23 334.849 399.23 338.358H401.13ZM409.311 346.54C404.793 346.54 401.13 342.877 401.13 338.358H399.23C399.23 343.926 403.743 348.44 409.311 348.44V346.54ZM409.377 346.54C409.355 346.54 409.333 346.54 409.311 346.54V348.44C409.338 348.44 409.365 348.44 409.391 348.44L409.377 346.54ZM409.423 346.54C409.412 346.54 409.401 346.54 409.39 346.54L409.378 348.44C409.393 348.44 409.408 348.44 409.423 348.44V346.54ZM443.439 346.54H409.423V348.44H443.439V346.54ZM443.908 346.518C443.754 346.532 443.597 346.54 443.439 346.54V348.44C443.658 348.44 443.874 348.429 444.088 348.409L443.908 346.518ZM444.701 346.54C444.489 346.54 444.278 346.532 444.07 346.516L443.926 348.411C444.182 348.43 444.441 348.44 444.701 348.44V346.54ZM452.883 338.358C452.883 342.877 449.22 346.54 444.701 346.54V348.44C450.269 348.44 454.783 343.926 454.783 338.358H452.883ZM444.701 330.176C449.22 330.176 452.883 333.839 452.883 338.358H454.783C454.783 332.79 450.269 328.276 444.701 328.276V330.176ZM444.534 330.178C444.589 330.177 444.645 330.176 444.701 330.176V328.276C444.633 328.276 444.564 328.277 444.496 328.278L444.534 330.178ZM435.565 322.871C439.523 322.871 442.826 325.682 443.584 329.417L445.446 329.039C444.512 324.436 440.444 320.971 435.565 320.971V322.871ZM432.329 323.535C433.321 323.108 434.414 322.871 435.565 322.871V320.971C434.15 320.971 432.802 321.263 431.577 321.791L432.329 323.535Z" fill="#1A2530" mask="url(#path-6-inside-2)"/>
<g style="mix-blend-mode:multiply">
<path d="M439.431 341.288C434.034 341.908 420.828 342.191 422.139 344.82C422.899 346.343 424.081 346.665 429.283 346.776C434.485 346.887 449.254 347.948 448.187 345.809C447.216 343.861 444.827 340.667 439.431 341.288Z" fill="url(#paint7_linear)"/>
</g>
<circle cx="435.5" cy="86.5" r="86.5" fill="url(#paint8_radial)"/>
<circle cx="435.5" cy="86.5" r="86.5" fill="url(#paint9_radial)"/>
<circle cx="435.5" cy="86.5" r="86.5" fill="url(#paint10_radial)"/>
<mask id="path-10-inside-3" fill="white">
<path fill-rule="evenodd" clip-rule="evenodd" d="M430.773 84.3941C429.171 81.7596 426.274 80 422.965 80C419.172 80 415.92 82.3121 414.54 85.6036C413.739 85.3739 412.893 85.2509 412.018 85.2509C407.628 85.2509 403.961 88.3491 403.085 92.4783C400.623 94.114 399 96.9126 399 100.09C399 105.133 403.088 109.222 408.132 109.222C408.17 109.222 408.208 109.222 408.246 109.221H442.259C442.447 109.221 442.632 109.212 442.815 109.195C443.048 109.213 443.284 109.222 443.522 109.222C448.565 109.222 452.653 105.133 452.653 100.09C452.653 95.0468 448.565 90.9584 443.522 90.9584C443.459 90.9584 443.397 90.959 443.335 90.9602C442.49 86.7906 438.804 83.6519 434.385 83.6519C433.102 83.6519 431.881 83.9165 430.773 84.3941Z"/>
</mask>
<path fill-rule="evenodd" clip-rule="evenodd" d="M430.773 84.3941C429.171 81.7596 426.274 80 422.965 80C419.172 80 415.92 82.3121 414.54 85.6036C413.739 85.3739 412.893 85.2509 412.018 85.2509C407.628 85.2509 403.961 88.3491 403.085 92.4783C400.623 94.114 399 96.9126 399 100.09C399 105.133 403.088 109.222 408.132 109.222C408.17 109.222 408.208 109.222 408.246 109.221H442.259C442.447 109.221 442.632 109.212 442.815 109.195C443.048 109.213 443.284 109.222 443.522 109.222C448.565 109.222 452.653 105.133 452.653 100.09C452.653 95.0468 448.565 90.9584 443.522 90.9584C443.459 90.9584 443.397 90.959 443.335 90.9602C442.49 86.7906 438.804 83.6519 434.385 83.6519C433.102 83.6519 431.881 83.9165 430.773 84.3941Z" fill="white"/>
<path d="M430.773 84.3941L429.962 84.8877L430.391 85.5935L431.149 85.2665L430.773 84.3941ZM414.54 85.6036L414.278 86.5168L415.09 86.7495L415.416 85.9709L414.54 85.6036ZM403.085 92.4783L403.611 93.2696L403.934 93.055L404.015 92.6755L403.085 92.4783ZM408.246 109.221V108.271L408.234 108.271L408.246 109.221ZM442.815 109.195L442.888 108.248L442.807 108.242L442.726 108.249L442.815 109.195ZM443.335 90.9602L442.404 91.1489L442.561 91.9259L443.354 91.91L443.335 90.9602ZM422.965 80.95C425.928 80.95 428.525 82.5248 429.962 84.8877L431.585 83.9005C429.818 80.9945 426.619 79.05 422.965 79.05V80.95ZM415.416 85.9709C416.653 83.0199 419.569 80.95 422.965 80.95V79.05C418.776 79.05 415.187 81.6042 413.664 85.2363L415.416 85.9709ZM412.018 86.2009C412.803 86.2009 413.561 86.3113 414.278 86.5168L414.802 84.6904C413.916 84.4366 412.982 84.3009 412.018 84.3009V86.2009ZM404.015 92.6755C404.799 88.9761 408.086 86.2009 412.018 86.2009V84.3009C407.17 84.3009 403.123 87.7221 402.156 92.2812L404.015 92.6755ZM399.95 100.09C399.95 97.244 401.402 94.7368 403.611 93.2696L402.56 91.687C399.844 93.4913 398.05 96.5811 398.05 100.09H399.95ZM408.132 108.272C403.613 108.272 399.95 104.609 399.95 100.09H398.05C398.05 105.658 402.564 110.172 408.132 110.172V108.272ZM408.234 108.271C408.2 108.272 408.166 108.272 408.132 108.272V110.172C408.174 110.172 408.216 110.172 408.258 110.171L408.234 108.271ZM442.259 108.271H408.246V110.171H442.259V108.271ZM442.726 108.249C442.572 108.264 442.417 108.271 442.259 108.271V110.171C442.477 110.171 442.692 110.161 442.905 110.141L442.726 108.249ZM443.522 108.272C443.308 108.272 443.097 108.264 442.888 108.248L442.743 110.142C443 110.162 443.26 110.172 443.522 110.172V108.272ZM451.703 100.09C451.703 104.609 448.04 108.272 443.522 108.272V110.172C449.09 110.172 453.603 105.658 453.603 100.09H451.703ZM443.522 91.9084C448.04 91.9084 451.703 95.5715 451.703 100.09H453.603C453.603 94.5221 449.09 90.0084 443.522 90.0084V91.9084ZM443.354 91.91C443.41 91.9089 443.466 91.9084 443.522 91.9084V90.0084C443.453 90.0084 443.384 90.0091 443.316 90.0104L443.354 91.91ZM434.385 84.6019C438.343 84.6019 441.647 87.4134 442.404 91.1489L444.266 90.7715C443.333 86.1677 439.265 82.7019 434.385 82.7019V84.6019ZM431.149 85.2665C432.141 84.8391 433.234 84.6019 434.385 84.6019V82.7019C432.971 82.7019 431.622 82.9938 430.397 83.5217L431.149 85.2665Z" fill="#1A2530" mask="url(#path-10-inside-3)"/>
<g style="mix-blend-mode:multiply">
<path d="M439.431 103.477C434.034 104.098 420.828 104.381 422.139 107.01C422.899 108.533 424.081 108.855 429.283 108.966C434.485 109.076 449.254 110.137 448.187 107.998C447.216 106.05 444.827 102.857 439.431 103.477Z" fill="url(#paint11_linear)"/>
</g>
<circle opacity="0.5" cx="247.305" cy="333.284" r="6.22521" transform="rotate(-30 247.305 333.284)" fill="url(#paint12_linear)"/>
<circle cx="247.305" cy="333.284" r="6.22521" transform="rotate(-30 247.305 333.284)" fill="white"/>
<path d="M237.87 130.303V136.081C237.87 136.227 237.751 136.346 237.605 136.346H231.952C231.805 136.346 231.687 136.227 231.687 136.081V128.496C231.687 128.349 231.805 128.23 231.952 128.23H237.605C237.751 128.23 237.87 128.349 237.87 128.496V129.992" fill="white"/>
<path d="M237.87 130.303V136.081C237.87 136.227 237.751 136.346 237.605 136.346H231.952C231.805 136.346 231.687 136.227 231.687 136.081V128.496C231.687 128.349 231.805 128.23 231.952 128.23H237.605C237.751 128.23 237.87 128.349 237.87 128.496V129.992" stroke="black" stroke-width="1.32459" stroke-miterlimit="10"/>
<path d="M263.762 130.303V136.081C263.762 136.227 263.643 136.346 263.496 136.346H257.844C257.697 136.346 257.578 136.227 257.578 136.081V128.496C257.578 128.349 257.697 128.23 257.844 128.23H263.496C263.643 128.23 263.762 128.349 263.762 128.496V129.992" fill="white"/>
<path d="M263.762 130.303V136.081C263.762 136.227 263.643 136.346 263.496 136.346H257.844C257.697 136.346 257.578 136.227 257.578 136.081V128.496C257.578 128.349 257.697 128.23 257.844 128.23H263.496C263.643 128.23 263.762 128.349 263.762 128.496V129.992" stroke="black" stroke-width="1.32459" stroke-miterlimit="10"/>
<path d="M250.236 237.141V252.416C250.236 252.562 250.117 252.681 249.97 252.681H244.317C244.171 252.681 244.052 252.562 244.052 252.416V232.077C244.052 231.93 244.171 231.811 244.317 231.811H249.97C250.117 231.811 250.236 231.93 250.236 232.077V236.343" fill="white"/>
<path d="M250.236 237.141V252.416C250.236 252.562 250.117 252.681 249.97 252.681H244.317C244.171 252.681 244.052 252.562 244.052 252.416V232.077C244.052 231.93 244.171 231.811 244.317 231.811H249.97C250.117 231.811 250.236 231.93 250.236 232.077V236.343" stroke="black" stroke-width="1.32459" stroke-miterlimit="10"/>
<mask id="path-21-inside-4" fill="white">
<path fill-rule="evenodd" clip-rule="evenodd" d="M202.614 379.022C201.995 378.004 200.875 377.324 199.596 377.324C198.13 377.324 196.873 378.217 196.34 379.489C196.029 379.4 195.701 379.352 195.362 379.352C193.665 379.352 192.247 380.55 191.909 382.147C190.959 382.779 190.332 383.86 190.332 385.088C190.332 387.037 191.912 388.617 193.861 388.617C193.873 388.617 193.884 388.617 193.895 388.617C193.898 388.617 193.9 388.617 193.903 388.617H207.05C207.122 388.617 207.195 388.613 207.266 388.607C207.356 388.614 207.447 388.617 207.539 388.617C209.488 388.617 211.068 387.037 211.068 385.088C211.068 383.139 209.488 381.558 207.539 381.558C207.515 381.558 207.491 381.559 207.468 381.559C207.141 379.948 205.717 378.736 204.009 378.736C203.513 378.736 203.042 378.838 202.614 379.022Z"/>
</mask>
<path fill-rule="evenodd" clip-rule="evenodd" d="M202.614 379.022C201.995 378.004 200.875 377.324 199.596 377.324C198.13 377.324 196.873 378.217 196.34 379.489C196.029 379.4 195.701 379.352 195.362 379.352C193.665 379.352 192.247 380.55 191.909 382.147C190.959 382.779 190.332 383.86 190.332 385.088C190.332 387.037 191.912 388.617 193.861 388.617C193.873 388.617 193.884 388.617 193.895 388.617C193.898 388.617 193.9 388.617 193.903 388.617H207.05C207.122 388.617 207.195 388.613 207.266 388.607C207.356 388.614 207.447 388.617 207.539 388.617C209.488 388.617 211.068 387.037 211.068 385.088C211.068 383.139 209.488 381.558 207.539 381.558C207.515 381.558 207.491 381.559 207.468 381.559C207.141 379.948 205.717 378.736 204.009 378.736C203.513 378.736 203.042 378.838 202.614 379.022Z" fill="white"/>
<path d="M202.614 379.022L201.482 379.71L202.08 380.695L203.138 380.239L202.614 379.022ZM196.34 379.489L195.973 380.762L197.106 381.088L197.561 380.001L196.34 379.489ZM191.909 382.147L192.643 383.25L193.093 382.95L193.205 382.421L191.909 382.147ZM193.895 388.617L193.9 387.292L193.891 387.292L193.883 387.292L193.895 388.617ZM207.266 388.607L207.367 387.286L207.253 387.277L207.14 387.288L207.266 388.607ZM207.468 381.559L206.17 381.823L206.389 382.905L207.494 382.883L207.468 381.559ZM199.596 378.648C200.393 378.648 201.093 379.071 201.482 379.71L203.745 378.334C202.896 376.937 201.356 375.999 199.596 375.999V378.648ZM197.561 380.001C197.895 379.204 198.682 378.648 199.596 378.648V375.999C197.578 375.999 195.851 377.23 195.118 378.977L197.561 380.001ZM195.362 380.676C195.576 380.676 195.781 380.706 195.973 380.762L196.706 378.216C196.278 378.093 195.826 378.027 195.362 378.027V380.676ZM193.205 382.421C193.416 381.424 194.303 380.676 195.362 380.676V378.027C193.026 378.027 191.078 379.676 190.613 381.873L193.205 382.421ZM191.657 385.088C191.657 384.322 192.046 383.647 192.643 383.25L191.176 381.044C189.871 381.912 189.007 383.398 189.007 385.088H191.657ZM193.861 387.292C192.644 387.292 191.657 386.305 191.657 385.088H189.007C189.007 387.768 191.181 389.942 193.861 389.942V387.292ZM193.883 387.292C193.876 387.292 193.868 387.292 193.861 387.292V389.942C193.877 389.942 193.892 389.942 193.908 389.941L193.883 387.292ZM193.903 387.292C193.902 387.292 193.901 387.292 193.9 387.292L193.891 389.941C193.895 389.941 193.899 389.941 193.903 389.941V387.292ZM207.05 387.292H193.903V389.941H207.05V387.292ZM207.14 387.288C207.111 387.291 207.08 387.292 207.05 387.292V389.941C207.165 389.941 207.279 389.936 207.392 389.925L207.14 387.288ZM207.539 387.292C207.481 387.292 207.423 387.29 207.367 387.286L207.165 389.927C207.288 389.937 207.413 389.942 207.539 389.942V387.292ZM209.744 385.088C209.744 386.305 208.757 387.292 207.539 387.292V389.942C210.22 389.942 212.393 387.768 212.393 385.088H209.744ZM207.539 382.883C208.757 382.883 209.744 383.87 209.744 385.088H212.393C212.393 382.407 210.22 380.234 207.539 380.234V382.883ZM207.494 382.883C207.509 382.883 207.524 382.883 207.539 382.883V380.234C207.506 380.234 207.474 380.234 207.442 380.235L207.494 382.883ZM204.009 380.06C205.074 380.06 205.965 380.817 206.17 381.823L208.766 381.296C208.316 379.08 206.359 377.411 204.009 377.411V380.06ZM203.138 380.239C203.403 380.124 203.697 380.06 204.009 380.06V377.411C203.33 377.411 202.68 377.551 202.089 377.806L203.138 380.239Z" fill="black" mask="url(#path-21-inside-4)"/>
<mask id="path-23-inside-5" fill="white">
<path fill-rule="evenodd" clip-rule="evenodd" d="M289.641 312.457C289.022 311.438 287.902 310.758 286.623 310.758C285.157 310.758 283.9 311.651 283.367 312.923C283.057 312.834 282.729 312.786 282.389 312.786C280.692 312.786 279.274 313.984 278.937 315.581C277.986 316.214 277.359 317.295 277.359 318.522C277.359 320.471 278.939 322.051 280.889 322.051C280.9 322.051 280.911 322.051 280.923 322.051C280.925 322.051 280.928 322.051 280.93 322.051H294.077C294.15 322.051 294.222 322.048 294.293 322.041C294.383 322.048 294.474 322.051 294.566 322.051C296.515 322.051 298.096 320.471 298.096 318.522C298.096 316.573 296.515 314.993 294.566 314.993C294.542 314.993 294.519 314.993 294.495 314.993C294.168 313.383 292.744 312.17 291.036 312.17C290.541 312.17 290.069 312.272 289.641 312.457Z"/>
</mask>
<path fill-rule="evenodd" clip-rule="evenodd" d="M289.641 312.457C289.022 311.438 287.902 310.758 286.623 310.758C285.157 310.758 283.9 311.651 283.367 312.923C283.057 312.834 282.729 312.786 282.389 312.786C280.692 312.786 279.274 313.984 278.937 315.581C277.986 316.214 277.359 317.295 277.359 318.522C277.359 320.471 278.939 322.051 280.889 322.051C280.9 322.051 280.911 322.051 280.923 322.051C280.925 322.051 280.928 322.051 280.93 322.051H294.077C294.15 322.051 294.222 322.048 294.293 322.041C294.383 322.048 294.474 322.051 294.566 322.051C296.515 322.051 298.096 320.471 298.096 318.522C298.096 316.573 296.515 314.993 294.566 314.993C294.542 314.993 294.519 314.993 294.495 314.993C294.168 313.383 292.744 312.17 291.036 312.17C290.541 312.17 290.069 312.272 289.641 312.457Z" fill="white"/>
<path d="M289.641 312.457L288.509 313.145L289.107 314.129L290.165 313.673L289.641 312.457ZM283.367 312.923L283.001 314.196L284.133 314.522L284.588 313.436L283.367 312.923ZM278.937 315.581L279.67 316.684L280.121 316.385L280.232 315.855L278.937 315.581ZM280.923 322.051L280.927 320.727L280.919 320.727L280.91 320.727L280.923 322.051ZM294.293 322.041L294.394 320.72L294.281 320.712L294.167 320.722L294.293 322.041ZM294.495 314.993L293.197 315.257L293.417 316.34L294.521 316.318L294.495 314.993ZM286.623 312.083C287.42 312.083 288.12 312.505 288.509 313.145L290.773 311.769C289.923 310.371 288.383 309.433 286.623 309.433V312.083ZM284.588 313.436C284.923 312.638 285.71 312.083 286.623 312.083V309.433C284.605 309.433 282.878 310.664 282.146 312.411L284.588 313.436ZM282.389 314.111C282.603 314.111 282.808 314.141 283.001 314.196L283.733 311.65C283.305 311.527 282.854 311.461 282.389 311.461V314.111ZM280.232 315.855C280.443 314.858 281.331 314.111 282.389 314.111V311.461C280.053 311.461 278.105 313.111 277.641 315.307L280.232 315.855ZM278.684 318.522C278.684 317.757 279.073 317.081 279.67 316.684L278.203 314.478C276.899 315.346 276.035 316.833 276.035 318.522H278.684ZM280.889 320.727C279.671 320.727 278.684 319.74 278.684 318.522H276.035C276.035 321.203 278.208 323.376 280.889 323.376V320.727ZM280.91 320.727C280.903 320.727 280.896 320.727 280.889 320.727V323.376C280.904 323.376 280.92 323.376 280.935 323.376L280.91 320.727ZM280.93 320.727C280.929 320.727 280.928 320.727 280.927 320.727L280.918 323.376C280.922 323.376 280.926 323.376 280.93 323.376V320.727ZM294.077 320.727H280.93V323.376H294.077V320.727ZM294.167 320.722C294.138 320.725 294.108 320.727 294.077 320.727V323.376C294.192 323.376 294.306 323.37 294.419 323.36L294.167 320.722ZM294.566 320.727C294.508 320.727 294.451 320.725 294.394 320.72L294.192 323.362C294.316 323.371 294.441 323.376 294.566 323.376V320.727ZM296.771 318.522C296.771 319.74 295.784 320.727 294.566 320.727V323.376C297.247 323.376 299.42 321.203 299.42 318.522H296.771ZM294.566 316.317C295.784 316.317 296.771 317.304 296.771 318.522H299.42C299.42 315.841 297.247 313.668 294.566 313.668V316.317ZM294.521 316.318C294.536 316.318 294.551 316.317 294.566 316.317V313.668C294.534 313.668 294.501 313.669 294.469 313.669L294.521 316.318ZM291.036 313.495C292.101 313.495 292.993 314.251 293.197 315.257L295.793 314.73C295.343 312.514 293.386 310.845 291.036 310.845V313.495ZM290.165 313.673C290.431 313.559 290.724 313.495 291.036 313.495V310.845C290.357 310.845 289.707 310.986 289.117 311.24L290.165 313.673Z" fill="black" mask="url(#path-23-inside-5)"/>
<path d="M250.236 303.311V316.571C250.236 316.718 250.117 316.837 249.97 316.837H244.317C244.171 316.837 244.052 316.718 244.052 316.571V298.937C244.052 298.791 244.171 298.672 244.317 298.672H249.97C250.117 298.672 250.236 298.791 250.236 298.937V302.616" fill="white"/>
<path d="M250.236 303.311V316.571C250.236 316.718 250.117 316.837 249.97 316.837H244.317C244.171 316.837 244.052 316.718 244.052 316.571V298.937C244.052 298.791 244.171 298.672 244.317 298.672H249.97C250.117 298.672 250.236 298.791 250.236 298.937V302.616" stroke="black" stroke-width="1.32459" stroke-miterlimit="10"/>
<path d="M250.236 351.983V361.789C250.236 361.936 250.117 362.055 249.97 362.055H244.317C244.171 362.055 244.052 361.936 244.052 361.789V348.794C244.052 348.647 244.171 348.528 244.317 348.528H249.97C250.117 348.528 250.236 348.647 250.236 348.794V351.465" fill="white"/>
<path d="M250.236 351.983V361.789C250.236 361.936 250.117 362.055 249.97 362.055H244.317C244.171 362.055 244.052 361.936 244.052 361.789V348.794C244.052 348.647 244.171 348.528 244.317 348.528H249.97C250.117 348.528 250.236 348.647 250.236 348.794V351.465" stroke="black" stroke-width="1.32459" stroke-miterlimit="10"/>
<path d="M226.319 252.681L221.638 252.681C221.211 252.681 220.865 253.027 220.865 253.454L220.865 288.237C220.865 288.664 221.211 289.01 221.638 289.01L272.654 289.01C273.081 289.01 273.427 288.664 273.427 288.237L273.427 253.454C273.427 253.027 273.081 252.681 272.654 252.681L227.807 252.681" stroke="black" stroke-width="1.32459" stroke-miterlimit="10"/>
<path d="M226.319 362.054L221.927 362.054C221.34 362.054 220.865 362.53 220.865 363.117L220.865 396.935C220.865 397.522 221.34 397.997 221.927 397.997L272.365 397.997C272.951 397.997 273.427 397.522 273.427 396.935L273.427 363.117C273.427 362.53 272.951 362.054 272.365 362.054L227.807 362.054" stroke="black" stroke-width="1.32459" stroke-miterlimit="10"/>
<mask id="path-31-inside-6" fill="white">
<rect x="235.551" y="276.707" width="23.2132" height="23.2132" rx="0.772968"/>
</mask>
<rect x="235.551" y="276.707" width="23.2132" height="23.2132" rx="0.772968" fill="white" stroke="black" stroke-width="2.64918" mask="url(#path-31-inside-6)"/>
<mask id="path-32-inside-7" fill="white">
<rect x="237.762" y="278.915" width="18.7916" height="18.7916" rx="0.772968"/>
</mask>
<rect x="237.762" y="278.915" width="18.7916" height="18.7916" rx="0.772968" fill="white" stroke="black" stroke-width="2.64918" stroke-dasharray="0.65 0.65" mask="url(#path-32-inside-7)"/>
<rect x="257.639" y="370.512" width="10.2605" height="19.2747" rx="1.36362" stroke="black" stroke-width="1.32459"/>
<line x1="261.983" y1="371.453" x2="263.551" y2="371.453" stroke="black" stroke-width="1.32459"/>
<mask id="path-35-inside-8" fill="white">
<rect x="258.771" y="372.822" width="8.07365" height="14.1093" rx="0.175331"/>
</mask>
<rect x="258.771" y="372.822" width="8.07365" height="14.1093" rx="0.175331" stroke="black" stroke-width="2.64918" mask="url(#path-35-inside-8)"/>
<path d="M227.188 368.648C227.188 368.432 227.364 368.257 227.58 368.257H255.817C256.033 368.257 256.208 368.432 256.208 368.648V385.191V389.033C256.208 389.249 256.033 389.424 255.817 389.424H227.58C227.364 389.424 227.188 389.249 227.188 389.033V385.191V368.648Z" stroke="black" stroke-width="1.32459"/>
<path d="M229.425 370.479C229.425 370.263 229.6 370.088 229.816 370.088H253.589C253.805 370.088 253.98 370.263 253.98 370.479V384.077V387.183C253.98 387.399 253.805 387.574 253.589 387.574H229.816C229.6 387.574 229.425 387.399 229.425 387.183V384.077V370.479Z" stroke="black" stroke-width="1.32459"/>
<path d="M238.972 389.424V388.762H238.603L238.409 389.075L238.972 389.424ZM245.117 389.424L245.679 389.075L245.485 388.762H245.117V389.424ZM238.306 390.495V391.158C238.535 391.158 238.747 391.039 238.868 390.845L238.306 390.495ZM245.783 390.495L245.22 390.845C245.341 391.039 245.554 391.158 245.783 391.158V390.495ZM238.972 390.086H245.117V388.762H238.972V390.086ZM238.868 390.845L239.534 389.774L238.409 389.075L237.743 390.146L238.868 390.845ZM238.306 389.833H234.055V391.158H238.306V389.833ZM234.055 389.833C233.794 389.833 233.527 389.874 233.301 389.965C233.189 390.01 233.055 390.08 232.938 390.192C232.819 390.305 232.676 390.505 232.676 390.784H234C234 390.983 233.897 391.107 233.851 391.151C233.806 391.194 233.777 391.202 233.795 391.194C233.828 391.181 233.92 391.158 234.055 391.158V389.833ZM232.676 390.784V391.525H234V390.784H232.676ZM232.676 391.525C232.676 391.805 232.819 392.005 232.938 392.118C233.055 392.229 233.189 392.299 233.301 392.344C233.527 392.435 233.794 392.476 234.055 392.476V391.152C233.92 391.152 233.828 391.128 233.795 391.115C233.777 391.108 233.806 391.115 233.851 391.158C233.897 391.202 234 391.326 234 391.525H232.676ZM234.055 392.476H250.033V391.152H234.055V392.476ZM250.033 392.476C250.294 392.476 250.561 392.435 250.787 392.344C250.898 392.299 251.032 392.229 251.15 392.118C251.268 392.005 251.412 391.805 251.412 391.525H250.087C250.087 391.326 250.191 391.202 250.237 391.158C250.281 391.115 250.311 391.108 250.292 391.115C250.259 391.128 250.167 391.152 250.033 391.152V392.476ZM251.412 391.525V390.784H250.087V391.525H251.412ZM251.412 390.784C251.412 390.505 251.268 390.305 251.15 390.192C251.032 390.08 250.898 390.01 250.787 389.965C250.561 389.874 250.294 389.833 250.033 389.833V391.158C250.167 391.158 250.259 391.181 250.292 391.194C250.311 391.202 250.281 391.194 250.237 391.151C250.191 391.107 250.087 390.983 250.087 390.784H251.412ZM250.033 389.833H245.783V391.158H250.033V389.833ZM244.554 389.774L245.22 390.845L246.345 390.146L245.679 389.075L244.554 389.774Z" fill="black"/>
<path d="M252.056 113.16L250.115 113.16C249.969 113.16 249.85 113.279 249.85 113.426L249.85 127.968C249.85 128.114 249.969 128.233 250.115 128.233L270.841 128.233C270.988 128.233 271.106 128.114 271.106 127.968L271.106 113.426C271.106 113.279 270.988 113.16 270.841 113.16L253.316 113.16" stroke="black" stroke-width="1.32459" stroke-miterlimit="10"/>
<path d="M250.236 184.579V199.853C250.236 200 250.117 200.118 249.97 200.118H244.317C244.171 200.118 244.052 200 244.052 199.853V179.514C244.052 179.367 244.171 179.248 244.317 179.248H249.97C250.117 179.248 250.236 179.367 250.236 179.514V183.78" fill="white"/>
<path d="M250.236 184.579V199.853C250.236 200 250.117 200.118 249.97 200.118H244.317C244.171 200.118 244.052 200 244.052 199.853V179.514C244.052 179.367 244.171 179.248 244.317 179.248H249.97C250.117 179.248 250.236 179.367 250.236 179.514V183.78" stroke="black" stroke-width="1.32459" stroke-miterlimit="10"/>
<path d="M220.865 137.125C220.865 136.698 221.211 136.352 221.638 136.352H272.654C273.081 136.352 273.427 136.698 273.427 137.125V174.178C273.427 174.302 273.397 174.424 273.34 174.534L270.309 180.38C270.176 180.637 269.912 180.797 269.623 180.797H224.666C224.377 180.797 224.112 180.636 223.98 180.38L220.952 174.534C220.895 174.424 220.865 174.302 220.865 174.178V137.125Z" fill="white" stroke="black" stroke-width="1.32459" stroke-miterlimit="10"/>
<path d="M223.847 163.128V139.717H251.784H270.446V163.128H251.784H223.847Z" stroke="black" stroke-width="1.32459"/>
<path d="M226.161 113.16L224.221 113.16C224.074 113.16 223.955 113.279 223.955 113.426L223.955 127.968C223.955 128.114 224.074 128.233 224.221 128.233L234.584 128.233L244.946 128.233C245.093 128.233 245.212 128.114 245.212 127.968L245.212 113.426C245.212 113.279 245.093 113.16 244.946 113.16L227.421 113.16" stroke="black" stroke-width="1.32459" stroke-miterlimit="10"/>
<path d="M253.373 231.423L221.638 231.423C221.211 231.423 220.865 231.077 220.865 230.65L220.865 201.277C220.865 200.85 221.211 200.504 221.638 200.504L272.654 200.504C273.081 200.504 273.427 200.85 273.427 201.277L273.427 230.65C273.427 231.077 273.081 231.423 272.654 231.423L256.378 231.423" fill="white"/>
<path d="M253.373 231.423L221.638 231.423C221.211 231.423 220.865 231.077 220.865 230.65L220.865 201.277C220.865 200.85 221.211 200.504 221.638 200.504L272.654 200.504C273.081 200.504 273.427 200.85 273.427 201.277L273.427 230.65C273.427 231.077 273.081 231.423 272.654 231.423L256.378 231.423" stroke="black" stroke-width="1.32459" stroke-miterlimit="10"/>
<path d="M225.117 205.146H258.741" stroke="black" stroke-width="1.32459" stroke-miterlimit="10" stroke-linecap="round"/>
<path d="M225.117 209.396H261.447" stroke="black" stroke-width="1.32459" stroke-miterlimit="10" stroke-linecap="round"/>
<path d="M264.29 212.761H255.976C255.67 212.761 255.422 213.009 255.422 213.315C255.422 213.621 255.67 213.869 255.976 213.869H264.29C264.596 213.869 264.844 213.621 264.844 213.315C264.844 213.009 264.596 212.761 264.29 212.761Z" fill="white" stroke="black" stroke-width="1.32459" stroke-miterlimit="10"/>
<circle cx="247.037" cy="216.014" r="17.5562" fill="white" stroke="black" stroke-width="1.32459"/>
<circle cx="246.907" cy="215.879" r="15.2054" fill="white" stroke="black" stroke-width="1.32459" stroke-dasharray="0.48 0.48"/>
<circle cx="247.161" cy="212.725" r="1.52083" fill="white" stroke="black" stroke-width="1.32459"/>
<mask id="path-53-inside-9" fill="white">
<path d="M247.161 216.163C244.991 216.163 243.231 218.342 243.231 221.031H251.091C251.091 218.342 249.331 216.163 247.161 216.163Z"/>
</mask>
<path d="M243.231 221.031H241.907V222.356H243.231V221.031ZM251.091 221.031V222.356H252.415V221.031H251.091ZM244.556 221.031C244.556 218.795 245.973 217.487 247.161 217.487V214.838C244.008 214.838 241.907 217.89 241.907 221.031H244.556ZM247.161 217.487C248.349 217.487 249.766 218.795 249.766 221.031H252.415C252.415 217.89 250.314 214.838 247.161 214.838V217.487ZM251.091 219.706H243.231V222.356H251.091V219.706Z" fill="black" mask="url(#path-53-inside-9)"/>
<path d="M261.16 118.569C261.489 118.327 262.36 117.974 262.13 117.49C261.997 117.209 261.9 117.172 261.545 117.267C261.19 117.363 260.325 118.167 260.512 118.562C260.683 118.921 260.831 118.812 261.16 118.569Z" fill="url(#paint13_linear)"/>
<path d="M261.16 118.569C261.489 118.327 262.36 117.974 262.13 117.49C261.997 117.209 261.9 117.172 261.545 117.267C261.19 117.363 260.325 118.167 260.512 118.562C260.683 118.921 260.831 118.812 261.16 118.569Z" fill="white"/>
<path d="M259.991 121.834C259.662 122.077 258.79 122.429 259.02 122.914C259.153 123.194 259.25 123.231 259.605 123.136C259.961 123.04 260.825 122.236 260.638 121.841C260.468 121.482 260.32 121.591 259.991 121.834Z" fill="url(#paint14_linear)"/>
<path d="M259.991 121.834C259.662 122.077 258.79 122.429 259.02 122.914C259.153 123.194 259.25 123.231 259.605 123.136C259.961 123.04 260.825 122.236 260.638 121.841C260.468 121.482 260.32 121.591 259.991 121.834Z" fill="white"/>
<path d="M256.344 115.092L255.488 115.092C255.363 115.092 255.261 115.194 255.261 115.319L255.261 125.3C255.261 125.426 255.363 125.527 255.488 125.527L265.469 125.527C265.595 125.527 265.696 125.426 265.696 125.3L265.696 115.319C265.696 115.194 265.595 115.092 265.469 115.092L256.963 115.092" stroke="black" stroke-width="1.32459" stroke-miterlimit="10" stroke-dasharray="0.32 0.32"/>
<path d="M257.58 123.329C257.58 123.329 257.261 122.459 257.406 121.621M263.498 117.411C263.498 117.411 263.8 118.231 263.684 119.047M257.876 120.666L258.841 121.631M257.876 120.666C257.605 120.937 257.466 121.276 257.406 121.621M257.876 120.666C258.147 120.394 258.487 120.256 258.831 120.196M263.203 120.074L262.237 119.109M263.203 120.074C263.493 119.784 263.631 119.416 263.684 119.047M263.203 120.074C262.912 120.364 262.544 120.502 262.175 120.555M263.684 119.047L263.083 118.446M262.175 120.555C261.36 120.671 260.539 120.37 260.539 120.37C260.539 120.37 259.67 120.05 258.831 120.196M262.175 120.555L261.575 119.955M257.406 121.621L257.968 122.182M258.831 120.196L259.393 120.757" stroke="black" stroke-width="1.32459" stroke-linecap="round"/>
<path d="M260.242 123.034L259.277 122.069M260.242 123.034C259.97 123.306 259.631 123.444 259.286 123.504L258.79 123.007M260.242 123.034C260.513 122.763 260.651 122.424 260.711 122.079M260.834 117.708L261.799 118.673M260.834 117.708C261.124 117.418 261.492 117.28 261.861 117.227L262.416 117.782M260.834 117.708C260.543 117.998 260.405 118.366 260.353 118.735M260.353 118.735C260.236 119.551 260.538 120.371 260.538 120.371C260.538 120.371 260.857 121.241 260.711 122.079M260.353 118.735L260.908 119.29M260.711 122.079L260.214 121.582" stroke="black" stroke-width="1.32459" stroke-linecap="round"/>
<path d="M230.446 115.092L229.581 115.092C229.461 115.092 229.363 115.19 229.363 115.31L229.363 125.309C229.363 125.429 229.461 125.527 229.581 125.527L239.579 125.527C239.7 125.527 239.798 125.429 239.798 125.309L239.798 115.31C239.798 115.19 239.7 115.092 239.579 115.092L231.178 115.092" stroke="black" stroke-width="1.32459" stroke-miterlimit="10" stroke-dasharray="0.32 0.32"/>
<rect x="231.18" y="122.043" width="7.26802" height="2.6772" transform="rotate(-45 231.18 122.043)" stroke="black" stroke-width="1.32459" stroke-linejoin="round"/>
<path d="M235.019 121.579C235.585 121.013 237.148 119.927 236.611 119.39C236.3 119.079 236.11 119.092 235.463 119.466C234.815 119.84 233.364 121.565 233.8 122.002C234.198 122.4 234.452 122.145 235.019 121.579Z" fill="url(#paint15_linear)"/>
<path d="M235.019 121.579C235.585 121.013 237.148 119.927 236.611 119.39C236.3 119.079 236.11 119.092 235.463 119.466C234.815 119.84 233.364 121.565 233.8 122.002C234.198 122.4 234.452 122.145 235.019 121.579Z" fill="white"/>
<circle cx="234.713" cy="120.403" r="0.860528" transform="rotate(-45 234.713 120.403)" stroke="black" stroke-width="1.32459"/>
<mask id="path-64-inside-10" fill="white">
<path fill-rule="evenodd" clip-rule="evenodd" d="M279.137 186.358C278.518 185.34 277.398 184.659 276.119 184.659C274.654 184.659 273.397 185.553 272.863 186.825C272.553 186.735 272.225 186.687 271.885 186.687C270.188 186.687 268.77 187.886 268.433 189.483C267.482 190.115 266.855 191.196 266.855 192.423C266.855 194.373 268.436 195.953 270.385 195.953C270.396 195.953 270.407 195.953 270.419 195.953C270.421 195.953 270.424 195.953 270.426 195.953H283.573C283.646 195.953 283.718 195.949 283.789 195.942C283.879 195.949 283.97 195.953 284.062 195.953C286.012 195.953 287.592 194.373 287.592 192.423C287.592 190.474 286.012 188.894 284.062 188.894C284.039 188.894 284.015 188.894 283.991 188.895C283.664 187.284 282.24 186.071 280.532 186.071C280.037 186.071 279.565 186.174 279.137 186.358Z"/>
</mask>
<path fill-rule="evenodd" clip-rule="evenodd" d="M279.137 186.358C278.518 185.34 277.398 184.659 276.119 184.659C274.654 184.659 273.397 185.553 272.863 186.825C272.553 186.735 272.225 186.687 271.885 186.687C270.188 186.687 268.77 187.886 268.433 189.483C267.482 190.115 266.855 191.196 266.855 192.423C266.855 194.373 268.436 195.953 270.385 195.953C270.396 195.953 270.407 195.953 270.419 195.953C270.421 195.953 270.424 195.953 270.426 195.953H283.573C283.646 195.953 283.718 195.949 283.789 195.942C283.879 195.949 283.97 195.953 284.062 195.953C286.012 195.953 287.592 194.373 287.592 192.423C287.592 190.474 286.012 188.894 284.062 188.894C284.039 188.894 284.015 188.894 283.991 188.895C283.664 187.284 282.24 186.071 280.532 186.071C280.037 186.071 279.565 186.174 279.137 186.358Z" fill="white"/>
<path d="M279.137 186.358L278.005 187.046L278.603 188.03L279.661 187.574L279.137 186.358ZM272.863 186.825L272.497 188.098L273.629 188.423L274.085 187.337L272.863 186.825ZM268.433 189.483L269.166 190.586L269.617 190.286L269.729 189.757L268.433 189.483ZM270.419 195.953L270.423 194.628L270.415 194.628L270.406 194.628L270.419 195.953ZM283.789 195.942L283.89 194.622L283.777 194.613L283.663 194.624L283.789 195.942ZM283.991 188.895L282.693 189.158L282.913 190.241L284.017 190.219L283.991 188.895ZM276.119 185.984C276.916 185.984 277.616 186.406 278.005 187.046L280.269 185.67C279.42 184.273 277.879 183.335 276.119 183.335V185.984ZM274.085 187.337C274.419 186.54 275.206 185.984 276.119 185.984V183.335C274.101 183.335 272.374 184.566 271.642 186.312L274.085 187.337ZM271.885 188.012C272.1 188.012 272.304 188.042 272.497 188.098L273.229 185.552C272.801 185.428 272.35 185.363 271.885 185.363V188.012ZM269.729 189.757C269.939 188.76 270.827 188.012 271.885 188.012V185.363C269.549 185.363 267.601 187.012 267.137 189.209L269.729 189.757ZM268.18 192.423C268.18 191.658 268.569 190.983 269.166 190.586L267.699 188.38C266.395 189.247 265.531 190.734 265.531 192.423H268.18ZM270.385 194.628C269.167 194.628 268.18 193.641 268.18 192.423H265.531C265.531 195.104 267.704 197.277 270.385 197.277V194.628ZM270.406 194.628C270.399 194.628 270.392 194.628 270.385 194.628V197.277C270.4 197.277 270.416 197.277 270.431 197.277L270.406 194.628ZM270.426 194.628C270.425 194.628 270.424 194.628 270.423 194.628L270.414 197.277C270.418 197.277 270.422 197.277 270.426 197.277V194.628ZM283.573 194.628H270.426V197.277H283.573V194.628ZM283.663 194.624C283.634 194.627 283.604 194.628 283.573 194.628V197.277C283.688 197.277 283.802 197.272 283.915 197.261L283.663 194.624ZM284.062 194.628C284.004 194.628 283.947 194.626 283.89 194.622L283.688 197.263C283.812 197.273 283.937 197.277 284.062 197.277V194.628ZM286.267 192.423C286.267 193.641 285.28 194.628 284.062 194.628V197.277C286.743 197.277 288.916 195.104 288.916 192.423H286.267ZM284.062 190.219C285.28 190.219 286.267 191.206 286.267 192.423H288.916C288.916 189.743 286.743 187.57 284.062 187.57V190.219ZM284.017 190.219C284.032 190.219 284.047 190.219 284.062 190.219V187.57C284.03 187.57 283.997 187.57 283.965 187.571L284.017 190.219ZM280.532 187.396C281.598 187.396 282.489 188.153 282.693 189.158L285.289 188.631C284.84 186.415 282.882 184.747 280.532 184.747V187.396ZM279.661 187.574C279.927 187.46 280.22 187.396 280.532 187.396V184.747C279.853 184.747 279.203 184.887 278.613 185.142L279.661 187.574Z" fill="black" mask="url(#path-64-inside-10)"/>
<mask id="path-66-inside-11" fill="white">
<path fill-rule="evenodd" clip-rule="evenodd" d="M289.641 312.457C289.022 311.438 287.902 310.758 286.623 310.758C285.157 310.758 283.9 311.651 283.367 312.923C283.057 312.834 282.729 312.786 282.389 312.786C280.692 312.786 279.274 313.984 278.937 315.581C277.986 316.214 277.359 317.295 277.359 318.522C277.359 320.471 278.939 322.051 280.889 322.051C280.9 322.051 280.911 322.051 280.923 322.051C280.925 322.051 280.928 322.051 280.93 322.051H294.077C294.15 322.051 294.222 322.048 294.293 322.041C294.383 322.048 294.474 322.051 294.566 322.051C296.515 322.051 298.096 320.471 298.096 318.522C298.096 316.573 296.515 314.993 294.566 314.993C294.542 314.993 294.519 314.993 294.495 314.993C294.168 313.383 292.744 312.17 291.036 312.17C290.541 312.17 290.069 312.272 289.641 312.457Z"/>
</mask>
<path fill-rule="evenodd" clip-rule="evenodd" d="M289.641 312.457C289.022 311.438 287.902 310.758 286.623 310.758C285.157 310.758 283.9 311.651 283.367 312.923C283.057 312.834 282.729 312.786 282.389 312.786C280.692 312.786 279.274 313.984 278.937 315.581C277.986 316.214 277.359 317.295 277.359 318.522C277.359 320.471 278.939 322.051 280.889 322.051C280.9 322.051 280.911 322.051 280.923 322.051C280.925 322.051 280.928 322.051 280.93 322.051H294.077C294.15 322.051 294.222 322.048 294.293 322.041C294.383 322.048 294.474 322.051 294.566 322.051C296.515 322.051 298.096 320.471 298.096 318.522C298.096 316.573 296.515 314.993 294.566 314.993C294.542 314.993 294.519 314.993 294.495 314.993C294.168 313.383 292.744 312.17 291.036 312.17C290.541 312.17 290.069 312.272 289.641 312.457Z" fill="white"/>
<path d="M289.641 312.457L288.509 313.145L289.107 314.129L290.165 313.673L289.641 312.457ZM283.367 312.923L283.001 314.196L284.133 314.522L284.588 313.436L283.367 312.923ZM278.937 315.581L279.67 316.684L280.121 316.385L280.232 315.855L278.937 315.581ZM280.923 322.051L280.927 320.727L280.919 320.727L280.91 320.727L280.923 322.051ZM294.293 322.041L294.394 320.72L294.281 320.712L294.167 320.722L294.293 322.041ZM294.495 314.993L293.197 315.257L293.417 316.34L294.521 316.318L294.495 314.993ZM286.623 312.083C287.42 312.083 288.12 312.505 288.509 313.145L290.773 311.769C289.923 310.371 288.383 309.433 286.623 309.433V312.083ZM284.588 313.436C284.923 312.638 285.71 312.083 286.623 312.083V309.433C284.605 309.433 282.878 310.664 282.146 312.411L284.588 313.436ZM282.389 314.111C282.603 314.111 282.808 314.141 283.001 314.196L283.733 311.65C283.305 311.527 282.854 311.461 282.389 311.461V314.111ZM280.232 315.855C280.443 314.858 281.331 314.111 282.389 314.111V311.461C280.053 311.461 278.105 313.111 277.641 315.307L280.232 315.855ZM278.684 318.522C278.684 317.757 279.073 317.081 279.67 316.684L278.203 314.478C276.899 315.346 276.035 316.833 276.035 318.522H278.684ZM280.889 320.727C279.671 320.727 278.684 319.74 278.684 318.522H276.035C276.035 321.203 278.208 323.376 280.889 323.376V320.727ZM280.91 320.727C280.903 320.727 280.896 320.727 280.889 320.727V323.376C280.904 323.376 280.92 323.376 280.935 323.376L280.91 320.727ZM280.93 320.727C280.929 320.727 280.928 320.727 280.927 320.727L280.918 323.376C280.922 323.376 280.926 323.376 280.93 323.376V320.727ZM294.077 320.727H280.93V323.376H294.077V320.727ZM294.167 320.722C294.138 320.725 294.108 320.727 294.077 320.727V323.376C294.192 323.376 294.306 323.37 294.419 323.36L294.167 320.722ZM294.566 320.727C294.508 320.727 294.451 320.725 294.394 320.72L294.192 323.362C294.316 323.371 294.441 323.376 294.566 323.376V320.727ZM296.771 318.522C296.771 319.74 295.784 320.727 294.566 320.727V323.376C297.247 323.376 299.42 321.203 299.42 318.522H296.771ZM294.566 316.317C295.784 316.317 296.771 317.304 296.771 318.522H299.42C299.42 315.841 297.247 313.668 294.566 313.668V316.317ZM294.521 316.318C294.536 316.318 294.551 316.317 294.566 316.317V313.668C294.534 313.668 294.501 313.669 294.469 313.669L294.521 316.318ZM291.036 313.495C292.101 313.495 292.993 314.251 293.197 315.257L295.793 314.73C295.343 312.514 293.386 310.845 291.036 310.845V313.495ZM290.165 313.673C290.431 313.559 290.724 313.495 291.036 313.495V310.845C290.357 310.845 289.707 310.986 289.117 311.24L290.165 313.673Z" fill="black" mask="url(#path-66-inside-11)"/>
<mask id="path-68-inside-12" fill="white">
<path fill-rule="evenodd" clip-rule="evenodd" d="M202.614 379.022C201.995 378.004 200.875 377.324 199.596 377.324C198.13 377.324 196.873 378.217 196.34 379.489C196.029 379.4 195.701 379.352 195.362 379.352C193.665 379.352 192.247 380.55 191.909 382.147C190.959 382.779 190.332 383.86 190.332 385.088C190.332 387.037 191.912 388.617 193.861 388.617C193.873 388.617 193.884 388.617 193.895 388.617C193.898 388.617 193.9 388.617 193.903 388.617H207.05C207.122 388.617 207.195 388.613 207.266 388.607C207.356 388.614 207.447 388.617 207.539 388.617C209.488 388.617 211.068 387.037 211.068 385.088C211.068 383.139 209.488 381.558 207.539 381.558C207.515 381.558 207.491 381.559 207.468 381.559C207.141 379.948 205.717 378.736 204.009 378.736C203.513 378.736 203.042 378.838 202.614 379.022Z"/>
</mask>
<path fill-rule="evenodd" clip-rule="evenodd" d="M202.614 379.022C201.995 378.004 200.875 377.324 199.596 377.324C198.13 377.324 196.873 378.217 196.34 379.489C196.029 379.4 195.701 379.352 195.362 379.352C193.665 379.352 192.247 380.55 191.909 382.147C190.959 382.779 190.332 383.86 190.332 385.088C190.332 387.037 191.912 388.617 193.861 388.617C193.873 388.617 193.884 388.617 193.895 388.617C193.898 388.617 193.9 388.617 193.903 388.617H207.05C207.122 388.617 207.195 388.613 207.266 388.607C207.356 388.614 207.447 388.617 207.539 388.617C209.488 388.617 211.068 387.037 211.068 385.088C211.068 383.139 209.488 381.558 207.539 381.558C207.515 381.558 207.491 381.559 207.468 381.559C207.141 379.948 205.717 378.736 204.009 378.736C203.513 378.736 203.042 378.838 202.614 379.022Z" fill="white"/>
<path d="M202.614 379.022L201.482 379.71L202.08 380.695L203.138 380.239L202.614 379.022ZM196.34 379.489L195.973 380.762L197.106 381.088L197.561 380.001L196.34 379.489ZM191.909 382.147L192.643 383.25L193.093 382.95L193.205 382.421L191.909 382.147ZM193.895 388.617L193.9 387.292L193.891 387.292L193.883 387.292L193.895 388.617ZM207.266 388.607L207.367 387.286L207.253 387.277L207.14 387.288L207.266 388.607ZM207.468 381.559L206.17 381.823L206.389 382.905L207.494 382.883L207.468 381.559ZM199.596 378.648C200.393 378.648 201.093 379.071 201.482 379.71L203.745 378.334C202.896 376.937 201.356 375.999 199.596 375.999V378.648ZM197.561 380.001C197.895 379.204 198.682 378.648 199.596 378.648V375.999C197.578 375.999 195.851 377.23 195.118 378.977L197.561 380.001ZM195.362 380.676C195.576 380.676 195.781 380.706 195.973 380.762L196.706 378.216C196.278 378.093 195.826 378.027 195.362 378.027V380.676ZM193.205 382.421C193.416 381.424 194.303 380.676 195.362 380.676V378.027C193.026 378.027 191.078 379.676 190.613 381.873L193.205 382.421ZM191.657 385.088C191.657 384.322 192.046 383.647 192.643 383.25L191.176 381.044C189.871 381.912 189.007 383.398 189.007 385.088H191.657ZM193.861 387.292C192.644 387.292 191.657 386.305 191.657 385.088H189.007C189.007 387.768 191.181 389.942 193.861 389.942V387.292ZM193.883 387.292C193.876 387.292 193.868 387.292 193.861 387.292V389.942C193.877 389.942 193.892 389.942 193.908 389.941L193.883 387.292ZM193.903 387.292C193.902 387.292 193.901 387.292 193.9 387.292L193.891 389.941C193.895 389.941 193.899 389.941 193.903 389.941V387.292ZM207.05 387.292H193.903V389.941H207.05V387.292ZM207.14 387.288C207.111 387.291 207.08 387.292 207.05 387.292V389.941C207.165 389.941 207.279 389.936 207.392 389.925L207.14 387.288ZM207.539 387.292C207.481 387.292 207.423 387.29 207.367 387.286L207.165 389.927C207.288 389.937 207.413 389.942 207.539 389.942V387.292ZM209.744 385.088C209.744 386.305 208.757 387.292 207.539 387.292V389.942C210.22 389.942 212.393 387.768 212.393 385.088H209.744ZM207.539 382.883C208.757 382.883 209.744 383.87 209.744 385.088H212.393C212.393 382.407 210.22 380.234 207.539 380.234V382.883ZM207.494 382.883C207.509 382.883 207.524 382.883 207.539 382.883V380.234C207.506 380.234 207.474 380.234 207.442 380.235L207.494 382.883ZM204.009 380.06C205.074 380.06 205.965 380.817 206.17 381.823L208.766 381.296C208.316 379.08 206.359 377.411 204.009 377.411V380.06ZM203.138 380.239C203.403 380.124 203.697 380.06 204.009 380.06V377.411C203.33 377.411 202.68 377.551 202.089 377.806L203.138 380.239Z" fill="black" mask="url(#path-68-inside-12)"/>
<mask id="path-70-inside-13" fill="white">
<path fill-rule="evenodd" clip-rule="evenodd" d="M279.137 186.358C278.518 185.34 277.398 184.659 276.119 184.659C274.654 184.659 273.397 185.553 272.863 186.825C272.553 186.735 272.225 186.687 271.885 186.687C270.188 186.687 268.77 187.886 268.433 189.483C267.482 190.115 266.855 191.196 266.855 192.423C266.855 194.373 268.436 195.953 270.385 195.953C270.396 195.953 270.407 195.953 270.419 195.953C270.421 195.953 270.424 195.953 270.426 195.953H283.573C283.646 195.953 283.718 195.949 283.789 195.942C283.879 195.949 283.97 195.953 284.062 195.953C286.012 195.953 287.592 194.373 287.592 192.423C287.592 190.474 286.012 188.894 284.062 188.894C284.039 188.894 284.015 188.894 283.991 188.895C283.664 187.284 282.24 186.071 280.532 186.071C280.037 186.071 279.565 186.174 279.137 186.358Z"/>
</mask>
<path fill-rule="evenodd" clip-rule="evenodd" d="M279.137 186.358C278.518 185.34 277.398 184.659 276.119 184.659C274.654 184.659 273.397 185.553 272.863 186.825C272.553 186.735 272.225 186.687 271.885 186.687C270.188 186.687 268.77 187.886 268.433 189.483C267.482 190.115 266.855 191.196 266.855 192.423C266.855 194.373 268.436 195.953 270.385 195.953C270.396 195.953 270.407 195.953 270.419 195.953C270.421 195.953 270.424 195.953 270.426 195.953H283.573C283.646 195.953 283.718 195.949 283.789 195.942C283.879 195.949 283.97 195.953 284.062 195.953C286.012 195.953 287.592 194.373 287.592 192.423C287.592 190.474 286.012 188.894 284.062 188.894C284.039 188.894 284.015 188.894 283.991 188.895C283.664 187.284 282.24 186.071 280.532 186.071C280.037 186.071 279.565 186.174 279.137 186.358Z" fill="white"/>
<path d="M279.137 186.358L278.005 187.046L278.603 188.03L279.661 187.574L279.137 186.358ZM272.863 186.825L272.497 188.098L273.629 188.423L274.085 187.337L272.863 186.825ZM268.433 189.483L269.166 190.586L269.617 190.286L269.729 189.757L268.433 189.483ZM270.419 195.953L270.423 194.628L270.415 194.628L270.406 194.628L270.419 195.953ZM283.789 195.942L283.89 194.622L283.777 194.613L283.663 194.624L283.789 195.942ZM283.991 188.895L282.693 189.158L282.913 190.241L284.017 190.219L283.991 188.895ZM276.119 185.984C276.916 185.984 277.616 186.406 278.005 187.046L280.269 185.67C279.42 184.273 277.879 183.335 276.119 183.335V185.984ZM274.085 187.337C274.419 186.54 275.206 185.984 276.119 185.984V183.335C274.101 183.335 272.374 184.566 271.642 186.312L274.085 187.337ZM271.885 188.012C272.1 188.012 272.304 188.042 272.497 188.098L273.229 185.552C272.801 185.428 272.35 185.363 271.885 185.363V188.012ZM269.729 189.757C269.939 188.76 270.827 188.012 271.885 188.012V185.363C269.549 185.363 267.601 187.012 267.137 189.209L269.729 189.757ZM268.18 192.423C268.18 191.658 268.569 190.983 269.166 190.586L267.699 188.38C266.395 189.247 265.531 190.734 265.531 192.423H268.18ZM270.385 194.628C269.167 194.628 268.18 193.641 268.18 192.423H265.531C265.531 195.104 267.704 197.277 270.385 197.277V194.628ZM270.406 194.628C270.399 194.628 270.392 194.628 270.385 194.628V197.277C270.4 197.277 270.416 197.277 270.431 197.277L270.406 194.628ZM270.426 194.628C270.425 194.628 270.424 194.628 270.423 194.628L270.414 197.277C270.418 197.277 270.422 197.277 270.426 197.277V194.628ZM283.573 194.628H270.426V197.277H283.573V194.628ZM283.663 194.624C283.634 194.627 283.604 194.628 283.573 194.628V197.277C283.688 197.277 283.802 197.272 283.915 197.261L283.663 194.624ZM284.062 194.628C284.004 194.628 283.947 194.626 283.89 194.622L283.688 197.263C283.812 197.273 283.937 197.277 284.062 197.277V194.628ZM286.267 192.423C286.267 193.641 285.28 194.628 284.062 194.628V197.277C286.743 197.277 288.916 195.104 288.916 192.423H286.267ZM284.062 190.219C285.28 190.219 286.267 191.206 286.267 192.423H288.916C288.916 189.743 286.743 187.57 284.062 187.57V190.219ZM284.017 190.219C284.032 190.219 284.047 190.219 284.062 190.219V187.57C284.03 187.57 283.997 187.57 283.965 187.571L284.017 190.219ZM280.532 187.396C281.598 187.396 282.489 188.153 282.693 189.158L285.289 188.631C284.84 186.415 282.882 184.747 280.532 184.747V187.396ZM279.661 187.574C279.927 187.46 280.22 187.396 280.532 187.396V184.747C279.853 184.747 279.203 184.887 278.613 185.142L279.661 187.574Z" fill="black" mask="url(#path-70-inside-13)"/>
<rect x="220.865" y="362.444" width="52.1753" height="35.5565" fill="white"/>
<path d="M226.319 362.057L221.927 362.057C221.34 362.057 220.865 362.532 220.865 363.119L220.865 396.938C220.865 397.524 221.34 398 221.927 398L272.365 398C272.951 398 273.427 397.524 273.427 396.938L273.427 363.119C273.427 362.532 272.951 362.057 272.365 362.057L227.807 362.057" stroke="#1A2530" stroke-width="1.32459" stroke-miterlimit="10"/>
<rect x="220.865" y="252.296" width="52.5618" height="36.716" fill="white"/>
<path d="M226.319 252.681L221.638 252.681C221.211 252.681 220.865 253.027 220.865 253.454L220.865 288.237C220.865 288.664 221.211 289.01 221.638 289.01L272.654 289.01C273.081 289.01 273.427 288.664 273.427 288.237L273.427 253.454C273.427 253.027 273.081 252.681 272.654 252.681L227.807 252.681" stroke="#1A2530" stroke-width="1.32459" stroke-miterlimit="10"/>
<mask id="path-76-inside-14" fill="white">
<rect x="235.547" y="276.641" width="23.2132" height="23.2132" rx="0.772968"/>
</mask>
<rect x="235.547" y="276.641" width="23.2132" height="23.2132" rx="0.772968" fill="white" stroke="#1A2530" stroke-width="2.64918" mask="url(#path-76-inside-14)"/>
<circle cx="247.2" cy="333.122" r="17.5562" fill="white" stroke="#1A2530" stroke-width="1.32459"/>
<path d="M253.373 231.43L221.638 231.43C221.211 231.43 220.865 231.084 220.865 230.657L220.865 201.285C220.865 200.858 221.211 200.512 221.638 200.512L272.654 200.512C273.081 200.512 273.427 200.858 273.427 201.285L273.427 230.657C273.427 231.084 273.081 231.43 272.654 231.43L256.378 231.43" fill="white"/>
<path d="M253.373 231.43L221.638 231.43C221.211 231.43 220.865 231.084 220.865 230.657L220.865 201.285C220.865 200.858 221.211 200.512 221.638 200.512L272.654 200.512C273.081 200.512 273.427 200.858 273.427 201.285L273.427 230.657C273.427 231.084 273.081 231.43 272.654 231.43L256.378 231.43" stroke="#1A2530" stroke-width="1.32459" stroke-miterlimit="10"/>
<path d="M264.29 212.766H255.976C255.67 212.766 255.422 213.015 255.422 213.321C255.422 213.627 255.67 213.875 255.976 213.875H264.29C264.596 213.875 264.844 213.627 264.844 213.321C264.844 213.015 264.596 212.766 264.29 212.766Z" fill="white" stroke="#1A2530" stroke-width="1.32459" stroke-miterlimit="10"/>
<circle cx="247.037" cy="216.018" r="17.5562" fill="white" stroke="#1A2530" stroke-width="1.32459"/>
<path d="M220.865 137.125C220.865 136.698 221.211 136.352 221.638 136.352H272.654C273.081 136.352 273.427 136.698 273.427 137.125V174.178C273.427 174.302 273.397 174.424 273.34 174.534L270.309 180.38C270.176 180.637 269.912 180.797 269.623 180.797H224.666C224.377 180.797 224.112 180.636 223.98 180.38L220.952 174.534C220.895 174.424 220.865 174.302 220.865 174.178V137.125Z" fill="white" stroke="black" stroke-width="1.32459" stroke-miterlimit="10"/>
<path d="M223.847 163.128V139.717H251.784H270.446V163.128H251.784H223.847Z" stroke="black" stroke-width="1.32459"/>
<rect x="249.849" y="113.16" width="21.2566" height="15.0729" rx="0.266674" fill="white"/>
<rect x="223.957" y="113.16" width="21.2566" height="15.0729" rx="0.266674" fill="white"/>
<path d="M237.87 130.303V136.081C237.87 136.227 237.751 136.346 237.605 136.346H231.952C231.805 136.346 231.687 136.227 231.687 136.081V128.496C231.687 128.349 231.805 128.23 231.952 128.23H237.605C237.751 128.23 237.87 128.349 237.87 128.496V129.992" fill="white"/>
<path d="M237.87 130.303V136.081C237.87 136.227 237.751 136.346 237.605 136.346H231.952C231.805 136.346 231.687 136.227 231.687 136.081V128.496C231.687 128.349 231.805 128.23 231.952 128.23H237.605C237.751 128.23 237.87 128.349 237.87 128.496V129.992" stroke="black" stroke-width="1.32459" stroke-miterlimit="10"/>
<path d="M263.762 130.303V136.081C263.762 136.227 263.643 136.346 263.496 136.346H257.844C257.697 136.346 257.578 136.227 257.578 136.081V128.496C257.578 128.349 257.697 128.23 257.844 128.23H263.496C263.643 128.23 263.762 128.349 263.762 128.496V129.992" fill="white"/>
<path d="M263.762 130.303V136.081C263.762 136.227 263.643 136.346 263.496 136.346H257.844C257.697 136.346 257.578 136.227 257.578 136.081V128.496C257.578 128.349 257.697 128.23 257.844 128.23H263.496C263.643 128.23 263.762 128.349 263.762 128.496V129.992" stroke="black" stroke-width="1.32459" stroke-miterlimit="10"/>
<path d="M252.056 113.16L250.115 113.16C249.969 113.16 249.85 113.279 249.85 113.426L249.85 127.968C249.85 128.114 249.969 128.233 250.115 128.233L270.841 128.233C270.988 128.233 271.106 128.114 271.106 127.968L271.106 113.426C271.106 113.279 270.988 113.16 270.841 113.16L253.316 113.16" stroke="#CCD8E3" stroke-width="1.32459" stroke-miterlimit="10"/>
<path d="M226.161 113.16L224.221 113.16C224.074 113.16 223.955 113.279 223.955 113.426L223.955 127.968C223.955 128.114 224.074 128.233 224.221 128.233L234.584 128.233L244.946 128.233C245.093 128.233 245.212 128.114 245.212 127.968L245.212 113.426C245.212 113.279 245.093 113.16 244.946 113.16L227.421 113.16" stroke="#CCD8E3" stroke-width="1.32459" stroke-miterlimit="10"/>
<path d="M252.056 113.16L250.115 113.16C249.969 113.16 249.85 113.279 249.85 113.426L249.85 127.968C249.85 128.114 249.969 128.233 250.115 128.233L270.841 128.233C270.988 128.233 271.106 128.114 271.106 127.968L271.106 113.426C271.106 113.279 270.988 113.16 270.841 113.16L253.316 113.16" stroke="black" stroke-width="1.32459" stroke-miterlimit="10"/>
<path d="M226.161 113.16L224.221 113.16C224.074 113.16 223.955 113.279 223.955 113.426L223.955 127.968C223.955 128.114 224.074 128.233 224.221 128.233L234.584 128.233L244.946 128.233C245.093 128.233 245.212 128.114 245.212 127.968L245.212 113.426C245.212 113.279 245.093 113.16 244.946 113.16L227.421 113.16" stroke="black" stroke-width="1.32459" stroke-miterlimit="10"/>
<mask id="path-94-inside-15" fill="white">
<path fill-rule="evenodd" clip-rule="evenodd" d="M355.597 33.7344C354.235 31.4954 351.771 30 348.958 30C345.732 30 342.966 31.9672 341.793 34.7674C341.109 34.5704 340.387 34.4649 339.639 34.4649C335.904 34.4649 332.785 37.1021 332.042 40.6161C329.951 42.0076 328.573 44.3857 328.573 47.0856C328.573 51.3744 332.05 54.8511 336.339 54.8511C336.398 54.8511 336.457 54.8504 336.516 54.8491H365.362C365.518 54.8491 365.672 54.8419 365.824 54.8278C366.024 54.8433 366.226 54.8511 366.43 54.8511C370.719 54.8511 374.196 51.3744 374.196 47.0856C374.196 42.7968 370.719 39.3201 366.43 39.3201C366.378 39.3201 366.326 39.3206 366.274 39.3216C365.556 35.7753 362.422 33.1056 358.663 33.1056C357.574 33.1056 356.538 33.3298 355.597 33.7344Z"/>
</mask>
<path fill-rule="evenodd" clip-rule="evenodd" d="M355.597 33.7344C354.235 31.4954 351.771 30 348.958 30C345.732 30 342.966 31.9672 341.793 34.7674C341.109 34.5704 340.387 34.4649 339.639 34.4649C335.904 34.4649 332.785 37.1021 332.042 40.6161C329.951 42.0076 328.573 44.3857 328.573 47.0856C328.573 51.3744 332.05 54.8511 336.339 54.8511C336.398 54.8511 336.457 54.8504 336.516 54.8491H365.362C365.518 54.8491 365.672 54.8419 365.824 54.8278C366.024 54.8433 366.226 54.8511 366.43 54.8511C370.719 54.8511 374.196 51.3744 374.196 47.0856C374.196 42.7968 370.719 39.3201 366.43 39.3201C366.378 39.3201 366.326 39.3206 366.274 39.3216C365.556 35.7753 362.422 33.1056 358.663 33.1056C357.574 33.1056 356.538 33.3298 355.597 33.7344Z" fill="white"/>
<path d="M355.597 33.7344L354.785 34.2285L355.214 34.9338L355.973 34.6075L355.597 33.7344ZM341.793 34.7674L341.53 35.6807L342.343 35.9148L342.67 35.1346L341.793 34.7674ZM332.042 40.6161L332.569 41.4074L332.892 41.1924L332.972 40.8128L332.042 40.6161ZM336.516 54.8491V53.8987H336.505L336.495 53.8989L336.516 54.8491ZM365.824 54.8278L365.897 53.8802L365.817 53.874L365.737 53.8814L365.824 54.8278ZM366.274 39.3216L365.343 39.5103L365.5 40.2875L366.293 40.2719L366.274 39.3216ZM348.958 30.9505C351.426 30.9505 353.588 32.261 354.785 34.2285L356.409 33.2404C354.881 30.7297 352.117 29.0495 348.958 29.0495V30.9505ZM342.67 35.1346C343.7 32.6753 346.129 30.9505 348.958 30.9505V29.0495C345.336 29.0495 342.232 31.2591 340.916 34.4001L342.67 35.1346ZM339.639 35.4154C340.297 35.4154 340.931 35.5082 341.53 35.6807L342.056 33.854C341.288 33.6327 340.477 33.5145 339.639 33.5145V35.4154ZM332.972 40.8128C333.624 37.7291 336.363 35.4154 339.639 35.4154V33.5145C335.446 33.5145 331.946 36.4751 331.112 40.4195L332.972 40.8128ZM329.524 47.0856C329.524 44.7171 330.731 42.6302 332.569 41.4074L331.515 39.8249C329.171 41.3851 327.623 44.0543 327.623 47.0856H329.524ZM336.339 53.9006C332.575 53.9006 329.524 50.8494 329.524 47.0856H327.623C327.623 51.8993 331.525 55.8016 336.339 55.8016V53.9006ZM336.495 53.8989C336.443 53.9001 336.391 53.9006 336.339 53.9006V55.8016C336.405 55.8016 336.471 55.8008 336.537 55.7994L336.495 53.8989ZM365.362 53.8987H336.516V55.7996H365.362V53.8987ZM365.737 53.8814C365.613 53.8928 365.488 53.8987 365.362 53.8987V55.7996C365.547 55.7996 365.731 55.791 365.912 55.7742L365.737 53.8814ZM366.43 53.9006C366.251 53.9006 366.073 53.8937 365.897 53.8802L365.751 55.7755C365.975 55.7928 366.202 55.8016 366.43 55.8016V53.9006ZM373.245 47.0856C373.245 50.8494 370.194 53.9006 366.43 53.9006V55.8016C371.244 55.8016 375.146 51.8993 375.146 47.0856H373.245ZM366.43 40.2706C370.194 40.2706 373.245 43.3218 373.245 47.0856H375.146C375.146 42.2719 371.244 38.3696 366.43 38.3696V40.2706ZM366.293 40.2719C366.339 40.271 366.384 40.2706 366.43 40.2706V38.3696C366.372 38.3696 366.314 38.3702 366.256 38.3713L366.293 40.2719ZM358.663 34.0561C361.96 34.0561 364.713 36.3984 365.343 39.5103L367.206 39.133C366.4 35.1522 362.883 32.1551 358.663 32.1551V34.0561ZM355.973 34.6075C356.797 34.2529 357.706 34.0561 358.663 34.0561V32.1551C357.443 32.1551 356.279 32.4066 355.221 32.8613L355.973 34.6075Z" fill="black" mask="url(#path-94-inside-15)"/>
<rect x="266.549" y="41.8825" width="11.9293" height="11.9293" rx="5.96466" fill="white" stroke="#1A2530" stroke-width="0.950466"/>
<rect x="287.037" y="41.8825" width="11.9293" height="11.9293" rx="5.96466" fill="white" stroke="#1A2530" stroke-width="0.950466"/>
<rect x="307.516" y="41.8825" width="11.9293" height="11.9293" rx="5.96466" fill="white" stroke="#1A2530" stroke-width="0.950466"/>
<path d="M118.009 70.3608C118.009 67.4955 119.998 65.5817 122.735 65.5817C125.461 65.5817 127.268 67.4313 127.268 70.2325V81.0095H128.573V70.179C128.573 66.5867 126.285 64.3736 122.981 64.3736C120.639 64.3736 118.875 65.4855 118.106 67.1854H117.977V64.5874H116.705V81.0095H118.009V70.3608ZM140.194 64.5874H136.602V62.2353C136.602 60.4177 137.799 59.3593 139.446 59.3593C139.959 59.3593 140.322 59.4662 140.643 59.5731L141.028 58.4184C140.622 58.2687 140.109 58.119 139.36 58.119C137.222 58.119 135.308 59.5517 135.308 62.0321V64.5874H132.913V65.7528H135.308V81.0095H136.591L136.602 65.7528H140.194V64.5874ZM149.982 81.3516C153.222 81.3516 155.21 79.4593 155.959 77.8021L154.772 77.321C154.163 78.5398 152.655 80.1435 149.982 80.1435C146.251 80.1435 144.016 77.1285 143.963 73.0871H156.493V72.2746C156.493 67.3993 153.35 64.3415 149.672 64.3415C145.599 64.3415 142.669 67.9659 142.669 72.8733C142.669 77.77 145.524 81.3516 149.982 81.3516ZM143.984 71.9004C144.241 68.3187 146.561 65.5603 149.672 65.5603C152.794 65.5603 155.189 68.3401 155.189 71.9004H143.984ZM160.984 81.0095H162.288V70.1897C162.288 67.5382 164.266 65.6245 167.003 65.6245C167.345 65.6245 167.57 65.6672 167.741 65.6886V64.3736C167.538 64.3629 167.313 64.3629 167.078 64.3629C164.908 64.3629 163.079 65.4748 162.374 67.1533H162.256V64.5874H160.984V81.0095ZM177.149 81.3516C180.389 81.3516 182.377 79.4593 183.126 77.8021L181.939 77.321C181.33 78.5398 179.822 80.1435 177.149 80.1435C173.418 80.1435 171.183 77.1285 171.13 73.0871H183.66V72.2746C183.66 67.3993 180.517 64.3415 176.839 64.3415C172.766 64.3415 169.836 67.9659 169.836 72.8733C169.836 77.77 172.691 81.3516 177.149 81.3516ZM171.151 71.9004C171.408 68.3187 173.728 65.5603 176.839 65.5603C179.961 65.5603 182.356 68.3401 182.356 71.9004H171.151ZM189.455 70.3608C189.455 67.4955 191.444 65.5817 194.181 65.5817C196.907 65.5817 198.714 67.4313 198.714 70.2325V81.0095H200.018V70.179C200.018 66.5867 197.73 64.3736 194.427 64.3736C192.085 64.3736 190.321 65.4855 189.551 67.1854H189.423V64.5874H188.151V81.0095H189.455V70.3608ZM211.597 81.3516C214.805 81.3516 217.221 79.2561 217.691 76.2197H216.366C215.938 78.6039 214.003 80.1435 211.597 80.1435C208.165 80.1435 205.824 77.0109 205.824 72.8305C205.824 68.5967 208.262 65.5603 211.597 65.5603C214.067 65.5603 215.917 67.2068 216.334 69.4199H217.659C217.178 66.3943 214.698 64.3415 211.587 64.3415C207.428 64.3415 204.53 67.9766 204.53 72.8519C204.53 77.7272 207.406 81.3516 211.597 81.3516ZM228.543 81.3516C231.783 81.3516 233.771 79.4593 234.52 77.8021L233.333 77.321C232.724 78.5398 231.216 80.1435 228.543 80.1435C224.812 80.1435 222.577 77.1285 222.524 73.0871H235.054V72.2746C235.054 67.3993 231.911 64.3415 228.233 64.3415C224.16 64.3415 221.23 67.9659 221.23 72.8733C221.23 77.77 224.085 81.3516 228.543 81.3516ZM222.545 71.9004C222.802 68.3187 225.122 65.5603 228.233 65.5603C231.355 65.5603 233.75 68.3401 233.75 71.9004H222.545ZM246.981 81.0095H250.055V75.2757H253.303C257.223 75.2757 259.327 72.9225 259.327 69.6578C259.327 66.418 257.248 64.04 253.345 64.04H246.981V81.0095ZM250.055 72.7485V66.6086H252.873C255.176 66.6086 256.195 67.8515 256.195 69.6578C256.195 71.4642 255.176 72.7485 252.889 72.7485H250.055ZM261.997 81.0095H272.545V78.4326H265.072V64.04H261.997V81.0095ZM278.031 81.0095L279.431 76.8251H285.811L287.22 81.0095H290.501L284.519 64.04H280.724L274.749 81.0095H278.031ZM280.26 74.3559L282.555 67.5201H282.687L284.983 74.3559H280.26ZM289.94 66.6169H295.185V81.0095H298.234V66.6169H303.479V64.04H289.94V66.6169ZM306.089 81.0095H309.163V73.8008H316.214V71.2239H309.163V66.6169H316.96V64.04H306.089V81.0095ZM334.924 72.5248C334.924 67.0395 331.576 63.808 327.127 63.808C322.669 63.808 319.33 67.0395 319.33 72.5248C319.33 78.0017 322.669 81.2415 327.127 81.2415C331.576 81.2415 334.924 78.01 334.924 72.5248ZM331.833 72.5248C331.833 76.386 329.894 78.4823 327.127 78.4823C324.368 78.4823 322.42 76.386 322.42 72.5248C322.42 68.6635 324.368 66.5672 327.127 66.5672C329.894 66.5672 331.833 68.6635 331.833 72.5248ZM337.83 81.0095H340.904V74.7951H344.036L347.367 81.0095H350.797L347.127 74.2814C349.124 73.4776 350.176 71.7707 350.176 69.4673C350.176 66.2275 348.088 64.04 344.194 64.04H337.83V81.0095ZM340.904 72.243V66.6086H343.721C346.017 66.6086 347.044 67.6609 347.044 69.4673C347.044 71.2736 346.017 72.243 343.738 72.243H340.904ZM353.006 64.04V81.0095H355.955V69.3264H356.113L360.803 80.9598H363.007L367.697 69.3513H367.854V81.0095H370.804V64.04H367.042L362.004 76.3363H361.805L356.767 64.04H353.006Z" fill="black"/>
<defs>
<radialGradient id="paint0_radial" cx="0" cy="0" r="1" gradientUnits="userSpaceOnUse" gradientTransform="translate(121.706 240.193) rotate(7.66681) scale(25.4281 17.9835)">
<stop stop-color="#5AEEFF" stop-opacity="0.3"/>
<stop offset="1" stop-color="#5AEEFF" stop-opacity="0"/>
</radialGradient>
<radialGradient id="paint1_radial" cx="0" cy="0" r="1" gradientUnits="userSpaceOnUse" gradientTransform="translate(103.29 251.339) rotate(159.169) scale(40.5815 43.8384)">
<stop offset="0.210643" stop-color="#0057FF" stop-opacity="0.1"/>
<stop offset="1" stop-color="white" stop-opacity="0"/>
</radialGradient>
<radialGradient id="paint2_radial" cx="0" cy="0" r="1" gradientUnits="userSpaceOnUse" gradientTransform="translate(113.589 235.589) rotate(-146.545) scale(38.6123)">
<stop offset="0.606926" stop-color="#5AEEFF" stop-opacity="0.1"/>
<stop offset="1" stop-color="white" stop-opacity="0"/>
</radialGradient>
<linearGradient id="paint3_linear" x1="133.81" y1="245.054" x2="94.3399" y2="262.776" gradientUnits="userSpaceOnUse">
<stop offset="0.159308" stop-color="#248AE5"/>
<stop offset="0.536455" stop-color="#5AEEFF"/>
<stop offset="1" stop-color="#38E8A9"/>
</linearGradient>
<radialGradient id="paint4_radial" cx="0" cy="0" r="1" gradientUnits="userSpaceOnUse" gradientTransform="translate(437.871 349.785) rotate(7.66681) scale(51.2833 36.269)">
<stop stop-color="#5AEEFF" stop-opacity="0.3"/>
<stop offset="1" stop-color="#5AEEFF" stop-opacity="0"/>
</radialGradient>
<radialGradient id="paint5_radial" cx="0" cy="0" r="1" gradientUnits="userSpaceOnUse" gradientTransform="translate(400.73 372.266) rotate(159.169) scale(81.8445 88.4129)">
<stop offset="0.210643" stop-color="#0057FF" stop-opacity="0.1"/>
<stop offset="1" stop-color="white" stop-opacity="0"/>
</radialGradient>
<radialGradient id="paint6_radial" cx="0" cy="0" r="1" gradientUnits="userSpaceOnUse" gradientTransform="translate(421.5 340.5) rotate(-146.545) scale(77.873)">
<stop offset="0.606926" stop-color="#5AEEFF" stop-opacity="0.1"/>
<stop offset="1" stop-color="white" stop-opacity="0"/>
</radialGradient>
<linearGradient id="paint7_linear" x1="459.932" y1="341.04" x2="424.874" y2="361.742" gradientUnits="userSpaceOnUse">
<stop offset="0.159308" stop-color="#248AE5"/>
<stop offset="0.536455" stop-color="#5AEEFF"/>
<stop offset="1" stop-color="#38E8A9"/>
</linearGradient>
<radialGradient id="paint8_radial" cx="0" cy="0" r="1" gradientUnits="userSpaceOnUse" gradientTransform="translate(451.871 95.7853) rotate(7.66681) scale(51.2833 36.269)">
<stop stop-color="#5AEEFF" stop-opacity="0.3"/>
<stop offset="1" stop-color="#5AEEFF" stop-opacity="0"/>
</radialGradient>
<radialGradient id="paint9_radial" cx="0" cy="0" r="1" gradientUnits="userSpaceOnUse" gradientTransform="translate(414.73 118.266) rotate(159.169) scale(81.8445 88.4129)">
<stop offset="0.210643" stop-color="#0057FF" stop-opacity="0.1"/>
<stop offset="1" stop-color="white" stop-opacity="0"/>
</radialGradient>
<radialGradient id="paint10_radial" cx="0" cy="0" r="1" gradientUnits="userSpaceOnUse" gradientTransform="translate(435.5 86.5) rotate(-146.545) scale(77.873)">
<stop offset="0.606926" stop-color="#5AEEFF" stop-opacity="0.1"/>
<stop offset="1" stop-color="white" stop-opacity="0"/>
</radialGradient>
<linearGradient id="paint11_linear" x1="459.932" y1="103.229" x2="424.874" y2="123.932" gradientUnits="userSpaceOnUse">
<stop offset="0.159308" stop-color="#248AE5"/>
<stop offset="0.536455" stop-color="#5AEEFF"/>
<stop offset="1" stop-color="#38E8A9"/>
</linearGradient>
<linearGradient id="paint12_linear" x1="241.079" y1="327.059" x2="253.53" y2="327.059" gradientUnits="userSpaceOnUse">
<stop stop-color="#0057FF"/>
<stop offset="0.588542" stop-color="#5AEEFF"/>
<stop offset="1" stop-color="#DEFFDE"/>
</linearGradient>
<linearGradient id="paint13_linear" x1="260.559" y1="118.753" x2="261.726" y2="116.999" gradientUnits="userSpaceOnUse">
<stop stop-color="#14DDE0"/>
<stop offset="1" stop-color="#C9CDFF"/>
<stop offset="1" stop-color="#5967FA"/>
</linearGradient>
<linearGradient id="paint14_linear" x1="260.591" y1="121.651" x2="259.425" y2="123.404" gradientUnits="userSpaceOnUse">
<stop stop-color="#14DDE0"/>
<stop offset="1" stop-color="#C9CDFF"/>
<stop offset="1" stop-color="#5967FA"/>
</linearGradient>
<linearGradient id="paint15_linear" x1="233.929" y1="122.243" x2="234.404" y2="118.778" gradientUnits="userSpaceOnUse">
<stop stop-color="#14DDE0"/>
<stop offset="1" stop-color="#C9CDFF"/>
<stop offset="1" stop-color="#5967FA"/>
</linearGradient>
</defs>
</svg>
