<svg width="343" height="255" viewBox="0 0 343 255" fill="none" xmlns="http://www.w3.org/2000/svg">
<rect x="0.313889" y="0.313889" width="342.372" height="253.937" rx="5.96389" fill="white" stroke="#CCD8E3" stroke-width="0.627778"/>
<path d="M125.566 185.157C125.58 185.527 125.589 185.898 125.593 186.27L125.123 186.276C125.125 186.46 125.126 186.644 125.126 186.828C125.126 187.013 125.125 187.197 125.123 187.381L125.593 187.387C125.589 187.759 125.58 188.13 125.566 188.499L125.096 188.482C125.082 188.849 125.064 189.216 125.041 189.581L125.511 189.61C125.489 189.981 125.461 190.351 125.429 190.72L124.96 190.679C124.928 191.045 124.892 191.41 124.852 191.773L125.32 191.826C125.278 192.195 125.233 192.564 125.182 192.93L124.716 192.866C124.666 193.23 124.612 193.593 124.553 193.954L125.018 194.029C124.958 194.396 124.894 194.762 124.825 195.126L124.363 195.039C124.295 195.4 124.222 195.759 124.146 196.117L124.606 196.216C124.528 196.579 124.446 196.941 124.359 197.301L123.901 197.191C123.815 197.548 123.725 197.903 123.63 198.256L124.085 198.378C123.989 198.737 123.889 199.094 123.784 199.45L123.332 199.317C123.228 199.669 123.12 200.019 123.008 200.368L123.456 200.512C123.342 200.866 123.224 201.217 123.102 201.567L122.657 201.411C122.536 201.758 122.411 202.102 122.281 202.445L122.721 202.612C122.59 202.959 122.454 203.304 122.314 203.647L121.878 203.47C121.74 203.81 121.597 204.148 121.45 204.483L121.882 204.672C121.733 205.012 121.581 205.35 121.424 205.686L120.997 205.487C120.842 205.819 120.682 206.15 120.519 206.478L120.941 206.688C120.775 207.02 120.606 207.35 120.433 207.677L120.016 207.457C119.845 207.782 119.669 208.104 119.49 208.423L119.9 208.654C119.719 208.977 119.533 209.299 119.344 209.617L118.939 209.377C118.751 209.692 118.56 210.005 118.365 210.316L118.764 210.566C118.566 210.88 118.365 211.192 118.16 211.501L117.768 211.24C117.565 211.546 117.358 211.849 117.148 212.15L117.534 212.42C117.321 212.724 117.105 213.025 116.885 213.324L116.506 213.044C116.288 213.34 116.067 213.632 115.842 213.922L116.214 214.211C115.987 214.504 115.756 214.794 115.522 215.081L115.157 214.784C114.925 215.068 114.689 215.35 114.451 215.628L114.808 215.935C114.567 216.216 114.322 216.495 114.074 216.77L113.724 216.455C113.478 216.728 113.23 216.998 112.977 217.264L113.319 217.588C113.065 217.857 112.807 218.123 112.545 218.387L112.211 218.055C111.953 218.315 111.691 218.572 111.426 218.826L111.752 219.166C111.484 219.423 111.213 219.676 110.94 219.926L110.622 219.579C110.351 219.826 110.077 220.07 109.8 220.311L110.109 220.666C109.829 220.91 109.547 221.149 109.261 221.386L108.961 221.023C108.678 221.257 108.393 221.488 108.104 221.715L108.395 222.085C108.104 222.314 107.81 222.54 107.513 222.762L107.231 222.385C106.937 222.605 106.641 222.822 106.342 223.034L106.615 223.418C106.313 223.633 106.008 223.844 105.7 224.052L105.437 223.662C105.133 223.867 104.826 224.069 104.517 224.267L104.771 224.663C104.459 224.863 104.144 225.059 103.827 225.252L103.583 224.849C103.269 225.039 102.953 225.226 102.635 225.409L102.869 225.817C102.548 226.001 102.224 226.182 101.897 226.359L101.673 225.945C101.351 226.12 101.026 226.291 100.699 226.458L100.914 226.877C100.583 227.046 100.251 227.21 99.9162 227.371L99.7123 226.947C99.3821 227.105 99.0497 227.26 98.715 227.411L98.9085 227.84C98.5706 227.993 98.2304 228.141 97.8881 228.285L97.7051 227.852C97.3677 227.994 97.0281 228.132 96.6865 228.267L96.8588 228.705C96.5139 228.84 96.1668 228.972 95.8178 229.1L95.6562 228.657C95.3123 228.783 94.9665 228.905 94.6187 229.022L94.7695 229.468C94.4183 229.587 94.0652 229.701 93.7103 229.812L93.5704 229.362C93.2209 229.471 92.8696 229.575 92.5165 229.676L92.6454 230.129C92.2889 230.23 91.9306 230.327 91.5706 230.42L91.4528 229.965C91.0985 230.056 90.7426 230.143 90.385 230.227L90.4916 230.685C90.1306 230.769 89.768 230.849 89.4038 230.924L89.3084 230.463C88.9502 230.537 88.5904 230.607 88.2291 230.673L88.3133 231.136C87.9488 231.202 87.5828 231.264 87.2153 231.322L87.1423 230.857C86.7809 230.914 86.4182 230.966 86.054 231.014L86.1157 231.481C85.7486 231.53 85.38 231.574 85.0101 231.614L84.9597 231.146C84.596 231.185 84.231 231.22 83.8648 231.25L83.904 231.719C83.5351 231.75 83.165 231.777 82.7936 231.799L82.7657 231.329C82.4005 231.351 82.0341 231.368 81.6666 231.381L81.6833 231.852C81.3136 231.865 80.9428 231.874 80.5709 231.878L80.5653 231.407C80.3813 231.409 80.1969 231.411 80.0123 231.411C79.8277 231.411 79.6433 231.409 79.4592 231.407L79.4536 231.878C79.0817 231.874 78.7109 231.865 78.3412 231.852L78.358 231.381C77.9905 231.368 77.6241 231.351 77.2589 231.329L77.2309 231.799C76.8596 231.777 76.4894 231.75 76.1206 231.719L76.1598 231.25C75.7935 231.22 75.4286 231.185 75.0649 231.146L75.0144 231.614C74.6446 231.574 74.276 231.53 73.9088 231.481L73.9706 231.014C73.6064 230.966 73.2436 230.914 72.8823 230.857L72.8093 231.322C72.4418 231.264 72.0758 231.202 71.7113 231.136L71.7955 230.673C71.4342 230.607 71.0744 230.537 70.7162 230.463L70.6207 230.924C70.2565 230.849 69.8939 230.769 69.533 230.685L69.6396 230.227C69.282 230.143 68.926 230.056 68.5718 229.965L68.454 230.42C68.094 230.327 67.7357 230.23 67.3792 230.129L67.508 229.676C67.1549 229.575 66.8036 229.471 66.4541 229.362L66.3143 229.812C65.9594 229.701 65.6063 229.587 65.2551 229.468L65.4059 229.022C65.0581 228.905 64.7123 228.783 64.3684 228.657L64.2068 229.1C63.8578 228.972 63.5107 228.84 63.1657 228.705L63.3381 228.267C62.9965 228.132 62.6569 227.994 62.3195 227.852L62.1365 228.285C61.7942 228.141 61.454 227.993 61.1161 227.84L61.3096 227.411C60.9749 227.26 60.6425 227.105 60.3123 226.947L60.1084 227.371C59.7736 227.21 59.4411 227.046 59.111 226.877L59.3252 226.458C58.9983 226.291 58.6737 226.12 58.3515 225.945L58.1272 226.359C57.8008 226.182 57.4767 226.001 57.1552 225.817L57.3896 225.409C57.0712 225.226 56.7553 225.039 56.4419 224.849L56.1977 225.252C55.8803 225.059 55.5655 224.863 55.2534 224.663L55.5073 224.267C55.1982 224.069 54.8917 223.867 54.5879 223.662L54.3244 224.052C54.0168 223.844 53.712 223.633 53.4099 223.418L53.6829 223.034C53.3838 222.821 53.0874 222.605 52.7938 222.385L52.5117 222.762C52.2146 222.54 51.9205 222.314 51.6292 222.085L51.9205 221.715C51.6321 221.488 51.3466 221.257 51.064 221.023L50.7638 221.386C50.478 221.149 50.1952 220.91 49.9154 220.666L50.2244 220.311C49.9474 220.07 49.6734 219.826 49.4025 219.579L49.085 219.926C48.8112 219.676 48.5404 219.423 48.2728 219.166L48.5986 218.826C48.3337 218.572 48.072 218.315 47.8134 218.055L47.4794 218.387C47.218 218.123 46.9599 217.857 46.7052 217.588L47.0472 217.264C46.7951 216.998 46.5462 216.728 46.3006 216.455L45.9507 216.77C45.7026 216.495 45.4578 216.216 45.2165 215.935L45.574 215.628C45.3352 215.35 45.0998 215.068 44.8678 214.784L44.5029 215.081C44.2686 214.794 44.0378 214.504 43.8105 214.211L44.1826 213.922C43.9577 213.632 43.7364 213.34 43.5187 213.044L43.1397 213.323C42.9198 213.025 42.7035 212.724 42.4908 212.42L42.8766 212.15C42.6664 211.849 42.4598 211.546 42.2569 211.24L41.8645 211.501C41.6596 211.192 41.4584 210.88 41.261 210.566L41.6597 210.316C41.4645 210.005 41.2732 209.692 41.0856 209.377L40.6809 209.617C40.4915 209.299 40.3059 208.977 40.1243 208.654L40.5349 208.423C40.3554 208.104 40.1798 207.782 40.0082 207.457L39.592 207.677C39.4186 207.35 39.2493 207.02 39.0839 206.688L39.5054 206.478C39.3421 206.15 39.1828 205.819 39.0275 205.487L38.6009 205.686C38.4441 205.35 38.2913 205.012 38.1427 204.672L38.5741 204.483C38.4275 204.148 38.2849 203.81 38.1464 203.47L37.7103 203.647C37.5705 203.304 37.4348 202.959 37.3034 202.612L37.7437 202.445C37.6141 202.102 37.4886 201.758 37.3673 201.411L36.9229 201.567C36.8004 201.217 36.6822 200.866 36.5683 200.512L37.0164 200.368C36.9042 200.019 36.7961 199.669 36.6923 199.317L36.2407 199.45C36.136 199.094 36.0356 198.737 35.9395 198.378L36.3943 198.256C36.2997 197.903 36.2094 197.548 36.1234 197.191L35.6657 197.301C35.5789 196.941 35.4966 196.579 35.4186 196.215L35.879 196.117C35.8023 195.759 35.7299 195.4 35.6619 195.039L35.1992 195.126C35.1307 194.762 35.0665 194.396 35.0069 194.029L35.4716 193.954C35.4129 193.593 35.3586 193.23 35.3088 192.866L34.8423 192.93C34.792 192.564 34.7463 192.195 34.705 191.826L35.1729 191.773C35.1323 191.41 35.0962 191.045 35.0645 190.679L34.5954 190.72C34.5635 190.351 34.5361 189.981 34.5132 189.61L34.9831 189.581C34.9606 189.216 34.9426 188.849 34.929 188.482L34.4585 188.499C34.4449 188.13 34.4357 187.759 34.4312 187.387L34.902 187.381C34.8997 187.197 34.8986 187.013 34.8986 186.828C34.8986 186.644 34.8997 186.46 34.902 186.276L34.4312 186.27C34.4357 185.898 34.4449 185.527 34.4585 185.157L34.929 185.175C34.9426 184.807 34.9606 184.441 34.9831 184.076L34.5132 184.047C34.5361 183.676 34.5635 183.306 34.5954 182.937L35.0645 182.978C35.0962 182.612 35.1323 182.247 35.1729 181.883L34.705 181.831C34.7463 181.461 34.792 181.093 34.8423 180.726L35.3088 180.79C35.3586 180.426 35.4129 180.064 35.4716 179.703L35.0069 179.627C35.0665 179.26 35.1307 178.895 35.1992 178.531L35.6619 178.618C35.7299 178.257 35.8023 177.898 35.879 177.54L35.4186 177.441C35.4966 177.078 35.5789 176.716 35.6657 176.356L36.1234 176.466C36.2094 176.109 36.2997 175.754 36.3943 175.4L35.9395 175.279C36.0356 174.92 36.136 174.562 36.2407 174.207L36.6924 174.34C36.7961 173.988 36.9042 173.638 37.0164 173.289L36.5683 173.145C36.6822 172.791 36.8004 172.439 36.9229 172.09L37.3673 172.245C37.4886 171.899 37.6141 171.554 37.7437 171.212L37.3034 171.045C37.4348 170.698 37.5705 170.352 37.7103 170.009L38.1464 170.187C38.2849 169.847 38.4275 169.509 38.5741 169.173L38.1427 168.985C38.2913 168.645 38.4441 168.307 38.6009 167.971L39.0275 168.17C39.1828 167.837 39.3421 167.507 39.5054 167.179L39.0839 166.969C39.2493 166.637 39.4186 166.307 39.592 165.979L40.0082 166.2C40.1798 165.875 40.3554 165.553 40.5349 165.233L40.1243 165.003C40.3059 164.679 40.4915 164.358 40.6809 164.04L41.0856 164.28C41.2732 163.965 41.4645 163.652 41.6597 163.341L41.261 163.091C41.4584 162.776 41.6596 162.465 41.8645 162.156L42.2569 162.416C42.4598 162.11 42.6664 161.807 42.8767 161.507L42.4909 161.237C42.7035 160.933 42.9198 160.632 43.1397 160.333L43.5187 160.613C43.7365 160.317 43.9578 160.024 44.1826 159.734L43.8105 159.446C44.0378 159.153 44.2686 158.863 44.503 158.575L44.8678 158.873C45.0998 158.589 45.3352 158.307 45.574 158.028L45.2165 157.722C45.4578 157.44 45.7026 157.162 45.9507 156.886L46.3006 157.201C46.5462 156.929 46.7951 156.659 47.0472 156.392L46.7052 156.069C46.96 155.8 47.218 155.533 47.4794 155.27L47.8134 155.602C48.072 155.342 48.3338 155.084 48.5987 154.83L48.2728 154.491C48.5404 154.234 48.8112 153.981 49.0851 153.73L49.4026 154.078C49.6734 153.831 49.9474 153.587 50.2244 153.346L49.9155 152.99C50.1952 152.747 50.478 152.507 50.7638 152.271L51.064 152.633C51.3466 152.4 51.6321 152.169 51.9205 151.942L51.6292 151.572C51.9205 151.343 52.2146 151.117 52.5117 150.894L52.7939 151.271C53.0874 151.052 53.3838 150.835 53.6829 150.622L53.4099 150.239C53.712 150.024 54.0168 149.813 54.3244 149.605L54.5879 149.995C54.8917 149.79 55.1982 149.588 55.5073 149.39L55.2534 148.994C55.5656 148.794 55.8803 148.597 56.1977 148.405L56.4419 148.807C56.7553 148.617 57.0712 148.431 57.3896 148.248L57.1552 147.84C57.4768 147.655 57.8008 147.475 58.1272 147.298L58.3516 147.712C58.6737 147.537 58.9983 147.366 59.3252 147.199L59.111 146.78C59.4411 146.611 59.7736 146.446 60.1084 146.286L60.3123 146.71C60.6425 146.551 60.975 146.397 61.3096 146.246L61.1161 145.816C61.4541 145.664 61.7942 145.516 62.1365 145.371L62.3195 145.805C62.6569 145.663 62.9965 145.525 63.3381 145.39L63.1658 144.952C63.5107 144.816 63.8578 144.685 64.2068 144.557L64.3684 144.999C64.7123 144.874 65.0581 144.752 65.4059 144.635L65.2551 144.189C65.6063 144.07 65.9594 143.955 66.3144 143.845L66.4542 144.295C66.8037 144.186 67.155 144.081 67.5081 143.981L67.3793 143.528C67.7357 143.427 68.094 143.329 68.4541 143.236L68.5718 143.692C68.9261 143.601 69.282 143.513 69.6396 143.43L69.533 142.972C69.894 142.888 70.2566 142.808 70.6208 142.733L70.7162 143.194C71.0744 143.119 71.4342 143.05 71.7955 142.984L71.7113 142.521C72.0758 142.454 72.4418 142.392 72.8093 142.335L72.8823 142.8C73.2437 142.743 73.6064 142.691 73.9706 142.643L73.9089 142.176C74.276 142.127 74.6446 142.083 75.0145 142.043L75.0649 142.511C75.4286 142.472 75.7936 142.437 76.1598 142.406L76.1206 141.937C76.4895 141.906 76.8596 141.88 77.231 141.858L77.2589 142.328C77.6241 142.306 77.9905 142.289 78.358 142.276L78.3413 141.805C78.711 141.792 79.0818 141.783 79.4537 141.779L79.4593 142.25C79.6433 142.247 79.8277 142.246 80.0123 142.246C80.1969 142.246 80.3813 142.247 80.5654 142.25L80.571 141.779C80.9429 141.783 81.3137 141.792 81.6834 141.805L81.6666 142.276C82.0341 142.289 82.4005 142.306 82.7657 142.328L82.7937 141.858C83.165 141.88 83.5352 141.906 83.9041 141.937L83.8648 142.406C84.2311 142.437 84.596 142.472 84.9597 142.511L85.0102 142.043C85.38 142.083 85.7486 142.127 86.1158 142.176L86.054 142.643C86.4182 142.691 86.781 142.743 87.1423 142.8L87.2153 142.335C87.5828 142.392 87.9488 142.454 88.3133 142.521L88.2291 142.984C88.5904 143.05 88.9502 143.119 89.3084 143.194L89.4038 142.733C89.7681 142.808 90.1307 142.888 90.4916 142.972L90.385 143.43C90.7426 143.513 91.0986 143.601 91.4528 143.692L91.5706 143.236C91.9306 143.329 92.2889 143.427 92.6454 143.528L92.5165 143.981C92.8696 144.081 93.221 144.186 93.5704 144.295L93.7103 143.845C94.0652 143.955 94.4183 144.07 94.7695 144.189L94.6187 144.635C94.9665 144.752 95.3123 144.874 95.6562 144.999L95.8178 144.557C96.1668 144.685 96.5139 144.816 96.8588 144.952L96.6865 145.39C97.0281 145.525 97.3677 145.663 97.7051 145.805L97.8881 145.371C98.2304 145.516 98.5706 145.664 98.9085 145.816L98.715 146.246C99.0497 146.397 99.3821 146.551 99.7123 146.71L99.9162 146.286C100.251 146.446 100.583 146.611 100.914 146.78L100.699 147.199C101.026 147.366 101.351 147.537 101.673 147.712L101.897 147.298C102.224 147.475 102.548 147.655 102.869 147.84L102.635 148.248C102.953 148.431 103.269 148.617 103.583 148.807L103.827 148.405C104.144 148.597 104.459 148.794 104.771 148.994L104.517 149.39C104.826 149.588 105.133 149.79 105.437 149.995L105.7 149.605C106.008 149.813 106.313 150.024 106.615 150.239L106.342 150.622C106.641 150.835 106.937 151.052 107.231 151.271L107.513 150.894C107.81 151.117 108.104 151.343 108.395 151.572L108.104 151.942C108.393 152.169 108.678 152.4 108.961 152.633L109.261 152.271C109.547 152.507 109.829 152.747 110.109 152.99L109.8 153.346C110.077 153.587 110.351 153.831 110.622 154.078L110.94 153.73C111.213 153.981 111.484 154.234 111.752 154.491L111.426 154.83C111.691 155.084 111.953 155.342 112.211 155.602L112.545 155.27C112.807 155.533 113.065 155.8 113.319 156.069L112.977 156.392C113.23 156.659 113.478 156.929 113.724 157.201L114.074 156.886C114.322 157.162 114.567 157.44 114.808 157.722L114.451 158.028C114.689 158.307 114.925 158.588 115.157 158.873L115.522 158.575C115.756 158.863 115.987 159.153 116.214 159.446L115.842 159.734C116.067 160.024 116.288 160.317 116.506 160.613L116.885 160.333C117.105 160.632 117.321 160.933 117.534 161.237L117.148 161.507C117.358 161.807 117.565 162.11 117.768 162.416L118.16 162.156C118.365 162.465 118.566 162.776 118.764 163.091L118.365 163.341C118.56 163.652 118.751 163.965 118.939 164.28L119.344 164.04C119.533 164.358 119.719 164.679 119.9 165.003L119.49 165.233C119.669 165.553 119.845 165.875 120.016 166.2L120.433 165.979C120.606 166.307 120.775 166.637 120.941 166.969L120.519 167.179C120.682 167.507 120.842 167.837 120.997 168.17L121.424 167.971C121.581 168.307 121.733 168.645 121.882 168.985L121.45 169.173C121.597 169.509 121.74 169.847 121.878 170.187L122.314 170.009C122.454 170.352 122.59 170.698 122.721 171.045L122.281 171.212C122.411 171.554 122.536 171.899 122.657 172.245L123.102 172.09C123.224 172.439 123.342 172.791 123.456 173.145L123.008 173.289C123.12 173.638 123.228 173.988 123.332 174.34L123.784 174.207C123.889 174.562 123.989 174.92 124.085 175.279L123.63 175.4C123.725 175.754 123.815 176.109 123.901 176.466L124.359 176.356C124.446 176.716 124.528 177.078 124.606 177.441L124.146 177.54C124.222 177.898 124.295 178.257 124.363 178.618L124.825 178.531C124.894 178.895 124.958 179.26 125.018 179.627L124.553 179.703C124.612 180.064 124.666 180.426 124.716 180.79L125.182 180.726C125.233 181.093 125.278 181.461 125.32 181.831L124.852 181.883C124.892 182.247 124.928 182.612 124.96 182.978L125.429 182.937C125.461 183.306 125.489 183.676 125.511 184.047L125.041 184.076C125.064 184.441 125.082 184.807 125.096 185.175L125.566 185.157Z" fill="white" stroke="black" stroke-width="0.941667" stroke-dasharray="1.13 1.13"/>
<ellipse cx="80.0123" cy="186.828" rx="45.5846" ry="45.053" fill="url(#paint0_radial)"/>
<ellipse cx="80.0123" cy="186.828" rx="45.5846" ry="45.053" fill="url(#paint1_radial)"/>
<ellipse cx="80.0123" cy="186.828" rx="45.5846" ry="45.053" fill="url(#paint2_radial)"/>
<path d="M83.2077 177.337C84.9478 176.068 89.5592 174.228 88.3425 171.692C87.6377 170.224 87.1256 170.033 85.2458 170.531C83.366 171.029 78.7943 175.234 79.7842 177.297C80.6856 179.175 81.4676 178.605 83.2077 177.337Z" fill="url(#paint3_linear)"/>
<path d="M77.0316 194.401C75.2915 195.67 70.6801 197.51 71.8967 200.045C72.6016 201.514 73.1136 201.705 74.9934 201.207C76.8732 200.709 81.445 196.504 80.4551 194.441C79.5536 192.562 78.7717 193.132 77.0316 194.401Z" fill="url(#paint4_linear)"/>
<path d="M64.2777 202.218C64.2777 202.218 62.5889 197.671 63.359 193.289M95.5831 171.278C95.5831 171.278 97.1765 175.568 96.562 179.831M65.843 188.295L70.9481 193.341M65.843 188.295C64.4075 189.714 63.6756 191.487 63.359 193.289M65.843 188.295C67.2784 186.877 69.0729 186.153 70.8955 185.84M94.0178 185.201L88.9126 180.156M94.0178 185.201C95.5533 183.684 96.2838 181.76 96.562 179.831M94.0178 185.201C92.4824 186.719 90.536 187.441 88.5839 187.716M96.562 179.831L93.3869 176.693M88.5839 187.716C84.2712 188.323 79.9304 186.748 79.9304 186.748C79.9304 186.748 75.3298 185.079 70.8955 185.84M88.5839 187.716L85.4088 184.578M63.359 193.289L66.3284 196.224M70.8955 185.84L73.8649 188.775" stroke="#1A2530" stroke-width="1.00204" stroke-linecap="round"/>
<path d="M78.3669 200.671L73.2617 195.625M78.3669 200.671C76.9315 202.089 75.1369 202.813 73.3143 203.126L70.6855 200.527M78.3669 200.671C79.8023 199.252 80.5343 197.478 80.8508 195.677M81.4974 172.824L86.6026 177.87M81.4974 172.824C83.0329 171.307 84.9792 170.585 86.9313 170.31L89.867 173.211M81.4974 172.824C79.962 174.342 79.2314 176.266 78.9532 178.195M78.9532 178.195C78.3387 182.457 79.9321 186.748 79.9321 186.748C79.9321 186.748 81.621 191.295 80.8508 195.677M78.9532 178.195L81.889 181.096M80.8508 195.677L78.2219 193.079" stroke="#1A2530" stroke-width="1.00204" stroke-linecap="round"/>
<path d="M128.115 62.8754C128.128 63.2541 128.138 63.6338 128.142 64.0146L127.671 64.0202C127.674 64.2087 127.675 64.3975 127.675 64.5866C127.675 64.7757 127.674 64.9645 127.671 65.153L128.142 65.1586C128.138 65.5394 128.128 65.9192 128.115 66.2978L127.644 66.2809C127.631 66.6572 127.613 67.0323 127.591 67.4063L128.061 67.4344C128.038 67.8147 128.011 68.1938 127.979 68.5716L127.51 68.5322C127.478 68.9071 127.442 69.2807 127.402 69.6531L127.87 69.7037C127.829 70.0825 127.784 70.46 127.734 70.8361L127.267 70.7742C127.218 71.1469 127.164 71.5182 127.106 71.8881L127.571 71.9614C127.511 72.3377 127.448 72.7127 127.379 73.0861L126.916 73.0016C126.849 73.3713 126.777 73.7395 126.701 74.1062L127.162 74.202C127.084 74.575 127.002 74.9464 126.916 75.3162L126.458 75.2092C126.372 75.5753 126.283 75.9397 126.189 76.3024L126.644 76.4205C126.549 76.7891 126.449 77.156 126.345 77.5211L125.892 77.3919C125.789 77.7535 125.682 78.1132 125.57 78.4712L126.02 78.6113C125.906 78.9746 125.789 79.336 125.667 79.6956L125.221 79.5445C125.101 79.9007 124.976 80.2549 124.847 80.6072L125.289 80.769C125.158 81.1262 125.023 81.4814 124.884 81.8345L124.446 81.662C124.309 82.0119 124.167 82.3597 124.021 82.7055L124.455 82.8886C124.307 83.2389 124.155 83.587 123.999 83.933L123.569 83.7395C123.415 84.0823 123.256 84.4229 123.094 84.7613L123.518 84.9652C123.354 85.3078 123.185 85.6481 123.012 85.9862L122.593 85.7721C122.422 86.107 122.247 86.4397 122.068 86.7699L122.483 86.9941C122.302 87.3282 122.117 87.66 121.928 87.9894L121.52 87.7554C121.333 88.0817 121.142 88.4055 120.948 88.7269L121.35 88.9707C121.154 89.2957 120.953 89.6182 120.749 89.9382L120.352 89.6848C120.15 90.0017 119.944 90.3161 119.734 90.6279L120.125 90.8907C119.913 91.2059 119.697 91.5184 119.478 91.8282L119.093 91.5562C118.876 91.863 118.655 92.1673 118.431 92.4687L118.808 92.7499C118.582 93.0545 118.351 93.3564 118.118 93.6554L117.747 93.3653C117.515 93.6615 117.28 93.9549 117.041 94.2454L117.405 94.5442C117.164 94.8376 116.92 95.1282 116.672 95.4158L116.315 95.1085C116.07 95.3933 115.821 95.6752 115.569 95.9541L115.918 96.2698C115.664 96.5514 115.406 96.8301 115.144 97.1056L114.803 96.7817C114.544 97.0546 114.282 97.3244 114.017 97.5911L114.351 97.923C114.084 98.1922 113.813 98.4583 113.539 98.7212L113.213 98.3815C112.941 98.6418 112.667 98.8989 112.39 99.1528L112.708 99.5002C112.428 99.7564 112.145 100.009 111.858 100.259L111.549 99.9044C111.266 100.152 110.979 100.395 110.69 100.636L110.991 100.998C110.7 101.241 110.405 101.48 110.107 101.716L109.815 101.347C109.52 101.581 109.223 101.811 108.923 102.037L109.206 102.413C108.904 102.642 108.598 102.867 108.289 103.089L108.015 102.706C107.71 102.926 107.402 103.141 107.091 103.354L107.357 103.742C107.043 103.957 106.728 104.167 106.409 104.374L106.152 103.979C105.837 104.184 105.52 104.385 105.199 104.582L105.446 104.983C105.123 105.182 104.798 105.378 104.47 105.569L104.232 105.163C103.908 105.352 103.581 105.538 103.252 105.72L103.48 106.132C103.148 106.316 102.813 106.496 102.476 106.671L102.258 106.254C101.925 106.428 101.59 106.598 101.253 106.765L101.461 107.187C101.12 107.355 100.778 107.519 100.433 107.678L100.235 107.251C99.8943 107.409 99.5515 107.563 99.2064 107.714L99.3944 108.145C99.0465 108.297 98.6966 108.444 98.3445 108.588L98.1668 108.152C97.8192 108.293 97.4694 108.431 97.1177 108.565L97.285 109.005C96.9304 109.14 96.5738 109.27 96.2152 109.397L96.0583 108.953C95.7045 109.078 95.3487 109.199 94.9911 109.316L95.1374 109.763C94.7767 109.881 94.4142 109.995 94.0499 110.105L93.9142 109.654C93.555 109.762 93.194 109.866 92.8313 109.966L92.9563 110.42C92.5904 110.521 92.2228 110.617 91.8534 110.709L91.7392 110.253C91.3755 110.344 91.0102 110.43 90.6433 110.513L90.7467 110.972C90.3763 111.056 90.0043 111.135 89.6308 111.21L89.5382 110.748C89.1709 110.822 88.8021 110.891 88.4318 110.956L88.5135 111.42C88.1395 111.486 87.7641 111.548 87.3872 111.605L87.3164 111.139C86.9463 111.196 86.5747 111.248 86.2018 111.296L86.2616 111.763C85.8852 111.811 85.5074 111.855 85.1283 111.894L85.0794 111.426C84.7069 111.465 84.3332 111.5 83.9582 111.53L83.9962 111.999C83.6182 112.03 83.2389 112.056 82.8585 112.078L82.8314 111.608C82.4574 111.63 82.0821 111.647 81.7058 111.66L81.722 112.131C81.3434 112.144 80.9636 112.152 80.5828 112.157L80.5773 111.686C80.3887 111.688 80.1999 111.689 80.0107 111.689C79.8216 111.689 79.6327 111.688 79.4441 111.686L79.4387 112.157C79.0579 112.152 78.6781 112.144 78.2995 112.131L78.3157 111.66C77.9394 111.647 77.5641 111.63 77.1901 111.608L77.1629 112.078C76.7825 112.056 76.4033 112.03 76.0253 111.999L76.0633 111.53C75.6883 111.5 75.3146 111.465 74.9421 111.426L74.8932 111.894C74.5141 111.855 74.1363 111.811 73.7598 111.763L73.8197 111.296C73.4468 111.248 73.0752 111.196 72.7051 111.139L72.6343 111.605C72.2574 111.548 71.882 111.486 71.508 111.42L71.5897 110.956C71.2194 110.891 70.8506 110.822 70.4833 110.748L70.3907 111.21C70.0172 111.135 69.6452 111.056 69.2748 110.972L69.3782 110.513C69.0113 110.43 68.6459 110.344 68.2823 110.253L68.1681 110.709C67.7987 110.617 67.4311 110.521 67.0652 110.42L67.1902 109.966C66.8274 109.866 66.4665 109.762 66.1073 109.654L65.9716 110.105C65.6073 109.995 65.2447 109.881 64.8841 109.763L65.0304 109.316C64.6728 109.199 64.317 109.078 63.9632 108.953L63.8063 109.397C63.4477 109.27 63.0911 109.14 62.7365 109.005L62.9038 108.565C62.552 108.431 62.2023 108.293 61.8547 108.152L61.677 108.588C61.3249 108.444 60.9749 108.297 60.6271 108.145L60.815 107.714C60.47 107.563 60.1271 107.409 59.7865 107.251L59.5884 107.678C59.2436 107.519 58.901 107.355 58.5607 107.187L58.7688 106.765C58.4313 106.598 58.0961 106.428 57.7631 106.254L57.5451 106.671C57.2083 106.496 56.8739 106.316 56.5419 106.132L56.7697 105.72C56.4405 105.538 56.1136 105.352 55.7892 105.163L55.5517 105.569C55.2236 105.378 54.8981 105.182 54.5751 104.983L54.8222 104.582C54.5019 104.385 54.1841 104.184 53.869 103.979L53.6126 104.374C53.294 104.167 52.978 103.957 52.6648 103.742L52.9304 103.354C52.6199 103.141 52.3119 102.926 52.0068 102.706L51.732 103.089C51.4235 102.867 51.1179 102.642 50.815 102.413L51.0988 102.037C50.7986 101.811 50.5012 101.581 50.2066 101.347L49.9141 101.716C49.6165 101.48 49.3218 101.241 49.0301 100.998L49.3312 100.636C49.0421 100.395 48.7559 100.152 48.4727 99.9044L48.1631 100.259C47.877 100.009 47.5939 99.7564 47.3139 99.5002L47.6318 99.1528C47.3543 98.8989 47.08 98.6418 46.8087 98.3815L46.4827 98.7212C46.2088 98.4583 45.9379 98.1922 45.6703 97.923L46.0043 97.5911C45.7392 97.3244 45.4773 97.0546 45.2187 96.7817L44.877 97.1056C44.6158 96.8301 44.3578 96.5514 44.1032 96.2698L44.4525 95.9541C44.2004 95.6751 43.9516 95.3933 43.7062 95.1084L43.3495 95.4158C43.1017 95.1282 42.8572 94.8376 42.6163 94.5442L42.9801 94.2454C42.7416 93.9549 42.5065 93.6615 42.2748 93.3653L41.904 93.6554C41.6701 93.3564 41.4397 93.0545 41.213 92.7499L41.5907 92.4687C41.3663 92.1673 41.1454 91.863 40.9281 91.5562L40.5439 91.8282C40.3245 91.5184 40.1088 91.2059 39.8968 90.8907L40.2875 90.6279C40.0778 90.3161 39.8717 90.0017 39.6694 89.6848L39.2725 89.9382C39.0683 89.6182 38.8678 89.2957 38.6711 88.9707L39.0739 88.7269C38.8794 88.4055 38.6887 88.0817 38.5018 87.7554L38.0933 87.9894C37.9046 87.66 37.7198 87.3282 37.5389 86.9941L37.953 86.77C37.7743 86.4397 37.5994 86.107 37.4284 85.7721L37.009 85.9862C36.8365 85.6482 36.6679 85.3078 36.5033 84.9652L36.9277 84.7613C36.7652 84.4229 36.6066 84.0823 36.452 83.7395L36.0228 83.933C35.8668 83.587 35.7148 83.2389 35.567 82.8886L36.0007 82.7055C35.8548 82.3597 35.7129 82.0119 35.5752 81.662L35.1371 81.8345C34.998 81.4814 34.8631 81.1262 34.7324 80.769L35.1745 80.6072C35.0456 80.2549 34.9208 79.9007 34.8002 79.5446L34.3543 79.6956C34.2325 79.336 34.115 78.9746 34.0018 78.6113L34.4513 78.4712C34.3397 78.1132 34.2323 77.7535 34.1292 77.3919L33.6764 77.5211C33.5723 77.156 33.4725 76.7891 33.377 76.4205L33.8328 76.3025C33.7388 75.9397 33.6491 75.5753 33.5638 75.2092L33.1052 75.3162C33.019 74.9464 32.9371 74.575 32.8596 74.202L33.3206 74.1062C33.2445 73.7396 33.1727 73.3713 33.1052 73.0016L32.642 73.0861C32.5739 72.7127 32.5101 72.3378 32.4508 71.9614L32.916 71.8881C32.8577 71.5182 32.8038 71.1469 32.7543 70.7742L32.2876 70.8362C32.2377 70.46 32.1922 70.0825 32.1512 69.7037L32.6193 69.6531C32.579 69.2807 32.5431 68.9071 32.5116 68.5322L32.0425 68.5716C32.0107 68.1938 31.9835 67.8147 31.9608 67.4344L32.4308 67.4063C32.4085 67.0323 32.3905 66.6572 32.3771 66.2809L31.9065 66.2978C31.893 65.9192 31.8839 65.5394 31.8794 65.1586L32.3502 65.153C32.3479 64.9645 32.3468 64.7757 32.3468 64.5866C32.3468 64.3975 32.3479 64.2087 32.3502 64.0202L31.8794 64.0146C31.8839 63.6338 31.893 63.2541 31.9065 62.8754L32.3771 62.8923C32.3905 62.516 32.4085 62.1409 32.4308 61.7669L31.9608 61.7388C31.9835 61.3585 32.0107 60.9794 32.0425 60.6016L32.5116 60.641C32.5431 60.2661 32.579 59.8925 32.6193 59.5202L32.1512 59.4695C32.1922 59.0907 32.2377 58.7132 32.2876 58.3371L32.7543 58.399C32.8038 58.0263 32.8577 57.655 32.916 57.2851L32.4508 57.2119C32.5101 56.8355 32.5738 56.4605 32.642 56.0871L33.1052 56.1716C33.1726 55.8019 33.2445 55.4337 33.3206 55.067L32.8596 54.9713C32.9371 54.5982 33.019 54.2268 33.1052 53.857L33.5638 53.964C33.6491 53.5979 33.7388 53.2335 33.8328 52.8708L33.377 52.7527C33.4725 52.3841 33.5723 52.0173 33.6764 51.6522L34.1292 51.7813C34.2323 51.4198 34.3397 51.06 34.4512 50.702L34.0017 50.5619C34.115 50.1986 34.2325 49.8372 34.3543 49.4777L34.8002 49.6287C34.9208 49.2725 35.0456 48.9183 35.1745 48.566L34.7324 48.4042C34.8631 48.047 34.998 47.6918 35.1371 47.3387L35.5751 47.5112C35.7129 47.1613 35.8548 46.8135 36.0007 46.4677L35.5669 46.2846C35.7148 45.9343 35.8668 45.5862 36.0228 45.2402L36.452 45.4337C36.6066 45.0909 36.7652 44.7503 36.9277 44.4119L36.5033 44.208C36.6679 43.8654 36.8365 43.5251 37.009 43.187L37.4284 43.4011C37.5994 43.0662 37.7743 42.7335 37.953 42.4033L37.5389 42.1792C37.7198 41.845 37.9046 41.5132 38.0933 41.1838L38.5018 41.4178C38.6887 41.0915 38.8794 40.7677 39.0739 40.4463L38.6711 40.2025C38.8678 39.8775 39.0683 39.555 39.2725 39.235L39.6694 39.4884C39.8717 39.1715 40.0778 38.8571 40.2875 38.5453L39.8968 38.2825C40.1088 37.9674 40.3245 37.6548 40.5439 37.345L40.9281 37.6171C41.1454 37.3102 41.3663 37.006 41.5907 36.7045L41.213 36.4233C41.4398 36.1187 41.6701 35.8168 41.904 35.5178L42.2748 35.8079C42.5065 35.5117 42.7416 35.2183 42.9801 34.9278L42.6163 34.629C42.8572 34.3356 43.1017 34.045 43.3495 33.7574L43.7062 34.0648C43.9516 33.7799 44.2004 33.4981 44.4525 33.2191L44.1032 32.9034C44.3578 32.6218 44.6158 32.3431 44.877 32.0676L45.2187 32.3915C45.4773 32.1187 45.7392 31.8489 46.0043 31.5822L45.6703 31.2502C45.9379 30.981 46.2088 30.7149 46.4827 30.452L46.8087 30.7917C47.08 30.5314 47.3543 30.2743 47.6318 30.0204L47.3139 29.673C47.5939 29.4168 47.877 29.1638 48.1631 28.9141L48.4727 29.2688C48.7559 29.0216 49.0421 28.7777 49.3312 28.5372L49.0301 28.1752C49.3218 27.9325 49.6165 27.6931 49.9141 27.4572L50.2066 27.8262C50.5012 27.5926 50.7986 27.3625 51.0988 27.1359L50.815 26.7601C51.1179 26.5314 51.4235 26.3062 51.732 26.0846L52.0068 26.4669C52.3119 26.2476 52.6199 26.0317 52.9304 25.8195L52.6648 25.4307C52.978 25.2166 53.294 25.0061 53.6126 24.7992L53.869 25.1941C54.1841 24.9894 54.5019 24.7884 54.8222 24.591L54.5751 24.1901C54.8981 23.9911 55.2236 23.7957 55.5517 23.604L55.7892 24.0106C56.1136 23.821 56.4405 23.6352 56.7697 23.4531L56.5419 23.0411C56.8739 22.8575 57.2083 22.6777 57.5451 22.5017L57.7631 22.919C58.0961 22.7451 58.4313 22.5749 58.7688 22.4086L58.5607 21.9862C58.901 21.8185 59.2436 21.6547 59.5884 21.4948L59.7864 21.922C60.1271 21.764 60.47 21.6099 60.815 21.4597L60.6271 21.028C60.9749 20.8765 61.3249 20.7291 61.677 20.5856L61.8546 21.0217C62.2023 20.88 62.552 20.7423 62.9038 20.6086L62.7365 20.1685C63.0911 20.0337 63.4477 19.9029 63.8063 19.7762L63.9631 20.2202C64.317 20.0952 64.6727 19.9742 65.0304 19.8573L64.8841 19.4098C65.2447 19.2919 65.6073 19.1781 65.9716 19.0685L66.1073 19.5193C66.4664 19.4112 66.8274 19.3072 67.1902 19.2074L67.0652 18.7534C67.4311 18.6527 67.7987 18.5561 68.168 18.4638L68.2822 18.9206C68.6459 18.8296 69.0113 18.7428 69.3782 18.6602L69.2748 18.2009C69.6452 18.1175 70.0171 18.0383 70.3907 17.9634L70.4832 18.4251C70.8505 18.3515 71.2194 18.282 71.5897 18.2168L71.508 17.7531C71.882 17.6872 72.2574 17.6256 72.6343 17.5683L72.705 18.0338C73.0752 17.9775 73.4468 17.9255 73.8197 17.8777L73.7598 17.4107C74.1363 17.3624 74.5141 17.3185 74.8932 17.2789L74.9421 17.7472C75.3145 17.7083 75.6883 17.6736 76.0633 17.6432L76.0253 17.1739C76.4033 17.1433 76.7825 17.117 77.1629 17.0951L77.19 17.5651C77.5641 17.5435 77.9394 17.5262 78.3157 17.5132L78.2995 17.0427C78.6781 17.0296 79.0579 17.0209 79.4387 17.0165L79.4441 17.4873C79.6327 17.4851 79.8216 17.484 80.0107 17.484C80.1999 17.484 80.3887 17.4851 80.5773 17.4873L80.5828 17.0165C80.9636 17.0209 81.3434 17.0296 81.722 17.0427L81.7058 17.5132C82.0821 17.5262 82.4573 17.5435 82.8314 17.5651L82.8585 17.0951C83.2389 17.117 83.6182 17.1433 83.9962 17.1739L83.9582 17.6432C84.3332 17.6736 84.7069 17.7083 85.0794 17.7472L85.1283 17.2789C85.5074 17.3185 85.8852 17.3624 86.2616 17.4107L86.2018 17.8777C86.5747 17.9255 86.9463 17.9775 87.3164 18.0338L87.3872 17.5683C87.764 17.6256 88.1395 17.6872 88.5134 17.7531L88.4318 18.2168C88.8021 18.282 89.1709 18.3514 89.5382 18.4251L89.6307 17.9634C90.0043 18.0383 90.3763 18.1175 90.7466 18.2009L90.6432 18.6602C91.0102 18.7428 91.3755 18.8296 91.7392 18.9206L91.8534 18.4638C92.2228 18.5561 92.5904 18.6527 92.9563 18.7534L92.8313 19.2074C93.194 19.3072 93.555 19.4112 93.9142 19.5193L94.0498 19.0684C94.4142 19.1781 94.7767 19.2919 95.1374 19.4098L94.9911 19.8573C95.3487 19.9742 95.7045 20.0952 96.0583 20.2202L96.2151 19.7762C96.5737 19.9029 96.9304 20.0337 97.285 20.1685L97.1177 20.6086C97.4694 20.7423 97.8192 20.88 98.1668 21.0217L98.3445 20.5856C98.6965 20.7291 99.0465 20.8765 99.3944 21.0279L99.2064 21.4597C99.5515 21.6098 99.8943 21.764 100.235 21.9219L100.433 21.4948C100.778 21.6547 101.12 21.8185 101.461 21.9862L101.253 22.4086C101.59 22.5749 101.925 22.7451 102.258 22.919L102.476 22.5017C102.813 22.6777 103.148 22.8575 103.48 23.0411L103.252 23.4531C103.581 23.6352 103.908 23.821 104.232 24.0106L104.47 23.604C104.798 23.7957 105.123 23.9911 105.446 24.1901L105.199 24.591C105.52 24.7884 105.837 24.9894 106.152 25.1941L106.409 24.7992C106.728 25.0061 107.043 25.2166 107.357 25.4307L107.091 25.8195C107.402 26.0317 107.71 26.2476 108.015 26.4669L108.289 26.0846C108.598 26.3062 108.904 26.5314 109.206 26.7601L108.923 27.1359C109.223 27.3625 109.52 27.5926 109.815 27.8262L110.107 27.4572C110.405 27.6932 110.7 27.9325 110.991 28.1752L110.69 28.5372C110.979 28.7777 111.266 29.0216 111.549 29.2688L111.858 28.9141C112.145 29.1638 112.428 29.4168 112.708 29.673L112.39 30.0204C112.667 30.2743 112.941 30.5314 113.213 30.7917L113.539 30.452C113.813 30.7149 114.084 30.981 114.351 31.2502L114.017 31.5822C114.282 31.8489 114.544 32.1187 114.803 32.3915L115.145 32.0676C115.406 32.3431 115.664 32.6218 115.918 32.9034L115.569 33.2192C115.821 33.4981 116.07 33.7799 116.315 34.0648L116.672 33.7574C116.92 34.045 117.164 34.3356 117.405 34.629L117.041 34.9278C117.28 35.2183 117.515 35.5117 117.747 35.8079L118.118 35.5178C118.351 35.8168 118.582 36.1187 118.808 36.4233L118.431 36.7045C118.655 37.006 118.876 37.3102 119.093 37.6171L119.478 37.345C119.697 37.6548 119.913 37.9674 120.125 38.2825L119.734 38.5453C119.944 38.8571 120.15 39.1715 120.352 39.4884L120.749 39.235C120.953 39.555 121.154 39.8775 121.35 40.2025L120.948 40.4463C121.142 40.7677 121.333 41.0915 121.52 41.4178L121.928 41.1838C122.117 41.5132 122.302 41.845 122.483 42.1791L122.068 42.4033C122.247 42.7335 122.422 43.0662 122.593 43.4011L123.012 43.187C123.185 43.5251 123.354 43.8654 123.518 44.208L123.094 44.4119C123.256 44.7503 123.415 45.0909 123.569 45.4337L123.999 45.2402C124.155 45.5862 124.307 45.9343 124.455 46.2846L124.021 46.4677C124.167 46.8135 124.309 47.1613 124.446 47.5112L124.884 47.3387C125.023 47.6918 125.158 48.047 125.289 48.4042L124.847 48.566C124.976 48.9183 125.101 49.2725 125.221 49.6287L125.667 49.4776C125.789 49.8372 125.906 50.1986 126.02 50.5619L125.57 50.702C125.682 51.06 125.789 51.4197 125.892 51.7813L126.345 51.6521C126.449 52.0172 126.549 52.3841 126.644 52.7527L126.189 52.8708C126.283 53.2335 126.372 53.5979 126.458 53.964L126.916 53.857C127.002 54.2268 127.084 54.5982 127.162 54.9712L126.701 55.067C126.777 55.4337 126.849 55.8019 126.916 56.1716L127.379 56.0871C127.448 56.4605 127.511 56.8354 127.571 57.2118L127.106 57.2851C127.164 57.655 127.218 58.0263 127.267 58.399L127.734 58.3371C127.784 58.7132 127.829 59.0907 127.87 59.4695L127.402 59.5201C127.442 59.8925 127.478 60.2661 127.51 60.641L127.979 60.6016C128.011 60.9794 128.038 61.3585 128.061 61.7388L127.591 61.7669C127.613 62.1409 127.631 62.516 127.644 62.8923L128.115 62.8754Z" fill="white" stroke="black" stroke-width="0.941667" stroke-dasharray="1.13 1.13"/>
<ellipse cx="80.0107" cy="64.5866" rx="48.1348" ry="47.5734" fill="url(#paint5_radial)"/>
<ellipse cx="80.0107" cy="64.5866" rx="48.1348" ry="47.5734" fill="url(#paint6_radial)"/>
<ellipse cx="80.0107" cy="64.5866" rx="48.1348" ry="47.5734" fill="url(#paint7_radial)"/>
<rect width="43.2192" height="15.92" transform="matrix(0.711242 -0.702947 0.711242 0.702947 58.0156 73.228)" stroke="black" stroke-width="1.00204" stroke-linejoin="round"/>
<path d="M80.9645 70.5009C84.3512 67.1537 93.7007 60.7338 90.4906 57.5611C88.6307 55.7229 87.4953 55.7996 83.6219 58.0098C79.7485 60.22 71.0653 70.4201 73.6772 73.0016C76.0557 75.3524 77.5777 73.8481 80.9645 70.5009Z" fill="url(#paint8_linear)"/>
<circle r="5.11713" transform="matrix(0.711242 -0.702947 0.711242 0.702947 79.1306 63.5503)" stroke="black" stroke-width="1.00204"/>
<line x1="127.51" y1="63.8007" x2="188.077" y2="63.8007" stroke="black" stroke-width="0.941667" stroke-dasharray="1.13 1.13"/>
<line x1="125.597" y1="186.042" x2="188.076" y2="186.042" stroke="black" stroke-width="0.941667" stroke-dasharray="1.13 1.13"/>
<path d="M197.463 60.1255C199.66 60.1255 200.912 58.7522 200.916 56.4551C200.916 54.183 199.682 52.8204 197.591 52.8204H195.323V60.1255H197.463ZM195.99 59.5262V53.4197H197.552C199.325 53.4197 200.266 54.5647 200.27 56.4551C200.27 58.3634 199.307 59.5262 197.424 59.5262H195.99ZM202.408 60.1255H203.046V54.6467H202.408V60.1255ZM202.732 53.705C202.993 53.705 203.21 53.4982 203.21 53.2485C203.21 52.9988 202.993 52.7919 202.732 52.7919C202.472 52.7919 202.258 52.9988 202.258 53.2485C202.258 53.4982 202.472 53.705 202.732 53.705ZM206.815 62.2942C208.114 62.2942 209.077 61.6593 209.077 60.2682V54.6467H208.456V55.6918H208.392C208.167 55.1996 207.714 54.5718 206.708 54.5718C205.353 54.5718 204.443 55.7061 204.443 57.3718C204.443 59.0518 205.385 60.0684 206.698 60.0684C207.682 60.0684 208.164 59.4977 208.381 58.9948H208.438V60.2289C208.438 61.2491 207.786 61.7235 206.815 61.7235C205.877 61.7235 205.428 61.2705 205.196 60.8531L204.675 61.1956C204.996 61.8233 205.695 62.2942 206.815 62.2942ZM206.773 59.487C205.685 59.487 205.082 58.6167 205.082 57.3611C205.082 56.127 205.674 55.1496 206.773 55.1496C207.846 55.1496 208.449 56.077 208.449 57.3611C208.449 58.6845 207.828 59.487 206.773 59.487ZM210.765 60.1255H211.403V54.6467H210.765V60.1255ZM211.089 53.705C211.35 53.705 211.567 53.4982 211.567 53.2485C211.567 52.9988 211.35 52.7919 211.089 52.7919C210.829 52.7919 210.615 52.9988 210.615 53.2485C210.615 53.4982 210.829 53.705 211.089 53.705ZM215.24 54.6467H214.081V53.3341H213.443V54.6467H212.626V55.1996H213.443V58.845C213.443 59.7403 214.149 60.2075 214.852 60.2075C215.116 60.2075 215.294 60.1576 215.415 60.1112L215.28 59.5369C215.19 59.5619 215.076 59.5869 214.909 59.5869C214.477 59.5869 214.081 59.3836 214.081 58.6952V55.1996H215.24V54.6467ZM216.689 60.1255H217.328V54.6467H216.689V60.1255ZM217.014 53.705C217.274 53.705 217.492 53.4982 217.492 53.2485C217.492 52.9988 217.274 52.7919 217.014 52.7919C216.754 52.7919 216.54 52.9988 216.54 53.2485C216.54 53.4982 216.754 53.705 217.014 53.705ZM218.836 60.1255H222.934V59.5262H219.71V59.4799L222.82 55.171V54.6467H218.971V55.2459H222.003V55.2923L218.836 59.6226V60.1255ZM226.391 60.2396C227.49 60.2396 228.228 59.644 228.478 58.9555L227.875 58.7594C227.665 59.2516 227.169 59.6582 226.391 59.6582C225.271 59.6582 224.562 58.8414 224.533 57.5751H228.614V57.2613C228.614 55.4314 227.483 54.5718 226.295 54.5718C224.876 54.5718 223.895 55.7596 223.895 57.4182C223.895 59.0804 224.858 60.2396 226.391 60.2396ZM224.537 57.0151C224.604 55.995 225.293 55.1496 226.295 55.1496C227.276 55.1496 227.965 55.9593 227.965 57.0151H224.537ZM231.985 60.2396C232.98 60.2396 233.444 59.6083 233.669 59.1089H233.744V60.1255H234.364V52.8204H233.726V55.6918H233.669C233.451 55.1996 232.998 54.5718 231.996 54.5718C230.644 54.5718 229.731 55.7132 229.731 57.4004C229.731 59.1018 230.641 60.2396 231.985 60.2396ZM232.06 59.6582C230.969 59.6582 230.37 58.6666 230.37 57.3897C230.37 56.127 230.962 55.1496 232.06 55.1496C233.13 55.1496 233.737 56.077 233.737 57.3897C233.737 58.713 233.123 59.6582 232.06 59.6582ZM239.13 60.1255H239.797V57.3326H241.498C243.043 57.3326 243.842 56.3517 243.842 55.0747C243.842 53.7978 243.043 52.8204 241.488 52.8204H239.13V60.1255ZM239.797 56.7333V53.4197H241.47C242.625 53.4197 243.185 54.1152 243.185 55.0747C243.185 56.0307 242.625 56.7333 241.48 56.7333H239.797ZM246.806 60.2503C247.719 60.2503 248.275 59.7438 248.504 59.2587H248.543V60.1255H249.178V56.4052C249.178 54.9356 248.072 54.5718 247.234 54.5718C246.396 54.5718 245.532 54.9035 245.162 55.7988L245.764 56.0164C245.964 55.5456 246.46 55.1425 247.252 55.1425C248.083 55.1425 248.543 55.5991 248.543 56.3481V56.4765C248.543 56.8903 248.029 56.8974 247.109 57.0116C245.871 57.1649 245.005 57.5109 245.005 58.5953C245.005 59.6511 245.811 60.2503 246.806 60.2503ZM246.891 59.6689C246.175 59.6689 245.639 59.2873 245.639 58.6238C245.639 57.9604 246.182 57.6821 247.109 57.568C247.558 57.5145 248.357 57.4146 248.543 57.2327V58.0246C248.543 58.9234 247.904 59.6689 246.891 59.6689ZM253.025 54.6467H251.866V53.3341H251.227V54.6467H250.41V55.1996H251.227V58.845C251.227 59.7403 251.933 60.2075 252.636 60.2075C252.9 60.2075 253.078 60.1576 253.2 60.1112L253.064 59.5369C252.975 59.5619 252.861 59.5869 252.693 59.5869C252.261 59.5869 251.866 59.3836 251.866 58.6952V55.1996H253.025V54.6467ZM255.219 56.7012C255.219 55.7453 255.861 55.1568 256.739 55.1568C257.588 55.1568 258.13 55.7132 258.13 56.6156V60.1255H258.768V56.5764C258.768 55.2709 258.012 54.5754 256.899 54.5754C256.072 54.5754 255.533 54.9392 255.276 55.5063H255.219V52.8204H254.584V60.1255H255.219V56.7012ZM262.57 60.2396C263.989 60.2396 264.981 59.0804 264.981 57.4111C264.981 55.731 263.989 54.5718 262.57 54.5718C261.15 54.5718 260.159 55.731 260.159 57.4111C260.159 59.0804 261.15 60.2396 262.57 60.2396ZM262.57 59.6582C261.432 59.6582 260.797 58.6381 260.797 57.4111C260.797 56.184 261.432 55.1496 262.57 55.1496C263.708 55.1496 264.343 56.184 264.343 57.4111C264.343 58.6381 263.708 59.6582 262.57 59.6582ZM267.01 52.8204H266.375V60.1255H267.01V52.8204ZM270.819 60.2396C272.239 60.2396 273.23 59.0804 273.23 57.4111C273.23 55.731 272.239 54.5718 270.819 54.5718C269.4 54.5718 268.408 55.731 268.408 57.4111C268.408 59.0804 269.4 60.2396 270.819 60.2396ZM270.819 59.6582C269.681 59.6582 269.046 58.6381 269.046 57.4111C269.046 56.184 269.681 55.1496 270.819 55.1496C271.957 55.1496 272.592 56.184 272.592 57.4111C272.592 58.6381 271.957 59.6582 270.819 59.6582ZM276.714 62.2942C278.013 62.2942 278.976 61.6593 278.976 60.2682V54.6467H278.355V55.6918H278.291C278.066 55.1996 277.613 54.5718 276.607 54.5718C275.252 54.5718 274.342 55.7061 274.342 57.3718C274.342 59.0518 275.284 60.0684 276.597 60.0684C277.581 60.0684 278.063 59.4977 278.28 58.9948H278.337V60.2289C278.337 61.2491 277.685 61.7235 276.714 61.7235C275.776 61.7235 275.327 61.2705 275.095 60.8531L274.574 61.1956C274.895 61.8233 275.594 62.2942 276.714 62.2942ZM276.672 59.487C275.584 59.487 274.981 58.6167 274.981 57.3611C274.981 56.127 275.573 55.1496 276.672 55.1496C277.745 55.1496 278.348 56.077 278.348 57.3611C278.348 58.6845 277.727 59.487 276.672 59.487ZM281.099 62.18C281.784 62.18 282.287 61.7877 282.579 60.9922L284.901 54.6574L284.209 54.6467L282.583 59.2873H282.533L280.907 54.6467H280.218L282.233 60.179L282.034 60.7354C281.73 61.563 281.302 61.7092 280.657 61.5059L280.486 62.0659C280.614 62.1265 280.849 62.18 281.099 62.18ZM199.289 69.6467H199.935C199.885 68.5374 198.925 67.717 197.566 67.717C196.218 67.717 195.18 68.5267 195.18 69.7038C195.18 70.6419 195.844 71.2304 196.988 71.5693L197.862 71.8261C198.768 72.09 199.389 72.4289 199.389 73.1744C199.389 74.0518 198.594 74.6404 197.502 74.6404C196.518 74.6404 195.747 74.166 195.676 73.2992H194.991C195.069 74.4549 196.011 75.2503 197.502 75.2503C199.086 75.2503 200.035 74.355 200.035 73.1851C200.035 71.9723 198.979 71.4872 198.051 71.2268L197.281 71.0057C196.571 70.8059 195.826 70.4457 195.826 69.6752C195.826 68.8905 196.528 68.3162 197.548 68.3162C198.515 68.3162 199.207 68.8334 199.289 69.6467ZM202.143 67.8204H201.508V75.1255H202.143V67.8204ZM203.83 75.1255H204.468V69.6467H203.83V75.1255ZM204.154 68.705C204.415 68.705 204.632 68.4982 204.632 68.2485C204.632 67.9988 204.415 67.7919 204.154 67.7919C203.894 67.7919 203.68 67.9988 203.68 68.2485C203.68 68.4982 203.894 68.705 204.154 68.705ZM208.12 75.2396C209.115 75.2396 209.579 74.6083 209.804 74.1089H209.878V75.1255H210.499V67.8204H209.861V70.6918H209.804C209.586 70.1996 209.133 69.5718 208.131 69.5718C206.779 69.5718 205.866 70.7132 205.866 72.4004C205.866 74.1018 206.775 75.2396 208.12 75.2396ZM208.195 74.6582C207.103 74.6582 206.504 73.6666 206.504 72.3897C206.504 71.127 207.096 70.1496 208.195 70.1496C209.265 70.1496 209.871 71.077 209.871 72.3897C209.871 73.713 209.258 74.6582 208.195 74.6582ZM214.523 75.2396C215.621 75.2396 216.36 74.644 216.609 73.9555L216.006 73.7594C215.796 74.2516 215.3 74.6582 214.523 74.6582C213.403 74.6582 212.693 73.8414 212.664 72.5751H216.745V72.2613C216.745 70.4314 215.614 69.5718 214.426 69.5718C213.007 69.5718 212.026 70.7596 212.026 72.4182C212.026 74.0804 212.989 75.2396 214.523 75.2396ZM212.668 72.0151C212.736 70.995 213.424 70.1496 214.426 70.1496C215.407 70.1496 216.096 70.9593 216.096 72.0151H212.668ZM221.825 70.8488C221.557 70.0569 220.972 69.5718 219.97 69.5718C218.864 69.5718 218.062 70.2031 218.062 71.1056C218.062 71.8404 218.508 72.3397 219.46 72.568L220.355 72.782C220.958 72.9247 221.247 73.235 221.247 73.6738C221.247 74.2445 220.701 74.6689 219.86 74.6689C219.111 74.6689 218.643 74.3301 218.49 73.6809L217.88 73.8307C218.073 74.7438 218.797 75.2396 219.87 75.2396C221.076 75.2396 221.903 74.5762 221.903 73.6452C221.903 72.914 221.443 72.4253 220.527 72.2006L219.699 71.9973C219.018 71.8261 218.7 71.5514 218.7 71.077C218.7 70.5206 219.232 70.1318 219.97 70.1318C220.709 70.1318 221.072 70.5206 221.244 71.0128L221.825 70.8488Z" fill="black"/>
<rect x="188.546" y="43.3185" width="113.179" height="41.9059" rx="6.88672" stroke="black" stroke-width="0.941667"/>
<path d="M195.323 182.367H195.99V179.574H197.691C199.236 179.574 200.035 178.593 200.035 177.316C200.035 176.039 199.236 175.062 197.68 175.062H195.323V182.367ZM195.99 178.975V175.661H197.663C198.818 175.661 199.378 176.357 199.378 177.316C199.378 178.272 198.818 178.975 197.673 178.975H195.99ZM202.999 182.492C203.912 182.492 204.468 181.986 204.697 181.5H204.736V182.367H205.371V178.647C205.371 177.177 204.265 176.813 203.427 176.813C202.589 176.813 201.725 177.145 201.354 178.041L201.957 178.258C202.157 177.787 202.653 177.384 203.445 177.384C204.276 177.384 204.736 177.841 204.736 178.59V178.718C204.736 179.132 204.222 179.139 203.302 179.253C202.064 179.407 201.197 179.753 201.197 180.837C201.197 181.893 202.004 182.492 202.999 182.492ZM203.084 181.911C202.367 181.911 201.832 181.529 201.832 180.866C201.832 180.202 202.375 179.924 203.302 179.81C203.751 179.756 204.55 179.656 204.736 179.474V180.266C204.736 181.165 204.097 181.911 203.084 181.911ZM209.218 176.888H208.058V175.576H207.42V176.888H206.603V177.441H207.42V181.087C207.42 181.982 208.126 182.449 208.829 182.449C209.093 182.449 209.271 182.399 209.392 182.353L209.257 181.779C209.168 181.804 209.054 181.829 208.886 181.829C208.454 181.829 208.058 181.625 208.058 180.937V177.441H209.218V176.888ZM210.667 182.367H211.305V176.888H210.667V182.367ZM210.991 175.947C211.252 175.947 211.469 175.74 211.469 175.49C211.469 175.24 211.252 175.034 210.991 175.034C210.731 175.034 210.517 175.24 210.517 175.49C210.517 175.74 210.731 175.947 210.991 175.947ZM215.199 182.481C216.298 182.481 217.036 181.886 217.286 181.197L216.683 181.001C216.473 181.493 215.977 181.9 215.199 181.9C214.079 181.9 213.37 181.083 213.341 179.817H217.422V179.503C217.422 177.673 216.291 176.813 215.103 176.813C213.683 176.813 212.703 178.001 212.703 179.66C212.703 181.322 213.666 182.481 215.199 182.481ZM213.345 179.257C213.412 178.237 214.101 177.391 215.103 177.391C216.084 177.391 216.772 178.201 216.772 179.257H213.345ZM219.456 178.943C219.456 177.987 220.083 177.398 220.947 177.398C221.788 177.398 222.331 177.962 222.331 178.857V182.367H222.965V178.818C222.965 177.52 222.213 176.817 221.107 176.817C220.305 176.817 219.752 177.188 219.495 177.748H219.438V176.888H218.821V182.367H219.456V178.943ZM226.795 176.888H225.636V175.576H224.998V176.888H224.181V177.441H224.998V181.087C224.998 181.982 225.704 182.449 226.407 182.449C226.671 182.449 226.849 182.399 226.97 182.353L226.835 181.779C226.746 181.804 226.631 181.829 226.464 181.829C226.032 181.829 225.636 181.625 225.636 180.937V177.441H226.795V176.888ZM230.998 178.936H227.959V179.535H230.998V178.936ZM233.227 175.062H232.593V182.367H233.227V175.062ZM237.123 182.481C238.221 182.481 238.96 181.886 239.209 181.197L238.606 181.001C238.396 181.493 237.9 181.9 237.123 181.9C236.003 181.9 235.293 181.083 235.264 179.817H239.345V179.503C239.345 177.673 238.214 176.813 237.026 176.813C235.607 176.813 234.626 178.001 234.626 179.66C234.626 181.322 235.589 182.481 237.123 182.481ZM235.268 179.257C235.336 178.237 236.024 177.391 237.026 177.391C238.007 177.391 238.696 178.201 238.696 179.257H235.268ZM244.818 176.888H244.13L242.503 181.529H242.453L240.827 176.888H240.138L242.139 182.367H242.817L244.818 176.888ZM248.079 182.481C249.178 182.481 249.916 181.886 250.166 181.197L249.563 181.001C249.353 181.493 248.857 181.9 248.079 181.9C246.959 181.9 246.249 181.083 246.221 179.817H250.301V179.503C250.301 177.673 249.171 176.813 247.983 176.813C246.563 176.813 245.582 178.001 245.582 179.66C245.582 181.322 246.545 182.481 248.079 182.481ZM246.224 179.257C246.292 178.237 246.981 177.391 247.983 177.391C248.964 177.391 249.652 178.201 249.652 179.257H246.224ZM252.335 175.062H251.701V182.367H252.335V175.062ZM200.377 192.345H201.062C200.826 191.057 199.731 189.962 198.133 189.962C196.282 189.962 194.995 191.425 194.995 193.715C194.995 196.001 196.268 197.467 198.18 197.467C199.888 197.467 201.112 196.301 201.112 194.428V193.829H198.337V194.428H200.463C200.445 195.923 199.507 196.839 198.18 196.839C196.703 196.839 195.64 195.676 195.64 193.715C195.64 191.746 196.71 190.59 198.133 190.59C199.339 190.59 200.113 191.375 200.377 192.345ZM204.851 197.481C205.949 197.481 206.688 196.886 206.938 196.197L206.335 196.001C206.124 196.493 205.628 196.9 204.851 196.9C203.731 196.9 203.021 196.083 202.993 194.817H207.073V194.503C207.073 192.673 205.942 191.813 204.755 191.813C203.335 191.813 202.354 193.001 202.354 194.66C202.354 196.322 203.317 197.481 204.851 197.481ZM202.996 194.257C203.064 193.237 203.752 192.391 204.755 192.391C205.735 192.391 206.424 193.201 206.424 194.257H202.996ZM209.107 193.943C209.107 192.987 209.735 192.398 210.598 192.398C211.44 192.398 211.982 192.962 211.982 193.857V197.367H212.617V193.818C212.617 192.52 211.864 191.817 210.759 191.817C209.956 191.817 209.403 192.188 209.146 192.748H209.089V191.888H208.472V197.367H209.107V193.943ZM216.418 197.481C217.838 197.481 218.83 196.322 218.83 194.653C218.83 192.973 217.838 191.813 216.418 191.813C214.999 191.813 214.007 192.973 214.007 194.653C214.007 196.322 214.999 197.481 216.418 197.481ZM216.418 196.9C215.281 196.9 214.646 195.88 214.646 194.653C214.646 193.426 215.281 192.391 216.418 192.391C217.556 192.391 218.191 193.426 218.191 194.653C218.191 195.88 217.556 196.9 216.418 196.9ZM220.223 197.367H220.858V193.857C220.858 193.005 221.425 192.398 222.185 192.398C222.934 192.398 223.369 192.898 223.369 193.64V197.367H224.019V193.761C224.019 192.973 224.489 192.398 225.324 192.398C226.048 192.398 226.53 192.834 226.53 193.697V197.367H227.165V193.697C227.165 192.47 226.533 191.817 225.517 191.817C224.718 191.817 224.14 192.206 223.894 192.812H223.847C223.605 192.192 223.123 191.817 222.367 191.817C221.65 191.817 221.115 192.163 220.898 192.73H220.84V191.888H220.223V197.367ZM228.853 197.367H229.491V191.888H228.853V197.367ZM229.177 190.947C229.438 190.947 229.655 190.74 229.655 190.49C229.655 190.24 229.438 190.034 229.177 190.034C228.917 190.034 228.703 190.24 228.703 190.49C228.703 190.74 228.917 190.947 229.177 190.947ZM233.31 197.481C234.452 197.481 235.254 196.761 235.401 195.769H234.759C234.612 196.468 234.038 196.9 233.31 196.9C232.237 196.9 231.527 195.965 231.527 194.631C231.527 193.304 232.258 192.391 233.31 192.391C234.092 192.391 234.619 192.894 234.755 193.515H235.397C235.247 192.498 234.398 191.813 233.3 191.813C231.866 191.813 230.888 193.005 230.888 194.653C230.888 196.286 231.837 197.481 233.31 197.481ZM243.685 191.888H244.33C244.28 190.779 243.321 189.959 241.962 189.959C240.614 189.959 239.576 190.768 239.576 191.945C239.576 192.884 240.239 193.472 241.384 193.811L242.258 194.068C243.164 194.332 243.785 194.671 243.785 195.416C243.785 196.294 242.989 196.882 241.898 196.882C240.913 196.882 240.143 196.408 240.072 195.541H239.387C239.465 196.697 240.407 197.492 241.898 197.492C243.481 197.492 244.43 196.597 244.43 195.427C244.43 194.214 243.374 193.729 242.447 193.469L241.677 193.247C240.967 193.048 240.221 192.687 240.221 191.917C240.221 191.132 240.924 190.558 241.944 190.558C242.911 190.558 243.603 191.075 243.685 191.888ZM248.118 197.481C249.217 197.481 249.955 196.886 250.205 196.197L249.602 196.001C249.392 196.493 248.896 196.9 248.118 196.9C246.998 196.9 246.289 196.083 246.26 194.817H250.341V194.503C250.341 192.673 249.21 191.813 248.022 191.813C246.603 191.813 245.622 193.001 245.622 194.66C245.622 196.322 246.585 197.481 248.118 197.481ZM246.264 194.257C246.331 193.237 247.02 192.391 248.022 192.391C249.003 192.391 249.692 193.201 249.692 194.257H246.264ZM256.091 199.422V191.888H255.474V192.934H255.396C255.175 192.441 254.729 191.813 253.723 191.813C252.368 191.813 251.458 192.951 251.458 194.642C251.458 196.34 252.371 197.481 253.712 197.481C254.707 197.481 255.178 196.854 255.396 196.351H255.453V199.422H256.091ZM255.464 194.631C255.464 195.955 254.85 196.9 253.791 196.9C252.699 196.9 252.096 195.908 252.096 194.631C252.096 193.369 252.689 192.391 253.791 192.391C254.861 192.391 255.464 193.319 255.464 194.631ZM261.234 195.273C261.234 196.279 260.478 196.821 259.736 196.821C258.944 196.821 258.388 196.254 258.388 195.398V191.888H257.753V195.437C257.753 196.736 258.502 197.439 259.554 197.439C260.357 197.439 260.927 197.021 261.184 196.458H261.234V197.367H261.869V191.888H261.234V195.273ZM265.765 197.481C266.864 197.481 267.602 196.886 267.852 196.197L267.249 196.001C267.038 196.493 266.543 196.9 265.765 196.9C264.645 196.9 263.935 196.083 263.907 194.817H267.987V194.503C267.987 192.673 266.856 191.813 265.669 191.813C264.249 191.813 263.268 193.001 263.268 194.66C263.268 196.322 264.231 197.481 265.765 197.481ZM263.91 194.257C263.978 193.237 264.666 192.391 265.669 192.391C266.65 192.391 267.338 193.201 267.338 194.257H263.91ZM270.021 193.943C270.021 192.987 270.649 192.398 271.512 192.398C272.354 192.398 272.896 192.962 272.896 193.857V197.367H273.531V193.818C273.531 192.52 272.778 191.817 271.673 191.817C270.87 191.817 270.317 192.188 270.06 192.748H270.003V191.888H269.386V197.367H270.021V193.943ZM277.343 197.481C278.485 197.481 279.287 196.761 279.433 195.769H278.791C278.645 196.468 278.071 196.9 277.343 196.9C276.27 196.9 275.56 195.965 275.56 194.631C275.56 193.304 276.291 192.391 277.343 192.391C278.124 192.391 278.652 192.894 278.788 193.515H279.43C279.28 192.498 278.431 191.813 277.332 191.813C275.899 191.813 274.921 193.005 274.921 194.653C274.921 196.286 275.87 197.481 277.343 197.481ZM280.801 197.367H281.44V191.888H280.801V197.367ZM281.126 190.947C281.386 190.947 281.604 190.74 281.604 190.49C281.604 190.24 281.386 190.034 281.126 190.034C280.865 190.034 280.651 190.24 280.651 190.49C280.651 190.74 280.865 190.947 281.126 190.947ZM283.754 193.943C283.754 192.987 284.382 192.398 285.245 192.398C286.087 192.398 286.629 192.962 286.629 193.857V197.367H287.264V193.818C287.264 192.52 286.511 191.817 285.405 191.817C284.603 191.817 284.05 192.188 283.793 192.748H283.736V191.888H283.119V197.367H283.754V193.943ZM291.026 199.536C292.324 199.536 293.287 198.901 293.287 197.51V191.888H292.667V192.934H292.602C292.378 192.441 291.925 191.813 290.919 191.813C289.563 191.813 288.654 192.948 288.654 194.614C288.654 196.294 289.596 197.31 290.908 197.31C291.893 197.31 292.374 196.739 292.592 196.236H292.649V197.471C292.649 198.491 291.996 198.965 291.026 198.965C290.088 198.965 289.638 198.512 289.406 198.095L288.886 198.437C289.207 199.065 289.906 199.536 291.026 199.536ZM290.983 196.729C289.895 196.729 289.292 195.858 289.292 194.603C289.292 193.369 289.884 192.391 290.983 192.391C292.057 192.391 292.66 193.319 292.66 194.603C292.66 195.926 292.039 196.729 290.983 196.729Z" fill="black"/>
<rect x="188.546" y="165.56" width="113.179" height="41.9059" rx="6.88672" stroke="black" stroke-width="0.941667"/>
<defs>
<radialGradient id="paint0_radial" cx="0" cy="0" r="1" gradientUnits="userSpaceOnUse" gradientTransform="translate(88.6399 191.665) rotate(7.57844) scale(27.0202 18.8944)">
<stop stop-color="#5AEEFF" stop-opacity="0.3"/>
<stop offset="1" stop-color="#5AEEFF" stop-opacity="0"/>
</radialGradient>
<radialGradient id="paint1_radial" cx="0" cy="0" r="1" gradientUnits="userSpaceOnUse" gradientTransform="translate(69.0669 203.373) rotate(159.391) scale(43.0679 46.117)">
<stop offset="0.210643" stop-color="#0057FF" stop-opacity="0.1"/>
<stop offset="1" stop-color="white" stop-opacity="0"/>
</radialGradient>
<radialGradient id="paint2_radial" cx="0" cy="0" r="1" gradientUnits="userSpaceOnUse" gradientTransform="translate(80.0123 186.828) rotate(-146.854) scale(40.8934 40.7033)">
<stop offset="0.606926" stop-color="#5AEEFF" stop-opacity="0.1"/>
<stop offset="1" stop-color="white" stop-opacity="0"/>
</radialGradient>
<linearGradient id="paint3_linear" x1="80.0317" y1="178.295" x2="86.1025" y2="169.06" gradientUnits="userSpaceOnUse">
<stop stop-color="#14DDE0"/>
<stop offset="1" stop-color="#C9CDFF"/>
<stop offset="1" stop-color="#5967FA"/>
</linearGradient>
<linearGradient id="paint4_linear" x1="80.2076" y1="193.443" x2="74.1367" y2="202.678" gradientUnits="userSpaceOnUse">
<stop stop-color="#14DDE0"/>
<stop offset="1" stop-color="#C9CDFF"/>
<stop offset="1" stop-color="#5967FA"/>
</linearGradient>
<radialGradient id="paint5_radial" cx="0" cy="0" r="1" gradientUnits="userSpaceOnUse" gradientTransform="translate(89.121 69.6934) rotate(7.57844) scale(28.5318 19.9514)">
<stop stop-color="#5AEEFF" stop-opacity="0.3"/>
<stop offset="1" stop-color="#5AEEFF" stop-opacity="0"/>
</radialGradient>
<radialGradient id="paint6_radial" cx="0" cy="0" r="1" gradientUnits="userSpaceOnUse" gradientTransform="translate(68.453 82.0571) rotate(159.391) scale(45.4773 48.697)">
<stop offset="0.210643" stop-color="#0057FF" stop-opacity="0.1"/>
<stop offset="1" stop-color="white" stop-opacity="0"/>
</radialGradient>
<radialGradient id="paint7_radial" cx="0" cy="0" r="1" gradientUnits="userSpaceOnUse" gradientTransform="translate(80.0107 64.5866) rotate(-146.854) scale(43.1811 42.9804)">
<stop offset="0.606926" stop-color="#5AEEFF" stop-opacity="0.1"/>
<stop offset="1" stop-color="white" stop-opacity="0"/>
</radialGradient>
<linearGradient id="paint8_linear" x1="74.449" y1="74.4241" x2="77.2244" y2="53.9344" gradientUnits="userSpaceOnUse">
<stop stop-color="#14DDE0"/>
<stop offset="1" stop-color="#C9CDFF"/>
<stop offset="1" stop-color="#5967FA"/>
</linearGradient>
</defs>
</svg>
