<svg width="77" height="38" viewBox="0 0 77 38" fill="none" xmlns="http://www.w3.org/2000/svg">
<mask id="path-1-inside-1" fill="white">
<path fill-rule="evenodd" clip-rule="evenodd" d="M32.058 4.43128C30.4419 1.77445 27.5192 0 24.1821 0C20.3552 0 17.0733 2.33356 15.6818 5.65535C14.8708 5.4218 14.0139 5.29666 13.1277 5.29666C8.69746 5.29666 4.99766 8.424 4.11549 12.5915C1.63477 14.2421 0 17.0633 0 20.2664C0 25.354 4.12434 29.4784 9.21197 29.4784C9.23805 29.4784 9.26412 29.4783 9.29015 29.4781C9.30273 29.4781 9.31532 29.4782 9.32792 29.4782H43.6425C43.8315 29.4782 44.0185 29.4692 44.2029 29.4518C44.4358 29.4694 44.671 29.4784 44.9083 29.4784C49.996 29.4784 54.1203 25.354 54.1203 20.2664C54.1203 15.1788 49.996 11.0544 44.9083 11.0544C44.8471 11.0544 44.786 11.055 44.7251 11.0562C43.8724 6.85044 40.1544 3.68464 35.697 3.68464C34.4046 3.68464 33.1743 3.9508 32.058 4.43128Z"/>
</mask>
<path fill-rule="evenodd" clip-rule="evenodd" d="M32.058 4.43128C30.4419 1.77445 27.5192 0 24.1821 0C20.3552 0 17.0733 2.33356 15.6818 5.65535C14.8708 5.4218 14.0139 5.29666 13.1277 5.29666C8.69746 5.29666 4.99766 8.424 4.11549 12.5915C1.63477 14.2421 0 17.0633 0 20.2664C0 25.354 4.12434 29.4784 9.21197 29.4784C9.23805 29.4784 9.26412 29.4783 9.29015 29.4781C9.30273 29.4781 9.31532 29.4782 9.32792 29.4782H43.6425C43.8315 29.4782 44.0185 29.4692 44.2029 29.4518C44.4358 29.4694 44.671 29.4784 44.9083 29.4784C49.996 29.4784 54.1203 25.354 54.1203 20.2664C54.1203 15.1788 49.996 11.0544 44.9083 11.0544C44.8471 11.0544 44.786 11.055 44.7251 11.0562C43.8724 6.85044 40.1544 3.68464 35.697 3.68464C34.4046 3.68464 33.1743 3.9508 32.058 4.43128Z" fill="white"/>
<path d="M32.058 4.43128L31.3552 4.85884L31.7267 5.46959L32.3833 5.18695L32.058 4.43128ZM15.6818 5.65535L15.4542 6.44592L16.1577 6.64854L16.4406 5.97322L15.6818 5.65535ZM4.11549 12.5915L4.57122 13.2764L4.85081 13.0904L4.92035 12.7619L4.11549 12.5915ZM9.29015 29.4781L9.29539 28.6553L9.28334 28.6554L9.29015 29.4781ZM44.2029 29.4518L44.2651 28.6314L44.1952 28.6261L44.1254 28.6327L44.2029 29.4518ZM44.7251 11.0562L43.9188 11.2197L44.0552 11.8922L44.7412 11.8788L44.7251 11.0562ZM24.1821 0.822698C27.2202 0.822698 29.882 2.43713 31.3552 4.85884L32.7609 4.00373C31.0017 1.11176 27.8182 -0.822698 24.1821 -0.822698V0.822698ZM16.4406 5.97322C17.7086 2.94648 20.6983 0.822698 24.1821 0.822698V-0.822698C20.0122 -0.822698 16.4381 1.72064 14.923 5.33748L16.4406 5.97322ZM13.1277 6.11936C13.9361 6.11936 14.7164 6.23346 15.4542 6.44592L15.9095 4.86478C15.0252 4.61013 14.0917 4.47396 13.1277 4.47396V6.11936ZM4.92035 12.7619C5.72369 8.96683 9.0941 6.11936 13.1277 6.11936V4.47396C8.30082 4.47396 4.27164 7.88117 3.31062 12.4211L4.92035 12.7619ZM0.822698 20.2664C0.822698 17.3502 2.30998 14.781 4.57122 13.2764L3.65975 11.9066C0.959569 13.7032 -0.822698 16.7765 -0.822698 20.2664H0.822698ZM9.21197 28.6557C4.5787 28.6557 0.822698 24.8997 0.822698 20.2664H-0.822698C-0.822698 25.8084 3.66997 30.3011 9.21197 30.3011V28.6557ZM9.28334 28.6554C9.25956 28.6556 9.23577 28.6557 9.21197 28.6557V30.3011C9.24034 30.3011 9.26867 30.301 9.29696 30.3007L9.28334 28.6554ZM9.32792 28.6555C9.31698 28.6555 9.30614 28.6554 9.29539 28.6554L9.28491 30.3007C9.29932 30.3008 9.31366 30.3009 9.32792 30.3009V28.6555ZM43.6425 28.6555H9.32792V30.3009H43.6425V28.6555ZM44.1254 28.6327C43.9667 28.6478 43.8056 28.6555 43.6425 28.6555V30.3009C43.8575 30.3009 44.0703 30.2907 44.2805 30.2708L44.1254 28.6327ZM44.9083 28.6557C44.6918 28.6557 44.4772 28.6475 44.2651 28.6314L44.1408 30.2721C44.3943 30.2913 44.6503 30.3011 44.9083 30.3011V28.6557ZM53.2976 20.2664C53.2976 24.8997 49.5416 28.6557 44.9083 28.6557V30.3011C50.4503 30.3011 54.943 25.8084 54.943 20.2664H53.2976ZM44.9083 11.8771C49.5416 11.8771 53.2976 15.6331 53.2976 20.2664H54.943C54.943 14.7244 50.4503 10.2317 44.9083 10.2317V11.8771ZM44.7412 11.8788C44.7968 11.8777 44.8525 11.8771 44.9083 11.8771V10.2317C44.8418 10.2317 44.7753 10.2324 44.709 10.2337L44.7412 11.8788ZM35.697 4.50734C39.7553 4.50734 43.1423 7.38988 43.9188 11.2197L45.5314 10.8928C44.6024 6.31101 40.5534 2.86194 35.697 2.86194V4.50734ZM32.3833 5.18695C33.3988 4.74987 34.5185 4.50734 35.697 4.50734V2.86194C34.2907 2.86194 32.9499 3.15173 31.7328 3.67562L32.3833 5.18695Z" fill="black" mask="url(#path-1-inside-1)"/>
<mask id="path-3-inside-2" fill="white">
<path fill-rule="evenodd" clip-rule="evenodd" d="M54.3979 12.9528C52.7817 10.296 49.8591 8.52156 46.522 8.52156C42.6951 8.52156 39.4132 10.8551 38.0217 14.1769C37.2107 13.9434 36.3537 13.8182 35.4675 13.8182C31.0373 13.8182 27.3375 16.9456 26.4553 21.113C23.9746 22.7636 22.3398 25.5849 22.3398 28.788C22.3398 33.8756 26.4642 37.9999 31.5518 37.9999C31.5779 37.9999 31.604 37.9998 31.6301 37.9996C31.6427 37.9997 31.6552 37.9997 31.6678 37.9997H65.9823C66.1714 37.9997 66.3583 37.9908 66.5428 37.9733C66.7756 37.991 67.0109 37.9999 67.2482 37.9999C72.3358 37.9999 76.4602 33.8756 76.4602 28.788C76.4602 23.7003 72.3358 19.576 67.2482 19.576C67.187 19.576 67.1259 19.5766 67.0649 19.5778C66.2122 15.372 62.4942 12.2062 58.0368 12.2062C56.7444 12.2062 55.5142 12.4724 54.3979 12.9528Z"/>
</mask>
<path fill-rule="evenodd" clip-rule="evenodd" d="M54.3979 12.9528C52.7817 10.296 49.8591 8.52156 46.522 8.52156C42.6951 8.52156 39.4132 10.8551 38.0217 14.1769C37.2107 13.9434 36.3537 13.8182 35.4675 13.8182C31.0373 13.8182 27.3375 16.9456 26.4553 21.113C23.9746 22.7636 22.3398 25.5849 22.3398 28.788C22.3398 33.8756 26.4642 37.9999 31.5518 37.9999C31.5779 37.9999 31.604 37.9998 31.6301 37.9996C31.6427 37.9997 31.6552 37.9997 31.6678 37.9997H65.9823C66.1714 37.9997 66.3583 37.9908 66.5428 37.9733C66.7756 37.991 67.0109 37.9999 67.2482 37.9999C72.3358 37.9999 76.4602 33.8756 76.4602 28.788C76.4602 23.7003 72.3358 19.576 67.2482 19.576C67.187 19.576 67.1259 19.5766 67.0649 19.5778C66.2122 15.372 62.4942 12.2062 58.0368 12.2062C56.7444 12.2062 55.5142 12.4724 54.3979 12.9528Z" fill="white"/>
<path d="M54.3979 12.9528L53.695 13.3804L54.0665 13.9911L54.7232 13.7085L54.3979 12.9528ZM38.0217 14.1769L37.794 14.9675L38.4976 15.1701L38.7805 14.4948L38.0217 14.1769ZM26.4553 21.113L26.9111 21.798L27.1906 21.612L27.2602 21.2834L26.4553 21.113ZM31.6301 37.9996L31.6353 37.1768L31.6233 37.1769L31.6301 37.9996ZM66.5428 37.9733L66.6049 37.153L66.535 37.1477L66.4652 37.1543L66.5428 37.9733ZM67.0649 19.5778L66.2587 19.7413L66.395 20.4137L67.081 20.4003L67.0649 19.5778ZM46.522 9.34426C49.5601 9.34426 52.2219 10.9587 53.695 13.3804L55.1008 12.5253C53.3416 9.63332 50.1581 7.69886 46.522 7.69886V9.34426ZM38.7805 14.4948C40.0484 11.468 43.0381 9.34426 46.522 9.34426V7.69886C42.352 7.69886 38.778 10.2422 37.2629 13.859L38.7805 14.4948ZM35.4675 14.6409C36.2759 14.6409 37.0562 14.755 37.794 14.9675L38.2493 13.3863C37.3651 13.1317 36.4315 12.9955 35.4675 12.9955V14.6409ZM27.2602 21.2834C28.0635 17.4884 31.4339 14.6409 35.4675 14.6409V12.9955C30.6407 12.9955 26.6115 16.4027 25.6505 20.9427L27.2602 21.2834ZM23.1625 28.788C23.1625 25.8717 24.6498 23.3026 26.9111 21.798L25.9996 20.4281C23.2994 22.2247 21.5171 25.298 21.5171 28.788H23.1625ZM31.5518 37.1772C26.9185 37.1772 23.1625 33.4212 23.1625 28.788H21.5171C21.5171 34.33 26.0098 38.8226 31.5518 38.8226V37.1772ZM31.6233 37.1769C31.5995 37.1771 31.5757 37.1772 31.5518 37.1772V38.8226C31.5802 38.8226 31.6086 38.8225 31.637 38.8223L31.6233 37.1769ZM31.6678 37.177C31.657 37.177 31.6461 37.177 31.6353 37.1769L31.625 38.8223C31.6392 38.8224 31.6535 38.8224 31.6678 38.8224V37.177ZM65.9823 37.177H31.6678V38.8224H65.9823V37.177ZM66.4652 37.1543C66.3065 37.1693 66.1454 37.177 65.9823 37.177V38.8224C66.1973 38.8224 66.4101 38.8123 66.6203 38.7924L66.4652 37.1543ZM67.2482 37.1772C67.0316 37.1772 66.8171 37.169 66.6049 37.153L66.4807 38.7937C66.7341 38.8129 66.9901 38.8226 67.2482 38.8226V37.1772ZM75.6375 28.788C75.6375 33.4212 71.8815 37.1772 67.2482 37.1772V38.8226C72.7902 38.8226 77.2829 34.33 77.2829 28.788H75.6375ZM67.2482 20.3987C71.8815 20.3987 75.6375 24.1547 75.6375 28.788H77.2829C77.2829 23.246 72.7902 18.7533 67.2482 18.7533V20.3987ZM67.081 20.4003C67.1366 20.3992 67.1923 20.3987 67.2482 20.3987V18.7533C67.1816 18.7533 67.1152 18.754 67.0489 18.7553L67.081 20.4003ZM58.0368 13.0289C62.0952 13.0289 65.4821 15.9114 66.2587 19.7413L67.8712 19.4143C66.9423 14.8326 62.8933 11.3835 58.0368 11.3835V13.0289ZM54.7232 13.7085C55.7386 13.2714 56.8583 13.0289 58.0368 13.0289V11.3835C56.6305 11.3835 55.2897 11.6733 54.0726 12.1972L54.7232 13.7085Z" fill="black" mask="url(#path-3-inside-2)"/>
<g style="mix-blend-mode:multiply">
<path d="M58.669 30.1889C52.8027 30.8634 38.4461 31.171 39.8716 34.0289C40.6974 35.6846 41.9828 36.0347 47.6377 36.155C53.2926 36.2753 69.3476 37.4284 68.1877 35.1031C67.1315 32.9856 64.5353 29.5144 58.669 30.1889Z" fill="url(#paint0_linear)"/>
</g>
<defs>
<linearGradient id="paint0_linear" x1="80.9546" y1="29.9189" x2="42.8447" y2="52.4239" gradientUnits="userSpaceOnUse">
<stop offset="0.159308" stop-color="#248AE5"/>
<stop offset="0.536455" stop-color="#5AEEFF"/>
<stop offset="1" stop-color="#38E8A9"/>
</linearGradient>
</defs>
</svg>
