<svg width="177" height="33" viewBox="0 0 177 33" fill="none" xmlns="http://www.w3.org/2000/svg">
<path d="M0 0.000488281H12.9054C15.3636 0.000488281 17.2072 0.615033 18.5729 1.63927C20.0751 2.86836 20.8945 4.64371 20.8945 6.82876C20.8945 9.35522 19.8703 10.9257 17.8218 11.8817V12.0182C20.5531 12.9059 22.1236 15.3641 22.1236 18.3003C22.1236 21.0999 21.0311 23.2849 19.2557 24.6506C17.7535 25.7431 15.8416 26.2211 13.2468 26.2211H0V0.000488281ZM11.6081 10.2429C12.9737 10.2429 13.998 9.49179 13.998 7.92129C13.998 6.41906 12.9737 5.66795 11.5398 5.66795H7.10141V10.1746H11.6081V10.2429ZM12.2226 20.417C13.7931 20.417 14.9539 19.4611 14.9539 17.754C14.9539 15.9104 13.7248 15.091 12.2226 15.091H7.16969V20.4853H12.2226V20.417Z" fill="#374554"/>
<path d="M23.2844 0H30.0444V26.2889H23.2844V0Z" fill="#374554"/>
<path d="M31.41 16.934C31.41 10.9934 35.2339 7.03296 41.1745 7.03296C47.1151 7.03296 50.8706 11.0616 50.8706 16.934C50.8706 22.8746 47.1151 26.835 41.1745 26.835C35.2339 26.835 31.41 22.8746 31.41 16.934ZM44.1106 16.934C44.1106 13.6564 43.0864 11.6079 41.0379 11.6079C38.9894 11.6079 38.0335 13.6564 38.0335 16.934C38.0335 20.2115 38.9894 22.3283 41.0379 22.3283C43.0864 22.26 44.1106 20.2115 44.1106 16.934Z" fill="#374554"/>
<path d="M51.6217 16.934C51.6217 10.9934 55.4455 7.03296 61.3861 7.03296C67.3267 7.03296 71.014 10.9934 71.014 16.934C71.014 22.8746 67.2584 26.835 61.3179 26.835C55.4455 26.835 51.6217 22.8746 51.6217 16.934ZM64.3223 16.934C64.3223 13.6564 63.298 11.6079 61.2496 11.6079C59.2011 11.6079 58.2451 13.6564 58.2451 16.934C58.2451 20.2115 59.2011 22.3283 61.2496 22.3283C63.298 22.26 64.3223 20.2115 64.3223 16.934Z" fill="#374554"/>
<path d="M72.3796 7.51086H78.6616V10.3105H78.7982C80.0273 8.12541 81.7344 6.9646 84.4657 6.9646C86.8556 6.9646 88.6309 8.12541 89.5186 10.1739H89.6552C91.1574 7.71571 93.1376 6.9646 95.4592 6.9646C99.8293 6.9646 101.673 10.1739 101.673 14.4757V26.2203H95.1178V15.6365C95.1178 13.7246 94.5032 12.4955 92.8645 12.4955C91.2257 12.4955 90.4063 13.9977 90.4063 16.0462V26.2203H83.8511V15.6365C83.8511 13.7246 83.2366 12.4955 81.5978 12.4955C79.959 12.4955 79.1396 13.9977 79.1396 16.0462V26.2203H72.3796V7.51086Z" fill="#374554"/>
<path d="M109.935 23.7624H109.867V26.2206H103.585V0H110.14V9.42302H110.277C111.506 7.78423 113.213 6.89656 115.603 6.89656C120.314 6.89656 123.046 11.1301 123.046 16.7976C123.046 23.1478 120.109 26.8351 115.193 26.8351C113.145 26.8351 111.028 25.8792 109.935 23.7624ZM116.286 16.7293C116.286 13.7248 115.193 11.7446 113.213 11.7446C111.164 11.7446 109.935 13.7248 109.935 16.7293C109.935 19.7337 111.233 21.7139 113.213 21.7139C115.193 21.7139 116.286 19.802 116.286 16.7293Z" fill="#374554"/>
<path d="M123.797 16.8656C123.797 10.9933 127.689 6.9646 133.288 6.9646C136.087 6.9646 138.204 7.85228 139.843 9.42278C142.028 11.5395 142.984 14.8171 142.916 18.6409H130.352C130.625 20.9626 131.717 22.1916 133.698 22.1916C134.858 22.1916 135.883 21.6454 136.292 20.4163H142.643C141.55 24.7181 138.204 26.8349 133.493 26.8349C127.689 26.7666 123.797 22.8062 123.797 16.8656ZM130.352 14.8854H136.361C136.224 12.6321 134.995 11.4713 133.424 11.4713C131.581 11.403 130.557 12.7003 130.352 14.8854Z" fill="#374554"/>
<path d="M150.359 10.7205H150.495C151.861 8.1258 153.636 7.10156 155.889 7.10156C156.436 7.10156 156.777 7.16985 156.982 7.30641V13.0422H156.845C152.953 12.3593 150.7 14.203 150.7 18.4365V26.289H144.077V7.51126H150.359V10.7205Z" fill="#374554"/>
<path d="M157.665 26.2888H164.015C164.288 27.1082 165.108 27.8593 166.678 27.8593C168.795 27.8593 169.546 26.5619 169.546 24.5817V23.2161H169.409C168.385 24.4451 166.951 25.3328 164.903 25.3328C160.874 25.3328 157.323 22.3284 157.323 16.4561C157.323 11.0617 160.191 6.89648 164.561 6.89648C167.088 6.89648 168.59 7.92073 169.614 9.49123H169.751V7.44275H176.033V23.694C176.033 26.6985 175.009 29.0201 173.438 30.3857C171.799 31.8197 169.478 32.4342 166.815 32.4342C161.762 32.5025 158.279 30.454 157.665 26.2888ZM169.819 16.1829C169.819 13.8613 168.727 11.9494 166.815 11.9494C164.971 11.9494 163.81 13.5882 163.81 16.1829C163.81 18.7094 164.971 20.4847 166.815 20.4847C168.658 20.4847 169.819 18.6411 169.819 16.1829Z" fill="#374554"/>
</svg>
