<svg width="263" height="41" viewBox="0 0 263 41" fill="none" xmlns="http://www.w3.org/2000/svg">
<path d="M6.11656 9.95698C4.3998 10.7581 2.68305 11.6165 1.13796 12.3604C0.508482 8.12576 5.02929 4.63501 9.66455 6.46622C10.7518 6.8668 11.7247 7.49628 12.7547 7.89686C15.4443 8.92692 16.4744 8.69801 18.7062 6.8668C18.9351 7.03847 19.164 7.15293 19.3929 7.3246C18.4773 8.69801 17.5617 10.1287 16.7033 11.5021C16.2455 12.246 15.3871 12.9327 15.3299 13.6194C15.2154 17.568 15.2726 21.5737 15.2726 26.3807C16.7033 24.8356 17.5617 23.8628 18.3628 22.9471C18.3628 26.6668 15.4443 30.4437 11.7819 31.4737C7.89057 32.561 3.77033 30.9015 1.71022 27.4107C-0.00654661 24.435 -0.578811 21.0587 0.680148 18.083C1.88188 15.2789 4.28535 12.9899 6.11656 10.472C6.17379 10.3003 6.11656 10.1287 6.11656 9.95698ZM14.5287 12.1315C13.0408 11.9599 11.6674 12.1888 10.6374 11.6737C7.77612 10.1859 6.28825 11.731 5.37264 13.9628C4.57148 15.9084 3.88478 18.1402 3.99923 20.2003C4.17091 24.8928 8.6345 27.983 12.9264 26.724C13.5559 26.5524 14.4715 25.7512 14.4715 25.1789C14.5859 20.8298 14.5287 16.4807 14.5287 12.1315Z" fill="#374554"/>
<path d="M23.7992 35.4224C27.4616 31.8172 27.9767 18.0831 24.7148 15.9657C23.3414 17.7397 23.227 25.5796 24.5431 28.4409C23.742 29.2993 22.8836 30.2149 21.9108 31.3021C20.7663 30.2149 19.679 29.242 18.9351 28.5553C19.2784 26.7241 19.7362 25.2935 19.7934 23.9201C19.9079 20.601 20.0795 17.2247 19.7362 13.9056C19.3928 10.3576 20.709 7.89693 24.0853 5.89404C24.0853 9.04144 24.0853 11.9599 24.0853 14.8784C24.3715 14.9929 24.6576 15.1646 24.8865 15.279C25.516 14.1917 26.0882 13.1617 26.6605 12.2461C29.9223 13.8484 30.8952 15.794 30.6663 18.7125C30.4374 21.7455 30.609 24.7784 30.609 27.8686C30.6663 32.1605 28.6634 34.4495 23.7992 35.4224Z" fill="#374554"/>
<path d="M109.669 15.1646C108.982 19.5138 108.81 23.634 109.955 28.212C109.383 28.8415 108.467 29.8144 107.323 31.0161C106.407 29.8144 105.549 28.6699 104.747 27.5826C104.976 26.3236 105.377 24.8357 105.434 23.2907C105.549 19.8571 105.777 16.3664 105.377 12.9901C104.976 9.38488 106.922 7.43922 109.783 5.26465C109.783 8.58372 109.783 11.445 109.783 14.993C111.214 13.734 112.13 12.8756 113.045 12.0172C115.735 13.4479 116.65 15.5652 116.421 18.5409C116.135 21.5739 116.364 24.6641 116.364 27.697C116.307 31.7028 113.961 34.2779 109.783 34.8502C113.102 30.9016 113.446 17.3392 109.669 15.1646Z" fill="#374554"/>
<path d="M149.727 13.7338C150.585 13.1043 151.386 12.5321 152.188 11.9026C153.962 12.8754 155.678 13.8483 157.509 14.8211C157.395 15.3361 156.88 16.6523 156.937 17.9113C157.166 22.4893 157.853 27.0673 157.681 31.5881C157.624 32.9616 155.507 34.2205 154.305 35.5367C157.967 32.1032 152.13 31.2448 152.874 27.9829C150.7 30.5009 149.097 32.3893 147.953 33.7055C150.013 34.2777 152.188 34.9072 154.305 35.4795C153.675 36.3951 153.046 37.3107 152.188 38.5696C149.555 35.2506 146.923 35.9945 144.062 36.6812C145.607 34.85 147.152 32.9616 148.926 30.8442C147.323 29.9286 145.95 29.1274 144.92 28.498C145.034 26.4379 145.492 24.0344 145.206 21.7454C144.805 17.854 146.179 15.2789 149.727 13.7338C149.612 17.1101 149.612 20.5436 149.383 23.9199C149.269 25.8656 149.899 27.1818 151.844 27.754C152.016 27.6396 152.302 27.5251 152.302 27.4107C152.531 24.1488 152.931 20.887 152.76 17.6251C152.703 16.5951 151.043 15.6795 150.127 14.6494C149.899 14.4777 149.841 14.0772 149.727 13.7338Z" fill="#374554"/>
<path d="M215.11 36.6241C213.623 37.7114 212.135 38.8559 210.246 40.2866C210.246 36.9103 210.246 33.8773 210.246 30.1576C208.472 31.1305 207.328 31.76 205.439 32.8472C206.24 31.016 206.469 29.242 207.385 28.727C211.334 26.3808 209.56 22.8328 210.017 19.1131C208.644 19.7998 207.671 20.2576 206.813 20.7155C206.069 17.6253 206.469 16.9958 209.788 15.7941C210.246 11.3305 210.075 10.9871 206.87 11.216C208.358 9.61371 209.617 8.29753 210.819 7.03857C214.195 8.64089 214.824 11.1588 214.653 14.5923C214.309 21.2305 214.538 27.9258 214.538 34.6212C214.538 35.3079 214.939 36.0519 215.168 36.7386L215.11 36.6241Z" fill="#374554"/>
<path d="M215.053 36.6814C215.225 35.5941 215.511 34.5068 215.511 33.4196C215.568 25.1791 215.511 16.9959 216.14 8.7554C216.14 14.4779 216.14 20.2577 216.14 25.8086C217.685 26.4953 219.002 27.0675 220.776 27.8687C219.974 21.8028 222.263 15.7369 218.887 9.55655C219.459 9.04152 220.49 8.12591 221.577 7.15308C224.381 9.15597 226.613 11.2161 225.926 15.0502C225.64 16.5381 225.697 18.1404 225.926 19.6282C226.842 25.5225 225.296 30.1005 219.002 32.2751C218.658 32.0462 217.972 31.5883 216.884 30.9016C216.884 33.534 216.884 35.823 216.884 38.112C216.655 38.1693 216.484 38.2265 216.255 38.2837C215.854 37.7687 215.454 37.1964 215.053 36.6814C215.053 36.6814 215.11 36.6242 215.053 36.6814Z" fill="#374554"/>
<path d="M134.905 15.3939C133.189 19.5141 134.047 23.7488 134.505 28.384C133.932 28.8991 133.017 29.7575 131.93 30.7303C131.014 29.8719 129.984 28.9563 129.011 28.0407C131.071 22.9476 130.385 16.0234 127.638 15.1077C128.725 14.0205 129.812 13.0476 131.014 11.9031C132.044 12.8187 133.189 13.7916 134.734 15.165C135.478 13.9632 136.279 12.7043 137.08 11.4453C140.056 13.3338 141.772 14.8788 141.257 18.0835C140.914 20.3153 141.2 22.6615 141.2 24.9505C141.2 27.0106 142.059 27.8118 144.805 26.4384C143.031 28.3268 141.83 29.643 140.628 30.902C138.053 29.5286 136.965 27.5829 137.309 24.7788C137.538 22.7187 137.48 20.6014 137.309 18.484C137.194 17.3968 136.565 16.3667 136.164 15.3366C135.764 15.2794 135.306 15.3366 134.905 15.3939Z" fill="#374554"/>
<path d="M61.9431 26.3237C60.8558 27.6971 59.7113 29.1278 58.6812 30.3867C53.0731 28.2121 52.1575 23.8058 53.0731 18.1977C51.5853 18.8272 50.7841 19.2278 49.9257 19.5711C49.5824 17.7399 49.7541 16.1376 51.8142 15.1647C53.0159 14.5925 53.3593 10.0145 52.5581 7.78266C50.9558 3.37631 51.757 1.77399 56.6784 0C55.076 2.00289 55.1905 3.71966 56.6211 5.66532C57.4795 6.86706 57.8229 8.69827 57.8229 10.2434C57.8229 14.478 57.4223 18.7127 57.365 23.0046C57.3078 25.4081 59.6541 27.0104 61.8286 26.2665C61.8859 26.2093 61.9431 26.3237 61.9431 26.3237Z" fill="#374554"/>
<path d="M80.7701 14.1915C82.5441 11.9025 84.4325 11.1014 86.7215 13.6765C87.1793 14.1916 88.2094 14.306 88.4955 14.4205C88.4383 18.0257 88.2094 21.917 88.4383 25.7511C88.4955 26.3806 90.0978 27.01 91.0135 27.6395C90.384 28.269 89.3539 29.3563 88.1522 30.6152C86.836 29.528 85.6343 28.5551 84.3181 27.4678C83.2308 28.4979 82.2007 29.4135 81.0562 30.5008C79.5684 29.4135 78.0805 28.3835 76.8215 27.5251C76.8215 25.3505 77.0505 22.8898 76.7643 20.5436C76.3065 17.11 77.8516 15.2216 80.8845 14.1343C80.8845 17.339 80.8846 20.6008 80.7701 23.8054C80.7129 25.8083 81.6857 26.8384 84.2036 27.6395C84.2036 24.6638 84.0319 22.0887 84.2608 19.5135C84.547 16.595 83.288 14.9927 80.7701 14.1915Z" fill="#374554"/>
<path d="M227.471 29.1281C227.471 26.6674 227.7 24.0923 227.414 21.5171C227.128 18.6558 228.101 16.8246 230.561 15.5084C231.82 14.8217 232.907 13.9061 234.052 13.105C235.883 14.1923 237.6 15.2223 238.973 16.0235C238.973 18.5986 238.973 21.5743 238.973 24.4928C238.973 26.7819 234.853 31.7605 232.621 31.8177C231.82 31.8749 231.019 31.0165 230.218 30.5587C229.188 30.0437 228.158 29.4715 227.471 29.1281ZM231.648 15.6801C231.648 19.0564 231.82 21.8032 231.591 24.5501C231.362 27.1824 232.736 28.2125 235.425 29.1281C233.766 24.6073 237.714 19.2853 231.648 15.6801Z" fill="#374554"/>
<path d="M181.83 14.8216C181.716 16.71 181.315 18.9418 181.601 21.0592C182.116 24.9505 180.8 27.5829 177.31 29.2996C176.508 29.7002 175.764 30.3869 175.021 30.9592C173.247 29.7574 171.53 28.6129 170.042 27.5829C170.042 24.9505 170.156 22.2037 169.985 19.5141C169.813 17.3967 170.385 15.8517 172.388 14.8788C173.304 14.421 174.162 13.7915 174.906 13.0476C176.279 11.7314 177.424 11.9603 178.797 13.1621C179.656 13.9632 180.915 14.3638 181.83 14.8216ZM177.424 28.2696C177.424 24.8361 177.31 22.0892 177.481 19.3996C177.653 16.8817 176.337 15.7372 173.647 14.7072C175.421 19.228 171.415 24.5499 177.424 28.2696Z" fill="#374554"/>
<path d="M248.473 18.9416C249.503 19.3994 250.476 19.9145 251.964 20.6012C251.964 22.3179 252.078 24.607 251.906 26.8388C251.735 29.0133 246.871 31.6457 244.81 31.1307C243.208 30.7301 241.434 31.0734 239.946 31.0734C241.778 27.9833 242.979 27.5827 247.729 28.8417C247.729 26.9532 247.729 25.0648 247.729 23.0619C245.612 23.5769 243.551 24.0919 240.862 24.7786C241.377 20.9445 240.004 18.026 243.38 15.2792C246.356 12.8757 249.388 14.2491 252.879 13.1619C251.506 15.0503 250.419 16.481 249.331 17.9688C249.446 17.4538 249.56 16.8815 249.617 16.4237C248.244 16.1948 246.928 15.9659 245.612 15.7942C245.612 17.4538 245.612 19.1705 245.612 21.574C246.871 20.3723 247.672 19.6283 248.473 18.9416Z" fill="#374554"/>
<path d="M71.099 27.411C70.0689 28.4411 69.0389 29.5283 68.0661 30.5584C65.8915 29.0705 63.9458 27.6971 61.9429 26.3237L61.8857 26.2093C61.8857 22.6041 61.7713 18.9989 62.0002 15.3937C62.1718 12.7041 61.5996 10.5867 58.7955 9.27054C59.9973 8.01158 61.0273 6.92429 62.1146 5.77979C65.0903 8.01158 67.6083 10.2434 66.7499 14.478C66.3493 16.4237 66.9215 18.4838 66.6354 20.4295C66.1204 23.9775 67.9516 25.8659 70.8129 27.2393L71.099 27.411Z" fill="#374554"/>
<path d="M103.66 11.9604C101.657 15.5084 101.2 15.6229 96.7933 14.5928C96.7933 16.3096 96.7933 17.9691 96.7933 19.3998C98.8534 19.0564 100.627 18.7703 102.344 18.4269C103.946 25.1223 103.374 26.324 98.0522 30.0437C95.0765 30.0437 92.7875 30.0437 90.5557 30.0437C91.9291 28.0408 93.4169 25.8662 95.0193 23.4055C93.9892 23.1766 93.188 22.9477 92.0435 22.6616C92.673 19.7431 91.0135 16.8246 94.3898 14.0206C97.4799 11.5599 100.57 13.2194 103.66 11.9604ZM98.9106 27.6974C98.9106 25.9235 98.9106 23.8633 98.9106 21.5171C95.706 22.5472 95.1909 25.4657 93.4742 27.2396C95.4198 27.4113 97.1938 27.583 98.9106 27.6974Z" fill="#374554"/>
<path d="M164.262 30.5584C162.946 29.9289 161.572 29.2422 160.428 28.67C160.542 27.4682 160.771 25.8659 160.829 24.2636C160.886 21.8601 160.943 19.5139 160.771 17.1104C160.714 16.0231 160.027 15.0503 159.283 13.2191C160.485 11.3879 162.316 8.69829 164.148 6.06592C164.434 6.18037 164.72 6.29482 164.949 6.40927C164.949 8.35494 164.949 10.3006 164.949 12.3607C166.15 12.4752 167.066 12.5896 168.726 12.7613C167.352 13.8486 166.322 14.6497 165.063 15.6798C165.063 18.2549 164.892 21.3451 165.12 24.3781C165.235 25.5798 166.15 26.7243 166.723 27.926C167.009 27.8116 167.295 27.7544 167.581 27.6399C166.551 28.6127 165.407 29.5284 164.262 30.5584Z" fill="#374554"/>
<path d="M39.3073 21.5166C36.2172 24.664 36.2744 24.8357 40.738 27.8114C41.5963 27.1247 42.4547 26.3808 43.3131 25.6368C43.4276 25.7513 43.5992 25.8657 43.7137 26.0374C42.0542 27.8114 40.4519 29.6426 38.6779 31.5311C36.7322 30.1577 34.901 28.8987 33.1842 27.697C33.2414 25.6368 33.5848 23.0617 33.3559 20.4866C33.1842 18.0831 34.0426 16.538 36.0455 15.3935C37.5333 14.5351 38.8495 13.4478 40.5663 12.2461C41.8253 14.1918 43.0842 16.023 44.5721 18.3692C42.9125 19.342 41.3674 20.2004 39.7651 21.116C41.4247 18.4837 38.5634 17.6253 37.5906 15.9657C37.5906 17.9686 37.5906 19.9715 37.5906 22.0316C38.2773 21.8027 38.7923 21.6883 39.3073 21.5166Z" fill="#374554"/>
<path d="M70.8701 27.2392C70.8129 22.9473 70.9273 18.6554 70.6984 14.3635C70.584 12.5895 69.7256 10.8727 69.1533 9.09872C68.81 9.09872 68.4666 9.09871 68.1233 9.15594C69.1533 8.01143 70.2406 6.8097 71.2135 5.72241C74.647 7.78253 76.1921 10.6438 75.5626 14.5924C75.3337 16.0802 75.3337 17.6825 75.5626 19.1704C76.2493 23.1762 74.4181 25.6369 71.099 27.4109L70.8701 27.2392Z" fill="#374554"/>
<path d="M259.117 31.9318C257.801 31.0162 256.599 30.215 255.569 29.5283C255.569 25.5225 255.683 21.4595 255.512 17.3965C255.454 16.5954 254.424 15.8514 253.68 14.8786C255.111 12.5896 256.771 10.0145 258.373 7.38208C258.659 7.43931 258.888 7.55375 259.174 7.61098C259.174 9.49942 259.174 11.3878 259.174 13.448C260.433 13.6196 261.349 13.7341 262.379 13.8485C262.207 14.1919 262.15 14.5925 261.921 14.8214C261.12 15.5653 259.517 16.252 259.46 16.9959C259.231 20.315 259.289 23.6341 259.575 26.9532C259.632 27.5254 261.234 27.926 262.321 28.5555C261.578 29.2994 260.319 30.6156 259.117 31.9318Z" fill="#374554"/>
<path d="M190.757 15.4511C190.528 18.8847 190.013 22.3754 190.071 25.8089C190.128 28.7274 190.357 28.7274 187.839 30.8448C186.923 29.8147 185.95 28.7847 184.978 27.7546C185.206 27.7546 185.493 27.7546 185.722 27.7546C185.836 24.0922 186.008 20.3725 185.95 16.7101C185.95 16.1951 184.463 15.68 183.49 15.0506C184.234 14.3066 185.321 13.1049 186.809 11.5598C188.125 12.8188 189.384 14.0205 190.643 15.2795L190.757 15.4511Z" fill="#374554"/>
<path d="M121.286 12.189C122.888 13.0473 124.147 13.6768 125.406 14.3635C123.231 17.5682 124.147 26.6098 127.352 27.6971C126.436 28.8416 125.578 29.9861 124.719 31.0734C123.174 30.215 121.744 29.4138 120.771 28.8988C120.771 25.0647 120.828 21.0589 120.656 17.0531C120.656 16.5953 119.226 16.1947 118.196 15.6225C119.054 14.6497 120.198 13.3907 121.286 12.189Z" fill="#374554"/>
<path d="M190.529 15.2217C191.501 14.0772 192.474 12.9327 193.562 11.731C195.049 12.7038 196.366 13.6194 197.396 14.3061C197.338 17.9685 197.224 21.9743 197.338 25.9229C197.338 26.4379 198.826 26.8385 199.799 27.4107C199.055 28.2119 197.911 29.4708 196.709 30.787C194.191 29.5281 192.989 27.7541 193.333 24.8356C193.562 22.661 193.39 20.4865 193.39 18.2547C193.39 16.4807 192.703 15.3362 190.757 15.3934C190.757 15.4506 190.529 15.2217 190.529 15.2217Z" fill="#374554"/>
<path d="M125.807 8.29779C124.777 9.38508 123.975 10.2435 123.003 11.2735C121.915 10.3007 121 9.49953 119.855 8.46947C120.828 7.43942 121.629 6.52381 122.602 5.43652C123.632 6.35213 124.605 7.21051 125.807 8.29779Z" fill="#374554"/>
<path d="M248.473 18.9419C247.672 19.6286 246.871 20.3726 245.612 21.5171C245.612 19.1136 245.612 17.3968 245.612 15.7373C246.928 15.9662 248.244 16.1379 249.617 16.3668C249.503 16.8818 249.446 17.3969 249.331 17.9119C249.045 18.2552 248.759 18.5986 248.473 18.9419Z" fill="white"/>
<path d="M39.3073 21.5164C38.7923 21.6881 38.2773 21.8026 37.5906 22.0315C37.5906 19.9714 37.5906 17.9685 37.5906 15.9656C38.5062 17.6251 41.3674 18.4835 39.7651 21.1159C39.5935 21.2303 39.479 21.402 39.3073 21.5164Z" fill="white"/>
<path d="M14.5288 12.1319C14.5288 16.4811 14.586 20.8302 14.4716 25.1793C14.4716 25.7516 13.556 26.5527 12.9265 26.7244C8.63458 27.9834 4.17099 24.8932 3.99931 20.2007C3.94209 18.1406 4.62879 15.9088 5.37272 13.9631C6.28833 11.7313 7.7762 10.1863 10.6375 11.6741C11.6675 12.1891 13.0409 11.9602 14.5288 12.1319ZM7.31838 14.8215C8.63457 18.3695 7.54729 21.7458 8.29122 25.4082C9.72186 24.2637 11.6675 23.4626 11.782 22.4325C12.1826 19.2279 11.9536 15.966 11.9536 12.2464C9.89353 13.3909 8.34844 14.2493 7.31838 14.8215Z" fill="white"/>
<path d="M149.727 13.7339C149.841 14.0772 149.898 14.4206 150.127 14.7067C151.043 15.7368 152.703 16.6524 152.76 17.6824C152.931 20.9443 152.531 24.2061 152.302 27.468C152.302 27.5824 152.016 27.6969 151.844 27.8113C149.898 27.2391 149.269 25.9801 149.383 23.9772C149.612 20.5437 149.612 17.1102 149.727 13.7339Z" fill="white"/>
<path d="M154.362 35.5942C152.187 34.9647 150.07 34.3925 148.01 33.8202C149.097 32.504 150.757 30.6156 152.931 28.0977C152.13 31.3595 157.967 32.2179 154.362 35.5942C154.305 35.5942 154.362 35.5942 154.362 35.5942Z" fill="white"/>
<path d="M80.7702 14.1918C83.2881 15.0502 84.5471 16.5953 84.2609 19.4566C84.032 22.0317 84.2037 24.6641 84.2037 27.5826C81.6858 26.7814 80.713 25.7514 80.7702 23.7485C80.8846 20.5439 80.8274 17.282 80.8846 14.0774C80.8846 14.0774 80.7702 14.1918 80.7702 14.1918Z" fill="white"/>
<path d="M231.649 15.6794C237.657 19.2274 233.709 24.6066 235.426 29.1274C232.736 28.2118 231.363 27.1818 231.591 24.5494C231.82 21.8026 231.649 19.0557 231.649 15.6794Z" fill="white"/>
<path d="M177.424 28.2697C171.415 24.55 175.421 19.2281 173.647 14.7073C176.337 15.6801 177.653 16.8246 177.481 19.3998C177.309 22.0894 177.424 24.8362 177.424 28.2697Z" fill="white"/>
<path d="M98.9105 27.6971C97.1938 27.5254 95.4198 27.4109 93.4741 27.182C95.1909 25.4653 95.7059 22.4895 98.9105 21.4595C98.9105 23.8629 98.9105 25.9231 98.9105 27.6971Z" fill="white"/>
<path d="M7.31824 14.8212C8.3483 14.249 9.89339 13.3906 11.9535 12.2461C11.9535 15.9085 12.2396 19.2276 11.7818 22.4322C11.6674 23.4623 9.72171 24.2634 8.29108 25.4079C7.54715 21.7455 8.5772 18.3692 7.31824 14.8212Z" fill="#374554"/>
</svg>
