<svg width="257" height="36" viewBox="0 0 257 36" fill="none" xmlns="http://www.w3.org/2000/svg">
<g clip-path="url(#clip0)">
<path d="M15.8631 0.00210457C15.6209 0.0135602 15.3857 0.0741544 15.1589 0.216898C16.0926 0.40079 17.1868 0.524391 17.7762 1.36246C18.0716 1.67146 17.9796 2.14627 17.6842 2.41758C17.1257 3.07327 16.1667 3.27902 15.3465 3.0695C12.5654 2.42286 9.93525 1.16575 7.07779 0.838666C5.54728 0.6397 4.0512 1.36472 2.99515 2.41382C2.02022 3.37699 1.66575 4.83909 1.85875 6.1595C2.0744 7.20407 2.86047 8.28934 3.99764 8.44309C3.32421 7.72259 3.19642 6.47152 3.89433 5.72238C4.2892 5.24004 4.99094 5.17372 5.57406 5.26265C7.78871 5.66812 9.94672 6.32455 12.1552 6.7662C13.3919 7.09781 14.614 7.49348 15.8782 7.71958C15.9012 9.2073 15.9012 10.6935 15.8782 12.1812C15.0625 12.7812 14.2834 13.427 13.483 14.0465C14.262 14.6208 15.0655 15.1589 15.8707 15.6971C15.9227 17.8013 15.8631 19.9049 15.9013 22.009C14.5836 23.0113 12.818 23.1741 11.2141 22.9887C9.51053 22.8954 7.99839 21.8959 6.88265 20.6825C8.75308 19.6997 10.6593 18.7727 12.5725 17.8715C12.6397 14.5538 12.5846 11.2346 12.6029 7.91553C10.2123 8.90282 7.8461 9.94287 5.4631 10.9452C6.15183 9.21032 7.55286 7.80474 9.22433 6.96969C8.78798 6.99531 8.33035 6.96366 7.92339 7.15056C4.79503 8.36697 2.21689 10.9814 1.2467 14.1709C0.597765 16.1967 0.806679 18.4116 1.51071 20.3924C2.3831 22.5961 3.99702 24.5467 6.13668 25.6604C7.33828 26.2724 8.63156 26.8458 10.009 26.8625C12.8604 27.0962 15.86 26.0367 17.784 23.9233C18.6241 23.0354 19.0474 21.878 19.4637 20.7579C19.8496 19.6547 20.0239 18.4803 19.9841 17.3137C19.0612 19.1164 17.8337 20.8097 16.1578 22.0052C16.1684 19.9085 16.154 17.8126 16.1615 15.7159C16.8902 15.1687 17.6216 14.6223 18.3272 14.0465C17.6032 13.415 16.8839 12.7842 16.1615 12.1511C16.1647 10.6769 16.1584 9.19976 16.1615 7.72711C17.7915 7.6427 19.6671 6.79559 20.1064 5.11192C20.4125 4.01308 20.5724 2.71151 19.8883 1.71668C19.2593 1.01125 18.4435 0.398529 17.4854 0.228202C16.9549 0.182531 16.3955 -0.0229169 15.8631 0.00210457ZM8.23715 10.1124C8.23102 13.308 8.25628 16.5035 8.22567 19.6991C7.68387 19.9087 7.1511 20.1378 6.61863 20.3698C5.63605 18.9696 5.02537 17.3212 4.74376 15.6481C4.66723 14.2357 4.93354 12.8053 5.43249 11.4803C6.37528 11.0387 7.29741 10.5616 8.23715 10.1124ZM195.181 0.00210457C194.919 -0.00573349 194.662 0.0450632 194.42 0.216898C194.971 0.342005 195.553 0.395515 196.069 0.650252C196.528 0.867306 196.832 1.31649 196.991 1.78074C197.077 2.28268 196.703 2.74542 196.256 2.93384C195.454 3.29861 194.544 3.12979 193.727 2.91123C191.768 2.32036 189.86 1.55615 187.861 1.09491C186.835 0.879364 185.758 0.675876 184.72 0.944179C183.595 1.25619 182.453 1.78677 181.789 2.77557C180.932 3.86536 180.824 5.36439 181.242 6.64561C181.587 7.50026 182.284 8.34059 183.27 8.45063C182.949 8.04365 182.395 7.63291 182.555 7.05259C182.643 6.47679 182.886 5.89271 183.354 5.51889C183.823 5.1707 184.464 5.17522 185.007 5.33048C187 5.69525 188.945 6.24617 190.915 6.70591C192.25 6.98476 193.532 7.47539 194.875 7.71958C194.898 9.20127 194.881 10.683 194.887 12.1662C194.164 12.7947 193.442 13.4225 192.729 14.0616C193.448 14.6088 194.154 15.1695 194.883 15.7046C194.893 17.8135 194.879 19.9251 194.894 22.0353C193.63 22.9682 191.966 23.1982 190.433 22.9886C188.739 22.8891 187.257 21.8854 186.132 20.6976C186.593 20.3809 187.119 20.1776 187.617 19.9213C189.016 19.243 190.397 18.5331 191.807 17.8789C191.851 14.5583 191.812 11.2362 191.826 7.91553C189.45 8.91187 187.093 9.95493 184.709 10.9302C185.254 9.65648 186.125 8.49132 187.295 7.71204C187.646 7.39701 188.001 7.06691 188.481 6.95838C188.001 6.99154 187.503 6.97572 187.066 7.19578C183.706 8.53428 180.841 11.454 180.209 15.0414C179.969 16.8622 180.141 18.7532 180.787 20.479C181.615 22.5049 183.073 24.3046 184.969 25.4532C185.876 25.9973 186.851 26.4352 187.869 26.738C190.306 27.1375 192.919 26.7923 195.051 25.5171C196.457 24.5509 197.764 23.2983 198.353 21.6734C198.985 20.2942 199.239 18.7877 199.271 17.2834C198.977 17.6617 198.805 18.1116 198.556 18.5156C197.746 19.8541 196.699 21.0667 195.422 21.9937C195.437 19.891 195.403 17.7883 195.441 15.6856C196.164 15.1716 196.841 14.5988 197.568 14.0878C196.898 13.4035 196.137 12.8127 195.426 12.1736C195.412 10.6994 195.443 9.22373 195.41 7.74957C196.811 7.66064 198.227 7.04189 198.98 5.83151C199.764 4.58797 199.759 2.89375 199.003 1.64116C198.408 0.866401 197.472 0.367479 196.505 0.224283C196.071 0.189615 195.619 0.015369 195.181 0.00210457ZM187.494 10.1087C187.513 13.2982 187.494 16.4869 187.502 19.6764C186.949 19.904 186.404 20.1444 185.853 20.3735C185.054 19.2671 184.432 18.0229 184.112 16.6994C183.758 14.966 183.852 13.0871 184.67 11.4879C185.619 11.0417 186.554 10.5744 187.494 10.1087ZM73.6687 1.06476C74.5809 2.63841 74.01 4.77126 72.6371 5.90477C71.7938 6.44589 70.8235 6.74434 69.873 7.04731C69.8945 13.4836 69.8763 19.9213 69.8792 26.3576C69.9465 26.6515 69.6725 26.882 69.3911 26.7645C68.8353 26.7389 68.6884 26.1616 68.4527 25.7727C65.0336 19.5807 61.6513 13.3675 58.2044 7.189C58.1386 11.7336 58.2029 16.2827 58.1723 20.8286C59.8008 21.1317 61.3864 21.905 62.4516 23.1801C62.9459 22.8033 63.2658 22.1401 63.8995 21.9879C63.7388 22.2758 63.5046 22.5123 63.2811 22.7536C62.0491 24.0966 60.8201 25.4456 59.5895 26.7917C59.0188 26.0832 58.2582 25.411 57.306 25.3145C56.68 25.2904 55.9563 25.322 55.5 25.8089C54.9751 26.2701 54.6232 27.0479 54.998 27.7066C55.4373 28.6517 56.5423 28.908 57.4729 29.1341C56.3097 29.3602 55.0074 29.2275 54.0691 28.4603C53.3223 27.8317 52.6441 27.0342 52.4499 26.0606C52.1882 24.7191 52.5953 23.2282 53.6131 22.2771C54.7259 21.1933 56.3573 20.7894 57.8847 20.8753C57.926 18.8945 57.9077 16.9141 57.8939 14.9335C57.1516 14.8174 56.1399 14.9214 55.794 15.6856C55.5935 16.3051 56.0651 16.8266 56.5317 17.1658C55.9532 17.0663 55.3104 16.9578 54.8926 16.5161C54.3997 15.9177 54.0171 15.2108 53.8748 14.4481C53.7324 13.4668 53.9942 12.3484 54.8237 11.7168C55.6915 11.0551 56.847 10.9647 57.9061 10.9888V6.80147C57.522 6.23321 57.1531 5.58205 56.4936 5.28812C56.062 5.11176 55.4988 5.04846 55.1269 5.38007C54.6126 5.80965 54.4885 6.49247 54.2851 7.09088C54.0877 5.63028 54.2361 3.97374 55.2753 2.82818C56.5304 1.2274 59.1858 1.16862 60.5587 2.64881C61.1525 3.25023 61.5596 3.99183 61.9638 4.72288C64.5045 9.17851 66.9946 13.6628 69.5613 18.1033C69.5766 14.421 69.5842 10.7357 69.5582 7.05319C69.1173 6.88437 68.6261 6.88889 68.1775 6.73515C67.3419 6.51809 66.6455 5.98752 66.0272 5.41323C65.6415 5.8594 65.2526 6.30405 64.8931 6.76982C64.8089 6.7246 64.6421 6.63566 64.558 6.59044C65.8743 4.95651 67.2852 3.39644 68.6552 1.80471C69.373 2.54932 70.3098 3.15828 71.378 3.22611C72.4933 3.09965 73.5906 2.22088 73.6687 1.06476ZM159.105 4.62957C160.942 3.45085 162.775 2.26158 164.618 1.0919C164.633 8.04667 164.604 15.0029 164.633 21.9577C165.031 22.4913 165.574 22.9299 166.057 23.3989C166.36 23.0793 166.675 22.7733 166.987 22.4643C167.061 22.5365 167.207 22.6814 167.283 22.7522C165.812 24.0077 164.387 25.3115 162.907 26.5537C161.975 25.6116 161.01 24.7027 160.086 23.7559C159.671 24.1192 159.292 24.5173 158.902 24.9047C158.822 24.8444 158.663 24.7221 158.583 24.662C159.289 23.9973 160.045 23.3883 160.758 22.7296C160.752 17.4585 160.763 12.1874 160.752 6.91783C160.735 5.9319 160.225 4.75167 159.105 4.62957ZM21.9666 4.83457C23.5476 3.67393 25.098 2.47109 26.6805 1.31498C26.6882 5.14658 26.679 8.9797 26.6851 12.8128C28.0243 11.7245 29.3741 10.6498 30.6995 9.54645C31.7632 10.6332 32.7565 11.7878 33.8524 12.8399C34.3147 12.5129 34.789 12.2023 35.2742 11.9099C35.1871 12.5174 34.4493 12.7254 34.0666 13.1489C34.0712 15.2441 34.0666 17.3378 34.0682 19.433C34.0988 20.9992 33.8692 22.5546 33.8219 24.1192C33.7498 25.8164 33.0811 27.5515 31.7373 28.6653C30.6444 29.6271 29.1508 29.9736 27.7259 30.0897C27.7014 30.1229 27.6494 30.1907 27.6233 30.2252L27.6616 30.1018C27.1703 30.1018 26.6805 30.0837 26.1908 30.0475C26.8062 29.734 27.5024 29.5335 27.9876 29.015C28.5447 28.4029 29.1936 27.8197 29.4676 27.0193C29.916 25.7984 29.9298 24.4825 29.9742 23.2012C29.962 20.3298 29.988 17.4569 29.9604 14.5869C29.3115 13.7534 28.534 13.0178 27.8453 12.2129C27.4688 12.6093 27.0174 12.9424 26.6943 13.3826C26.6683 16.346 26.6913 19.3109 26.6836 22.2741C27.074 22.6571 27.4626 23.043 27.856 23.4228C28.1714 23.1108 28.4865 22.7973 28.8018 22.4838C28.8724 22.5516 29.0115 22.6873 29.0819 22.7551C27.5514 23.9338 26.0364 25.1308 24.5058 26.3078C23.537 25.4607 22.5912 24.5895 21.6377 23.7258C21.3178 23.9609 20.9979 24.1991 20.6765 24.4326C20.6078 24.3617 20.473 24.22 20.4042 24.1492C21.1389 23.6834 21.8597 23.1967 22.5867 22.7218C22.5852 17.4522 22.5852 12.1841 22.5867 6.91452C22.5713 6.51206 22.5913 6.07796 22.3755 5.71921C22.233 5.44488 21.9118 5.35746 21.6713 5.19165C21.6176 5.01695 21.8717 4.9431 21.9666 4.83457ZM127.38 2.03699C125.941 3.18405 124.535 4.36655 123.11 5.5302C123.094 4.43287 123.129 3.3378 123.091 2.24047C122.87 2.22992 122.773 2.3279 122.804 2.5344C122.796 10.2911 122.806 18.047 122.8 25.8036C122.022 25.6573 121.243 25.5044 120.473 25.3326C120.461 18.7908 120.473 12.2504 120.47 5.70731C120.453 4.87979 120.18 4.04775 119.628 3.41618C118.939 2.61278 117.862 2.23972 116.823 2.16888C115.591 2.13421 114.462 2.7718 113.602 3.59329C112.81 4.33339 112.386 5.47744 112.611 6.5401C112.707 5.8814 112.925 5.13905 113.54 4.77277C114.215 4.48939 115.114 4.71775 115.518 5.34178C115.864 5.84523 115.899 6.47453 115.913 7.06389C115.916 8.83198 115.911 10.6001 115.913 12.3697C114.728 12.3877 113.329 12.5762 112.645 13.6584C111.956 14.5055 111.743 15.7069 112.216 16.7032C112.527 17.689 113.568 18.1971 114.535 18.3537C113.993 18.0087 113.442 17.4012 113.762 16.7258C114.192 16.0475 115.17 15.948 115.897 16.1455C115.926 19.2836 115.912 22.4205 115.905 25.5587C114.818 25.9324 113.76 26.5814 113.18 27.5898C112.758 28.3088 112.747 29.1687 112.782 29.9751C112.912 31.389 113.86 32.6799 115.132 33.3252C116.093 33.7683 117.175 33.7819 118.216 33.7472C121.17 33.574 123.976 32.4193 126.936 32.3229C127.817 32.258 128.334 33.2175 128.103 33.9697C127.927 34.6495 127.348 35.1092 126.802 35.5072C127.841 35.2901 128.876 34.9057 129.687 34.2107C130.602 33.4466 131.023 32.2143 130.965 31.0566C130.896 29.9111 129.958 29.0587 128.983 28.5658C127.699 27.8242 126.148 27.9894 124.736 28.1401C122.082 28.4416 119.495 29.2714 116.815 29.3422C115.906 29.4025 115.058 28.7687 114.876 27.8914C114.67 27.046 115.368 26.3063 116.073 25.9432C117.6 25.2333 119.358 25.4961 120.952 25.8264C122.799 26.0165 124.532 26.7587 126.381 26.9456C127.431 27.0632 128.546 26.8643 129.408 26.2373C130.295 25.6977 130.696 24.6462 130.72 23.656C130.731 17.482 130.709 11.3087 130.732 5.13483C131.304 4.64495 131.935 4.20556 132.434 3.63881C131.736 3.80914 131.299 4.45352 130.728 4.84844C129.6 3.92415 128.496 2.97604 127.38 2.03699ZM124.25 5.15714C124.893 5.69977 125.525 6.25296 126.167 6.80011C126.168 8.74455 126.162 10.689 126.167 12.6334C125.862 12.9289 125.529 13.2409 125.084 13.2967C124.358 13.4474 123.652 13.0939 123.106 12.6523C123.109 10.3823 123.107 8.11299 123.106 5.84297C123.488 5.61687 123.87 5.39077 124.25 5.15714ZM123.106 13.1911C124.046 13.6614 125.255 13.8039 126.167 13.1949C126.164 14.0767 126.164 14.9622 126.167 15.844C125.796 15.4883 125.32 15.2057 124.789 15.2072C124.165 15.1936 123.591 15.4838 123.106 15.844C123.109 14.9607 123.104 14.0759 123.106 13.1911ZM124.782 15.486C125.388 15.5011 125.853 15.9465 126.167 16.4168C126.162 18.8783 126.168 21.3412 126.167 23.8027C126.216 24.5578 125.688 25.2037 125.111 25.6378C124.554 26.0734 123.798 26.0885 123.121 26.0523C123.083 22.8372 123.119 19.617 123.106 16.4017C123.543 15.933 124.097 15.477 124.782 15.486ZM200.13 6.04947C201.122 5.19331 202.055 4.27385 203.069 3.44181C203.926 4.33263 204.829 5.17975 205.699 6.057C204.654 7.02018 203.603 7.97582 202.544 8.92393C201.743 7.96075 200.92 7.02018 200.13 6.04947ZM85.6633 6.96592C86.2831 6.54688 87.0668 6.57251 87.7832 6.48207C87.2429 6.90261 86.643 7.39098 86.5694 8.116C86.4484 8.76415 86.8649 9.34748 87.3501 9.73637C88.2332 10.4328 89.3673 10.8216 90.0866 11.714C90.4325 12.1451 90.6422 12.6907 90.6269 13.2439C90.6223 16.1681 90.6299 19.0908 90.6223 22.0135C91.4119 22.642 92.2048 23.263 92.9929 23.8916C93.2225 23.7454 93.452 23.5993 93.6833 23.453C93.6726 20.262 93.7 17.0695 93.6694 13.88C93.2639 13.4082 92.7023 13.0706 92.2384 12.65C93.3771 11.6175 94.4928 10.5579 95.6545 9.55097C96.6646 10.5277 97.7268 11.4517 98.7629 12.4013C98.3696 12.8111 97.9649 13.2102 97.5492 13.5981C97.5416 16.4032 97.5492 19.2084 97.5446 22.0135C98.5793 22.8033 99.614 23.5947 100.659 24.3724C100.806 24.2879 100.955 24.2051 101.106 24.1222C101.091 20.6962 101.108 17.2715 101.097 13.8453C100.618 13.4429 100.122 13.0585 99.6491 12.6485C100.766 11.6085 101.897 10.5865 103.021 9.55398C104.14 10.4162 105.26 11.2784 106.372 12.1481C106.758 11.729 107.153 11.313 107.594 10.9467C107.65 11.0266 107.767 11.1879 107.823 11.2678C106.871 12.1029 105.926 12.9485 105.003 13.8152C104.923 16.5464 105.001 19.2867 104.964 22.0195C102.542 23.5871 100.012 25.0177 97.5537 26.543C96.2572 25.628 94.9977 24.6633 93.718 23.7273C92.5702 24.6362 91.4208 25.5466 90.2652 26.4465C90.0999 26.6274 89.93 26.3636 89.7938 26.2882C88.7131 25.4336 87.6389 24.5713 86.5446 23.7363C86.0854 24.1311 85.6034 24.5004 85.1428 24.8953C85.0693 24.826 84.9254 24.6888 84.852 24.621C85.4137 24.2383 85.9631 23.8357 86.5248 23.4528C86.528 20.8045 86.528 18.1576 86.5248 15.5093C86.5233 14.8008 86.2708 14.0833 85.7795 13.5588C85.2392 12.9815 84.5122 12.576 84.0821 11.8992C83.6061 11.1124 83.5633 10.1372 83.7454 9.25825C84.0119 8.26523 84.8125 7.50855 85.6633 6.96592ZM256 8.8576C256.11 9.13495 256.145 9.4447 256.007 9.72054C255.669 10.4817 254.748 10.7742 253.964 10.7606C253.144 10.6882 252.504 10.1072 251.952 9.55851C251.024 10.1705 250.092 10.7779 249.166 11.3899C248.098 12.0983 246.918 12.6214 245.734 13.1082C245.729 14.6065 245.735 16.1018 245.73 17.6001C246.595 18.31 247.484 18.9883 248.332 19.7178C247.682 20.3961 247.04 21.0841 246.427 21.794C245.796 22.5416 245.201 23.4053 245.164 24.4094C245.127 25.5503 245.623 26.7857 246.648 27.3899C247.102 27.6522 247.653 27.8858 248.179 27.6839C247.524 27.4532 246.718 26.986 246.775 26.1992C246.957 25.4545 247.855 24.9564 248.6 25.1704C249.373 25.3875 250.011 25.9316 250.505 26.5421C252.492 25.1327 254.584 23.8734 256.757 22.7625C256.741 20.8619 256.784 18.9565 256.738 17.0573C255.779 16.394 254.863 15.6713 253.915 14.996C254.919 13.7434 255.929 12.4185 256.348 10.8509C256.504 10.1893 256.557 9.35502 256 8.8576ZM249.602 11.7064C250.247 12.6184 251.1 13.5054 252.269 13.6923C253.434 13.9621 254.563 13.3404 255.326 12.5129C254.281 14.4166 252.66 15.945 250.984 17.3137C250.531 16.8404 250.043 16.3995 249.595 15.9232C249.613 14.5183 249.598 13.1113 249.602 11.7064ZM251.244 17.389C251.746 17.805 252.242 18.2285 252.744 18.6476C252.973 18.7833 252.861 19.0667 252.893 19.2807C252.879 20.9131 252.914 22.5508 252.874 24.1833C252.499 23.3481 251.937 22.5712 251.144 22.0766C249.995 21.3367 248.415 21.2937 247.245 22.0126C246.71 22.3048 246.281 22.7414 245.875 23.1845C246.455 22.0691 247.393 21.1888 248.275 20.3054C249.282 19.35 250.289 18.3959 251.244 17.389ZM44.5714 9.55474C43.2491 10.3084 41.9712 11.1306 40.6764 11.925C39.5789 12.4887 38.4641 13.0208 37.3589 13.568C37.3635 16.6203 37.3545 19.6726 37.3667 22.7249C36.8953 23.0853 36.3449 23.3444 35.9164 23.7576C35.999 23.8057 36.1628 23.9038 36.2455 23.9536C36.6158 23.6385 36.9822 23.3175 37.3895 23.0492C38.7593 24.1705 40.052 25.3848 41.4186 26.5122C41.4858 26.4777 41.6214 26.4076 41.6902 26.3728C44.0042 24.6062 46.3422 22.866 48.6577 21.101L48.3708 20.8522C47.0821 21.841 45.8286 22.882 44.5521 23.8857C43.4976 22.9512 42.4775 21.9797 41.4261 21.0407C41.0679 20.7829 41.2684 20.2938 41.2424 19.929C43.402 18.3719 45.5624 16.8141 47.6897 15.2149C46.6277 13.3396 45.5999 11.4479 44.5714 9.55474ZM41.2349 11.8044C42.3277 13.5725 43.4258 15.3346 44.5064 17.1102C43.4075 17.8714 42.3177 18.6416 41.2312 19.4164C41.2204 16.8796 41.215 14.3412 41.2349 11.8044ZM80.3624 9.55097C79.4303 10.1554 78.4921 10.7523 77.5386 11.3221C76.1444 12.1812 74.6331 12.8279 73.1728 13.568C73.1774 16.6188 73.1644 19.6704 73.1766 22.7212C72.7268 23.0513 72.2294 23.3128 71.7915 23.6595C71.8374 23.7394 71.9331 23.8999 71.979 23.9798C72.4642 23.6587 72.9432 23.3294 73.4407 23.0264C74.6941 24.2066 75.966 25.3689 77.2287 26.5386C79.5904 24.8111 81.9074 23.022 84.2462 21.263C84.5462 21.2027 84.2998 20.7234 84.1084 20.9086C82.8412 21.8763 81.6116 22.8938 80.3625 23.8856C79.383 22.9284 78.4104 21.9669 77.4354 21.0066C77.12 20.7338 77.3069 20.2786 77.29 19.9213C79.3685 18.4019 81.3826 16.7959 83.4656 15.2825C82.5059 13.3381 81.3832 11.4668 80.3624 9.55097ZM77.2631 11.8647C78.3344 13.583 79.3163 15.3587 80.305 17.1252C79.2841 17.8623 78.2977 18.6446 77.2859 19.3938C77.2386 16.8856 77.286 14.3744 77.2631 11.8647ZM140.733 9.55851C139.711 10.1449 138.702 10.7493 137.711 11.3824C136.546 12.0818 135.273 12.5784 134.034 13.1271C134.063 16.3286 134.042 19.5309 134.045 22.7326C133.63 23.1394 133.212 23.5451 132.809 23.9609C132.894 23.9564 133.062 23.9444 133.146 23.9385C133.44 23.6293 133.746 23.3279 134.049 23.0264C135.44 24.1478 136.811 25.2936 138.193 26.4256C138.421 26.6425 138.679 26.3193 138.901 26.2408C141.123 25.0439 143.223 23.6339 145.512 22.5591C145.548 19.5761 145.523 16.5939 145.528 13.6094C145.941 13.2024 146.36 12.797 146.764 12.381C146.683 12.3825 146.521 12.3893 146.438 12.3923C146.053 12.7043 145.662 13.008 145.275 13.3155C143.76 12.0644 142.252 10.8036 140.733 9.55851ZM138.143 11.7705C139.236 12.7819 140.348 13.7782 141.441 14.7927C141.431 17.9686 141.434 21.143 141.434 24.3189C140.313 23.3512 139.249 22.3249 138.143 21.342L138.143 11.7705Z" fill="#374554"/>
<path d="M164.809 16.6733C166.386 14.2902 167.996 11.9282 169.612 9.56925C170.312 10.1548 171.176 10.5175 172.09 10.6093C172.984 10.6108 173.746 10.0878 174.419 9.56473C174.249 10.8505 173.815 12.186 172.812 13.0798C171.938 13.8696 170.613 14.0596 169.512 13.6737C168.864 13.4566 168.264 13.116 167.726 12.6985C167.631 12.9185 167.553 13.1461 167.497 13.3783C169.734 16.6974 171.932 20.0466 174.13 23.3929C174.635 23.0703 175.077 22.6632 175.523 22.2669C175.61 22.321 175.783 22.4297 175.87 22.4838C174.289 23.8721 172.658 25.2045 171.037 26.5491C168.954 23.2618 166.917 19.9456 164.809 16.6733ZM240.508 9.55493C239.534 10.1383 238.557 10.7208 237.596 11.3223C236.266 12.2327 234.741 12.7994 233.329 13.5682C233.345 16.619 233.329 19.6721 233.337 22.7214C232.85 23.0379 232.37 23.3603 231.883 23.671C231.946 23.7464 232.073 23.9009 232.136 23.9762C232.555 23.6702 232.934 23.307 233.387 23.0417C234.65 24.1978 235.97 25.2914 237.251 26.4294C237.374 26.6223 237.552 26.4249 237.676 26.3465C239.984 24.595 242.298 22.854 244.609 21.1085C244.338 20.6413 244.031 21.0942 243.76 21.2857C242.675 22.1555 241.592 23.0244 240.504 23.8896C239.391 22.8902 238.316 21.8539 237.182 20.8785C237.165 20.5648 237.164 20.2503 237.179 19.9365C239.344 18.3914 241.485 16.8103 243.634 15.2413C242.599 13.3406 241.56 11.4436 240.508 9.55493ZM237.167 11.8574C238.338 13.5621 239.367 15.3634 240.465 17.1179C239.351 17.8702 238.268 18.6659 237.16 19.4241C237.178 16.9024 237.161 14.3791 237.167 11.8574ZM151.191 9.8059C152.066 10.5912 152.802 11.5167 153.615 12.3653C154.5 11.5303 155.365 10.6711 156.219 9.80439C156.84 10.1963 157.487 10.7465 158.285 10.5882C158.846 10.5505 159.139 10.0079 159.616 9.78631C159.618 10.9394 159.348 12.1513 158.574 13.0466C157.686 14.0927 156.007 14.3987 154.82 13.6812C154.364 13.4627 154.06 13.0436 153.635 12.7859C153.646 15.9392 153.641 19.091 153.638 22.2443C154.269 22.7221 154.901 23.1984 155.55 23.6537C156.021 23.3492 156.384 22.7885 156.979 22.7357C155.58 24.0471 154.114 25.2951 152.656 26.5447C151.56 25.5273 150.439 24.5354 149.356 23.5061C148.933 23.8798 148.543 24.2869 148.141 24.6803C148.076 24.6064 147.948 24.4601 147.883 24.3864C148.415 23.8045 149.007 23.28 149.55 22.7087C149.53 20.0106 149.561 17.3125 149.536 14.6159C149.246 13.9346 148.741 13.3437 148.375 12.6926C147.874 12.9835 147.51 13.5894 146.887 13.6105C148.303 12.3216 149.783 11.1022 151.191 9.8059ZM207.983 13.1793C209.286 12.0563 210.561 10.9047 211.871 9.79083C212.811 10.8113 213.782 11.8031 214.705 12.8386C216.089 11.8544 217.418 10.7962 218.787 9.79083C219.747 10.8037 220.688 11.8332 221.657 12.8386C223.014 11.8257 224.355 10.7917 225.722 9.79234C226.656 10.8173 227.618 11.8167 228.563 12.8326C229.141 12.4693 229.672 12.0337 230.262 11.6855C230.306 12.0232 229.994 12.1769 229.777 12.3638C229.461 12.614 229.155 12.8763 228.84 13.125C228.814 15.9317 228.846 18.7383 228.823 21.5448C229.366 22.1 229.92 22.6447 230.485 23.1787C230.784 22.8729 231.09 22.5728 231.381 22.2592C231.468 22.3135 231.644 22.4205 231.731 22.4748C230.303 23.86 228.831 25.2032 227.365 26.5491C226.332 25.3477 225.248 24.1856 224.239 22.9632C224.484 22.7416 224.723 22.511 224.958 22.279C224.962 19.8581 224.958 17.4373 224.958 15.0181C224.178 14.1606 223.4 13.2997 222.596 12.4648C222.363 12.6984 222.13 12.9306 221.901 13.1656C221.897 16.1923 221.913 19.219 221.893 22.2457C222.28 22.6738 222.716 23.0566 223.11 23.4832C222.052 24.4072 221.033 25.3749 219.981 26.3079C218.999 25.2905 218.032 24.2589 217.081 23.2134C217.352 22.8848 217.895 22.6466 217.81 22.1462C217.797 19.7857 217.822 17.4238 217.797 15.0649C217.142 14.1666 216.408 13.2969 215.649 12.4769C215.427 12.709 215.202 12.9366 214.975 13.1642C214.981 16.096 214.958 19.0292 214.986 21.9609C215.307 22.5004 215.786 22.9422 216.186 23.4289C215.159 24.4917 214.098 25.5241 213.028 26.5445C212.006 25.3449 210.947 24.1767 209.917 22.9844C210.238 22.7386 210.563 22.496 210.886 22.2503C210.876 19.7737 210.867 17.2958 210.89 14.8193C210.287 14.0837 209.626 13.3963 208.992 12.6864C208.543 13.015 208.146 13.428 207.632 13.6601C207.607 13.4295 207.838 13.3195 207.983 13.1793Z" fill="#374554"/>
<path d="M198.924 13.3732C200.271 12.1583 201.665 10.9902 203.026 9.78882C203.995 10.8741 204.936 11.9835 205.9 13.0733C206.401 12.6874 206.849 12.2292 207.403 11.9111C207.362 12.0845 207.315 12.2638 207.151 12.3618C206.736 12.701 206.324 13.0416 205.906 13.3717C205.913 16.1829 205.894 18.9925 205.916 21.8037C206.461 22.4096 207.024 23.0035 207.532 23.6424C207.956 23.3879 208.31 23.0395 208.714 22.7563C208.799 22.8014 208.972 22.8904 209.058 22.9342C207.713 24.1762 206.317 25.367 204.915 26.544C203.983 25.4408 203.026 24.3554 202.073 23.2688C201.658 23.6396 201.312 24.0888 200.858 24.4113C200.793 24.3525 200.665 24.232 200.6 24.1717C201.005 23.7948 201.386 23.3939 201.796 23.0201C201.828 20.4667 201.797 17.9103 201.811 15.3567C201.787 15.001 201.903 14.5804 201.622 14.2971C201.122 13.6866 200.663 13.0445 200.132 12.4611C199.737 12.7763 199.362 13.1185 198.924 13.3732Z" fill="#374554"/>
</g>
<defs>
<clipPath id="clip0">
<rect width="256.06" height="35.507" fill="white" transform="translate(0.778076)"/>
</clipPath>
</defs>
</svg>
