<svg width="111" height="32" viewBox="0 0 111 32" fill="none" xmlns="http://www.w3.org/2000/svg">
<g clip-path="url(#clip0)">
<path d="M6.19359 5.29C4.05448 4.52724 2.89141 3.9464 2.89141 2.38462C2.89141 1.16647 3.95671 0.507753 5.07941 0.507753C7.15087 0.507753 8.37306 2.06478 8.83635 4.5314H9.27236V0.251519H8.90684L8.26789 1.58917H8.20934C7.63236 0.802036 6.53921 0.0184727 5.09703 0.0184727C2.87038 0.0184727 1.12806 1.6617 1.12806 3.7627C1.12806 6.36903 2.90506 7.41894 5.16013 8.19002C7.26286 8.90343 8.21446 9.71375 8.21446 11.0187C8.21446 12.6625 7.41293 13.4395 5.62172 13.4395C4.55757 13.4395 3.5332 12.9984 2.79535 12.0983C2.10012 11.2506 1.69652 10.1257 1.47766 8.7875H1.04449V13.7326H1.38386L2.1888 12.2481H2.24678C2.94826 13.1482 4.10848 13.9377 5.62001 13.9377C8.35657 13.9377 10.021 12.09 10.021 9.68818C10.021 7.28696 8.43388 6.09615 6.19359 5.29Z" fill="#374554"/>
<path d="M109.512 1.80401C108.892 0.866463 107.86 -0.000927925 106.211 -0.000927925C102.486 -0.000927925 99.9799 3.21597 99.9799 7.00181C99.9799 10.7817 102.366 14.0105 106.19 14.0105C108.648 14.0105 110.45 12.6687 111 9.58853L110.535 9.4613C110.024 11.9707 108.742 13.4582 106.504 13.4582C104.18 13.4582 102.952 11.4202 102.952 7.00181C102.952 2.59768 104.087 0.507379 106.26 0.507379C108.39 0.507379 109.723 2.1405 110.322 5.39961H110.805V0.232715H110.5L109.55 1.80401" fill="#374554"/>
<path d="M21.2195 1.75599C20.5988 0.819638 19.6216 -0.000191689 17.9748 -0.000191689C14.2497 -0.000191689 11.7416 3.21611 11.7416 7.00255C11.7416 10.7818 14.1303 14.0112 17.9532 14.0112C20.4106 14.0112 22.2132 12.6694 22.7629 9.58986L22.2979 9.50722C21.7096 11.9709 20.6073 13.4583 18.2664 13.4583C15.9437 13.4583 14.7141 11.4204 14.7141 7.00255C14.7141 2.59782 15.8857 0.50871 17.9543 0.50871C20.0832 0.50871 21.4162 2.13945 22.0142 5.39975H22.4281V0.232856H22.054L21.2576 1.75599" fill="#374554"/>
<path d="M30.3386 13.2519H28.4451V0.695835H30.3386V0.224983H23.898V0.695835H25.7927V13.2519H23.898V13.74H30.3386" fill="#374554"/>
<path d="M72.5626 13.2519V13.74H79.0033V13.2519H77.1092V0.695835H79.0033V0.224983H72.5626V0.695835H74.4579V13.2519" fill="#374554"/>
<path d="M92.4763 0.695835H94.3704V13.2519H92.4763V13.74H98.9169V13.2519H97.0228V0.695835H98.9169V0.224983H92.4763" fill="#374554"/>
<path d="M43.6196 8.70519H43.3245C42.9209 10.1344 42.3769 11.3531 41.6777 12.2069C40.9552 13.0855 40.2486 13.2437 38.9048 13.2437L36.86 13.2461V7.19156H37.8196C38.5665 7.19156 39.1066 7.34435 39.4681 7.75456C39.9223 8.20342 40.2225 9.06665 40.235 9.99646H40.5823V3.89322H40.235C40.2225 4.83255 39.8433 5.68626 39.4596 6.1375C39.1111 6.54711 38.5756 6.69693 37.8196 6.69693H36.86V0.700698H39.1475C40.2185 0.700698 40.945 0.978929 41.3986 1.44086C42.1552 2.1085 42.6401 3.09182 43.1125 4.86168H43.4115V0.225089H32.309V0.700698H34.2048V13.249L32.309 13.2514V13.7395H43.6196" fill="#374554"/>
<path d="M48.0728 2.26377L56.0995 13.739H56.8612V1.8595C56.8612 1.09675 57.171 0.700209 57.8111 0.700209H58.6422V0.2246H54.4703V0.700209H55.3303C55.9772 0.700209 56.2797 1.10329 56.2797 1.8595V9.53701H56.2257L49.843 0.2246H45.118V0.700209H45.6495C46.3282 0.700209 46.7415 0.881534 47.065 1.26975C47.352 1.567 47.4589 1.84761 47.4589 2.13536V12.0262C47.4589 12.761 47.1695 13.2474 46.5113 13.2474L45.5705 13.2462V13.739H49.9897V13.2462L48.9801 13.2474C48.3411 13.2432 48.0399 12.726 48.0399 12.0262V2.26377" fill="#374554"/>
<path d="M61.605 1.53777C62.0552 1.07048 62.5953 0.729829 63.4656 0.729829H63.9567V13.252H62.0109V13.7395H68.5493V13.252H66.6074V0.729829H67.0343C67.9086 0.729829 68.5209 1.0366 68.9574 1.51518C69.6981 2.24999 70.1398 3.3754 70.5429 5.04835H70.9811V0.224495H59.5961V5.00495H60.0304C60.4345 3.332 60.8842 2.28923 61.605 1.53777Z" fill="#374554"/>
<path d="M80.6171 13.2519V13.74H87.0924V13.2519H85.1704V7.10585H85.9742C86.5808 7.10585 87.1145 7.28777 87.4636 7.68133C87.9905 8.17359 88.2611 9.15037 88.2753 9.9381H88.7591V3.78788H88.2753C88.2611 4.55718 87.9718 5.4543 87.5307 5.95904C87.1413 6.40611 86.5808 6.61181 85.9742 6.61181H85.1704V0.693458H87.0327C88.1508 0.693458 88.8273 0.97585 89.3872 1.55371C89.9585 2.14228 90.4963 3.15235 90.9903 4.88595H91.4019V0.224983H80.6171V0.690486H82.5106V13.2519" fill="#374554"/>
<path d="M77.116 31.4041C76.3798 31.4041 75.7318 31.2828 75.0314 30.8868C73.7439 30.0325 73.1322 28.0558 73.1322 24.9477C73.1322 21.7118 73.7331 19.9175 74.8188 19.0567C75.3827 18.6346 76.1746 18.4521 76.8505 18.4521C78.9208 18.4521 81.0048 19.8961 81.5608 23.3455H82.0149V18.1786H81.6403L80.7177 19.8206H80.6796C80.06 18.8825 78.4769 17.9432 76.8278 17.9432C73.1032 17.9432 70.1592 21.1595 70.1592 24.9477C70.1592 28.7282 72.923 31.9546 77.0324 31.9546C79.4899 31.9546 81.6597 30.6146 82.2099 27.5332L81.7239 27.4054C81.2129 29.9178 79.6729 31.4041 77.116 31.4041Z" fill="#374554"/>
<path d="M62.0115 18.7291H63.9567V31.2851H62.0115V31.7566H68.5499V31.2851H66.608V18.7291H68.5499V18.2559H62.0115" fill="#374554"/>
<path d="M106.026 18.7305H107.089C107.735 18.7305 108.038 19.1342 108.038 19.8922V27.6464H107.984L101.117 18.2567H96.4623V18.7323L96.9944 18.7311C97.672 18.7311 98.0387 18.9475 98.3365 19.2733C98.6236 19.5706 98.7328 19.8779 98.7328 20.1639V30.0577C98.7328 30.792 98.4446 31.2771 97.7874 31.2771H96.7125V31.7539H101.329V31.2771H100.255C99.6167 31.2729 99.3137 30.7581 99.3137 30.0577V20.2953H99.3473L107.858 31.8811H108.619V19.8922C108.619 19.1265 108.929 18.7305 109.57 18.7305H110.604V18.2567H106.026" fill="#374554"/>
<path d="M41.9977 30.1092C41.2707 30.9837 40.4549 31.275 39.11 31.275L36.8702 31.2768V25.22H37.8503C38.5972 25.22 39.1373 25.3733 39.4988 25.7841C39.9524 26.2324 40.2537 27.1069 40.2662 28.0368H40.7534V21.9121H40.2662C40.2537 22.8526 39.8802 23.7218 39.4914 24.1677C39.1486 24.5809 38.6063 24.7259 37.8503 24.7259H36.8702V18.7279H39.272C40.3424 18.7279 41.1229 19.0186 41.5759 19.48C42.3331 20.1476 42.8442 21.1303 43.3086 22.8919H43.7378V18.2559H32.2572V18.7279H34.2138V31.2792L32.2572 31.2804V31.7524H44.001V26.7496H43.7111C43.3313 28.1509 42.7197 29.2448 41.9977 30.1092Z" fill="#374554"/>
<path d="M22.551 27.5503H22.435L18.848 18.2557H13.7581V18.7289H15.8335V29.9997C15.8335 30.7844 15.5169 31.2672 14.8688 31.2719H13.7757V31.7558H18.4586V31.2719H17.357C16.7254 31.2672 16.4145 30.7505 16.4145 29.9997V19.3246H16.4685L21.1867 31.801H21.6403L25.8867 19.3246H25.9367V31.2832H24.0165V31.7558H30.5446V31.2832H28.5829V18.7289H30.5486V18.2557H25.7196" fill="#374554"/>
<path d="M59.1202 31.0767C58.6257 31.0767 58.3528 30.9031 58.1829 30.2896C58.0703 29.8799 57.9941 29.0197 57.9236 28.2415C57.7355 26.1631 56.4178 25.2755 54.6141 24.9651V24.9182C56.864 24.7196 58.3181 23.4854 58.3181 21.5693C58.3181 19.4873 56.8618 18.2561 53.6102 18.2561H46.4686V18.7269L48.4196 18.7293V31.283H46.4686V31.7556H52.9576V31.283H51.076V25.0573H53.1139C54.3333 25.0573 55.0808 25.6066 55.141 27.119C55.1518 27.2433 55.2064 28.7373 55.2183 28.861C55.3104 31.0291 56.4098 31.9988 57.9765 31.9988C59.9417 32 60.7114 31.0523 60.7295 29.0458L60.2401 29.0363C60.2202 30.4483 59.8064 31.0767 59.1202 31.0767ZM51.076 18.7293L53.0582 18.7305C53.6494 18.7305 54.2451 18.8613 54.5794 19.0622C55.3326 19.5117 55.5986 20.4052 55.5986 21.5812C55.5986 22.7393 55.3366 23.7071 54.6624 24.1869C54.3298 24.4372 53.7597 24.5484 53.1946 24.5484H51.076" fill="#374554"/>
<path d="M11.2168 30.244L6.98687 18.2391H6.13702L1.99751 29.8035C1.65189 30.7345 1.37562 31.2737 0.571817 31.2737H-0.0438232V31.7559H3.98143V31.2737H3.11226C2.29254 31.2737 2.2897 30.6013 2.60008 29.7411L3.38284 27.5093H7.44561L8.40119 30.3207C8.5831 30.8855 8.65757 31.2737 8.02089 31.2737H7.02666V31.7559H13.0682V31.2731L12.2229 31.2737C11.6488 31.2737 11.4578 30.9354 11.2168 30.244ZM3.5602 27.0093L5.4202 21.73H5.47932L7.27508 27.0093" fill="#374554"/>
<path d="M93.9145 30.244L89.6846 18.2391H88.8336L84.6941 29.8035C84.349 30.7345 84.0659 31.2678 83.2678 31.2737H82.6539V31.7559H86.6774V31.2737H85.8065C84.9857 31.2695 84.9874 30.6013 85.2961 29.7411L86.0805 27.5093H90.1422L91.0983 30.3207C91.2808 30.8855 91.3393 31.2701 90.718 31.2737H89.7232V31.7559H95.7648V31.2737H94.9195C94.3465 31.2701 94.1549 30.9354 93.9145 30.244ZM86.2573 27.0093L88.1173 21.73H88.1759L89.9716 27.0093" fill="#374554"/>
</g>
<defs>
<clipPath id="clip0">
<rect width="111" height="32" fill="white"/>
</clipPath>
</defs>
</svg>
